<svg xmlns="http://www.w3.org/2000/svg" xmlns:xlink="http://www.w3.org/1999/xlink" viewBox="0 0 237.2 261.28"><defs><style>.cls-1{opacity:0.13;}.cls-2{fill:#ccc;}.cls-3{fill:#a6a6a6;}.cls-4{fill:#eee;}.cls-5{fill:#9f9f9f;}.cls-6{fill:#e6e6e6;}.cls-7{fill:#c1c1c1;}.cls-47,.cls-7{opacity:0.7;}.cls-8{fill:#dbdbdb;}.cls-9{fill:#b3b3b3;}.cls-10{fill:#afafaf;}.cls-11{fill:#3b3b3b;}.cls-12{fill:#383838;}.cls-13{fill:#b9b9b9;}.cls-14{fill:#2d2d2d;}.cls-15{fill:#5e5e5e;}.cls-16,.cls-45{fill:#a0a0a0;}.cls-17{fill:url(#_ÂÁ_Ï_ÌÌ_È_ËÂÌÚ_2);}.cls-18{fill:url(#_ÂÁ_Ï_ÌÌ_È_ËÂÌÚ_2-2);}.cls-19{fill:url(#_ÂÁ_Ï_ÌÌ_È_ËÂÌÚ_2-3);}.cls-20{fill:url(#_ÂÁ_Ï_ÌÌ_È_ËÂÌÚ_2-4);}.cls-21{fill:url(#_ÂÁ_Ï_ÌÌ_È_ËÂÌÚ_2-5);}.cls-22{fill:url(#_ÂÁ_Ï_ÌÌ_È_ËÂÌÚ_2-6);}.cls-23{fill:url(#_ÂÁ_Ï_ÌÌ_È_ËÂÌÚ_2-7);}.cls-24{fill:url(#_ÂÁ_Ï_ÌÌ_È_ËÂÌÚ_2-8);}.cls-25{fill:url(#_ÂÁ_Ï_ÌÌ_È_ËÂÌÚ_2-9);}.cls-26{fill:url(#_ÂÁ_Ï_ÌÌ_È_ËÂÌÚ_2-10);}.cls-27{fill:url(#_ÂÁ_Ï_ÌÌ_È_ËÂÌÚ_2-11);}.cls-28{fill:url(#_ÂÁ_Ï_ÌÌ_È_ËÂÌÚ_2-12);}.cls-29{fill:url(#_ÂÁ_Ï_ÌÌ_È_ËÂÌÚ_2-13);}.cls-30{fill:url(#_ÂÁ_Ï_ÌÌ_È_ËÂÌÚ_2-14);}.cls-31{fill:url(#_ÂÁ_Ï_ÌÌ_È_ËÂÌÚ_2-15);}.cls-32{fill:url(#_ÂÁ_Ï_ÌÌ_È_ËÂÌÚ_2-16);}.cls-33{fill:url(#_ÂÁ_Ï_ÌÌ_È_ËÂÌÚ_2-17);}.cls-34{fill:url(#_ÂÁ_Ï_ÌÌ_È_ËÂÌÚ_2-18);}.cls-35{fill:url(#_ÂÁ_Ï_ÌÌ_È_ËÂÌÚ_2-19);}.cls-36{fill:url(#_ÂÁ_Ï_ÌÌ_È_ËÂÌÚ_2-20);}.cls-37{fill:url(#_ÂÁ_Ï_ÌÌ_È_ËÂÌÚ_2-21);}.cls-38{fill:url(#_ÂÁ_Ï_ÌÌ_È_ËÂÌÚ_2-22);}.cls-39{fill:url(#_ÂÁ_Ï_ÌÌ_È_ËÂÌÚ_2-23);}.cls-40{fill:url(#_ÂÁ_Ï_ÌÌ_È_ËÂÌÚ_2-24);}.cls-41{fill:url(#_ÂÁ_Ï_ÌÌ_È_ËÂÌÚ_2-25);}.cls-42{fill:#a2a2a2;}.cls-42,.cls-43,.cls-45,.cls-46{fill-rule:evenodd;}.cls-43{fill:#4c4c4c;}.cls-44{opacity:0.76;}.cls-46{fill:#aaa;}.cls-48{fill:#606060;}</style><linearGradient id="_ÂÁ_Ï_ÌÌ_È_ËÂÌÚ_2" x1="24.62" y1="188.01" x2="24.62" y2="162.11" gradientUnits="userSpaceOnUse"><stop offset="0" stop-color="#535353"/><stop offset="0.97" stop-color="gray"/></linearGradient><linearGradient id="_ÂÁ_Ï_ÌÌ_È_ËÂÌÚ_2-2" x1="27.05" y1="192.87" x2="27.05" y2="157.55" xlink:href="#_ÂÁ_Ï_ÌÌ_È_ËÂÌÚ_2"/><linearGradient id="_ÂÁ_Ï_ÌÌ_È_ËÂÌÚ_2-3" x1="33.87" y1="187.61" x2="33.87" y2="160.96" xlink:href="#_ÂÁ_Ï_ÌÌ_È_ËÂÌÚ_2"/><linearGradient id="_ÂÁ_Ï_ÌÌ_È_ËÂÌÚ_2-4" x1="32.79" y1="178.01" x2="32.79" y2="164.91" xlink:href="#_ÂÁ_Ï_ÌÌ_È_ËÂÌÚ_2"/><linearGradient id="_ÂÁ_Ï_ÌÌ_È_ËÂÌÚ_2-5" x1="32.07" y1="186.8" x2="32.07" y2="159.94" xlink:href="#_ÂÁ_Ï_ÌÌ_È_ËÂÌÚ_2"/><linearGradient id="_ÂÁ_Ï_ÌÌ_È_ËÂÌÚ_2-6" x1="31.85" y1="183.36" x2="31.85" y2="161.21" xlink:href="#_ÂÁ_Ï_ÌÌ_È_ËÂÌÚ_2"/><linearGradient id="_ÂÁ_Ï_ÌÌ_È_ËÂÌÚ_2-7" x1="35.77" y1="175.19" x2="35.77" y2="156.93" xlink:href="#_ÂÁ_Ï_ÌÌ_È_ËÂÌÚ_2"/><linearGradient id="_ÂÁ_Ï_ÌÌ_È_ËÂÌÚ_2-8" x1="29.75" y1="190.83" x2="29.75" y2="159.01" xlink:href="#_ÂÁ_Ï_ÌÌ_È_ËÂÌÚ_2"/><linearGradient id="_ÂÁ_Ï_ÌÌ_È_ËÂÌÚ_2-9" x1="31.03" y1="192.15" x2="31.03" y2="170.16" xlink:href="#_ÂÁ_Ï_ÌÌ_È_ËÂÌÚ_2"/><linearGradient id="_ÂÁ_Ï_ÌÌ_È_ËÂÌÚ_2-10" x1="34.92" y1="189.31" x2="34.92" y2="165.96" xlink:href="#_ÂÁ_Ï_ÌÌ_È_ËÂÌÚ_2"/><linearGradient id="_ÂÁ_Ï_ÌÌ_È_ËÂÌÚ_2-11" x1="32.5" y1="190.07" x2="32.5" y2="165.13" xlink:href="#_ÂÁ_Ï_ÌÌ_È_ËÂÌÚ_2"/><linearGradient id="_ÂÁ_Ï_ÌÌ_È_ËÂÌÚ_2-12" x1="33.22" y1="190.87" x2="33.22" y2="163.78" xlink:href="#_ÂÁ_Ï_ÌÌ_È_ËÂÌÚ_2"/><linearGradient id="_ÂÁ_Ï_ÌÌ_È_ËÂÌÚ_2-13" x1="34.2" y1="190.13" x2="34.2" y2="162.86" xlink:href="#_ÂÁ_Ï_ÌÌ_È_ËÂÌÚ_2"/><linearGradient id="_ÂÁ_Ï_ÌÌ_È_ËÂÌÚ_2-14" x1="32.1" y1="190.72" x2="32.1" y2="166.86" xlink:href="#_ÂÁ_Ï_ÌÌ_È_ËÂÌÚ_2"/><linearGradient id="_ÂÁ_Ï_ÌÌ_È_ËÂÌÚ_2-15" x1="32.13" y1="186.84" x2="32.13" y2="161.93" xlink:href="#_ÂÁ_Ï_ÌÌ_È_ËÂÌÚ_2"/><linearGradient id="_ÂÁ_Ï_ÌÌ_È_ËÂÌÚ_2-16" x1="33.87" y1="184.33" x2="33.87" y2="159.69" xlink:href="#_ÂÁ_Ï_ÌÌ_È_ËÂÌÚ_2"/><linearGradient id="_ÂÁ_Ï_ÌÌ_È_ËÂÌÚ_2-17" x1="35.08" y1="189.48" x2="35.08" y2="159.89" xlink:href="#_ÂÁ_Ï_ÌÌ_È_ËÂÌÚ_2"/><linearGradient id="_ÂÁ_Ï_ÌÌ_È_ËÂÌÚ_2-18" x1="29.97" y1="191.81" x2="29.97" y2="160.02" xlink:href="#_ÂÁ_Ï_ÌÌ_È_ËÂÌÚ_2"/><linearGradient id="_ÂÁ_Ï_ÌÌ_È_ËÂÌÚ_2-19" x1="30.46" y1="194.5" x2="30.46" y2="168.4" xlink:href="#_ÂÁ_Ï_ÌÌ_È_ËÂÌÚ_2"/><linearGradient id="_ÂÁ_Ï_ÌÌ_È_ËÂÌÚ_2-20" x1="27.89" y1="195.89" x2="27.89" y2="162.9" xlink:href="#_ÂÁ_Ï_ÌÌ_È_ËÂÌÚ_2"/><linearGradient id="_ÂÁ_Ï_ÌÌ_È_ËÂÌÚ_2-21" x1="31.85" y1="183.87" x2="31.85" y2="157.03" xlink:href="#_ÂÁ_Ï_ÌÌ_È_ËÂÌÚ_2"/><linearGradient id="_ÂÁ_Ï_ÌÌ_È_ËÂÌÚ_2-22" x1="31.36" y1="191.69" x2="31.36" y2="158.67" xlink:href="#_ÂÁ_Ï_ÌÌ_È_ËÂÌÚ_2"/><linearGradient id="_ÂÁ_Ï_ÌÌ_È_ËÂÌÚ_2-23" x1="31.12" y1="194.24" x2="31.12" y2="158.94" xlink:href="#_ÂÁ_Ï_ÌÌ_È_ËÂÌÚ_2"/><linearGradient id="_ÂÁ_Ï_ÌÌ_È_ËÂÌÚ_2-24" x1="28.84" y1="194.53" x2="28.84" y2="160.77" xlink:href="#_ÂÁ_Ï_ÌÌ_È_ËÂÌÚ_2"/><linearGradient id="_ÂÁ_Ï_ÌÌ_È_ËÂÌÚ_2-25" x1="32.12" y1="192.68" x2="32.12" y2="162.38" xlink:href="#_ÂÁ_Ï_ÌÌ_È_ËÂÌÚ_2"/></defs><g id="Capa_2" data-name="Capa 2"><g id="OBJECTS"><g class="cls-1"><path class="cls-2" d="M47.56,13.75s-33,44.45-5.37,128,112.67,51.35,128,27.59,78.33-81.48-8.43-141C83.58-25.34,47.56,13.75,47.56,13.75Z"/><path class="cls-3" d="M85,167.08c26.33,9.32,58.31,6.46,80-7.32A155.85,155.85,0,0,0,201.44,127c26.42-31.95,48.28-59.48-10.93-87.36s-141-14.87-158.4,0C16.05,53.39-29.34,126.6,85,167.08Z"/></g><polygon class="cls-4" points="137.3 86.41 128.5 84.7 134.22 107.27 143.01 108.98 137.3 86.41"/><polygon class="cls-5" points="138.41 90.78 129.61 89.07 129.51 88.68 138.31 90.39 138.41 90.78"/><path class="cls-5" d="M139,93.17c-.22.68-.4,1.25-.51,1.62l-7.83-1.52.1.39,7.74,1.51,1.17,4.31L131.86,98l0,.19,7.82,1.53L140.9,104l-7.9-1.54.09.39,7.91,1.54,1.17,4.32-8-1.56,0,.13L143,109l0-.12-.16,0-1.16-4.32.23,0-.09-.39-.25,0-1.17-4.32.33.07-.05-.2-.33-.06-.81-3,.38.08-.05-.2-.38-.07-.35-1.28q.07-.27.21-.69Z"/><polygon class="cls-6" points="144.22 80.72 137.3 86.41 143.01 108.98 149.94 103.29 144.22 80.72"/><polygon class="cls-5" points="148.82 98.86 141.89 104.56 141.79 104.17 148.72 98.47 148.82 98.86"/><polygon class="cls-5" points="143.01 108.98 142.98 108.86 149.91 103.16 149.94 103.29 143.01 108.98"/><path class="cls-5" d="M140.75,83.58l-.54.44c-.14,1.07-.42,3.2-.71,5.39l-1.19,1,.1.39,1-.84c-.15,1.13-.29,2.25-.42,3.23l.32,1.27c.16-1.25.4-3.1.64-4.94l4-3.26,1.44,5.7-5.52,4.54.05.2,5.52-4.54.76,3-5.52,4.54.05.2,6.92-5.7,0-.19-1.15.94-.75-3,1.14-1,0-.19-1.14.94L144.18,86l1.15-.94-.1-.39L140,89c.29-2.26.58-4.42.7-5.37Z"/><polygon class="cls-4" points="153.03 82.43 144.22 80.72 149.94 103.29 158.74 105.01 153.03 82.43"/><path class="cls-5" d="M150.53,82l-.7-.13a18.1,18.1,0,0,0-1,3.57l-3.58-.69.1.39,3.42.66c-.05.31-.1.63-.15,1a32.74,32.74,0,0,0-.26,4.37l-1.57-.3,0,.19,1.52.3c0,.89,0,1.84.13,2.87l-.89-.17,0,.19.86.17c.1,1.29.27,2.68.52,4.19l-.29-.06.1.39.26.06c.24,1.33.54,2.76.92,4.26l-.09,0,0,.13,8.8,1.72,0-.13-2.08-.41-1.09-4.3,2.08.41-.1-.39-7.85-1.53c-.26-1.51-.43-2.91-.53-4.19l7.29,1.42-.05-.2-7.26-1.41a35,35,0,0,1,.14-7.34c.05-.37.1-.72.16-1.06l4.71.92-.1-.39-4.55-.89a17,17,0,0,1,1-3.56Zm4.69,18.16,1.08,4.3-5.65-1.1c-.38-1.51-.68-2.93-.92-4.27Z"/><polygon class="cls-4" points="168.75 78.45 159.95 76.74 165.66 99.31 174.46 101.03 168.75 78.45"/><polygon class="cls-5" points="166.81 99.42 165.73 95.11 164.54 94.89 164.44 94.49 173.24 96.21 173.34 96.6 166.05 95.18 167.14 99.48 174.43 100.9 174.46 101.03 165.66 99.31 165.63 99.18 166.81 99.42"/><polygon class="cls-5" points="169.85 82.82 164.5 81.78 166.75 90.67 172.1 91.71 172.16 91.91 163.36 90.19 163.31 90 166.42 90.61 164.17 81.71 161.06 81.11 160.96 80.72 169.76 82.43 169.85 82.82"/><polygon class="cls-6" points="163.36 90.19 156.43 95.89 157.52 100.19 164.44 94.49 163.36 90.19"/><polygon class="cls-6" points="161.06 81.11 154.13 86.8 156.38 95.69 163.31 90 161.06 81.11"/><polygon class="cls-6" points="159.95 76.74 153.03 82.43 154.03 86.41 160.96 80.72 159.95 76.74"/><polygon class="cls-5" points="165.63 99.18 158.71 104.88 158.74 105 165.66 99.31 165.63 99.18"/><polygon class="cls-6" points="164.54 94.89 157.62 100.58 158.71 104.88 165.63 99.18 164.54 94.89"/><polygon class="cls-5" points="164.44 94.49 157.52 100.19 157.62 100.58 164.54 94.89 164.44 94.49"/><polygon class="cls-5" points="163.31 90 156.38 95.69 156.43 95.89 163.36 90.19 163.31 90"/><polygon class="cls-5" points="160.96 80.72 154.03 86.41 154.13 86.8 161.06 81.11 160.96 80.72"/><path class="cls-7" d="M8.24,167.82s11.91-6.21,0-10.58S2.25,144.52,108.4,139c53.6-2.8-3.66,7.66,5.87,7.78,127.13,1.63,109.12,5.91,92.93,8.5-17.4,2.78-15.88,1.58,3.36,7.54s84.71,40.69-104.49,40.69c-46.54,0,64-14.86-5.65-12.91C-26.09,194.11-.76,169.57,8.24,167.82Z"/><path class="cls-8" d="M116.84,26a16.48,16.48,0,0,0-9.26-7.54,13.3,13.3,0,0,0-13.68,3.7,9.65,9.65,0,0,0-12.07-1.89A22,22,0,0,0,68.49,6.83a28.19,28.19,0,0,0-19.19.31,18.69,18.69,0,0,0-8.15,5.29,10.16,10.16,0,0,0-2.23,9.17c-4.25-1.91-9-3-13.62-2-2.85.59-8.19,3.24-9,6.42Z"/><circle class="cls-9" cx="162.12" cy="31.43" r="19.57" transform="translate(0.08 63.29) rotate(-22.1)"/><path class="cls-10" d="M167.62,67.62a4.3,4.3,0,0,0-.16-1.86,3.36,3.36,0,0,0-1.11-1.34A11.29,11.29,0,0,0,161,62.33a3.3,3.3,0,0,0-3,.63,3.22,3.22,0,0,0-.61,1.34,32.56,32.56,0,0,0-.55,9.41,4.63,4.63,0,0,0,1,3.25c.35.34.81.58,1.05,1,.35.61.14,1.4.46,2a2.61,2.61,0,0,0,2.14,1c2.9.33,5.52.39,5.77-2.81C167.49,74.7,167.41,71.11,167.62,67.62Z"/><path class="cls-9" d="M163.24,176.74a.35.35,0,0,1-.25-.14.49.49,0,0,1,0-.21l.24-3.79a.74.74,0,0,1,.18-.54.69.69,0,0,1,.43-.13c2-.18,5.18-1.9,5.39.71a27.54,27.54,0,0,1-.36,3.26c-.12.89,0,1.24-.83,1.45C166.69,177.69,164.53,177,163.24,176.74Z"/><path class="cls-9" d="M146.39,170.37a.33.33,0,0,1-.26-.11.39.39,0,0,1-.06-.21l-.18-3.79a.73.73,0,0,1,.12-.55.71.71,0,0,1,.42-.19c2-.39,4.94-2.45,5.44.12a29.91,29.91,0,0,1,0,3.28c0,.9.13,1.24-.67,1.54C149.92,170.93,147.71,170.52,146.39,170.37Z"/><path class="cls-11" d="M172.71,140.09c-1.44,10.5-1.58,33.09-1.79,33.36s-8.41.27-8.48-.15.27-7.57.32-10.65c.16-9.87-1.51-19.73-1.34-29.6-3.12,3.78-7.69,12.76-8,13.66a7,7,0,0,0-.12,2.58c.38,4.87.3,17.54.09,17.9-.34.55-9-.35-9.29-.54s-.34-22.21-.21-23.94c.19-2.61,1.48-5,2.75-7.28q4.31-7.77,8.6-15.53a5.56,5.56,0,0,1,1.2-1.66c1-.87,2.5-.88,3.85-.85l10.38.21c3.18.06,4.71-.33,4.79,3.21a48.29,48.29,0,0,1-1,9.73C173.89,133.59,172.71,137,172.71,140.09Z"/><path class="cls-12" d="M168.6,184.81a1.36,1.36,0,0,1-.24.74,1.31,1.31,0,0,1-.76.35,14.45,14.45,0,0,1-3.71.27c-.69,0-1.54-.29-1.64-1a1.14,1.14,0,0,0-.1-.56c-.12-.15-.46,0-.37.12a2.8,2.8,0,0,1-1.9-1.68,4.25,4.25,0,0,1-.15-2.59,2.32,2.32,0,0,1,.43-1,3,3,0,0,1,1.89-.84,7.87,7.87,0,0,0,.49-2,.61.61,0,0,1,.61-.55c1.85,0,6.07-.07,6.12.5a29.89,29.89,0,0,1-.29,4.21C168.88,182.16,168.76,183.48,168.6,184.81Z"/><path class="cls-12" d="M152.55,177.7a.88.88,0,0,1-.14.58.8.8,0,0,1-.49.25,17.52,17.52,0,0,1-3.81.49c-.42,0-.92-.05-1.08-.43s0-.57-.24-.74-.7.19-1,.42a2,2,0,0,1-1.77,0l-5.81-1.93a1.26,1.26,0,0,1-.63-.37,1.19,1.19,0,0,1-.16-.65,3.68,3.68,0,0,1,.8-2.79,4.19,4.19,0,0,1,3-.76h2.9a.91.91,0,0,0,.52-.09,1,1,0,0,0,.37-.56l.54-1.54a.86.86,0,0,1,.31-.48.87.87,0,0,1,.48-.07c1.51.1,5.9.24,6.12.75s.09,2.89.1,3.92C152.53,175,152.55,176.36,152.55,177.7Z"/><path class="cls-13" d="M183.92,106.68A76.19,76.19,0,0,0,180.7,90a13.14,13.14,0,0,0-1.79-4,14.28,14.28,0,0,0-5-3.68c-2.28-1.21-4.74-3-7.31-3.51-3.22-.6-6.72.66-9.7,1.73s-6.36,2.44-7.9,5.3a13.25,13.25,0,0,0-1.15,3.89c-.61,3.24-.6,10.55-1.09,13.81a10.43,10.43,0,0,0-.13,3.25,3.7,3.7,0,0,0,1.68,2.68,5.65,5.65,0,0,0,2.83.49,16.71,16.71,0,0,0,2.64-.16c.24,2.1-.5.18-.56,2.3-.07,2.46-.17,5.33,1.73,6.88a7.06,7.06,0,0,0,4.29,1.17,73.26,73.26,0,0,0,13.72-.75c1.34-.21,2.91-.62,3.4-1.9a4,4,0,0,0,.17-1.42v-5.32a28.54,28.54,0,0,0,5.62-1.33,2.78,2.78,0,0,0,1.49-.94A2.89,2.89,0,0,0,183.92,106.68Z"/><path class="cls-14" d="M159.33,67.41c.68,1.25-1.19,4.92.15,4.48.56-.18,1-1.68,1.6-1.73a.94.94,0,0,1,.91,1,2.4,2.4,0,0,1-.57,1.35,4,4,0,0,0-.76,1.28,2.37,2.37,0,0,0,1.47,2.56,6.92,6.92,0,0,0,3.17.35l1.13,0a3.25,3.25,0,0,0,.54-.12c.44-.11.73-.17.94-.44a15.72,15.72,0,0,0,2.47-6.32c.14-1.31-2-3.37-2.64-4.52A5,5,0,0,0,166,63.53a11.39,11.39,0,0,0-5.09-1.69,4.65,4.65,0,0,0-3.07.61,2.16,2.16,0,0,0-.75,2.83C157.63,66.12,158.82,66.47,159.33,67.41Z"/><path class="cls-12" d="M152.24,62.15c-1.57,1-3.17,3-1,4.31A57.47,57.47,0,0,0,158.35,70c4.62,2,9.94,3.5,14.82,1.55,1.05-.42,2.18-1.21,2.15-2.35a2.65,2.65,0,0,0-.44-1.26,13,13,0,0,0-4.81-4.27c-3-1.81-6.23-2.13-9.64-2.54C158,60.81,154.54,60.71,152.24,62.15Z"/><path class="cls-15" d="M157,62.22a6.13,6.13,0,0,1,.74-2c.91-1.35,2.7-1.76,4.32-1.9a26.57,26.57,0,0,1,3.57-.09,3.71,3.71,0,0,1,1.1.16,3.91,3.91,0,0,1,1.5,1.18,5.45,5.45,0,0,1,1.33,1.91,5,5,0,0,1,.21,1.63A27.43,27.43,0,0,1,169.6,66a2.11,2.11,0,0,1-.22.86,1.6,1.6,0,0,1-.64.54,5.23,5.23,0,0,1-2.91.28,33.7,33.7,0,0,1-6.6-1.39c-.63-.2-2.57-.56-2.87-1.18S156.8,62.85,157,62.22Z"/><path class="cls-12" d="M163.72,59.19a10.81,10.81,0,0,0-2.34.63.65.65,0,0,0-.32.19.43.43,0,0,0,0,.47,1.11,1.11,0,0,0,.4.31,6.54,6.54,0,0,0,2.53.69,1.67,1.67,0,0,0,.59,0,1.41,1.41,0,0,0,.42-.22c.42-.28,1.82-1.25,1.18-1.82C165.73,59,164.3,59.12,163.72,59.19Z"/><path class="cls-12" d="M156.61,84.22A10.51,10.51,0,0,1,158,88.1a9.89,9.89,0,0,1,2-.59,1,1,0,0,0,.41-.12,1,1,0,0,0,.28-1,9.7,9.7,0,0,0-2.08-4.39,3.58,3.58,0,0,0-1.14-1.15,3.89,3.89,0,0,0-1.35-.34,4.33,4.33,0,0,0-2.12.11c-1.33.55-1.08,1.45-.1,1.85S155.86,83.14,156.61,84.22Z"/><path class="cls-12" d="M170.26,81.68c.2.72.24,1.49.47,2.2a.66.66,0,0,0,.21.35.67.67,0,0,0,.37.11l2.38.24a3.54,3.54,0,0,0-.77-3.76c-.52-.54-1.84-1.39-2.65-1.17C169,80,170,80.8,170.26,81.68Z"/><path class="cls-9" d="M157.68,86.87a36.38,36.38,0,0,1,11.13-3.17,13,13,0,0,1,4.86.16,5.8,5.8,0,0,1,3.79,2.85,8.77,8.77,0,0,1,.68,3.3c.51,7.13.62,14.29.51,21.44a5.33,5.33,0,0,1-.58,2.85c-.86,1.34-2.67,1.64-4.26,1.8a85.05,85.05,0,0,1-16.33.65,1.46,1.46,0,0,1-.74-.22,1.35,1.35,0,0,1-.35-.63,33.5,33.5,0,0,1-1.19-12.54c.2-3.36.62-6.7.83-10.06C156.13,91.65,156.1,87.62,157.68,86.87Z"/><path class="cls-16" d="M159.82,110a1.88,1.88,0,0,1-.09-1.63,1.77,1.77,0,0,1,.73-.56,13.84,13.84,0,0,1,4.86-1.06,90.56,90.56,0,0,1,10-.29,2.1,2.1,0,0,1,2.59,2.59c0,.7-.06,1.41-.1,2.11a1.62,1.62,0,0,1-1.69,2q-5,.66-10.12.82c-1.11,0-3.62.54-4.58-.09S160.18,111,159.82,110Z"/><path class="cls-16" d="M161.37,103.94a.84.84,0,0,0,.14.32.78.78,0,0,0,.55.22,8.82,8.82,0,0,0,2.9-.16,1,1,0,0,0,.49-.21,1.15,1.15,0,0,0,.27-.79,29.89,29.89,0,0,0-.48-7.73c-.41-2.07-3.48-3-4.45-.83C159.71,97.22,160.7,101.47,161.37,103.94Z"/><path class="cls-16" d="M167.9,92.64a1.39,1.39,0,0,0-.61,1.14,5,5,0,0,0,.2,1.33c.52,2.44.26,5,.44,7.48a.72.72,0,0,0,.17.5.73.73,0,0,0,.48.16,29.94,29.94,0,0,0,6.95-.21.8.8,0,0,0,.52-.22.73.73,0,0,0,.11-.46,51,51,0,0,0,0-5.39c-.08-1.42,0-3.77-1.07-4.86-.82-.79-1.56-.46-2.54-.18C171.15,92.31,169.08,92,167.9,92.64Z"/><path class="cls-15" d="M210.16,168.65a1.61,1.61,0,0,0-.38-1.05,1.65,1.65,0,0,0-.9-.34q-3.36-.52-6.75-.86a7.6,7.6,0,0,1-2.68-.61,6.25,6.25,0,0,1-2.4-2.75,24.26,24.26,0,0,1-2.9-11.55,9.5,9.5,0,0,1,1.52-5.73,2.86,2.86,0,0,1,2.22-1.3c1.16,0,2,1.11,2.55,2.12a18.76,18.76,0,0,1,2.22,7.33,7.8,7.8,0,0,0,.66,3.2c1.15,2,3.92,2.12,6.22,2,.72-4.92.41-10,1.36-14.87s3.55-9.88,8.16-11.79a5.65,5.65,0,0,1,4.13-.31,5.08,5.08,0,0,1,3,4.08,11.33,11.33,0,0,1-.74,5.2c-.94,2.76-2.28,5.36-3.33,8.07A40.07,40.07,0,0,0,219.45,165a2.28,2.28,0,0,0,3.2-.38,6.66,6.66,0,0,0,1.24-3.35c.59-3.4,1.18-6.79,1.78-10.19a6.05,6.05,0,0,1,1.18-3.13c1.47-1.6,4.31-1.07,5.75.55s1.84,3.9,2,6.07a49,49,0,0,1,0,8.13,6.73,6.73,0,0,1-.73,2.91c-.88,1.49-2.67,2.13-4.33,2.61-2.54.74-5.12,1.36-7.72,1.86a3.69,3.69,0,0,0-2,.82,3.57,3.57,0,0,0-.7,2.32,97.46,97.46,0,0,0,0,10.81,2.75,2.75,0,0,1-.16,1.37,2.44,2.44,0,0,1-2.15,1c-4.73.28-4.76-1.32-5.25-5.39S210.66,172.79,210.16,168.65Z"/><polygon class="cls-12" points="176.42 191.41 215.54 191.41 209.49 174.34 195.98 176.89 195.98 184.96 185.65 185.76 176.42 191.41"/><polygon class="cls-14" points="195.98 176.89 195.98 184.96 201.16 189.38 200.19 182.63 195.98 176.89"/><path class="cls-15" d="M48.63,166.05a121.82,121.82,0,0,1-.05,13.24,3.18,3.18,0,0,0,.19,1.68,3,3,0,0,0,2.63,1.24c5.8.35,5.84-1.62,6.43-6.6S59,165.47,59.64,160.4a2,2,0,0,1,.46-1.28,2,2,0,0,1,1.12-.41c2.74-.43,5.5-.79,8.26-1.06a9.34,9.34,0,0,0,3.28-.74,7.75,7.75,0,0,0,2.95-3.37,29.75,29.75,0,0,0,3.54-14.15,11.48,11.48,0,0,0-1.86-7,3.49,3.49,0,0,0-2.71-1.6c-1.42,0-2.44,1.36-3.12,2.61a22.72,22.72,0,0,0-2.73,9,9.41,9.41,0,0,1-.81,3.91c-1.41,2.43-4.8,2.6-7.61,2.47-.89-6-.5-12.23-1.67-18.22s-4.35-12.11-10-14.45a7.06,7.06,0,0,0-5.06-.38,6.23,6.23,0,0,0-3.65,5,13.62,13.62,0,0,0,.9,6.36c1.15,3.38,2.8,6.57,4.08,9.9a49,49,0,0,1,3.25,19Z"/><path class="cls-15" d="M98.18,137.75a.78.78,0,0,1,.18-.47.7.7,0,0,1,.4-.15c1-.16,2-.29,3-.39a3.23,3.23,0,0,0,1.2-.27,2.7,2.7,0,0,0,1.08-1.23,10.88,10.88,0,0,0,1.3-5.18,4.22,4.22,0,0,0-.68-2.56,1.3,1.3,0,0,0-1-.59c-.52,0-.9.5-1.15,1a8.58,8.58,0,0,0-1,3.28,3.42,3.42,0,0,1-.29,1.43c-.51.89-1.76.95-2.78.9-.33-2.2-.19-4.47-.61-6.66s-1.6-4.43-3.66-5.28a2.53,2.53,0,0,0-1.85-.14A2.26,2.26,0,0,0,91,123.23a4.92,4.92,0,0,0,.33,2.33c.42,1.23,1,2.4,1.49,3.62a18,18,0,0,1,1.19,7,1,1,0,0,1-1.44-.18,3,3,0,0,1-.55-1.5c-.27-1.52-.53-3-.8-4.56a2.72,2.72,0,0,0-.53-1.4,1.83,1.83,0,0,0-2.58.24,4.55,4.55,0,0,0-.9,2.72,21.19,21.19,0,0,0,0,3.65,2.9,2.9,0,0,0,.32,1.3,3.2,3.2,0,0,0,1.94,1.17c1.14.33,2.29.61,3.46.83a1.19,1.19,0,0,1,1.21,1.41,46,46,0,0,1,0,4.84,1.14,1.14,0,0,0,.07.61,1.1,1.1,0,0,0,1,.46c2.12.12,2.14-.6,2.35-2.42Z"/><path class="cls-8" d="M150.88,51a11.86,11.86,0,0,1,6.67-5.43,9.59,9.59,0,0,1,9.85,2.66,7,7,0,0,1,8.7-1.36,15.74,15.74,0,0,1,9.6-9.67,20.27,20.27,0,0,1,13.82.22,13.44,13.44,0,0,1,5.87,3.8,7.3,7.3,0,0,1,1.6,6.61,16.22,16.22,0,0,1,9.81-1.45c2.06.42,5.9,2.33,6.51,4.62Z"/><path class="cls-17" d="M37.17,172.16a11.68,11.68,0,0,0-3.29-5,11.54,11.54,0,0,0-5.07-3.17,5.64,5.64,0,0,0-2.94.05,6.35,6.35,0,0,0-2.54,1.46,16.79,16.79,0,0,0-3.51,4.85A16.58,16.58,0,0,0,17.91,176a10.45,10.45,0,0,0,.84,5.78,6.75,6.75,0,0,0,1.93,2.19,5.76,5.76,0,0,0,2.65,1.2,7.56,7.56,0,0,0,3-.08,6.05,6.05,0,0,0,1.41-.49l1.4-.62h0a8.27,8.27,0,0,0,2.34-2h0a8.56,8.56,0,0,0,1.75-2.49,9.28,9.28,0,0,0,.91-2.92h0a9.49,9.49,0,0,0,.27-3.31h0l-.23-1.37a12.12,12.12,0,0,0-.27-1.36,12.63,12.63,0,0,0-1-2.56h0a7.18,7.18,0,0,0-1.11-2,12.89,12.89,0,0,0-1.62-1.6,5.94,5.94,0,0,0-4.09-1.58,12.61,12.61,0,0,0-4.43.91,13.59,13.59,0,0,0-4,2.1l0,0-2.08,2,0,0a13.37,13.37,0,0,0-2.3,3.49v0a8.3,8.3,0,0,0-1.18,3.44,13.63,13.63,0,0,0,.13,3.72v.06a7.89,7.89,0,0,0,1,3.7L13.2,182c.53.58,1,1.18,1.53,1.69a3.21,3.21,0,0,0,1.77,1,6,6,0,0,1,1.21.2c.38.17.75.37,1.08.55a17.86,17.86,0,0,0,2,1,12.18,12.18,0,0,0,4.36.9,14.15,14.15,0,0,0,4.4-.82,13.41,13.41,0,0,0,7-5.51,8.65,8.65,0,0,0,1.29-4.32A15.43,15.43,0,0,0,37.17,172.16Zm.07,0,.55,2.23a8.88,8.88,0,0,1,.21,2.3,9.22,9.22,0,0,1-1.23,4.43,13.91,13.91,0,0,1-7,5.88,13.7,13.7,0,0,1-4.58,1,13.23,13.23,0,0,1-4.62-.86,16.48,16.48,0,0,1-2.13-1c-.34-.19-.66-.35-1-.49a5.6,5.6,0,0,0-1.06-.17,3.91,3.91,0,0,1-2.2-1.17c-.58-.56-1.06-1.17-1.56-1.72l0,0,0,0a8.77,8.77,0,0,1-1.15-4.06v.06a14.06,14.06,0,0,1-.13-3.94,9.13,9.13,0,0,1,1.33-3.75l0,0a14.3,14.3,0,0,1,2.44-3.65h0l2.1-1.95h0a13.7,13.7,0,0,1,4.22-2.11,12.83,12.83,0,0,1,4.64-.87,5.94,5.94,0,0,1,2.35.47,7.67,7.67,0,0,1,2,1.29,13.8,13.8,0,0,1,1.64,1.69,7.56,7.56,0,0,1,1.15,2.08v0a12.49,12.49,0,0,1,1,2.64,11.52,11.52,0,0,1,.26,1.38l.21,1.38h0a10,10,0,0,1-.32,3.4h0a11.47,11.47,0,0,1-.93,3,9,9,0,0,1-1.79,2.58h0a8.32,8.32,0,0,1-2.39,2.11h0l-1.38.66a7.07,7.07,0,0,1-1.46.54,8,8,0,0,1-3.12.16,6.36,6.36,0,0,1-2.89-1.22A7.28,7.28,0,0,1,18.24,182a10.8,10.8,0,0,1-1-6.14,16,16,0,0,1,2-5.86A16,16,0,0,1,23,165.09a6.92,6.92,0,0,1,2.76-1.48,6.18,6.18,0,0,1,3.11,0A12.14,12.14,0,0,1,34,167,11.73,11.73,0,0,1,37.24,172.14Z"/><path class="cls-18" d="M27.88,161.31,26.25,161h0a7.32,7.32,0,0,0-3.21.7,14.06,14.06,0,0,0-2.84,1.68,18,18,0,0,0-4.55,4.75A15.41,15.41,0,0,0,14.18,171a19.31,19.31,0,0,0-.83,3.18,12.37,12.37,0,0,0,.53,6.44,9.19,9.19,0,0,0,3.87,5A13.12,13.12,0,0,0,24,187.29,21,21,0,0,0,36.31,183a26,26,0,0,0,4.93-4.44,12.64,12.64,0,0,0,2.88-5.88,11.2,11.2,0,0,0-.73-6.45,14.2,14.2,0,0,0-4-5.16,12.29,12.29,0,0,0-5.91-2.63,14.17,14.17,0,0,0-3.26-.09,23.7,23.7,0,0,0-3.26.47,21.17,21.17,0,0,0-11.24,6.41v0h0A16.92,16.92,0,0,0,13,168.37,16.46,16.46,0,0,0,10.46,174a17.13,17.13,0,0,0-.25,2,19.4,19.4,0,0,0,.16,4.17v0l.87,3.63v0a13,13,0,0,0,6.88,7.43,13.46,13.46,0,0,0,5.09,1.12,21.09,21.09,0,0,0,5.25-.42V192a20.75,20.75,0,0,1-5.27.6,14.86,14.86,0,0,1-2.66-.23A13.18,13.18,0,0,1,10.69,184h0v0l-.94-3.61h0v0A19.44,19.44,0,0,1,9.49,176a14.73,14.73,0,0,1,.25-2.17,17.87,17.87,0,0,1,.63-2.08,18.42,18.42,0,0,1,2-3.83,17.68,17.68,0,0,1,2.79-3.31l0,0a21.49,21.49,0,0,1,11.66-6.58,23.93,23.93,0,0,1,3.37-.45,14,14,0,0,1,3.41.14,12.88,12.88,0,0,1,6.13,2.85,14.58,14.58,0,0,1,4,5.4,11.71,11.71,0,0,1,.68,6.67,13,13,0,0,1-3,6,29.48,29.48,0,0,1-5,4.51,26.59,26.59,0,0,1-5.86,3.3,19,19,0,0,1-6.6,1.35,13.16,13.16,0,0,1-6.57-1.61,9.59,9.59,0,0,1-4.17-5.34,12.93,12.93,0,0,1-.51-6.75,20.27,20.27,0,0,1,.9-3.27,13.93,13.93,0,0,1,1.58-3A18.45,18.45,0,0,1,20,163.07a14,14,0,0,1,3-1.62,7.49,7.49,0,0,1,3.3-.59h0l1.63.38Z"/><path class="cls-19" d="M34.9,161.31a21.2,21.2,0,0,0-3.71,2.58A41.86,41.86,0,0,0,27.9,167,39.84,39.84,0,0,0,25,170.45a14.27,14.27,0,0,0-2.19,3.9v0h0a9.88,9.88,0,0,0-.93,3.5h0l0,1.46a7.63,7.63,0,0,0,.1,1.44,5.22,5.22,0,0,0,1.19,2.52h0l0,0a6,6,0,0,0,2.54,2.46h0l2.24.89-.08,0a15.43,15.43,0,0,0,4.7,0h0a28.52,28.52,0,0,0,6.78-1.18c1.11-.33,2.23-.66,3.33-1s2.19-.77,3.28-1.2l0,.07c-1,.53-2.1,1-3.18,1.49s-2.17.88-3.28,1.24a30.62,30.62,0,0,1-3.4,1,26,26,0,0,1-3.52.43h0a14,14,0,0,1-5-.1h-.07l-2.21-.94h0a6.33,6.33,0,0,1-2.67-2.82l0,.05a5.89,5.89,0,0,1-1.13-2.78,12.5,12.5,0,0,1-.05-1.49v-1.46h0a11.46,11.46,0,0,1,.89-3.6h0a15,15,0,0,1,2-4.15,25.42,25.42,0,0,1,2.9-3.57,31.05,31.05,0,0,1,3.46-3,16.18,16.18,0,0,1,4-2.28Z"/><path class="cls-20" d="M52.62,175.64a11.46,11.46,0,0,1-3.94,1.52c-1.38.29-2.77.42-4.17.58a52.47,52.47,0,0,1-8.41,0c-2.8-.19-5.6-.33-8.38-.8a22,22,0,0,1-4.09-1.1,19.67,19.67,0,0,1-3.91-1.65h0l-2.09-1.42h0a15.9,15.9,0,0,1-3.15-3.5h0A13.52,13.52,0,0,1,13,165l.07,0a16.6,16.6,0,0,0,1.81,3.94h0a17.07,17.07,0,0,0,3.21,3.2h0l2.12,1.37h0a22.76,22.76,0,0,0,3.78,1.65,26.17,26.17,0,0,0,3.95,1.23,42,42,0,0,0,8.28,1.1c2.79.09,5.57-.19,8.34-.36s5.58-.35,8.14-1.51Z"/><path class="cls-21" d="M14.6,160.17a11.67,11.67,0,0,0-.67,1.43c-.2.5-.43,1-.62,1.47a21.45,21.45,0,0,0-1,3,18.94,18.94,0,0,0-.4,6.23v0l.47,2.49,0-.06.95,2.49,0-.06c.49.74,1,1.5,1.43,2.25l0,0,1.77,1.84,0,0a27.73,27.73,0,0,0,3.44,2.19,23.41,23.41,0,0,0,3.8,1.49,27,27,0,0,0,4,.95l1,.16c.34.07.67.12,1,.16a11.25,11.25,0,0,0,2,0h0a11.63,11.63,0,0,0,3.43-.28h0a15,15,0,0,0,3.58-.76h0A13.09,13.09,0,0,0,42.07,184h0A11.54,11.54,0,0,0,45,182.48l0,0h0a12.38,12.38,0,0,0,2.54-1.76l0,0h0a10.13,10.13,0,0,0,2-1.83l0,0,0,0A5,5,0,0,0,51,177.12l0,0,0,0a4.25,4.25,0,0,0,.83-1.69v-.07a3.6,3.6,0,0,0,.4-1.8v-.07a2.8,2.8,0,0,0-.14-1.87l0,0v0a3.92,3.92,0,0,0-.82-2h0a14,14,0,0,0-2.23-3.09l.05,0a14.09,14.09,0,0,1,2.47,3v0a4.39,4.39,0,0,1,1,2.15l0-.06a3.32,3.32,0,0,1,.27,2.17v-.07a4.29,4.29,0,0,1-.39,2.09l0-.06a4.84,4.84,0,0,1-.9,2l0-.06a5.76,5.76,0,0,1-1.49,1.94l.05,0a10.75,10.75,0,0,1-2.18,2l0,0a12.8,12.8,0,0,1-2.68,1.88l0,0a11.31,11.31,0,0,1-3,1.54l0,0a14,14,0,0,1-3.47,1.15l0,0a13.88,13.88,0,0,1-3.77.71h0a12.5,12.5,0,0,1-3.61.17h0a12.15,12.15,0,0,1-2.09-.11c-.34-.05-.69-.11-1-.19l-1-.2a35.86,35.86,0,0,1-4-1.06,32.14,32.14,0,0,1-3.85-1.48,38.27,38.27,0,0,1-3.55-2.08h0l0,0-1.85-1.76h0l0,0c-.51-.73-1-1.46-1.51-2.2l0,0v0l-1-2.47v-.06l-.44-2.5v0h0a17.81,17.81,0,0,1,.58-6.42,18.25,18.25,0,0,1,1.14-3c.22-.48.49-.95.72-1.42a8.71,8.71,0,0,1,.79-1.39Z"/><path class="cls-22" d="M12.67,166.82a4.51,4.51,0,0,0-.54,3.22,16,16,0,0,0,.83,3.25,12.36,12.36,0,0,0,3.73,5.45,19.6,19.6,0,0,0,5.9,3.1,21.13,21.13,0,0,0,3.22.92,17.66,17.66,0,0,0,3.34.31,32.77,32.77,0,0,0,6.69-.65,28.55,28.55,0,0,0,6.39-2.06,24.63,24.63,0,0,0,5.59-3.69,13.52,13.52,0,0,0,2.24-2.48,7.07,7.07,0,0,0,1.28-3v0l.06-1.79v.06l-.5-1.71,0,0A7,7,0,0,0,49,165.41h0a6.15,6.15,0,0,0-1.76-1.4h0a14.4,14.4,0,0,0-3.86-1.78,16.56,16.56,0,0,0-4.21-.64,19,19,0,0,0-4.25.38,12.38,12.38,0,0,0-4,1.51h0l-1.68,1.27h0a7.76,7.76,0,0,0-1.92,3.12h0a7.63,7.63,0,0,1,1.85-3.21h0l1.66-1.3h0a12.53,12.53,0,0,1,4-1.59,19.64,19.64,0,0,1,4.32-.46,15.63,15.63,0,0,1,4.3.62,14.85,14.85,0,0,1,4,1.83h0a6.68,6.68,0,0,1,1.86,1.48l0,0a7.27,7.27,0,0,1,2,2.5v0h0l.49,1.71v.05l-.07,1.79h0a7.06,7.06,0,0,1-1.35,3.15A14.43,14.43,0,0,1,48,176.87a25.64,25.64,0,0,1-5.69,3.65,29.79,29.79,0,0,1-6.45,2,32.33,32.33,0,0,1-6.72.75,17.52,17.52,0,0,1-3.38-.27,22,22,0,0,1-3.27-.89,28.38,28.38,0,0,1-3.14-1.29A15.32,15.32,0,0,1,16.51,179a12.67,12.67,0,0,1-3.74-5.6,14.41,14.41,0,0,1-.78-3.3,4.64,4.64,0,0,1,.65-3.26Z"/><path class="cls-23" d="M23.73,170.75a5.9,5.9,0,0,0,1,1.72,5.43,5.43,0,0,0,1.64,1.12,13.77,13.77,0,0,0,3.87,1.08,21.59,21.59,0,0,0,8-.46,18.12,18.12,0,0,0,3.78-1.42,12.85,12.85,0,0,0,3.29-2.33,8,8,0,0,0,2.08-3.4,6.91,6.91,0,0,0-.19-3.93h0l-.86-1.5,0,0-1.26-1.38h0A11.51,11.51,0,0,0,41,157.93a12.89,12.89,0,0,0-4.78-.6,12,12,0,0,0-2.4.35,8.79,8.79,0,0,0-2.22.93A10.18,10.18,0,0,0,28,161.88h0a5.62,5.62,0,0,0-.89,1.65h0a8.14,8.14,0,0,0-.81,2.59h0a8.22,8.22,0,0,1,.72-2.65h0a5.66,5.66,0,0,1,.88-1.73h0a10.59,10.59,0,0,1,3.55-3.43,9.42,9.42,0,0,1,2.29-1,13.64,13.64,0,0,1,7.39.25,11.81,11.81,0,0,1,4.3,2.48h0l1.22,1.41h0v0l.83,1.52h0a7.14,7.14,0,0,1,.13,4.07,8.11,8.11,0,0,1-2.17,3.43,16.19,16.19,0,0,1-7.07,3.94,18.52,18.52,0,0,1-4,.66,22.24,22.24,0,0,1-4.08-.21,13.73,13.73,0,0,1-3.92-1.16,5.22,5.22,0,0,1-1.66-1.21,6,6,0,0,1-1-1.79Z"/><path class="cls-24" d="M10.43,180.12c.11.53.19,1.06.31,1.59a7.26,7.26,0,0,0,.54,1.5,9,9,0,0,0,1.83,2.59,10.66,10.66,0,0,0,2.59,1.83,18.65,18.65,0,0,0,2.95,1.25A25.31,25.31,0,0,0,24.93,190a32.57,32.57,0,0,0,6.39-.33,25.94,25.94,0,0,0,11.9-4.36,13.36,13.36,0,0,0,4.34-4.6,10.52,10.52,0,0,0,1.24-6.17,13.26,13.26,0,0,0-2.29-5.93A20.64,20.64,0,0,0,42.16,164a18.32,18.32,0,0,0-5.68-2.91,28.64,28.64,0,0,0-6.27-1.29,16.87,16.87,0,0,0-6.29.59,16,16,0,0,0-5.54,3,14.71,14.71,0,0,0-2.13,2.32,16.23,16.23,0,0,0-1.69,2.67,20.19,20.19,0,0,0-1.76,6.07v0h0a7.38,7.38,0,0,0-.14,2.2v.06a5.47,5.47,0,0,0,.26,2.16h0v0a15.72,15.72,0,0,0,2,4.85v0h0a7.15,7.15,0,0,0,1.52,2.06l0,0v0a7.09,7.09,0,0,0,1.85,1.73h0l0,0A6.61,6.61,0,0,0,20.55,189h0v0a5.68,5.68,0,0,0,2.38.88H23a6,6,0,0,0,2.79.3h0a11.39,11.39,0,0,0,3.39-.28h0a32.14,32.14,0,0,0,6.41-1.59l0,.07a32.09,32.09,0,0,1-6.38,1.83h0a11.13,11.13,0,0,1-3.5.37h0a6.47,6.47,0,0,1-3-.26h.05a6,6,0,0,1-2.6-.91l.05,0A7.32,7.32,0,0,1,18,188l0,0a7.71,7.71,0,0,1-2-1.83l0,0a7.74,7.74,0,0,1-1.69-2.21v0a15.67,15.67,0,0,1-2.16-5v0a6,6,0,0,1-.31-2.45v.06a8.55,8.55,0,0,1,.14-2.42v0A20.62,20.62,0,0,1,13.86,168a16.51,16.51,0,0,1,1.78-2.79,14.78,14.78,0,0,1,2.27-2.41,16.65,16.65,0,0,1,5.82-3.08,17.15,17.15,0,0,1,6.53-.51,29.43,29.43,0,0,1,6.37,1.45,19.51,19.51,0,0,1,5.75,3.05,21.06,21.06,0,0,1,4.35,4.83,14.63,14.63,0,0,1,2.32,6,11.13,11.13,0,0,1-1.18,6.36A11.71,11.71,0,0,1,46,183.6a19.31,19.31,0,0,1-2.46,2.16,25,25,0,0,1-12.12,4.59,27.23,27.23,0,0,1-12.92-1,19,19,0,0,1-3-1.34,10.78,10.78,0,0,1-2.63-2,9.4,9.4,0,0,1-1.79-2.74,7.72,7.72,0,0,1-.48-1.55c-.11-.54-.16-1.08-.25-1.61Z"/><path class="cls-25" d="M19.91,170.2c0,.54-.13,1.1-.17,1.63s0,1.07,0,1.61a22.8,22.8,0,0,0,.27,3.22A26,26,0,0,0,22,182.81a15.42,15.42,0,0,0,3.9,5.15,14.82,14.82,0,0,0,5.58,3h0a6.15,6.15,0,0,0,2.72.33c.44,0,1-.15,1.43-.22l1.44-.23,0,0c.83-.27,1.65-.56,2.49-.82h0A11.06,11.06,0,0,0,42.76,188l.06.05a9.56,9.56,0,0,1-3.14,2.53h0c-.8.33-1.62.64-2.43,1h-.06l-1.44.3c-.49.08-.94.2-1.47.26a6.38,6.38,0,0,1-3.06-.4h0a13.44,13.44,0,0,1-5.66-3.46,25,25,0,0,1-3.9-5.32,22.18,22.18,0,0,1-1.45-3,14.78,14.78,0,0,1-.82-3.22,15.41,15.41,0,0,1-.12-3.32,11.52,11.52,0,0,1,.16-1.65c.12-.56.25-1.07.4-1.6Z"/><path class="cls-26" d="M23.74,166.27a4.85,4.85,0,0,0-.84,1.19,5.83,5.83,0,0,0-.43,1.38,10.76,10.76,0,0,0-.11,2.89,15.62,15.62,0,0,0,.49,2.88,22.7,22.7,0,0,0,.84,2.81,19,19,0,0,0,2.67,5.23,15.91,15.91,0,0,0,4.27,4,10.89,10.89,0,0,0,5.4,1.9,12,12,0,0,0,5.59-1.11A11,11,0,0,0,46,183.86a10.85,10.85,0,0,0,1.36-2.56,5.53,5.53,0,0,0,.44-2.86l.07,0a5.44,5.44,0,0,1-.15,3,10.62,10.62,0,0,1-5.8,6.75,11.6,11.6,0,0,1-6,1.11A10.59,10.59,0,0,1,30.39,187a23.38,23.38,0,0,1-7.28-9.37,18.76,18.76,0,0,1-1.32-5.87,10.25,10.25,0,0,1,.31-3,4.44,4.44,0,0,1,1.59-2.53Z"/><path class="cls-27" d="M17.2,165.24a16.58,16.58,0,0,0,.41,6.9c.54,2.26,1.29,4.49,2.05,6.69a19.09,19.09,0,0,0,3.44,6c.81.83,1.67,1.66,2.54,2.41a8.13,8.13,0,0,0,3.07,1.46h0a8.12,8.12,0,0,0,2.7.59,19.55,19.55,0,0,0,2.82-.19l1.42-.15c.46-.07.93-.14,1.39-.25a17.14,17.14,0,0,0,2.7-.82h0a13.53,13.53,0,0,0,1.95-.75c.31-.15.62-.32.92-.5l.87-.6.88-.61.45-.3a3,3,0,0,1,.51-.3,5.07,5.07,0,0,0,1.74-1.13h0a4.09,4.09,0,0,0,1-1.07h0a1.46,1.46,0,0,0,0-1l.07,0a1.55,1.55,0,0,1,.06,1.14h0a4.07,4.07,0,0,1-.95,1.24h0a5.39,5.39,0,0,1-1.76,1.33,2.33,2.33,0,0,0-.4.27l-.43.33-.87.66-.88.66a9.88,9.88,0,0,1-1,.56,10.84,10.84,0,0,1-2,.86h0a19.76,19.76,0,0,1-2.8.88,14.39,14.39,0,0,1-1.46.26l-1.45.12a20.2,20.2,0,0,1-2.93.13,8.75,8.75,0,0,1-2.89-.75h0a8.58,8.58,0,0,1-3.15-1.72c-.46-.4-.83-.85-1.25-1.26s-.85-.82-1.23-1.27a21,21,0,0,1-2.09-2.87A24.71,24.71,0,0,1,19.17,179,34.92,34.92,0,0,1,17,172.27a13.81,13.81,0,0,1,.09-7.05Z"/><path class="cls-28" d="M21.47,164.13a3.21,3.21,0,0,0-.6.37,1.12,1.12,0,0,0-.19.63l-.18,1.44a21.43,21.43,0,0,0-.13,2.89,32.33,32.33,0,0,0,.55,5.73,22.85,22.85,0,0,0,1.6,5.56,13.61,13.61,0,0,0,1.46,2.5,18.71,18.71,0,0,0,1.85,2.23,15.7,15.7,0,0,0,4.63,3.33,10.84,10.84,0,0,0,5.43,1.28,21.55,21.55,0,0,0,5.63-1,14.1,14.1,0,0,0,5.08-2.67l0,.05a12.48,12.48,0,0,1-4.93,3.16,18.54,18.54,0,0,1-5.79,1.22,9,9,0,0,1-3-.3,13.73,13.73,0,0,1-2.77-1.12,14.15,14.15,0,0,1-4.62-3.68,24.85,24.85,0,0,1-3.24-4.89,27.67,27.67,0,0,1-2-5.54,23.68,23.68,0,0,1-.52-5.87,19.16,19.16,0,0,1,.31-2.93c.09-.49.2-1,.32-1.44a1.23,1.23,0,0,1,.33-.7,2.29,2.29,0,0,1,.68-.31Z"/><path class="cls-29" d="M19.35,162.86c.13,2.17.09,4.35.2,6.51a31.56,31.56,0,0,0,.29,3.22c.14,1.07.27,2.14.5,3.19a19.43,19.43,0,0,0,2.15,6.06,16.08,16.08,0,0,0,4.21,4.86,10.78,10.78,0,0,0,8.86,2.57,22.27,22.27,0,0,0,3.14-.59,23.55,23.55,0,0,0,5.92-2.44,26.67,26.67,0,0,0,2.7-1.77c.43-.33.87-.65,1.27-1a3,3,0,0,0,.54-.58.83.83,0,0,0,.17-.72l.07,0a.94.94,0,0,1-.11.83,3.34,3.34,0,0,1-.5.67c-.39.4-.79.76-1.21,1.12a24.43,24.43,0,0,1-2.63,2,21.52,21.52,0,0,1-9.28,3.3,12.06,12.06,0,0,1-3.34,0,10.81,10.81,0,0,1-5.86-3,21,21,0,0,1-4.17-5A24.43,24.43,0,0,1,20.78,179a20.11,20.11,0,0,1-1-3.13,31.14,31.14,0,0,1-.77-6.52c0-2.19.16-4.36.3-6.53Z"/><path class="cls-30" d="M14.38,166.93a16.88,16.88,0,0,0,.29,3.88c.2,1.29.48,2.56.79,3.83A41.25,41.25,0,0,0,17.89,182c.26.59.55,1.18.86,1.75a9.86,9.86,0,0,0,1.05,1.63,13.78,13.78,0,0,0,2.77,2.73,10.17,10.17,0,0,0,7.3,1.85h0a17.49,17.49,0,0,0,5.8-1,32,32,0,0,0,5.45-2.36,32.38,32.38,0,0,0,5-3.22,28,28,0,0,0,2.24-2,11.65,11.65,0,0,0,1-1.09A2.07,2.07,0,0,0,50,179h.08a2.26,2.26,0,0,1-.45,1.46,11,11,0,0,1-.94,1.2,27.26,27.26,0,0,1-2.15,2.15,28.49,28.49,0,0,1-5,3.46,27.74,27.74,0,0,1-5.59,2.43,16.88,16.88,0,0,1-6,.89h0a11,11,0,0,1-7.51-2.24,17.53,17.53,0,0,1-5-6.08,27.75,27.75,0,0,1-2.55-7.49,30,30,0,0,1-.62-3.91c-.07-.65-.11-1.31-.12-2a7.77,7.77,0,0,1,.17-2Z"/><path class="cls-31" d="M17.42,167.63a5,5,0,0,0-.77.66,1,1,0,0,0-.2.89,8.11,8.11,0,0,0,.73,1.89,28.34,28.34,0,0,0,2,3.57,30.3,30.3,0,0,0,5.38,6.14,24.12,24.12,0,0,0,6.85,4.45,13.75,13.75,0,0,0,8,.83,13.31,13.31,0,0,0,2-.53,10.21,10.21,0,0,0,1.87-.77,7.93,7.93,0,0,0,2.94-2.59,5.7,5.7,0,0,0,.74-1.8,9.63,9.63,0,0,0,.32-2,12.42,12.42,0,0,0-.43-4,22.82,22.82,0,0,0-3.43-7.34,15.88,15.88,0,0,0-2.76-3A8.54,8.54,0,0,0,37,162.33v-.07a8.35,8.35,0,0,1,3.84,1.56,15.71,15.71,0,0,1,3,2.92,21.7,21.7,0,0,1,3.7,7.49,10.72,10.72,0,0,1-.78,8.31,8.24,8.24,0,0,1-3.27,2.74,10.29,10.29,0,0,1-2,.74,15.69,15.69,0,0,1-10.24-.56,26.54,26.54,0,0,1-7.16-4.22A26,26,0,0,1,18.7,175a23.64,23.64,0,0,1-1.87-3.73,7,7,0,0,1-.63-2,1.22,1.22,0,0,1,.32-1,4.44,4.44,0,0,1,.85-.61Z"/><path class="cls-32" d="M21.6,161.42a2.75,2.75,0,0,0-.47,2.05,16.07,16.07,0,0,0,.21,2.19,25.26,25.26,0,0,0,1.16,4.23,24.46,24.46,0,0,0,4.28,7.59,18.81,18.81,0,0,0,6.88,5.37,11.23,11.23,0,0,0,4.26.91,9.05,9.05,0,0,0,4.2-.89l0,0a8.31,8.31,0,0,0,3.77-5.28,15.82,15.82,0,0,0-.23-6.7,19.87,19.87,0,0,0-2.5-6.3,11.58,11.58,0,0,0-5-4.54l0-.07a10.29,10.29,0,0,1,3,1.72,13.25,13.25,0,0,1,2.37,2.59,19.14,19.14,0,0,1,2.78,6.44,15.49,15.49,0,0,1,.23,7,8.78,8.78,0,0,1-4.2,5.6h0a9.13,9.13,0,0,1-4.45.74,12.7,12.7,0,0,1-4.34-1.07,19.79,19.79,0,0,1-3.84-2.27,23.64,23.64,0,0,1-3.34-3,20.23,20.23,0,0,1-4.45-7.74,21,21,0,0,1-1-4.37,12,12,0,0,1-.07-2.24,10.64,10.64,0,0,1,.12-1.12,1.85,1.85,0,0,1,.56-1Z"/><path class="cls-33" d="M23.4,160.74a2.09,2.09,0,0,0-.72.62v0a26.86,26.86,0,0,0-.57,4.89,42.32,42.32,0,0,0,.13,4.91c.07.82.18,1.63.27,2.45a19.4,19.4,0,0,0,.41,2.4,39,39,0,0,0,1.53,4.66l0,0,1.31,2.46,0,0,1.66,2.23v0L29.25,187l0,0,1.93,1.2h0l2,.67h0a7.11,7.11,0,0,0,3.46-.1h0a6.3,6.3,0,0,0,2.57-.78h0a6.81,6.81,0,0,0,2.39-1.31h0a6.36,6.36,0,0,0,2-1.66v0l0,0a7.42,7.42,0,0,0,1.58-2h0v0a14.1,14.1,0,0,0,2.19-4.8,17,17,0,0,0,.29-5.28v0l-.57-2.71,0,.06-1-2.55,0,0a15.32,15.32,0,0,0-1.68-2.69,12.25,12.25,0,0,0-2.21-2.28,12.08,12.08,0,0,0-2.77-1.59,11,11,0,0,0-3.11-.77v-.08a11.79,11.79,0,0,1,3.21.58,12.14,12.14,0,0,1,2.94,1.49A12.61,12.61,0,0,1,45,164.57a15.55,15.55,0,0,1,1.83,2.76h0v0l1,2.52v.06l.58,2.7v0h0a15.35,15.35,0,0,1,.09,2.79,17.26,17.26,0,0,1-.37,2.76,15,15,0,0,1-2.38,5l0,0A7.64,7.64,0,0,1,44,185.34l.05,0A6.86,6.86,0,0,1,41.9,187l0,0a7.1,7.1,0,0,1-2.6,1.31l0,0a6.57,6.57,0,0,1-2.76.74h0a8.15,8.15,0,0,1-3.61,0h0l-2-.7h0l-1.95-1.17h0l-1.91-1.67h0l-1.76-2.15h0v0L24,180.89v0a31.24,31.24,0,0,1-1.65-4.71,17.54,17.54,0,0,1-.4-2.48c-.07-.82-.17-1.65-.22-2.48a33.12,33.12,0,0,1,0-5,22.78,22.78,0,0,1,.86-4.9h0a2.14,2.14,0,0,1,.81-.6Z"/><path class="cls-34" d="M17,164a4.74,4.74,0,0,0-1.29,1.1,6.74,6.74,0,0,0-.81,1.49,15.65,15.65,0,0,0-.82,3.32,23.09,23.09,0,0,0,2.22,13.3,16.81,16.81,0,0,0,4.31,5.25h0l1.49.92a10,10,0,0,0,1.51.82,10.46,10.46,0,0,0,1.63.56c.55.15,1.14.21,1.71.32a16.71,16.71,0,0,0,6.86-.33,19.47,19.47,0,0,0,6.32-2.63,12.3,12.3,0,0,0,4.4-5.06,15.92,15.92,0,0,0,1.43-6.59,21.61,21.61,0,0,0-1.36-6.69,17.66,17.66,0,0,0-3.39-5.92,12,12,0,0,0-2.6-2.22,13.19,13.19,0,0,0-3.22-1.24l0-.07a13.38,13.38,0,0,1,3.34,1.06,11.32,11.32,0,0,1,2.79,2.17,17.27,17.27,0,0,1,3.69,6,20.86,20.86,0,0,1,1.5,6.91,16,16,0,0,1-1.53,6.93,12.63,12.63,0,0,1-4.73,5.25,19.9,19.9,0,0,1-6.57,2.5,18.28,18.28,0,0,1-7,.17,14.9,14.9,0,0,1-3.4-.87,11,11,0,0,1-1.56-.82l-1.51-.87h0a14.34,14.34,0,0,1-2.6-2.38,16.71,16.71,0,0,1-2-2.86,20.2,20.2,0,0,1-2.17-6.66,20.56,20.56,0,0,1,0-7,14.66,14.66,0,0,1,1-3.37,7.16,7.16,0,0,1,.93-1.49A4.76,4.76,0,0,1,16.92,164Z"/><path class="cls-35" d="M12,168.51a6.94,6.94,0,0,0-.9,2.18h0a5.81,5.81,0,0,0-.36,1.75h0a15.89,15.89,0,0,0,0,4.19,16.47,16.47,0,0,0,1.13,4,18.14,18.14,0,0,0,2.06,3.64,20.79,20.79,0,0,0,2.83,3.1,25.8,25.8,0,0,0,15.13,6.72,18.7,18.7,0,0,0,8.23-1.21,15.15,15.15,0,0,0,6.49-5.12,18.56,18.56,0,0,0,2.06-3.63,20.27,20.27,0,0,0,1.42-3.95,7.62,7.62,0,0,0,.27-2.06c0-.69-.38-1.32-.43-2-.14-1.43.26-2.84-.13-4.22h0c.44,1.37.11,2.83.27,4.21,0,.68.45,1.32.47,2.06a7.26,7.26,0,0,1-.23,2.13,20.25,20.25,0,0,1-1.36,4A16.78,16.78,0,0,1,46.87,188a15.56,15.56,0,0,1-6.65,5.22,18.12,18.12,0,0,1-8.37,1.13,23.4,23.4,0,0,1-8.15-2.24,29.45,29.45,0,0,1-7.13-4.54,18.13,18.13,0,0,1-5-6.8,16.74,16.74,0,0,1-1.09-4.11,16.33,16.33,0,0,1,.07-4.25h0a5.27,5.27,0,0,1,.43-1.79h0a7.26,7.26,0,0,1,1-2.17Z"/><path class="cls-36" d="M16.28,166.26c-.42.4-.89.75-1.26,1.18a6.24,6.24,0,0,0-.9,1.46A15.4,15.4,0,0,0,13,172.16a23.57,23.57,0,0,0-.38,6.86,20.75,20.75,0,0,0,5.25,12.45,13.26,13.26,0,0,0,5.72,3.72,11.77,11.77,0,0,0,6.78-.15,17.51,17.51,0,0,0,6-3.25,19.85,19.85,0,0,0,2.47-2.38,15,15,0,0,0,1.87-2.86h0a16.72,16.72,0,0,0,2.13-6.23,21,21,0,0,0-.13-6.61A24.78,24.78,0,0,0,41,167.32a10.17,10.17,0,0,0-1.82-2.76,4.45,4.45,0,0,0-2.89-1.46v0a4.53,4.53,0,0,1,3,1.41,9.74,9.74,0,0,1,1.91,2.76,24.94,24.94,0,0,1,2,6.42,28.93,28.93,0,0,1,.38,3.34,18.07,18.07,0,0,1-.22,3.37,17,17,0,0,1-2.18,6.36v0a15.41,15.41,0,0,1-1.92,2.93A18.57,18.57,0,0,1,36.63,192a17.77,17.77,0,0,1-6.16,3.2,11.94,11.94,0,0,1-6.88.07,12.67,12.67,0,0,1-3.13-1.49,16.3,16.3,0,0,1-2.68-2.22A20.35,20.35,0,0,1,12.36,179a24.06,24.06,0,0,1,.47-6.93A14.07,14.07,0,0,1,14,168.83a6.35,6.35,0,0,1,1-1.46c.4-.42.87-.75,1.3-1.14Z"/><path class="cls-37" d="M23.17,161.87a7.29,7.29,0,0,0-1.39,1.06,5.39,5.39,0,0,0-1,1.43,12.24,12.24,0,0,0-1.06,3.3,15.84,15.84,0,0,0,.18,6.89,12.13,12.13,0,0,0,3.56,5.79,9.81,9.81,0,0,0,2.89,1.78,9.28,9.28,0,0,0,3.34.61,12.73,12.73,0,0,0,6.57-1.86,13.62,13.62,0,0,0,4.87-4.9,13,13,0,0,0,1.91-6.64A12,12,0,0,0,41,162.79a10.77,10.77,0,0,0-5.2-4.37,8.59,8.59,0,0,0-6.62,0,8.45,8.45,0,0,0-4.41,4.9,13.14,13.14,0,0,0-.15,6.77,19.11,19.11,0,0,0,1,3.32,25,25,0,0,0,1.54,3.11,16,16,0,0,0,2,2.81,14,14,0,0,0,2.63,2.22,9.82,9.82,0,0,0,6.53,1.73,15.67,15.67,0,0,0,6.45-2.57l0,.06a15.4,15.4,0,0,1-6.44,2.88A10.07,10.07,0,0,1,31.4,182a14.1,14.1,0,0,1-2.79-2.26,16.87,16.87,0,0,1-2.16-2.89,20,20,0,0,1-2.63-6.64,20.43,20.43,0,0,1-.39-3.58A9.84,9.84,0,0,1,24,163a9.15,9.15,0,0,1,4.85-5.27,9,9,0,0,1,7.11.15,11.26,11.26,0,0,1,5.33,4.68,12.79,12.79,0,0,1,2,6.76,13.94,13.94,0,0,1-1.95,6.77,14.2,14.2,0,0,1-11.66,7.25,10.36,10.36,0,0,1-3.57-.62,9.69,9.69,0,0,1-3.09-1.91,12.77,12.77,0,0,1-3.68-6.12,15.81,15.81,0,0,1,0-7.11,12,12,0,0,1,1.21-3.35,5.84,5.84,0,0,1,1.08-1.44,7.58,7.58,0,0,1,1.47-1Z"/><path class="cls-38" d="M30.27,159.06a5.5,5.5,0,0,0-1.34.49,6.87,6.87,0,0,0-1.05,1,19.55,19.55,0,0,0-1.74,2.3,32.6,32.6,0,0,0-2.79,5,30.29,30.29,0,0,0-1.81,5.45,15.65,15.65,0,0,0-.27,5.66v0a8.81,8.81,0,0,0,2.46,4.72,10.85,10.85,0,0,0,4.79,2.42,12.56,12.56,0,0,0,5.39,0,17.46,17.46,0,0,0,5-2.18,15.4,15.4,0,0,0,6.65-8.4,13.55,13.55,0,0,0,.66-5.4,10,10,0,0,0-6.11-8.43,13.13,13.13,0,0,0-5.44-.64,18.38,18.38,0,0,0-5.41,1.12,23.33,23.33,0,0,0-5,2.42,20.89,20.89,0,0,0-4.19,3.6,15,15,0,0,0-2.93,4.64,11.71,11.71,0,0,0,1,10.51,11.92,11.92,0,0,0,3.79,3.85,12.71,12.71,0,0,0,5.14,1.7,12.61,12.61,0,0,0,5.39-.41,19.24,19.24,0,0,0,5-2.14,21.92,21.92,0,0,0,4.17-3.53,18,18,0,0,0,3.12-4.46,14.6,14.6,0,0,0,.93-2.54,12.68,12.68,0,0,0,.34-2.67,9.42,9.42,0,0,0-1.39-5.1,10.11,10.11,0,0,0-3.94-3.57,13,13,0,0,0-5.22-1.3,19.14,19.14,0,0,0-5.42.58,22.71,22.71,0,0,0-5.14,1.92,20.06,20.06,0,0,0-4.41,3.26,11,11,0,0,0-2.75,4.66A15.27,15.27,0,0,0,17,179a15.82,15.82,0,0,0,1,5.41h0a10.77,10.77,0,0,0,1.66,3.82,20.11,20.11,0,0,0,2.8,3.17l-.05.06a20.33,20.33,0,0,1-2.89-3.12,11.32,11.32,0,0,1-1.8-3.87v0a15.48,15.48,0,0,1-1.09-5.5,15.87,15.87,0,0,1,.78-5.56,11.47,11.47,0,0,1,2.82-4.89,20.41,20.41,0,0,1,4.48-3.41,23.91,23.91,0,0,1,5.26-2.05,19.73,19.73,0,0,1,5.63-.66,13.81,13.81,0,0,1,5.52,1.36,10.79,10.79,0,0,1,4.24,3.83,10.09,10.09,0,0,1,1.52,5.52,13,13,0,0,1-1.34,5.54,18.43,18.43,0,0,1-3.28,4.63,22.55,22.55,0,0,1-4.33,3.63,19.88,19.88,0,0,1-5.22,2.19,13,13,0,0,1-5.66.38,13.4,13.4,0,0,1-5.35-1.85,12.5,12.5,0,0,1-3.92-4.07A13.61,13.61,0,0,1,16,178.2a11.1,11.1,0,0,1,.83-5.55,15.59,15.59,0,0,1,3-4.72,21.46,21.46,0,0,1,4.28-3.61,23.88,23.88,0,0,1,5.05-2.41,19.36,19.36,0,0,1,5.47-1.16,13.31,13.31,0,0,1,5.56.63A10.36,10.36,0,0,1,46.66,170a14,14,0,0,1-.59,5.61,15.81,15.81,0,0,1-6.83,8.78,17.42,17.42,0,0,1-5.19,2.26,13.27,13.27,0,0,1-5.68,0,11.41,11.41,0,0,1-5-2.59,9.29,9.29,0,0,1-2.59-5h0a16.61,16.61,0,0,1,.36-5.84,31.19,31.19,0,0,1,1.93-5.5,31.85,31.85,0,0,1,2.94-5,19.58,19.58,0,0,1,1.81-2.27,6.7,6.7,0,0,1,1.1-1,5.8,5.8,0,0,1,1.38-.48Z"/><path class="cls-39" d="M45.81,164.57a10.2,10.2,0,0,0-2.55-2.22,14.45,14.45,0,0,0-3-1.45,18.64,18.64,0,0,0-6.6-1.23,19.72,19.72,0,0,0-3.35.35,18.48,18.48,0,0,0-3.26.88,18,18,0,0,0-5.84,3.33,14.06,14.06,0,0,0-3.91,5.48,16.84,16.84,0,0,0-1,6.67A19.13,19.13,0,0,0,17.73,183a17.27,17.27,0,0,0,3.48,5.69l0,0a23,23,0,0,0,3.3,2.6,11.32,11.32,0,0,0,1.87.86c.69.24,1.34.5,2,.69a20.06,20.06,0,0,0,4.12.76l1,0,1.07,0,2.13-.09h0l2.57-.53a14.23,14.23,0,0,0,2.5-.69,18.36,18.36,0,0,0,4.62-2.42l0,.06a17.13,17.13,0,0,1-4.52,2.71,14.26,14.26,0,0,1-2.52.82l-2.57.62h0l-2.14.15-1.08.08c-.37,0-.73,0-1.1,0a18.44,18.44,0,0,1-4.29-.73c-.7-.19-1.38-.46-2.05-.69a11.7,11.7,0,0,1-2-.91,9.54,9.54,0,0,1-1.79-1.28l-1.61-1.43h0a17.2,17.2,0,0,1-3.51-6,19.71,19.71,0,0,1-1.34-6.78A18.85,18.85,0,0,1,17,169.62a15.55,15.55,0,0,1,3.9-5.64,18.68,18.68,0,0,1,12.67-4.93,17.36,17.36,0,0,1,6.76,1.43,13.26,13.26,0,0,1,3.07,1.62,9.55,9.55,0,0,1,2.44,2.43Z"/><path class="cls-40" d="M32.06,161.3a20.7,20.7,0,0,0-4.16-.22,14.33,14.33,0,0,0-4,.89,19.43,19.43,0,0,0-6.76,4.73,16.27,16.27,0,0,0-3.91,7.24,20.35,20.35,0,0,0-.65,4.11,19.34,19.34,0,0,0,.29,4.16h0a8.56,8.56,0,0,0,.65,2.6h0a6.53,6.53,0,0,0,1.06,2.34h0A5.84,5.84,0,0,0,16,189.14h0a5.69,5.69,0,0,0,1.76,1.59h0a19.2,19.2,0,0,0,4.41,2.44h0a6.44,6.44,0,0,0,2.23.65h0a7.62,7.62,0,0,0,2.51.26h0a11.5,11.5,0,0,0,3-.13h0a13.4,13.4,0,0,0,3.26-.55h0a11.12,11.12,0,0,0,3.19-1h0a12.6,12.6,0,0,0,3-1.39h0a12.4,12.4,0,0,0,2.68-1.67h0a18.08,18.08,0,0,0,3.08-2.51l0,0a17.85,17.85,0,0,1-3,2.62h0a12.88,12.88,0,0,1-2.68,1.75h0a13.16,13.16,0,0,1-3,1.48h0a11.75,11.75,0,0,1-3.26,1.06h0a12.25,12.25,0,0,1-3.35.57h0a11.85,11.85,0,0,1-3.09.12h0a8.27,8.27,0,0,1-2.62-.28h0a6.67,6.67,0,0,1-2.34-.7h0a19,19,0,0,1-4.47-2.5h0a6.19,6.19,0,0,1-1.83-1.7l0,0a6.14,6.14,0,0,1-1.44-2.06v0a6.9,6.9,0,0,1-1.06-2.44h0a8.64,8.64,0,0,1-.64-2.65h0a20.93,20.93,0,0,1,.34-8.34,16.38,16.38,0,0,1,3.87-7.39,19.51,19.51,0,0,1,3.18-2.77,15.4,15.4,0,0,1,3.71-2,14.61,14.61,0,0,1,4.12-.85,20.18,20.18,0,0,1,4.18.36Z"/><path class="cls-41" d="M25.3,162.78a7.94,7.94,0,0,0-2,.65,12.12,12.12,0,0,0-1.78,1.12,10.52,10.52,0,0,0-2.69,3.17,20.7,20.7,0,0,0-1.66,3.86c-.44,1.34-.91,2.69-1.28,4a22.64,22.64,0,0,0-.82,4.14,10.73,10.73,0,0,0,.37,4.18,10.93,10.93,0,0,0,5.32,6.28,13.67,13.67,0,0,0,1.9.89,15.88,15.88,0,0,0,2,.55,15.29,15.29,0,0,0,4.16.25,24.92,24.92,0,0,0,8.1-2.14,32.29,32.29,0,0,0,7.19-4.39,25.59,25.59,0,0,0,3-2.93c.47-.53.87-1.11,1.32-1.66a3.85,3.85,0,0,0,1-1.8h.08a3.88,3.88,0,0,1-.91,1.94c-.4.59-.77,1.21-1.22,1.77a23.73,23.73,0,0,1-3,3.13,29.07,29.07,0,0,1-7.25,4.64,23.1,23.1,0,0,1-8.37,2.14,14.69,14.69,0,0,1-4.33-.37,13.79,13.79,0,0,1-2.07-.65,14.72,14.72,0,0,1-1.93-1A12.27,12.27,0,0,1,15.19,184a15.78,15.78,0,0,1,.11-8.54,32.69,32.69,0,0,1,3-8,10.34,10.34,0,0,1,2.95-3.19,10,10,0,0,1,1.9-1,7,7,0,0,1,2.1-.49Z"/><path class="cls-42" d="M21.57,166.17s6.62-4.1,14.16-3.58a11.43,11.43,0,0,1,9.91,6.64,11.79,11.79,0,0,0-10.3-6.15A32.44,32.44,0,0,0,21.57,166.17Z"/><path class="cls-42" d="M23.77,163.77s1.88-6,7.05-6.66,8.89,3.15,8.89,3.15-5.84-4.78-10.73-1.92S23.77,163.77,23.77,163.77Z"/><path class="cls-42" d="M14.83,165s8.35-6.56,13.69-7.18C28.52,157.82,21.57,157.28,14.83,165Z"/><path class="cls-42" d="M26,161s8.52-5,16.8.9C42.79,161.86,35.87,157.39,26,161Z"/><path class="cls-42" d="M25.63,186.07a17.79,17.79,0,0,0,19.64-9.76S41.89,189.28,25.63,186.07Z"/><path class="cls-42" d="M41.78,186.8s6.47-3.65,4.85-14.6C46.63,172.2,50.49,180.58,41.78,186.8Z"/><path class="cls-42" d="M18,175.91s1.39,10.29,11,13.51C29,189.42,18.82,188.52,18,175.91Z"/><polygon class="cls-43" points="27.86 177.53 27.41 174.92 28.87 179.4 27.86 177.53"/><polygon class="cls-43" points="26.57 179.8 25.73 179.8 28.21 180.99 26.57 179.8"/><polygon class="cls-43" points="9.81 171.32 10.4 169.24 10.4 171.78 9.81 171.32"/><polygon class="cls-43" points="48.2 185.99 50.44 184.02 47.48 187.64 48.2 185.99"/><polygon class="cls-43" points="39.71 193.9 43.99 192.85 40.59 194.2 39.71 193.9"/><polygon class="cls-43" points="16.58 191.5 19.21 194.35 17.3 193 16.58 191.5"/><polygon class="cls-42" points="21.57 159 28.03 155.45 31.74 156.01 21.57 159"/><g class="cls-44"><path class="cls-45" d="M33.21,167.73h0Z"/><path class="cls-46" d="M52.84,173.49a3.34,3.34,0,0,0-.27-2.09,4.26,4.26,0,0,0-.84-1.92v-.1l-.49-1.71h0v0a7.21,7.21,0,0,0-2-2.49,6.42,6.42,0,0,0-1.58-1.31,4.49,4.49,0,0,0-.21-.8h0l-.83-1.52v0h0l-1.22-1.41h0a11.81,11.81,0,0,0-4.3-2.48,12.88,12.88,0,0,0-4.93-.62,13.36,13.36,0,0,0-2.16.3,9.58,9.58,0,0,0-3.19-.14,7,7,0,0,0-2.21.67l-.25,0c-1.05,0-7.26.14-13.36,7-.51.5-1,1-1.46,1.57-.18-.45-.36-.92-.51-1.39L13,165a15.14,15.14,0,0,0,.4,1.61,15.56,15.56,0,0,0-1,1.33l-.29.45a3.22,3.22,0,0,1,.57-1.58l0,0a3.41,3.41,0,0,0-.65,1.77l-.06.1v-.06l.06-.1,0,0,0,0a21.94,21.94,0,0,1,.39-2.45,21.45,21.45,0,0,1,1-3c.19-.49.42-1,.62-1.47a11.67,11.67,0,0,1,.67-1.43l-.06,0a8.71,8.71,0,0,0-.79,1.39c-.23.47-.5.94-.72,1.42a18.25,18.25,0,0,0-1.14,3,16.46,16.46,0,0,0-.61,3.82,1.47,1.47,0,0,0-.06.14,15.45,15.45,0,0,0-.82,1.81v-2.49l-.59,2.09.57.44v0a17.87,17.87,0,0,0-.63,2.08A14.73,14.73,0,0,0,9.49,176a19.44,19.44,0,0,0,.25,4.31v0h0l.94,3.61v0h0a13.44,13.44,0,0,0,7,7.43l.14.16a16.3,16.3,0,0,0,2.68,2.22,12.67,12.67,0,0,0,3.13,1.49,11.94,11.94,0,0,0,6.88-.07,15.85,15.85,0,0,0,2.21-.82,17.83,17.83,0,0,0,7.54-1.18l.55-.25c.38-.13.76-.27,1.13-.42a17.13,17.13,0,0,0,4.52-2.71l0-.06a16.87,16.87,0,0,1-3.25,1.86A16.16,16.16,0,0,0,46.87,188,16.78,16.78,0,0,0,49,184.3a20.25,20.25,0,0,0,1.36-4,11.55,11.55,0,0,0,.22-1.31,5.9,5.9,0,0,0,1.07-1.54,4.82,4.82,0,0,0,.8-1.66l.22-.13,0-.06-.16.06,0-.12A4.18,4.18,0,0,0,52.84,173.49ZM49,165.39h0a7,7,0,0,1,1.87,2.37l.25.88a12.91,12.91,0,0,0-2-2.33l-.05,0a14,14,0,0,1,2.23,3.09h0a.61.61,0,0,1,.07.1l0,1.61a7,7,0,0,1-1.28,3l0,0a6.92,6.92,0,0,0-.23-2.35h0a7.56,7.56,0,0,1,.13,2.51,12,12,0,0,1-.78,1,7.74,7.74,0,0,0-.07-.83,13.09,13.09,0,0,0-.88-3.3l-.28-1.31v-.06l-.69-1.7a6.64,6.64,0,0,0,.43-1.07,7.65,7.65,0,0,0,.16-2.78A6.62,6.62,0,0,1,49,165.39Zm.89,10.72a1.77,1.77,0,0,0,.05.32l-.86.16c0-.26,0-.52,0-.79a10.24,10.24,0,0,0,.76-.85A7.51,7.51,0,0,0,49.9,176.11Zm-.25,2.68,0,0,0,0a10.2,10.2,0,0,1-1.39,1.32,11.81,11.81,0,0,0,.83-3.08c.33-.08.66-.17,1-.27a5,5,0,0,1,.29,1.34A5.16,5.16,0,0,1,49.65,178.79Zm-1.52,3.86a3.89,3.89,0,0,1-1,1.07h0c-.23.2-.46.4-.7.57l.08-.12c.17-.26.32-.54.47-.82.43-.41.86-.84,1.27-1.28A1.39,1.39,0,0,1,48.13,182.65Zm-6.41,7,.3-.13a13.07,13.07,0,0,1-2.52,1.56h0a12.6,12.6,0,0,1-3,1.39h0c-.33.16-.67.29-1,.42.4-.27.8-.55,1.18-.85.19-.15.36-.31.54-.47h.06c.81-.32,1.63-.63,2.43-1h0a10.47,10.47,0,0,0,1-.6C41,189.87,41.38,189.76,41.72,189.63ZM27,194.12h0a7.62,7.62,0,0,1-2.51-.26h0a6.44,6.44,0,0,1-2.23-.65h0a17.32,17.32,0,0,1-1.91-.88l.25.06a14.86,14.86,0,0,0,2.66.23c.5,0,1,0,1.5,0a23.82,23.82,0,0,0,4.87,1.49,11.71,11.71,0,0,1-2.58.07Zm-9.19-3.36h0a5.68,5.68,0,0,1-1.25-1,19.32,19.32,0,0,1-1.2-1.88l.2.12a19,19,0,0,0,3,1.34l.59.19a15.11,15.11,0,0,0,1.47,1.05,14.72,14.72,0,0,0,1.93,1l.5.18c.24.12.48.25.72.36l.55.25c-.35,0-.7,0-1.05,0a13.87,13.87,0,0,1-4.2-.78C18.58,191.32,18.17,191.05,17.78,190.76Zm-4.68-7.07.24.34a21,21,0,0,0,1.18,2.9l-.22-.15a6.55,6.55,0,0,1-.81-1.95h0A8.68,8.68,0,0,1,13.1,183.69Zm-2.48-10.25c.13-.47.28-.94.45-1.4.06-.16.14-.31.2-.47,0,.26,0,.53,0,.8h0v0l.2,1.11a9.26,9.26,0,0,0-.2,1.05,14,14,0,0,0,.13,3.93,8.63,8.63,0,0,0,.28,1.88,16.58,16.58,0,0,1-1-3.71A15.67,15.67,0,0,1,10.62,173.44Zm32.64-11.09a10.2,10.2,0,0,1,2.55,2.22l.06,0a8.89,8.89,0,0,0-2.16-2.21A14.28,14.28,0,0,1,47.24,164h0c.1,0,.18.13.28.18a7.4,7.4,0,0,1-.09,2.89,6.08,6.08,0,0,1-.34.93l-.25-.63v0h0A15.55,15.55,0,0,0,45,164.57a12.61,12.61,0,0,0-2.39-2.28c-.21-.14-.42-.28-.64-.41l.7.15C42.87,162.14,43.07,162.23,43.26,162.35Zm5.6,13.31-.36.37.06-.57a16.72,16.72,0,0,0-.07-2.55,12,12,0,0,1,.31,1.67A9.77,9.77,0,0,1,48.86,175.66Zm-14.6,16.47c.53-.06,1-.18,1.47-.26l.8-.17-.1.09a20.35,20.35,0,0,1-2,1.42,10.77,10.77,0,0,1-1.13.23h0l-.36.09h-.41a20.06,20.06,0,0,1-4.12-.76l-.4-.13c.3,0,.61,0,.91,0a20.43,20.43,0,0,0,3.66-.52A6.2,6.2,0,0,0,34.26,192.13ZM23.75,192a7.86,7.86,0,0,0,.8.21l.39.08.07,0-.44,0Zm22.48-24.41.15.4-.26-.36a8,8,0,0,0-.29-.77C46,167.14,46.11,167.37,46.23,167.62ZM25.78,191.84a10.19,10.19,0,0,1-1.29-.62,10.07,10.07,0,0,1-1.1-.74h.07l.24,0a15.77,15.77,0,0,0,3.15.78,18.83,18.83,0,0,0,3.83.23l.29.1a18.78,18.78,0,0,1-2.13.27A14.9,14.9,0,0,1,25.78,191.84Zm-12.54-9.75c-.06-.1-.1-.21-.15-.31s0-.11,0-.16c.09.19.19.38.28.58Zm4.39-16.36.16-.11c-.25.23-.5.46-.74.71v0l.12-.13ZM16.5,185.85v0l0,0c-.15-.14-.29-.29-.43-.44l.28.07a7.93,7.93,0,0,0,1.12.77l.33.17h0A14,14,0,0,0,19,187.67c.13.22.27.44.42.65s.12.13.17.2a6.87,6.87,0,0,1-1.23-.91l0,0h0A7.09,7.09,0,0,1,16.5,185.85Zm-2.41-16.2.08-.13v.15l-.13.27h0C14.05,169.84,14.07,169.75,14.09,169.65Zm32.75,7.24h-.08a9.75,9.75,0,0,0,.12-1.2C46.88,176.1,46.86,176.5,46.84,176.89ZM16.7,170a4,4,0,0,1-.25-.83,1.05,1.05,0,0,1,.19-.88A16.29,16.29,0,0,0,16.7,170ZM29,160.29c-.18.2-.36.39-.53.61-.2,0-.4,0-.6,0l-.35,0,.22-.29Zm1.24-.27c.31-.06.63-.1.95-.14a29.34,29.34,0,0,1,4.15.84l-.72,0a17.05,17.05,0,0,0-3,.44,24.64,24.64,0,0,0-2.84-.3,8.84,8.84,0,0,1,.68-.69C29.72,160.14,30,160.07,30.26,160Zm-7.52,29.79-.57-.34c-.32-.28-.64-.56-1-.83a13.15,13.15,0,0,1-1.12-1.35,12.71,12.71,0,0,0,1.48.35c.28.24.57.48.86.7a11.87,11.87,0,0,0,3.29,1.72l-.78,0C24.2,190,23.47,189.91,22.74,189.81Zm-9.42-12.64-.17-.45a13.08,13.08,0,0,1,.13-2.07l.05.09c0,.71.11,1.42.22,2.12,0,.32.12.64.18,1C13.6,177.6,13.46,177.39,13.32,177.17Zm7-11.47c-.06.27-.13.54-.18.82-.08.44-.14.88-.19,1.33l-.08.08c-.06.06-.1.12-.15.18l.06-.45a15.54,15.54,0,0,1,.48-1.9Zm7.15-4.57.46,0,.47,0c-.17.23-.35.46-.5.7a6.58,6.58,0,0,0-.38.63,6.22,6.22,0,0,0-.95-.14q.38-.54.78-1.05l.56.11,0-.07Zm-4.77,27.08a14.64,14.64,0,0,0,4.22,1.25q.38.3.78.57A10,10,0,0,1,22.67,188.21ZM19,169.49c0,.14,0,.28,0,.42A12.68,12.68,0,0,0,17.87,172l-.27-.22A14.78,14.78,0,0,1,19,169.49Zm20.41-7.25A12.34,12.34,0,0,1,41,163.75c-.26-.13-.53-.23-.8-.34a8.22,8.22,0,0,0-3.2-1.15v.07a7.16,7.16,0,0,1,1.58.53,14.61,14.61,0,0,0-3.07-.46,16.9,16.9,0,0,0-2.57.11l0,0a14.38,14.38,0,0,1,1.92-.53,20.29,20.29,0,0,1,3-.37Q38.68,161.88,39.4,162.24ZM25.88,188l0,0-.06-.05h.05c.17.12.33.24.51.35C26.19,188.17,26,188.07,25.88,188Zm15.85-10.1-.49.63A22.93,22.93,0,0,1,37.53,182c-.54.14-1.09.26-1.64.37a11.41,11.41,0,0,0,.88-1.3l0-.09a14.88,14.88,0,0,0,3.36-3.12C40.69,177.9,41.21,177.89,41.73,177.88Zm1.94,6.64-.39.24a10,10,0,0,1-1.5.64l.09-.17,1-.42c.28-.11.54-.24.81-.36A.25.25,0,0,1,43.67,184.52Zm-2.9,2h0l-.22.38c-.63.32-1.27.64-1.93.92a22.14,22.14,0,0,1-2.12.74H36c-.22,0-.44,0-.65-.06l.31-.12,0-.07-.47.16-.45-.08a17.63,17.63,0,0,0,3.13-1.5c.17-.1.32-.22.49-.33.38,0,.77-.06,1.15-.12a14.92,14.92,0,0,0,1.48-.3l-.22.38Zm-2.9-9.87c0,.26,0,.52-.08.78-.56,0-1.12,0-1.68,0s-1.29-.06-1.93-.11c.06-.26.11-.53.16-.8a9.87,9.87,0,0,0,.27-1.42,19.28,19.28,0,0,0,3.12-.48A8.1,8.1,0,0,1,37.87,176.67Zm-2.38,5.81-1.38.23-.35-.14a14,14,0,0,0,2.61-1.27A14.45,14.45,0,0,1,35.49,182.48Zm5.68.78-.48.14q.54-.43,1.05-.9l.28-.14-.36.41Zm-9,5.24-1.06-.35-.86-.54c.31,0,.62,0,.92,0a11.29,11.29,0,0,0,1.45.79l-.19.06ZM17.89,182c-.33-.74-.62-1.49-.9-2.25l0-.48.45.33a9.17,9.17,0,0,0,.83,2.39,5.67,5.67,0,0,0,.42.66c-.23-.15-.45-.29-.67-.45A1.24,1.24,0,0,1,17.89,182Zm0-6.08c0-.06,0-.13,0-.2.35,1.11.76,2.2,1.22,3.28.27.6.57,1.19.88,1.77l-.62-.3A18.33,18.33,0,0,1,18,175.91a19.81,19.81,0,0,0,.72,4.2c-.22-.12-.43-.25-.64-.38A11.43,11.43,0,0,1,17.91,176Zm.61-2.6.66.45.09.39c0,.19,0,.37,0,.56l-.08-.11c-.24-.38-.47-.77-.7-1.15C18.49,173.44,18.51,173.39,18.52,173.35Zm.47-1.26c0,.23,0,.46.05.69l-.26-.17Zm7.34-6a9.43,9.43,0,0,1,.28-1.28c.79-.32,1.6-.61,2.42-.85.21.06.43.13.63.21l-.49.39h0a7.82,7.82,0,0,0-.91,1.17c-.27.26-.55.5-.81.76a24.72,24.72,0,0,0-2.86,3.52v0a18.38,18.38,0,0,1-.35-4v0c.23-.14.47-.29.71-.42.51-.27,1-.51,1.57-.74a8.7,8.7,0,0,0-.22,1.24Zm7.77,10.35h0c0,.28-.1.56-.16.83a42.7,42.7,0,0,1-6.06-1l-.47-1.44.24,1.38c-.27-.06-.53-.14-.8-.21a24.46,24.46,0,0,1-1.32-2.73s0-.05,0-.07a6.07,6.07,0,0,0,.82.48,13.73,13.73,0,0,0,3.92,1.16,22.24,22.24,0,0,0,4.08.21h0A8.75,8.75,0,0,1,34.1,176.48Zm-8.53,10.74c-.58-.5-1.15-1.05-1.71-1.6l.59,0a6.14,6.14,0,0,0,1,.72h0l.49.2c.15.14.29.29.44.42l.1.1C26.22,187.14,25.9,187.19,25.57,187.22Zm-3.68-9.36a9.75,9.75,0,0,1,.35-1.94c0,.07,0,.15.05.22a23.26,23.26,0,0,0,1.23,3.67c-.56-.54-1.1-1.09-1.62-1.66Zm1.93-7.67c.05.25.13.5.19.76a1.63,1.63,0,0,1-.11.17c0-.12-.11-.25-.17-.37l0,0,.17.41q-.26.45-.48.9c-.32-.69-.61-1.4-.87-2.12.26-.71.53-1.42.83-2.1,0-.1.09-.2.14-.3A21.24,21.24,0,0,0,23.82,170.19Zm3.94,6.73.1.61.38.71c-.33-.46-.65-.92-.94-1.41l.42.08Zm7.14,6.64.36.11c-.44.29-.89.56-1.35.83A12.61,12.61,0,0,0,34.9,183.56ZM23.25,185l-.06-.08.41.14.33.1,0,0-.6-.07Zm1.2-4.37c-.1-.32-.22-.63-.33-.94.27.5.57,1,.88,1.46l-.44-.38-.06-.06Zm5.28.16c.32.24.65.48,1,.7s.43.32.66.47a7.73,7.73,0,0,1-.67.73,8.19,8.19,0,0,1-1,0,9.28,9.28,0,0,1-3.34-.61c-.16-.06-.32-.14-.47-.21a.39.39,0,0,1-.1-.08,19.89,19.89,0,0,1-2.12-4.41,18.42,18.42,0,0,1-.57-1.78l.51.17c.49.18,1,.34,1.49.49a18.58,18.58,0,0,0,1.27,1.52A23.64,23.64,0,0,0,29.73,180.8Zm1.88,1.31c.21.12.43.25.65.36-.37.08-.74.14-1.12.19C31.31,182.48,31.46,182.3,31.61,182.11ZM29.18,186l-.53-.09-.62-.09-.64-.59-.12-.16c.19-.08.39-.16.57-.25l.07,0C28.32,185.24,28.74,185.65,29.18,186Zm-1.23.6-.76-.31a12.33,12.33,0,0,0,1.18.36l.14,0h0ZM21.27,179a2,2,0,0,1,0-.24l.3.4.12.31c0,.25,0,.5,0,.75-.09-.22-.18-.44-.26-.67S21.31,179.15,21.27,179Zm4.88,3.83,0,0-.36-.06a2.61,2.61,0,0,1-.27-.06l-.16-.31q.35.17.69.3A1,1,0,0,0,26.15,182.8ZM24.58,182l.35.59c-.59-.15-1.17-.32-1.75-.51a13.06,13.06,0,0,1-.66-1.29c-.12-.27-.22-.55-.33-.83a10.54,10.54,0,0,0,.87.9A9.89,9.89,0,0,0,24.58,182Zm.79,1.33v0h0l1.31,1.61-.41.11-.44.08c-.25-.13-.48-.27-.72-.42A17.84,17.84,0,0,1,24,183.25c-.2-.27-.37-.55-.55-.83.56.17,1.12.32,1.68.44Zm1.78,2.18h0l.31.27-.28,0c-.26-.1-.51-.22-.76-.33.17,0,.34-.1.51-.15Zm-4.44-3.28.37.12c.36.61.76,1.2,1.17,1.78-.18-.14-.36-.27-.53-.42h0A16.52,16.52,0,0,1,22.71,182.19ZM22,180.76a4.78,4.78,0,0,1-.07-.65c.11.25.21.5.33.75s.38.72.58,1.07c-.09,0-.19-.05-.28-.09l-.12,0c-.13-.23-.24-.47-.36-.7S22.05,180.87,22,180.76ZM26.39,186h0Zm.66-1.2-1.31-1.75,0-.07h.06l.65.11q.6.74,1.26,1.44A4.78,4.78,0,0,1,27.05,184.82Zm-.28-1.66h.08c.56.35,1.13.69,1.71,1l-.65.29A15.59,15.59,0,0,1,26.77,183.16Zm-2.89-8c-.35-.11-.67-.25-1-.38l0-.13c0-.06,0-.13-.05-.2s0,0,0,0h0v0c.13-.35.27-.7.43-1a20.22,20.22,0,0,0,1.17,2C24.24,175.25,24.06,175.2,23.88,175.12Zm-1.2-1.27a15.28,15.28,0,0,1-.32-2.12l0-.53c.21.56.46,1.12.72,1.66C22.91,173.19,22.79,173.52,22.68,173.85Zm9.63,12.31-.61,0h-.18l.56-.32.1,0L33,186Zm-1.21-.3-.74.29-.52,0a17.53,17.53,0,0,1-1.69-1.41l.75-.36a24,24,0,0,0,2.42,1.11l.33.12Zm-2-1.93-.15.07c-.42-.24-.82-.49-1.22-.76.26,0,.53,0,.79,0a10,10,0,0,0,1.21.08l.26,0A6.61,6.61,0,0,1,29.09,183.93Zm3.89-1.1.06,0-.26,0Zm-6.53-6c.24.4.5.77.77,1.15-.15-.17-.3-.33-.44-.5s-.46-.61-.69-.92l.25.07C26.38,176.69,26.41,176.77,26.45,176.83Zm-1-1.16a24.39,24.39,0,0,1-1.78-3.1c.15-.28.32-.56.49-.83l.13.24a20.41,20.41,0,0,0,1.63,3.85Zm-1.24-4h0v0Zm-3.46,7.23c0,.05,0,.11,0,.16h0a12.23,12.23,0,0,0,.74,2.34l-.14,0a26.79,26.79,0,0,1-1.15-3.9C20.35,177.94,20.53,178.42,20.72,178.89Zm.93,2.92a7.8,7.8,0,0,0,1.21,1.82,5.93,5.93,0,0,0,.79,1.2l-.68-.22a15.91,15.91,0,0,1-1-1.8c-.17-.35-.31-.7-.45-1.06Zm-.09.94c-.25-.41-.49-.82-.71-1.25l.06,0C21.11,181.94,21.33,182.35,21.56,182.75Zm-.72-.59a19.09,19.09,0,0,0,1.62,2.27c-.3-.1-.59-.2-.88-.32A18.4,18.4,0,0,1,19.64,181l.68.31C20.49,181.57,20.66,181.87,20.84,182.16Zm12.66,3.76a9.32,9.32,0,0,1-1-.3,27.36,27.36,0,0,0,3.13-1.85,11.24,11.24,0,0,0,2.31.37h.14A17.15,17.15,0,0,1,33.5,185.92Zm.07-2.85c.33.14.66.27,1,.39a13.36,13.36,0,0,1-2.65,2l-.51-.19a20.36,20.36,0,0,1-2.15-1,8,8,0,0,0,1.21-.88c.36,0,.71-.07,1.06-.13.61,0,1.21-.12,1.81-.2l.07,0A.8.8,0,0,0,33.57,183.07Zm-1.86-1.57a14,14,0,0,1-2.63-2.22c-.15-.17-.28-.36-.42-.53L28.07,177c1.93.31,3.87.47,5.81.6a9.36,9.36,0,0,1-.69,1.85,8.67,8.67,0,0,1-1.41,2.13Zm-1.43-6.83a13.77,13.77,0,0,1-3.87-1.08,6,6,0,0,1-1-.59,18.21,18.21,0,0,1-.65-2.18l.26-.37a37.09,37.09,0,0,1,2.39-2.92c0,.1-.07.19-.1.29h0c.05-.14.11-.27.16-.4l.4-.45a34.06,34.06,0,0,1,2.53-2.42,12.19,12.19,0,0,1,1.34,1.35,7.18,7.18,0,0,1,1.11,2h0a12.63,12.63,0,0,1,1,2.56,12.12,12.12,0,0,1,.27,1.36l.23,1.36a10,10,0,0,1,0,1.64A22.5,22.5,0,0,1,30.28,174.67Zm-1-9.95.58-.44.08,0c-.44.36-.88.73-1.3,1.11A7.2,7.2,0,0,1,29.26,164.72Zm5.4,8.42h0l-.21-1.38a11.52,11.52,0,0,0-.26-1.38,13.16,13.16,0,0,0-1-2.63,7.65,7.65,0,0,0-1.15-2.07l-.28-.32a16.08,16.08,0,0,1,2.09,1.76,11.68,11.68,0,0,1,3.29,5c.16.73.36,1.46.51,2.19a20.68,20.68,0,0,1-3,.44A10.1,10.1,0,0,0,34.66,173.14Zm-11.23-6.49c0,.07,0,.13,0,.2-.14.29-.29.57-.42.86s-.4.88-.58,1.33l0-.2a5.83,5.83,0,0,1,.43-1.38A3.53,3.53,0,0,1,23.43,166.65Zm-1.54,7c0,.24.06.49.09.73l-.58-.28c0-.27.08-.54.14-.8s.15-.6.23-.9Zm.23,1.62s0,.07,0,.1a12.13,12.13,0,0,0-.48,2.47h0v0l-.21-.26c-.11-.43-.22-.87-.31-1.31s.07-.93.13-1.39Zm-1.8,0c.08.35.18.71.28,1.06-.09-.2-.18-.41-.26-.62-.1-.47-.18-.94-.25-1.41l.05,0C20.2,174.69,20.25,175,20.32,175.32Zm-.38-2c0-.25-.07-.51-.1-.77s-.06-.53-.09-.79,0-.42.06-.63c0,.74.09,1.49.18,2.23Zm-.29-2.46a1.55,1.55,0,0,1,0-.22c.05-.11.1-.22.16-.33Zm-.95,4c.2.31.41.6.62.9a9,9,0,0,0,.08.91,14.78,14.78,0,0,0,.82,3.22c.15.38.32.75.49,1.12l-.08,0a24.25,24.25,0,0,1-1-2.23c-.51-1.47-1-3-1.44-4.46a1,1,0,0,1,.05-.16Zm.14,5.59a14.34,14.34,0,0,0,1.32,3h0a6.29,6.29,0,0,1-1.41-1.76,8.52,8.52,0,0,1-.58-1.58Zm3,3.93.86.3.21.26h0a5.75,5.75,0,0,1-.83-.27Zm1.4,1.09h.06c.34.47.68.93,1.05,1.37a14.76,14.76,0,0,1-1.64-1.49A5,5,0,0,0,23.26,185.56Zm4.93,1.93.21-.06c.45.07.91.12,1.37.15l1.28.76h0l.71.26a10.79,10.79,0,0,1-1.24.23l-.08,0A17,17,0,0,1,28.19,187.49Zm3.9,0,.63-.07a27.64,27.64,0,0,0,3.5-.43h0a19.84,19.84,0,0,1-2.7,1.1A11,11,0,0,1,32.09,187.51Zm6.71-2.42h0c-.5.17-1,.31-1.51.43a20.55,20.55,0,0,0,2-1.1l.49-.34a5.46,5.46,0,0,0,.69-.1c-.36.34-.72.66-1.1,1Zm-.08-1.35a7.06,7.06,0,0,1-.8,0,8.27,8.27,0,0,1-1.11-.07,8.17,8.17,0,0,0,1.48-.09,9.35,9.35,0,0,0,.92-.18C39.05,183.53,38.89,183.64,38.72,183.74Zm-4.32-.93,1-.18L35,183Zm1.89-1.94a14.61,14.61,0,0,1-3.22,1.4,11.24,11.24,0,0,1-1.07-.6,8.84,8.84,0,0,0,1.41-2.16,12,12,0,0,0,.7-1.93l2,.13,1.66.09a8.2,8.2,0,0,1-.93,2.72C36.65,180.64,36.48,180.76,36.29,180.87Zm1.49-6.54-.54-2.19A11.73,11.73,0,0,0,34,167a16.88,16.88,0,0,0-2.76-2.29l-.47-.45.44-.39.64-.53a18.86,18.86,0,0,1,3.67-.23,14.78,14.78,0,0,1,1.89.23,5,5,0,0,1,1.74,1.2A10.17,10.17,0,0,1,41,167.32a23,23,0,0,1,1.6,5.21l-.48.26a18.12,18.12,0,0,1-3.78,1.42Zm-6.9-10.79-.5.4,0,0,.46-.35Zm-.68.25-.11-.08.3-.07Zm-.56.12-.12,0,0,0Zm-4.88,1.15c0-.08.09-.16.14-.23l.9-.3C25.45,164.7,25.1,164.87,24.76,165.06Zm-.48.25c0-.09,0-.19,0-.28l.17-.05C24.4,165.09,24.34,165.2,24.28,165.31Zm-2.16,3.38c0-.39,0-.79,0-1.18.31-.25.64-.49,1-.72A4.59,4.59,0,0,0,22.12,168.69Zm-.75-.56c.07.27.14.55.22.83,0,.74,0,1.48.08,2.22v0c-.21.66-.41,1.32-.58,2-.05.23-.08.46-.13.68l-.27-.13a32.62,32.62,0,0,1-.32-4.3v-.15c.11-.2.22-.39.34-.58Zm-4,11.11-.39-.31a15,15,0,0,1,.58-4.52,10.27,10.27,0,0,0-.26,1.47A12.61,12.61,0,0,0,17.34,179.24Zm2.51,6.23-.05-.06a9.86,9.86,0,0,1-1.05-1.63c-.17-.33-.33-.66-.49-1,.3.19.61.36.92.52a8.37,8.37,0,0,0,1.19,1,7.48,7.48,0,0,0,.66.43,12.21,12.21,0,0,0,2.45,2.39,14.91,14.91,0,0,1-2.46-.67A12.57,12.57,0,0,1,19.85,185.47Zm12.55,3.84-.37-.06.62-.15.28-.09.11,0h0l.19,0-.83.22Zm1-.45.24-.07.32.09-.15,0Zm6.46-2.9c.5-.17,1-.35,1.49-.54a1,1,0,0,1-.07.15C40.84,185.72,40.37,185.85,39.89,186ZM42,184a9.41,9.41,0,0,1-.91.42c.29-.27.57-.55.84-.83l.25-.09C42.11,183.65,42,183.82,42,184Zm.38-2-.13.06c.14-.15.29-.29.42-.44v0Zm-2.43.93a12,12,0,0,1-1.69.33,7.89,7.89,0,0,1-1.88,0l.11-.07c.48-.36,1-.74,1.44-1.12a26.66,26.66,0,0,0,4.4-1.53l.25-.13A17.59,17.59,0,0,1,39.93,182.9Zm-3.62,0-.35.24-.61-.12c.15-.17.29-.34.42-.52l.09,0c.48-.09,1-.2,1.43-.32Zm.86-2.65a9.19,9.19,0,0,0,.73-2.5c.64,0,1.28.06,1.92.08A13.55,13.55,0,0,1,37.17,180.3Zm.76-2.85c0-.26.06-.52.07-.78a9.49,9.49,0,0,0-.16-2.06l.53-.13a19.67,19.67,0,0,0,4.21-1.77A13.89,13.89,0,0,1,41.16,176a13.07,13.07,0,0,1-.93,1.4C39.46,177.41,38.7,177.44,37.93,177.45Zm3.21-10.22a9.74,9.74,0,0,0-1.91-2.76,5.08,5.08,0,0,0-1.48-1,12,12,0,0,1,3,1c.29.15.56.33.84.5s.64.66.94,1a10.37,10.37,0,0,1,.57,3.4,12.29,12.29,0,0,1-.31,2.7A22.62,22.62,0,0,0,41.14,167.23Zm-14.27-3.41c-.64.21-1.22.43-1.76.64l.15-.25a6.32,6.32,0,0,1,.61-.22,4.88,4.88,0,0,1,1-.18Zm-2.06.6-.13.22-.34.14a.36.36,0,0,0,0-.11Zm-1.32.92c0,.17,0,.34,0,.5q-.68.47-1.32,1s0,0,0-.06a11.34,11.34,0,0,1,1.21-1.29l.11-.09Zm-6.34,7.45v0c.05.25.11.49.17.74a15.77,15.77,0,0,0-.76,5.1l-.18-.58A10.42,10.42,0,0,1,17.15,172.79Zm2.27,13-.44-.23c-.14-.25-.28-.5-.41-.76A11.63,11.63,0,0,0,19.42,185.78Zm3.94,2a11.74,11.74,0,0,0,1.33.13c.37.21.74.39,1.1.55l.18.17a12.69,12.69,0,0,1-2.79-.85Zm3.88-.1a11.08,11.08,0,0,0,1.57,1.06l-.06,0h0a8.28,8.28,0,0,1-2.23-.9C26.73,187.81,27,187.76,27.24,187.71Zm6.37,1.44.26,0-.6.06Zm7.55-2.54,0,0c.12-.19.23-.39.34-.59l.1,0a11.31,11.31,0,0,0,1.35-.46h0l-.61.41ZM44,184l-.42.15L44,184A.43.43,0,0,1,44,184Zm-.12-2.71.27-.18a6.82,6.82,0,0,1-.74.78Zm-.49-1.93a13.77,13.77,0,0,0,.09-1.57c.34,0,.68,0,1-.07C44.11,178.32,43.74,178.87,43.36,179.38Zm-.41.54-.09.11-.63.33a26.64,26.64,0,0,1-4.09,1.49,25.43,25.43,0,0,0,3.29-3.19c.21-.25.42-.51.62-.78l1.05,0A14.59,14.59,0,0,1,43,179.92Zm-.43-2.7c.19-.28.37-.58.54-.88,0,.28,0,.56,0,.84Zm-.33,0-1.61.1a12.61,12.61,0,0,0,.8-1.25,14.65,14.65,0,0,0,1.29-2.92c0,.17.07.35.1.52.11.71.2,1.42.25,2.14C42.77,176.32,42.49,176.79,42.19,177.25Zm.9-3.6c-.07-.37-.15-.73-.23-1.1h0a14.66,14.66,0,0,0,1.38-1,9,9,0,0,1-.12,1,10.33,10.33,0,0,1-.81,2.6C43.25,174.7,43.18,174.17,43.09,173.65Zm-.17-1.33a12.53,12.53,0,0,0,.41-3,11.56,11.56,0,0,0-.34-2.81l.22.29a19.68,19.68,0,0,1,.95,2,12.34,12.34,0,0,1,.1,2.58A13.62,13.62,0,0,1,42.92,172.32Zm1.71-2.24c.09.27.18.54.26.81l-.27.25C44.64,170.79,44.64,170.44,44.63,170.08ZM28,163.48a6.85,6.85,0,0,0-.79,0,5.79,5.79,0,0,1,.25-.57,6.06,6.06,0,0,1,1.21.44Zm-1,0a5.27,5.27,0,0,0-1.11.14c.43-.23.86-.44,1.3-.63C27.15,163.12,27.07,163.28,27,163.45Zm-5.88,3.63c-.26.35-.52.71-.76,1.08,0-.12,0-.24,0-.35.24-.26.49-.51.74-.76Zm-1.3,1.78-.29.33c0-.16,0-.32.05-.48l.27-.32ZM17,172.16l0,0c-.05.13-.11.24-.16.36Zm27.66,10.53a12.4,12.4,0,0,1-2.21,1.12c.06-.18.12-.37.17-.55a8.69,8.69,0,0,0,2.73-2.6A16.17,16.17,0,0,1,44.63,182.69Zm-.32-1.8-.27.17a17.25,17.25,0,0,0,1.36-2.27,1.48,1.48,0,0,1,.13-.08A8.35,8.35,0,0,1,44.31,180.89Zm1.28-2.49.15-.37c0,.1-.05.21-.08.31Zm-.05-2.92c-.11.35-.24.7-.38,1-.1.18-.2.36-.29.54l-.42,0-1,.07c0-.06,0-.11,0-.17,0-.4-.06-.8-.1-1.2a11.28,11.28,0,0,0,1.07-3.1,13,13,0,0,0,.16-1.38c.12-.09.22-.19.33-.29a23.23,23.23,0,0,1,.84,3.65C45.7,174.94,45.63,175.22,45.54,175.48Zm-4.18-12-.2-.19.14.1Zm-2.12-1.72-.27-.16h.2c.27,0,.54,0,.8,0l.12,0,0,0,0,0c.23.28.45.58.66.89C40.31,162.28,39.78,162,39.24,161.73Zm-.87-.47-.3-.14.68.13ZM36.23,161l.25.07.76.28a21.39,21.39,0,0,0-2.38.37c-.37.08-.75.18-1.12.29.38-.24.76-.47,1.16-.68l0-.07a14.83,14.83,0,0,0-2.42,1.22l-.37.17c-.38.06-.76.12-1.14.2-.57.09-1.12.2-1.65.32a6,6,0,0,0-.87-.46c-.1-.05-.21-.08-.31-.12l1.13-.44A18.38,18.38,0,0,1,34.65,161C35.18,161,35.71,161,36.23,161Zm-7.06.93-1.41.54-.08,0a5.74,5.74,0,0,1,.36-.55h0a9.94,9.94,0,0,1,.62-.83,22.25,22.25,0,0,1,2.82.18C30.7,161.42,29.92,161.65,29.17,161.91Zm-2.18.88q-.6.27-1.2.57l.35-.54.06-.09A5.16,5.16,0,0,1,27,162.79Zm-1.64.79c-.3.16-.58.34-.87.52a7.88,7.88,0,0,1,.24-.83l.16-.39.42-.1h0c.21,0,.42,0,.62,0Zm-1.47-.19-.09.29c-.09.32-.16.64-.22,1l-.46.36c-.33.24-.65.49-1,.75,0-.58.07-1.15.13-1.73a9.55,9.55,0,0,1,1-.6,3.85,3.85,0,0,1,.66-.28C23.93,163.23,23.91,163.31,23.88,163.39Zm-2.19,2.71-.12.07.12-.06v0l-.22.19c0-.22-.09-.45-.13-.67s-.08-.57-.11-.86l.29-.25.38-.26C21.81,164.89,21.74,165.5,21.69,166.1Zm-.51-1.81a1.71,1.71,0,0,0,.23-.13l-.12.08-.11.09Zm.29-.16,0-.06-.12,0c.22-.19.46-.36.69-.54,0,.09,0,.17-.05.25Zm-.63.46,0,0s0,0,0-.05Zm0,.51c0,.2,0,.41.05.61s.09.66.14,1l-.63.62c0-.24,0-.49,0-.74l.16-1.26Zm-1.4,2.05c0-.14,0-.28,0-.43l.19-.25C19.59,166.7,19.53,166.92,19.48,167.15ZM19,168.93a15,15,0,0,0-1.56,2.38l-.06-.31a18.93,18.93,0,0,1,1.46-3.28l.19-.3C19,167.92,19,168.42,19,168.93Zm-3.16,7.19,0-.14s0-.11,0-.17A3,3,0,0,0,15.83,176.12Zm-.2,1.61-.21-.22.06-.27Zm.16.56L16,179a18.94,18.94,0,0,0,.51,2.23l-.09,0-1.38-1.44a17.61,17.61,0,0,1,.29-1.91C15.5,178,15.64,178.14,15.79,178.29Zm-1.09.83c-.21-.78-.4-1.57-.54-2.36,0-.22-.05-.43-.08-.64a12.17,12.17,0,0,0,.84,1.19C14.82,177.91,14.75,178.52,14.7,179.12Zm1.47,2.36,0,0h0l.51.31q.21.68.45,1.35c.1.28.23.57.34.85s.1.3.16.44.1.33.15.5l-.1-.05a2.37,2.37,0,0,0-.5-.11c-.34-.51-.66-1-.95-1.57a19.11,19.11,0,0,1-1.15-2.76ZM19,186.94l.21.31c-.12-.12-.22-.25-.33-.37Zm9.85,3-.69-.39c.42,0,.83,0,1.25,0,.21.07.41.13.62.18l-.77.13h0l-.18,0ZM46.6,178l.15-.11a15.19,15.19,0,0,1-.63,2.9A16.44,16.44,0,0,0,46.6,178Zm-4.31-13.48c-.09-.22-.19-.43-.3-.65l.11.08c.2.28.39.57.57.86ZM39.35,161l0,0,.16.15a11.14,11.14,0,0,0-2.57-.43l-.21-.05a.94.94,0,0,0-.15-.06,28.27,28.27,0,0,0-3.35-.94l.33,0a15.41,15.41,0,0,1,4.93.71l.24.16a13,13,0,0,0-2.31-.32v.08A11.32,11.32,0,0,1,39.35,161Zm-12,0-.43,0-.07,0,.2-.08.49-.16C27.43,160.81,27.37,160.89,27.3,161Zm-1.6.46a13.79,13.79,0,0,1,1.43-.25c-.29.35-.57.7-.83,1.06h-.23c-.3,0-.6,0-.91,0a8.13,8.13,0,0,1,.47-.81Zm-2.51,1.78c-.3.13-.59.27-.88.42l0-.22c.44-.14.88-.27,1.32-.38A3.8,3.8,0,0,0,23.19,163.2Zm-6.9,8.92c-.29.89-.55,1.78-.8,2.67l0-.15c-.31-1.27-.59-2.54-.79-3.83,0-.18-.05-.37-.08-.56l.25-.47a16.12,16.12,0,0,0,1.57,1.83C16.36,171.78,16.33,172,16.29,172.12Zm-2-1.2a31.49,31.49,0,0,0,.62,3.85c.09.42.19.85.29,1.27-.07.31-.13.63-.19.94a11.05,11.05,0,0,1-1-1.44,22.26,22.26,0,0,1-.14-3.46c.08-.27.16-.54.25-.81Zm-.15,8.5a18.48,18.48,0,0,0,.58,1.78,11.51,11.51,0,0,0,.19,1.55,12.53,12.53,0,0,1-1-2.09,11.74,11.74,0,0,1-.61-2.47Zm1.19,4a9.4,9.4,0,0,1-.21-1.18c.2.44.4.88.63,1.31s.48.8.74,1.18h0A8.24,8.24,0,0,1,15.3,183.39Zm5,5.32.21.26-.51-.23c-.14-.18-.29-.34-.42-.53l-.06-.1Q19.91,188.43,20.31,188.71Zm26.48-11.2-.17.14s0-.05,0-.07,0-.06,0-.09l.16,0Zm-3.28-12-.33-.64a1.79,1.79,0,0,0,.14.13c.15.25.3.51.44.77Zm-.88-1.55c-.08-.13-.16-.25-.25-.37.11.14.22.28.32.43Zm-18.36-1.55c-.2,0-.4,0-.59.09.24-.15.49-.28.74-.41Zm-2.5.62.4-.23a.36.36,0,0,1,0,.1Zm-4.66,6.44A14.54,14.54,0,0,1,17,168c.13-.11.28-.21.42-.32l-.05-.06-.38.24c0-.34,0-.67,0-1l.09-.1c.65-.65,1.33-1.29,2-1.88,0,.4,0,.8-.07,1.21A14.93,14.93,0,0,0,17.11,169.42Zm-.47-1.35-.12.11a1.22,1.22,0,0,0-.32,1,5.25,5.25,0,0,0,.45,1.57.36.36,0,0,0,0,.11,16.14,16.14,0,0,1-1.48-1.61,14.38,14.38,0,0,1,1.59-2.15C16.68,167.44,16.66,167.76,16.64,168.07Zm.16-1.48c-.07.07-.14.16-.21.24l.21-.25Zm8.54,24a32.8,32.8,0,0,0,3.29,0,12,12,0,0,0,1.35.66,16.83,16.83,0,0,1-3.09-.19c-.57-.11-1.16-.17-1.71-.32l-.4-.12A5.19,5.19,0,0,0,25.34,190.64ZM45.4,167.77c-.17-.43-.36-.85-.56-1.26.26.3.53.61.78.93A10.22,10.22,0,0,1,46,169,8.9,8.9,0,0,0,45.4,167.77Zm-1.13-2.33c-.22-.38-.44-.76-.69-1.13s-.38-.51-.58-.76a8.91,8.91,0,0,1,2.19,2.91C44.89,166.11,44.59,165.77,44.27,165.44Zm-12-7.17a10.24,10.24,0,0,1,1.23.12,12.79,12.79,0,0,1,2.84.81,15.27,15.27,0,0,0-4.41-.07c-.35,0-.7.09-1.05.14l-.25,0c.31-.22.63-.43,1-.62S32,158.38,32.26,158.27Zm-3.5,1.42h0Zm-6.33,3.05c0-.05,0-.09,0-.13l.59-.29C22.83,162.46,22.63,162.59,22.43,162.74ZM20.75,164c-.06.09-.12.17-.17.26s0,.11-.08.17a14.45,14.45,0,0,0-1.05,1.16l0-1,0,0C19.87,164.36,20.3,164.16,20.75,164Zm-7.41,7.85c0,.15-.1.29-.14.44l.15-.61A1,1,0,0,1,13.34,171.83Zm-.91,8a1,1,0,0,0,0,.17,5,5,0,0,1-.14-.67C12.34,179.53,12.38,179.69,12.43,179.86ZM18,188a7.24,7.24,0,0,0,1.74,1.16c-.3-.08-.61-.16-.91-.26a12.65,12.65,0,0,1-1.25-1.18Zm2.72,2.19-.62-.37.75.17c.18.2.39.38.58.57C21.23,190.48,21,190.37,20.76,190.23Zm.35-.15.79.17.41.36a6.58,6.58,0,0,0,.81.65l-.46-.14-.91-.38C21.54,190.52,21.32,190.31,21.11,190.08Zm12.64.68a13.57,13.57,0,0,1-1.9.37,2.85,2.85,0,0,1-.39-.11h0a11.31,11.31,0,0,1-1.28-.43,14.15,14.15,0,0,0,2.43-.13l.33.1a9,9,0,0,0,.9.19Zm2.14-.67a8,8,0,0,1-.85,0l.6-.05c.29,0,.58-.09.87-.13l-.48.17Zm10.64-7-.35.29c.21-.24.41-.48.6-.73Zm-.16-14.62.14.18a2.39,2.39,0,0,0,.13.21,2.43,2.43,0,0,0-.14.2C46.46,168.86,46.42,168.67,46.37,168.47ZM40.19,161l-.06,0-.1-.12.18.06c.44.15.86.33,1.29.52l-.47-.06Q40.61,161.16,40.19,161Zm-10-2.7c.45,0,.9,0,1.35,0l-.16.08a12.17,12.17,0,0,0-1.19.84l-.3,0,.34-.1,0-.08-.56.16q-.9-.07-1.8-.06a8.72,8.72,0,0,1,1.11-.65C29.41,158.38,29.82,158.33,30.23,158.3Zm-1.65,1.39-.1.07a17.35,17.35,0,0,0-2.19.79,7.94,7.94,0,0,1,.74-.79C27.55,159.71,28.06,159.69,28.58,159.69Zm-3.68,1.5-.8.45-.33.11a10.24,10.24,0,0,0-1.08.45l.48-.33,0-.06-.6.35a2.21,2.21,0,0,0,0-.25,5,5,0,0,1,.47-.22A9.37,9.37,0,0,1,25,161.1Zm-2.63,1.15-.25.19c-.3.16-.6.32-.89.5,0-.1,0-.2,0-.3a11.26,11.26,0,0,1,1.21-.71C22.32,162.13,22.29,162.23,22.27,162.34Zm-1.38.84-.34.22c-.27.1-.54.22-.81.34.16-.13.31-.26.47-.37s.46-.34.7-.5A3,3,0,0,0,20.89,163.18Zm-7.36,20.38c.21.24.43.49.67.72a6.79,6.79,0,0,0,.57.47A7.53,7.53,0,0,0,16,186.24a7.16,7.16,0,0,0,.57.65,12.87,12.87,0,0,0,1.09,1.35c-.33-.27-.65-.55-1-.83a20.79,20.79,0,0,1-2.83-3.1c-.1-.13-.19-.27-.28-.41S13.56,183.67,13.53,183.56Zm3,4c.39.34.8.65,1.2,1a18.13,18.13,0,0,1-2.07-.92c-.26-.14-.52-.28-.77-.44a20.29,20.29,0,0,1-1-2.36A22.13,22.13,0,0,0,16.57,187.59Zm8.82,4.93c.24.1.48.2.72.28.67.23,1.35.5,2.05.69s1.16.3,1.75.42A23.23,23.23,0,0,1,25,192.55ZM47.56,182c0-.17.11-.33.16-.5l.31-.25,0,0c.12-.08.23-.18.35-.27Zm.43-3.1v0c.06-.21.14-.42.19-.64s.12-.67.17-1l.32-.06.08,0a10.7,10.7,0,0,1-.73,2.6A3.94,3.94,0,0,0,48,178.9Zm.45-2.2,0-.25.38-.38a5.46,5.46,0,0,1,0,.57Zm-1.27-6.58.55,2.66a14.7,14.7,0,0,1,.07,2.3c-.06-.28-.12-.57-.2-.85a23.42,23.42,0,0,0-.84-2.44c0-.07,0-.14,0-.2a13.3,13.3,0,0,0-.07-1.55c0-.27-.09-.53-.13-.79l.19-.26.06.09Zm-8-10.19a5.58,5.58,0,0,0-.46-.39,8.53,8.53,0,0,1,.72.49Zm-14,1a9.35,9.35,0,0,0-2.14.55l-.32.14c0-.08,0-.16.05-.24a2.14,2.14,0,0,1,.71-.61l0-.06a2.14,2.14,0,0,0-.81.6h0c0,.12-.07.25-.1.37-.43.2-.85.41-1.26.65a1.6,1.6,0,0,1,.42-.9l-.06,0a1.85,1.85,0,0,0-.56,1,.28.28,0,0,1,0,.09c-.33.2-.66.41-1,.63s-.41.31-.62.47l0-.68h-.07l-.06.8c-.37.29-.73.59-1.09.91a8.31,8.31,0,0,0-.92.63h-.08a.25.25,0,0,1,0,.07l-1.73,1.6c.27-.42.56-.84.87-1.24a14.71,14.71,0,0,1,2.13-2.32,16,16,0,0,1,5.54-3,15.83,15.83,0,0,1,1.93-.43A10.16,10.16,0,0,0,25.1,160.9ZM14.88,187.63c.18.32.36.63.56.94a5.5,5.5,0,0,1-.7-1Zm22.78,3.07-.62.21-1.35.21.79-.32c.41,0,.81-.07,1.21-.13Zm11-9.77.28-.42a11.77,11.77,0,0,0,.87-.86,3.75,3.75,0,0,1-.41.67,11.65,11.65,0,0,1-1,1.09l-.09.08ZM36.2,157.33a12.89,12.89,0,0,1,4.78.6,11.51,11.51,0,0,1,4.19,2.36l1.24,1.36.84,1.48a4.77,4.77,0,0,1,.15.54,14.55,14.55,0,0,0-3.92-1.81c-.22-.07-.45-.12-.67-.17a13.71,13.71,0,0,0-2-1c-.43-.22-.86-.42-1.29-.59a12.43,12.43,0,0,0-4.63-2.6C35.31,157.4,35.76,157.36,36.2,157.33Zm-9.07,1.42a6.4,6.4,0,0,0-.5.41,14.27,14.27,0,0,0-2.57.45,19.73,19.73,0,0,1,2.91-.84l.17,0Zm-12.36,7.4c-.06.12-.13.23-.19.34s-.13.33-.2.49v0l-.07,0a3.43,3.43,0,0,0-.06.34l-.18.32-.18-.39C14.17,166.83,14.46,166.49,14.77,166.15ZM13,168.37c.2-.3.41-.6.62-.88.07.17.13.34.21.51a17,17,0,0,0-.8,2c-.15.27-.3.55-.43.83s-.17.3-.25.46c-.1-.41-.18-.83-.24-1.25a1.23,1.23,0,0,0,0-.19C12.4,169.35,12.7,168.86,13,168.37Zm-1,1.69a10.12,10.12,0,0,0,.25,1.46,7.13,7.13,0,0,0-.31.7,16.72,16.72,0,0,1-.09-1.87Zm-1.78,6c0-.47.09-.94.15-1.41a17.09,17.09,0,0,0,.11,2,16.74,16.74,0,0,0,1.09,4.11,15,15,0,0,0,1.26,2.46,9.24,9.24,0,0,0,.48,1.63,7.12,7.12,0,0,0,.57,1.58,9.45,9.45,0,0,1-.76-.66,9,9,0,0,1-1.83-2.59,7.26,7.26,0,0,1-.54-1.5c-.12-.53-.2-1.06-.31-1.59h-.07c0,.05,0,.1,0,.15v-.05A19.3,19.3,0,0,1,10.21,176.07Zm1,7.75-.11-.46A9.08,9.08,0,0,0,12.88,186a8.51,8.51,0,0,0,1.45,1.23l0,0a6.08,6.08,0,0,0,1.43,2,6.3,6.3,0,0,0,.87,1l.3.33A13,13,0,0,1,11.24,183.82ZM30.41,195a11.77,11.77,0,0,1-6.78.15,12.9,12.9,0,0,1-5.55-3.55c.3.12.61.23.92.33a18.7,18.7,0,0,0,3.06,1.55,6.48,6.48,0,0,0,2.31.68,8.09,8.09,0,0,0,2.59.28,12.06,12.06,0,0,0,3.06-.12c.33,0,.66,0,1-.08l.84.09.32,0A15.44,15.44,0,0,1,30.41,195Zm18.23-10.87a18.56,18.56,0,0,1-2.06,3.63,15.48,15.48,0,0,1-5.33,4.59,14.53,14.53,0,0,1-2,.52l-2.54.52-2.12.09h-.12a11.18,11.18,0,0,0,2.11-.8,12.67,12.67,0,0,0,3-1.47h0a13.53,13.53,0,0,0,2.68-1.74l.4-.31a11.7,11.7,0,0,0,4-2.75l0-.05a11.61,11.61,0,0,1-2.49,1.63,15.79,15.79,0,0,0,1.17-1.14l0,0a17.22,17.22,0,0,1-1.42,1.29c-.59.28-1.2.52-1.81.74a10.73,10.73,0,0,0,.79-.86l-.06-.05a11.13,11.13,0,0,1-1.5,1.16,17.83,17.83,0,0,1-2.18.55l.08-.08.12-.17c.19-.1.38-.22.57-.33a21.2,21.2,0,0,0,5.07-2.39,24.43,24.43,0,0,0,2.63-2c.42-.36.82-.72,1.21-1.12l.24-.28Zm1.42-3.95a14.28,14.28,0,0,1-.65,2.11.65.65,0,0,0,0-.19l-.07,0a.83.83,0,0,1-.17.72,3,3,0,0,1-.54.58c-.4.35-.84.67-1.27,1-.71.53-1.45,1-2.2,1.47.22-.23.44-.47.64-.72a5.8,5.8,0,0,0,1.6-1.25h0a4.07,4.07,0,0,0,.95-1.24h0a1.47,1.47,0,0,0,.05-.75l.31-.32a11,11,0,0,0,.94-1.2,3.06,3.06,0,0,0,.43-1l.12-.12.11-.12C50.21,179.55,50.14,179.89,50.06,180.22Zm1-3.16,0,0,0,0a5,5,0,0,1-.5.79,8.2,8.2,0,0,0-.3-1.16,10.83,10.83,0,0,0,1.37-.54A3.91,3.91,0,0,1,51.05,177.06Zm-.92-.67c0-.1-.05-.2-.06-.3a9.85,9.85,0,0,1,0-1.33c.09-.13.19-.25.29-.38a7.06,7.06,0,0,0,1.35-3.15h0l0-1.11a3.76,3.76,0,0,1,.43,1.39v0l0,0a2.8,2.8,0,0,1,.14,1.87v.07a3.6,3.6,0,0,1-.4,1.8v.07a5.22,5.22,0,0,1-.18.56A14.78,14.78,0,0,1,50.13,176.39Z"/><polygon class="cls-45" points="27.87 161.77 27.88 161.76 27.88 161.76 27.87 161.77"/><polygon class="cls-45" points="42.28 189.52 42.28 189.53 42.28 189.53 42.28 189.52"/><polygon class="cls-45" points="28.21 180.99 26.57 179.8 25.73 179.8 28.21 180.99"/><polygon class="cls-45" points="47.48 187.64 50.44 184.02 48.2 185.99 47.48 187.64"/><polygon class="cls-45" points="40.59 194.2 43.99 192.85 39.71 193.9 40.59 194.2"/><polygon class="cls-45" points="17.3 193 19.21 194.35 16.58 191.5 17.3 193"/><polygon class="cls-45" points="28.03 155.45 21.57 159 31.74 156.01 28.03 155.45"/></g><g class="cls-47"><path class="cls-48" d="M3.16,239.12V229H4.34v9.12h4v1Z"/><path class="cls-48" d="M17,235.5a3.88,3.88,0,0,1-1.09,2.83,3.27,3.27,0,0,1-2.4,1,3.26,3.26,0,0,1-2.66-1.25,4.32,4.32,0,0,1,.21-5.41,3.27,3.27,0,0,1,2.45-1,3.22,3.22,0,0,1,2.67,1.26A4.14,4.14,0,0,1,17,235.5Zm-5.84,0a3.23,3.23,0,0,0,.72,2.21,2,2,0,0,0,1.61.72,2.09,2.09,0,0,0,1.71-.81,3.84,3.84,0,0,0-.06-4.33,2,2,0,0,0-1.63-.77,2.08,2.08,0,0,0-1.71.83A3.38,3.38,0,0,0,11.13,235.5Z"/><path class="cls-48" d="M26.63,232.94a3.7,3.7,0,0,0-1.74-.42,1.63,1.63,0,0,0-1,.28.92.92,0,0,0-.36.76,1,1,0,0,0,.32.8,3.81,3.81,0,0,0,1.26.55,4.56,4.56,0,0,1,1.82.89,2,2,0,0,1-.2,2.92,2.77,2.77,0,0,1-1.83.59,4.24,4.24,0,0,1-2.56-.8l.16-.27c.08-.14.14-.25.19-.32a4.1,4.1,0,0,0,2,.51c1.12,0,1.68-.42,1.68-1.27a1,1,0,0,0-.36-.8,3.86,3.86,0,0,0-1.33-.54c-1.52-.43-2.27-1.17-2.27-2.22a1.74,1.74,0,0,1,.66-1.4,2.6,2.6,0,0,1,1.7-.54,3.74,3.74,0,0,1,2.21.69Z"/><path class="cls-48" d="M35.21,235.85H30a2.64,2.64,0,0,0,.81,1.87,2.69,2.69,0,0,0,1.93.71,3.62,3.62,0,0,0,1.93-.59l.37.64a4,4,0,0,1-2.54.83,3.53,3.53,0,0,1-2.76-1.14,3.8,3.8,0,0,1-.94-2.65,4.13,4.13,0,0,1,1-2.84,2.91,2.91,0,0,1,2.26-1A2.77,2.77,0,0,1,34.55,233a4.58,4.58,0,0,1,.66,2.53ZM30,235H34.1a3.06,3.06,0,0,0-.57-1.83,1.73,1.73,0,0,0-1.43-.65,1.84,1.84,0,0,0-1.45.69A2.89,2.89,0,0,0,30,235Z"/><path class="cls-48" d="M43.33,239.12h-1v-4.26c0-1.52-.66-2.27-2-2.27a2.57,2.57,0,0,0-1.13.27,2.26,2.26,0,0,0-.87.69v5.57H37.22v-7.27h.9l.09.77h0a3.19,3.19,0,0,1,2.37-1q2.7,0,2.7,3.12Z"/><path class="cls-48" d="M47.19,232.73l0,4.55c0,.77.32,1.16.95,1.16a2.24,2.24,0,0,0,1-.27l.38.59a2.79,2.79,0,0,1-1.65.55,1.67,1.67,0,0,1-1.31-.53,2.14,2.14,0,0,1-.46-1.47v-4.58H45v-.88h1.12v-1.58l1.06-.55v2.13h2.22v.88Z"/><path class="cls-48" d="M51.38,229.48a.71.71,0,0,1,1.41,0,.68.68,0,0,1-.21.51.72.72,0,0,1-1,0A.71.71,0,0,1,51.38,229.48Zm1.22,2.37v7.27H51.54v-7.27Z"/><path class="cls-48" d="M66,239.12H65V235q0-2.37-2-2.37a2.71,2.71,0,0,0-2,.93,4.72,4.72,0,0,1,.16,1.24v4.36H60.1v-4.23c0-1.53-.65-2.3-1.94-2.3a2.3,2.3,0,0,0-1.06.28,2.41,2.41,0,0,0-.86.69v5.56H55.17v-7.27h.9l.09.75h.05a3.29,3.29,0,0,1,2.32-.94,2.26,2.26,0,0,1,2.19,1.17,3.43,3.43,0,0,1,2.64-1.17,2.46,2.46,0,0,1,2,.85,3.43,3.43,0,0,1,.66,2.25Z"/><path class="cls-48" d="M75,235.5a3.87,3.87,0,0,1-1.08,2.83,3.3,3.3,0,0,1-2.4,1,3.26,3.26,0,0,1-2.66-1.25,4.32,4.32,0,0,1,.21-5.41,3.49,3.49,0,0,1,5.12.27A4.14,4.14,0,0,1,75,235.5Zm-5.84,0a3.23,3.23,0,0,0,.72,2.21,2.19,2.19,0,0,0,3.32-.09,3.81,3.81,0,0,0,0-4.33,2,2,0,0,0-1.63-.77,2.07,2.07,0,0,0-1.71.83A3.38,3.38,0,0,0,69.12,235.5Z"/><path class="cls-48" d="M80.79,232.94a3.74,3.74,0,0,0-1.75-.42,1.65,1.65,0,0,0-1,.28.92.92,0,0,0-.36.76,1,1,0,0,0,.33.8,3.81,3.81,0,0,0,1.26.55,4.56,4.56,0,0,1,1.82.89,2.07,2.07,0,0,1-.2,2.92,2.79,2.79,0,0,1-1.83.59,4.22,4.22,0,0,1-2.56-.8,2.55,2.55,0,0,1,.16-.27,2.44,2.44,0,0,1,.19-.32,4.1,4.1,0,0,0,2,.51c1.12,0,1.68-.42,1.68-1.27a1,1,0,0,0-.36-.8,3.84,3.84,0,0,0-1.34-.54c-1.51-.43-2.27-1.17-2.27-2.22a1.72,1.72,0,0,1,.67-1.4,2.6,2.6,0,0,1,1.7-.54,3.74,3.74,0,0,1,2.21.69Z"/><path class="cls-48" d="M83.41,240.3a1.32,1.32,0,0,0,.61-1,.89.89,0,0,0,0-.19.59.59,0,0,1-.29.11.54.54,0,0,1-.42-.21.66.66,0,0,1-.19-.48.69.69,0,0,1,.2-.5.69.69,0,0,1,.51-.2c.56,0,.84.38.84,1.15a1.82,1.82,0,0,1-1,1.71Z"/><path class="cls-48" d="M96.71,239.12H95.65v-4.26c0-1.52-.66-2.27-2-2.27a2.58,2.58,0,0,0-1.14.27,2.23,2.23,0,0,0-.86.69v5.57H90.59v-7.27h.9l.1.77h0a3.19,3.19,0,0,1,2.37-1c1.8,0,2.71,1,2.71,3.12Z"/><path class="cls-48" d="M105.63,235.5a3.87,3.87,0,0,1-1.08,2.83,3.3,3.3,0,0,1-2.4,1,3.26,3.26,0,0,1-2.66-1.25,4.32,4.32,0,0,1,.21-5.41,3.49,3.49,0,0,1,5.12.27A4.14,4.14,0,0,1,105.63,235.5Zm-5.84,0a3.23,3.23,0,0,0,.72,2.21,2.19,2.19,0,0,0,3.32-.09,3.81,3.81,0,0,0,0-4.33,2,2,0,0,0-1.63-.77,2.07,2.07,0,0,0-1.71.83A3.38,3.38,0,0,0,99.79,235.5Z"/><path class="cls-48" d="M117.6,239.12h-1.06v-4.26c0-1.52-.67-2.27-2-2.27a2.5,2.5,0,0,0-1.12.28,2,2,0,0,0-.85.68v5.57h-1.07v-9.76l1.07-.56v3.82a3.21,3.21,0,0,1,2.3-1c1.83,0,2.74,1,2.74,3.12Z"/><path class="cls-48" d="M125.92,235.85h-5.18a2.67,2.67,0,0,0,.8,1.87,2.7,2.7,0,0,0,1.93.71,3.66,3.66,0,0,0,1.94-.59l.37.64a4,4,0,0,1-2.55.83,3.51,3.51,0,0,1-2.75-1.14,3.75,3.75,0,0,1-.94-2.65,4.12,4.12,0,0,1,1-2.84,2.91,2.91,0,0,1,2.26-1,2.75,2.75,0,0,1,2.46,1.31,4.58,4.58,0,0,1,.66,2.53Zm-5.2-.86h4.1a3.21,3.21,0,0,0-.57-1.83,1.75,1.75,0,0,0-1.43-.65,1.82,1.82,0,0,0-1.45.69A2.9,2.9,0,0,0,120.72,235Z"/><path class="cls-48" d="M138.8,239.12h-1.07V235c0-1.58-.66-2.37-2-2.37a2.75,2.75,0,0,0-2,.93,4.33,4.33,0,0,1,.16,1.24v4.36h-1.06v-4.23c0-1.53-.64-2.3-1.93-2.3a2.34,2.34,0,0,0-1.07.28,2.37,2.37,0,0,0-.85.69v5.56h-1.07v-7.27h.89l.1.75h0a3.28,3.28,0,0,1,2.32-.94,2.28,2.28,0,0,1,2.19,1.17,3.4,3.4,0,0,1,2.64-1.17,2.45,2.45,0,0,1,2,.85,3.43,3.43,0,0,1,.66,2.25Z"/><path class="cls-48" d="M147.73,235.5a3.88,3.88,0,0,1-1.09,2.83,3.44,3.44,0,0,1-5.06-.27,4.32,4.32,0,0,1,.21-5.41,3.27,3.27,0,0,1,2.45-1,3.22,3.22,0,0,1,2.67,1.26A4.08,4.08,0,0,1,147.73,235.5Zm-5.84,0a3.23,3.23,0,0,0,.72,2.21,2,2,0,0,0,1.61.72,2.08,2.08,0,0,0,1.71-.81,3.79,3.79,0,0,0-.06-4.33,2,2,0,0,0-1.63-.77,2.06,2.06,0,0,0-1.7.83A3.32,3.32,0,0,0,141.89,235.5Z"/><path class="cls-48" d="M153.55,232.94a3.67,3.67,0,0,0-1.74-.42,1.63,1.63,0,0,0-1,.28.92.92,0,0,0-.36.76,1,1,0,0,0,.32.8,3.81,3.81,0,0,0,1.26.55,4.56,4.56,0,0,1,1.82.89,1.83,1.83,0,0,1,.52,1.4,1.86,1.86,0,0,1-.72,1.52,2.77,2.77,0,0,1-1.83.59,4.24,4.24,0,0,1-2.56-.8l.16-.27c.08-.14.14-.25.19-.32a4.1,4.1,0,0,0,2,.51c1.12,0,1.68-.42,1.68-1.27a1,1,0,0,0-.36-.8,3.86,3.86,0,0,0-1.33-.54c-1.52-.43-2.27-1.17-2.27-2.22a1.74,1.74,0,0,1,.66-1.4,2.6,2.6,0,0,1,1.7-.54,3.72,3.72,0,0,1,2.21.69Z"/><path class="cls-48" d="M166.13,235.85h-5.19a2.6,2.6,0,0,0,2.74,2.58,3.6,3.6,0,0,0,1.93-.59l.37.64a4,4,0,0,1-2.54.83,3.51,3.51,0,0,1-2.75-1.14,3.76,3.76,0,0,1-.95-2.65,4.13,4.13,0,0,1,1-2.84,2.91,2.91,0,0,1,2.26-1,2.76,2.76,0,0,1,2.46,1.31,4.58,4.58,0,0,1,.66,2.53Zm-5.2-.86H165a3.13,3.13,0,0,0-.56-1.83,1.76,1.76,0,0,0-1.44-.65,1.84,1.84,0,0,0-1.45.69A3,3,0,0,0,160.93,235Z"/><path class="cls-48" d="M174.26,239.12H173.2v-4.26c0-1.52-.66-2.27-2-2.27a2.57,2.57,0,0,0-1.13.27,2.34,2.34,0,0,0-.87.69v5.57h-1.07v-7.27h.9l.09.77h.05a3.19,3.19,0,0,1,2.37-1c1.8,0,2.71,1,2.71,3.12Z"/><path class="cls-48" d="M182.16,232.43l-.35.61a3.24,3.24,0,0,0-1.78-.52,2.44,2.44,0,0,0-2.05,1,3.3,3.3,0,0,0-.64,2.08,2.82,2.82,0,0,0,.82,2.13,2.7,2.7,0,0,0,2,.74,2.92,2.92,0,0,0,1.8-.59l.36.64a3.42,3.42,0,0,1-2.4.83,3.53,3.53,0,0,1-2.8-1.19,4.18,4.18,0,0,1,.27-5.49,3.36,3.36,0,0,1,2.43-1A3.73,3.73,0,0,1,182.16,232.43Z"/><path class="cls-48" d="M190.72,235.5a3.84,3.84,0,0,1-1.09,2.83,3.43,3.43,0,0,1-5-.27,4.34,4.34,0,0,1,.2-5.41,3.27,3.27,0,0,1,2.45-1,3.22,3.22,0,0,1,2.67,1.26A4.08,4.08,0,0,1,190.72,235.5Zm-5.84,0a3.23,3.23,0,0,0,.72,2.21,2.19,2.19,0,0,0,3.32-.09,3.79,3.79,0,0,0-.06-4.33,2,2,0,0,0-1.63-.77,2.06,2.06,0,0,0-1.7.83A3.32,3.32,0,0,0,184.88,235.5Z"/><path class="cls-48" d="M198.85,239.12h-1.06v-4.26c0-1.52-.66-2.27-2-2.27a2.58,2.58,0,0,0-1.14.27,2.23,2.23,0,0,0-.86.69v5.57h-1.08v-7.27h.9l.1.77h0a3.19,3.19,0,0,1,2.37-1c1.81,0,2.71,1,2.71,3.12Z"/><path class="cls-48" d="M202.7,232.73v4.55c0,.77.31,1.16.94,1.16a2.21,2.21,0,0,0,1-.27l.38.59a2.79,2.79,0,0,1-1.64.55,1.67,1.67,0,0,1-1.32-.53,2.19,2.19,0,0,1-.46-1.47v-4.58h-1.1v-.88h1.12v-1.58l1-.55v2.13h2.23v.88Z"/><path class="cls-48" d="M211.71,232.48l-.88.6a1.73,1.73,0,0,0-1.17-.48,2,2,0,0,0-1.61,1v5.57H207v-7.27h.92l.09.77h0a2.75,2.75,0,0,1,1.94-1A2,2,0,0,1,211.71,232.48Z"/><path class="cls-48" d="M218.26,239.12h-.8l-.16-.79a3.34,3.34,0,0,1-2.44,1,2.49,2.49,0,0,1-1.76-.62,2.17,2.17,0,0,1-.65-1.64q0-2.49,3.64-2.49h1.11v-.1a1.66,1.66,0,0,0-1.86-1.9,3.42,3.42,0,0,0-2,.7l-.35-.59a3.84,3.84,0,0,1,2.69-1,2.41,2.41,0,0,1,1.93.78,3.39,3.39,0,0,1,.68,2.26Zm-1.06-3.78h-1c-1.75,0-2.62.54-2.62,1.62A1.42,1.42,0,0,0,214,238a1.58,1.58,0,0,0,1.14.39,2.56,2.56,0,0,0,1.23-.32,1.81,1.81,0,0,0,.82-.8Z"/><path class="cls-48" d="M226,239.12l-.18-.77a2.67,2.67,0,0,1-2.22,1,3,3,0,0,1-2.51-1.19,4.53,4.53,0,0,1,.32-5.55,3.13,3.13,0,0,1,2.29-.91,2.6,2.6,0,0,1,2,.85V229.4l1.06-.59v10.31Zm-.26-1.94v-3.47a1.76,1.76,0,0,0-.75-.84,2.1,2.1,0,0,0-1.15-.35,2.15,2.15,0,0,0-1.73.83,3.22,3.22,0,0,0-.67,2.12,3.27,3.27,0,0,0,.74,2.28,2.18,2.18,0,0,0,2.77.33A2.08,2.08,0,0,0,225.69,237.18Z"/><path class="cls-48" d="M235.76,235.5a3.84,3.84,0,0,1-1.09,2.83,3.43,3.43,0,0,1-5-.27,4.34,4.34,0,0,1,.2-5.41,3.27,3.27,0,0,1,2.45-1,3.22,3.22,0,0,1,2.67,1.26A4.08,4.08,0,0,1,235.76,235.5Zm-5.84,0a3.23,3.23,0,0,0,.72,2.21,2.19,2.19,0,0,0,3.32-.09,3.79,3.79,0,0,0-.06-4.33,2,2,0,0,0-1.63-.77,2.06,2.06,0,0,0-1.7.83A3.32,3.32,0,0,0,229.92,235.5Z"/><path class="cls-48" d="M29.85,251.68l-.88.6a1.77,1.77,0,0,0-1.17-.48,2,2,0,0,0-1.62.95v5.57H25.11v-7.27H26l.1.77h0a2.73,2.73,0,0,1,1.94-1A2,2,0,0,1,29.85,251.68Z"/><path class="cls-48" d="M36.89,255.05H31.7a2.64,2.64,0,0,0,.81,1.87,2.7,2.7,0,0,0,1.93.71,3.62,3.62,0,0,0,1.93-.59l.37.64a4,4,0,0,1-2.54.83,3.51,3.51,0,0,1-2.75-1.14,3.76,3.76,0,0,1-.95-2.65,4.15,4.15,0,0,1,1-2.84,2.91,2.91,0,0,1,2.26-1,2.77,2.77,0,0,1,2.46,1.31,4.58,4.58,0,0,1,.66,2.53Zm-5.2-.86h4.09a3.06,3.06,0,0,0-.57-1.83,1.73,1.73,0,0,0-1.43-.65,1.84,1.84,0,0,0-1.45.69A2.89,2.89,0,0,0,31.69,254.19Z"/><path class="cls-48" d="M42.71,252.14a3.74,3.74,0,0,0-1.75-.42,1.65,1.65,0,0,0-1,.28.92.92,0,0,0-.36.76,1,1,0,0,0,.33.8,3.81,3.81,0,0,0,1.26.55A4.56,4.56,0,0,1,43,255a2.07,2.07,0,0,1-.2,2.92,2.77,2.77,0,0,1-1.83.59,4.24,4.24,0,0,1-2.56-.8l.16-.27c.08-.14.14-.25.19-.32a4.1,4.1,0,0,0,2,.51c1.12,0,1.68-.42,1.68-1.27a1,1,0,0,0-.36-.8,3.86,3.86,0,0,0-1.33-.54q-2.28-.65-2.28-2.22a1.75,1.75,0,0,1,.67-1.4,2.6,2.6,0,0,1,1.7-.54,3.74,3.74,0,0,1,2.21.69Z"/><path class="cls-48" d="M51.4,251.05v7.27h-.83l-.1-.84,0,0a3.18,3.18,0,0,1-2.37,1,2.25,2.25,0,0,1-1.84-.83,3.5,3.5,0,0,1-.67-2.28v-4.35h1.07v4.16c0,1.57.59,2.35,1.76,2.35a2.48,2.48,0,0,0,1.1-.27,2.27,2.27,0,0,0,.87-.7v-5.54Z"/><path class="cls-48" d="M55,248v10.32H53.89v-9.75Z"/><path class="cls-48" d="M59.06,251.93l0,4.55c0,.77.32,1.16,1,1.16a2.21,2.21,0,0,0,1-.27l.38.59a2.79,2.79,0,0,1-1.65.55,1.67,1.67,0,0,1-1.31-.53,2.14,2.14,0,0,1-.46-1.47v-4.58H56.88v-.88H58v-1.58l1.06-.55v2.13h2.22v.88Z"/><path class="cls-48" d="M68.66,258.32h-.8l-.16-.79a3.3,3.3,0,0,1-2.43,1,2.47,2.47,0,0,1-1.76-.62,2.14,2.14,0,0,1-.66-1.64q0-2.49,3.65-2.49h1.1v-.1a1.65,1.65,0,0,0-1.85-1.9,3.4,3.4,0,0,0-2,.7l-.36-.59a3.88,3.88,0,0,1,2.69-1,2.43,2.43,0,0,1,1.94.78,3.39,3.39,0,0,1,.67,2.26Zm-1.06-3.78h-1c-1.75,0-2.63.54-2.63,1.62a1.46,1.46,0,0,0,.41,1.08,1.6,1.6,0,0,0,1.15.39,2.62,2.62,0,0,0,1.23-.32,1.84,1.84,0,0,0,.81-.8Z"/><path class="cls-48" d="M76.36,258.32l-.18-.77a2.67,2.67,0,0,1-2.22,1,3,3,0,0,1-2.52-1.19,4.53,4.53,0,0,1,.32-5.55,3.13,3.13,0,0,1,2.29-.91,2.62,2.62,0,0,1,2,.85V248.6l1.06-.59v10.31Zm-.26-1.94v-3.47a1.87,1.87,0,0,0-.75-.84,2.16,2.16,0,0,0-2.88.48,3.22,3.22,0,0,0-.67,2.12,3.32,3.32,0,0,0,.73,2.29,2.2,2.2,0,0,0,3.57-.58Z"/><path class="cls-48" d="M86.16,254.7a3.84,3.84,0,0,1-1.09,2.83,3.43,3.43,0,0,1-5-.27,4.32,4.32,0,0,1,.21-5.41,3.49,3.49,0,0,1,5.12.27A4.14,4.14,0,0,1,86.16,254.7Zm-5.84,0a3.23,3.23,0,0,0,.72,2.21,2.19,2.19,0,0,0,3.32-.09,3.81,3.81,0,0,0,0-4.33,2.14,2.14,0,0,0-3.34.06A3.38,3.38,0,0,0,80.32,254.7Z"/><path class="cls-48" d="M92,252.14a3.74,3.74,0,0,0-1.75-.42,1.63,1.63,0,0,0-1,.28.92.92,0,0,0-.36.76,1,1,0,0,0,.33.8,3.81,3.81,0,0,0,1.26.55,4.56,4.56,0,0,1,1.82.89,2.07,2.07,0,0,1-.2,2.92,2.79,2.79,0,0,1-1.83.59,4.22,4.22,0,0,1-2.56-.8,2.55,2.55,0,0,1,.16-.27,2.44,2.44,0,0,1,.19-.32,4.1,4.1,0,0,0,2,.51c1.12,0,1.68-.42,1.68-1.27a1,1,0,0,0-.36-.8A3.93,3.93,0,0,0,90,255c-1.51-.43-2.27-1.17-2.27-2.22a1.72,1.72,0,0,1,.67-1.4,2.6,2.6,0,0,1,1.7-.54,3.74,3.74,0,0,1,2.21.69Z"/><path class="cls-48" d="M98.66,251.05h.85l.14.79a3,3,0,0,1,2.37-1A3,3,0,0,1,104.5,252a4,4,0,0,1,.77,2.5,4.13,4.13,0,0,1-1.12,3.07,3,3,0,0,1-2.21.9,2.85,2.85,0,0,1-2.21-.87v3.59H98.66Zm1.07,2v3.44a1.68,1.68,0,0,0,.76.83,2.3,2.3,0,0,0,3-.46,3.2,3.2,0,0,0,.67-2.13,3.28,3.28,0,0,0-.73-2.29,2.06,2.06,0,0,0-1.6-.67,2.25,2.25,0,0,0-1.22.37A2.06,2.06,0,0,0,99.73,253Z"/><path class="cls-48" d="M112.61,258.32h-.8l-.16-.79a3.3,3.3,0,0,1-2.43,1,2.45,2.45,0,0,1-1.76-.62,2.14,2.14,0,0,1-.66-1.64q0-2.49,3.65-2.49h1.1v-.1a1.66,1.66,0,0,0-1.85-1.9,3.4,3.4,0,0,0-2,.7l-.36-.59a3.88,3.88,0,0,1,2.69-1,2.43,2.43,0,0,1,1.94.78,3.44,3.44,0,0,1,.67,2.26Zm-1.06-3.78h-1c-1.75,0-2.63.54-2.63,1.62a1.46,1.46,0,0,0,.41,1.08,1.59,1.59,0,0,0,1.15.39,2.62,2.62,0,0,0,1.23-.32,1.84,1.84,0,0,0,.81-.8Z"/><path class="cls-48" d="M119.81,251.68l-.88.6a1.73,1.73,0,0,0-1.17-.48,2,2,0,0,0-1.61.95v5.57h-1.08v-7.27H116l.09.77h0a2.75,2.75,0,0,1,1.94-1A2,2,0,0,1,119.81,251.68Z"/><path class="cls-48" d="M126.35,258.32h-.8l-.16-.79a3.3,3.3,0,0,1-2.43,1,2.49,2.49,0,0,1-1.76-.62,2.13,2.13,0,0,1-.65-1.64q0-2.49,3.64-2.49h1.11v-.1a1.66,1.66,0,0,0-1.86-1.9,3.42,3.42,0,0,0-2,.7l-.35-.59a3.84,3.84,0,0,1,2.69-1,2.41,2.41,0,0,1,1.93.78,3.39,3.39,0,0,1,.67,2.26Zm-1-3.78h-1c-1.75,0-2.62.54-2.62,1.62a1.42,1.42,0,0,0,.41,1.08,1.58,1.58,0,0,0,1.14.39,2.56,2.56,0,0,0,1.23-.32,1.81,1.81,0,0,0,.82-.8Z"/><path class="cls-48" d="M134.26,251.93l0,4.55c0,.77.32,1.16.95,1.16a2.24,2.24,0,0,0,1-.27l.38.59a2.79,2.79,0,0,1-1.65.55,1.67,1.67,0,0,1-1.31-.53,2.14,2.14,0,0,1-.46-1.47v-4.58h-1.11v-.88h1.12v-1.58l1.06-.55v2.13h2.22v.88Z"/><path class="cls-48" d="M144.39,251.05v7.27h-.84l-.09-.84-.05,0a3.18,3.18,0,0,1-2.37,1,2.25,2.25,0,0,1-1.84-.83,3.5,3.5,0,0,1-.67-2.28v-4.35h1.07v4.16c0,1.57.59,2.35,1.76,2.35a2.51,2.51,0,0,0,1.1-.27,2.27,2.27,0,0,0,.87-.7v-5.54Z"/><path class="cls-48" d="M151.54,258.32h-.82v-9.75l1.07-.57v3.8a2.54,2.54,0,0,1,2.1-.94,3,3,0,0,1,2.56,1.18,4,4,0,0,1,.78,2.5,4.07,4.07,0,0,1-1.13,3.07,3.09,3.09,0,0,1-2.26.9,2.58,2.58,0,0,1-2.16-1Zm.25-5.32v3.48a1.75,1.75,0,0,0,.75.83,2.26,2.26,0,0,0,1.17.32,2.12,2.12,0,0,0,1.71-.81,3.82,3.82,0,0,0-.07-4.39,2.07,2.07,0,0,0-1.6-.69,2.12,2.12,0,0,0-1.18.36A2,2,0,0,0,151.79,253Z"/><path class="cls-48" d="M165.1,251.05v7.27h-.83l-.09-.84-.05,0a3.18,3.18,0,0,1-2.37,1,2.25,2.25,0,0,1-1.84-.83,3.5,3.5,0,0,1-.67-2.28v-4.35h1.07v4.16c0,1.57.59,2.35,1.76,2.35a2.51,2.51,0,0,0,1.1-.27,2.27,2.27,0,0,0,.87-.7v-5.54Zm-1.39-3.21-1.36,1.79h-.67l.87-1.79Z"/><path class="cls-48" d="M171.6,252.14a3.67,3.67,0,0,0-1.74-.42,1.63,1.63,0,0,0-1,.28.92.92,0,0,0-.36.76,1,1,0,0,0,.33.8,3.64,3.64,0,0,0,1.25.55,4.61,4.61,0,0,1,1.83.89,2.07,2.07,0,0,1-.2,2.92,2.82,2.82,0,0,1-1.84.59,4.24,4.24,0,0,1-2.56-.8l.16-.27a2.32,2.32,0,0,1,.2-.32,4,4,0,0,0,2,.51c1.12,0,1.67-.42,1.67-1.27a1,1,0,0,0-.35-.8,3.93,3.93,0,0,0-1.34-.54c-1.52-.43-2.27-1.17-2.27-2.22a1.74,1.74,0,0,1,.66-1.4,2.61,2.61,0,0,1,1.71-.54,3.71,3.71,0,0,1,2.2.69Z"/><path class="cls-48" d="M179.73,251.05h.82v10.23h-1.06v-3.73a3.16,3.16,0,0,1-4.74-.23,3.94,3.94,0,0,1-.8-2.52,4,4,0,0,1,1.14-3,3.08,3.08,0,0,1,2.25-.9,2.64,2.64,0,0,1,2.21.93Zm-.24,5.3v-3.43a1.89,1.89,0,0,0-.79-.85,2.2,2.2,0,0,0-1.18-.35,2.15,2.15,0,0,0-1.74.83,3.83,3.83,0,0,0,.08,4.41,2,2,0,0,0,1.55.67,2.38,2.38,0,0,0,1.25-.36A2,2,0,0,0,179.49,256.35Z"/><path class="cls-48" d="M188.9,251.05v7.27h-.84l-.09-.84-.05,0a3.18,3.18,0,0,1-2.37,1,2.25,2.25,0,0,1-1.84-.83,3.5,3.5,0,0,1-.67-2.28v-4.35h1.07v4.16c0,1.57.59,2.35,1.76,2.35a2.51,2.51,0,0,0,1.1-.27,2.27,2.27,0,0,0,.87-.7v-5.54Z"/><path class="cls-48" d="M197.3,255.05h-5.19a2.64,2.64,0,0,0,.81,1.87,2.7,2.7,0,0,0,1.93.71,3.62,3.62,0,0,0,1.93-.59l.37.64a4,4,0,0,1-2.54.83,3.51,3.51,0,0,1-2.75-1.14,3.76,3.76,0,0,1-1-2.65,4.15,4.15,0,0,1,1-2.84,2.91,2.91,0,0,1,2.26-1,2.77,2.77,0,0,1,2.46,1.31,4.58,4.58,0,0,1,.66,2.53Zm-5.2-.86h4.09a3.06,3.06,0,0,0-.57-1.83,1.73,1.73,0,0,0-1.43-.65,1.84,1.84,0,0,0-1.45.69A2.89,2.89,0,0,0,192.1,254.19Z"/><path class="cls-48" d="M204.54,258.32l-.17-.77a2.69,2.69,0,0,1-2.23,1,3,3,0,0,1-2.51-1.19,4.53,4.53,0,0,1,.32-5.55,3.13,3.13,0,0,1,2.29-.91,2.62,2.62,0,0,1,2,.85V248.6l1.05-.59v10.31Zm-.25-1.94v-3.47a1.87,1.87,0,0,0-.75-.84,2.15,2.15,0,0,0-1.16-.35,2.11,2.11,0,0,0-1.72.83,3.23,3.23,0,0,0-.68,2.12,3.32,3.32,0,0,0,.74,2.29,2.2,2.2,0,0,0,3.57-.58Z"/><path class="cls-48" d="M213.17,258.32h-.8l-.16-.79a3.31,3.31,0,0,1-2.44,1,2.49,2.49,0,0,1-1.76-.62,2.17,2.17,0,0,1-.65-1.64q0-2.49,3.65-2.49h1.1v-.1a1.66,1.66,0,0,0-1.85-1.9,3.42,3.42,0,0,0-2,.7l-.35-.59a3.86,3.86,0,0,1,2.69-1,2.43,2.43,0,0,1,1.94.78,3.44,3.44,0,0,1,.67,2.26Zm-1.06-3.78h-1c-1.74,0-2.62.54-2.62,1.62a1.46,1.46,0,0,0,.41,1.08,1.58,1.58,0,0,0,1.14.39,2.63,2.63,0,0,0,1.24-.32,1.84,1.84,0,0,0,.81-.8Z"/></g></g></g></svg>