<?xml version="1.0" encoding="utf-8"?>
<!-- Generator: Adobe Illustrator 24.3.0, SVG Export Plug-In . SVG Version: 6.00 Build 0)  -->
<svg version="1.1" id="Capa_1" xmlns="http://www.w3.org/2000/svg" xmlns:xlink="http://www.w3.org/1999/xlink" x="0px" y="0px"
	 viewBox="0 0 80.6 65" style="enable-background:new 0 0 80.6 65;" xml:space="preserve">
<style type="text/css">
	.st0{fill:#1E4A93;}
	.st1{clip-path:url(#SVGID_2_);}
	.st2{fill:#F2A742;}
	.st3{fill:#038D71;}
	.st4{fill:#FFFFFF;}
	.st5{fill:#1A2E35;}
	.st6{fill:#EB6654;}
	.st7{fill:#DEE3FC;}
	.st8{fill:#F0F4FF;}
	.st9{fill:#3595E0;}
	.st10{fill:#FACE33;}
	.st11{fill:#455A64;}
	.st12{fill:#495AD6;}
</style>
<path class="st0" d="M4,0h72.6c2.2,0,4,1.8,4,4v57c0,2.2-1.8,4-4,4H4c-2.2,0-4-1.8-4-4V4C0,1.8,1.8,0,4,0z"/>
<g>
	<defs>
		<path id="SVGID_1_" d="M8.6,4.1h63.5c1.9,0,3.5,1.6,3.5,3.5v49.8c0,1.9-1.6,3.5-3.5,3.5H8.6c-1.9,0-3.5-1.6-3.5-3.5V7.6
			C5.1,5.6,6.6,4.1,8.6,4.1z"/>
	</defs>
	<clipPath id="SVGID_2_">
		<use xlink:href="#SVGID_1_"  style="overflow:visible;"/>
	</clipPath>
	<g class="st1">
		<path class="st2" d="M30.1,103.1c-3.9-7.7,3-13.6,10.8-17.5s9.6,0.8,13.5,8.5s6.5,13-1.2,16.9C45.4,115,34,110.8,30.1,103.1z"/>
		<path class="st3" d="M46.7,88.6h14.7c0.5,0,0.9,0.4,0.9,0.9v6.2c0,0.5-0.4,0.9-0.9,0.9H46.7c-0.5,0-0.9-0.4-0.9-0.9v-6.2
			C45.8,89,46.2,88.6,46.7,88.6z"/>
		<path class="st4" d="M49.3,90.4L49.3,90.4c1.5,0,2.8,1.2,2.8,2.8v0c0,1.5-1.2,2.8-2.8,2.8h0c-1.5,0-2.8-1.2-2.8-2.8v0
			C46.5,91.7,47.8,90.4,49.3,90.4z"/>
		<path class="st5" d="M56.6,91.2h-3.8c-0.1,0-0.2-0.1-0.2-0.2c0,0,0,0,0,0l0,0c0-0.1,0.1-0.2,0.2-0.2h3.8c0.1,0,0.2,0.1,0.2,0.2
			l0,0C56.8,91.1,56.7,91.2,56.6,91.2z"/>
		<path class="st5" d="M54.8,91.9h-2.1c-0.1,0-0.2-0.1-0.2-0.2l0,0c0-0.1,0.1-0.2,0.2-0.2h2.1c0.1,0,0.2,0.1,0.2,0.2c0,0,0,0,0,0
			l0,0C55,91.8,54.9,91.9,54.8,91.9C54.8,91.9,54.8,91.9,54.8,91.9z"/>
		<path class="st5" d="M61.2,91.9h-5.6c-0.1,0-0.2-0.1-0.2-0.2c0,0,0,0,0,0l0,0c0-0.1,0.1-0.2,0.2-0.2c0,0,0,0,0,0h5.6
			c0.1,0,0.2,0.1,0.2,0.2c0,0,0,0,0,0l0,0C61.4,91.8,61.3,91.9,61.2,91.9C61.2,91.9,61.2,91.9,61.2,91.9z"/>
		<path class="st5" d="M56,92.7h-3.2c-0.1,0-0.2-0.1-0.2-0.2l0,0c0-0.1,0.1-0.2,0.2-0.2H56c0.1,0,0.2,0.1,0.2,0.2l0,0
			C56.2,92.6,56.1,92.6,56,92.7z"/>
		<path class="st5" d="M58.7,92.7h-2c-0.1,0-0.2-0.1-0.2-0.2l0,0c0-0.1,0.1-0.2,0.2-0.2h2c0.1,0,0.2,0.1,0.2,0.2l0,0
			C58.9,92.6,58.8,92.6,58.7,92.7z"/>
		<path class="st5" d="M61.2,92.7h-1.8c-0.1,0-0.2-0.1-0.2-0.2c0,0,0,0,0,0l0,0c0-0.1,0.1-0.2,0.2-0.2c0,0,0,0,0,0h1.8
			c0.1,0,0.2,0.1,0.2,0.2c0,0,0,0,0,0l0,0C61.4,92.6,61.3,92.7,61.2,92.7C61.2,92.7,61.2,92.7,61.2,92.7z"/>
		<path class="st5" d="M61.2,93.4h-8.4c-0.1,0-0.2-0.1-0.2-0.2l0,0c0-0.1,0.1-0.2,0.2-0.2c0,0,0,0,0,0h8.4c0.1,0,0.2,0.1,0.2,0.2
			c0,0,0,0,0,0l0,0C61.4,93.3,61.3,93.4,61.2,93.4C61.2,93.4,61.2,93.4,61.2,93.4z"/>
		<path class="st5" d="M57.4,94.1h-4.7c-0.1,0-0.2-0.1-0.2-0.2l0,0c0-0.1,0.1-0.2,0.2-0.2c0,0,0,0,0,0h4.7c0.1,0,0.2,0.1,0.2,0.2
			c0,0,0,0,0,0l0,0C57.6,94.1,57.5,94.1,57.4,94.1L57.4,94.1z"/>
		<path class="st5" d="M61.2,94.1h-3c-0.1,0-0.2-0.1-0.2-0.2c0,0,0,0,0,0l0,0c0-0.1,0.1-0.2,0.2-0.2c0,0,0,0,0,0h3
			c0.1,0,0.2,0.1,0.2,0.2c0,0,0,0,0,0l0,0C61.4,94.1,61.3,94.1,61.2,94.1C61.2,94.1,61.2,94.1,61.2,94.1z"/>
		<path class="st5" d="M55.5,94.9h-2.7c-0.1,0-0.2-0.1-0.2-0.2c0,0,0,0,0,0l0,0c0-0.1,0.1-0.2,0.2-0.2h2.7c0.1,0,0.2,0.1,0.2,0.2
			l0,0C55.7,94.8,55.6,94.9,55.5,94.9C55.5,94.9,55.5,94.9,55.5,94.9z"/>
		<path class="st5" d="M59,94.9h-2.7c-0.1,0-0.2-0.1-0.2-0.2c0,0,0,0,0,0l0,0c0-0.1,0.1-0.2,0.2-0.2H59c0.1,0,0.2,0.1,0.2,0.2l0,0
			C59.2,94.8,59.1,94.9,59,94.9C59,94.9,59,94.9,59,94.9z"/>
		<path class="st5" d="M61.2,94.9h-1.6c-0.1,0-0.2-0.1-0.2-0.2c0,0,0,0,0,0l0,0c0-0.1,0.1-0.2,0.2-0.2c0,0,0,0,0,0h1.6
			c0.1,0,0.2,0.1,0.2,0.2c0,0,0,0,0,0l0,0C61.4,94.8,61.3,94.9,61.2,94.9C61.2,94.9,61.2,94.9,61.2,94.9z"/>
		<path class="st5" d="M56.6,95.6h-3.8c-0.1,0-0.2-0.1-0.2-0.2c0,0,0,0,0,0l0,0c0-0.1,0.1-0.2,0.2-0.2h3.8c0.1,0,0.2,0.1,0.2,0.2
			l0,0C56.8,95.6,56.7,95.6,56.6,95.6z"/>
		<path class="st5" d="M61.2,91.2h-3.8c-0.1,0-0.2-0.1-0.2-0.2c0,0,0,0,0,0l0,0c0-0.1,0.1-0.2,0.2-0.2c0,0,0,0,0,0h3.8
			c0.1,0,0.2,0.1,0.2,0.2c0,0,0,0,0,0l0,0C61.4,91.1,61.3,91.1,61.2,91.2C61.2,91.2,61.2,91.2,61.2,91.2z"/>
		<path class="st6" d="M62.2,89.5v0.3H45.8v-0.3c0-0.5,0.4-0.9,0.9-0.9h14.7C61.8,88.6,62.2,89,62.2,89.5z"/>
		<circle class="st7" cx="58.9" cy="89.2" r="0.2"/>
		<circle class="st7" cx="59.9" cy="89.2" r="0.2"/>
		<circle class="st7" cx="61" cy="89.2" r="0.2"/>
		<path class="st6" d="M27.3,90.3h11.8c0.5,0,0.8,0.4,0.8,0.8v8.3c0,0.5-0.4,0.8-0.8,0.8H27.3c-0.5,0-0.8-0.4-0.8-0.8v-8.3
			C26.5,90.7,26.8,90.3,27.3,90.3z"/>
		<circle class="st8" cx="37.2" cy="93" r="1.9"/>
		<path class="st4" d="M34.4,100.3h-7.1c-0.5,0-0.8-0.4-0.8-0.8v-1.3l3.1-5.4c0.1-0.2,0.4-0.3,0.6-0.2c0.1,0,0.1,0.1,0.2,0.2
			l2.3,4.1l1.8,3C34.5,100,34.5,100.2,34.4,100.3z"/>
		<path class="st9" d="M37.4,100.3h-6.8l2-3.4l1.1-1.9c0.1-0.2,0.3-0.2,0.5-0.1c0.1,0,0.1,0.1,0.1,0.1L37.4,100.3z"/>
		<path class="st5" d="M38.8,100.2c0.6,0.3,0.8,1.5,2.8,1.4c0.3,0,0.5-0.1,0.8,0c0.4,0.2,0.7,0.4,1,0.7c0.3,0.2,0.6,0.3,0.9,0.4
			c0.6,0.1,1.3-0.1,1.8-0.4c0.3-0.2,0.6-0.5,0.9-0.7s2.3-0.7,2.6-1.8c0.3-0.9,0-1.9-0.7-2.5c-0.2-0.2-0.3-0.4-0.4-0.7
			c0-0.2,0-0.4,0.2-0.7c0.1-0.2,0.2-0.5,0.1-0.8c-0.1-0.2-0.2-0.5-0.4-0.6c-0.3-0.4-0.2-0.9,0-1.6c0.2-0.6,0.1-1.2-0.2-1.7
			c-0.2-0.3-0.4-0.5-0.7-0.8c-0.3-0.3-0.5-0.7-0.6-1.2c-0.2-0.7-0.7-1.4-1.4-1.7c-0.5-0.3-0.5-0.2-1.1-0.1c-0.6-0.3-1.2-0.5-1.9-0.4
			C42,87.3,41.4,87.6,41,88c-0.5,0.3-0.8,0.8-0.8,1.3c0,0.3,0.1,0.7,0,1c0,0.4-0.2,0.8-0.5,1c-0.4,0.4-0.7,0.9-0.8,1.4
			c-0.1,0.5,0.4,1.2-0.2,1.9c-0.6,0.6-1.1,1.3-1.5,2.1c-0.5,1.4,0.1,2.9,1.5,3.4C38.7,100.1,38.7,100.2,38.8,100.2z"/>
		<path class="st5" d="M50.2,100.2L50.2,100.2c0.2-0.6,0.1-1.2-0.1-1.7c-0.2-0.4-0.4-0.7-0.5-1.1c0-0.1,0-0.1-0.1-0.2
			c0.2,0.3,0.5,0.5,0.7,0.8c0.5,0.6,0.5,1.4,0.2,2C50.3,100,50.3,100.1,50.2,100.2z"/>
		<path class="st5" d="M37.4,98.9L37.4,98.9c-0.3-0.6-0.3-1.4,0-2c-0.2,0.9,0.1,1.9,0.9,2.5l0,0c-0.8-0.6-1.1-1.7-0.8-2.7
			c0.2-0.3,0.4-0.6,0.7-0.9c0.5-0.4,0.9-0.9,1.2-1.4c-0.1,0.3-0.2,0.6-0.5,0.8l0,0c0.3-0.2,0.5-0.5,0.6-0.8c0-0.1,0-0.1,0-0.2
			c0.1-0.2,0.1-0.4,0.2-0.6l0,0c0,0.2-0.1,0.3-0.1,0.5c0-0.3-0.1-0.6-0.2-0.9c-0.2-0.7,0.2-1.4,0.8-1.7l0.1-0.1
			c0.3-0.1,0.5-0.4,0.7-0.6l0.1-0.1l0,0l-0.1,0.1c0-0.1,0.1-0.1,0.1-0.2l0,0c-0.1,0.1-0.1,0.3-0.2,0.4l-0.6,0.5
			c-0.5,0.2-0.8,0.5-1,1c-0.1,0.5-0.1,1,0,1.4c0.1,0.7-0.2,1.3-0.9,1.6l0,0h0.2c-0.4,0.3-0.7,0.7-0.9,1.2C37,97.3,37,98.2,37.4,98.9
			z M39.1,94.8L38.8,95c0.1-0.1,0.2-0.3,0.2-0.4c0.1-0.5,0.1-1.1,0-1.6c0-0.5,0.2-0.9,0.5-1.2c-0.1,0.2-0.3,0.4-0.3,0.6
			c-0.1,0.4,0,0.8,0.1,1.1c0.1,0.2,0.1,0.5,0.1,0.7C39.4,94.4,39.2,94.6,39.1,94.8L39.1,94.8z M37.7,96.3c0.2-0.4,0.5-0.8,0.9-1.1
			l0.1-0.1l0.3-0.3C38.6,95.4,38.1,95.8,37.7,96.3z"/>
		<path class="st5" d="M38.7,99.5L38.7,99.5C38.7,99.5,38.7,99.5,38.7,99.5z"/>
		<path class="st9" d="M45.2,97.5c4.2,3.7,8,7.7,8.3,9.8c0.4,2.9-1.3,3.7-2.1,3.7c-2.2,0-6.2-8.7-7.6-12S44.3,96.7,45.2,97.5z"/>
		<path class="st9" d="M47.8,107.4l-0.3-2c0,0,1.5-1.5,0.7-3.1c-0.4-0.8-2.9-4.7-4.3-5.6c-1.1-0.7-2.6-0.4-3.3,0.7
			c0,0-0.1,0.1-0.1,0.1c-1.4,2.5-2.8,5.4-3.6,11.5h9.6c0.8,0,1.4-0.6,1.4-1.4C47.8,107.6,47.8,107.5,47.8,107.4z"/>
		<path class="st5" d="M45.8,104.9c-0.6,0.1-1.2,0.2-1.7,0.3c-0.3,0.1-0.5,0.2-0.8,0.3l-0.4,0.1c-0.1,0.1-0.3,0.1-0.5,0.1l0,0
			c0.1,0,0.3,0,0.4,0c0.1,0,0.3,0,0.4-0.1c0.3-0.1,0.6-0.2,0.9-0.2C44.6,105.2,45.2,105.1,45.8,104.9
			C45.8,104.9,45.8,104.9,45.8,104.9z"/>
		<path class="st5" d="M47.2,105.4c-0.5,0-1,0-1.5,0c-0.2,0-0.5,0-0.7,0.1h-0.3l-0.4,0.1l0,0c0.1,0,0.2,0,0.4,0h0.4h0.7
			C46.3,105.5,46.8,105.5,47.2,105.4C47.3,105.4,47.3,105.4,47.2,105.4z"/>
		<path class="st9" d="M40.4,97.1c-3.9,3-7.7,8.3-7.7,11.2s1,2.6,1.3,2.6c1.8-0.1,5.9-8.2,7.1-11.5S41.3,96.4,40.4,97.1z"/>
		<path class="st5" d="M36.2,108.7l0.6-1.1l0.6-1.1c0.4-0.7,0.8-1.5,1.2-2.2s0.8-1.5,1.2-2.2c0.2-0.4,0.4-0.7,0.6-1.1
			s0.4-0.8,0.5-1.1c-0.3,0.8-0.6,1.6-1,2.3c-0.4,0.8-0.8,1.5-1.1,2.2s-0.8,1.5-1.2,2.2S36.7,108,36.2,108.7z"/>
		<path class="st5" d="M40.5,100.8c0.1-0.1,0.1-0.3,0.2-0.4l0.1-0.2c0-0.1,0.1-0.1,0.1-0.2c0,0.1-0.1,0.3-0.2,0.4
			C40.8,100.6,40.6,100.7,40.5,100.8z"/>
		<path class="st10" d="M52.4,103c-0.2-1.4-0.6-3.3-1.1-3.7c-0.9-0.7-1.9-1.4-2.9-2c-0.5-0.2-2.9-1.1-3.4-0.8s0.1,1.1,1.2,1.6
			c0.6,0.3,1.2,0.5,1.8,0.9c0.3,0.1,1,1.1,0.8,1.5c-0.3,0.4-0.8,0.5-1.3,0.3c-0.4-0.2-0.6-1.1-1.1-1.5S45,99,45,99.2
			s0.2,0.4,0.7,1.2c0.3,0.5,0.3,1.8,1,2.7c0.4,0.5,0.7,1.1,1,1.7L52.4,103z"/>
		<path class="st5" d="M46,99c-0.2,0-0.3-0.1-0.5-0.2c-0.1,0-0.1-0.1-0.1-0.2c0,0,0-0.1,0-0.1c0,0,0-0.1,0-0.1l0,0v0.1l0,0
			c0,0,0,0.1,0,0.1c0,0.1,0,0.2,0.1,0.2C45.6,98.9,45.8,99,46,99C46,98.9,46,99,46,99z"/>
		<path class="st10" d="M51.3,99.3c-0.7-1-1.6-1.8-2.7-2.3c-0.8-0.3-3.3,1-3.2,1.5s0.5,0.5,1.2,0.4c0.2,0,1.5-0.5,1.7-0.2
			c0.3,0.5,0.5,1.1,0.7,1.7L51.3,99.3z"/>
		<path class="st5" d="M45.5,98.3c0.4-0.5,1-0.9,1.7-1l0,0C46.5,97.6,46,97.9,45.5,98.3C45.5,98.3,45.4,98.3,45.5,98.3z"/>
		<path class="st10" d="M51.3,99.3c-0.7-1-1.6-1.8-2.7-2.3c-0.8-0.3-2.8,1.3-2.7,1.8s0.7,0.5,1.4,0.3c0.2-0.1,1-0.6,1.2-0.4
			s1.1,1.3,1.1,1.3L51.3,99.3z"/>
		<path class="st5" d="M49.1,99.5c-0.1-0.1-0.1-0.2-0.2-0.2l-0.2-0.3c-0.1-0.1-0.1-0.2-0.2-0.2c-0.1,0-0.2,0-0.3,0
			c-0.2,0.1-0.5,0.2-0.7,0.3c-0.3,0.2-0.7,0.3-1.1,0.3c-0.1,0-0.2,0-0.3-0.1c-0.1,0-0.1-0.1-0.2-0.1c-0.2-0.3,0-0.6,0.2-0.8
			c0.4-0.4,0.8-0.7,1.3-0.9l0.4-0.2c0.1-0.1,0.3-0.1,0.4-0.1c0.3,0.1,0.6,0.2,0.8,0.3l0,0c-0.3-0.2-0.6-0.4-1-0.4
			c-0.1,0-0.3,0.1-0.4,0.2l-0.4,0.2c-0.3,0.1-0.5,0.3-0.8,0.5c-0.2,0.2-0.5,0.4-0.6,0.6c-0.1,0.2-0.1,0.5,0,0.7
			c0.1,0.1,0.3,0.2,0.5,0.2c0.1,0,0.2,0,0.3,0c0.2-0.1,0.5-0.1,0.7-0.2c0.2-0.1,0.4-0.2,0.6-0.3c0.1,0,0.2,0,0.3,0
			c0.1,0.1,0.2,0.1,0.2,0.2C48.8,99.2,49,99.3,49.1,99.5C49.1,99.5,49.2,99.6,49.1,99.5z"/>
		<path class="st10" d="M51.6,99.9c-0.2-0.3-0.4-1.7-0.7-2.1s-1.5-1.8-2-1.7s0,1.3,0.4,1.8c0.2,0.4,0.3,0.9,0.3,1.4L51.6,99.9z"/>
		<path class="st5" d="M48.8,97.1c0.1,0.2,0.2,0.3,0.4,0.5c0.1,0.2,0.2,0.3,0.3,0.5c0.1,0.2,0.1,0.4,0.1,0.6c0,0.1,0,0.2,0,0.3
			c0,0.1,0,0.2,0,0.3s0,0,0,0c0-0.2,0-0.4-0.1-0.6c0-0.2-0.1-0.4-0.2-0.6C49.2,97.8,48.9,97.5,48.8,97.1
			C48.8,97.1,48.8,97.1,48.8,97.1z"/>
		<path class="st5" d="M49.6,99.5c0,0.3,0,0.7-0.2,1c-0.1,0.2-0.1,0.3-0.2,0.4l-0.3,0.4c-0.2,0.2-0.4,0.5-0.5,0.8
			c-0.1,0.3-0.2,0.6-0.2,0.9c0-0.3,0-0.7,0.1-1c0.1-0.3,0.3-0.6,0.5-0.9c0.2-0.2,0.4-0.5,0.5-0.8C49.4,100.1,49.5,99.8,49.6,99.5z"
			/>
		<path class="st10" d="M51.3,110.9c-1.3-0.2-2.2-2.4-3.8-6.4c-0.3-0.7,3.2-5,3.7-4.3c1.1,2.1,1.9,4.2,2.4,6.5
			C54,109,52.9,111.1,51.3,110.9z"/>
		<path class="st9" d="M48.3,106.7l4.3-4.2c0,0,1.2,3.6,1.1,5.2s-0.6,3.3-2.5,3.4C49.9,111,48.3,106.7,48.3,106.7z"/>
		<path class="st5" d="M49.7,109.6c-0.2-0.2-0.3-0.5-0.4-0.7c-0.1-0.2-0.3-0.5-0.4-0.7s-0.2-0.5-0.3-0.8c-0.1-0.2-0.2-0.5-0.3-0.8
			l0.4,0.7l0.4,0.7c0.1,0.2,0.2,0.5,0.3,0.7S49.6,109.3,49.7,109.6z"/>
		<path class="st5" d="M49.3,107.4c0.2-0.2,0.4-0.4,0.7-0.7l0.7-0.7l1.4-1.3l0.4-0.3l0.4-0.3l0,0l-0.3,0.3c-0.1,0.1-0.2,0.2-0.3,0.3
			l-0.7,0.6l-1.4,1.3C49.8,107,49.6,107.2,49.3,107.4C49.3,107.5,49.3,107.4,49.3,107.4z"/>
		<path class="st10" d="M41.3,96.7c0.3,0.8,0.6,1.5,1,2.2c0.8,0.2,1.7,0.2,2.5-0.1c-0.3-0.7-0.6-1.4-0.9-2c-0.5-0.2-1-0.4-1.5-0.4
			C42,96.4,41.6,96.5,41.3,96.7z"/>
		<path class="st10" d="M41.5,96.8c0,0.2,1,1.8,2.2,1.7c0.7,0,0.2-1.4,0.2-1.4l0.6-1.9l-2.3-1.8C42.2,93.3,41.5,96.7,41.5,96.8z"/>
		<path class="st5" d="M41.9,94.6c0.3,1,1.1,1.9,2.1,2.3l0.5-1.8l-2.3-1.8C42.2,93.3,42.1,93.9,41.9,94.6z"/>
		<path class="st10" d="M47.2,92.4c0.1,3.3-1.9,3.7-2.6,3.7s-2.8,0-3.3-3.3s1.1-4.4,2.6-4.5S47.2,89.1,47.2,92.4z"/>
		<path class="st5" d="M41.3,92.9c0.4,0,1.4-0.9,1.5-2.7c-0.1,0.6-0.2,1.2-0.3,1.8c0.4-0.6,0.7-1.3,0.7-2c0.4,0.3,0.9,0.6,1.4,0.8
			c0.4,0.2,0.7,0.2,1.1,0.2c0-0.1-0.9-0.4-1.2-0.7c0.8,0.4,1.7,0.8,2.6,1c0.2-1-0.2-2.1-0.9-2.8c-1.2-0.9-3.3-0.1-3.9,0.4
			c-0.6,0.1-1.1,0.5-1.4,1C40.2,90.8,41,92.9,41.3,92.9z"/>
		<path class="st10" d="M41.9,92.8c0,0-0.7-1.1-1.1-0.8s0,1.8,0.5,2c0.3,0.1,0.6,0,0.8-0.2c0,0,0,0,0,0L41.9,92.8z"/>
		<path class="st5" d="M40.9,92.4L40.9,92.4c0.3,0.2,0.6,0.5,0.7,0.9c-0.1-0.1-0.3-0.2-0.4-0.1c0,0,0,0,0,0l0,0c0.1,0,0.3,0,0.4,0.1
			c0.1,0.1,0.1,0.2,0.2,0.3c0,0,0.1,0,0.1,0l0,0C41.8,93.2,41.5,92.5,40.9,92.4z"/>
		<path class="st5" d="M44.8,98.3L43,104c-0.1,0.2,0,0.3,0.2,0.3l3,0.2c0.2,0,0.4-0.1,0.4-0.3l1.8-5.7c0.1-0.2,0-0.3-0.2-0.3l-3-0.2
			C45,98.1,44.9,98.2,44.8,98.3z"/>
		<path class="st11" d="M45.2,98.4l-1.8,5.7c-0.1,0.2,0,0.3,0.2,0.3l3,0.2c0.2,0,0.4-0.1,0.4-0.3l1.8-5.7c0.1-0.2,0-0.3-0.2-0.3
			l-3-0.2C45.4,98.1,45.2,98.2,45.2,98.4z"/>
		<path class="st5" d="M46,98.7c0,0.1-0.1,0.3-0.3,0.2s-0.3-0.1-0.2-0.3c0-0.1,0.1-0.3,0.3-0.2c0,0,0,0,0,0
			C45.9,98.4,46,98.6,46,98.7C46,98.7,46,98.7,46,98.7z"/>
		<path class="st10" d="M33.5,111c1.3,0.2,2.9-0.8,7.1-3.9c0.6-0.4-1.3-5.3-2-4.9c-0.8,0.5-3.8,2.8-4,2.9
			C32.9,106.8,32.6,110.9,33.5,111z"/>
		<path class="st10" d="M37.2,103.7c0.6-0.9,1.3-1.7,2.1-2.4c1-0.7,2.1-1.1,3.2-1.3c1.3-0.2,4.4,0.2,4.5,1.2s-3.2,0.2-3.2,0.2
			s3.4,0.1,3.2,1.1s-3.8,0.1-3.8,0.1s3.5,0.1,3.2,1.2c-0.2,0.8-3.6,0.2-3.6,0.2s3,0.1,2.8,1s-3.4,0.5-3.4,0.5
			c-0.5,1.4-1.7,2.4-3.1,2.8C38.8,108.3,37.2,103.7,37.2,103.7z"/>
		<path class="st5" d="M42.6,101.3c0.8,0,1.6,0,2.4,0.2c0.5,0.1,1,0.2,1.5,0.4c-0.9-0.2-1.8-0.4-2.7-0.4L42.6,101.3
			C42.6,101.3,42.6,101.3,42.6,101.3z"/>
		<path class="st5" d="M42.5,102.8c0.5,0,1,0,1.5,0s1,0.1,1.5,0.2l0,0c-0.5,0-1-0.1-1.5-0.1S43,102.7,42.5,102.8
			C42.5,102.8,42.5,102.8,42.5,102.8z"/>
		<path class="st5" d="M42.2,104c0.8,0,1.6,0.1,2.3,0.2l0,0C43.7,104.1,43.1,104,42.2,104C42.1,104,42.1,104,42.2,104z"/>
		<path class="st9" d="M37.2,103l1.7,6c0,0-4.4,2.6-5.4,1.9s-0.3-4.2,0.8-5.5C35.1,104.6,36.1,103.8,37.2,103z"/>
		<path class="st5" d="M37.2,103.2l-0.1-0.2l0,0l-1.3,1c-0.4,0.3-0.8,0.7-1.2,1.1c-0.2,0.2-0.4,0.4-0.6,0.6
			c-0.2,0.2-0.3,0.4-0.4,0.7c-0.3,0.5-0.4,1-0.5,1.5c0-0.5,0.2-1.1,0.4-1.6c0.1-0.2,0.3-0.5,0.5-0.7c0.2-0.2,0.4-0.4,0.6-0.6
			c0.4-0.4,0.8-0.7,1.2-1s0.9-0.7,1.3-1l0,0L37.2,103.2z"/>
		<path class="st5" d="M36.2,104.5c0.1,0.3,0.2,0.6,0.3,0.9l0.2,0.9l0.5,1.8c0,0.2,0.1,0.3,0.1,0.5s0.1,0.4,0.1,0.5l0,0
			c0-0.2-0.1-0.3-0.1-0.4s-0.1-0.3-0.1-0.5l-0.2-0.9c-0.2-0.6-0.3-1.2-0.4-1.8C36.3,105.2,36.3,104.8,36.2,104.5
			C36.2,104.5,36.2,104.5,36.2,104.5z"/>
		<path class="st5" d="M38.8,109C38.8,109.1,38.8,109,38.8,109c0-0.2-0.1-0.3-0.1-0.5l0,0C38.7,108.7,38.8,108.9,38.8,109z"/>
		<path class="st4" d="M61.1,99.2h-9.8c-0.6,0-1-0.4-1-1l0,0c0-0.6,0.4-1,1-1h9.8c0.6,0,1,0.4,1,1l0,0
			C62.1,98.8,61.6,99.2,61.1,99.2z"/>
		<path class="st12" d="M61.1,99.3h-9.8c-0.6,0-1.1-0.5-1.1-1.1c0-0.6,0.5-1.1,1.1-1.1c0,0,0,0,0,0h9.8c0.6,0,1.1,0.5,1.1,1.1
			C62.2,98.8,61.7,99.3,61.1,99.3C61.1,99.3,61.1,99.3,61.1,99.3z M51.3,97.3c-0.5,0-0.9,0.4-0.9,0.9c0,0.5,0.4,0.9,0.9,0.9
			c0,0,0,0,0,0h9.8c0.5,0,0.9-0.4,0.9-0.9c0-0.5-0.4-0.9-0.9-0.9c0,0,0,0,0,0H51.3z"/>
		<path class="st12" d="M60.4,98.8c-0.4,0-0.7-0.3-0.7-0.7c0-0.4,0.3-0.7,0.7-0.7c0.4,0,0.7,0.3,0.7,0.7S60.8,98.8,60.4,98.8
			C60.4,98.8,60.4,98.8,60.4,98.8z M60.4,97.8c-0.2,0-0.3,0.2-0.3,0.4c0,0.2,0.2,0.3,0.3,0.3c0.2,0,0.3-0.2,0.3-0.4
			C60.7,98,60.6,97.8,60.4,97.8z"/>
		<path class="st12" d="M61.1,99c0,0-0.1,0-0.1,0l-0.3-0.3c-0.1-0.1-0.1-0.2,0-0.2c0.1-0.1,0.2-0.1,0.2,0l0.3,0.3
			c0.1,0.1,0.1,0.2,0,0.2c0,0,0,0,0,0C61.2,99,61.1,99,61.1,99z"/>
		<path class="st8" d="M37.6,89.3c-0.1,0-0.1,0-0.2-0.1l-0.7-1h-6.3c-0.6,0-1-0.4-1-1v-1.7c0-0.6,0.4-1,1-1h7.3c0.6,0,1,0.4,1,1v1.7
			c0,0.5-0.4,0.9-0.8,1v0.9C37.9,89.2,37.8,89.3,37.6,89.3L37.6,89.3z M30.4,84.8c-0.4,0-0.7,0.3-0.7,0.7l0,0v1.7
			c0,0.4,0.3,0.7,0.7,0.7l0,0h6.4c0.1,0,0.2,0,0.2,0.1l0.5,0.8v-0.6c0-0.1,0.1-0.3,0.3-0.3c0.3,0,0.6-0.3,0.6-0.7v-1.7
			c0-0.4-0.3-0.7-0.7-0.7l0,0L30.4,84.8z"/>
		<path class="st8" d="M36.9,86.7c-0.2,0-0.5-0.2-0.5-0.5c0-0.2,0.2-0.4,0.5-0.4c0.2,0,0.5,0.2,0.5,0.5l0,0
			C37.3,86.5,37.1,86.7,36.9,86.7z M36.9,86.2c-0.1,0-0.1,0-0.1,0.1s0,0.1,0.1,0.1c0.1,0,0.1,0,0.1-0.1S36.9,86.2,36.9,86.2
			L36.9,86.2z"/>
		<path class="st8" d="M35.5,86.7c-0.2,0-0.5-0.2-0.5-0.5c0-0.2,0.2-0.4,0.5-0.4c0.2,0,0.5,0.2,0.5,0.5l0,0
			C35.9,86.5,35.7,86.7,35.5,86.7z M35.5,86.2c-0.1,0-0.1,0-0.1,0.1s0,0.1,0.1,0.1c0.1,0,0.1,0,0.1-0.1S35.5,86.2,35.5,86.2
			L35.5,86.2z"/>
		<path class="st8" d="M34.1,86.7c-0.2,0-0.5-0.2-0.5-0.5c0-0.2,0.2-0.4,0.5-0.4s0.5,0.2,0.5,0.4C34.5,86.5,34.3,86.7,34.1,86.7
			L34.1,86.7z M34.1,86.2c-0.1,0-0.1,0-0.1,0.1s0,0.1,0.1,0.1s0.1,0,0.1-0.1S34.2,86.2,34.1,86.2L34.1,86.2z"/>
		<path class="st8" d="M32.6,86.7c-0.2,0-0.5-0.2-0.5-0.5c0-0.2,0.2-0.4,0.5-0.4c0.2,0,0.5,0.2,0.5,0.5l0,0
			C33.1,86.5,32.9,86.7,32.6,86.7z M32.6,86.2c-0.1,0-0.1,0-0.1,0.1s0,0.1,0.1,0.1c0.1,0,0.1,0,0.1-0.1S32.7,86.2,32.6,86.2
			L32.6,86.2z"/>
		<path class="st8" d="M31.2,86.7c-0.2,0-0.5-0.2-0.5-0.5c0-0.2,0.2-0.4,0.5-0.4c0.2,0,0.5,0.2,0.5,0.5l0,0
			C31.7,86.5,31.5,86.7,31.2,86.7z M31.2,86.2c-0.1,0-0.1,0-0.1,0.1s0,0.1,0.1,0.1c0.1,0,0.1,0,0.1-0.1S31.3,86.2,31.2,86.2
			L31.2,86.2z"/>
		<path class="st2" d="M17.4,39.4c-6.4-12.7,5-22.3,17.7-28.7s15.8,1.3,22.3,14S68,46,55.3,52.5S23.8,52.1,17.4,39.4z"/>
		<path class="st3" d="M44.7,15.5h24.2c0.8,0,1.4,0.6,1.4,1.4v10.2c0,0.8-0.6,1.4-1.4,1.4H44.7c-0.8,0-1.4-0.6-1.4-1.4V17
			C43.2,16.2,43.9,15.5,44.7,15.5z"/>
		<path class="st4" d="M47.6,18.5h2.8c1.7,0,3.2,1.4,3.2,3.2v2.8c0,1.7-1.4,3.2-3.2,3.2h-2.8c-1.7,0-3.2-1.4-3.2-3.2v-2.8
			C44.5,19.9,45.9,18.5,47.6,18.5z"/>
		<path class="st5" d="M61,19.7h-6.3c-0.2,0-0.3-0.1-0.3-0.3l0,0c0-0.2,0.1-0.3,0.3-0.3H61c0.2,0,0.3,0.1,0.3,0.3l0,0
			C61.3,19.5,61.2,19.7,61,19.7z"/>
		<path class="st5" d="M58.1,20.9h-3.4c-0.2,0-0.3-0.1-0.3-0.3l0,0c0-0.2,0.1-0.3,0.3-0.3h3.4c0.2,0,0.3,0.1,0.3,0.3l0,0
			C58.5,20.8,58.3,20.9,58.1,20.9z"/>
		<path class="st5" d="M68.6,20.9h-9.2c-0.2,0-0.3-0.1-0.3-0.3l0,0c0-0.2,0.1-0.3,0.3-0.3h9.2c0.2,0,0.3,0.1,0.3,0.3l0,0
			C68.9,20.8,68.8,20.9,68.6,20.9z"/>
		<path class="st5" d="M60,22.1h-5.3c-0.2,0-0.3-0.1-0.3-0.3l0,0c0-0.2,0.1-0.3,0.3-0.3H60c0.2,0,0.3,0.1,0.3,0.3l0,0
			C60.3,22,60.2,22.1,60,22.1z"/>
		<path class="st5" d="M64.5,22.1h-3.3c-0.2,0-0.3-0.1-0.3-0.3l0,0c0-0.2,0.1-0.3,0.3-0.3h3.3c0.2,0,0.3,0.1,0.3,0.3l0,0
			C64.8,22,64.7,22.1,64.5,22.1z"/>
		<path class="st5" d="M68.6,22.1h-3c-0.2,0-0.3-0.1-0.3-0.3l0,0c0-0.2,0.1-0.3,0.3-0.3h3c0.2,0,0.3,0.1,0.3,0.3l0,0
			C68.9,22,68.8,22.1,68.6,22.1z"/>
		<path class="st5" d="M68.6,23.3H54.7c-0.2,0-0.3-0.1-0.3-0.3l0,0c0-0.2,0.1-0.3,0.3-0.3h13.9c0.2,0,0.3,0.1,0.3,0.3l0,0
			C68.9,23.2,68.8,23.3,68.6,23.3z"/>
		<path class="st5" d="M62.4,24.6h-7.6c-0.2,0-0.3-0.1-0.3-0.3c0,0,0,0,0,0l0,0c0-0.2,0.1-0.3,0.3-0.3h7.6c0.2,0,0.3,0.1,0.3,0.3
			l0,0C62.7,24.4,62.5,24.6,62.4,24.6C62.4,24.6,62.4,24.6,62.4,24.6z"/>
		<path class="st5" d="M68.6,24.6h-5c-0.2,0-0.3-0.1-0.3-0.3c0,0,0,0,0,0l0,0c0-0.2,0.1-0.3,0.3-0.3h5c0.2,0,0.3,0.1,0.3,0.3l0,0
			C68.9,24.4,68.8,24.6,68.6,24.6C68.6,24.6,68.6,24.6,68.6,24.6z"/>
		<path class="st5" d="M59.2,25.8h-4.5c-0.2,0-0.3-0.1-0.3-0.3l0,0c0-0.2,0.1-0.3,0.3-0.3h4.5c0.2,0,0.3,0.1,0.3,0.3l0,0
			C59.5,25.7,59.4,25.8,59.2,25.8z"/>
		<path class="st5" d="M64.9,25.8h-4.5c-0.2,0-0.3-0.1-0.3-0.3c0,0,0,0,0-0.1l0,0c0-0.2,0.1-0.3,0.3-0.3h4.5c0.2,0,0.3,0.1,0.3,0.3
			l0,0C65.2,25.7,65.1,25.8,64.9,25.8z"/>
		<path class="st5" d="M68.6,25.8H66c-0.2,0-0.3-0.1-0.3-0.3c0,0,0,0,0,0l0,0c0-0.2,0.1-0.3,0.3-0.3c0,0,0,0,0,0h2.6
			c0.2,0,0.3,0.1,0.3,0.3l0,0C68.9,25.7,68.8,25.8,68.6,25.8z"/>
		<path class="st5" d="M61,27h-6.3c-0.2,0-0.3-0.1-0.3-0.3l0,0c0-0.2,0.1-0.3,0.3-0.3H61c0.2,0,0.3,0.1,0.3,0.3l0,0
			C61.3,26.9,61.2,27,61,27z"/>
		<path class="st5" d="M68.6,19.7h-6.3c-0.2,0-0.3-0.1-0.3-0.3l0,0c0-0.2,0.1-0.3,0.3-0.3h6.3c0.2,0,0.3,0.1,0.3,0.3l0,0
			C68.9,19.5,68.8,19.7,68.6,19.7z"/>
		<path class="st6" d="M70.3,17v0.4h-27V17c0-0.8,0.6-1.4,1.4-1.5h24.1C69.6,15.5,70.3,16.1,70.3,17C70.3,17,70.3,17,70.3,17z"/>
		<circle class="st7" cx="64.8" cy="16.5" r="0.3"/>
		<circle class="st7" cx="66.5" cy="16.5" r="0.3"/>
		<circle class="st7" cx="68.3" cy="16.5" r="0.3"/>
		<path class="st6" d="M12.8,18.3h19.5c0.7,0,1.3,0.6,1.3,1.3v13.7c0,0.7-0.6,1.3-1.3,1.3H12.8c-0.7,0-1.4-0.6-1.4-1.3V19.6
			C11.4,18.9,12,18.3,12.8,18.3z"/>
		<circle class="st8" cx="29.1" cy="22.6" r="3.2"/>
		<path class="st4" d="M24.5,34.7H12.8c-0.7,0-1.4-0.6-1.4-1.3v-2.2l5.1-8.9c0.2-0.3,0.6-0.4,1-0.3c0.1,0.1,0.2,0.1,0.3,0.3l3.9,6.7
			l2.9,5C24.6,34.2,24.6,34.5,24.5,34.7z"/>
		<path class="st9" d="M29.5,34.7H18.3l3.3-5.7l1.8-3.1c0.2-0.3,0.6-0.4,0.9-0.2c0.1,0.1,0.2,0.1,0.2,0.2L29.5,34.7z"/>
		<path class="st5" d="M31.7,34.5c1.1,0.5,1.3,2.5,4.6,2.4c0.5,0,0.9-0.2,1.3,0c0.6,0.3,1.2,0.7,1.7,1.1c0.5,0.3,1,0.5,1.5,0.6
			c1,0.1,2.1-0.1,3-0.7c0.5-0.3,1-0.8,1.5-1.2s3.7-1.2,4.3-3c0.4-1.5,0-3-1.1-4.1c-0.3-0.3-0.5-0.7-0.6-1.1c0-0.4,0.1-0.7,0.2-1.1
			c0.2-0.4,0.3-0.8,0.2-1.2c-0.2-0.4-0.4-0.7-0.7-1c-0.5-0.6-0.4-1.5,0-2.6c0.3-0.9,0.2-2-0.3-2.8c-0.3-0.5-0.7-0.9-1.2-1.2
			c-0.5-0.5-0.9-1.2-1-1.9c-0.3-1.2-1.2-2.2-2.3-2.8c-0.9-0.4-0.8-0.3-1.8-0.1c-0.9-0.6-2-0.8-3.1-0.7c-1,0.2-1.9,0.7-2.6,1.4
			c-0.7,0.5-1.2,1.3-1.3,2.2c0,0.6,0.1,1.1,0.1,1.7c-0.1,0.6-0.4,1.2-0.9,1.6c-0.7,0.6-1.2,1.4-1.4,2.3c-0.1,0.8,0.6,2-0.2,3.1
			s-2.1,2.2-2.5,3.4C28,32.7,30.7,34,31.7,34.5z"/>
		<path class="st5" d="M50.5,34.5L50.5,34.5c0.3-0.9,0.2-2-0.2-2.8c-0.2-0.6-0.6-1.1-0.8-1.7c0-0.1-0.1-0.2-0.1-0.3
			c0.3,0.5,0.8,0.9,1.1,1.3c0.8,0.9,0.9,2.2,0.3,3.3C50.7,34.3,50.6,34.4,50.5,34.5z"/>
		<path class="st5" d="M29.4,32.4C29.4,32.4,29.5,32.4,29.4,32.4c-0.5-1-0.5-2.3,0-3.3c-0.4,1.5,0.2,3.2,1.5,4.1c0,0,0,0,0,0
			c-1.5-0.9-1.7-2.9-1.3-4.4c0.3-0.5,0.7-1,1.1-1.5c0.8-0.7,1.4-1.5,2-2.3c-0.1,0.5-0.4,1-0.8,1.3c0,0,0,0.1,0,0
			c0.5-0.3,0.8-0.8,0.9-1.3c0-0.1,0-0.2,0-0.3c0.1-0.3,0.2-0.6,0.2-0.9l0,0c0,0.3-0.1,0.6-0.2,0.8c-0.1-0.5-0.2-1-0.3-1.4
			c-0.3-1.1,0.2-2.3,1.1-2.9l0.2-0.1c0.4-0.2,0.8-0.6,1.1-1l0.2-0.2l0,0L35,19.1c0.1-0.1,0.1-0.3,0.1-0.4l0,0
			c-0.1,0.2-0.2,0.4-0.4,0.6c-0.3,0.3-0.7,0.5-1,0.8c-0.7,0.3-1.3,0.9-1.6,1.6c-0.2,0.8-0.2,1.6,0,2.3c0.2,1.1-0.4,2.2-1.4,2.7l0,0
			c0.1-0.1,0.2-0.1,0.3-0.2c-0.7,0.5-1.2,1.2-1.4,2C28.8,29.7,28.7,31.2,29.4,32.4z M32.2,25.7L31.8,26c0.2-0.2,0.3-0.4,0.4-0.7
			c0.2-0.9,0.2-1.8,0-2.6c0-0.8,0.3-1.5,0.9-1.9c-0.3,0.3-0.4,0.6-0.5,1c-0.1,0.6-0.1,1.3,0.2,1.9c0.1,0.4,0.2,0.8,0.1,1.2
			C32.7,25.1,32.4,25.4,32.2,25.7z M29.9,28.1c0.4-0.7,0.9-1.3,1.5-1.7l0.1-0.1l0.5-0.4C31.4,26.6,30.5,27.3,29.9,28.1z"/>
		<path class="st5" d="M31.6,33.4L31.6,33.4C31.6,33.4,31.6,33.4,31.6,33.4z"/>
		<path class="st9" d="M42.3,30.1c6.9,6,13.2,12.7,13.8,16.1c0.7,4.7-2.2,6.1-3.5,6.1C49.1,52.3,42.5,38,40.1,32.6
			C37.9,27.2,40.8,28.8,42.3,30.1z"/>
		<path class="st9" d="M46.6,46.4l-0.5-3.3c0,0,2.4-2.5,1.2-5c-0.6-1.3-4.8-7.7-7.1-9.3c-1.8-1.2-4.3-0.7-5.4,1.2
			c0,0.1-0.1,0.1-0.1,0.2c-2.4,4.1-4.6,8.8-6,18.9h15.7c1.3,0,2.3-1,2.3-2.3C46.6,46.7,46.6,46.5,46.6,46.4z"/>
		<path class="st5" d="M43.2,42.3c-1,0.1-1.9,0.3-2.8,0.5c-0.5,0.1-0.9,0.3-1.4,0.4l-0.7,0.2c-0.2,0.1-0.5,0.1-0.7,0.2l0,0
			c0.2,0,0.5,0,0.7,0c0.2,0,0.5-0.1,0.7-0.1c0.5-0.1,0.9-0.3,1.4-0.4C41.4,42.8,42.3,42.6,43.2,42.3C43.3,42.4,43.3,42.3,43.2,42.3z
			"/>
		<path class="st5" d="M45.6,43.1C44.8,43,44.1,43,43.3,43c-0.4,0-0.8,0-1.2,0.1l-0.6,0.1c-0.2,0-0.4,0.1-0.6,0.1l0,0
			c0.2,0,0.4,0,0.6,0h0.6l1.2,0C44.1,43.3,44.8,43.2,45.6,43.1C45.7,43.2,45.7,43.1,45.6,43.1z"/>
		<path class="st9" d="M34.3,29.5c-6.4,5-12.7,13.7-12.7,18.5s1.6,4.3,2.1,4.3c2.9-0.2,9.7-13.5,11.8-18.9S35.9,28.3,34.3,29.5z"/>
		<path class="st5" d="M27.5,48.6c0.3-0.6,0.7-1.2,1-1.8l1-1.8c0.7-1.2,1.3-2.4,2-3.6s1.3-2.4,1.9-3.7c0.3-0.6,0.6-1.2,0.9-1.8
			s0.6-1.2,0.9-1.9c-0.5,1.3-1,2.6-1.6,3.8c-0.6,1.2-1.2,2.5-1.9,3.7s-1.3,2.4-2,3.6S28.3,47.5,27.5,48.6z"/>
		<path class="st5" d="M34.6,35.6c0.1-0.2,0.2-0.4,0.4-0.6c0.1-0.1,0.1-0.2,0.2-0.3c0.1-0.1,0.1-0.2,0.2-0.3
			c-0.1,0.2-0.2,0.5-0.3,0.7C35,35.3,34.8,35.4,34.6,35.6z"/>
		<path class="st10" d="M54.1,39.2c-0.3-2.2-1-5.4-1.8-6c-1.5-1.2-3.1-2.3-4.8-3.2c-0.9-0.3-4.8-1.8-5.6-1.3s0.1,1.8,2,2.6
			c1,0.4,2,0.9,3,1.4c0.5,0.2,1.7,1.7,1.3,2.4c-0.5,0.6-1.3,0.8-2.1,0.6c-0.7-0.3-0.9-1.8-1.8-2.5S42,32.6,41.9,33s0.4,0.6,1.2,1.9
			c0.5,0.9,0.6,3,1.7,4.5c0.6,0.9,1.1,1.8,1.5,2.8L54.1,39.2z"/>
		<path class="st5" d="M43.5,32.5c-0.3,0-0.5-0.2-0.7-0.3c-0.1-0.1-0.1-0.2-0.2-0.3c0-0.1,0-0.1,0-0.2c0-0.1,0-0.2,0.1-0.2s0,0,0,0
			l-0.1,0.1c0,0,0,0.1,0,0.1c0,0.1,0,0.1,0,0.2c0,0.1,0.1,0.3,0.2,0.4C43,32.5,43.3,32.6,43.5,32.5C43.6,32.5,43.6,32.5,43.5,32.5z"
			/>
		<path class="st10" d="M52.3,33.2c-1.1-1.6-2.6-3-4.4-3.8c-1.2-0.5-5.4,1.6-5.3,2.4s0.8,0.8,1.9,0.7c0.4,0,2.4-0.8,2.8-0.4
			c0.5,0.9,0.9,1.8,1.2,2.7L52.3,33.2z"/>
		<path class="st5" d="M42.7,31.5c0.7-0.9,1.7-1.5,2.8-1.7l0,0C44.5,30.2,43.5,30.8,42.7,31.5L42.7,31.5z"/>
		<path class="st10" d="M52.3,33.2c-1.1-1.6-2.6-3-4.4-3.8c-1.2-0.5-4.5,2.2-4.4,3s1.2,0.9,2.3,0.5c0.4-0.1,1.6-1,2-0.6
			c0.5,0.6,1.7,2.1,1.7,2.1L52.3,33.2z"/>
		<path class="st5" d="M48.8,33.4L48.5,33l-0.4-0.5c-0.1-0.1-0.2-0.3-0.4-0.4C47.6,32,47.4,32,47.2,32c-0.4,0.1-0.8,0.2-1.1,0.5
			C45.6,32.8,45,33,44.3,33c-0.2,0-0.3,0-0.5-0.1c-0.1-0.1-0.2-0.1-0.3-0.2c-0.3-0.4,0.1-0.9,0.4-1.3c0.6-0.6,1.4-1.2,2.2-1.6
			l0.6-0.3c0.2-0.1,0.5-0.2,0.7-0.2c0.5,0.1,0.9,0.3,1.3,0.5l0,0c-0.4-0.4-1-0.6-1.6-0.6c-0.2,0-0.5,0.1-0.7,0.2
			c-0.2,0.1-0.5,0.2-0.7,0.3c-0.4,0.2-0.9,0.5-1.3,0.8c-0.4,0.3-0.7,0.6-1,1c-0.2,0.4-0.3,0.8-0.1,1.2c0.2,0.2,0.5,0.4,0.8,0.4
			c0.2,0,0.4,0,0.5,0c0.4-0.1,0.8-0.2,1.1-0.3c0.3-0.2,0.7-0.4,1-0.5c0.2-0.1,0.4-0.1,0.5,0c0.2,0.1,0.3,0.2,0.4,0.4
			c0.3,0.2,0.5,0.5,0.7,0.8C48.8,33.5,48.8,33.5,48.8,33.4z"/>
		<path class="st10" d="M52.8,34.1c-0.3-0.5-0.7-2.7-1.2-3.4s-2.4-3-3.3-2.9c-1.1,0.1,0.1,2.2,0.7,3c0.4,0.7,0.6,1.5,0.5,2.3
			L52.8,34.1z"/>
		<path class="st5" d="M48.2,29.5c0.2,0.3,0.4,0.5,0.6,0.8c0.2,0.3,0.4,0.5,0.5,0.8c0.1,0.3,0.2,0.6,0.2,0.9c0,0.2,0,0.3,0,0.5
			s0,0.3,0,0.5l0,0c0-0.3-0.1-0.6-0.1-0.9c-0.1-0.3-0.2-0.6-0.3-0.9C48.8,30.6,48.4,30.1,48.2,29.5L48.2,29.5z"/>
		<path class="st5" d="M49.5,33.4c0,0.6,0,1.1-0.3,1.6c-0.1,0.3-0.2,0.5-0.4,0.7c-0.1,0.2-0.3,0.5-0.5,0.7c-0.3,0.4-0.6,0.9-0.8,1.3
			c-0.2,0.5-0.3,1-0.4,1.5c0-0.5,0-1.1,0.2-1.6c0.2-0.5,0.4-1,0.8-1.4c0.3-0.4,0.6-0.9,0.8-1.3C49.3,34.4,49.4,33.9,49.5,33.4z"/>
		<path class="st10" d="M52.3,52.1c-2.2-0.3-3.7-4-6.2-10.5c-0.4-1.1,5.4-8.2,6.1-7.1c1,1.3,3.7,8.7,4,10.7
			C56.7,49.1,54.9,52.5,52.3,52.1z"/>
		<path class="st9" d="M47.4,45.2l7.2-6.9c0,0,2,6,1.8,8.5c-0.2,2.5-1.1,5.4-4.1,5.5C50.1,52.4,47.4,45.2,47.4,45.2z"/>
		<path class="st5" d="M49.7,50c-0.3-0.4-0.5-0.8-0.7-1.1s-0.4-0.8-0.6-1.2s-0.4-0.8-0.6-1.2c-0.2-0.4-0.3-0.8-0.4-1.3
			c0.2,0.4,0.4,0.8,0.6,1.2l0.6,1.2c0.2,0.4,0.4,0.8,0.6,1.2S49.6,49.6,49.7,50z"/>
		<path class="st5" d="M49,46.4c0.3-0.4,0.7-0.7,1.1-1.1s0.7-0.7,1.1-1.1l2.3-2.1l0.6-0.6c0.2-0.2,0.5-0.4,0.7-0.6l0,0
			c-0.2,0.2-0.3,0.4-0.5,0.6s-0.4,0.4-0.6,0.5l-1.1,1.1c-0.8,0.7-1.5,1.4-2.3,2.1C49.9,45.7,49.4,46.1,49,46.4L49,46.4z"/>
		<path class="st10" d="M35.9,28.7c0.5,1.3,1.1,2.5,1.7,3.7c0.4,0.4,4.1,0.2,4.1-0.1c-0.4-1.1-0.9-2.2-1.5-3.3
			c-0.8-0.4-1.7-0.6-2.5-0.7C37.1,28.2,36.4,28.4,35.9,28.7z"/>
		<path class="st10" d="M36.2,29c0,0.4,1.6,2.9,3.5,2.8c1.2-0.1,0.4-2.4,0.4-2.4l1-3.2l-3.8-2.9C37.3,23.2,36.2,28.8,36.2,29z"/>
		<path class="st5" d="M36.9,25.3c0.6,1.7,1.8,3.1,3.4,3.8l0.8-3l-3.8-2.9C37.3,23.2,37.1,24.2,36.9,25.3z"/>
		<path class="st10" d="M45.7,21.7c0.1,5.4-3.1,6.1-4.3,6.2s-4.7,0-5.4-5.4s1.8-7.2,4.2-7.4S45.5,16.3,45.7,21.7z"/>
		<path class="st5" d="M35.9,22.5c0.6,0,2.3-1.6,2.5-4.5c-0.1,1-0.3,2-0.6,3c-0.2,0.4,0.9-0.9,1.1-3.2c0.7,0.6,1.5,1,2.3,1.4
			c0.6,0.3,1.2,0.4,1.8,0.3c0.1-0.1-1.5-0.7-1.9-1.2c1.3,0.7,2.8,1.3,4.2,1.7c0.4-1.7-0.2-3.5-1.5-4.7c-2-1.5-5.4-0.2-6.4,0.6
			c-0.9,0.2-1.7,0.8-2.3,1.5C34.1,19,35.3,22.5,35.9,22.5z"/>
		<path class="st10" d="M36.9,22.4c0,0-1.1-1.8-1.9-1.4s-0.1,2.9,0.8,3.3c0.5,0.2,1,0.1,1.2-0.4c0,0,0,0,0,0L36.9,22.4z"/>
		<path class="st5" d="M35.3,21.8L35.3,21.8c0.6,0.3,1,0.9,1.1,1.5c-0.1-0.3-0.4-0.3-0.7-0.2c0,0,0,0-0.1,0l0,0
			c0.2-0.1,0.5,0,0.6,0.2c0.1,0.2,0.2,0.3,0.3,0.5c0,0.1,0.1,0,0.1,0l0,0C36.7,22.9,36.1,22.1,35.3,21.8z"/>
		<path class="st5" d="M41.6,31.5l-3,9.3c-0.1,0.3,0,0.5,0.3,0.5l4.9,0.3c0.3,0,0.6-0.2,0.7-0.5l3-9.3c0.1-0.3,0-0.5-0.3-0.5
			L42.3,31C42,31,41.7,31.2,41.6,31.5z"/>
		<path class="st11" d="M42.2,31.5l-3,9.3c-0.1,0.3,0,0.5,0.3,0.5l4.9,0.3c0.3,0,0.6-0.2,0.7-0.5l3-9.3c0.1-0.3,0-0.5-0.3-0.5
			l-4.9-0.3C42.6,31.1,42.3,31.3,42.2,31.5z"/>
		<path class="st5" d="M43.5,32.1c0,0.2-0.2,0.4-0.5,0.4c-0.2,0-0.4-0.2-0.4-0.5c0-0.2,0.2-0.4,0.5-0.4c0,0,0,0,0,0
			C43.4,31.6,43.5,31.8,43.5,32.1z"/>
		<path class="st10" d="M23.1,52.3c2.1,0.3,4.8-1.4,11.7-6.4c1-0.7-2.2-8.8-3.2-8.1c-1.3,0.9-6.3,4.5-6.7,4.9
			C22.1,45.3,21.6,52.1,23.1,52.3z"/>
		<path class="st10" d="M29.1,40.3c1-1.4,2.2-2.7,3.5-3.9c1.6-1.1,3.4-1.9,5.3-2.1c2.1-0.3,7.3,0.4,7.3,1.9S40,36.5,40,36.5
			s5.6,0.1,5.3,1.8S39,38.5,39,38.5s5.7,0.2,5.2,1.9c-0.4,1.3-6,0.2-6,0.2s4.9,0.2,4.6,1.6s-5.6,0.8-5.6,0.8c-0.9,2.3-2.7,4-5,4.7
			C31.7,48,29.1,40.3,29.1,40.3z"/>
		<path class="st5" d="M38,36.4c0.7,0,1.3,0,2,0s1.3,0.1,2,0.2c0.8,0.1,1.7,0.3,2.5,0.7c-1.5-0.4-2.9-0.6-4.4-0.7
			C39.4,36.6,38.8,36.5,38,36.4C38,36.4,38,36.4,38,36.4z"/>
		<path class="st5" d="M37.8,38.8c0.8,0,1.7,0,2.5,0.1s1.6,0.2,2.4,0.3c0.1,0,0,0,0,0C41.9,39,41.2,39,40.3,39S38.7,38.8,37.8,38.8
			C37.8,38.8,37.8,38.8,37.8,38.8z"/>
		<path class="st5" d="M37.3,40.7c1.3,0,2.6,0.1,3.8,0.4c0.1,0,0,0,0,0C39.8,41,38.8,40.9,37.3,40.7L37.3,40.7z"/>
		<path class="st9" d="M29.1,39.2l2.7,9.9c0,0-7.3,4.3-8.9,3.2s-0.6-6.9,1.3-9C25.7,41.8,27.4,40.4,29.1,39.2z"/>
		<path class="st5" d="M29.2,39.5l-0.1-0.3l0,0c-0.7,0.6-1.4,1.1-2.1,1.7s-1.4,1.1-2,1.7c-0.3,0.3-0.6,0.6-0.9,0.9
			c-0.3,0.3-0.5,0.7-0.7,1.1c-0.4,0.8-0.7,1.6-0.9,2.5c0.1-0.9,0.3-1.8,0.7-2.6c0.2-0.4,0.4-0.8,0.7-1.1c0.3-0.4,0.6-0.7,0.9-1
			c0.7-0.6,1.4-1.2,2.1-1.7s1.4-1.1,2.2-1.5l0,0l0,0L29.2,39.5z"/>
		<path class="st5" d="M27.5,41.6c0.2,0.5,0.3,1,0.4,1.5s0.3,1,0.4,1.5c0.2,1,0.5,2,0.7,3l0.2,0.8c0.1,0.3,0.1,0.6,0.2,0.9l0,0
			c-0.1-0.2-0.2-0.5-0.2-0.7s-0.1-0.5-0.2-0.8c-0.1-0.5-0.3-1-0.4-1.5c-0.3-1-0.5-2-0.7-3C27.7,42.8,27.6,42.2,27.5,41.6L27.5,41.6z
			"/>
		<path class="st5" d="M31.8,49.1C31.8,49.2,31.8,49.1,31.8,49.1c-0.1-0.3-0.1-0.6-0.2-0.8c0,0,0-0.1,0,0
			C31.6,48.5,31.7,48.8,31.8,49.1z"/>
		<path class="st4" d="M68.4,32.9H52.3c-0.9,0-1.6-0.7-1.6-1.6l0,0l0,0c0-0.9,0.7-1.6,1.6-1.6l0,0h16.1c0.9,0,1.6,0.7,1.6,1.6l0,0
			l0,0C70,32.2,69.3,32.9,68.4,32.9L68.4,32.9z"/>
		<path class="st12" d="M68.4,33H52.3c-1,0-1.8-0.8-1.8-1.8c0-1,0.8-1.8,1.8-1.8h16.1c1,0,1.8,0.8,1.8,1.8
			C70.1,32.3,69.3,33,68.4,33z M52.3,29.8c-0.8,0-1.5,0.7-1.5,1.5c0,0.8,0.7,1.5,1.5,1.5c0,0,0,0,0,0h16.1c0.8,0,1.5-0.7,1.5-1.5
			c0-0.8-0.7-1.5-1.5-1.5H52.3z"/>
		<path class="st12" d="M67.3,32.3c-0.6,0-1.1-0.5-1.1-1.1s0.5-1.1,1.1-1.1s1.1,0.5,1.1,1.1l0,0C68.4,31.8,67.9,32.3,67.3,32.3z
			 M67.3,30.6c-0.3,0-0.5,0.3-0.5,0.7c0,0.3,0.2,0.5,0.5,0.5c0.3,0,0.6-0.2,0.7-0.5c0-0.3-0.2-0.6-0.5-0.7
			C67.4,30.6,67.3,30.6,67.3,30.6z"/>
		<path class="st12" d="M68.4,32.5c-0.1,0-0.1,0-0.2-0.1l-0.5-0.5c-0.1-0.1-0.1-0.3,0-0.4c0,0,0,0,0,0c0.1-0.1,0.3-0.1,0.4,0
			c0,0,0,0,0,0l0.5,0.5c0.1,0.1,0.1,0.3,0,0.4c0,0,0,0,0,0C68.5,32.5,68.4,32.5,68.4,32.5z"/>
		<path class="st8" d="M29.8,16.6c-0.1,0-0.2-0.1-0.3-0.1l-1.2-1.7H17.9c-0.9,0-1.7-0.7-1.7-1.7v-2.8c0-0.9,0.7-1.7,1.7-1.7h12
			c0.9,0,1.7,0.8,1.7,1.7l0,0v2.9c0,0.8-0.6,1.5-1.4,1.6v1.5C30.2,16.4,30.1,16.5,29.8,16.6C29.9,16.6,29.9,16.6,29.8,16.6z
			 M17.8,9.1c-0.6,0-1.1,0.5-1.1,1.1v2.9c0,0.6,0.5,1.1,1.1,1.1c0,0,0,0,0.1,0h10.5c0.2,0,0.3,0.1,0.4,0.2l0.9,1.2v-1
			c0-0.2,0.2-0.4,0.4-0.5c0.6-0.1,1-0.5,1-1.1v-2.8c0-0.6-0.5-1.1-1.1-1.1H17.8z"/>
		<path class="st8" d="M28.5,12.4c-0.4,0-0.7-0.3-0.7-0.7s0.3-0.7,0.7-0.7c0.4,0,0.7,0.3,0.7,0.7C29.3,12.1,29,12.4,28.5,12.4
			L28.5,12.4z M28.5,11.5c-0.1,0-0.2,0.1-0.2,0.2s0.1,0.2,0.2,0.2s0.2-0.1,0.2-0.2C28.7,11.6,28.6,11.5,28.5,11.5L28.5,11.5z"/>
		<path class="st8" d="M26.2,12.4c-0.4,0-0.7-0.3-0.7-0.7s0.3-0.7,0.7-0.7c0.4,0,0.7,0.3,0.7,0.7C27,12.1,26.6,12.4,26.2,12.4
			L26.2,12.4z M26.2,11.5c-0.1,0-0.2,0.1-0.2,0.2s0.1,0.2,0.2,0.2s0.2-0.1,0.2-0.2C26.4,11.6,26.3,11.5,26.2,11.5L26.2,11.5z"/>
		<path class="st8" d="M23.9,12.4c-0.4,0-0.7-0.3-0.7-0.7s0.3-0.7,0.7-0.7c0.4,0,0.7,0.3,0.7,0.7C24.7,12.1,24.3,12.4,23.9,12.4
			L23.9,12.4z M23.9,11.5c-0.1,0-0.2,0.1-0.2,0.2s0.1,0.2,0.2,0.2s0.2-0.1,0.2-0.2C24.1,11.6,24,11.5,23.9,11.5L23.9,11.5z"/>
		<path class="st8" d="M21.6,12.4c-0.4,0-0.7-0.3-0.7-0.7s0.3-0.7,0.7-0.7c0.4,0,0.7,0.3,0.7,0.7C22.3,12.1,22,12.4,21.6,12.4
			L21.6,12.4z M21.6,11.5c-0.1,0-0.2,0.1-0.2,0.2s0.1,0.2,0.2,0.2s0.2-0.1,0.2-0.2C21.8,11.6,21.7,11.5,21.6,11.5L21.6,11.5z"/>
		<path class="st8" d="M19.3,12.4c-0.4,0-0.7-0.3-0.7-0.7s0.3-0.7,0.7-0.7c0.4,0,0.7,0.3,0.7,0.7C20,12.1,19.7,12.4,19.3,12.4
			L19.3,12.4z M19.3,11.5c-0.1,0-0.2,0.1-0.2,0.2s0.1,0.2,0.2,0.2s0.2-0.1,0.2-0.2C19.4,11.6,19.4,11.5,19.3,11.5L19.3,11.5z"/>
	</g>
</g>
</svg>
