<svg xmlns="http://www.w3.org/2000/svg" xmlns:xlink="http://www.w3.org/1999/xlink" viewBox="0 0 80.65 65"><defs><style>.cls-1{fill:#038d71;}.cls-2{fill:#7ac943;}.cls-3{clip-path:url(#clip-path);}.cls-4{fill:#eb6654;}.cls-5{fill:#3268df;}.cls-6{fill:#fdf6e6;}.cls-7{fill:#5145b3;}.cls-8{fill:#ffc800;}.cls-9{fill:#1a2e35;}.cls-10{fill:#6445e1;}</style><clipPath id="clip-path"><rect class="cls-1" width="80.65" height="65" rx="4"/></clipPath></defs><g id="Capa_2" data-name="Capa 2"><g id="Arte"><rect class="cls-2" width="80.65" height="65" rx="4"/><rect class="cls-1" width="80.65" height="65" rx="4"/><g class="cls-3"><path class="cls-4" d="M11.44,35.21c0-14.53,16.74-35.74,28.85-26.3,9.59,7.48,28.84,11.77,28.84,26.3S56.22,61.52,40.29,61.52,11.44,49.74,11.44,35.21Z"/><path class="cls-5" d="M70,23.86A15.33,15.33,0,0,1,62.9,36.8h0a15.27,15.27,0,0,1-18.18-1.37,15.88,15.88,0,0,1-2-2.1,15.37,15.37,0,0,1-1-17.53c.27-.43.56-.85.87-1.25a15.24,15.24,0,0,1,12.13-6,16,16,0,0,1,1.71.09A15.28,15.28,0,0,1,70,23.86Z"/><path class="cls-6" d="M57.36,38.94a15.27,15.27,0,0,1-12.65-3.51l.21-.08a1.74,1.74,0,0,0,.66-.66c.54-.84.8-1.82,1.28-2.69a2.81,2.81,0,0,1,2.3-1.65A1.86,1.86,0,0,1,50.9,32a6.79,6.79,0,0,1-.5,2.22c-.17.74,0,1.72.75,1.92a2,2,0,0,0,1.16-.17,4.54,4.54,0,0,1,3.48-.17A3.25,3.25,0,0,1,57.36,38.94Z"/><path class="cls-6" d="M56.43,8.64a2.18,2.18,0,0,1-.46.7c-1.71,1.73-5,1.27-6.38,3.27-.5.72-.65,1.64-1.11,2.39s-1.54,1.28-2.21.71c-.31-.27-.45-.71-.78-.94-.49-.34-1.15-.1-1.74,0a1.49,1.49,0,0,1-1.16-.23,15.24,15.24,0,0,1,12.13-6A16,16,0,0,1,56.43,8.64Z"/><path class="cls-6" d="M70,23.86A15.33,15.33,0,0,1,62.9,36.8h0a2.45,2.45,0,0,1-.6.06,1.89,1.89,0,0,1-1.63-1.57,2.74,2.74,0,0,1,.73-2.24c.39-.43.87-.76,1.28-1.15a2.35,2.35,0,0,0,.82-1.47,1.16,1.16,0,0,0-.9-1.27,1.74,1.74,0,0,0-.64.09,11.78,11.78,0,0,0-3.38,1.27,4,4,0,0,1-.83.46,2,2,0,0,1-1.1,0,3.18,3.18,0,0,1-2.29-2.34c-.12-.53-.1-1.07-.2-1.6a1.79,1.79,0,0,0-.81-1.32c-.66-.34-1.64-.07-2.06-.68a1.26,1.26,0,0,1,.13-1.36,6,6,0,0,0,.76-1.22,1.55,1.55,0,0,0-.36-1.54c-.3-.3-.71-.47-1-.79a1.78,1.78,0,0,1-.2-1.86,4.14,4.14,0,0,1,1.25-1.51A13.71,13.71,0,0,1,54.56,15a1,1,0,0,0,.45-.34c.2-.35-.09-.76-.22-1.14a1.81,1.81,0,0,1,.43-1.71,4.21,4.21,0,0,1,1.53-1A12,12,0,0,1,61,9.89,15.32,15.32,0,0,1,70,23.86Z"/><path class="cls-6" d="M41.63,25.92a2.45,2.45,0,0,0-.3,3.23c.21.23.48.39.7.61A3.19,3.19,0,0,1,42.7,32c0,.43,0,.88,0,1.31a15.37,15.37,0,0,1-1-17.53.83.83,0,0,1,.58,0,.81.81,0,0,1,.46.79,2.39,2.39,0,0,1-.28.93l-.84,1.81a1.6,1.6,0,0,0-.22,1.1,1.15,1.15,0,0,0,1.34.65,4.5,4.5,0,0,0,1.45-.73,2.23,2.23,0,0,1,1.54-.44,1.7,1.7,0,0,1,1,2.3,4,4,0,0,1-2.06,1.89A10.57,10.57,0,0,0,41.63,25.92Z"/><path class="cls-6" d="M44.67,26.73A2,2,0,0,0,44.91,29a.71.71,0,0,0,.5.26c.3,0,.52-.29.78-.44.73-.44,1.66.2,2.49,0a1.52,1.52,0,0,0,1.18-1.49C49.89,24.53,45.69,24.69,44.67,26.73Z"/><path class="cls-7" d="M67.5,10.51a3.67,3.67,0,0,0-7-2.17,3.73,3.73,0,0,0-.16,2.48h0l0,.08a4.46,4.46,0,0,0,.94,1.88l2.43,3.39,2.46-2.93A5.76,5.76,0,0,0,67.5,10.51Z"/><path class="cls-6" d="M65.36,11.66a2.24,2.24,0,0,1-1.37.46,2.3,2.3,0,1,1,1.37-.46"/><path class="cls-8" d="M39.55,31.52c-1.43,4.29-7.81,17.94-10.49,18.89s-13.57,2.22-16,.34c-1.17-.92-1.58-10.79,0-10.55s11.08.6,12.21.19S34,29,37.06,26.33C42.35,21.74,40.32,29.21,39.55,31.52Z"/><path class="cls-1" d="M15.49,40l.16,12.29s11,0,14-1.52,9.17-15.75,10.73-21.18-.93-6.28-4.89-2.29S25.58,39.67,24.87,39.85,15.49,40,15.49,40Z"/><path class="cls-9" d="M18.71,46.1c0-1-.07-4.87-.16-5.83,0,0,0,0,0,0-.09.94-.14,4.78-.13,5.75a51.73,51.73,0,0,0,.21,5.84,0,0,0,0,0,.07,0C18.81,50,18.73,48,18.71,46.1Z"/><path class="cls-1" d="M53.52,53.69a4.76,4.76,0,0,1-5,5.44c-8-.54-21.24-1.48-21.39-1.68-.32-.42,8.21-27.82,10.35-31.84.91-1.72,5.27-2,7-.34,4.31,4.05,7.32,17.18,7.95,21.11C52.81,48.93,53.2,51.5,53.52,53.69Z"/><path class="cls-8" d="M48.07,28.38c7.16,7.9,15.23,21.23,11.78,24.07-3.16,2.6-14.67.13-21.91-2.7-1.38-.54,4.21-12.73,5.61-12a40.1,40.1,0,0,0,4.59,2.06c.39.11-1.78-2.55-4.21-8.94S44,23.86,48.07,28.38Z"/><path class="cls-8" d="M26,36.84C26,38.25,29.45,38,29.45,38a2.6,2.6,0,0,0-1.07,1.42c-.26,1,1.26,1.92,1.26,1.92A3.24,3.24,0,0,0,28.76,43C28.61,44,30,45.12,30,45.12a2.85,2.85,0,0,0,.15,2c.83,1.61,3.63,1.65,5.35,2a36.59,36.59,0,0,1,5.66,1.8l3.2-12.73s-7.48-4.44-9.57-4.34C33.05,33.91,26,34.67,26,36.84Z"/><path class="cls-9" d="M29.48,37.94a23.54,23.54,0,0,1,5.73-.71,0,0,0,1,1,0,.07c-1.89.05-3.83.6-5.72.73A0,0,0,0,1,29.48,37.94Z"/><path class="cls-9" d="M29.69,41.17A4.79,4.79,0,0,1,31,41.1l1.4,0c.93,0,1.86.11,2.79.2,0,0,.05.07,0,.07-.93,0-1.85-.07-2.78-.07-.47,0-.93,0-1.4,0a5.73,5.73,0,0,1-1.31,0A.07.07,0,0,1,29.69,41.17Z"/><path class="cls-9" d="M30.06,45.12a3.34,3.34,0,0,1,1.18,0l1.27.08c.85,0,1.7.09,2.55.11,0,0,0,.07,0,.07l-2.59,0-1.27,0a3.19,3.19,0,0,1-1.15-.14S30,45.13,30.06,45.12Z"/><path class="cls-1" d="M42,51.72s17.14,4.47,18.92.14c1-2.34-1.52-8.08-4.91-13.6l-.06-.08a.75.75,0,0,0-.07-.12L55.77,38a68.86,68.86,0,0,0-4-5.73L51.66,32a32.11,32.11,0,0,0-4.89-5.22C41,22.23,43.14,29.46,43.32,30c0,.19.12.39.2.61s.07.17.11.27c.48,1.22,1.26,2.86,2,4.37l.09.19,0,.06,0,.09c1,1.94,1.88,3.59,1.93,3.69l-3-1.29Z"/><path class="cls-9" d="M45,38c2,.69,7.12,3.26,8.26,4.32,0,0,0,.08,0,.06-1.12-.79-7.5-3.91-8.49-4.29a1.64,1.64,0,0,1-.07.15s-.06,0-.06,0a2.72,2.72,0,0,1,.07-.33Z"/><path class="cls-9" d="M46.48,45.7c.19-1,.9-4.78,1-5.75a0,0,0,0,0,0,0c-.28.91-1.1,4.66-1.28,5.62a53.64,53.64,0,0,0-1,5.76s.05,0,.06,0C45.81,49.48,46.12,47.58,46.48,45.7Z"/><path class="cls-9" d="M47.89,39.4c-.54-1.16-1.19-2.27-1.78-3.41s-1.2-2.27-1.75-3.42c0,0,0,0,0,0,.34.79.67,1.57,1,2.35l-.31-.38c-.18-.24-.35-.48-.52-.73,0,0,0,0,0,0a3.82,3.82,0,0,0,.48.77,4.32,4.32,0,0,0,.45.51c.15.31.3.63.46.94a25,25,0,0,0,1.79,3.35S47.91,39.44,47.89,39.4Z"/><path class="cls-9" d="M53.58,53.65c-2,0-9.66-1.53-11.55-1.91,0-.2,0-.27,0-.56,0,0-.06,0-.06,0-.06.27-.24.8-.16.83.91.36,9.73,1.9,11.72,1.74A0,0,0,0,0,53.58,53.65Z"/><polygon class="cls-9" points="33.01 52.27 18.79 54.18 13.39 34.41 27.61 32.5 33.01 52.27"/><polygon class="cls-9" points="32.31 52.36 18.09 54.27 12.69 34.51 26.91 32.59 32.31 52.36"/><path class="cls-8" d="M12.83,38.58c-.59,1.67-2.28,3.83-2.31,5.14a1.51,1.51,0,0,0,1,1.5,2.26,2.26,0,0,0-1.06,2c.09.62,1.15,1,1.15,1a1.81,1.81,0,0,0-.73,1.72c.17.84,1.21,1.11,1.21,1.11a2.15,2.15,0,0,0-.17,1.86c.92,1.62,8.24.87,9.1-1.94.39-1.31-1.38-1-1.38-1s2.46-1,2.34-2.53-2.4-1-2.4-1,2.37-1,2.1-2.56-2.49-.73-2.49-.73,1.51-1.27,1-2.41c-.81-1.89-3.64.88-5.28.66l-1.16-2.56Z"/><path class="cls-8" d="M11.6,41c.43-1.63-1.71-3.36-1.53-5,.25-2.18,2.86-.34,3.71,2.71L14,41.25Z"/><path class="cls-9" d="M12.25,51.1s0,0,0,0a12.77,12.77,0,0,0,7.5-1.22c.07,0,0-.17,0-.15A26.16,26.16,0,0,1,12.25,51.1Z"/><path class="cls-9" d="M11.58,48.22a0,0,0,0,0,0,.05,11.92,11.92,0,0,0,8.09-1.83c.08-.06.1-.19,0-.13A21.53,21.53,0,0,1,11.58,48.22Z"/><path class="cls-9" d="M19.32,42.92a16.44,16.44,0,0,1-7.7,2.32s0,0,0,.06a10.83,10.83,0,0,0,4.45-.44A7.43,7.43,0,0,0,19.37,43S19.37,42.88,19.32,42.92Z"/><path class="cls-9" d="M37,26.66s0,0,0,0c0,1.23-.09,4.07,1.83,3.86a4.11,4.11,0,0,0,2.05-1.07,10.67,10.67,0,0,0,1.6-1.69,14.86,14.86,0,0,0,1.47-2.15s.07,0,0,0a24.23,24.23,0,0,1-1.32,2.26,9.26,9.26,0,0,1-1.72,1.87,4.06,4.06,0,0,1-2.18,1.05,1.54,1.54,0,0,1-1.6-1.14A6.86,6.86,0,0,1,37,26.66Z"/><path class="cls-8" d="M38.84,29.27c1.39.12,3.66-2.47,4.32-4.26a25.5,25.5,0,0,0-.66-2.75c-.21-.87-.43-1.86-.56-2.77l-5.51,2.23a14.5,14.5,0,0,1,1.06,3.41,2.55,2.55,0,0,1,0,.38v.07C37.5,26.3,37.5,29.15,38.84,29.27Z"/><path class="cls-9" d="M37.51,25.51v.06a2.48,2.48,0,0,0,.59-.05c3.29-.55,3.48-4.71,3.47-5.88l-1.38.56-3.76,1.52a14.5,14.5,0,0,1,1.06,3.41A2.55,2.55,0,0,1,37.51,25.51Z"/><path class="cls-8" d="M42.57,13.26c.57,2.06-.66,8-2.15,9.23-2.15,1.86-5.61,2-7.17-.62s.22-10.14,1.88-11.3A5.1,5.1,0,0,1,42.57,13.26Z"/><path class="cls-9" d="M34,12.29c.33-.47.7-.93,1-1s.37.76,1.06,1c.93.26,1.58-.51,2.92-.31,1.93.27,2.42,2,1.89,4.75-.48,2.41.93,3,.93,3s2-5.13.9-7.21a5.82,5.82,0,0,0-7-2.41C34.71,10.5,34,12.29,34,12.29Z"/><path class="cls-8" d="M40.84,18.34S42.26,16.49,43.1,17s-.28,3.24-1.31,3.57A1,1,0,0,1,40.42,20Z"/><path class="cls-9" d="M42.76,17.78s0,0,0,0a2.61,2.61,0,0,0-1.43,1.57.57.57,0,0,1,.86-.11s0,0,0,0a.65.65,0,0,0-.71.19,3,3,0,0,0-.36.56c0,.06-.15,0-.12-.05v0C41,19.07,41.78,17.83,42.76,17.78Z"/><path class="cls-10" d="M37.6,9.34A8.66,8.66,0,0,1,40.11,9c1,0,3.85.72,4.46,1.41s.36,3.49.32,3.9-.61,2.82-1.59,3.27-.41-3.71-1.59-5.31A13,13,0,0,0,37.6,9.34Z"/><path class="cls-10" d="M42.67,20a16.28,16.28,0,0,0-1.48-6.14C40.28,12,37,10.45,36.48,10.4c-1.19-.11-1.53.41-1.7.28S36,9.39,36.36,9.24a4,4,0,0,1,1.69-.15c.51.09,3.61.9,4.55,2.43s2,5.55,1.51,6.47c-.1.22-.43.32-.58.63s-.37.9-.55,1.18S42.66,20.1,42.67,20Z"/><path class="cls-9" d="M41,13.07a7,7,0,0,0,.86-.44,4.46,4.46,0,0,0,.76-.6s0,0,0,0a2.94,2.94,0,0,1-.72.69,2.73,2.73,0,0,1-.91.39S41,13.08,41,13.07Z"/><path class="cls-9" d="M42.86,18.9c0-.07.1-.13.15-.2a1.35,1.35,0,0,0,.15-.26,2.36,2.36,0,0,1,.21-.52,2.48,2.48,0,0,1,.32-.33.7.7,0,0,0,.28-.41s.05,0,0,0c0,.34-.31.54-.5.8a3.87,3.87,0,0,0-.25.55.83.83,0,0,1-.36.42S42.84,18.93,42.86,18.9Z"/><path class="cls-9" d="M42.66,17.65a2.91,2.91,0,0,0,.37-.33,2.69,2.69,0,0,0,.3-.37c.1-.13.18-.27.27-.4s.23-.3.32-.46,0,0,0,0c-.1.17-.17.35-.27.52a3.07,3.07,0,0,1-.28.42,2.17,2.17,0,0,1-.32.36,1.36,1.36,0,0,1-.41.26S42.65,17.66,42.66,17.65Z"/><path class="cls-9" d="M42.43,16.51a3.1,3.1,0,0,0,.71-.59c.2-.22.39-.46.57-.7,0,0,0,0,0,0a3.75,3.75,0,0,1-.51.78,2,2,0,0,1-.34.31,2.23,2.23,0,0,1-.44.21S42.41,16.52,42.43,16.51Z"/><path class="cls-9" d="M42.16,15.4a1,1,0,0,0,.33-.25l.34-.33.32-.33a1.12,1.12,0,0,0,.26-.38,0,0,0,0,1,0,0,1,1,0,0,1-.2.41,2.44,2.44,0,0,1-.32.4,2.91,2.91,0,0,1-.37.33.72.72,0,0,1-.39.19A0,0,0,0,1,42.16,15.4Z"/><path class="cls-9" d="M42.05,14l.34-.26.32-.3c.11-.1.23-.2.33-.31s0,0,0,0a3.18,3.18,0,0,1-.27.37,3.11,3.11,0,0,1-.32.31,3,3,0,0,1-.35.27,1.25,1.25,0,0,1-.4.2s0,0,0,0A1.77,1.77,0,0,1,42.05,14Z"/><path class="cls-9" d="M40.29,12.3l.4-.34.45-.29a4.85,4.85,0,0,1,1-.45s0,0,0,0c-.59.36-1.2.7-1.79,1.07C40.3,12.35,40.28,12.32,40.29,12.3Z"/><path class="cls-9" d="M39.77,11.25a2.57,2.57,0,0,1,.44-.29,4.11,4.11,0,0,1,1-.38s0,0,0,0c-.32.15-.64.29-.94.45a4.83,4.83,0,0,0-.45.26c-.14.1-.26.23-.4.33s0,0,0,0A1.33,1.33,0,0,1,39.77,11.25Z"/><path class="cls-9" d="M38.92,10.68a2.87,2.87,0,0,1,.4-.31,2.83,2.83,0,0,1,.89-.34s0,0,0,0a5.26,5.26,0,0,0-.85.44c-.14.08-.27.17-.4.26a3.48,3.48,0,0,1-.39.28s0,0,0,0A1.66,1.66,0,0,1,38.92,10.68Z"/><path class="cls-9" d="M38.34,10a3.84,3.84,0,0,1,.4-.21,1.35,1.35,0,0,1,.42-.16,0,0,0,0,1,0,0l-.76.44a3.8,3.8,0,0,0-.61.53s0,0,0,0A1.46,1.46,0,0,1,38.34,10Z"/><path class="cls-9" d="M37.54,9.71a2.22,2.22,0,0,1,.81-.34s0,0,0,0a3,3,0,0,0-.75.4,3.87,3.87,0,0,0-.63.58s0,0,0,0A1.81,1.81,0,0,1,37.54,9.71Z"/><path class="cls-9" d="M36.38,10a.61.61,0,0,1,.12-.16,1.8,1.8,0,0,1,.29-.26,4,4,0,0,1,.7-.38s0,0,0,0a4.09,4.09,0,0,0-.67.4,3.45,3.45,0,0,0-.28.26l-.12.14a.55.55,0,0,1-.12.14,0,0,0,0,1,0,0A.32.32,0,0,1,36.38,10Z"/><path class="cls-9" d="M35.7,10l.24-.22c.09-.06.18-.13.27-.18l.28-.17s0,0,0,0a1.65,1.65,0,0,0-.27.19l-.24.2-.25.2a2.41,2.41,0,0,1-.24.21s0,0,0,0A1.21,1.21,0,0,1,35.7,10Z"/></g></g></g></svg>