<svg xmlns="http://www.w3.org/2000/svg" xmlns:xlink="http://www.w3.org/1999/xlink" viewBox="0 0 313.45 252.62"><defs><style>.cls-1{fill:none;}.cls-2{fill:#eb6654;}.cls-3{clip-path:url(#clip-path);}.cls-4{fill:#038d71;}.cls-5{fill:#face33;}.cls-6{fill:#1a2e35;}.cls-7{fill:var(--azul-igac);}.cls-8{fill:#c8c8c8;}.cls-9{fill:#ececec;}.cls-10{fill:#f2a742;}</style><clipPath id="clip-path"><rect class="cls-1" width="313.45" height="252.62" rx="15.55"/></clipPath></defs><g id="Capa_2" data-name="Capa 2"><g id="Arte"><rect class="cls-2" width="313.45" height="252.62" rx="15.55"/><g class="cls-3"><path class="cls-4" d="M63,115.52A80.85,80.85,0,0,1,154.81,47.3c44.18,6.5,42.86,55,68.23,91.78,33.74,48.9-47.6,74.73-91.79,68.23A80.87,80.87,0,0,1,63,115.52Z"/><path class="cls-5" d="M106.56,113.82c7.13,26.06,27.69,57.53,37.44,61.85,8.52,3.79,48-10.81,62.88-20.3,4.24-2.7-13.28-27.1-18.38-25.4-16.67,5.56-34.81,13.77-36.21,13.29-2.84-1-20.54-22.67-33.42-37.26C104.43,89.65,103.72,103.43,106.56,113.82Z"/><path class="cls-5" d="M235.07,133.33c3.35-1.41,29.19-2.23,29.18-7.83s-32.88-4-32.88-4Z"/><path class="cls-5" d="M185.52,134c4.52-5.61,8.48-11.66,12.41-12.77,2.72-.76,32,.5,36.54.22s20.87.14,21.25,4.15c.53,5.66-18.77,5.61-20.83,8.51-7.11,10-34.14,24.77-34.14,24.77Z"/><path class="cls-6" d="M256.15,125.66a4.42,4.42,0,0,0-1.87-2.52c-2-1.4-4.63-1.52-7-1.71a64,64,0,0,0-10.72-.09c-.08,0-.07.13,0,.13,2.68,0,5.35.07,8,.29a32.68,32.68,0,0,1,7.24,1.11,5.89,5.89,0,0,1,2.79,1.67,2.3,2.3,0,0,1,.55,2.16c-.78,2.47-5.65,3.2-7.89,3.7-2.94.66-6,1.23-8.93,1.84-.13,0-.07.22.06.19,3.06-.6,6.29-.84,9.37-1.39,2.49-.45,5.16-1,7.17-2.61A2.85,2.85,0,0,0,256.15,125.66Z"/><path class="cls-7" d="M184.4,130.53l23.13,33.88s-35.88,18-49.57,17.64c-13.05-.31-17.79-2.23-21.91-6.13-2.54-2.4-17.07-22.92-28.92-57-9.94-28.6,4.77-24.38,17.88-8.55,6.54,7.89,27.44,31.41,28.49,31.32S184.4,130.53,184.4,130.53Z"/><path class="cls-6" d="M177.27,136c3.48,5,6.8,10.13,10.08,15.27,1.61,2.52,7.61,12.79,9.36,15.7.07.12-.25.3-.32.19-1.82-2.57-8.35-12.82-9.92-15.37-3.19-5.19-6.35-10.4-9.34-15.71A.08.08,0,0,1,177.27,136Z"/><rect class="cls-8" x="162.11" y="116.61" width="87.75" height="4.72"/><polygon class="cls-6" points="249.86 116.61 249.86 121.33 196.56 121.33 200.18 116.61 249.86 116.61"/><path class="cls-7" d="M47.36,212.17c.21.23,91.87-.42,92.7-1.37,1.15-1.34-20.56-100.43-30.09-112.6-2-2.6-8.69-3.27-14.33-2.51a25.91,25.91,0,0,0-4.33.94l-.15,0A10.64,10.64,0,0,0,88,98.26C72.41,111,59.65,154.9,56.7,168.09,51.81,189.82,46.6,211.31,47.36,212.17Z"/><path class="cls-5" d="M76.56,107.36c-23.85,24.18-53.86,75-48.26,85.36,6.23,11.48,39.44-22.41,39.32-24.39-.1-1.5,11.59-32.4,20.45-54.87S82.46,101.38,76.56,107.36Z"/><path class="cls-7" d="M67.84,168.36c1-3.3,16.91-44,21.46-56.92s.33-16.87-12.65-5.07-41.43,51.22-47.93,72.14c-6.25,20.15,4.12,20.15,17.82,10.86C57.75,181.77,67.84,168.36,67.84,168.36Z"/><path class="cls-6" d="M67.84,168.36c1.15-3.61,2.4-7.18,3.66-10.74s2.62-7.1,3.92-10.65,2.71-7.05,4.13-10.56l2.14-5.25c.75-1.74,1.46-3.49,2.24-5.22-.56,1.81-1.19,3.59-1.78,5.39l-1.88,5.35c-1.27,3.56-2.61,7.1-3.92,10.65s-2.71,7.06-4.13,10.56S69.37,164.9,67.84,168.36Z"/><path class="cls-6" d="M84.9,128.73a10.2,10.2,0,0,1-1.6,3.57A8.15,8.15,0,0,1,80.46,135c.64-1.17,1.31-2.21,2-3.26A20.52,20.52,0,0,1,84.9,128.73Z"/><path class="cls-5" d="M28.3,192.72c5.37,7.67,20,9.14,56.44,16.28,5,1,21.59-32.74,16.26-34.07-6.72-1.68-33.15-6.73-35.13-6.86C49.18,167,24.65,187.51,28.3,192.72Z"/><path class="cls-5" d="M93.71,173.27s15.44,2.33,23.17,6.07c10.36,5,17.24,13.59,19.91,17.36,5.56,7.88,13.58,30.76,7.39,34.22-5.6,3.13-12.61-20.68-12.61-20.68s11.15,23.1,3.71,25.63-14-25.57-14-25.57,10.92,24,2.84,25.38c-6.11,1-13.49-24.06-13.49-24.06s9.25,20.68,3,22c-6.89,1.5-15.16-21.26-15.16-21.26-16.43.78-24.57-5.57-29.82-10.78C67.4,200.35,93.71,173.27,93.71,173.27Z"/><path class="cls-6" d="M128.22,202c1.41,2.67,2.85,5.35,4,8.14s2.24,5.6,3.14,8.48a51.42,51.42,0,0,1,2.44,11.53c-1.17-6.92-5.19-16.94-6.35-19.72s-2.19-5.61-3.36-8.39A.06.06,0,0,1,128.22,202Z"/><path class="cls-6" d="M118.1,206c1.65,3.48,3.42,6.88,4.92,10.43s2.59,7,3.83,10.66c.1.28-.08.24-.19,0-1.39-3.58-2.94-6.78-4.37-10.34s-2.72-7.18-4.27-10.68C118,206,118.08,206,118.1,206Z"/><path class="cls-6" d="M108.8,207.94a86.12,86.12,0,0,1,6.29,16.52c.08.28-.15.2-.25-.08-2-5.53-3.51-9.89-6.23-16.35C108.57,207.93,108.74,207.83,108.8,207.94Z"/><path class="cls-7" d="M96.93,173.27,65,208.84s-32.3-7.42-37.06-15.7c-3.13-5.45,21.19-27.54,39.54-25Z"/><path class="cls-6" d="M45.57,174c3-2.14,11.3-7.14,21.93-5.81.09,0,.09.16,0,.16-8-.23-18.83,4-21.86,5.78C45.56,174.14,45.5,174,45.57,174Z"/><path class="cls-6" d="M56.25,202.88c3.31-4.1,6.83-8,10.36-11.92s7-7.83,10.68-11.66c2-2.16,4.09-4.33,6.21-6.42.06,0,.16,0,.11.09-3.29,4.09-6.8,8-10.3,11.95s-7,7.84-10.63,11.71c-2,2.18-4.09,4.33-6.22,6.42C56.36,203.15,56.16,203,56.25,202.88Z"/><path class="cls-6" d="M97,172.81a43.64,43.64,0,0,0-6-1.36q-3-.57-6.06-1c-4-.65-12.49-2.47-19.92-2.45-.09,0,.34.4.42.39,3.54-.19,28.91,4.86,31,5a2.78,2.78,0,0,0-.22.42.12.12,0,0,0,.17.16c.26-.17.44-.39.69-.59A.3.3,0,0,0,97,172.81Z"/><path class="cls-6" d="M48.56,204.2c2.8.61,5.54,1.34,8.28,2.1s5.46,1.54,8.21,2.2l-.31.11c1-1,2-1.93,3-2.86-.81,1.13-1.66,2.23-2.52,3.31l-.11.14-.2,0a52.86,52.86,0,0,1-8.36-1.95A63.9,63.9,0,0,1,48.56,204.2Z"/><path class="cls-5" d="M106.09,110.76c-4.38.5-12.65-5.58-15-12-.15-.44,1.15-4.63,2.49-9.79.8-3.14,1.62-6.65,2.14-9.91.1-.67,19.65,8.2,19.65,8.2a52.73,52.73,0,0,0-4,12.2,8,8,0,0,0-.07,1.36,1.75,1.75,0,0,1,0,.23C111.39,103.62,110.77,110.22,106.09,110.76Z"/><path class="cls-6" d="M111.39,100.79c0,.07,0,.15,0,.22a12.5,12.5,0,0,1-2.1-.22c-12-2.17-12.78-17.73-12.79-21.64,3.55,1.1,18.93,8.08,18.93,8.08a52.89,52.89,0,0,0-4,12.21A6.92,6.92,0,0,0,111.39,100.79Z"/><path class="cls-5" d="M96,53.06c-3.14,7-1.94,28.51,2.64,33.86,6.65,7.74,18.86,9.93,25.77,1.64,6.7-8,4.65-36.05-.6-41C116.06,40.17,100.61,42.72,96,53.06Z"/><path class="cls-6" d="M94.19,71.65S89,58.75,90.76,52.07c.8-3,5.32-4.41,5.32-4.41A7,7,0,0,1,99.41,41c4.18-2.82,12.85-.62,12.85-.62s7-7.31,14.56-2.73.79,12.86.79,12.86,2.28,4.68-5.48,6.78c-7.56,2.05-21.42-3.43-21.42-3.43a50.74,50.74,0,0,1-2.65,14.85A4.62,4.62,0,0,1,94.19,71.65Z"/><path class="cls-6" d="M113.63,40.75a14.29,14.29,0,0,0-5.5-2,15.37,15.37,0,0,0-5.24,0c-3.07.57-6,2.28-7,5.39a6,6,0,0,0,.4,4.64c0,.06.12,0,.09-.06-1.49-2.61.07-6,2.31-7.65,2.54-1.84,6-2.12,9-1.76a24.67,24.67,0,0,1,5.84,1.6A.09.09,0,0,0,113.63,40.75Z"/><path class="cls-6" d="M132,42.52a7,7,0,0,0-4.06-5.18,12,12,0,0,0-7.68-1,15,15,0,0,0-7,3.61s0,.12.07.08a13.17,13.17,0,0,1,13.21-2.6,7.19,7.19,0,0,1,4.59,4.36,7.17,7.17,0,0,1-1.16,6,13.53,13.53,0,0,1-6,4.35,0,0,0,1,0,0,.08,13.76,13.76,0,0,0,5.88-3.56A7.85,7.85,0,0,0,132,42.52Z"/><path class="cls-6" d="M123.81,58a24.73,24.73,0,0,1-10.42.1A50.12,50.12,0,0,1,103,54.9c-2-.82-3.88-1.72-5.79-2.65-.06,0-.1.06,0,.1a55.05,55.05,0,0,0,10.37,5.15A27.66,27.66,0,0,0,118,59.12a23.42,23.42,0,0,0,5.8-1S123.86,58,123.81,58Z"/><path class="cls-5" d="M99.11,71.11s-4-7.32-7.32-6-.73,11.63,2.76,13.37a3.72,3.72,0,0,0,5.16-1.46Z"/><path class="cls-6" d="M92.59,68.08a.05.05,0,0,0,0,.1c2.44,1.3,3.53,3.8,4.21,6.35a2,2,0,0,0-3-.88c-.07,0,0,.15,0,.14a2.3,2.3,0,0,1,2.42,1.06,10.44,10.44,0,0,1,1,2.15c.1.24.52.16.46-.11,0,0,0,0,0-.06C98.09,73.59,96,68.78,92.59,68.08Z"/><path class="cls-9" d="M111.73,97.73l-5.43,11.73L92.19,93.54l-4.46,4.65S101.05,123,101.2,121.93l5.47-10.07,6.75,7.55.35-18.06Z"/><path class="cls-6" d="M114.1,110.49c0-3,0-6-.18-9,0-.11-.17-.16-.21,0-.74,2.84-.51,14.25-.67,17l0,0c-.28-.33-6.28-6.66-6.34-6.57-1.16,1.58-5.17,8.92-5.45,9.59-2.11-4-10.22-18.3-12.76-22.06a.1.1,0,0,0-.18.1C90.1,103.63,100.82,123,101,122.91a116.52,116.52,0,0,0,5.73-10.65c1,1.36,7,8.47,7.06,8A94.27,94.27,0,0,0,114.1,110.49Z"/><rect class="cls-5" x="169.16" y="50.15" width="9.62" height="64.9"/><rect class="cls-7" x="187.73" y="36.01" width="9.62" height="79.03"/><polyline class="cls-10" points="215.93 115.05 206.31 115.05 206.31 53.64 215.93 53.64"/><rect class="cls-5" x="227.4" y="39.69" width="9.62" height="75.35"/><polygon class="cls-8" points="209.67 120.92 268.35 120.92 298.89 69.06 240.21 69.06 209.67 120.92"/></g></g></g></svg>