<svg xmlns="http://www.w3.org/2000/svg" xmlns:xlink="http://www.w3.org/1999/xlink" viewBox="0 0 50 50"><defs><style>.cls-1{fill:url(#linear-gradient);}.cls-2{fill:#fff;}</style><linearGradient id="linear-gradient" x1="7.32" y1="42.68" x2="42.68" y2="7.32" gradientUnits="userSpaceOnUse"><stop offset="0" stop-color="#f4a833" stop-opacity="0.8"/><stop offset="1" stop-color="#f4a833"/></linearGradient></defs><g id="Capa_2" data-name="Capa 2"><g id="Arte"><circle class="cls-1" cx="25" cy="25" r="25"/><path class="cls-2" d="M18,28.5a.47.47,0,0,1-.35-.15l-3-3a.48.48,0,0,1,0-.7l3-3a.49.49,0,0,1,.7.7L15.71,25l2.64,2.65a.48.48,0,0,1,0,.7A.47.47,0,0,1,18,28.5Z"/><path class="cls-2" d="M28,18.5a.47.47,0,0,1-.35-.15L25,15.71l-2.65,2.64a.49.49,0,0,1-.7-.7l3-3a.48.48,0,0,1,.7,0l3,3a.48.48,0,0,1,0,.7A.47.47,0,0,1,28,18.5Z"/><path class="cls-2" d="M25,35.5a.47.47,0,0,1-.35-.15l-3-3a.49.49,0,0,1,.7-.7L25,34.29l2.65-2.64a.49.49,0,0,1,.7.7l-3,3A.47.47,0,0,1,25,35.5Z"/><path class="cls-2" d="M32,28.5a.47.47,0,0,1-.35-.15.48.48,0,0,1,0-.7L34.29,25l-2.64-2.65a.49.49,0,0,1,.7-.7l3,3a.48.48,0,0,1,0,.7l-3,3A.47.47,0,0,1,32,28.5Z"/><path class="cls-2" d="M35,25.5H15a.5.5,0,0,1,0-1H35a.5.5,0,0,1,0,1Z"/><path class="cls-2" d="M25,35.5a.5.5,0,0,1-.5-.5V15a.5.5,0,0,1,1,0V35A.5.5,0,0,1,25,35.5Z"/></g></g></svg>