<svg xmlns="http://www.w3.org/2000/svg" xmlns:xlink="http://www.w3.org/1999/xlink" viewBox="0 0 50 50"><defs><style>.cls-1{fill:url(#linear-gradient);}.cls-2{fill:#fff;}</style><linearGradient id="linear-gradient" x1="7.32" y1="42.68" x2="42.68" y2="7.32" gradientUnits="userSpaceOnUse"><stop offset="0" stop-color="#e94258" stop-opacity="0.8"/><stop offset="1" stop-color="#e94258"/></linearGradient></defs><g id="Capa_2" data-name="Capa 2"><g id="Arte"><circle class="cls-1" cx="25" cy="25" r="25"/><path class="cls-2" d="M25,25.5a.54.54,0,0,1-.22-.05l-10-5a.5.5,0,0,1,0-.9l10-5a.49.49,0,0,1,.44,0l10,5a.5.5,0,0,1,0,.9l-10,5A.54.54,0,0,1,25,25.5ZM16.12,20,25,24.44,33.88,20,25,15.56Z"/><path class="cls-2" d="M25,35.5a.54.54,0,0,1-.22,0l-10-5a.5.5,0,0,1,.44-.9L25,34.44l9.78-4.89a.5.5,0,0,1,.44.9l-10,5A.54.54,0,0,1,25,35.5Z"/><path class="cls-2" d="M25,30.5a.54.54,0,0,1-.22-.05l-10-5a.5.5,0,0,1,.44-.9L25,29.44l9.78-4.89a.5.5,0,0,1,.44.9l-10,5A.54.54,0,0,1,25,30.5Z"/></g></g></svg>