<svg xmlns="http://www.w3.org/2000/svg" viewBox="0 0 107.55 119.66"><defs><style>.cls-1{fill:#5045b3;}.cls-2{fill:#f14a36;}.cls-3{fill:#143827;}.cls-4{fill:#cf394b;}.cls-5,.cls-6{fill:#fdf6e6;}.cls-6{fill-rule:evenodd;}</style></defs><g id="Capa_2" data-name="Capa 2"><g id="Arte"><rect class="cls-1" width="107.55" height="119.66" rx="6.82"/><path class="cls-2" d="M67.58,94.49H15.63V32.38H66.46c17.07,0,25.09,6.81,25.09,16.32v.75c0,6.34-5.6,11.94-16.51,14.08,12,2,16.88,7.09,16.88,14.27v.74C91.92,87.59,84.46,94.49,67.58,94.49ZM59.75,54.67c0-2.8-1.78-3.92-6.63-3.92h-5v8.12h5c4.85,0,6.63-1.21,6.63-3.92Zm0,17.53c0-2.7-1.78-3.91-6.63-3.91h-5V76.4h5c4.85,0,6.63-1.12,6.63-3.92Z"/><rect class="cls-3" x="4.81" y="77.01" width="18.12" height="17.6" transform="translate(27.74 171.61) rotate(180)"/><path class="cls-4" d="M4.44,79.71H28.65V69.3h-21a2.05,2.05,0,0,0-2,1.55l-2,7.91A.76.76,0,0,0,4.44,79.71Z"/><polygon class="cls-4" points="18.14 78.88 30.02 65.76 41.89 78.88 40.21 78.88 40.21 94.6 19.91 94.6 19.91 78.88 18.14 78.88"/><rect class="cls-5" x="31.46" y="83.04" width="6.45" height="11.56" transform="translate(69.38 177.65) rotate(180)"/><rect class="cls-3" x="9.18" y="66.59" width="3.02" height="5.52" transform="translate(21.39 138.71) rotate(180)"/><path class="cls-5" d="M27.09,74.72A2.81,2.81,0,1,0,29.9,71.9,2.81,2.81,0,0,0,27.09,74.72Z"/><polyline class="cls-5" points="41.89 78.88 40.48 78.88 30.02 67.32 19.55 78.88 18.14 78.88 30.02 65.76"/><rect class="cls-5" x="22.31" y="83.04" width="7.09" height="6.28" transform="translate(51.71 172.37) rotate(180)"/><rect class="cls-5" x="7" y="83.04" width="10.1" height="3.14" transform="translate(24.09 169.23) rotate(180)"/><path class="cls-6" d="M80.28,22.07v4.87c0,1.93,1.41,3.21,2.21,4s1.29,2,1.29,5.74S83.67,47,83.67,50.12c0,8.48-16.15,8.48-16.15,0,0-3.14-.11-9.67-.11-13.39s.48-4.91,1.29-5.74,2.21-2.12,2.21-4V22.07A4.69,4.69,0,1,1,80.28,22.07Z"/><path class="cls-3" d="M79.55,40.92a.18.18,0,0,0,.07-.25.19.19,0,0,0-.25-.06l-3.44,2V34.65l3.62-2.09a.18.18,0,1,0-.18-.32l-3.44,2V26.28l2.36-1.36a.18.18,0,0,0,.07-.25.19.19,0,0,0-.25-.06l-2.18,1.25V21.24a.3.3,0,0,0-.6,0v6.93l-1.43-.82a.18.18,0,0,0-.25.07.17.17,0,0,0,.07.24l1.61.93V38.5L71.1,36.06a.18.18,0,0,0-.18.32l4.41,2.54v9.51L71.1,46a.19.19,0,0,0-.25.06.18.18,0,0,0,.07.25l4.41,2.55v45h.6V51.38l3.62-2.09a.18.18,0,1,0-.18-.32l-3.44,2V43Z"/></g></g></svg>