<svg xmlns="http://www.w3.org/2000/svg" xmlns:xlink="http://www.w3.org/1999/xlink" viewBox="0 0 80.65 65"><defs><style>.cls-1{fill:none;}.cls-2{fill:#f2a742;}.cls-3{clip-path:url(#clip-path);}.cls-4{fill:#3595e0;}.cls-5{fill:#7ac943;}.cls-6{fill:#6bdbb7;}.cls-7{fill:#1a2e35;}.cls-8{fill:#face33;}.cls-9{fill:#eb6654;}.cls-10{fill:#dcdcdc;}.cls-11{fill:#ececec;}</style><clipPath id="clip-path"><rect class="cls-1" width="80.65" height="65" rx="4"/></clipPath></defs><g id="Capa_2" data-name="Capa 2"><g id="Arte"><rect class="cls-2" width="80.65" height="65" rx="4"/><g class="cls-3"><path class="cls-4" d="M15.1,40.75C24,29.31,18.67,12.21,32.53,8A26.25,26.25,0,1,1,47.87,58.18C34,62.42,1.94,57.64,15.1,40.75Z"/><path class="cls-5" d="M19,24.17h0A5.18,5.18,0,0,1,13.85,19h0A5.18,5.18,0,0,1,19,13.82h0A5.18,5.18,0,0,1,24.2,19h0A5.18,5.18,0,0,1,19,24.17Z"/><path class="cls-6" d="M19,38h0a5.17,5.17,0,0,1-5.17-5.17h0A5.17,5.17,0,0,1,19,27.64h0a5.17,5.17,0,0,1,5.18,5.17h0A5.17,5.17,0,0,1,19,38Z"/><polygon class="cls-7" points="18.31 22.09 14.61 18.4 16.13 16.88 18.31 19.06 25.24 12.13 26.75 13.65 18.31 22.09"/><rect class="cls-7" x="13.78" y="31.92" width="10.87" height="2.14" transform="translate(-17.7 23.25) rotate(-45)"/><rect class="cls-7" x="18.04" y="27.46" width="2.14" height="10.87" transform="translate(-17.66 23.15) rotate(-45)"/><path class="cls-7" d="M33.75,41.79a15.38,15.38,0,0,0,2.84,1.89c-1.4-2.55-.65-8-.52-7.2.61,3.81,2.88,8.11,3.88,8.4h0a13,13,0,0,0,7.36-.74h0c-1.85-2.91-1.25-8.47-1.14-8.12,1.2,3.76,4.19,6.15,4.74,6.19h0c2.2-1.55,3.44-3.18,3.16-3.38-2-1.44-3.5-4.87-4.8-8.46h0c-1.29-3.54-1.78-8.7-3.76-11.93a6.86,6.86,0,0,0-8.35-2.61C30.69,19,32.53,40.77,33.75,41.79Z"/><path class="cls-7" d="M37.61,15.62a4.1,4.1,0,0,0-1.45.87A8.5,8.5,0,0,0,35,17.7a14.07,14.07,0,0,0-1.58,2.8c-.86,1.95-1.32,5.87-1.56,8a32.84,32.84,0,0,0,0,6.27c.05.52.12,1,.18,1.56l.23,1.56.3,1.55L33,40.92l-.25-1.55-.2-1.55-.18-1.56c0-.51-.1-1-.12-1.55a34.91,34.91,0,0,1,.09-6.22,36.54,36.54,0,0,1,1.45-7.9,14,14,0,0,1,1.45-2.8,8.14,8.14,0,0,1,1-1.24,5.35,5.35,0,0,1,.63-.53A2.84,2.84,0,0,1,37.61,15.62Z"/><path class="cls-7" d="M54.38,38.28A26,26,0,0,1,52.78,36c-.5-.79-1-1.6-1.39-2.42s-.82-1.66-1.16-2.51-.64-1.72-1-2.58c-.66-1.72-1.3-5.29-2.07-7-.4-.84-.81-1.67-1.28-2.49a12.77,12.77,0,0,0-.79-1.18,3.55,3.55,0,0,0-1.05-1,3.83,3.83,0,0,1,1,1c.26.39.48.8.7,1.21.43.82.81,1.66,1.16,2.51.72,1.7,1.35,5.26,2,7,.33.86.64,1.72,1,2.58a22.24,22.24,0,0,0,1.21,2.51A26.84,26.84,0,0,0,54.38,38.28Z"/><path class="cls-8" d="M38.81,36.92c1.69,3.8,8.3,16,12.39,16.76,2.68.48,13.38-.94,15.14-3.55.77-1.14-.87-8.81-2.29-8.45s-10,1.8-11.07,1.54S43.66,34.1,40.61,31.94C35.36,28.22,37.89,34.87,38.81,36.92Z"/><path class="cls-9" d="M60.77,41.24l.65,11.59s-8.46,1.86-12.15.59c-4.48-1.55-11-15.43-11.94-17.71-1.47-3.75-1.07-6,1-5.46a8.63,8.63,0,0,1,3.19,2c1.37,1.2,9.23,9,11.72,10.46C54.64,43.54,60.77,41.24,60.77,41.24Z"/><path class="cls-7" d="M59.3,52.66c-.14-1.71-.49-8.74-.46-10.26,0-.1.07-.13.08,0a94.52,94.52,0,0,1,.45,10.27A0,0,0,0,1,59.3,52.66Z"/><path class="cls-9" d="M29.72,54l15.45,0-1.28-8a6.84,6.84,0,0,0,1.48-4.65c-.38-2.65-5.15-9.36-5.55-9.74a4.72,4.72,0,0,0-5-1.24h0c-4.4,2.77-8,10.28-10.31,16.1A5.55,5.55,0,0,0,29.72,54Z"/><path class="cls-7" d="M42.34,34.78c.44.74.94,1.47,1.41,2.2-.19-.52-.38-1-.58-1.56,0,0,0,0,0,0A10.32,10.32,0,0,1,44,37.36a14.4,14.4,0,0,1,.93,1.73,6.69,6.69,0,0,1,.63,2.27,5.62,5.62,0,0,1-.33,2.34,15.17,15.17,0,0,1-1.17,2.48c-.06.11-.21,0-.16-.1a9.75,9.75,0,0,0,1.32-4.47,10.47,10.47,0,0,0-1.52-4.39,20,20,0,0,0-1.41-2.41S42.32,34.74,42.34,34.78Z"/><path class="cls-10" d="M49.67,52.27l-.46,2.64H63.84a1.8,1.8,0,0,0,1.7-1.44l.21-1.2Z"/><path class="cls-11" d="M48,53.47l.22-1.2h2.87l-.21,1.2a1.8,1.8,0,0,1-1.69,1.44,1.21,1.21,0,0,1-1-.42A1.26,1.26,0,0,1,48,53.47Z"/><path class="cls-10" d="M54.43,33.45,50.65,54.91H63.84a1.8,1.8,0,0,0,1.7-1.44L69.32,32H56.12a1.68,1.68,0,0,0-1.09.42A1.73,1.73,0,0,0,54.43,33.45Z"/><path class="cls-11" d="M56.12,32l-.76,4.33H71.43l.51-2.89A1.17,1.17,0,0,0,70.76,32Z"/><path class="cls-10" d="M54.43,33.45l-.51,2.89h2.87l.51-2.89A1.17,1.17,0,0,0,56.12,32a1.68,1.68,0,0,0-1.09.42A1.73,1.73,0,0,0,54.43,33.45Z"/><path class="cls-8" d="M67.38,40.31c.54,1.53,2.09,3.53,2.1,4.73a1.37,1.37,0,0,1-.92,1.37,2.05,2.05,0,0,1,1,1.82c-.08.56-1.06.92-1.06.92a1.66,1.66,0,0,1,.67,1.59c-.16.77-1.12,1-1.12,1a2,2,0,0,1,.15,1.71c-.85,1.49-7.58.77-8.35-1.82-.36-1.2,1.27-.94,1.27-.94s-2.26-.94-2.14-2.33,2.21-.92,2.21-.92-2.18-.94-1.92-2.37,2.29-.65,2.29-.65-1.38-1.18-.93-2.23c.74-1.73,3.33.83,4.85.63l1.07-2.35Z"/><path class="cls-8" d="M68.5,42.57c-.38-1.5,1.59-3.08,1.43-4.56-.22-2-2.63-.32-3.42,2.47l-.23,2.28Z"/><path class="cls-7" d="M67.87,51.81s0,0,0,0A11.76,11.76,0,0,1,61,50.7c-.07,0,0-.16,0-.14A23.8,23.8,0,0,0,67.87,51.81Z"/><path class="cls-7" d="M68.49,49.17a0,0,0,0,1,0,0,11,11,0,0,1-7.43-1.72c-.07,0-.09-.18,0-.12A19.71,19.71,0,0,0,68.49,49.17Z"/><path class="cls-7" d="M61.4,44.26a15.05,15.05,0,0,0,7.07,2.17s0,0,0,.06a10,10,0,0,1-4.09-.43,6.75,6.75,0,0,1-3-1.72S61.35,44.23,61.4,44.26Z"/><path class="cls-8" d="M36,30.19c0,.41,1.52,3.26,3.33,3.45.59.06,1.07-3.15,1.07-3.15l.09-.23,1.26-3.2L38.24,24l-.51-.42s-.29.9-.63,2c0,.05,0,.11-.05.16L37,25.9l-.15.51-.12.4-.11.41A21.85,21.85,0,0,0,36,30.19Z"/><path class="cls-7" d="M37.1,25.56a6.88,6.88,0,0,0,3.4,4.7l1.26-3.2L38.24,24l-.51-.42S37.44,24.44,37.1,25.56Z"/><path class="cls-8" d="M47.35,23.24c-.8,6-4.47,6.19-5.76,6s-5.14-.84-5-6.87,3.21-7.56,5.91-7.34S48.15,17.26,47.35,23.24Z"/><path class="cls-7" d="M37,22.45c1.38.29,1.8-1.9,1.8-1.9s1.6.16,2.21-2.35a3.93,3.93,0,0,0,2.52,2.41c.44.15-.84-1.31-.84-1.31a6.31,6.31,0,0,0,5,2c.25,0,.72-3.66-1.69-5.38a6.13,6.13,0,0,0-7.14-.14,4.28,4.28,0,0,0-2.46,2.45C35.83,20,36.5,22.35,37,22.45Z"/><path class="cls-9" d="M41.65,25.18a2,2,0,1,1,2.54-1.88h0a2,2,0,0,1-2.54,1.88Zm1-3.6a1.54,1.54,0,0,0-.43-.06,1.72,1.72,0,1,0,.43.06Z"/><path class="cls-9" d="M46.2,25.87a1.87,1.87,0,0,1-1-2.18,2.45,2.45,0,0,1,.64-1.32A1.34,1.34,0,0,1,47,21.94a1.36,1.36,0,0,1,1,.76,2.43,2.43,0,0,1,.2,1.45c-.17,1.1-1,1.88-1.78,1.75A.5.5,0,0,1,46.2,25.87ZM47,22.23l-.1,0a1.06,1.06,0,0,0-.92.35,2.11,2.11,0,0,0-.56,1.17c-.15.95.27,1.8.94,1.91s1.33-.58,1.48-1.53a2.1,2.1,0,0,0-.18-1.28A1.1,1.1,0,0,0,47,22.23Z"/><path class="cls-9" d="M44.09,23.52,44,23.29c.34-.2,1.09-.43,1.49.16l-.22.15C44.86,23.07,44.12,23.5,44.09,23.52Z"/><path class="cls-9" d="M35.19,22.64,35,22.49c.07-.1.74-1,1.34-1s4.06.89,4.21.92l-.06.26c-1-.25-3.71-.92-4.15-.91S35.37,22.4,35.19,22.64Z"/><path class="cls-8" d="M37.51,23s-.88-2.12-1.81-1.85-.57,3.16.33,3.74a1,1,0,0,0,1.46-.24Z"/><path class="cls-7" d="M35.82,21.93a0,0,0,0,0,0,0,2.59,2.59,0,0,1,1,1.87.57.57,0,0,0-.79-.34s0,0,0,0a.64.64,0,0,1,.62.37,2.64,2.64,0,0,1,.2.62c0,.06.14.06.13,0v0A2.27,2.27,0,0,0,35.82,21.93Z"/><path class="cls-11" d="M40.37,30.6l-.85,2.76-3.6-3.1-.85,1.17s3.7,5.08,3.7,4.84l.9-2.39,1.73,1.46-.47-4Z"/><path class="cls-7" d="M41.28,33.35c-.1-.66-.19-1.33-.32-2,0,0,0,0,0,0-.08.65.32,3.16.36,3.77h0c-.08-.07-1.59-1.29-1.61-1.26-.2.38-.87,2.12-.91,2.28-.58-.81-3-4-3.72-4.73,0,0-.06,0,0,0,.53.86,3.72,5.06,3.76,5A26.63,26.63,0,0,0,39.7,34a16.92,16.92,0,0,0,1.81,1.56C41.48,34.86,41.38,34,41.28,33.35Z"/><path class="cls-8" d="M34.81,35.84c-1.4,6-5.36,12.77-7.87,14.75-1.52,1.21-6.41,1.22-6.63-2s9.38-13.08,10.79-15S36.08,30.4,34.81,35.84Z"/><path class="cls-9" d="M34.81,35.84c-1.4,6-5.36,12.77-7.87,14.75-1.52,1.21-6.41,1.22-6.63-2s9.38-13.08,10.79-15S36.08,30.4,34.81,35.84Z"/><path class="cls-7" d="M22.71,51.05a6.33,6.33,0,0,0,2,0,5.47,5.47,0,0,0,1.84-.65,8.26,8.26,0,0,0,2.71-3q1.17-1.87,2.19-3.86c.69-1.31,1.31-2.66,1.92-4,.31-.68.59-1.38.88-2.07s.56-1.36.82-2.06l.18-.53s0,0,0,0c-.23.72-.45,1.45-.69,2.16l-.1.28c.25-.54.51-1.08.78-1.61,0,0,.06,0,.05,0-.24.55-.49,1.1-.75,1.64l-.39.8c-.12.33-.24.66-.38,1-.56,1.4-1.18,2.78-1.87,4.13s-1.43,2.67-2.22,4A9.92,9.92,0,0,1,27,50.47a5.14,5.14,0,0,1-3.85.78,3.64,3.64,0,0,1-.47-.14S22.68,51.05,22.71,51.05Z"/><path class="cls-8" d="M25.05,26.86c1-2.42,2.62-5.76,3.71-6.26a38.49,38.49,0,0,1,6.32-2.31c1.08-.09,4.91,1,5.6,1.71s-.4,1.84-2.59,1.65a18.06,18.06,0,0,0-3.1-.22c-.6.09-2.35,1.5-2.19,2.37A2.28,2.28,0,0,0,35,25c.92-.16,1.48-1.06,2.62-1.59s2.77,0,2.75.47-.62.54-1.86,1.85c-.8.84-1.38,2.5-3,3.87a29.45,29.45,0,0,0-2.51,2.66Z"/><path class="cls-8" d="M28.76,20.6a12.64,12.64,0,0,1,6-3.05c1.51-.17,5.63,3.35,5.26,4.21s-1.17.67-2.33.22c-.42-.17-2.51-1.59-3-1.2a14.36,14.36,0,0,0-2.07,2.73Z"/><path class="cls-7" d="M40,21.38a5.72,5.72,0,0,0-2.66-2.7s0,0,0,0A11.31,11.31,0,0,1,40,21.39S40,21.39,40,21.38Z"/><path class="cls-8" d="M28.76,20.6a12.64,12.64,0,0,1,6-3.05c1.51-.17,4.48,3.74,4.11,4.6s-1.54.64-2.71-.13c-.38-.25-1.51-1.59-2-1.21l-2.56,1.92Z"/><path class="cls-7" d="M32.63,21.87l.42-.39c.18-.16.37-.32.56-.46a1.82,1.82,0,0,1,.54-.34,1,1,0,0,1,.6,0,3.32,3.32,0,0,1,1.08.86,4,4,0,0,0,1.81,1.06,1.37,1.37,0,0,0,.57,0,1.08,1.08,0,0,0,.38-.17c.42-.42.2-1.08-.07-1.57a9,9,0,0,0-2.07-2.37L35.86,18a2.18,2.18,0,0,0-.75-.44,4,4,0,0,0-1.62.23s0,0,0,0a3.31,3.31,0,0,1,1.93-.27,2.34,2.34,0,0,1,.71.46l.68.56A12.56,12.56,0,0,1,38,19.76a4.74,4.74,0,0,1,.89,1.41,1.35,1.35,0,0,1-.27,1.36,1.21,1.21,0,0,1-1,.23,2.34,2.34,0,0,1-.59-.16,9.72,9.72,0,0,1-1.19-.71c-.37-.26-.66-.63-1-.86a.74.74,0,0,0-.61-.12,2,2,0,0,0-.56.3,6.31,6.31,0,0,0-1,.7C32.61,22,32.55,21.94,32.63,21.87Z"/><path class="cls-8" d="M27.88,21.54c.45-.52,1.58-2.86,2.25-3.49s3.52-2.69,4.5-2.31c1.24.47-.68,2.42-1.59,3.2a4.81,4.81,0,0,0-1.21,2.41Z"/><path class="cls-7" d="M34.38,17.61a11.18,11.18,0,0,0-.9.78,7.58,7.58,0,0,0-.81.79A4.4,4.4,0,0,0,32,20.7c-.06.19-.09.39-.14.58,0,0,0,0,0,0a7.62,7.62,0,0,1,.41-1,4.42,4.42,0,0,1,.59-1c.47-.59,1.06-1.07,1.53-1.66A0,0,0,0,0,34.38,17.61Z"/><path class="cls-7" d="M34.53,25a1.62,1.62,0,0,0,1.16-.39l.89-.7a4.12,4.12,0,0,1,1-.57,4.35,4.35,0,0,1,1.24-.2,2.35,2.35,0,0,1,1.2.17c.3.15.62.46.46.83a1.62,1.62,0,0,1-.34.44,3.37,3.37,0,0,1-.43.34c-.3.22-.62.41-.9.66a6.14,6.14,0,0,0-.9,1.18c-.1.15-.76,1.19-1,1.54a6.15,6.15,0,0,1-.7.83,8.63,8.63,0,0,1-.81.66,4.54,4.54,0,0,0-.83.75s0,0,0,0a4.54,4.54,0,0,1,1.41-1.35,25,25,0,0,0,2.43-3.41A16.65,16.65,0,0,1,40,24.4c.12-.11.3-.28.29-.46a.49.49,0,0,0-.3-.39,2,2,0,0,0-1.17-.14,5.47,5.47,0,0,0-1.2.2,3.77,3.77,0,0,0-.95.5c-.33.23-.66.47-1,.68a1.64,1.64,0,0,1-1.14.25S34.51,25,34.53,25Z"/><path class="cls-7" d="M40,19.68l-.81-.4a0,0,0,0,1,0,0c.32.13.65.24,1,.36a1,1,0,0,1,.63.52.75.75,0,0,1-.15.74,2,2,0,0,1-.71.48s0,0,0,0c.39-.23,1-.69.68-1.21A1.43,1.43,0,0,0,40,19.68Z"/><path class="cls-7" d="M38.73,22.29a1.7,1.7,0,0,0,.92-.16.63.63,0,0,0,.27-.29.52.52,0,0,0,.07-.21.42.42,0,0,0,0-.22s0,0,0,0a.61.61,0,0,0,.05.12.36.36,0,0,1,0,.11.5.5,0,0,1,0,.21.66.66,0,0,1-.27.38,1.17,1.17,0,0,1-1,.1S38.72,22.29,38.73,22.29Z"/><path class="cls-8" d="M32.94,32.28c-.66,2.41-5.75,15.3-7.17,17.11S20.92,51.61,20,48.32s4-19,5.09-21.46C25.64,25.5,33.19,31.4,32.94,32.28Z"/><path class="cls-9" d="M34.06,33.9l-10-5.79S19.8,42.77,19.72,47.28c0,3.25,3.83,5.67,6.91,1.29S34.06,33.9,34.06,33.9Z"/><path class="cls-7" d="M32.69,35.68c-1.51-.81-7.58-4.36-8.84-5.21-.09-.06-.07-.13,0-.08a92.59,92.59,0,0,1,8.84,5.23A0,0,0,0,1,32.69,35.68Z"/><path class="cls-7" d="M29.49,43.45c1.06-2,2.07-4,3-6,.26-.57.51-1.15.75-1.73s.47-1.11.68-1.68c-.21-.15-1.13-.75-1.23-.84s0-.08,0-.06a15.79,15.79,0,0,1,1.41.83s-.42,1.12-.63,1.65-.42,1.06-.64,1.58c-.43,1-.9,2-1.38,3.06s-1.07,2.17-1.65,3.23C29.33,44.37,28.13,46,29.49,43.45Z"/></g></g></g></svg>