<svg xmlns="http://www.w3.org/2000/svg" xmlns:xlink="http://www.w3.org/1999/xlink" viewBox="0 0 50 50"><defs><style>.cls-1{fill:url(#linear-gradient);}.cls-2{fill:#fff;}</style><linearGradient id="linear-gradient" x1="7.32" y1="42.68" x2="42.68" y2="7.32" gradientUnits="userSpaceOnUse"><stop offset="0" stop-color="#6bdbb7" stop-opacity="0.8"/><stop offset="1" stop-color="#6bdbb7"/></linearGradient></defs><g id="Capa_2" data-name="Capa 2"><g id="Arte"><circle class="cls-1" cx="25" cy="25" r="25"/><path class="cls-2" d="M32,34.5H18A2.5,2.5,0,0,1,15.5,32V18A2.5,2.5,0,0,1,18,15.5H32A2.5,2.5,0,0,1,34.5,18V32A2.5,2.5,0,0,1,32,34.5Zm-14-18A1.5,1.5,0,0,0,16.5,18V32A1.5,1.5,0,0,0,18,33.5H32A1.5,1.5,0,0,0,33.5,32V18A1.5,1.5,0,0,0,32,16.5Z"/><path class="cls-2" d="M34,22.5H16a.5.5,0,0,1,0-1H34a.5.5,0,0,1,0,1Z"/><path class="cls-2" d="M22,34.5a.5.5,0,0,1-.5-.5V22a.5.5,0,0,1,1,0V34A.5.5,0,0,1,22,34.5Z"/></g></g></svg>