<svg xmlns="http://www.w3.org/2000/svg" xmlns:xlink="http://www.w3.org/1999/xlink" viewBox="0 0 93.27 75.17"><defs><style>.cls-1{fill:none;}.cls-2{fill:#eb6654;}.cls-3{clip-path:url(#clip-path);}.cls-4{fill:#038d71;}.cls-5{fill:#face33;}.cls-6{fill:#1a2e35;}.cls-7{fill:#3595e0;}.cls-8{fill:#c8c8c8;}.cls-9{fill:#ececec;}.cls-10{fill:#f2a742;}</style><clipPath id="clip-path"><rect class="cls-1" width="93.27" height="75.17" rx="4.63"/></clipPath></defs><g id="Capa_2" data-name="Capa 2"><g id="Arte"><rect class="cls-2" width="93.27" height="75.17" rx="4.63"/><g class="cls-3"><path class="cls-4" d="M18.75,34.37a24.08,24.08,0,0,1,27.31-20.3C59.21,16,58.82,30.45,66.36,41.38c10,14.55-14.16,22.24-27.31,20.3A24.07,24.07,0,0,1,18.75,34.37Z"/><path class="cls-5" d="M31.71,33.87C33.83,41.62,40,51,42.85,52.27c2.53,1.13,14.28-3.22,18.71-6,1.26-.8-4-8.06-5.47-7.56-5,1.66-10.36,4.1-10.78,4-.84-.29-6.11-6.75-9.94-11.09C31.07,26.68,30.86,30.78,31.71,33.87Z"/><path class="cls-5" d="M70,39.67c1-.42,8.68-.66,8.68-2.33s-9.79-1.2-9.79-1.2Z"/><path class="cls-5" d="M55.2,39.87c1.35-1.67,2.53-3.47,3.69-3.8.81-.23,9.52.14,10.88.06s6.21,0,6.32,1.24c.16,1.68-5.58,1.67-6.2,2.53-2.11,3-10.16,7.37-10.16,7.37Z"/><path class="cls-6" d="M76.22,37.39a1.36,1.36,0,0,0-.56-.75,4.14,4.14,0,0,0-2.08-.51,18.76,18.76,0,0,0-3.18,0s0,0,0,0c.79,0,1.59,0,2.38.09a9.9,9.9,0,0,1,2.16.33,1.74,1.74,0,0,1,.83.5.71.71,0,0,1,.16.64c-.23.73-1.68.95-2.35,1.1-.87.2-1.78.37-2.66.55,0,0,0,.06,0,.06.91-.18,1.88-.25,2.79-.42a4.45,4.45,0,0,0,2.14-.78A.83.83,0,0,0,76.22,37.39Z"/><path class="cls-7" d="M54.87,38.84l6.88,10.08S51.07,54.27,47,54.17c-3.88-.09-5.29-.66-6.52-1.82-.76-.72-5.08-6.82-8.6-17-3-8.51,1.42-7.25,5.32-2.54,1.94,2.35,8.16,9.34,8.47,9.32S54.87,38.84,54.87,38.84Z"/><path class="cls-6" d="M52.75,40.48c1,1.49,2,3,3,4.54.48.75,2.26,3.81,2.78,4.67,0,0-.07.09-.09.06-.54-.76-2.49-3.81-3-4.57-.94-1.55-1.88-3.1-2.77-4.68C52.69,40.48,52.73,40.45,52.75,40.48Z"/><rect class="cls-8" x="48.24" y="34.7" width="26.11" height="1.4"/><polygon class="cls-6" points="74.35 34.7 74.35 36.1 58.49 36.1 59.56 34.7 74.35 34.7"/><path class="cls-7" d="M14.09,63.13c.07.07,27.34-.12,27.58-.41s-6.11-29.88-9-33.5c-.61-.78-2.58-1-4.26-.75a7.47,7.47,0,0,0-1.29.28h0a3.23,3.23,0,0,0-.95.48C21.55,33,17.75,46.09,16.87,50,15.42,56.48,13.86,62.88,14.09,63.13Z"/><path class="cls-5" d="M22.78,32c-7.1,7.19-16,22.32-14.36,25.39,1.85,3.42,11.74-6.67,11.7-7.25s3.45-9.64,6.09-16.33S24.54,30.17,22.78,32Z"/><path class="cls-7" d="M20.19,50.1c.3-1,5-13.11,6.38-16.94s.1-5-3.76-1.51S10.48,46.89,8.55,53.12c-1.86,6,1.22,6,5.3,3.23A32.71,32.71,0,0,0,20.19,50.1Z"/><path class="cls-6" d="M20.19,50.1a40.75,40.75,0,0,1,1.92-6.49A40.19,40.19,0,0,1,25,37.47,39.74,39.74,0,0,1,23.05,44,42.19,42.19,0,0,1,20.19,50.1Z"/><path class="cls-6" d="M25.26,38.31a1.42,1.42,0,0,1-.18,1.25,1.34,1.34,0,0,1-1.14.61A1.87,1.87,0,0,1,24.25,39,1.74,1.74,0,0,1,25.26,38.31Z"/><path class="cls-5" d="M8.42,57.34c1.6,2.29,5.95,2.72,16.79,4.85,1.5.29,6.43-9.74,4.84-10.14-2-.5-9.86-2-10.45-2C14.63,49.7,7.34,55.79,8.42,57.34Z"/><path class="cls-5" d="M27.88,51.56a32.07,32.07,0,0,1,6.9,1.8,16.43,16.43,0,0,1,5.92,5.17c1.66,2.34,4,9.15,2.2,10.18-1.67.93-3.75-6.15-3.75-6.15s3.32,6.87,1.1,7.62-4.16-7.61-4.16-7.61,3.25,7.14.84,7.56c-1.81.31-4-7.16-4-7.16s2.75,6.15.9,6.55c-2.05.45-4.51-6.32-4.51-6.32-4.89.23-7.31-1.66-8.88-3.21C20.05,59.61,27.88,51.56,27.88,51.56Z"/><path class="cls-6" d="M38.15,60.11c.42.79.85,1.59,1.2,2.42s.66,1.67.93,2.52A15.72,15.72,0,0,1,41,68.48a32.86,32.86,0,0,0-1.89-5.86c-.35-.83-.65-1.67-1-2.5C38.11,60.1,38.14,60.09,38.15,60.11Z"/><path class="cls-6" d="M35.14,61.31c.49,1,1,2,1.46,3.1s.78,2.09,1.15,3.17c0,.09,0,.07-.06,0-.41-1.06-.88-2-1.3-3.08s-.81-2.13-1.27-3.17C35.11,61.3,35.13,61.29,35.14,61.31Z"/><path class="cls-6" d="M32.37,61.87a26.14,26.14,0,0,1,1.88,4.92c0,.08,0,.06-.08,0-.59-1.65-1-2.95-1.85-4.87C32.31,61.87,32.36,61.84,32.37,61.87Z"/><path class="cls-7" d="M28.84,51.56l-9.5,10.58s-9.61-2.21-11-4.67c-.93-1.62,6.3-8.19,11.77-7.43Z"/><path class="cls-6" d="M13.56,51.76A9.48,9.48,0,0,1,20.08,50s0,0,0,0a15.44,15.44,0,0,0-6.5,1.72S13.54,51.78,13.56,51.76Z"/><path class="cls-6" d="M16.74,60.37c1-1.22,2-2.39,3.08-3.55s2.1-2.33,3.18-3.47c.61-.64,1.21-1.29,1.85-1.91,0,0,0,0,0,0-1,1.22-2,2.39-3.07,3.55s-2.09,2.34-3.16,3.49c-.6.65-1.22,1.29-1.85,1.91C16.77,60.45,16.71,60.4,16.74,60.37Z"/><path class="cls-6" d="M28.86,51.42A15.31,15.31,0,0,0,27.08,51l-1.81-.31A37.32,37.32,0,0,0,19.35,50s.1.12.12.12c1.05-.06,8.6,1.45,9.22,1.49l-.06.13s0,.07.05,0l.2-.17A.09.09,0,0,0,28.86,51.42Z"/><path class="cls-6" d="M14.45,60.76a9.36,9.36,0,0,1,2.56.3,17.91,17.91,0,0,1,2.39.75l-.31.1a6.77,6.77,0,0,1,1.07-.69,6.84,6.84,0,0,1-.57,1.15l-.07.11h-.24A8,8,0,0,1,16.74,62,7.35,7.35,0,0,1,14.45,60.76Z"/><path class="cls-5" d="M31.57,33c-1.31.14-3.77-1.66-4.45-3.58a29.14,29.14,0,0,1,.74-2.92c.24-.93.48-2,.63-2.94,0-.2,5.85,2.44,5.85,2.44a15.58,15.58,0,0,0-1.18,3.63,2.75,2.75,0,0,0,0,.4v.07C33.14,30.83,33,32.8,31.57,33Z"/><path class="cls-6" d="M33.14,30v.07a5.26,5.26,0,0,1-.63-.07c-3.56-.64-3.8-5.27-3.8-6.44,1.05.33,5.63,2.41,5.63,2.41a15.77,15.77,0,0,0-1.18,3.63A2.75,2.75,0,0,0,33.14,30Z"/><path class="cls-5" d="M28.56,15.79c-.94,2.08-.58,8.48.79,10.07,2,2.31,5.61,3,7.66.49s1.38-10.73-.18-12.21A5.43,5.43,0,0,0,28.56,15.79Z"/><path class="cls-6" d="M28,21.32s-1.55-3.84-1-5.83c.23-.9,1.58-1.31,1.58-1.31a2.1,2.1,0,0,1,1-2c1.24-.84,3.82-.18,3.82-.18s2.1-2.18,4.34-.82S38,15,38,15s.68,1.39-1.63,2S30,16,30,16a15.39,15.39,0,0,1-.79,4.42A1.38,1.38,0,0,1,28,21.32Z"/><path class="cls-6" d="M33.81,12.13a4.31,4.31,0,0,0-1.64-.59,4.74,4.74,0,0,0-1.55,0,2.55,2.55,0,0,0-2.09,1.61,1.79,1.79,0,0,0,.12,1.38s0,0,0,0a1.85,1.85,0,0,1,.69-2.28,3.85,3.85,0,0,1,2.68-.52,7.6,7.6,0,0,1,1.74.47S33.84,12.14,33.81,12.13Z"/><path class="cls-6" d="M39.26,12.65a2.08,2.08,0,0,0-1.2-1.54,3.61,3.61,0,0,0-2.29-.29,4.56,4.56,0,0,0-2.08,1.07s0,0,0,0a3.93,3.93,0,0,1,3.93-.78A2.16,2.16,0,0,1,39,12.44a2.14,2.14,0,0,1-.34,1.77,4.1,4.1,0,0,1-1.8,1.3s0,0,0,0a4.05,4.05,0,0,0,1.75-1.06A2.31,2.31,0,0,0,39.26,12.65Z"/><path class="cls-6" d="M36.84,17.26a7.36,7.36,0,0,1-3.1,0,15.22,15.22,0,0,1-3.1-.95c-.59-.25-1.16-.51-1.73-.79,0,0,0,0,0,0A17,17,0,0,0,32,17.11a8.42,8.42,0,0,0,3.14.48,7.22,7.22,0,0,0,1.73-.31S36.85,17.25,36.84,17.26Z"/><path class="cls-5" d="M29.49,21.16s-1.2-2.18-2.18-1.77-.21,3.46.82,4a1.12,1.12,0,0,0,1.54-.44Z"/><path class="cls-6" d="M27.55,20.26s0,0,0,0a2.75,2.75,0,0,1,1.25,1.89.61.61,0,0,0-.89-.27,0,0,0,0,0,0,.05.67.67,0,0,1,.72.31,3.07,3.07,0,0,1,.29.64c0,.07.16.05.14,0v0A2.44,2.44,0,0,0,27.55,20.26Z"/><path class="cls-9" d="M33.24,29.08l-1.61,3.49-4.2-4.74L26.1,29.22s4,7.38,4,7.06l1.63-3,2,2.25.1-5.37Z"/><path class="cls-6" d="M34,32.88c0-.89,0-1.79-.05-2.67,0,0,0-.05-.06,0a45.16,45.16,0,0,0-.2,5.05h0c-.09-.1-1.87-2-1.89-2-.35.48-1.54,2.66-1.62,2.86-.63-1.18-3-5.45-3.8-6.57a0,0,0,1,0-.05,0c.54,1.23,3.73,7,3.78,7a34.35,34.35,0,0,0,1.71-3.17,22.68,22.68,0,0,0,2.1,2.39A28.2,28.2,0,0,0,34,32.88Z"/><rect class="cls-5" x="50.33" y="14.92" width="2.86" height="19.31"/><rect class="cls-7" x="55.86" y="10.72" width="2.86" height="23.52"/><polyline class="cls-10" points="64.25 34.23 61.39 34.23 61.39 15.96 64.25 15.96"/><rect class="cls-5" x="67.66" y="11.81" width="2.86" height="22.42"/><polygon class="cls-8" points="62.39 35.98 79.85 35.98 88.94 20.55 71.47 20.55 62.39 35.98"/></g></g></g></svg>