<svg xmlns="http://www.w3.org/2000/svg" xmlns:xlink="http://www.w3.org/1999/xlink" viewBox="0 0 109.97 119.66"><defs><style>.cls-1{fill:none;}.cls-2{clip-path:url(#clip-path);}.cls-3{fill:#f4a833;}.cls-4{fill:#face33;}.cls-5{fill:#038d71;}.cls-6{fill:#f14a36;}.cls-7{fill:#5045b3;}.cls-8{fill:#fff;}</style><clipPath id="clip-path"><rect class="cls-1" width="109.97" height="119.66" rx="5"/></clipPath></defs><g id="Capa_2" data-name="Capa 2"><g id="Arte"><g class="cls-2"><polygon class="cls-3" points="0 0 0 58.43 56.07 58.43 109.97 119.66 109.97 119.66 109.97 0 0 0"/><polygon class="cls-4" points="0 119.66 53.9 119.66 0 58.43 0 119.66"/><polygon class="cls-5" points="0 58.43 53.9 119.66 109.97 119.66 56.07 58.43 0 58.43"/><polygon class="cls-6" points="53.9 58.43 0 0 56.07 0 109.97 58.43 53.9 58.43"/><path class="cls-7" d="M41.46,0c0,.49-.06,1-.06,1.48,0,20.12,15.35,36.44,34.28,36.44S110,21.6,110,1.48c0-.5,0-1-.06-1.48Z"/></g><path class="cls-8" d="M44.4,69.46H38.69V48.58H44.4Z"/><path class="cls-8" d="M58.13,66.49a3.19,3.19,0,0,1-.92,2.3,3.11,3.11,0,0,1-2.28.94,3.18,3.18,0,0,1-2.31-1,3.22,3.22,0,0,1,0-4.59,3.24,3.24,0,0,1,3.91-.5,3.08,3.08,0,0,1,1.18,1.17A3.24,3.24,0,0,1,58.13,66.49Z"/><path class="cls-8" d="M76.14,69.46H60.28v-.41c.61-.59,1.29-1.3,2-2.12S64,65,65.13,63.66c.53-.61,1-1.22,1.5-1.81a15.94,15.94,0,0,0,1.2-1.72,10.1,10.1,0,0,0,.84-1.85A6.32,6.32,0,0,0,69,56.22a3.26,3.26,0,0,0-.84-2.34,2.79,2.79,0,0,0-2.13-.9c-1.71,0-3.4.88-5.09,2.65V50.71c.59-.39,1.08-.69,1.46-.92a11.49,11.49,0,0,1,1.32-.68,10.05,10.05,0,0,1,4-.81,7.8,7.8,0,0,1,3.48.77,5.94,5.94,0,0,1,2.46,2.25,6.39,6.39,0,0,1,.9,3.42,8,8,0,0,1-.41,2.59,10.16,10.16,0,0,1-.84,1.94c-.29.5-.68,1.1-1.16,1.83a42,42,0,0,1-2.77,3.67h6.76Z"/></g></g></svg>