<svg xmlns="http://www.w3.org/2000/svg" xmlns:xlink="http://www.w3.org/1999/xlink" viewBox="0 0 109.97 119.66"><defs><style>.cls-1{fill:none;}.cls-2{clip-path:url(#clip-path);}.cls-3{fill:#038d71;}.cls-4{fill:#5045b3;}.cls-5{fill:#f4a833;}.cls-6{fill:#f14a36;}.cls-7{fill:#face33;}.cls-8{fill:var(--azul-igac);}.cls-9{fill:#fff;}</style><clipPath id="clip-path"><rect class="cls-1" width="109.97" height="119.66" rx="5"/></clipPath></defs><g id="Capa_2" data-name="Capa 2"><g id="Arte"><g class="cls-2"><rect class="cls-3" width="109.97" height="119.66"/><circle class="cls-4" cx="21.42" cy="72.43" r="10.03"/><circle class="cls-4" cx="21.42" cy="102.86" r="10.03"/><circle class="cls-4" cx="49.04" cy="72.43" r="10.03"/><circle class="cls-4" cx="49.04" cy="102.86" r="10.03"/><polygon class="cls-5" points="0 58.43 54.12 58.43 54.12 0 0 58.43"/><polygon class="cls-6" points="108.23 0 54.12 0 54.12 58.43 108.23 0"/><polygon class="cls-5" points="54.12 58.43 109.97 58.43 109.97 116.86 54.12 58.43"/><polygon class="cls-7" points="0 0 54.12 0 54.12 58.43 0 0"/><polygon class="cls-8" points="54.12 0 109.97 0 109.97 58.43 54.12 0"/></g><path class="cls-9" d="M42,69.46h-5.7V48.58H42Z"/><path class="cls-9" d="M55.77,66.49a3.16,3.16,0,0,1-.93,2.3,3.11,3.11,0,0,1-2.28.94,3.2,3.2,0,0,1-2.31-1,3.22,3.22,0,0,1,0-4.59,3.24,3.24,0,0,1,3.91-.5,3.08,3.08,0,0,1,1.18,1.17A3.25,3.25,0,0,1,55.77,66.49Z"/><path class="cls-9" d="M72.48,63.66a5.68,5.68,0,0,1-.65,2.8,5.55,5.55,0,0,1-1.71,1.89,7.2,7.2,0,0,1-2.25,1.05,8.59,8.59,0,0,1-2.31.33,15.4,15.4,0,0,1-3.49-.45,15.87,15.87,0,0,1-3.21-1.06V63.54A11.38,11.38,0,0,0,61.14,65a5.74,5.74,0,0,0,2.51.59,3.47,3.47,0,0,0,1.65-.36,2.64,2.64,0,0,0,1-.91,2.18,2.18,0,0,0,.34-1.17,2.49,2.49,0,0,0-.42-1.42,2.87,2.87,0,0,0-1.22-1,4.32,4.32,0,0,0-1.86-.37h-.67V57h.79A3.31,3.31,0,0,0,65,56.62a2.54,2.54,0,0,0,1-1,2.25,2.25,0,0,0,.3-1.06,2.31,2.31,0,0,0-.73-1.68,2.59,2.59,0,0,0-1.89-.73,6.59,6.59,0,0,0-2.16.39,9,9,0,0,0-2.1,1.06v-4a23.24,23.24,0,0,1,2.78-1,11,11,0,0,1,2.93-.35,7.72,7.72,0,0,1,4,.92,6,6,0,0,1,2.32,2.22,5,5,0,0,1,.73,2.44,4.64,4.64,0,0,1-.41,1.87,6,6,0,0,1-1.06,1.66,5.6,5.6,0,0,1-1.36,1.13,7.23,7.23,0,0,1,2.21,1.83A5,5,0,0,1,72.48,63.66Z"/></g></g></svg>