<svg xmlns="http://www.w3.org/2000/svg" xmlns:xlink="http://www.w3.org/1999/xlink" viewBox="0 0 109.97 119.66"><defs><style>.cls-1{fill:none;}.cls-2{clip-path:url(#clip-path);}.cls-3{fill:#3595e0;}.cls-4{fill:#038d71;}.cls-5{fill:#f4a833;}.cls-6{fill:#face33;}.cls-7{fill:#5045b3;}.cls-8{fill:#fff;}</style><clipPath id="clip-path"><rect class="cls-1" width="109.97" height="119.66" rx="5"/></clipPath></defs><g id="Capa_2" data-name="Capa 2"><g id="Arte"><g class="cls-2"><rect class="cls-3" width="109.97" height="119.66"/><polygon class="cls-4" points="59.52 59.68 0 59.68 0 119.36 59.52 59.68"/><polygon class="cls-5" points="0 59.68 59.52 59.68 59.52 0 0 59.68"/><polygon class="cls-4" points="59.52 59.68 109.97 59.68 109.97 0 59.52 59.68"/><polygon class="cls-6" points="59.52 59.68 109.97 59.68 109.97 119.36 59.52 59.68"/><path class="cls-7" d="M32.16,119.36c0-.14,0-.28,0-.42,0-17.53,13-31.75,29-31.75s29,14.22,29,31.75c0,.14,0,.28,0,.42Z"/></g><path class="cls-8" d="M47,69.46H41.29V48.58H47Z"/><path class="cls-8" d="M60.73,66.49a3.19,3.19,0,0,1-.92,2.3,3.12,3.12,0,0,1-2.29.94,3.17,3.17,0,0,1-2.3-1,3.22,3.22,0,0,1,0-4.59,3.16,3.16,0,0,1,2.3-.94,3.2,3.2,0,0,1,1.61.44,3.08,3.08,0,0,1,1.18,1.17A3.24,3.24,0,0,1,60.73,66.49Z"/><path class="cls-8" d="M73.62,69.46H67.91V48.58h5.71Z"/></g></g></svg>