<svg xmlns="http://www.w3.org/2000/svg" xmlns:xlink="http://www.w3.org/1999/xlink" viewBox="0 0 93.27 75.17"><defs><style>.cls-1{fill:none;}.cls-2{fill:#1e4a93;}.cls-3{clip-path:url(#clip-path);}.cls-4{fill:#f2a742;}.cls-5{fill:#eb6654;}.cls-6{fill:#f0f4ff;}.cls-7{fill:#fff;}.cls-8{fill:var(--azul-igac);}.cls-9{fill:#1a2e35;}.cls-10{fill:#face33;}.cls-11{fill:#2b454e;}.cls-12{fill:#455a64;}.cls-13{fill:#495ad6;}</style><clipPath id="clip-path"><rect class="cls-1" width="93.27" height="75.17" rx="4.63"/></clipPath></defs><g id="Capa_2" data-name="Capa 2"><g id="Arte"><rect class="cls-2" width="93.27" height="75.17" rx="4.63"/><g class="cls-3"><path class="cls-4" d="M17.62,50.65c-8.73-17.24,6.82-30.31,24.06-39s21.52,1.77,30.24,19,14.46,29.07-2.79,37.8S26.35,67.9,17.62,50.65Z"/><rect class="cls-5" x="15.54" y="8.85" width="30.16" height="22.33" rx="1.83"/><circle class="cls-6" cx="39.59" cy="14.75" r="4.37"/><path class="cls-7" d="M33.27,31.18H17.38a1.84,1.84,0,0,1-1.84-1.83V26.41l7-12a1,1,0,0,1,1.64,0l5.25,9.1,3.9,6.75A.91.91,0,0,1,33.27,31.18Z"/><path class="cls-8" d="M40.13,31.18H24.93l4.46-7.72,2.4-4.16a.85.85,0,0,1,1.47,0Z"/><path class="cls-9" d="M37,44.05c1.44.75,1.72,3.34,6.27,3.2.65,0,1.18-.28,1.77-.06a13,13,0,0,1,2.34,1.52,5,5,0,0,0,2.07.8,6.17,6.17,0,0,0,4.07-.94c.75-.46,1.38-1.09,2.1-1.59s5.07-1.54,5.8-4c.47-1.56.4-3.33-1.45-5.6a2.8,2.8,0,0,1-.83-1.51,3.26,3.26,0,0,1,.34-1.46,2.92,2.92,0,0,0,.26-1.67,3.68,3.68,0,0,0-1-1.43c-.68-.82-.55-2,0-3.47a4.3,4.3,0,0,0-.44-3.77,8.79,8.79,0,0,0-1.57-1.71,5.35,5.35,0,0,1-1.35-2.63A5.86,5.86,0,0,0,52.34,16c-1.18-.59-1.14-.37-2.4-.17a6.56,6.56,0,0,0-4.25-.93,7.22,7.22,0,0,0-3.55,2,4.1,4.1,0,0,0-1.82,3c0,.77.16,1.53.12,2.29a3.19,3.19,0,0,1-1.24,2.21,5.76,5.76,0,0,0-1.89,3.18c-.17,1,.85,2.65-.34,4.19-1.06,1.35-2.92,2.91-3.4,4.62C32.05,41.6,35.65,43.34,37,44.05Z"/><path class="cls-9" d="M62.65,44s0,0,0,0a5.94,5.94,0,0,0-.26-3.88c-.34-.82-.83-1.55-1.16-2.37-.06-.14-.11-.28-.16-.42.47.63,1.1,1.17,1.56,1.79A3.78,3.78,0,0,1,63,43.51,4.29,4.29,0,0,1,62.65,44Z"/><path class="cls-9" d="M34,41.25s.09,0,.07,0a4.53,4.53,0,0,1,.07-4.51c-.34,2.1.08,4.46,2,5.58,0,0,.06,0,0-.05-2-1.19-2.28-3.9-1.75-6a12.51,12.51,0,0,1,1.54-2A17.13,17.13,0,0,0,38.62,31a2.84,2.84,0,0,1-1.12,1.77s0,.09,0,.06A3.06,3.06,0,0,0,38.8,31a2.42,2.42,0,0,0,.05-.47,3.86,3.86,0,0,0,.33-1.23s0,0,0,0a4.15,4.15,0,0,1-.31,1.11,9.41,9.41,0,0,0-.45-1.94c-.49-1.82.43-2.9,1.56-3.87l.28-.18A3.87,3.87,0,0,0,41.74,23a2.73,2.73,0,0,0,.23-.25h0l-.18.18a2.76,2.76,0,0,0,.19-.53s0,0,0,0a2.69,2.69,0,0,1-.51.83c-.45.37-.95.72-1.42,1.09a4.05,4.05,0,0,0-2.13,2.14,8.16,8.16,0,0,0,0,3.19A3.35,3.35,0,0,1,36,33.32s0,0,0,0,.22-.07.33-.12a5.67,5.67,0,0,0-2,2.63A5,5,0,0,0,34,41.25Zm3.79-9.14-.5.38a2.87,2.87,0,0,0,.54-.93c.41-1.15.07-2.41,0-3.59a3.12,3.12,0,0,1,1.11-2.63,3.62,3.62,0,0,0-.75,1.31,4.32,4.32,0,0,0,.27,2.53,4,4,0,0,1,.19,1.64A7.54,7.54,0,0,1,37.74,32.11ZM34.68,35.3a7.38,7.38,0,0,1,2.09-2.36l.17-.15.7-.57C36.69,33.29,35.5,34.24,34.68,35.3Z"/><path class="cls-9" d="M36.92,42.59s0,0,0,0S36.91,42.59,36.92,42.59Z"/><path class="cls-8" d="M51.52,38.06c9.31,8.21,18,17.21,18.68,21.84,1,6.42-2.94,8.25-4.71,8.28-4.82.1-13.8-19.34-16.94-26.77C45.51,34.19,49.48,36.26,51.52,38.06Z"/><path class="cls-8" d="M57.32,60.18l-.72-4.5s3.23-3.34,1.56-6.84c-.84-1.77-6.58-10.42-9.64-12.6-2.88-2-6.28-.34-7.56,1.87-3.22,5.56-6.28,12-8.14,25.74H54.19A3.17,3.17,0,0,0,57.32,60.18Z"/><path class="cls-9" d="M52.78,54.63a25.36,25.36,0,0,0-3.87.72c-.63.17-1.24.37-1.86.59-.3.11-.61.2-.92.3a4.24,4.24,0,0,1-1,.21s0,0,0,0a6.2,6.2,0,0,0,1,0,7.36,7.36,0,0,0,.91-.19c.64-.18,1.27-.38,1.91-.55,1.28-.36,2.57-.72,3.87-1C52.85,54.73,52.84,54.62,52.78,54.63Z"/><path class="cls-9" d="M56,55.72a29.15,29.15,0,0,0-3.24-.09c-.54,0-1.07.07-1.61.13l-.77.1c-.28,0-.56.12-.84.16a0,0,0,0,0,0,0c.27,0,.54,0,.81,0l.81,0,1.61-.07c1.08-.06,2.16-.11,3.24-.13C56.09,55.81,56.08,55.73,56,55.72Z"/><path class="cls-8" d="M40.63,37.26C32,44.07,23.45,55.83,23.39,62.41s2.2,5.86,2.84,5.82c3.93-.26,13.16-18.33,16-25.7S42.78,35.58,40.63,37.26Z"/><path class="cls-9" d="M31.45,63.16c.45-.82.92-1.63,1.36-2.45l1.35-2.46c.89-1.64,1.8-3.28,2.66-4.93s1.76-3.3,2.62-5c.43-.83.85-1.66,1.26-2.5s.8-1.69,1.2-2.54a50.14,50.14,0,0,1-2.15,5.19c-.79,1.7-1.66,3.36-2.53,5s-1.8,3.28-2.76,4.89S32.52,61.62,31.45,63.16Z"/><path class="cls-9" d="M41,45.5a7.23,7.23,0,0,1,.54-.85l.29-.4c.1-.13.2-.26.32-.39a2.59,2.59,0,0,1-.43.92A2.74,2.74,0,0,1,41,45.5Z"/><path class="cls-10" d="M67.48,50.39c-.45-3-1.36-7.29-2.46-8.17s-5.35-4-6.56-4.41S51.88,35.43,50.9,36c-.78.46.17,2.52,2.73,3.48a38.77,38.77,0,0,1,4.06,1.92c.65.28,2.25,2.37,1.83,3.32a2.7,2.7,0,0,1-2.85.77c-1-.44-1.27-2.41-2.42-3.33s-3.16-.78-3.27-.24.56.79,1.61,2.63c.67,1.18.75,4,2.27,6A34.54,34.54,0,0,1,57,54.35Z"/><path class="cls-9" d="M53.18,41.34a1.9,1.9,0,0,1-1-.44.82.82,0,0,1-.25-.66A.37.37,0,0,1,52,40s0,0,0,0a.94.94,0,0,1-.09.12l-.06.12a.69.69,0,0,0,0,.25A.86.86,0,0,0,52,41a1.34,1.34,0,0,0,1.15.4S53.19,41.35,53.18,41.34Z"/><path class="cls-10" d="M65,42.22c-1-1.52-3.5-4.24-6-5.15-1.67-.63-7.36,2.22-7.19,3.31s1.16,1.09,2.61.9c.52-.07,3.3-1.1,3.78-.52a17.27,17.27,0,0,1,1.59,3.7Z"/><path class="cls-9" d="M52,40c.7-1.17,2.24-1.81,3.78-2.32,0,0,0,0,0,0A13.48,13.48,0,0,0,52,40S52,40,52,40Z"/><path class="cls-10" d="M65,42.22c-1-1.52-3.5-4.24-6-5.15-1.67-.63-6.16,3-6,4.08s1.58,1.16,3.13.61c.5-.18,2.17-1.38,2.65-.8.69.83,2.38,2.9,2.38,2.9Z"/><path class="cls-9" d="M60.25,42.58c-.16-.24-.21-.33-.37-.56s-.33-.47-.51-.69a1.91,1.91,0,0,0-.52-.54,1.16,1.16,0,0,0-.69-.13,4.08,4.08,0,0,0-1.47.67,4.6,4.6,0,0,1-2.37.71,1.6,1.6,0,0,1-.64-.17,1,1,0,0,1-.39-.3c-.35-.59.08-1.28.52-1.76a10.48,10.48,0,0,1,3-2.12l.81-.38a2.34,2.34,0,0,1,1-.3,4.5,4.5,0,0,1,1.77.73,0,0,0,0,0,0,0,3.88,3.88,0,0,0-2.12-.85,2.93,2.93,0,0,0-.94.33q-.48.21-.93.45a11.57,11.57,0,0,0-1.72,1A5.29,5.29,0,0,0,53.31,40a1.57,1.57,0,0,0-.08,1.62,1.37,1.37,0,0,0,1,.53,2.89,2.89,0,0,0,.72,0,11.73,11.73,0,0,0,1.55-.47c.49-.2.93-.54,1.43-.7a1,1,0,0,1,.74,0,2.37,2.37,0,0,1,.55.5,7.28,7.28,0,0,1,.93,1.07C60.24,42.71,60.32,42.68,60.25,42.58Z"/><path class="cls-10" d="M65.75,43.54c-.36-.72-1-3.7-1.58-4.61s-3.26-4-4.48-3.9c-1.55.18.09,2.95.91,4.09a5.61,5.61,0,0,1,.71,3.09Z"/><path class="cls-9" d="M59.46,37.23a13.1,13.1,0,0,1,.8,1.15,8.19,8.19,0,0,1,.7,1.13,4,4,0,0,1,.32,1.27c0,.21,0,.43,0,.64s0,.47,0,.71c0,0,0,0,0,0,0-.42-.11-.86-.18-1.28a5.68,5.68,0,0,0-.4-1.27c-.37-.8-.91-1.52-1.29-2.32C59.39,37.23,59.44,37.2,59.46,37.23Z"/><path class="cls-9" d="M61.29,42.54a4.4,4.4,0,0,1-.37,2.17,9.33,9.33,0,0,1-.48,1c-.19.32-.42.63-.63.92a8.47,8.47,0,0,0-1.11,1.81,8.87,8.87,0,0,0-.57,2.08,5.68,5.68,0,0,1,.25-2.2,7,7,0,0,1,1.06-2,10.38,10.38,0,0,0,1.14-1.81A6.32,6.32,0,0,0,61.29,42.54Z"/><path class="cls-10" d="M65,68c-3-.41-5-5.44-8.42-14.3C56,52.1,63.89,42.55,65,44c1.35,1.8,5,11.8,5.36,14.53C71.07,63.87,68.56,68.43,65,68Z"/><path class="cls-8" d="M58.44,58.6l9.71-9.43s2.75,8.12,2.5,11.52S69.2,68,65.1,68.18C62,68.34,58.44,58.6,58.44,58.6Z"/><path class="cls-9" d="M61.58,65.13c-.35-.5-.67-1-1-1.54S60,62.53,59.75,62s-.53-1.09-.75-1.66a10.28,10.28,0,0,1-.56-1.73c.25.55.53,1.09.8,1.63l.81,1.61c.27.54.54,1.08.79,1.63S61.35,64.57,61.58,65.13Z"/><path class="cls-9" d="M60.53,60.25c.47-.52,1-1,1.49-1.49s1-1,1.52-1.45c1-1,2.05-1.9,3.09-2.84l.86-.76c.31-.27.65-.5,1-.77,0,0,.06,0,0,0-.24.24-.46.51-.7.76l-.77.74-1.52,1.44c-1,1-2,1.91-3.11,2.83-.59.52-1.18,1.06-1.8,1.55A0,0,0,0,1,60.53,60.25Z"/><path class="cls-10" d="M42.8,36.22s1.76,4.48,2.34,5,5.52.23,5.63-.18-2.08-4.48-2.08-4.48a10.47,10.47,0,0,0-3.44-.95A3.78,3.78,0,0,0,42.8,36.22Z"/><path class="cls-10" d="M43.21,36.52c.07.49,2.12,3.9,4.83,3.73,1.58-.1.5-3.24.5-3.24l1.36-4.3-5.2-4S43.18,36.3,43.21,36.52Z"/><path class="cls-9" d="M44.15,31.57a8.76,8.76,0,0,0,4.65,5.2l1.1-4.06-5.2-4S44.45,30,44.15,31.57Z"/><path class="cls-10" d="M56,26.67c.16,7.39-4.25,8.32-5.84,8.35s-6.38-.06-7.3-7.39,2.47-9.74,5.78-10S55.88,19.28,56,26.67Z"/><path class="cls-9" d="M42.84,27.76c.81,0,3.06-2.14,3.34-6.09a28.12,28.12,0,0,1-.79,4c-.29.51,1.26-1.2,1.53-4.38a12.76,12.76,0,0,0,3.17,1.87,5.09,5.09,0,0,0,2.51.44c.12-.11-2.06-.92-2.62-1.64,0,0,3.9,2.07,5.73,2.31.22,0,.71-4.34-2-6.36s-7.37-.24-8.65.87c0,0-1.43.12-3.09,2.15S42,27.76,42.84,27.76Z"/><path class="cls-10" d="M44.15,27.67s-1.46-2.41-2.54-1.91-.09,3.92,1.1,4.46a1.25,1.25,0,0,0,1.72-.56Z"/><path class="cls-9" d="M41.92,26.74s0,0,0,0a3.19,3.19,0,0,1,1.5,2.08.69.69,0,0,0-1-.26,0,0,0,0,0,0,.05.77.77,0,0,1,.83.32,4.3,4.3,0,0,1,.36.71c0,.08.17,0,.15,0v0C43.84,28.51,43.09,26.92,41.92,26.74Z"/><path class="cls-11" d="M50.55,40,46.46,52.66c-.16.37,0,.69.38.71l6.65.44a1.09,1.09,0,0,0,1-.63l4.09-12.67c.16-.37,0-.69-.38-.71l-6.65-.44A1.1,1.1,0,0,0,50.55,40Z"/><path class="cls-12" d="M51.34,40,47.25,52.7c-.16.37,0,.69.38.71l6.65.44a1.1,1.1,0,0,0,1-.62l4.09-12.68a.46.46,0,0,0-.38-.71l-6.65-.43A1.08,1.08,0,0,0,51.34,40Z"/><path class="cls-9" d="M53.13,40.74a.57.57,0,0,1-1.13-.1.57.57,0,1,1,1.13.1Z"/><path class="cls-10" d="M25.33,68.22c2.91.4,6.52-1.86,15.91-8.71,1.3-.95-2.93-11.91-4.37-11-1.81,1.19-8.58,6.18-9,6.61C24.05,58.75,23.36,68,25.33,68.22Z"/><path class="cls-10" d="M33.52,51.86a31.74,31.74,0,0,1,4.69-5.29,16.34,16.34,0,0,1,7.22-2.92c2.81-.41,9.89.53,10,2.62.07,1.89-7.12.56-7.12.56s7.56.15,7.23,2.44-8.59.27-8.59.27,7.77.33,7,2.64c-.53,1.74-8.12.34-8.12.34s6.67.32,6.2,2.14c-.53,2-7.61,1.15-7.61,1.15a10.63,10.63,0,0,1-6.91,6.36C37,62.34,33.52,51.86,33.52,51.86Z"/><path class="cls-9" d="M45.68,46.61c.89,0,1.79,0,2.67,0s1.78.16,2.65.3a14.75,14.75,0,0,1,3.36.9,32.82,32.82,0,0,0-6-1c-.89-.06-1.77-.17-2.65-.23C45.65,46.64,45.66,46.61,45.68,46.61Z"/><path class="cls-9" d="M45.39,49.81c1.14,0,2.26,0,3.4.1s2.19.25,3.31.41c.09,0,0,0,0,0-1.13-.11-2.18-.12-3.31-.22s-2.25-.25-3.37-.3A0,0,0,0,1,45.39,49.81Z"/><path class="cls-9" d="M44.65,52.51a25,25,0,0,1,5.18.55c.09,0,0,.06,0,0-1.72-.21-3.07-.39-5.13-.54C44.62,52.57,44.61,52.51,44.65,52.51Z"/><path class="cls-8" d="M33.52,50.37l3.7,13.47s-9.92,5.84-12.11,4.3-.76-9.33,1.72-12.3A81.41,81.41,0,0,1,33.52,50.37Z"/><path class="cls-9" d="M33.64,50.81l-.14-.44h0l-2.81,2.3c-.93.77-1.86,1.54-2.74,2.36a13.73,13.73,0,0,0-1.26,1.27,10.67,10.67,0,0,0-1,1.48,11.34,11.34,0,0,0-1.19,3.38,9.34,9.34,0,0,1,1-3.5,7.8,7.8,0,0,1,1-1.55,13.36,13.36,0,0,1,1.27-1.33c.9-.82,1.84-1.58,2.8-2.32S32.5,51,33.51,50.35l0,0v0Z"/><path class="cls-9" d="M31.35,53.71c.22.66.4,1.35.58,2s.37,1.35.54,2c.35,1.36.68,2.71,1,4.08.09.37.17.74.25,1.12s.13.81.22,1.21a0,0,0,0,1,0,0c-.09-.33-.23-.65-.33-1s-.19-.69-.28-1c-.18-.68-.36-1.36-.53-2-.35-1.36-.68-2.72-1-4.09-.17-.77-.37-1.54-.49-2.32C31.27,53.68,31.33,53.67,31.35,53.71Z"/><path class="cls-9" d="M37.22,63.84c.06.13.06,0,0-.06A9.11,9.11,0,0,0,37,62.64s-.07-.11-.05,0A10.93,10.93,0,0,0,37.22,63.84Z"/><path class="cls-7" d="M79.44,19.81H57.54a2.19,2.19,0,0,1-2.18-2.18h0a2.19,2.19,0,0,1,2.18-2.19h21.9a2.19,2.19,0,0,1,2.19,2.19h0A2.19,2.19,0,0,1,79.44,19.81Z"/><path class="cls-13" d="M79.44,20H57.54a2.39,2.39,0,0,1,0-4.78h21.9a2.39,2.39,0,1,1,0,4.78Zm-21.9-4.38a2,2,0,0,0,0,4h21.9a2,2,0,0,0,0-4Z"/><path class="cls-13" d="M78,19a1.55,1.55,0,1,1,1.54-1.54A1.54,1.54,0,0,1,78,19Zm0-2.33a.79.79,0,1,0,.78.79A.79.79,0,0,0,78,16.69Z"/><path class="cls-13" d="M79.42,19.32a.4.4,0,0,1-.27-.11l-.64-.64a.38.38,0,0,1,.54-.54l.64.64a.38.38,0,0,1,0,.54A.39.39,0,0,1,79.42,19.32Z"/></g></g></g></svg>