<svg xmlns="http://www.w3.org/2000/svg" viewBox="0 0 660.04 519"><defs><style>.cls-1{fill:#fff;}.cls-2{fill:#5045b3;}.cls-3{fill:#0069b3;}.cls-4{fill:#037559;}.cls-5{fill:#038d71;}.cls-6{fill:#0a2849;}.cls-14,.cls-15,.cls-7,.cls-9{fill:none;}.cls-7{stroke:#5a50bd;}.cls-14,.cls-7,.cls-9{stroke-miterlimit:10;}.cls-8{fill:#5a50bd;}.cls-9{stroke:#eb6654;}.cls-10{fill:#f2efe9;}.cls-11{fill:#ff9100;}.cls-12{fill:#4d91d3;}.cls-13{fill:#1a2e35;}.cls-14{stroke:#ff9100;}</style></defs><g id="Capa_2" data-name="Capa 2"><g id="Arte"><rect class="cls-1" width="660.04" height="519" rx="5"/><path class="cls-2" d="M0,5H0A5,5,0,0,1,5,0H655a5,5,0,0,1,5,5H0Z"/><path class="cls-3" d="M44.16,67.32h1.76v7a8.7,8.7,0,0,1-.2,2.14,4.81,4.81,0,0,1-.51,1.2,4.07,4.07,0,0,1-.75.86,5.66,5.66,0,0,1-3.81,1.25,5.66,5.66,0,0,1-3.85-1.25,3.79,3.79,0,0,1-.74-.86,4.21,4.21,0,0,1-.5-1.17,8.33,8.33,0,0,1-.2-2.18v-7h1.76v7a5.2,5.2,0,0,0,.4,2.41,2.84,2.84,0,0,0,1.2,1.09,4.23,4.23,0,0,0,1.91.41,3.9,3.9,0,0,0,2.55-.82,2.55,2.55,0,0,0,.75-1,6.45,6.45,0,0,0,.23-2Zm-1.44-3.54-2,2.64h-1l1.19-2.64Z"/><path class="cls-3" d="M48.06,67.32h1.6V79.6h-1.6Z"/><path class="cls-3" d="M50.73,72.8l3-3v1.67H56.3V73H53.74v4c0,.93.38,1.39,1.15,1.39a3.57,3.57,0,0,0,1.82-.57v1.49a4,4,0,0,1-2,.52,2.67,2.67,0,0,1-1.83-.64,1.92,1.92,0,0,1-.38-.43,2.31,2.31,0,0,1-.25-.64,6.9,6.9,0,0,1-.1-1.49V73H50.73Z"/><path class="cls-3" d="M58.58,68.12a1,1,0,0,1,.68.27.91.91,0,0,1,.28.66,1,1,0,0,1-1,1,.88.88,0,0,1-.65-.28.91.91,0,0,1-.28-.67.9.9,0,0,1,.28-.65A.88.88,0,0,1,58.58,68.12Zm-.79,3.4h1.6V79.6h-1.6Z"/><path class="cls-3" d="M68.22,73.73V79.6H66.61V75.1a3.58,3.58,0,0,0-.36-1.88A1.42,1.42,0,0,0,65,72.69a1.86,1.86,0,0,0-.91.23,4,4,0,0,0-1,.81V79.6h-1.6V71.52h1.6v1.06a3.5,3.5,0,0,1,2.39-1.22,2.6,2.6,0,0,1,2.38,1.46,3.61,3.61,0,0,1,2.68-1.48,2.47,2.47,0,0,1,1.94.86,3.88,3.88,0,0,1,.76,2.63V79.6h-1.6V74.81a2.44,2.44,0,0,0-.41-1.54,1.41,1.41,0,0,0-1.19-.54A2.43,2.43,0,0,0,68.22,73.73Z"/><path class="cls-3" d="M80.44,74.74v3.44c0,.27.1.41.28.41a1.89,1.89,0,0,0,.91-.43v1a6.42,6.42,0,0,1-.88.48,2,2,0,0,1-.69.12c-.68,0-1.09-.27-1.21-.81a3.46,3.46,0,0,1-2.17.79,1.94,1.94,0,0,1-1.41-.55,1.91,1.91,0,0,1-.56-1.4,2,2,0,0,1,.55-1.37,3.73,3.73,0,0,1,1.56-1l2.05-.71v-.43a1.29,1.29,0,0,0-1.46-1.46,3.51,3.51,0,0,0-2.55,1.36V72.46a3.3,3.3,0,0,1,2.68-1.1,3.14,3.14,0,0,1,2.1.68,2.06,2.06,0,0,1,.48.59,2,2,0,0,1,.26.73A10.17,10.17,0,0,1,80.44,74.74ZM78.87,78V75.6L77.8,76a3.52,3.52,0,0,0-1.16.65,1.08,1.08,0,0,0-.34.82,1.11,1.11,0,0,0,.32.82,1.15,1.15,0,0,0,.83.32A2,2,0,0,0,78.87,78Z"/><path class="cls-3" d="M92.91,74.74v3.44c0,.27.09.41.28.41a1.91,1.91,0,0,0,.9-.43v1a5.88,5.88,0,0,1-.87.48,2,2,0,0,1-.69.12c-.69,0-1.09-.27-1.21-.81a3.48,3.48,0,0,1-2.17.79,1.9,1.9,0,0,1-2-2,2,2,0,0,1,.55-1.37,3.61,3.61,0,0,1,1.56-1l2-.71v-.43a1.29,1.29,0,0,0-1.46-1.46,3.48,3.48,0,0,0-2.55,1.36V72.46A3.29,3.29,0,0,1,90,71.36a3.14,3.14,0,0,1,2.1.68,2.22,2.22,0,0,1,.47.59,2.17,2.17,0,0,1,.27.73A10.17,10.17,0,0,1,92.91,74.74ZM91.34,78V75.6L90.26,76a3.45,3.45,0,0,0-1.15.65,1.08,1.08,0,0,0-.34.82,1.11,1.11,0,0,0,.32.82,1.13,1.13,0,0,0,.83.32A2,2,0,0,0,91.34,78Z"/><path class="cls-3" d="M101.47,77.71V79.3a7,7,0,0,1-2.36.44A3.88,3.88,0,0,1,95,75.6a4.31,4.31,0,0,1,1.1-3.07,3.78,3.78,0,0,1,2.89-1.17,4.75,4.75,0,0,1,1.12.12,6.44,6.44,0,0,1,1.23.44v1.71A4.23,4.23,0,0,0,99,72.85a2.34,2.34,0,0,0-1.78.76,2.79,2.79,0,0,0-.69,1.94,2.62,2.62,0,0,0,.75,2,2.78,2.78,0,0,0,2,.73A5.29,5.29,0,0,0,101.47,77.71Z"/><path class="cls-3" d="M102,72.8l3-3v1.67h2.56V73h-2.56v4c0,.93.38,1.39,1.15,1.39a3.57,3.57,0,0,0,1.82-.57v1.49a4,4,0,0,1-2,.52,2.67,2.67,0,0,1-1.83-.64,1.92,1.92,0,0,1-.38-.43,2.31,2.31,0,0,1-.25-.64,6.9,6.9,0,0,1-.1-1.49V73H102Z"/><path class="cls-3" d="M114.21,79.6v-1a3.47,3.47,0,0,1-1.16.87,3,3,0,0,1-1.31.31,2.67,2.67,0,0,1-1.41-.38,2.43,2.43,0,0,1-1-1,5.15,5.15,0,0,1-.33-2.17V71.52h1.6v4.61A3.18,3.18,0,0,0,111,77.9a1.48,1.48,0,0,0,1.28.51,2.32,2.32,0,0,0,1.94-1.12V71.52h1.6V79.6Z"/><path class="cls-3" d="M123,74.74v3.44c0,.27.09.41.28.41a1.91,1.91,0,0,0,.9-.43v1a5.88,5.88,0,0,1-.87.48,2,2,0,0,1-.69.12c-.69,0-1.09-.27-1.22-.81a3.46,3.46,0,0,1-2.17.79,1.9,1.9,0,0,1-1.4-.55,1.88,1.88,0,0,1-.57-1.4,2,2,0,0,1,.55-1.37,3.73,3.73,0,0,1,1.56-1l2-.71v-.43A1.29,1.29,0,0,0,120,72.85a3.51,3.51,0,0,0-2.55,1.36V72.46a3.32,3.32,0,0,1,2.69-1.1,3.14,3.14,0,0,1,2.1.68,2.22,2.22,0,0,1,.47.59,2.17,2.17,0,0,1,.27.73A10.17,10.17,0,0,1,123,74.74ZM121.46,78V75.6l-1.07.42a3.52,3.52,0,0,0-1.16.65,1.11,1.11,0,0,0-.33.82,1.07,1.07,0,0,0,.32.82,1.13,1.13,0,0,0,.83.32A2,2,0,0,0,121.46,78Z"/><path class="cls-3" d="M125.56,67.32h1.6V79.6h-1.6Z"/><path class="cls-3" d="M130.19,68.12a.94.94,0,0,1,.68.27.87.87,0,0,1,.28.66.89.89,0,0,1-.28.67.91.91,0,0,1-.68.28.9.9,0,0,1-.65-.28,1,1,0,0,1-.28-.67.94.94,0,0,1,.28-.65A.9.9,0,0,1,130.19,68.12Zm-.79,3.4H131V79.6h-1.6Z"/><path class="cls-3" d="M132.45,71.52h6.91l-4.28,6.59h4.28V79.6h-7.09L136.52,73h-4.07Z"/><path class="cls-3" d="M145.68,74.74v3.44c0,.27.1.41.29.41a1.91,1.91,0,0,0,.9-.43v1a5.88,5.88,0,0,1-.87.48,2,2,0,0,1-.69.12c-.69,0-1.09-.27-1.22-.81a3.46,3.46,0,0,1-2.17.79,1.9,1.9,0,0,1-1.4-.55,1.88,1.88,0,0,1-.57-1.4,2,2,0,0,1,.55-1.37,3.73,3.73,0,0,1,1.56-1l2.05-.71v-.43a1.29,1.29,0,0,0-1.46-1.46,3.51,3.51,0,0,0-2.55,1.36V72.46a3.3,3.3,0,0,1,2.68-1.1,3.1,3.1,0,0,1,2.1.68,2.06,2.06,0,0,1,.48.59,2.17,2.17,0,0,1,.27.73A13.07,13.07,0,0,1,145.68,74.74ZM144.11,78V75.6L143,76a3.52,3.52,0,0,0-1.16.65,1.18,1.18,0,0,0,0,1.64,1.17,1.17,0,0,0,.84.32A2,2,0,0,0,144.11,78Z"/><path class="cls-3" d="M154.24,77.71V79.3a6.91,6.91,0,0,1-2.35.44,3.88,3.88,0,0,1-4.16-4.14,4.31,4.31,0,0,1,1.1-3.07,3.77,3.77,0,0,1,2.89-1.17,4.75,4.75,0,0,1,1.12.12,6.44,6.44,0,0,1,1.23.44v1.71a4.23,4.23,0,0,0-2.25-.78,2.33,2.33,0,0,0-1.78.76,2.79,2.79,0,0,0-.69,1.94,2.62,2.62,0,0,0,.75,2,2.75,2.75,0,0,0,2,.73A5.22,5.22,0,0,0,154.24,77.71Z"/><path class="cls-3" d="M156.78,68.12a1,1,0,0,1,.68.27.91.91,0,0,1,.28.66,1,1,0,0,1-1,1,.88.88,0,0,1-.65-.28.91.91,0,0,1-.28-.67.9.9,0,0,1,.28-.65A.88.88,0,0,1,156.78,68.12Zm-.79,3.4h1.6V79.6H156Z"/><path class="cls-3" d="M163.66,71.5a4.25,4.25,0,0,1,3.07,1.19,4,4,0,0,1,1.22,3,3.83,3.83,0,0,1-1.24,2.91,4.41,4.41,0,0,1-3.12,1.15,4.22,4.22,0,0,1-3-1.17,3.87,3.87,0,0,1-1.22-2.93,4,4,0,0,1,1.23-3A4.3,4.3,0,0,1,163.66,71.5Zm-.09,1.44a2.5,2.5,0,0,0-1.89.76,2.63,2.63,0,0,0-.74,1.92,2.49,2.49,0,0,0,.76,1.89,2.9,2.9,0,0,0,3.87,0,2.58,2.58,0,0,0,.75-1.91,2.53,2.53,0,0,0-.78-1.9A2.7,2.7,0,0,0,163.57,72.94Zm1.87-5.81-2,2.64h-1l1.19-2.64Z"/><path class="cls-3" d="M171.22,71.52v1a3.17,3.17,0,0,1,2.43-1.19,2.73,2.73,0,0,1,1.41.39,2.53,2.53,0,0,1,1,1.07,5.06,5.06,0,0,1,.34,2.16V79.6h-1.6V75a3.21,3.21,0,0,0-.37-1.78,1.48,1.48,0,0,0-1.27-.53,2.28,2.28,0,0,0-1.92,1.14V79.6h-1.64V71.52Z"/><path class="cls-3" d="M188.8,67.32h1.61V79.6H187a3.75,3.75,0,0,1-2.86-1.13,4.23,4.23,0,0,1-1.07-3,4,4,0,0,1,1.12-2.94A3.81,3.81,0,0,1,187,71.34a5.45,5.45,0,0,1,1.76.34Zm0,10.91V73.11a3.34,3.34,0,0,0-1.51-.38,2.45,2.45,0,0,0-1.91.78,3,3,0,0,0-.7,2.11,2.79,2.79,0,0,0,.61,1.93,2,2,0,0,0,.78.54,5.47,5.47,0,0,0,1.49.14Z"/><path class="cls-3" d="M199.36,75.7h-5.69a2.65,2.65,0,0,0,.78,1.85,2.59,2.59,0,0,0,1.85.68,4.86,4.86,0,0,0,2.92-1v1.56a5.18,5.18,0,0,1-1.47.7,6.12,6.12,0,0,1-1.7.21,3.8,3.8,0,0,1-2.16-.55,4.06,4.06,0,0,1-1.32-1.49,4.53,4.53,0,0,1-.5-2.16,4.33,4.33,0,0,1,1.05-3,3.49,3.49,0,0,1,2.71-1.15,3.19,3.19,0,0,1,2.57,1.12,4.5,4.5,0,0,1,1,3Zm-5.65-1h4.07a2.19,2.19,0,0,0-.57-1.47,1.83,1.83,0,0,0-1.38-.52,2,2,0,0,0-1.41.52A2.55,2.55,0,0,0,193.71,74.74Z"/><path class="cls-3" d="M206,79.6V67.31h3.89a4,4,0,0,1,2.81,1,3.28,3.28,0,0,1,1,2.54,3.46,3.46,0,0,1-.53,1.9,3.1,3.1,0,0,1-1.47,1.2,7.41,7.41,0,0,1-2.67.38h-1.31V79.6Zm3.58-10.73h-1.82v3.84h1.93a2.46,2.46,0,0,0,1.65-.5,1.81,1.81,0,0,0,.58-1.45Q211.92,68.87,209.58,68.87Z"/><path class="cls-3" d="M221.19,67.15a6.63,6.63,0,0,1,4.74,1.8,6,6,0,0,1,1.89,4.52A5.87,5.87,0,0,1,225.91,78a6.77,6.77,0,0,1-4.82,1.78A6.38,6.38,0,0,1,216.47,78a5.89,5.89,0,0,1-1.85-4.46A6.07,6.07,0,0,1,216.48,69,6.5,6.5,0,0,1,221.19,67.15Zm.07,1.67a4.78,4.78,0,0,0-3.47,1.32,4.5,4.5,0,0,0-1.35,3.36,4.4,4.4,0,0,0,1.36,3.31,5,5,0,0,0,6.83,0A4.49,4.49,0,0,0,226,73.43a4.38,4.38,0,0,0-1.38-3.28A4.64,4.64,0,0,0,221.26,68.82Z"/><path class="cls-3" d="M227.66,67.31h10.26v1.56h-4.28V79.6h-1.77V68.87h-4.21Z"/><path class="cls-3" d="M248,71.52h3v12.2h-1.6V79.46a6.94,6.94,0,0,1-1.77.28,3.78,3.78,0,0,1-2.85-1.16,4.42,4.42,0,0,1,0-6A4.39,4.39,0,0,1,248,71.52Zm1.43,6.55V73h-1a6.74,6.74,0,0,0-1.39.09,2.12,2.12,0,0,0-.61.26,2.17,2.17,0,0,0-.46.4,2.66,2.66,0,0,0-.66,1.84,2.84,2.84,0,0,0,.74,2,2.56,2.56,0,0,0,1.93.79,2.68,2.68,0,0,0,.45,0c.11,0,.37-.1.77-.23l.12,0Z"/><path class="cls-3" d="M258.18,79.6v-1a3.47,3.47,0,0,1-1.16.87,3,3,0,0,1-1.31.31,2.67,2.67,0,0,1-1.41-.38,2.43,2.43,0,0,1-1-1,5.15,5.15,0,0,1-.33-2.17V71.52h1.6v4.61A3.18,3.18,0,0,0,255,77.9a1.48,1.48,0,0,0,1.28.51,2.32,2.32,0,0,0,1.94-1.12V71.52h1.6V79.6Z"/><path class="cls-3" d="M268.82,75.7h-5.69a2.65,2.65,0,0,0,.78,1.85,2.57,2.57,0,0,0,1.85.68,4.89,4.89,0,0,0,2.92-1v1.56a5.31,5.31,0,0,1-1.47.7,6.12,6.12,0,0,1-1.7.21,3.8,3.8,0,0,1-2.16-.55A4.06,4.06,0,0,1,262,77.68a4.42,4.42,0,0,1-.5-2.16,4.33,4.33,0,0,1,1.05-3,3.47,3.47,0,0,1,2.71-1.15,3.21,3.21,0,0,1,2.57,1.12,4.5,4.5,0,0,1,1,3Zm-5.66-1h4.07a2.19,2.19,0,0,0-.57-1.47,1.81,1.81,0,0,0-1.37-.52,2,2,0,0,0-1.41.52A2.56,2.56,0,0,0,263.16,74.74Z"/><path class="cls-3" d="M35.36,86.32H37v5.26a3.1,3.1,0,0,1,2.48-1.22,2.63,2.63,0,0,1,1.45.4,2.45,2.45,0,0,1,1,1.12A5.47,5.47,0,0,1,42.16,94v4.6h-1.6v-5a2.22,2.22,0,0,0-.43-1.43A1.41,1.41,0,0,0,39,91.63a1.94,1.94,0,0,0-1,.27,4.72,4.72,0,0,0-1,.91V98.6h-1.6Z"/><path class="cls-3" d="M48.15,90.5a4.25,4.25,0,0,1,3.07,1.19,4,4,0,0,1,1.22,3,3.8,3.8,0,0,1-1.24,2.91,4.37,4.37,0,0,1-3.12,1.15,4.22,4.22,0,0,1-3-1.17,4.15,4.15,0,0,1,0-5.89A4.31,4.31,0,0,1,48.15,90.5Zm-.09,1.44a2.53,2.53,0,0,0-1.89.76,2.62,2.62,0,0,0-.73,1.92,2.52,2.52,0,0,0,.75,1.89,2.68,2.68,0,0,0,1.94.74,2.64,2.64,0,0,0,1.93-.74,2.58,2.58,0,0,0,.75-1.91A2.53,2.53,0,0,0,50,92.7,2.7,2.7,0,0,0,48.06,91.94Z"/><path class="cls-3" d="M58.71,90.52h1.8l-5.73,12.2H53l2.75-5.85-3.13-6.35h1.83l2.18,4.56Z"/><path class="cls-3" d="M73.31,94.7H67.62a2.65,2.65,0,0,0,.78,1.85,2.59,2.59,0,0,0,1.85.68,4.86,4.86,0,0,0,2.92-1v1.56a5.18,5.18,0,0,1-1.47.7,6.12,6.12,0,0,1-1.7.21,3.8,3.8,0,0,1-2.16-.55,4.06,4.06,0,0,1-1.32-1.49,4.53,4.53,0,0,1-.5-2.16,4.33,4.33,0,0,1,1-3,3.47,3.47,0,0,1,2.71-1.15,3.19,3.19,0,0,1,2.57,1.12,4.5,4.5,0,0,1,1,3Zm-5.65-1h4.07a2.25,2.25,0,0,0-.58-1.47,1.81,1.81,0,0,0-1.37-.52,2,2,0,0,0-1.41.52A2.55,2.55,0,0,0,67.66,93.74Z"/><path class="cls-3" d="M76.53,90.52v1A3.21,3.21,0,0,1,79,90.36a2.67,2.67,0,0,1,1.4.39,2.62,2.62,0,0,1,1,1.07A5.06,5.06,0,0,1,81.7,94V98.6H80.1V94a3.2,3.2,0,0,0-.38-1.78,1.44,1.44,0,0,0-1.26-.53,2.31,2.31,0,0,0-1.93,1.14V98.6H74.9V90.52Z"/><path class="cls-3" d="M94.11,86.32h1.61V98.6H92.3a3.77,3.77,0,0,1-2.86-1.13,4.27,4.27,0,0,1-1.07-3,4.08,4.08,0,0,1,1.12-2.94,3.81,3.81,0,0,1,2.86-1.15,5.41,5.41,0,0,1,1.76.34Zm0,10.91V92.11a3.34,3.34,0,0,0-1.51-.38,2.43,2.43,0,0,0-1.9.78A3,3,0,0,0,90,94.62a2.8,2.8,0,0,0,.62,1.93,1.87,1.87,0,0,0,.78.54,5.38,5.38,0,0,0,1.48.14Z"/><path class="cls-3" d="M97.82,90.52h1.6V98.6h-1.6Zm3.43-4.39-2,2.64h-1l1.18-2.64Z"/><path class="cls-3" d="M106.7,93.74v3.44c0,.27.1.41.28.41a1.89,1.89,0,0,0,.91-.43v1a5.89,5.89,0,0,1-.88.48,2,2,0,0,1-.69.12c-.68,0-1.09-.27-1.21-.81a3.46,3.46,0,0,1-2.17.79,1.94,1.94,0,0,1-1.41-.55,1.91,1.91,0,0,1-.56-1.4,2,2,0,0,1,.55-1.37,3.73,3.73,0,0,1,1.56-1l2-.71v-.43a1.29,1.29,0,0,0-1.46-1.46,3.51,3.51,0,0,0-2.55,1.36V91.46a3.3,3.3,0,0,1,2.68-1.1,3.1,3.1,0,0,1,2.1.68,2.06,2.06,0,0,1,.48.59,2,2,0,0,1,.26.73A10.17,10.17,0,0,1,106.7,93.74ZM105.13,97V94.6l-1.07.42a3.52,3.52,0,0,0-1.16.65,1.18,1.18,0,0,0,0,1.64,1.15,1.15,0,0,0,.83.32A2,2,0,0,0,105.13,97Z"/><path class="cls-3" d="M121,94.7h-5.69a2.65,2.65,0,0,0,.78,1.85,2.59,2.59,0,0,0,1.85.68,4.86,4.86,0,0,0,2.92-1v1.56a5.18,5.18,0,0,1-1.47.7,6.12,6.12,0,0,1-1.7.21,3.8,3.8,0,0,1-2.16-.55,4.06,4.06,0,0,1-1.32-1.49,4.53,4.53,0,0,1-.5-2.16,4.33,4.33,0,0,1,1-3,3.49,3.49,0,0,1,2.71-1.15A3.19,3.19,0,0,1,120,91.48a4.5,4.5,0,0,1,1,3Zm-5.65-1h4.07a2.19,2.19,0,0,0-.57-1.47,1.83,1.83,0,0,0-1.38-.52,2,2,0,0,0-1.41.52A2.55,2.55,0,0,0,115.33,93.74Z"/><path class="cls-3" d="M122.21,98V96.3a7.29,7.29,0,0,0,1.38.77,3.14,3.14,0,0,0,1.19.29,1.5,1.5,0,0,0,.86-.24.71.71,0,0,0,.36-.59.78.78,0,0,0-.23-.59,5.27,5.27,0,0,0-1-.67,7,7,0,0,1-2-1.47,2.11,2.11,0,0,1-.48-1.33A1.87,1.87,0,0,1,123,91a2.85,2.85,0,0,1,1.87-.59,5.11,5.11,0,0,1,2.44.67v1.58a4.82,4.82,0,0,0-2.33-.86,1.23,1.23,0,0,0-.75.2.6.6,0,0,0-.29.52.79.79,0,0,0,.26.54,4.49,4.49,0,0,0,.91.61l.57.33c1.35.76,2,1.6,2,2.53a2,2,0,0,1-.78,1.63,3,3,0,0,1-2,.63,5.08,5.08,0,0,1-1.29-.15A8.27,8.27,0,0,1,122.21,98Z"/><path class="cls-3" d="M128.29,91.8l3-3v1.67h2.56V92h-2.56v4c0,.93.39,1.39,1.15,1.39a3.57,3.57,0,0,0,1.82-.57v1.49a4,4,0,0,1-2,.52,2.67,2.67,0,0,1-1.83-.64,1.92,1.92,0,0,1-.38-.43,2.31,2.31,0,0,1-.25-.64,7.64,7.64,0,0,1-.1-1.49V92h-1.4Z"/><path class="cls-3" d="M140.39,93.74v3.44c0,.27.09.41.28.41a1.91,1.91,0,0,0,.9-.43v1a5.88,5.88,0,0,1-.87.48,2,2,0,0,1-.69.12c-.69,0-1.09-.27-1.21-.81a3.48,3.48,0,0,1-2.17.79,1.91,1.91,0,0,1-1.41-.55,1.87,1.87,0,0,1-.56-1.4,2,2,0,0,1,.55-1.37,3.61,3.61,0,0,1,1.56-1l2-.71v-.43a1.29,1.29,0,0,0-1.46-1.46,3.47,3.47,0,0,0-2.54,1.36V91.46a3.29,3.29,0,0,1,2.68-1.1,3.14,3.14,0,0,1,2.1.68,2.22,2.22,0,0,1,.47.59,2.17,2.17,0,0,1,.27.73A10.17,10.17,0,0,1,140.39,93.74ZM138.81,97V94.6l-1.07.42a3.45,3.45,0,0,0-1.15.65,1.18,1.18,0,0,0,0,1.64,1.13,1.13,0,0,0,.83.32A2,2,0,0,0,138.81,97ZM140,86.13l-2,2.64h-1l1.19-2.64Z"/><path class="cls-3" d="M144.48,90.52v1a3.19,3.19,0,0,1,2.43-1.19,2.67,2.67,0,0,1,1.41.39,2.62,2.62,0,0,1,1,1.07,5.23,5.23,0,0,1,.34,2.16V98.6h-1.6V94a3.2,3.2,0,0,0-.38-1.78,1.45,1.45,0,0,0-1.27-.53,2.31,2.31,0,0,0-1.92,1.14V98.6h-1.64V90.52Z"/><path class="cls-3" d="M162.06,86.32h1.61V98.6h-3.42a3.77,3.77,0,0,1-2.86-1.13,4.27,4.27,0,0,1-1.07-3,4.08,4.08,0,0,1,1.12-2.94,3.81,3.81,0,0,1,2.86-1.15,5.41,5.41,0,0,1,1.76.34Zm0,10.91V92.11a3.34,3.34,0,0,0-1.51-.38,2.43,2.43,0,0,0-1.9.78,3,3,0,0,0-.71,2.11,2.79,2.79,0,0,0,.61,1.93,2,2,0,0,0,.79.54,5.38,5.38,0,0,0,1.48.14Z"/><path class="cls-3" d="M172.62,94.7h-5.68a2.69,2.69,0,0,0,.77,1.85,2.61,2.61,0,0,0,1.85.68,4.84,4.84,0,0,0,2.92-1v1.56a5.25,5.25,0,0,1-1.46.7,6.12,6.12,0,0,1-1.7.21,3.8,3.8,0,0,1-2.16-.55,4.08,4.08,0,0,1-1.33-1.49,4.53,4.53,0,0,1-.49-2.16,4.37,4.37,0,0,1,1-3,3.51,3.51,0,0,1,2.72-1.15,3.21,3.21,0,0,1,2.57,1.12,4.55,4.55,0,0,1,1,3Zm-5.65-1H171a2.19,2.19,0,0,0-.57-1.47,1.82,1.82,0,0,0-1.37-.52,1.93,1.93,0,0,0-1.41.52A2.5,2.5,0,0,0,167,93.74Z"/><path class="cls-3" d="M173.85,98V96.3a7.06,7.06,0,0,0,1.39.77,3.09,3.09,0,0,0,1.19.29,1.52,1.52,0,0,0,.86-.24.71.71,0,0,0,.36-.59.82.82,0,0,0-.23-.59,5.64,5.64,0,0,0-1-.67,7.07,7.07,0,0,1-2-1.47,2.11,2.11,0,0,1-.48-1.33,1.88,1.88,0,0,1,.73-1.52,2.83,2.83,0,0,1,1.87-.59,5.07,5.07,0,0,1,2.43.67v1.58a4.79,4.79,0,0,0-2.33-.86,1.23,1.23,0,0,0-.75.2.59.59,0,0,0-.28.52.77.77,0,0,0,.25.54,4.81,4.81,0,0,0,.91.61l.57.33c1.35.76,2,1.6,2,2.53a2,2,0,0,1-.78,1.63,3.09,3.09,0,0,1-2,.63,4.94,4.94,0,0,1-1.28-.15A8,8,0,0,1,173.85,98Z"/><path class="cls-3" d="M186.14,93.74v3.44c0,.27.1.41.29.41a1.91,1.91,0,0,0,.9-.43v1a5.88,5.88,0,0,1-.87.48,2,2,0,0,1-.69.12c-.69,0-1.09-.27-1.22-.81a3.46,3.46,0,0,1-2.17.79,1.9,1.9,0,0,1-1.4-.55,1.88,1.88,0,0,1-.57-1.4A2,2,0,0,1,181,95.4a3.73,3.73,0,0,1,1.56-1l2-.71v-.43a1.29,1.29,0,0,0-1.46-1.46,3.51,3.51,0,0,0-2.55,1.36V91.46a3.3,3.3,0,0,1,2.68-1.1,3.1,3.1,0,0,1,2.1.68,2.06,2.06,0,0,1,.48.59,2.17,2.17,0,0,1,.27.73A10.74,10.74,0,0,1,186.14,93.74ZM184.57,97V94.6L183.5,95a3.52,3.52,0,0,0-1.16.65,1.11,1.11,0,0,0-.33.82,1.07,1.07,0,0,0,.32.82,1.13,1.13,0,0,0,.83.32A2,2,0,0,0,184.57,97Z"/><path class="cls-3" d="M194.7,96.71V98.3a6.86,6.86,0,0,1-2.35.44,3.88,3.88,0,0,1-4.16-4.14,4.31,4.31,0,0,1,1.1-3.07,3.78,3.78,0,0,1,2.89-1.17,4.75,4.75,0,0,1,1.12.12,6.44,6.44,0,0,1,1.23.44v1.71a4.23,4.23,0,0,0-2.25-.78,2.34,2.34,0,0,0-1.78.76,2.79,2.79,0,0,0-.69,1.94,2.62,2.62,0,0,0,.75,2,2.78,2.78,0,0,0,2,.73A5.21,5.21,0,0,0,194.7,96.71Z"/><path class="cls-3" d="M195.28,91.8l3-3v1.67h2.55V92h-2.55v4c0,.93.38,1.39,1.15,1.39a3.59,3.59,0,0,0,1.82-.57v1.49a4,4,0,0,1-2,.52,2.63,2.63,0,0,1-1.82-.64,1.7,1.7,0,0,1-.38-.43,2,2,0,0,1-.25-.64,6.9,6.9,0,0,1-.1-1.49V92h-1.41Z"/><path class="cls-3" d="M207.45,98.6v-1a3.58,3.58,0,0,1-1.16.87,3,3,0,0,1-1.31.31,2.67,2.67,0,0,1-1.41-.38,2.46,2.46,0,0,1-1-1,5.32,5.32,0,0,1-.33-2.17V90.52h1.6v4.61a3.17,3.17,0,0,0,.37,1.77,1.47,1.47,0,0,0,1.28.51,2.32,2.32,0,0,0,1.94-1.12V90.52h1.6V98.6Z"/><path class="cls-3" d="M216.27,93.74v3.44c0,.27.1.41.28.41a1.89,1.89,0,0,0,.91-.43v1a5.89,5.89,0,0,1-.88.48,1.92,1.92,0,0,1-.69.12c-.68,0-1.09-.27-1.21-.81a3.46,3.46,0,0,1-2.17.79,1.94,1.94,0,0,1-1.41-.55,1.91,1.91,0,0,1-.56-1.4,2,2,0,0,1,.55-1.37,3.73,3.73,0,0,1,1.56-1l2-.71v-.43a1.29,1.29,0,0,0-1.46-1.46,3.51,3.51,0,0,0-2.55,1.36V91.46a3.3,3.3,0,0,1,2.68-1.1,3.1,3.1,0,0,1,2.1.68,2.06,2.06,0,0,1,.48.59,2.17,2.17,0,0,1,.27.73A13.07,13.07,0,0,1,216.27,93.74ZM214.7,97V94.6l-1.07.42a3.52,3.52,0,0,0-1.16.65,1.18,1.18,0,0,0,0,1.64,1.15,1.15,0,0,0,.83.32A2,2,0,0,0,214.7,97Z"/><path class="cls-3" d="M218.8,86.32h1.6V98.6h-1.6Z"/><path class="cls-3" d="M223.43,87.12a1,1,0,0,1,.68.27.87.87,0,0,1,.28.66.89.89,0,0,1-.28.67.93.93,0,0,1-.68.28.88.88,0,0,1-.65-.28.91.91,0,0,1-.28-.67.9.9,0,0,1,.28-.65A.88.88,0,0,1,223.43,87.12Zm-.79,3.4h1.6V98.6h-1.6Z"/><path class="cls-3" d="M225.69,90.52h6.9l-4.28,6.59h4.28V98.6h-7.08L229.76,92h-4.07Z"/><path class="cls-3" d="M238.92,93.74v3.44c0,.27.09.41.28.41a1.93,1.93,0,0,0,.91-.43v1a6.42,6.42,0,0,1-.88.48,2,2,0,0,1-.69.12c-.68,0-1.09-.27-1.21-.81a3.46,3.46,0,0,1-2.17.79,1.94,1.94,0,0,1-1.41-.55,1.91,1.91,0,0,1-.56-1.4,2,2,0,0,1,.55-1.37,3.67,3.67,0,0,1,1.56-1l2-.71v-.43a1.29,1.29,0,0,0-1.46-1.46,3.49,3.49,0,0,0-2.55,1.36V91.46a3.29,3.29,0,0,1,2.68-1.1,3.14,3.14,0,0,1,2.1.68,2,2,0,0,1,.47.59,2,2,0,0,1,.27.73A10.17,10.17,0,0,1,238.92,93.74ZM237.35,97V94.6l-1.08.42a3.45,3.45,0,0,0-1.15.65,1.08,1.08,0,0,0-.34.82,1.11,1.11,0,0,0,.32.82,1.13,1.13,0,0,0,.83.32A2,2,0,0,0,237.35,97Z"/><path class="cls-3" d="M246.81,86.32h1.61V98.6H245a3.75,3.75,0,0,1-2.86-1.13,4.27,4.27,0,0,1-1.07-3,4,4,0,0,1,1.12-2.94,3.81,3.81,0,0,1,2.86-1.15,5.41,5.41,0,0,1,1.76.34Zm0,10.91V92.11a3.34,3.34,0,0,0-1.51-.38,2.43,2.43,0,0,0-1.9.78,3,3,0,0,0-.71,2.11,2.79,2.79,0,0,0,.61,1.93,2,2,0,0,0,.79.54,5.38,5.38,0,0,0,1.48.14Z"/><path class="cls-3" d="M254.35,90.5a4.25,4.25,0,0,1,3.07,1.19,4,4,0,0,1,1.22,3,3.83,3.83,0,0,1-1.24,2.91,4.41,4.41,0,0,1-3.12,1.15,4.22,4.22,0,0,1-3-1.17A3.87,3.87,0,0,1,250,94.64a4,4,0,0,1,1.23-3A4.3,4.3,0,0,1,254.35,90.5Zm-.09,1.44a2.5,2.5,0,0,0-1.89.76,2.63,2.63,0,0,0-.74,1.92,2.52,2.52,0,0,0,.76,1.89,2.9,2.9,0,0,0,3.87,0A2.58,2.58,0,0,0,257,94.6a2.53,2.53,0,0,0-.78-1.9A2.7,2.7,0,0,0,254.26,91.94Z"/><path class="cls-3" d="M259.91,98V96.3a7.06,7.06,0,0,0,1.39.77,3.09,3.09,0,0,0,1.19.29,1.52,1.52,0,0,0,.86-.24.71.71,0,0,0,.36-.59.79.79,0,0,0-.24-.59,5.45,5.45,0,0,0-1-.67,7.07,7.07,0,0,1-2-1.47,2.11,2.11,0,0,1-.48-1.33,1.88,1.88,0,0,1,.73-1.52,2.81,2.81,0,0,1,1.87-.59A5.07,5.07,0,0,1,265,91v1.58a4.82,4.82,0,0,0-2.33-.86,1.23,1.23,0,0,0-.75.2.6.6,0,0,0-.29.52.79.79,0,0,0,.26.54,4.81,4.81,0,0,0,.91.61l.57.33c1.35.76,2,1.6,2,2.53a2,2,0,0,1-.78,1.63,3.09,3.09,0,0,1-2,.63,4.94,4.94,0,0,1-1.28-.15A8,8,0,0,1,259.91,98Z"/><path class="cls-3" d="M40.36,35.7a4,4,0,0,1,2.8,1,3.61,3.61,0,0,1,0,5.15,4.13,4.13,0,0,1-2.87,1H38V48H35.61V35.7ZM39.77,41a2.27,2.27,0,0,0,1.48-.44,1.58,1.58,0,0,0,.53-1.29c0-1.13-.72-1.69-2.18-1.69H38V41Z"/><path class="cls-3" d="M52.31,35.55a7.43,7.43,0,0,1,3.43.78,6,6,0,0,1,2.43,2.27,6.21,6.21,0,0,1,0,6.44,6.07,6.07,0,0,1-2.42,2.29,7.77,7.77,0,0,1-7,0,6.07,6.07,0,0,1-3.3-5.46,6.19,6.19,0,0,1,.87-3.18,6,6,0,0,1,2.4-2.3A7.29,7.29,0,0,1,52.31,35.55ZM48,41.85A4.34,4.34,0,0,0,48.53,44a3.79,3.79,0,0,0,1.54,1.51,4.61,4.61,0,0,0,2.24.54,4.25,4.25,0,0,0,3.11-1.19,4.08,4.08,0,0,0,1.21-3,4.42,4.42,0,0,0-.55-2.21,3.8,3.8,0,0,0-1.54-1.51,4.68,4.68,0,0,0-2.25-.54,4.61,4.61,0,0,0-2.24.54,3.8,3.8,0,0,0-1.54,1.51A4.49,4.49,0,0,0,48,41.85Z"/><path class="cls-3" d="M70.66,35.7v1.86H66.3V48H63.93V37.56H59.57V35.7Z"/><path class="cls-3" d="M82.39,35.7,87.81,48H85.3L84,45H78.57l-1.18,3H74.9L80,35.7Zm-3.1,7.49h4l-2.08-4.86Z"/><path class="cls-3" d="M95.05,35.55a8.77,8.77,0,0,1,2,.23,10.59,10.59,0,0,1,2.16.81v2.23a11,11,0,0,0-2.1-.94,7,7,0,0,0-2-.29,5.09,5.09,0,0,0-2.36.54,4,4,0,0,0-1.64,1.53,4.44,4.44,0,0,0,0,4.39,3.84,3.84,0,0,0,1.63,1.51,5.26,5.26,0,0,0,2.37.53,6.44,6.44,0,0,0,1.93-.29,13.63,13.63,0,0,0,2.32-1V47a11.4,11.4,0,0,1-2.2.89,9.5,9.5,0,0,1-2.34.26,7.67,7.67,0,0,1-3.47-.77A5.8,5.8,0,0,1,89,45.14,6.1,6.1,0,0,1,88.11,42a6.3,6.3,0,0,1,.9-3.33,6.2,6.2,0,0,1,2.48-2.28A7.83,7.83,0,0,1,95.05,35.55Z"/><path class="cls-3" d="M111.74,35.7v1.86h-4.36V48H105V37.56h-4.36V35.7Z"/><path class="cls-3" d="M115.72,35.7v7.15a3.93,3.93,0,0,0,.33,1.75,2.51,2.51,0,0,0,1.07,1.07,3.5,3.5,0,0,0,1.74.42,3.86,3.86,0,0,0,1.85-.4,2.44,2.44,0,0,0,1.11-1.09,4.19,4.19,0,0,0,.36-1.91v-7h2.37V43a4.86,4.86,0,0,1-1.49,3.81,6.07,6.07,0,0,1-4.2,1.33,6.61,6.61,0,0,1-3-.61A4.3,4.3,0,0,1,114,45.78a5.31,5.31,0,0,1-.66-2.69V35.7Z"/><path class="cls-3" d="M133.11,35.7,138.53,48H136l-1.27-3h-5.46l-1.18,3h-2.49l5.06-12.28ZM130,43.19h4l-2.08-4.86Z"/><path class="cls-3" d="M142.24,35.7V46.13h6V48h-8.34V35.7Z"/><path class="cls-3" d="M152.14,35.7V48h-2.37V35.7Z"/><path class="cls-3" d="M164.89,35.7l-7.16,10.43h7.19V48H153.66l7.14-10.42h-6.71V35.7Z"/><path class="cls-3" d="M172.84,35.7,178.26,48h-2.5l-1.28-3H169l-1.19,3h-2.49l5.07-12.28Zm-3.09,7.49h4l-2.07-4.86Z"/><path class="cls-3" d="M184.74,35.7a7.26,7.26,0,0,1,3.41.78,5.79,5.79,0,0,1,2.32,2.2,6.23,6.23,0,0,1,.83,3.18,6.09,6.09,0,0,1-.84,3.2,5.56,5.56,0,0,1-2.36,2.16,7.67,7.67,0,0,1-3.5.76h-5V35.7Zm-.25,10.43a4.28,4.28,0,0,0,3.16-1.19,4.66,4.66,0,0,0,0-6.23,4.45,4.45,0,0,0-3.23-1.15H182v8.57Z"/><path class="cls-3" d="M199.7,35.55a7.43,7.43,0,0,1,3.43.78,6.17,6.17,0,0,1,3.33,5.52,6.17,6.17,0,0,1-3.31,5.48,7.75,7.75,0,0,1-6.94,0,6.07,6.07,0,0,1-3.3-5.46,6.19,6.19,0,0,1,.87-3.18,6,6,0,0,1,2.4-2.3A7.29,7.29,0,0,1,199.7,35.55Zm-4.34,6.3a4.35,4.35,0,0,0,.56,2.19,3.79,3.79,0,0,0,1.54,1.51,4.58,4.58,0,0,0,2.24.54,4.21,4.21,0,0,0,3.1-1.19,4.08,4.08,0,0,0,1.22-3,4.42,4.42,0,0,0-.55-2.21,3.82,3.82,0,0,0-1.55-1.51,4.61,4.61,0,0,0-2.24-.54,4.68,4.68,0,0,0-2.25.54,3.83,3.83,0,0,0-1.53,1.51A4.49,4.49,0,0,0,195.36,41.85Z"/><path class="cls-3" d="M218.22,35.7a4,4,0,0,1,2.8,1,3.37,3.37,0,0,1,1.07,2.57A3.31,3.31,0,0,1,221,41.85a4.13,4.13,0,0,1-2.87,1h-2.29V48h-2.37V35.7ZM217.63,41a2.27,2.27,0,0,0,1.48-.44,1.58,1.58,0,0,0,.53-1.29c0-1.13-.72-1.69-2.18-1.69h-1.62V41Z"/><path class="cls-3" d="M230.17,35.55a7.43,7.43,0,0,1,3.43.78A6,6,0,0,1,236,38.6a6.21,6.21,0,0,1-2.4,8.73,7.77,7.77,0,0,1-6.95,0,6.07,6.07,0,0,1-3.3-5.46,6.19,6.19,0,0,1,.87-3.18,6,6,0,0,1,2.4-2.3A7.29,7.29,0,0,1,230.17,35.55Zm-4.33,6.3a4.34,4.34,0,0,0,.55,2.19,3.79,3.79,0,0,0,1.54,1.51,4.61,4.61,0,0,0,2.24.54,4.25,4.25,0,0,0,3.11-1.19,4.08,4.08,0,0,0,1.21-3,4.42,4.42,0,0,0-.55-2.21,3.8,3.8,0,0,0-1.54-1.51,5,5,0,0,0-4.5,0,3.83,3.83,0,0,0-1.53,1.51A4.49,4.49,0,0,0,225.84,41.85Z"/><path class="cls-3" d="M243.47,35.7a4.09,4.09,0,0,1,2.82,1,3.16,3.16,0,0,1,1.09,2.5,3.13,3.13,0,0,1-.54,1.82,3.56,3.56,0,0,1-1.6,1.23,3.54,3.54,0,0,1,1,.86,10.36,10.36,0,0,1,1.14,1.83c.75,1.49,1.3,2.52,1.67,3.08h-2.65c-.18-.27-.43-.7-.74-1.29a26.61,26.61,0,0,0-1.49-2.64,3.6,3.6,0,0,0-.91-1,1.83,1.83,0,0,0-1-.28h-.87V48h-2.37V35.7Zm-.53,5.24a2.1,2.1,0,0,0,1.46-.47,1.61,1.61,0,0,0,.53-1.27,1.49,1.49,0,0,0-.53-1.26,2.35,2.35,0,0,0-1.5-.42h-1.48v3.42Z"/><path class="cls-3" d="M260.57,35.7,266,48h-2.5l-1.28-3h-5.45l-1.19,3h-2.49l5.06-12.28Zm-3.09,7.49h4l-2.07-4.86Z"/><path class="cls-3" d="M269.41,35.7l7.3,8.57V35.7H279V48h-2l-7.34-8.71V48h-2.32V35.7Zm2.65-3.38a2.33,2.33,0,0,1,.78.15l.81.34.75.33a1.64,1.64,0,0,0,.59.16.55.55,0,0,0,.46-.25,1.32,1.32,0,0,0,.24-.71h1.14a3.08,3.08,0,0,1-.6,1.81,1.71,1.71,0,0,1-1.4.67,2.75,2.75,0,0,1-.88-.13,6.55,6.55,0,0,1-1-.45l-.43-.19-.3-.12-.23-.06a.62.62,0,0,0-.19,0,.52.52,0,0,0-.47.24,1.69,1.69,0,0,0-.23.73H270a3,3,0,0,1,.62-1.84A1.86,1.86,0,0,1,272.06,32.32Z"/><path class="cls-3" d="M287.91,35.55a7.43,7.43,0,0,1,3.43.78,6,6,0,0,1,2.43,2.27,6.21,6.21,0,0,1-2.4,8.73,7.77,7.77,0,0,1-6.95,0,6.07,6.07,0,0,1-3.3-5.46,6.19,6.19,0,0,1,.87-3.18,6,6,0,0,1,2.4-2.3A7.29,7.29,0,0,1,287.91,35.55Zm-4.33,6.3a4.34,4.34,0,0,0,.55,2.19,3.79,3.79,0,0,0,1.54,1.51,4.61,4.61,0,0,0,2.24.54A4.25,4.25,0,0,0,291,44.9a4.08,4.08,0,0,0,1.21-3,4.42,4.42,0,0,0-.55-2.21,3.8,3.8,0,0,0-1.54-1.51,5,5,0,0,0-4.5,0,3.83,3.83,0,0,0-1.53,1.51A4.49,4.49,0,0,0,283.58,41.85Z"/><rect class="cls-4" x="281.47" y="63.79" width="42.98" height="25.63" rx="5"/><rect class="cls-5" x="281.47" y="61.79" width="42.98" height="25.63" rx="5"/><path class="cls-1" d="M293.69,68.3a3.8,3.8,0,0,1,2.68,1,3.18,3.18,0,0,1,1.05,2.47,2.94,2.94,0,0,1-1.52,2.61,3.28,3.28,0,0,1,1.37,1.24,3.37,3.37,0,0,1,.43,1.73,3.46,3.46,0,0,1-.52,1.85,3.56,3.56,0,0,1-1.44,1.27,4.51,4.51,0,0,1-2.05.46,4.23,4.23,0,0,1-2.9-1,3.28,3.28,0,0,1-1.14-2.58,3.33,3.33,0,0,1,.45-1.77,3.43,3.43,0,0,1,1.36-1.2,3,3,0,0,1-1.52-2.62A3.19,3.19,0,0,1,291,69.25,3.89,3.89,0,0,1,293.69,68.3Zm-1.75,8.91a2,2,0,0,0,.47,1.42,1.65,1.65,0,0,0,1.28.52,1.59,1.59,0,0,0,1.26-.52,2,2,0,0,0,.46-1.39,2.12,2.12,0,0,0-.47-1.41,1.55,1.55,0,0,0-1.23-.55,1.65,1.65,0,0,0-1.28.52A2,2,0,0,0,291.94,77.21Zm.25-5.44a2,2,0,0,0,.43,1.3,1.35,1.35,0,0,0,1.07.5,1.29,1.29,0,0,0,1.05-.52,2,2,0,0,0,.43-1.28,1.93,1.93,0,0,0-.4-1.27,1.36,1.36,0,0,0-1.08-.46,1.39,1.39,0,0,0-1.09.45A1.87,1.87,0,0,0,292.19,71.77Z"/><path class="cls-1" d="M307.38,68.46v.07l-4.95,12.36-2.07-.77,3.87-9.56h-4.89v-2.1Z"/><path class="cls-1" d="M316.77,68.46v.07l-4.95,12.36-2.07-.77,3.88-9.56h-4.9v-2.1Z"/><path d="M98.27,485.54l-.18,1.18H95.41l-1.18,8.37H92.91l1.18-8.37H91.4l.17-1.18Z"/><path d="M102.25,485.41a3,3,0,0,1,2.44,1.11,4.29,4.29,0,0,1,.94,2.9,6.27,6.27,0,0,1-1.36,4.14,4.1,4.1,0,0,1-3.25,1.65,3.09,3.09,0,0,1-2.45-1.13,4.36,4.36,0,0,1-.95-2.9,6.59,6.59,0,0,1,1.3-4A4,4,0,0,1,102.25,485.41Zm-1.2,8.65a2.77,2.77,0,0,0,2.3-1.43,5.86,5.86,0,0,0,1-3.44,3,3,0,0,0-.57-1.93,1.86,1.86,0,0,0-1.53-.7,2.74,2.74,0,0,0-2.4,1.47,6.12,6.12,0,0,0-.93,3.33,3.09,3.09,0,0,0,.58,2A1.91,1.91,0,0,0,101.05,494.06Z"/><path d="M112.76,485.54l-.17,1.18h-2.68l-1.18,8.37h-1.32l1.18-8.37H105.9l.17-1.18Z"/><path d="M116.2,485.48l1.85,9.61h-1.18l-.56-3h-3l-1.26,3h-1.28l4.23-9.61Zm-2.47,5.6h2.39l-.74-3.92Z"/><path d="M121.65,485.54,120.4,494h3.92l-.15,1.07h-5.12l1.34-9.55Z"/><path d="M133.55,490.1a2,2,0,0,1,1.25,2,2.91,2.91,0,0,1-.94,2.19,3.29,3.29,0,0,1-2.33.89,2.66,2.66,0,0,1-1.94-.73,2.74,2.74,0,0,1,1.3-4.54,2,2,0,0,1-1.08-1.87,2.49,2.49,0,0,1,.82-1.87,2.7,2.7,0,0,1,2-.79,2.65,2.65,0,0,1,1.88.67,2.5,2.5,0,0,1,.29,3.13A2.54,2.54,0,0,1,133.55,490.1Zm-1.94,4a1.91,1.91,0,0,0,1.38-.57,1.85,1.85,0,0,0,.57-1.35,1.49,1.49,0,0,0-.42-1.12,1.61,1.61,0,0,0-1.16-.41,1.8,1.8,0,0,0-1.33.59,1.91,1.91,0,0,0-.56,1.36,1.42,1.42,0,0,0,.43,1.07A1.47,1.47,0,0,0,131.61,494.08Zm.75-4.58a1.49,1.49,0,0,0,1.1-.48,1.58,1.58,0,0,0,.46-1.15,1.29,1.29,0,0,0-.36-.95,1.24,1.24,0,0,0-.94-.37,1.48,1.48,0,0,0-1.1.47,1.57,1.57,0,0,0-.46,1.13,1.36,1.36,0,0,0,.36,1A1.24,1.24,0,0,0,132.36,489.5Z"/><path d="M143,485.54l-4.46,9.67H137.2l3.91-8.5h-3.84l.17-1.17Z"/><path d="M150.26,485.54l-4.46,9.67h-1.3l3.91-8.5h-3.84l.16-1.17Z"/><rect class="cls-5" x="73.31" y="468.49" width="10.02" height="10.02"/><path d="M92.19,467.92h1.64a3.47,3.47,0,0,1,2.28.68,2.51,2.51,0,0,1,.81,2,2.79,2.79,0,0,1-.8,1.95,2.92,2.92,0,0,1-2.25.85H92.72l-.56,4H90.84Zm1.14,1.13-.45,3.25h.93a1.79,1.79,0,0,0,1.34-.5,1.69,1.69,0,0,0,.48-1.22,1.45,1.45,0,0,0-.45-1.11,1.82,1.82,0,0,0-1.29-.42Z"/><path d="M102.09,467.8a3,3,0,0,1,2.44,1.1,4.33,4.33,0,0,1,.93,2.9,6.27,6.27,0,0,1-1.36,4.14,4.08,4.08,0,0,1-3.24,1.65,3,3,0,0,1-2.45-1.13,4.3,4.3,0,0,1-1-2.9,6.55,6.55,0,0,1,1.31-4A3.94,3.94,0,0,1,102.09,467.8Zm-1.21,8.64a2.78,2.78,0,0,0,2.31-1.42,6,6,0,0,0,1-3.44,3,3,0,0,0-.57-1.94,1.86,1.86,0,0,0-1.53-.7,2.76,2.76,0,0,0-2.4,1.48,6.09,6.09,0,0,0-.93,3.32,3.07,3.07,0,0,0,.59,2A1.88,1.88,0,0,0,100.88,476.44Z"/><path d="M112.6,467.92l-.17,1.19h-2.69l-1.17,8.36h-1.32l1.17-8.36h-2.68l.17-1.19Z"/><path d="M122.07,471.18l-.89,6.29H120l.11-.73,0,0a2.33,2.33,0,0,1-1.69.88,1.85,1.85,0,0,1-1.47-.73,2.66,2.66,0,0,1-.6-1.76,4.06,4.06,0,0,1,1.12-3,4.2,4.2,0,0,1,3.15-1.16A5.26,5.26,0,0,1,122.07,471.18Zm-1.81,4.47.51-3.63h-.37a2.58,2.58,0,0,0-2.13.89,3,3,0,0,0-.73,2,2,2,0,0,0,.35,1.24,1.06,1.06,0,0,0,.89.48,1.55,1.55,0,0,0,1-.42C120.07,475.9,120.25,475.72,120.26,475.65Z"/><path d="M127.39,476.07l-.13,1.15a3.59,3.59,0,0,1-1.75.45,2.67,2.67,0,0,1-2-.79,2.91,2.91,0,0,1-.76-2.11,3.56,3.56,0,0,1,1.15-2.69,4.06,4.06,0,0,1,2.93-1.09,5.79,5.79,0,0,1,1.08.11l-.16,1a4,4,0,0,0-.91-.1,2.8,2.8,0,0,0-2,.79,2.49,2.49,0,0,0-.82,1.85,2,2,0,0,0,.46,1.4,1.62,1.62,0,0,0,1.26.51A3.31,3.31,0,0,0,127.39,476.07Z"/><path d="M131.78,471.18l-.13.93H130.4l-.62,3.44a2.53,2.53,0,0,0,0,.43c0,.41.22.62.66.62a2.42,2.42,0,0,0,1.15-.38l-.07,1.17a3.42,3.42,0,0,1-1.3.28,1.73,1.73,0,0,1-1.22-.4,1.29,1.29,0,0,1-.45-1,1.73,1.73,0,0,1,0-.32l.66-3.81h-1.11l.15-.93h1.15l.23-1.29h1.17l-.23,1.29Z"/><path d="M137.85,471.18l-.89,6.29h-1.18l.11-1.07a3,3,0,0,1-2.07,1.16,1.47,1.47,0,0,1-1.08-.45,1.81,1.81,0,0,1-.44-1.3,2.59,2.59,0,0,1,0-.48l.58-4.15h1.19l-.59,4.15c0,.14,0,.26,0,.38,0,.63.23.94.69.94s1.12-.46,1.9-1.38l.57-4.09Z"/><path d="M144.53,471.18l-.89,6.29h-1.19l.12-.73,0,0a2.35,2.35,0,0,1-1.69.88,1.83,1.83,0,0,1-1.47-.73,2.66,2.66,0,0,1-.6-1.76,4.06,4.06,0,0,1,1.12-3A4.19,4.19,0,0,1,143,471,5.33,5.33,0,0,1,144.53,471.18Zm-1.82,4.47.52-3.63h-.37a2.59,2.59,0,0,0-2.14.89,3.1,3.1,0,0,0-.73,2,2.07,2.07,0,0,0,.35,1.24,1.09,1.09,0,0,0,.9.48,1.53,1.53,0,0,0,.94-.42C142.53,475.9,142.7,475.72,142.71,475.65Z"/><path d="M147.71,467.92l-1.35,9.55h-1.19l1.35-9.55Z"/><path d="M149.88,471.18l-.89,6.29h-1.18l.88-6.29Zm-1.06-2a.7.7,0,0,1,.2-.49.68.68,0,0,1,1.16.49.68.68,0,0,1-1.16.48A.66.66,0,0,1,148.82,469.21Z"/><path d="M156.37,471.18l-4.17,5.24h3.66l-.23,1.05h-5.7l4.11-5.24h-3.18l.14-1.05Z"/><path d="M162.77,471.18l-.88,6.29H160.7l.11-.73,0,0a2.37,2.37,0,0,1-1.7.88,1.82,1.82,0,0,1-1.46-.73,2.62,2.62,0,0,1-.61-1.76,4.07,4.07,0,0,1,1.13-3,4.17,4.17,0,0,1,3.14-1.16A5.26,5.26,0,0,1,162.77,471.18ZM161,475.65l.51-3.63h-.37a2.58,2.58,0,0,0-2.13.89,3,3,0,0,0-.73,2,2,2,0,0,0,.35,1.24,1.07,1.07,0,0,0,.89.48,1.55,1.55,0,0,0,1-.42C160.77,475.9,161,475.72,161,475.65Z"/><path d="M169.79,467.92l-1.35,9.55a5.88,5.88,0,0,1-1.6.2,3.61,3.61,0,0,1-2.45-.76,2.72,2.72,0,0,1-.86-2.16,3.72,3.72,0,0,1,1.11-2.56,4,4,0,0,1,3-1.2h.5l.43-3.07Zm-2.41,8.73L168,472h-.31a3,3,0,0,0-2.16.81,2.65,2.65,0,0,0-.82,1.94,1.89,1.89,0,0,0,.54,1.44,2.18,2.18,0,0,0,1.55.51A3.57,3.57,0,0,0,167.38,476.65Z"/><path d="M173.18,471a2.12,2.12,0,0,1,1.7.75,2.94,2.94,0,0,1,.64,2,4.5,4.5,0,0,1-.86,2.83,2.6,2.6,0,0,1-2.12,1.11,2.15,2.15,0,0,1-1.74-.75,3.12,3.12,0,0,1-.63-2.07,4.34,4.34,0,0,1,.87-2.76A2.64,2.64,0,0,1,173.18,471Zm0,.93a1.51,1.51,0,0,0-1.26.91,4.19,4.19,0,0,0-.53,2.14,2.11,2.11,0,0,0,.32,1.21.92.92,0,0,0,.79.46,1.5,1.5,0,0,0,1.27-.85,3.87,3.87,0,0,0,.53-2.13,2.22,2.22,0,0,0-.31-1.26A.92.92,0,0,0,173.18,471.92Z"/><path d="M180.47,471.64v1.25a3.36,3.36,0,0,0-1.9-.83.92.92,0,0,0-.6.2.56.56,0,0,0-.25.46.64.64,0,0,0,.15.38,5.18,5.18,0,0,0,1,.75,3.56,3.56,0,0,1,1.1,1,1.72,1.72,0,0,1,.29.93,1.77,1.77,0,0,1-.55,1.35,2,2,0,0,1-1.4.53,3.75,3.75,0,0,1-2.18-.83l.2-1.15a3.52,3.52,0,0,0,1.94.94.85.85,0,0,0,.58-.2.61.61,0,0,0,.23-.5.8.8,0,0,0-.16-.46,5.2,5.2,0,0,0-1-.8,3.62,3.62,0,0,1-1.07-1,1.71,1.71,0,0,1-.25-.88,1.66,1.66,0,0,1,.54-1.31,2,2,0,0,1,1.43-.49A3.43,3.43,0,0,1,180.47,471.64Z"/><rect class="cls-5" x="109.27" y="421.95" width="11.72" height="5.43"/><path class="cls-6" d="M102.38,438.68h1.37v9.55h-1.37Z"/><path class="cls-6" d="M109.17,448.34l-.84-1a8,8,0,0,0,1.85-1.62,5.19,5.19,0,0,0,1.06-2,2.82,2.82,0,0,1-1.53.4,2.5,2.5,0,0,1-1.87-.81,2.83,2.83,0,0,1,0-4,2.78,2.78,0,0,1,2-.83,2.81,2.81,0,0,1,2.21,1,3.63,3.63,0,0,1,.86,2.51,6.76,6.76,0,0,1-1.08,3.51A8.13,8.13,0,0,1,109.17,448.34Zm2.34-5.93c0-.36.08-.6.08-.71a2.05,2.05,0,0,0-.46-1.36,1.52,1.52,0,0,0-1.19-.52,1.47,1.47,0,0,0-1.1.45,1.52,1.52,0,0,0-.43,1.12,1.43,1.43,0,0,0,.47,1.07,1.58,1.58,0,0,0,1.13.46A2.61,2.61,0,0,0,111.51,442.41Z"/><path class="cls-6" d="M116.17,448.34l-.84-1a8,8,0,0,0,1.85-1.62,5.19,5.19,0,0,0,1.06-2,2.82,2.82,0,0,1-1.53.4,2.5,2.5,0,0,1-1.87-.81,2.83,2.83,0,0,1,0-4,2.78,2.78,0,0,1,2-.83,2.81,2.81,0,0,1,2.21,1,3.63,3.63,0,0,1,.86,2.51,6.76,6.76,0,0,1-1.08,3.51A8.13,8.13,0,0,1,116.17,448.34Zm2.34-5.93c0-.36.08-.6.08-.71a2.05,2.05,0,0,0-.46-1.36,1.52,1.52,0,0,0-1.19-.52,1.47,1.47,0,0,0-1.1.45,1.52,1.52,0,0,0-.43,1.12,1.43,1.43,0,0,0,.47,1.07,1.58,1.58,0,0,0,1.13.46A2.61,2.61,0,0,0,118.51,442.41Z"/><path class="cls-6" d="M121.22,441.25a2.51,2.51,0,0,1,.84-1.91,2.92,2.92,0,0,1,2.06-.78,2.82,2.82,0,0,1,2,.78,2.54,2.54,0,0,1-.37,4,2.44,2.44,0,0,1,1.33,2.25,2.54,2.54,0,0,1-.86,2,3.44,3.44,0,0,1-4.36,0,2.49,2.49,0,0,1-.88-1.95,2.46,2.46,0,0,1,1.35-2.24,3.63,3.63,0,0,1-.87-1A2.44,2.44,0,0,1,121.22,441.25Zm4.5,4.42v-.14a1.39,1.39,0,0,0-.47-1.07,1.79,1.79,0,0,0-1.21-.41,1.72,1.72,0,0,0-1.2.42,1.49,1.49,0,0,0,0,2.16,2,2,0,0,0,2.41,0A1.23,1.23,0,0,0,125.72,445.67Zm-.12-4.38a1.34,1.34,0,0,0-.43-1,1.49,1.49,0,0,0-1.08-.4,1.53,1.53,0,0,0-1.09.4,1.32,1.32,0,0,0-.42,1,1.34,1.34,0,0,0,.45,1,1.55,1.55,0,0,0,2.13,0A1.33,1.33,0,0,0,125.6,441.29Z"/><line class="cls-7" x1="115.13" y1="418.53" x2="115.13" y2="388.82"/><circle class="cls-7" cx="115.13" cy="379.1" r="9.71" transform="translate(-136.31 72.92) rotate(-22.5)"/><path class="cls-8" d="M114.73,376h1v7h-1Z"/><rect class="cls-5" x="154.94" y="405.84" width="11.72" height="21.55"/><path class="cls-6" d="M150.37,438.68h1.37v9.55h-1.37Z"/><path class="cls-6" d="M157.16,448.34l-.84-1a8,8,0,0,0,1.85-1.62,5.19,5.19,0,0,0,1.06-2,2.82,2.82,0,0,1-1.53.4,2.5,2.5,0,0,1-1.87-.81,2.85,2.85,0,0,1,0-4,2.78,2.78,0,0,1,2-.83,2.81,2.81,0,0,1,2.21,1,3.63,3.63,0,0,1,.86,2.51,6.76,6.76,0,0,1-1.08,3.51A8.13,8.13,0,0,1,157.16,448.34Zm2.34-5.93c.05-.36.08-.6.08-.71a2.05,2.05,0,0,0-.46-1.36,1.52,1.52,0,0,0-1.19-.52,1.47,1.47,0,0,0-1.1.45,1.52,1.52,0,0,0-.43,1.12,1.43,1.43,0,0,0,.47,1.07,1.58,1.58,0,0,0,1.13.46A2.61,2.61,0,0,0,159.5,442.41Z"/><path class="cls-6" d="M164.16,448.34l-.84-1a8,8,0,0,0,1.85-1.62,5.19,5.19,0,0,0,1.06-2,2.82,2.82,0,0,1-1.53.4,2.5,2.5,0,0,1-1.87-.81,2.85,2.85,0,0,1,0-4,2.78,2.78,0,0,1,2-.83,2.81,2.81,0,0,1,2.21,1,3.63,3.63,0,0,1,.86,2.51,6.76,6.76,0,0,1-1.08,3.51A8.13,8.13,0,0,1,164.16,448.34Zm2.34-5.93c.05-.36.08-.6.08-.71a2.05,2.05,0,0,0-.46-1.36,1.52,1.52,0,0,0-1.19-.52,1.47,1.47,0,0,0-1.1.45,1.52,1.52,0,0,0-.43,1.12,1.43,1.43,0,0,0,.47,1.07,1.58,1.58,0,0,0,1.13.46A2.61,2.61,0,0,0,166.5,442.41Z"/><path class="cls-6" d="M171.16,448.34l-.84-1a8,8,0,0,0,1.85-1.62,5.19,5.19,0,0,0,1.06-2,2.82,2.82,0,0,1-1.53.4,2.5,2.5,0,0,1-1.87-.81,2.85,2.85,0,0,1,0-4,2.78,2.78,0,0,1,2-.83,2.81,2.81,0,0,1,2.21,1,3.63,3.63,0,0,1,.86,2.51,6.76,6.76,0,0,1-1.08,3.51A8.13,8.13,0,0,1,171.16,448.34Zm2.34-5.93c.05-.36.08-.6.08-.71a2.05,2.05,0,0,0-.46-1.36,1.52,1.52,0,0,0-1.19-.52,1.47,1.47,0,0,0-1.1.45,1.52,1.52,0,0,0-.43,1.12,1.43,1.43,0,0,0,.47,1.07,1.58,1.58,0,0,0,1.13.46A2.61,2.61,0,0,0,173.5,442.41Z"/><line class="cls-7" x1="160.8" y1="402.41" x2="160.8" y2="372.7"/><circle class="cls-7" cx="160.8" cy="362.99" r="9.71" transform="translate(-223.26 463.57) rotate(-80.78)"/><path class="cls-8" d="M157.85,365.21h2.66v1h-4.43v-.07l.42-.5c.66-.81,1.18-1.5,1.57-2.07a8.23,8.23,0,0,0,.77-1.29,2.23,2.23,0,0,0,.17-.86,1.34,1.34,0,0,0-.33-.95,1.15,1.15,0,0,0-.89-.36,1.54,1.54,0,0,0-.83.25,2.4,2.4,0,0,0-.74.69v-1.27a2.69,2.69,0,0,1,1.69-.67,2,2,0,0,1,1.51.62,2.14,2.14,0,0,1,.59,1.55,3.35,3.35,0,0,1-.14.9,5.43,5.43,0,0,1-.53,1.11,15.8,15.8,0,0,1-1.28,1.7Z"/><path class="cls-8" d="M162.94,359.17h1v7h-1Z"/><rect class="cls-5" x="202.95" y="188.67" width="11.72" height="238.72"/><path class="cls-6" d="M197,446.91h3.64v1.32h-6v-.09l.58-.68c.9-1.11,1.61-2,2.14-2.83a10.35,10.35,0,0,0,1-1.76,3.06,3.06,0,0,0,.24-1.17,1.85,1.85,0,0,0-.45-1.3,1.62,1.62,0,0,0-1.22-.49,2.21,2.21,0,0,0-1.13.34,3.49,3.49,0,0,0-1,1v-1.74a3.58,3.58,0,0,1,2.29-.91,2.76,2.76,0,0,1,2.06.83,2.94,2.94,0,0,1,.81,2.12,4,4,0,0,1-.2,1.23,6.85,6.85,0,0,1-.71,1.51,20.71,20.71,0,0,1-1.74,2.32Z"/><path class="cls-6" d="M204.63,438.56a2.51,2.51,0,0,1,2.17,1.38,7.61,7.61,0,0,1,0,7,2.51,2.51,0,0,1-4.45,0,6.58,6.58,0,0,1-.84-3.54,6.43,6.43,0,0,1,.87-3.53A2.57,2.57,0,0,1,204.63,438.56Zm0,1.3h-.06a1.4,1.4,0,0,0-1.25,1,6.12,6.12,0,0,0-.46,2.62,6.41,6.41,0,0,0,.45,2.66,1.29,1.29,0,0,0,2.49,0,6.12,6.12,0,0,0,.46-2.62,6.5,6.5,0,0,0-.44-2.65C205.54,440.19,205.14,439.86,204.64,439.86Z"/><path class="cls-6" d="M211.63,438.56a2.51,2.51,0,0,1,2.17,1.38,7.61,7.61,0,0,1,0,7,2.51,2.51,0,0,1-4.45,0,6.58,6.58,0,0,1-.84-3.54,6.43,6.43,0,0,1,.87-3.53A2.57,2.57,0,0,1,211.63,438.56Zm0,1.3h-.06a1.4,1.4,0,0,0-1.25,1,6.12,6.12,0,0,0-.46,2.62,6.41,6.41,0,0,0,.45,2.66,1.29,1.29,0,0,0,2.49,0,6.12,6.12,0,0,0,.46-2.62,6.5,6.5,0,0,0-.44-2.65C212.54,440.19,212.14,439.86,211.64,439.86Z"/><path class="cls-6" d="M218.63,438.56a2.51,2.51,0,0,1,2.17,1.38,7.61,7.61,0,0,1,0,7,2.51,2.51,0,0,1-4.45,0,6.58,6.58,0,0,1-.84-3.54,6.43,6.43,0,0,1,.87-3.53A2.57,2.57,0,0,1,218.63,438.56Zm0,1.3h-.06a1.4,1.4,0,0,0-1.25,1,6.12,6.12,0,0,0-.46,2.62,6.41,6.41,0,0,0,.45,2.66,1.29,1.29,0,0,0,2.49,0,6.12,6.12,0,0,0,.46-2.62,6.5,6.5,0,0,0-.44-2.65C219.54,440.19,219.14,439.86,218.64,439.86Z"/><line class="cls-7" x1="208.81" y1="185.24" x2="208.81" y2="155.53"/><circle class="cls-7" cx="208.81" cy="145.82" r="9.71" transform="translate(-41.95 190.36) rotate(-45)"/><path class="cls-8" d="M203.37,144.93h.06a1.61,1.61,0,0,0,1-.27.93.93,0,0,0,.34-.78,1,1,0,0,0-.33-.76,1.31,1.31,0,0,0-.88-.29,2.66,2.66,0,0,0-1.21.34v-1a3,3,0,0,1,1.33-.3,2.17,2.17,0,0,1,1.53.5,1.79,1.79,0,0,1,.56,1.39,1.66,1.66,0,0,1-.22.89,1.72,1.72,0,0,1-.68.62,1.46,1.46,0,0,1,.6.4,1.74,1.74,0,0,1,.29.56,2.33,2.33,0,0,1,.11.7,2,2,0,0,1-.61,1.52,2.13,2.13,0,0,1-1.55.6,3.4,3.4,0,0,1-1.54-.38v-1.1a2.92,2.92,0,0,0,1.54.5,1.13,1.13,0,0,0,.82-.3,1.09,1.09,0,0,0,.31-.8,1.12,1.12,0,0,0-.26-.73,1,1,0,0,0-.33-.25,3.11,3.11,0,0,0-.79-.16h-.09Z"/><path class="cls-8" d="M208.36,148.05H211v1h-4.44v-.07l.42-.49c.66-.82,1.19-1.51,1.58-2.08a8.82,8.82,0,0,0,.76-1.29,2.25,2.25,0,0,0,.18-.86,1.35,1.35,0,0,0-.34-.95,1.15,1.15,0,0,0-.89-.36,1.54,1.54,0,0,0-.83.25,2.44,2.44,0,0,0-.74.7v-1.28a2.68,2.68,0,0,1,1.69-.66,2,2,0,0,1,1.51.61,2.11,2.11,0,0,1,.59,1.55,3.35,3.35,0,0,1-.14.9,5.43,5.43,0,0,1-.53,1.11,14.55,14.55,0,0,1-1.28,1.7Z"/><path class="cls-8" d="M212,142h3.11v.89h-2.19v1.77h.21a2.37,2.37,0,0,1,1.68.62,2.07,2.07,0,0,1,.66,1.58,2.12,2.12,0,0,1-.65,1.6,2.34,2.34,0,0,1-1.69.62,3.48,3.48,0,0,1-1.65-.41v-1a2.69,2.69,0,0,0,1.48.49,1.56,1.56,0,0,0,1.06-.37,1.16,1.16,0,0,0,.43-.9,1.14,1.14,0,0,0-.47-.93,1.8,1.8,0,0,0-1.16-.38,2.43,2.43,0,0,0-.82.1Z"/><rect class="cls-5" x="250.73" y="270.95" width="11.72" height="156.44"/><path class="cls-6" d="M244.23,446.91h3.63v1.32h-6v-.09l.57-.68c.9-1.11,1.62-2,2.15-2.83a10.13,10.13,0,0,0,1-1.76,2.9,2.9,0,0,0,.25-1.17,1.81,1.81,0,0,0-.46-1.3,1.62,1.62,0,0,0-1.22-.49,2.21,2.21,0,0,0-1.13.34,3.62,3.62,0,0,0-1,1v-1.74a3.58,3.58,0,0,1,2.3-.91,2.77,2.77,0,0,1,2.06.83,2.94,2.94,0,0,1,.81,2.12,4.26,4.26,0,0,1-.2,1.23,7.45,7.45,0,0,1-.72,1.51,20.71,20.71,0,0,1-1.74,2.32Z"/><path class="cls-6" d="M251.89,438.56a2.51,2.51,0,0,1,2.17,1.38,7.61,7.61,0,0,1,0,7,2.51,2.51,0,0,1-4.45,0,6.58,6.58,0,0,1-.84-3.54,6.43,6.43,0,0,1,.87-3.53A2.58,2.58,0,0,1,251.89,438.56Zm0,1.3h-.07a1.41,1.41,0,0,0-1.25,1,6.28,6.28,0,0,0-.46,2.62,6.41,6.41,0,0,0,.45,2.66,1.39,1.39,0,0,0,1.25,1,1.41,1.41,0,0,0,1.25-1,6.28,6.28,0,0,0,.46-2.62,6.48,6.48,0,0,0-.45-2.65C252.8,440.19,252.41,439.86,251.91,439.86Z"/><path class="cls-6" d="M258.89,438.56a2.51,2.51,0,0,1,2.17,1.38,7.61,7.61,0,0,1,0,7,2.51,2.51,0,0,1-4.45,0,6.58,6.58,0,0,1-.84-3.54,6.43,6.43,0,0,1,.87-3.53A2.58,2.58,0,0,1,258.89,438.56Zm0,1.3h-.07a1.41,1.41,0,0,0-1.25,1,6.28,6.28,0,0,0-.46,2.62,6.41,6.41,0,0,0,.45,2.66,1.39,1.39,0,0,0,1.25,1,1.41,1.41,0,0,0,1.25-1,6.28,6.28,0,0,0,.46-2.62,6.48,6.48,0,0,0-.45-2.65C259.8,440.19,259.41,439.86,258.91,439.86Z"/><path class="cls-6" d="M265.17,438.68h1.37v9.55h-1.37Z"/><line class="cls-7" x1="256.59" y1="267.52" x2="256.59" y2="237.81"/><circle class="cls-7" cx="256.59" cy="228.1" r="9.71"/><path class="cls-8" d="M252,224.29h1v7h-1Z"/><path class="cls-8" d="M255.51,224.29h3.11v.89h-2.19V227h.21a2.33,2.33,0,0,1,1.68.62,2.06,2.06,0,0,1,.65,1.58,2.12,2.12,0,0,1-.64,1.6,2.34,2.34,0,0,1-1.69.62A3.48,3.48,0,0,1,255,231v-1a2.69,2.69,0,0,0,1.48.49,1.56,1.56,0,0,0,1.06-.37,1.16,1.16,0,0,0,.43-.9,1.13,1.13,0,0,0-.47-.93,1.8,1.8,0,0,0-1.16-.38,2.19,2.19,0,0,0-.82.1Z"/><path class="cls-8" d="M261.07,224.29h1v7h-1Z"/><rect class="cls-5" x="297.72" y="313.91" width="11.72" height="113.48"/><path class="cls-6" d="M291.49,446.91h3.64v1.32h-6.05v-.09l.58-.68c.89-1.11,1.61-2,2.14-2.83a10.35,10.35,0,0,0,1-1.76,3.06,3.06,0,0,0,.24-1.17,1.81,1.81,0,0,0-.46-1.3,1.6,1.6,0,0,0-1.21-.49,2.18,2.18,0,0,0-1.13.34,3.52,3.52,0,0,0-1,1v-1.74a3.6,3.6,0,0,1,2.3-.91,2.77,2.77,0,0,1,2.06.83,2.94,2.94,0,0,1,.81,2.12,4.26,4.26,0,0,1-.2,1.23,6.85,6.85,0,0,1-.71,1.51,22.46,22.46,0,0,1-1.75,2.32Z"/><path class="cls-6" d="M299.16,438.56a2.52,2.52,0,0,1,2.17,1.38,7.61,7.61,0,0,1,0,7,2.51,2.51,0,0,1-4.45,0,7.7,7.7,0,0,1,0-7.07A2.58,2.58,0,0,1,299.16,438.56Zm0,1.3h-.07a1.38,1.38,0,0,0-1.24,1,6.11,6.11,0,0,0-.47,2.62,6.39,6.39,0,0,0,.46,2.66,1.29,1.29,0,0,0,2.49,0,6.12,6.12,0,0,0,.46-2.62,6.67,6.67,0,0,0-.44-2.65C300.06,440.19,299.67,439.86,299.17,439.86Z"/><path class="cls-6" d="M306.16,438.56a2.52,2.52,0,0,1,2.17,1.38,7.61,7.61,0,0,1,0,7,2.51,2.51,0,0,1-4.45,0,7.7,7.7,0,0,1,0-7.07A2.58,2.58,0,0,1,306.16,438.56Zm0,1.3h-.07a1.38,1.38,0,0,0-1.24,1,6.11,6.11,0,0,0-.47,2.62,6.39,6.39,0,0,0,.46,2.66,1.29,1.29,0,0,0,2.49,0,6.12,6.12,0,0,0,.46-2.62,6.67,6.67,0,0,0-.44-2.65C307.06,440.19,306.67,439.86,306.17,439.86Z"/><path class="cls-6" d="M312.49,446.91h3.64v1.32h-6.05v-.09l.58-.68c.89-1.11,1.61-2,2.14-2.83a10.35,10.35,0,0,0,1-1.76,3.06,3.06,0,0,0,.24-1.17,1.81,1.81,0,0,0-.46-1.3,1.6,1.6,0,0,0-1.21-.49,2.18,2.18,0,0,0-1.13.34,3.52,3.52,0,0,0-1,1v-1.74a3.6,3.6,0,0,1,2.3-.91,2.77,2.77,0,0,1,2.06.83,2.94,2.94,0,0,1,.81,2.12,4.26,4.26,0,0,1-.2,1.23,6.85,6.85,0,0,1-.71,1.51,22.46,22.46,0,0,1-1.75,2.32Z"/><line class="cls-7" x1="303.57" y1="310.49" x2="303.57" y2="280.77"/><circle class="cls-7" cx="303.57" cy="271.06" r="9.71" transform="translate(-29.98 504.24) rotate(-76.72)"/><path class="cls-8" d="M298.26,267.77h1v7h-1Z"/><path class="cls-8" d="M302.57,267.77h1v7h-1Z"/><path class="cls-8" d="M306.93,273.8h2.66v1h-4.43v-.07l.42-.49c.66-.82,1.18-1.51,1.57-2.08a8.23,8.23,0,0,0,.77-1.29,2.23,2.23,0,0,0,.17-.86,1.34,1.34,0,0,0-.33-1,1.15,1.15,0,0,0-.89-.36,1.54,1.54,0,0,0-.83.25,2.44,2.44,0,0,0-.74.7v-1.28a2.68,2.68,0,0,1,1.69-.66,2,2,0,0,1,1.51.61,2.15,2.15,0,0,1,.59,1.55,3.35,3.35,0,0,1-.14.9,5.43,5.43,0,0,1-.53,1.11,15.8,15.8,0,0,1-1.28,1.7Z"/><path class="cls-8" d="M345.58,267.25h1v7h-1Z"/><path class="cls-8" d="M349.9,267.25h1v7h-1Z"/><path class="cls-8" d="M354.25,273.29h2.67v1h-4.44v-.07l.43-.49c.65-.82,1.18-1.51,1.57-2.08a8,8,0,0,0,.76-1.29,2.25,2.25,0,0,0,.18-.86,1.3,1.3,0,0,0-.34-.95,1.15,1.15,0,0,0-.89-.36,1.54,1.54,0,0,0-.83.25,2.56,2.56,0,0,0-.74.7v-1.28a2.68,2.68,0,0,1,1.69-.66,2,2,0,0,1,1.51.61,2.12,2.12,0,0,1,.6,1.55,3,3,0,0,1-.15.9,5,5,0,0,1-.53,1.11,15.43,15.43,0,0,1-1.27,1.7Z"/><rect class="cls-5" x="344.72" y="313.91" width="11.72" height="113.48"/><path class="cls-6" d="M338.75,446.91h3.64v1.32h-6v-.09l.57-.68c.9-1.11,1.61-2,2.14-2.83a10.35,10.35,0,0,0,1-1.76,3.06,3.06,0,0,0,.24-1.17,1.85,1.85,0,0,0-.45-1.3,1.62,1.62,0,0,0-1.22-.49,2.21,2.21,0,0,0-1.13.34,3.49,3.49,0,0,0-1,1v-1.74a3.58,3.58,0,0,1,2.29-.91,2.74,2.74,0,0,1,2.06.83,2.9,2.9,0,0,1,.82,2.12,4,4,0,0,1-.21,1.23,6.85,6.85,0,0,1-.71,1.51,20.71,20.71,0,0,1-1.74,2.32Z"/><path class="cls-6" d="M346.42,438.56a2.51,2.51,0,0,1,2.17,1.38,7.61,7.61,0,0,1,0,7,2.51,2.51,0,0,1-4.45,0,6.58,6.58,0,0,1-.84-3.54,6.43,6.43,0,0,1,.87-3.53A2.58,2.58,0,0,1,346.42,438.56Zm0,1.3h-.07a1.4,1.4,0,0,0-1.25,1,6.12,6.12,0,0,0-.46,2.62,6.41,6.41,0,0,0,.45,2.66,1.29,1.29,0,0,0,2.49,0,6.12,6.12,0,0,0,.46-2.62,6.5,6.5,0,0,0-.44-2.65C347.33,440.19,346.93,439.86,346.44,439.86Z"/><path class="cls-6" d="M353.42,438.56a2.51,2.51,0,0,1,2.17,1.38,7.61,7.61,0,0,1,0,7,2.51,2.51,0,0,1-4.45,0,6.58,6.58,0,0,1-.84-3.54,6.43,6.43,0,0,1,.87-3.53A2.58,2.58,0,0,1,353.42,438.56Zm0,1.3h-.07a1.4,1.4,0,0,0-1.25,1,6.12,6.12,0,0,0-.46,2.62,6.41,6.41,0,0,0,.45,2.66,1.29,1.29,0,0,0,2.49,0,6.12,6.12,0,0,0,.46-2.62,6.5,6.5,0,0,0-.44-2.65C354.33,440.19,353.93,439.86,353.44,439.86Z"/><path class="cls-6" d="M359.39,442.68h.08a2.23,2.23,0,0,0,1.37-.37,1.3,1.3,0,0,0,.46-1.08,1.32,1.32,0,0,0-.45-1,1.76,1.76,0,0,0-1.19-.4,3.72,3.72,0,0,0-1.66.47V439a4.12,4.12,0,0,1,1.82-.41,3,3,0,0,1,2.08.69,2.41,2.41,0,0,1,.76,1.88,2.32,2.32,0,0,1-.29,1.22,2.38,2.38,0,0,1-.94.85,2,2,0,0,1,.82.54,2.26,2.26,0,0,1,.41.77,3.32,3.32,0,0,1,.14,1,2.81,2.81,0,0,1-.83,2.07,2.91,2.91,0,0,1-2.11.81,4.53,4.53,0,0,1-2.1-.52v-1.49a4,4,0,0,0,2.1.67,1.49,1.49,0,0,0,1.11-.41,1.43,1.43,0,0,0,.42-1.08,1.51,1.51,0,0,0-.35-1,1.37,1.37,0,0,0-.45-.35,5.22,5.22,0,0,0-1.08-.21l-.12,0Z"/><line class="cls-7" x1="350.58" y1="310.49" x2="350.58" y2="280.77"/><circle class="cls-7" cx="350.58" cy="271.06" r="9.71" transform="translate(26.86 573.69) rotate(-80.78)"/><rect class="cls-5" x="391.99" y="347.7" width="11.72" height="79.69"/><line class="cls-7" x1="397.84" y1="344.27" x2="397.84" y2="314.56"/><circle class="cls-7" cx="397.84" cy="304.85" r="9.71"/><path class="cls-8" d="M393.18,302.92a1.81,1.81,0,0,1,.62-1.4,2.13,2.13,0,0,1,1.5-.57,2.09,2.09,0,0,1,1.49.56,1.87,1.87,0,0,1,.6,1.41,1.81,1.81,0,0,1-.87,1.54,1.92,1.92,0,0,1,.34,3.09,2.5,2.5,0,0,1-3.19,0,1.81,1.81,0,0,1-.65-1.43,1.83,1.83,0,0,1,1-1.65,2.44,2.44,0,0,1-.64-.72A1.66,1.66,0,0,1,393.18,302.92Zm3.3,3.24v-.1a1,1,0,0,0-.34-.78,1.28,1.28,0,0,0-.9-.31,1.22,1.22,0,0,0-.87.31,1.08,1.08,0,0,0,0,1.58,1.27,1.27,0,0,0,.89.31,1.3,1.3,0,0,0,.87-.28A.9.9,0,0,0,396.48,306.16Zm-.09-3.21a1,1,0,0,0-.31-.76,1.14,1.14,0,0,0-.8-.29,1.11,1.11,0,0,0-.79.29,1,1,0,0,0,0,1.49,1.15,1.15,0,0,0,1.56,0A1,1,0,0,0,396.39,303Z"/><path class="cls-8" d="M401.47,301h.41v3.93h.78v.85h-.78V308h-1v-2.31h-3v-.43Zm-.57,3.93v-2l-1.62,2Z"/><path class="cls-6" d="M386,447.6h3.63v1.32h-6v-.1l.57-.67c.9-1.12,1.62-2.06,2.15-2.83a10.52,10.52,0,0,0,1-1.76,3,3,0,0,0,.25-1.18,1.77,1.77,0,0,0-.46-1.29,1.58,1.58,0,0,0-1.22-.49,2.12,2.12,0,0,0-1.13.34,3.44,3.44,0,0,0-1,.95v-1.74a3.62,3.62,0,0,1,2.3-.9,2.74,2.74,0,0,1,2.06.83,2.92,2.92,0,0,1,.81,2.12,4.37,4.37,0,0,1-.2,1.23,7.66,7.66,0,0,1-.72,1.5,19.83,19.83,0,0,1-1.74,2.32Z"/><path class="cls-6" d="M393.68,439.25a2.49,2.49,0,0,1,2.17,1.37,7.61,7.61,0,0,1,0,7,2.51,2.51,0,0,1-4.45,0,6.56,6.56,0,0,1-.84-3.53,6.49,6.49,0,0,1,.87-3.54A2.59,2.59,0,0,1,393.68,439.25Zm0,1.29h-.07a1.42,1.42,0,0,0-1.25,1,6.31,6.31,0,0,0-.46,2.62,6.41,6.41,0,0,0,.45,2.66,1.4,1.4,0,0,0,1.25,1,1.42,1.42,0,0,0,1.25-1,6.25,6.25,0,0,0,.46-2.62,6.43,6.43,0,0,0-.45-2.64C394.59,440.87,394.2,440.54,393.7,440.54Z"/><path class="cls-6" d="M400.68,439.25a2.49,2.49,0,0,1,2.17,1.37,7.61,7.61,0,0,1,0,7,2.51,2.51,0,0,1-4.45,0,6.56,6.56,0,0,1-.84-3.53,6.49,6.49,0,0,1,.87-3.54A2.59,2.59,0,0,1,400.68,439.25Zm0,1.29h-.07a1.42,1.42,0,0,0-1.25,1,6.31,6.31,0,0,0-.46,2.62,6.41,6.41,0,0,0,.45,2.66,1.4,1.4,0,0,0,1.25,1,1.42,1.42,0,0,0,1.25-1,6.25,6.25,0,0,0,.46-2.62,6.43,6.43,0,0,0-.45-2.64C401.59,440.87,401.2,440.54,400.7,440.54Z"/><path class="cls-6" d="M409.1,439.25h.56v5.35h1.07v1.17h-1.07v3.15h-1.33v-3.15h-4v-.59Zm-.77,5.35v-2.76l-2.21,2.76Z"/><rect class="cls-5" x="440.43" y="379.56" width="11.72" height="47.83"/><line class="cls-7" x1="446.29" y1="376.13" x2="446.29" y2="346.42"/><circle class="cls-7" cx="446.29" cy="336.71" r="9.71"/><path class="cls-8" d="M444.72,332.8h.42v3.93h.78v.86h-.78v2.31h-1v-2.31h-3v-.43Zm-.56,3.93v-2l-1.62,2Z"/><path class="cls-8" d="M448.82,332.8a1.85,1.85,0,0,1,1.59,1,5.6,5.6,0,0,1,0,5.16,1.84,1.84,0,0,1-3.26,0,5.66,5.66,0,0,1,0-5.19A1.9,1.9,0,0,1,448.82,332.8Zm0,1h-.05a1,1,0,0,0-.91.71,4.43,4.43,0,0,0-.34,1.92,4.69,4.69,0,0,0,.33,1.95,1,1,0,0,0,.91.71,1,1,0,0,0,.92-.71,4.6,4.6,0,0,0,.33-1.92,4.75,4.75,0,0,0-.32-1.94Q449.39,333.76,448.83,333.76Z"/><path class="cls-6" d="M433.22,446.91h3.63v1.32h-6v-.09l.57-.68c.9-1.11,1.62-2,2.15-2.83a11.08,11.08,0,0,0,1-1.76,3.06,3.06,0,0,0,.24-1.17,1.81,1.81,0,0,0-.46-1.3,1.6,1.6,0,0,0-1.22-.49,2.21,2.21,0,0,0-1.13.34,3.62,3.62,0,0,0-1,1v-1.74a3.58,3.58,0,0,1,2.3-.91,2.77,2.77,0,0,1,2.06.83,2.94,2.94,0,0,1,.81,2.12,4.26,4.26,0,0,1-.2,1.23,7.45,7.45,0,0,1-.72,1.51,20.71,20.71,0,0,1-1.74,2.32Z"/><path class="cls-6" d="M440.89,438.56a2.53,2.53,0,0,1,2.17,1.38,7.69,7.69,0,0,1,0,7,2.52,2.52,0,0,1-4.46,0,6.58,6.58,0,0,1-.84-3.54,6.43,6.43,0,0,1,.87-3.53A2.58,2.58,0,0,1,440.89,438.56Zm0,1.3h-.07a1.41,1.41,0,0,0-1.25,1,6.28,6.28,0,0,0-.46,2.62,6.41,6.41,0,0,0,.45,2.66,1.29,1.29,0,0,0,2.5,0,6.28,6.28,0,0,0,.46-2.62,6.67,6.67,0,0,0-.44-2.65C441.79,440.19,441.4,439.86,440.9,439.86Z"/><path class="cls-6" d="M447.89,438.56a2.53,2.53,0,0,1,2.17,1.38,7.69,7.69,0,0,1,0,7,2.52,2.52,0,0,1-4.46,0,6.58,6.58,0,0,1-.84-3.54,6.43,6.43,0,0,1,.87-3.53A2.58,2.58,0,0,1,447.89,438.56Zm0,1.3h-.07a1.41,1.41,0,0,0-1.25,1,6.28,6.28,0,0,0-.46,2.62,6.41,6.41,0,0,0,.45,2.66,1.29,1.29,0,0,0,2.5,0,6.28,6.28,0,0,0,.46-2.62,6.67,6.67,0,0,0-.44-2.65C448.79,440.19,448.4,439.86,447.9,439.86Z"/><path class="cls-6" d="M452.75,438.68H457v1.22h-3v2.41h.29a3.22,3.22,0,0,1,2.29.84,2.86,2.86,0,0,1,.89,2.15,2.92,2.92,0,0,1-.88,2.2,3.21,3.21,0,0,1-2.3.84,4.93,4.93,0,0,1-2.25-.56v-1.41a3.68,3.68,0,0,0,2,.67,2.16,2.16,0,0,0,1.44-.5,1.58,1.58,0,0,0-.05-2.5,2.45,2.45,0,0,0-1.59-.51,3,3,0,0,0-1.1.13Z"/><rect class="cls-5" x="486.17" y="402.41" width="11.72" height="24.97"/><line class="cls-7" x1="492.03" y1="398.99" x2="492.03" y2="369.28"/><circle class="cls-7" cx="492.03" cy="359.56" r="9.71" transform="translate(58.29 787.64) rotate(-80.78)"/><path class="cls-8" d="M489,361.79h2.67v1h-4.44v-.07l.42-.5c.66-.82,1.19-1.51,1.58-2.08a7.2,7.2,0,0,0,.76-1.29,2.21,2.21,0,0,0,.18-.86,1.32,1.32,0,0,0-.34-.95,1.15,1.15,0,0,0-.89-.36,1.63,1.63,0,0,0-.83.25,2.71,2.71,0,0,0-.74.7v-1.27a2.64,2.64,0,0,1,1.69-.67,2,2,0,0,1,1.51.61,2.14,2.14,0,0,1,.6,1.56,3,3,0,0,1-.15.9,5.39,5.39,0,0,1-.53,1.1,14.53,14.53,0,0,1-1.27,1.7Z"/><path class="cls-8" d="M493.05,355.75h3.11v.89H494v1.77h.22a2.36,2.36,0,0,1,1.67.62,2.08,2.08,0,0,1,.66,1.58,2.13,2.13,0,0,1-.65,1.61,2.37,2.37,0,0,1-1.68.62,3.64,3.64,0,0,1-1.66-.41v-1a2.69,2.69,0,0,0,1.48.49,1.6,1.6,0,0,0,1.06-.36,1.17,1.17,0,0,0,0-1.84,1.79,1.79,0,0,0-1.16-.37,2.1,2.1,0,0,0-.81.1Z"/><path class="cls-6" d="M480.89,446.91h3.63v1.32h-6v-.09l.57-.68c.9-1.11,1.61-2,2.14-2.83a9.7,9.7,0,0,0,1-1.76,2.9,2.9,0,0,0,.25-1.17,1.86,1.86,0,0,0-.46-1.3,1.62,1.62,0,0,0-1.22-.49,2.21,2.21,0,0,0-1.13.34,3.62,3.62,0,0,0-1,1v-1.74a3.58,3.58,0,0,1,2.3-.91,2.77,2.77,0,0,1,2.06.83,2.94,2.94,0,0,1,.81,2.12,4.26,4.26,0,0,1-.2,1.23,7.45,7.45,0,0,1-.72,1.51,20.71,20.71,0,0,1-1.74,2.32Z"/><path class="cls-6" d="M488.55,438.56a2.51,2.51,0,0,1,2.17,1.38,7.61,7.61,0,0,1,0,7,2.51,2.51,0,0,1-4.45,0,6.58,6.58,0,0,1-.84-3.54,6.43,6.43,0,0,1,.87-3.53A2.58,2.58,0,0,1,488.55,438.56Zm0,1.3h-.07a1.4,1.4,0,0,0-1.25,1,6.12,6.12,0,0,0-.46,2.62,6.41,6.41,0,0,0,.45,2.66,1.39,1.39,0,0,0,1.25,1,1.41,1.41,0,0,0,1.25-1,6.3,6.3,0,0,0,.45-2.62,6.5,6.5,0,0,0-.44-2.65C489.46,440.19,489.06,439.86,488.57,439.86Z"/><path class="cls-6" d="M495.55,438.56a2.51,2.51,0,0,1,2.17,1.38,7.61,7.61,0,0,1,0,7,2.51,2.51,0,0,1-4.45,0,6.58,6.58,0,0,1-.84-3.54,6.43,6.43,0,0,1,.87-3.53A2.58,2.58,0,0,1,495.55,438.56Zm0,1.3h-.07a1.4,1.4,0,0,0-1.25,1,6.12,6.12,0,0,0-.46,2.62,6.41,6.41,0,0,0,.45,2.66,1.39,1.39,0,0,0,1.25,1,1.41,1.41,0,0,0,1.25-1,6.3,6.3,0,0,0,.45-2.62,6.5,6.5,0,0,0-.44-2.65C496.46,440.19,496.06,439.86,495.57,439.86Z"/><path class="cls-6" d="M503.3,438.66l.14-.1.82,1a8.19,8.19,0,0,0-1.81,1.54,5.93,5.93,0,0,0-1.11,2,3.26,3.26,0,0,1,1.51-.39,2.52,2.52,0,0,1,1.9.8,2.72,2.72,0,0,1,.77,2,2.76,2.76,0,0,1-.84,2,2.81,2.81,0,0,1-2,.83,2.75,2.75,0,0,1-2.18-.94,3.66,3.66,0,0,1-.83-2.48,6.36,6.36,0,0,1,.43-2.29,7.38,7.38,0,0,1,1.23-2.13A9.45,9.45,0,0,1,503.3,438.66ZM501,444.52a5.19,5.19,0,0,0-.05.72,1.88,1.88,0,0,0,.47,1.33,1.56,1.56,0,0,0,1.2.52,1.43,1.43,0,0,0,1.08-.45,1.58,1.58,0,0,0,.43-1.12,1.46,1.46,0,0,0-.46-1.12,1.69,1.69,0,0,0-1.2-.43,1.92,1.92,0,0,0-.69.12A4,4,0,0,0,501,444.52Z"/><rect class="cls-5" x="533.78" y="413.84" width="11.72" height="13.55"/><line class="cls-7" x1="539.63" y1="410.41" x2="539.63" y2="380.7"/><circle class="cls-7" cx="539.63" cy="370.99" r="9.71"/><path class="cls-8" d="M540.08,367.16l.1-.07.6.76a6,6,0,0,0-1.33,1.13,4.41,4.41,0,0,0-.81,1.44,2.41,2.41,0,0,1,1.1-.29,1.87,1.87,0,0,1,1.4.59,2,2,0,0,1,.57,1.44,2.14,2.14,0,0,1-3.72,1.41,2.69,2.69,0,0,1-.61-1.82,4.76,4.76,0,0,1,.32-1.68,5.45,5.45,0,0,1,.9-1.56A6.7,6.7,0,0,1,540.08,367.16Zm-1.66,4.3a2.86,2.86,0,0,0,0,.53,1.38,1.38,0,0,0,.34,1,1.16,1.16,0,0,0,.88.38,1.06,1.06,0,0,0,.8-.33,1.12,1.12,0,0,0,.31-.82,1.08,1.08,0,0,0-.33-.82,1.23,1.23,0,0,0-.88-.31,1.6,1.6,0,0,0-.51.08A3.57,3.57,0,0,0,538.42,371.46Z"/><path class="cls-6" d="M527.81,447.6h3.63v1.32h-6v-.1l.57-.67c.9-1.12,1.62-2.06,2.15-2.83a11.55,11.55,0,0,0,1-1.76,3.15,3.15,0,0,0,.24-1.18,1.77,1.77,0,0,0-.46-1.29,1.57,1.57,0,0,0-1.22-.49,2.12,2.12,0,0,0-1.13.34,3.44,3.44,0,0,0-1,.95v-1.74a3.62,3.62,0,0,1,2.3-.9,2.74,2.74,0,0,1,2.06.83,2.92,2.92,0,0,1,.81,2.12,4.37,4.37,0,0,1-.2,1.23,7.66,7.66,0,0,1-.72,1.5,19.83,19.83,0,0,1-1.74,2.32Z"/><path class="cls-6" d="M535.48,439.25a2.52,2.52,0,0,1,2.17,1.37,7.69,7.69,0,0,1,0,7,2.57,2.57,0,0,1-2.23,1.36,2.54,2.54,0,0,1-2.23-1.33,6.56,6.56,0,0,1-.84-3.53,6.49,6.49,0,0,1,.87-3.54A2.59,2.59,0,0,1,535.48,439.25Zm0,1.29h-.07a1.42,1.42,0,0,0-1.25,1,6.31,6.31,0,0,0-.46,2.62,6.41,6.41,0,0,0,.45,2.66,1.29,1.29,0,0,0,2.5,0,6.25,6.25,0,0,0,.46-2.62,6.62,6.62,0,0,0-.44-2.64C536.38,440.87,536,440.54,535.49,440.54Z"/><path class="cls-6" d="M542.48,439.25a2.52,2.52,0,0,1,2.17,1.37,7.69,7.69,0,0,1,0,7,2.57,2.57,0,0,1-2.23,1.36,2.54,2.54,0,0,1-2.23-1.33,6.56,6.56,0,0,1-.84-3.53,6.49,6.49,0,0,1,.87-3.54A2.59,2.59,0,0,1,542.48,439.25Zm0,1.29h-.07a1.42,1.42,0,0,0-1.25,1,6.31,6.31,0,0,0-.46,2.62,6.41,6.41,0,0,0,.45,2.66,1.29,1.29,0,0,0,2.5,0,6.25,6.25,0,0,0,.46-2.62,6.62,6.62,0,0,0-.44-2.64C543.38,440.87,543,440.54,542.49,440.54Z"/><path class="cls-6" d="M546.6,439.37h6.18L548.46,449l-1.22-.52,3.49-7.84H546.6Z"/><line class="cls-9" x1="83.33" y1="430.28" x2="569.76" y2="430.28"/><path class="cls-10" d="M529.44,146.12s-1.82,3.24-4.35,3.24H502.56c-5.73,0-5.77,2.28-9.82,6.33h41.47Z"/><path class="cls-11" d="M528.76,145.33a8.06,8.06,0,0,1,.17,11.9l3.16.33c4.22.45,8.45,1,8.45,1V143.28S533.71,144.58,528.76,145.33Z"/><path class="cls-12" d="M531.47,151.36a8.06,8.06,0,0,0-2.71-6c-1.51.23-2.84.4-3.75.48a5.72,5.72,0,0,0-5.55,5.55,5.3,5.3,0,0,0,1.26,3.46,6,6,0,0,0,4.29,2.09c.94.05,2.34.17,3.92.32A8,8,0,0,0,531.47,151.36Z"/><path class="cls-13" d="M553.7,159.87h36.89a8,8,0,0,0,0-16.06h-38.8"/><polygon class="cls-11" points="557.52 159.87 582 151.7 557.52 143.81 557.52 159.87"/><polyline class="cls-14" points="594.25 163.36 582 151.7 593.55 141.09"/><line class="cls-14" x1="603.62" y1="151.69" x2="579.73" y2="151.69"/><path class="cls-15" d="M557.52,146v14.52a58.94,58.94,0,0,1,6.4-7.26A60.44,60.44,0,0,1,557.52,146Z"/><path class="cls-12" d="M557.52,160.54V146a60.16,60.16,0,0,1,.36-72.37c-9,4.34-18.17,10.57-18.17,18V214.85c0,7.48,9.15,13.72,18.17,18.05a60.14,60.14,0,0,1-.36-72.36Z"/><path class="cls-13" d="M564,232.12A26.22,26.22,0,0,1,557.52,215V160.54a60.14,60.14,0,0,0,.36,72.36,119.38,119.38,0,0,0,17.45,6.63A22.28,22.28,0,0,1,564,232.12Z"/><path class="cls-13" d="M557.52,146V91.59A26.22,26.22,0,0,1,564,74.43,22.28,22.28,0,0,1,575.33,67a120.76,120.76,0,0,0-17.45,6.63,60.16,60.16,0,0,0-.36,72.37Z"/></g></g></svg>