<svg xmlns="http://www.w3.org/2000/svg" viewBox="0 0 660.04 519"><defs><style>.cls-1{fill:#fff;}.cls-2{fill:#5045b3;}.cls-3{fill:#0069b3;}.cls-4{fill:#3595e0;}.cls-5{fill:#0e233f;}.cls-6{fill:#fdf6e6;}.cls-7{fill:#eb6654;}</style></defs><g id="Capa_2" data-name="Capa 2"><g id="Arte"><rect class="cls-1" width="660.04" height="519" rx="5"/><path class="cls-2" d="M0,5H0A5,5,0,0,1,5,0H655a5,5,0,0,1,5,5H0Z"/><path class="cls-3" d="M36.64,34.53l4,4.84,4-4.84h2.12V46.81H44.45V38.19h-.07l-3.55,4.32H40.5L37,38.19h-.07v8.62H34.5V34.53Z"/><path class="cls-3" d="M51.71,34.53v7.15A3.93,3.93,0,0,0,52,43.43a2.59,2.59,0,0,0,1.08,1.07,3.48,3.48,0,0,0,1.74.42,3.92,3.92,0,0,0,1.85-.4,2.6,2.6,0,0,0,1.11-1.09,4.34,4.34,0,0,0,.35-1.91v-7h2.37v7.3a4.86,4.86,0,0,1-1.48,3.81A6.12,6.12,0,0,1,54.86,47a6.63,6.63,0,0,1-3-.61A4.28,4.28,0,0,1,50,44.61a5.32,5.32,0,0,1-.66-2.7V34.53Z"/><path class="cls-3" d="M65.14,34.53l7.29,8.57V34.53h2.32V46.81h-2L65.38,38.1v8.71H63.06V34.53Z"/><path class="cls-3" d="M79.77,34.53V46.81H77.4V34.53Z"/><path class="cls-3" d="M88.86,34.37a8.77,8.77,0,0,1,2,.24,10.38,10.38,0,0,1,2.16.81v2.23A10.06,10.06,0,0,0,91,36.71a7,7,0,0,0-2-.29,5.09,5.09,0,0,0-2.36.54A3.91,3.91,0,0,0,85,38.49a4.41,4.41,0,0,0,0,4.39,3.93,3.93,0,0,0,1.64,1.51,5.23,5.23,0,0,0,2.37.53,6.49,6.49,0,0,0,1.93-.29,13.33,13.33,0,0,0,2.31-1.05v2.24A10.43,10.43,0,0,1,91,46.7a9.07,9.07,0,0,1-2.34.27,7.51,7.51,0,0,1-3.47-.78A5.8,5.8,0,0,1,82.8,44a6.12,6.12,0,0,1-.87-3.19,6.25,6.25,0,0,1,.9-3.33,6.14,6.14,0,0,1,2.48-2.28A7.79,7.79,0,0,1,88.86,34.37Z"/><path class="cls-3" d="M97.79,34.53V46.81H95.42V34.53Z"/><path class="cls-3" d="M105.19,34.53a3.94,3.94,0,0,1,2.8,1,3.36,3.36,0,0,1,1.07,2.57A3.28,3.28,0,0,1,108,40.67a4.09,4.09,0,0,1-2.87,1h-2.28v5.15h-2.38V34.53Zm-.59,5.27a2.27,2.27,0,0,0,1.48-.43,1.58,1.58,0,0,0,.53-1.29c0-1.13-.72-1.69-2.18-1.69h-1.61V39.8Z"/><path class="cls-3" d="M113.27,34.53V46.81H110.9V34.53Z"/><path class="cls-3" d="M122.22,34.37a7.44,7.44,0,0,1,3.43.79,6,6,0,0,1,2.43,2.27,6.27,6.27,0,0,1,0,6.44,6.2,6.2,0,0,1-2.42,2.29,7.77,7.77,0,0,1-7,0,6.21,6.21,0,0,1,0-11A7.4,7.4,0,0,1,122.22,34.37Zm-4.34,6.3a4.36,4.36,0,0,0,.56,2.2A3.79,3.79,0,0,0,120,44.38a4.58,4.58,0,0,0,2.24.54,4.25,4.25,0,0,0,3.1-1.19,4.09,4.09,0,0,0,1.22-3.06,4.41,4.41,0,0,0-.55-2.2A3.79,3.79,0,0,0,124.45,37a5,5,0,0,0-4.5,0,3.83,3.83,0,0,0-1.53,1.51A4.45,4.45,0,0,0,117.88,40.67Z"/><path class="cls-3" d="M134.66,34.37a7.11,7.11,0,0,1,3.45.9v2.11a6.73,6.73,0,0,0-3.38-1.15,2.36,2.36,0,0,0-1.4.35,1.07,1.07,0,0,0-.51.92c0,.47.32.89.94,1.29.18.11.86.44,2,1A5.72,5.72,0,0,1,138,41.35a3.31,3.31,0,0,1,.67,2.09A3.2,3.2,0,0,1,137.5,46a4.42,4.42,0,0,1-2.95,1,7,7,0,0,1-2-.26,8.55,8.55,0,0,1-1.9-.89V43.48a5.93,5.93,0,0,0,3.7,1.63,2.42,2.42,0,0,0,1.41-.37,1.19,1.19,0,0,0,.54-1,1.6,1.6,0,0,0-.93-1.39c-.52-.28-1.19-.61-2-1a6,6,0,0,1-2.17-1.53,3.19,3.19,0,0,1-.71-2,3,3,0,0,1,1.15-2.47A4.75,4.75,0,0,1,134.66,34.37Z"/><path class="cls-3" d="M151.94,34.37a8.77,8.77,0,0,1,2.05.24,10.38,10.38,0,0,1,2.16.81v2.23a10.06,10.06,0,0,0-2.09-.94,7.13,7.13,0,0,0-2-.29,5.14,5.14,0,0,0-2.37.54A4,4,0,0,0,148,38.49a4.44,4.44,0,0,0,0,4.39,4,4,0,0,0,1.63,1.51,5.3,5.3,0,0,0,2.38.53,6.54,6.54,0,0,0,1.93-.29,13.33,13.33,0,0,0,2.31-1.05v2.24a10.64,10.64,0,0,1-2.19.88,9.07,9.07,0,0,1-2.34.27,7.51,7.51,0,0,1-3.47-.78A5.74,5.74,0,0,1,145.88,44a6.12,6.12,0,0,1-.87-3.19,6.25,6.25,0,0,1,.9-3.33,6.07,6.07,0,0,1,2.48-2.28A7.76,7.76,0,0,1,151.94,34.37Z"/><path class="cls-3" d="M164.56,34.37a7.41,7.41,0,0,1,3.43.79,6,6,0,0,1,2.43,2.27,6.06,6.06,0,0,1,.91,3.24A6.17,6.17,0,0,1,168,46.16a7.38,7.38,0,0,1-3.48.81,7.28,7.28,0,0,1-3.46-.83,6.21,6.21,0,0,1,0-11A7.39,7.39,0,0,1,164.56,34.37Zm-4.33,6.3a4.36,4.36,0,0,0,.55,2.2,3.79,3.79,0,0,0,1.54,1.51,4.61,4.61,0,0,0,2.24.54,4.28,4.28,0,0,0,3.11-1.19,4.09,4.09,0,0,0,1.22-3.06,4.52,4.52,0,0,0-.55-2.2A3.82,3.82,0,0,0,166.79,37a4.94,4.94,0,0,0-4.49,0,3.8,3.8,0,0,0-1.54,1.51A4.56,4.56,0,0,0,160.23,40.67Z"/><path class="cls-3" d="M175.53,34.53l7.29,8.57V34.53h2.32V46.81h-2l-7.34-8.71v8.71h-2.32V34.53Z"/><path class="cls-3" d="M199.07,34.37a8.77,8.77,0,0,1,2.05.24,10.82,10.82,0,0,1,2.16.81v2.23a10.36,10.36,0,0,0-2.1-.94,7,7,0,0,0-2-.29,5.09,5.09,0,0,0-2.36.54,4,4,0,0,0-1.64,1.53,4.44,4.44,0,0,0,0,4.39,3.91,3.91,0,0,0,1.63,1.51,5.23,5.23,0,0,0,2.37.53,6.44,6.44,0,0,0,1.93-.29,13.37,13.37,0,0,0,2.32-1.05v2.24a10.71,10.71,0,0,1-2.2.88,9.07,9.07,0,0,1-2.34.27,7.54,7.54,0,0,1-3.47-.78A5.72,5.72,0,0,1,193,44a6,6,0,0,1-.88-3.19,6.25,6.25,0,0,1,.9-3.33,6.14,6.14,0,0,1,2.48-2.28A7.8,7.8,0,0,1,199.07,34.37Z"/><path class="cls-3" d="M211.79,34.53l5.43,12.28h-2.51l-1.27-3H208l-1.19,3H204.3l5.07-12.28ZM208.7,42h4l-2.07-4.86Z"/><path class="cls-3" d="M223,34.53a4.12,4.12,0,0,1,2.82,1,3.16,3.16,0,0,1,1.09,2.5,3.13,3.13,0,0,1-.54,1.82,3.56,3.56,0,0,1-1.6,1.23,3.39,3.39,0,0,1,1,.86,11,11,0,0,1,1.14,1.83c.75,1.49,1.3,2.52,1.67,3.08h-2.65c-.18-.27-.43-.7-.74-1.29a28.89,28.89,0,0,0-1.49-2.64,3.46,3.46,0,0,0-.92-1,1.81,1.81,0,0,0-1-.29h-.86v5.19h-2.37V34.53Zm-.54,5.24a2.18,2.18,0,0,0,1.47-.47,1.61,1.61,0,0,0,.53-1.27,1.52,1.52,0,0,0-.53-1.26,2.35,2.35,0,0,0-1.5-.42h-1.48v3.42Z"/><path class="cls-3" d="M239.32,34.53v1.86H235V46.81h-2.37V36.39h-4.36V34.53Z"/><path class="cls-3" d="M246.59,34.37a7.44,7.44,0,0,1,3.43.79,6,6,0,0,1,2.43,2.27,6.21,6.21,0,0,1,0,6.44,6.13,6.13,0,0,1-2.42,2.29,7.38,7.38,0,0,1-3.48.81,7.25,7.25,0,0,1-3.46-.83,6.06,6.06,0,0,1-3.31-5.47,6.18,6.18,0,0,1,.87-3.17,6.06,6.06,0,0,1,2.4-2.31A7.43,7.43,0,0,1,246.59,34.37Zm-4.33,6.3a4.36,4.36,0,0,0,.55,2.2,3.79,3.79,0,0,0,1.54,1.51,4.61,4.61,0,0,0,2.24.54,4.29,4.29,0,0,0,3.11-1.19,4.08,4.08,0,0,0,1.21-3.06,4.41,4.41,0,0,0-.55-2.2A3.73,3.73,0,0,0,248.82,37a4.68,4.68,0,0,0-2.25-.54,4.61,4.61,0,0,0-2.24.54,3.8,3.8,0,0,0-1.54,1.51A4.56,4.56,0,0,0,242.26,40.67Z"/><path class="cls-3" d="M261.91,34.37a10.82,10.82,0,0,1,4.5,1v2.17A9.68,9.68,0,0,0,262,36.42a5.13,5.13,0,0,0-2.39.54A3.77,3.77,0,0,0,258,38.5a4.39,4.39,0,0,0-.58,2.25,3.88,3.88,0,0,0,1.26,3,4.66,4.66,0,0,0,3.3,1.15,5.32,5.32,0,0,0,1.07-.1,6.48,6.48,0,0,0,1.23-.37v-2h-2V40.56h4.4v5.06a7,7,0,0,1-2.17,1,9.69,9.69,0,0,1-2.65.36,7.75,7.75,0,0,1-3.52-.8,6.06,6.06,0,0,1-2.46-2.24,6.17,6.17,0,0,1,2.5-8.75A7.73,7.73,0,0,1,261.91,34.37Z"/><path class="cls-3" d="M273.51,34.53a4.12,4.12,0,0,1,2.82,1,3.19,3.19,0,0,1,1.09,2.5,3.13,3.13,0,0,1-.54,1.82A3.6,3.6,0,0,1,275.27,41a3.55,3.55,0,0,1,1.05.86,11.09,11.09,0,0,1,1.13,1.83c.75,1.49,1.31,2.52,1.67,3.08h-2.64a13,13,0,0,1-.74-1.29,26.06,26.06,0,0,0-1.5-2.64,3.45,3.45,0,0,0-.91-1,1.81,1.81,0,0,0-1-.29h-.86v5.19h-2.38V34.53ZM273,39.77a2.13,2.13,0,0,0,1.46-.47A1.58,1.58,0,0,0,275,38a1.51,1.51,0,0,0-.52-1.26,2.38,2.38,0,0,0-1.51-.42h-1.47v3.42Z"/><path class="cls-3" d="M286.79,34.53l5.42,12.28h-2.5l-1.27-3H283l-1.19,3H279.3l5.07-12.28ZM283.7,42h4l-2.07-4.86Z"/><path class="cls-3" d="M301,34.53v1.86h-5.12v3.17H301v1.87h-5.12v5.38h-2.37V34.53Z"/><path class="cls-3" d="M307.77,30.66l-3.32,3h-1.32l1.67-3Zm-2.25,3.87V46.81h-2.38V34.53Z"/><path class="cls-3" d="M314.39,34.53l5.42,12.28h-2.5l-1.28-3h-5.45l-1.19,3H306.9L312,34.53ZM311.3,42h4l-2.07-4.86Z"/><path d="M77,435.9v9.55H75.74v-7.27l-3.85,7.27-1.68-7.31-2.35,7.31H66.59l3.15-9.55h1.09l1.49,6.47,3.43-6.47Z"/><path d="M84.12,439.16l-.9,6.29H82.05l.11-1.06a3,3,0,0,1-2.07,1.16,1.41,1.41,0,0,1-1.08-.46,1.78,1.78,0,0,1-.44-1.29,4.15,4.15,0,0,1,0-.49l.59-4.15h1.19l-.59,4.15a2.62,2.62,0,0,0,0,.38c0,.63.23.95.69.95s1.12-.47,1.9-1.39l.57-4.09Z"/><path d="M87,439.16l-.16,1.11,0,0A2.77,2.77,0,0,1,89,439.07a1.36,1.36,0,0,1,1.14.53,2.31,2.31,0,0,1,.4,1.39,3,3,0,0,1,0,.5l-.6,4H88.72l.58-4a3,3,0,0,0,0-.39,1.21,1.21,0,0,0-.21-.76.62.62,0,0,0-.51-.26,1.08,1.08,0,0,0-.4.09,2,2,0,0,0-.48.28,4.63,4.63,0,0,0-.62.56,1.55,1.55,0,0,0-.39.48l-.58,4H85l.88-6.29Z"/><path d="M93.51,439.16l-.88,6.29H91.44l.88-6.29Zm-1.06-2a.72.72,0,0,1,.69-.69.64.64,0,0,1,.48.21.66.66,0,0,1,.2.48.7.7,0,0,1-.2.49.67.67,0,0,1-.48.2.66.66,0,0,1-.48-.2A.67.67,0,0,1,92.45,437.19Z"/><path d="M98.75,444.05l-.14,1.15a3.56,3.56,0,0,1-1.75.45,2.67,2.67,0,0,1-2-.79,2.93,2.93,0,0,1-.75-2.11,3.55,3.55,0,0,1,1.14-2.68,4.08,4.08,0,0,1,2.93-1.1,6.79,6.79,0,0,1,1.08.11l-.16,1.05a4.43,4.43,0,0,0-.9-.1,2.88,2.88,0,0,0-2.06.79,2.54,2.54,0,0,0-.82,1.86,2,2,0,0,0,.47,1.4,1.62,1.62,0,0,0,1.26.5A3.25,3.25,0,0,0,98.75,444.05Z"/><path d="M101.53,439.16l-.88,6.29H99.46l.88-6.29Zm-1.06-2a.66.66,0,0,1,.2-.48.67.67,0,0,1,1,0,.66.66,0,0,1,.2.48.69.69,0,1,1-1.37,0Z"/><path d="M104.7,437.57l-.23,1.59a2.8,2.8,0,0,1,1.07-.19,2.37,2.37,0,0,1,1.85.84,3,3,0,0,1,.75,2.09,3.81,3.81,0,0,1-1,2.62,3.57,3.57,0,0,1-2.78,1.13h-.79l-.42,3H102l1.11-7.95a2.92,2.92,0,0,0-.69.71,2,2,0,0,1-.36.44s0,0,0-.09a2,2,0,0,1,.36-.9,3.64,3.64,0,0,1,.86-1l.32-2.31Zm-.35,2.47-.65,4.6h.58a2.42,2.42,0,0,0,1.93-.82,2.79,2.79,0,0,0,.72-1.92,2.1,2.1,0,0,0-.51-1.5,1.73,1.73,0,0,0-1.29-.53A1.85,1.85,0,0,0,104.35,440Z"/><path d="M111,439.16l-.89,6.29H109l.88-6.29Zm-1.06-2a.62.62,0,0,1,.2-.48.65.65,0,0,1,1,0,.62.62,0,0,1,.2.48.68.68,0,1,1-1.36,0Z"/><path d="M114.78,439a2.12,2.12,0,0,1,1.7.75,3,3,0,0,1,.64,2,4.5,4.5,0,0,1-.86,2.83,2.6,2.6,0,0,1-2.12,1.11,2.17,2.17,0,0,1-1.74-.74,3.13,3.13,0,0,1-.63-2.08,4.33,4.33,0,0,1,.87-2.75A2.62,2.62,0,0,1,114.78,439Zm0,.94a1.49,1.49,0,0,0-1.26.9A4.23,4.23,0,0,0,113,443a2,2,0,0,0,.32,1.2.92.92,0,0,0,.79.46,1.51,1.51,0,0,0,1.27-.84,4,4,0,0,0,.53-2.14,2.24,2.24,0,0,0-.31-1.26A.93.93,0,0,0,114.78,439.91Z"/><path d="M122.07,439.63v1.24a3.36,3.36,0,0,0-1.9-.83.92.92,0,0,0-.6.2.56.56,0,0,0-.25.47.66.66,0,0,0,.15.38,5.76,5.76,0,0,0,1,.75,3.43,3.43,0,0,1,1.1,1,1.77,1.77,0,0,1,.29.93,1.81,1.81,0,0,1-.55,1.35,2,2,0,0,1-1.4.53,3.75,3.75,0,0,1-2.18-.83l.2-1.15a3.45,3.45,0,0,0,1.94.94.85.85,0,0,0,.58-.2.61.61,0,0,0,.23-.5.8.8,0,0,0-.16-.46,4.9,4.9,0,0,0-1-.79,3.9,3.9,0,0,1-1.07-1,1.76,1.76,0,0,1-.26-.89,1.68,1.68,0,0,1,.54-1.3,2.05,2.05,0,0,1,1.44-.5A3.39,3.39,0,0,1,122.07,439.63Z"/><path d="M131.38,444.05l-.13,1.15a3.59,3.59,0,0,1-1.75.45,2.64,2.64,0,0,1-2-.79,2.89,2.89,0,0,1-.76-2.11,3.53,3.53,0,0,1,1.15-2.68,4.06,4.06,0,0,1,2.93-1.1,6.79,6.79,0,0,1,1.08.11l-.16,1.05a4.61,4.61,0,0,0-.91-.1,2.85,2.85,0,0,0-2.05.79,2.5,2.5,0,0,0-.82,1.86,2,2,0,0,0,.46,1.4,1.65,1.65,0,0,0,1.26.5A3.22,3.22,0,0,0,131.38,444.05Z"/><path d="M135.29,439a2.14,2.14,0,0,1,1.7.75,3,3,0,0,1,.64,2,4.44,4.44,0,0,1-.87,2.83,2.58,2.58,0,0,1-2.11,1.11,2.17,2.17,0,0,1-1.74-.74,3.13,3.13,0,0,1-.63-2.08,4.33,4.33,0,0,1,.87-2.75A2.62,2.62,0,0,1,135.29,439Zm0,.94a1.49,1.49,0,0,0-1.26.9,4.13,4.13,0,0,0-.53,2.15,2,2,0,0,0,.32,1.2.92.92,0,0,0,.78.46,1.51,1.51,0,0,0,1.28-.84,4,4,0,0,0,.53-2.14,2.24,2.24,0,0,0-.31-1.26A.94.94,0,0,0,135.29,439.91Z"/><path d="M140.54,439.16l-.16,1.11,0,0a2.78,2.78,0,0,1,2.09-1.23,1.34,1.34,0,0,1,1.13.53A2.25,2.25,0,0,1,144,441a4.57,4.57,0,0,1,0,.5l-.61,4h-1.17l.57-4a2,2,0,0,0,0-.39,1.21,1.21,0,0,0-.21-.76.63.63,0,0,0-.51-.26,1.08,1.08,0,0,0-.4.09,2,2,0,0,0-.48.28,5.3,5.3,0,0,0-.63.56,1.74,1.74,0,0,0-.39.48l-.57,4h-1.17l.88-6.29Z"/><path d="M153.51,444.05l-.14,1.15a3.59,3.59,0,0,1-1.75.45,2.65,2.65,0,0,1-2-.79,2.93,2.93,0,0,1-.76-2.11,3.56,3.56,0,0,1,1.15-2.68,4.06,4.06,0,0,1,2.93-1.1,6.79,6.79,0,0,1,1.08.11l-.16,1.05a4.61,4.61,0,0,0-.91-.1,2.85,2.85,0,0,0-2.05.79,2.5,2.5,0,0,0-.82,1.86,2,2,0,0,0,.46,1.4,1.65,1.65,0,0,0,1.26.5A3.28,3.28,0,0,0,153.51,444.05Z"/><path d="M160.14,439.16l-.89,6.29h-1.18l.11-.72,0,0a2.35,2.35,0,0,1-1.69.89,1.87,1.87,0,0,1-1.47-.73,2.7,2.7,0,0,1-.6-1.76,4.08,4.08,0,0,1,1.12-3,4.19,4.19,0,0,1,3.14-1.16A5.28,5.28,0,0,1,160.14,439.16Zm-1.82,4.47.52-3.63h-.37a2.59,2.59,0,0,0-2.13.89,3.07,3.07,0,0,0-.74,2,2.06,2.06,0,0,0,.36,1.25,1.06,1.06,0,0,0,.89.48,1.59,1.59,0,0,0,1-.43C158.14,443.89,158.31,443.71,158.32,443.63Z"/><path d="M163.05,439.16l-.18,1.2,0,0a5,5,0,0,1,.89-1.06,1.15,1.15,0,0,1,.78-.26,1.5,1.5,0,0,1,.52.09v1.35a1.55,1.55,0,0,0-.74-.21,1.18,1.18,0,0,0-.62.17,2.9,2.9,0,0,0-.66.75,3,3,0,0,0-.41.69l-.49,3.54H161l.89-6.29Z"/><path d="M169.4,439.16l-.13.93H168l-.61,3.44a2.69,2.69,0,0,0,0,.44c0,.41.22.61.66.61a2.36,2.36,0,0,0,1.15-.37l-.06,1.16a3.29,3.29,0,0,1-1.31.28,1.79,1.79,0,0,1-1.22-.39,1.31,1.31,0,0,1-.45-1,1.82,1.82,0,0,1,0-.32l.66-3.81h-1.11l.15-.93H167l.23-1.28h1.17l-.23,1.28Z"/><path d="M172.85,439a2.12,2.12,0,0,1,1.7.75,2.94,2.94,0,0,1,.64,2,4.5,4.5,0,0,1-.86,2.83,2.6,2.6,0,0,1-2.12,1.11,2.17,2.17,0,0,1-1.74-.74,3.13,3.13,0,0,1-.63-2.08,4.33,4.33,0,0,1,.87-2.75A2.62,2.62,0,0,1,172.85,439Zm0,.94a1.49,1.49,0,0,0-1.26.9,4.23,4.23,0,0,0-.53,2.15,2.1,2.1,0,0,0,.32,1.2.92.92,0,0,0,.79.46,1.51,1.51,0,0,0,1.27-.84,3.93,3.93,0,0,0,.53-2.14,2.24,2.24,0,0,0-.31-1.26A.93.93,0,0,0,172.85,439.91Z"/><path d="M181.7,439.16l-.12.93h-1.22a2.11,2.11,0,0,1,.42,1.25,2.5,2.5,0,0,1-.34,1.32,1.84,1.84,0,0,1-.83.81,4.61,4.61,0,0,1-1.26.38,3,3,0,0,0-1,.28.39.39,0,0,0-.21.33c0,.1.06.18.18.26a6.43,6.43,0,0,0,1.28.39,3.29,3.29,0,0,1,1.55.71,1.47,1.47,0,0,1,.44,1.06,1.51,1.51,0,0,1-.73,1.28,3.1,3.1,0,0,1-1.84.51,3.74,3.74,0,0,1-2-.46,1.36,1.36,0,0,1-.77-1.17c0-.6.6-1,1.81-1.29-.73-.27-1.09-.64-1.09-1.11a.94.94,0,0,1,.33-.68,2.25,2.25,0,0,1,.91-.48,1.86,1.86,0,0,1-1.13-1.81,2.48,2.48,0,0,1,.68-1.78,2.18,2.18,0,0,1,1.65-.73Zm-3.55,8.62a1.93,1.93,0,0,0,1-.22.66.66,0,0,0,.36-.57c0-.23-.2-.43-.59-.62a2.69,2.69,0,0,0-.81-.28,3.11,3.11,0,0,0-1,.29c-.45.19-.68.4-.68.64s.16.41.46.55A3,3,0,0,0,178.15,447.78Zm.27-4.92a1.08,1.08,0,0,0,.88-.44,1.62,1.62,0,0,0,.35-1,1.29,1.29,0,0,0-.32-.9,1,1,0,0,0-.8-.36,1.14,1.14,0,0,0-.87.45,1.51,1.51,0,0,0-.38,1,1.33,1.33,0,0,0,.32.91A1.06,1.06,0,0,0,178.42,442.86Z"/><path d="M184,439.16l-.18,1.2,0,0a5.32,5.32,0,0,1,.89-1.06,1.19,1.19,0,0,1,.78-.26,1.46,1.46,0,0,1,.52.09v1.35a1.48,1.48,0,0,0-.73-.21,1.18,1.18,0,0,0-.62.17,2.72,2.72,0,0,0-.67.75,2.82,2.82,0,0,0-.4.69l-.49,3.54H182l.88-6.29Z"/><path d="M191.79,439.16l-.88,6.29h-1.19l.12-.72,0,0a2.37,2.37,0,0,1-1.7.89,1.85,1.85,0,0,1-1.46-.73,2.71,2.71,0,0,1-.61-1.76,4.09,4.09,0,0,1,1.13-3,4.19,4.19,0,0,1,3.14-1.16A5.21,5.21,0,0,1,191.79,439.16ZM190,443.63l.51-3.63h-.36a2.62,2.62,0,0,0-2.14.89,3.12,3.12,0,0,0-.73,2,2.12,2.12,0,0,0,.35,1.25,1.09,1.09,0,0,0,.9.48,1.55,1.55,0,0,0,.94-.43C189.8,443.89,190,443.71,190,443.63Z"/><path d="M196.14,439.16l-.16,1.06h-1.27l-1,7.88h-1.16l1-7.88h-1l.16-1.06h1a4.07,4.07,0,0,1,.9-2.5,2.72,2.72,0,0,1,2.13-.88,4.72,4.72,0,0,1,1.52.29l-.17,1.18a2.62,2.62,0,0,0-1.23-.35c-1.17,0-1.83.75-2,2.26Z"/><path d="M198.31,439.16l-.89,6.29h-1.18l.88-6.29Zm-.23-3.09h1.41l-1.59,2.05h-.77Z"/><path d="M204.79,439.16l-.89,6.29h-1.18l.11-.72,0,0a2.35,2.35,0,0,1-1.69.89,1.88,1.88,0,0,1-1.47-.73,2.7,2.7,0,0,1-.6-1.76,4.08,4.08,0,0,1,1.12-3,4.2,4.2,0,0,1,3.15-1.16A5.26,5.26,0,0,1,204.79,439.16ZM203,443.63l.51-3.63h-.37a2.61,2.61,0,0,0-2.13.89,3.06,3.06,0,0,0-.73,2,2.05,2.05,0,0,0,.35,1.25,1.06,1.06,0,0,0,.89.48,1.57,1.57,0,0,0,.95-.43C202.79,443.89,203,443.71,203,443.63Z"/><path d="M77,452.9v9.55H75.74v-7.27l-3.85,7.27-1.68-7.31-2.35,7.31H66.59l3.15-9.55h1.09l1.49,6.47,3.43-6.47Z"/><path d="M84.12,456.16l-.9,6.29H82.05l.11-1.06a3,3,0,0,1-2.07,1.16,1.41,1.41,0,0,1-1.08-.46,1.78,1.78,0,0,1-.44-1.29,4.15,4.15,0,0,1,0-.49l.59-4.15h1.19l-.59,4.15a2.62,2.62,0,0,0,0,.38c0,.63.23.95.69.95s1.12-.47,1.9-1.39l.57-4.09Z"/><path d="M87,456.16l-.16,1.11,0,0A2.77,2.77,0,0,1,89,456.07a1.36,1.36,0,0,1,1.14.53,2.31,2.31,0,0,1,.4,1.39,3,3,0,0,1,0,.5l-.6,4H88.72l.58-4a3,3,0,0,0,0-.39,1.21,1.21,0,0,0-.21-.76.62.62,0,0,0-.51-.26,1.08,1.08,0,0,0-.4.09,2,2,0,0,0-.48.28,4.63,4.63,0,0,0-.62.56,1.55,1.55,0,0,0-.39.48l-.58,4H85l.88-6.29Z"/><path d="M93.51,456.16l-.88,6.29H91.44l.88-6.29Zm-1.06-2a.72.72,0,0,1,.69-.69.64.64,0,0,1,.48.21.66.66,0,0,1,.2.48.7.7,0,0,1-.2.49.67.67,0,0,1-.48.2.66.66,0,0,1-.48-.2A.67.67,0,0,1,92.45,454.19Z"/><path d="M98.75,461.05l-.14,1.15a3.56,3.56,0,0,1-1.75.45,2.67,2.67,0,0,1-2-.79,2.93,2.93,0,0,1-.75-2.11,3.55,3.55,0,0,1,1.14-2.68,4.08,4.08,0,0,1,2.93-1.1,6.79,6.79,0,0,1,1.08.11l-.16,1.05a4.43,4.43,0,0,0-.9-.1,2.88,2.88,0,0,0-2.06.79,2.54,2.54,0,0,0-.82,1.86,2,2,0,0,0,.47,1.4,1.62,1.62,0,0,0,1.26.5A3.25,3.25,0,0,0,98.75,461.05Z"/><path d="M101.53,456.16l-.88,6.29H99.46l.88-6.29Zm-1.06-2a.66.66,0,0,1,.2-.48.67.67,0,0,1,1,0,.66.66,0,0,1,.2.48.69.69,0,1,1-1.37,0Z"/><path d="M104.7,454.57l-.23,1.59a2.8,2.8,0,0,1,1.07-.19,2.37,2.37,0,0,1,1.85.84,3,3,0,0,1,.75,2.09,3.81,3.81,0,0,1-1,2.62,3.57,3.57,0,0,1-2.78,1.13h-.79l-.42,3H102l1.11-7.95a2.92,2.92,0,0,0-.69.71,2,2,0,0,1-.36.44s0,0,0-.09a2,2,0,0,1,.36-.9,3.64,3.64,0,0,1,.86-1l.32-2.31Zm-.35,2.47-.65,4.6h.58a2.42,2.42,0,0,0,1.93-.82,2.79,2.79,0,0,0,.72-1.92,2.1,2.1,0,0,0-.51-1.5,1.73,1.73,0,0,0-1.29-.53A1.85,1.85,0,0,0,104.35,457Z"/><path d="M111,456.16l-.89,6.29H109l.88-6.29Zm-1.06-2a.62.62,0,0,1,.2-.48.65.65,0,0,1,1,0,.62.62,0,0,1,.2.48.68.68,0,1,1-1.36,0Z"/><path d="M114.78,456a2.12,2.12,0,0,1,1.7.75,3,3,0,0,1,.64,2,4.5,4.5,0,0,1-.86,2.83,2.6,2.6,0,0,1-2.12,1.11,2.17,2.17,0,0,1-1.74-.74,3.13,3.13,0,0,1-.63-2.08,4.33,4.33,0,0,1,.87-2.75A2.62,2.62,0,0,1,114.78,456Zm0,.94a1.49,1.49,0,0,0-1.26.9A4.23,4.23,0,0,0,113,460a2,2,0,0,0,.32,1.2.92.92,0,0,0,.79.46,1.51,1.51,0,0,0,1.27-.84,4,4,0,0,0,.53-2.14,2.24,2.24,0,0,0-.31-1.26A.93.93,0,0,0,114.78,456.91Z"/><path d="M122.07,456.63v1.24a3.36,3.36,0,0,0-1.9-.83.92.92,0,0,0-.6.2.56.56,0,0,0-.25.47.66.66,0,0,0,.15.38,5.76,5.76,0,0,0,1,.75,3.43,3.43,0,0,1,1.1,1,1.77,1.77,0,0,1,.29.93,1.81,1.81,0,0,1-.55,1.35,2,2,0,0,1-1.4.53,3.75,3.75,0,0,1-2.18-.83l.2-1.15a3.45,3.45,0,0,0,1.94.94.85.85,0,0,0,.58-.2.61.61,0,0,0,.23-.5.8.8,0,0,0-.16-.46,4.9,4.9,0,0,0-1-.79,3.9,3.9,0,0,1-1.07-1,1.76,1.76,0,0,1-.26-.89,1.68,1.68,0,0,1,.54-1.3,2.05,2.05,0,0,1,1.44-.5A3.39,3.39,0,0,1,122.07,456.63Z"/><path d="M130.91,456.63v1.24A3.31,3.31,0,0,0,129,457a1,1,0,0,0-.61.2.59.59,0,0,0-.25.47.68.68,0,0,0,.16.38,5.33,5.33,0,0,0,1,.75,3.67,3.67,0,0,1,1.1,1,1.83,1.83,0,0,1-.27,2.28,1.93,1.93,0,0,1-1.39.53,3.78,3.78,0,0,1-2.19-.83l.21-1.15a3.43,3.43,0,0,0,1.93.94.88.88,0,0,0,.59-.2.64.64,0,0,0,.23-.5.82.82,0,0,0-.17-.46,4.73,4.73,0,0,0-1-.79,3.75,3.75,0,0,1-1.07-1,1.76,1.76,0,0,1-.26-.89,1.68,1.68,0,0,1,.54-1.3A2.05,2.05,0,0,1,129,456,3.36,3.36,0,0,1,130.91,456.63Z"/><path d="M133.73,456.16l-.88,6.29h-1.19l.89-6.29Zm-1-2a.62.62,0,0,1,.2-.48.65.65,0,0,1,1,0,.62.62,0,0,1,.2.48.68.68,0,1,1-1.36,0Z"/><path d="M136.47,456.16l-.16,1.11,0,0a2.77,2.77,0,0,1,2.09-1.23,1.35,1.35,0,0,1,1.13.53A2.25,2.25,0,0,1,140,458a3,3,0,0,1,0,.5l-.6,4h-1.17l.57-4a3,3,0,0,0,0-.39,1.21,1.21,0,0,0-.2-.76A.65.65,0,0,0,138,457a1.08,1.08,0,0,0-.4.09,2,2,0,0,0-.47.28,5.3,5.3,0,0,0-.63.56,1.55,1.55,0,0,0-.39.48l-.57,4h-1.18l.88-6.29Z"/><path d="M149.43,461.05l-.14,1.15a3.56,3.56,0,0,1-1.75.45,2.67,2.67,0,0,1-2-.79,2.93,2.93,0,0,1-.75-2.11,3.55,3.55,0,0,1,1.14-2.68,4.08,4.08,0,0,1,2.93-1.1,6.79,6.79,0,0,1,1.08.11l-.15,1.05a4.61,4.61,0,0,0-.91-.1,2.88,2.88,0,0,0-2.06.79,2.53,2.53,0,0,0-.81,1.86,2,2,0,0,0,.46,1.4,1.63,1.63,0,0,0,1.26.5A3.25,3.25,0,0,0,149.43,461.05Z"/><path d="M156.06,456.16l-.88,6.29H154l.12-.72,0,0a2.37,2.37,0,0,1-1.7.89,1.85,1.85,0,0,1-1.46-.73,2.66,2.66,0,0,1-.61-1.76,4.09,4.09,0,0,1,1.13-3,4.19,4.19,0,0,1,3.14-1.16A5.21,5.21,0,0,1,156.06,456.16Zm-1.81,4.47.51-3.63h-.37a2.61,2.61,0,0,0-2.13.89,3.06,3.06,0,0,0-.73,2,2.12,2.12,0,0,0,.35,1.25,1.09,1.09,0,0,0,.9.48,1.57,1.57,0,0,0,.94-.43C154.06,460.89,154.24,460.71,154.25,460.63Z"/><path d="M159,456.16l-.19,1.2,0,0a5.32,5.32,0,0,1,.89-1.06,1.19,1.19,0,0,1,.78-.26,1.46,1.46,0,0,1,.52.09v1.35a1.48,1.48,0,0,0-.73-.21,1.18,1.18,0,0,0-.62.17,2.72,2.72,0,0,0-.67.75,2.82,2.82,0,0,0-.4.69l-.49,3.54h-1.19l.88-6.29Z"/><path d="M165.32,456.16l-.12.93H164l-.62,3.44a2.55,2.55,0,0,0,0,.44c0,.41.22.61.66.61a2.39,2.39,0,0,0,1.15-.37l-.07,1.16a3.24,3.24,0,0,1-1.3.28,1.81,1.81,0,0,1-1.23-.39,1.34,1.34,0,0,1-.44-1,1.82,1.82,0,0,1,0-.32l.66-3.81h-1.11l.14-.93h1.15l.23-1.28h1.18l-.23,1.28Z"/><path d="M168.78,456a2.14,2.14,0,0,1,1.7.75,3,3,0,0,1,.63,2,4.44,4.44,0,0,1-.86,2.83,2.59,2.59,0,0,1-2.12,1.11,2.17,2.17,0,0,1-1.73-.74,3.13,3.13,0,0,1-.63-2.08,4.33,4.33,0,0,1,.87-2.75A2.62,2.62,0,0,1,168.78,456Zm0,.94a1.49,1.49,0,0,0-1.26.9A4.13,4.13,0,0,0,167,460a2.1,2.1,0,0,0,.31,1.2.94.94,0,0,0,.79.46,1.51,1.51,0,0,0,1.28-.84,4,4,0,0,0,.53-2.14,2.24,2.24,0,0,0-.31-1.26A.94.94,0,0,0,168.78,456.91Z"/><path d="M177.63,456.16l-.12.93h-1.22a2.11,2.11,0,0,1,.42,1.25,2.59,2.59,0,0,1-.34,1.32,1.89,1.89,0,0,1-.83.81,4.72,4.72,0,0,1-1.26.38,3.19,3.19,0,0,0-1,.28.4.4,0,0,0-.2.33c0,.1.06.18.18.26a6,6,0,0,0,1.28.39,3.25,3.25,0,0,1,1.54.71,1.44,1.44,0,0,1,.44,1.06,1.52,1.52,0,0,1-.72,1.28,3.14,3.14,0,0,1-1.84.51,3.78,3.78,0,0,1-2-.46,1.36,1.36,0,0,1-.77-1.17c0-.6.61-1,1.82-1.29-.73-.27-1.1-.64-1.1-1.11a.92.92,0,0,1,.34-.68,2.12,2.12,0,0,1,.91-.48,1.87,1.87,0,0,1-1.14-1.81,2.48,2.48,0,0,1,.69-1.78,2.18,2.18,0,0,1,1.65-.73Zm-3.56,8.62a2,2,0,0,0,1-.22.66.66,0,0,0,.36-.57c0-.23-.2-.43-.6-.62a2.57,2.57,0,0,0-.8-.28,3,3,0,0,0-.95.29c-.45.19-.68.4-.68.64s.15.41.45.55A3,3,0,0,0,174.07,464.78Zm.27-4.92a1.09,1.09,0,0,0,.89-.44,1.62,1.62,0,0,0,.34-1,1.24,1.24,0,0,0-.32-.9,1,1,0,0,0-.8-.36,1.11,1.11,0,0,0-.86.45,1.46,1.46,0,0,0-.38,1,1.28,1.28,0,0,0,.32.91A1,1,0,0,0,174.34,459.86Z"/><path d="M180,456.16l-.19,1.2,0,0a5,5,0,0,1,.89-1.06,1.19,1.19,0,0,1,.78-.26,1.5,1.5,0,0,1,.52.09v1.35a1.51,1.51,0,0,0-.73-.21,1.21,1.21,0,0,0-.63.17,2.9,2.9,0,0,0-.66.75,2.48,2.48,0,0,0-.4.69l-.5,3.54H177.9l.88-6.29Z"/><path d="M187.72,456.16l-.88,6.29h-1.19l.11-.72,0,0a2.39,2.39,0,0,1-1.7.89,1.88,1.88,0,0,1-1.47-.73,2.7,2.7,0,0,1-.6-1.76,4.09,4.09,0,0,1,1.13-3,4.17,4.17,0,0,1,3.14-1.16A5.26,5.26,0,0,1,187.72,456.16Zm-1.81,4.47.51-3.63h-.37a2.61,2.61,0,0,0-2.13.89,3.06,3.06,0,0,0-.73,2,2.05,2.05,0,0,0,.35,1.25,1.07,1.07,0,0,0,.89.48,1.57,1.57,0,0,0,.95-.43C185.72,460.89,185.9,460.71,185.91,460.63Z"/><path d="M192.07,456.16l-.16,1.06h-1.27l-1,7.88h-1.17l1-7.88h-1l.16-1.06h1a4.08,4.08,0,0,1,.91-2.5,2.7,2.7,0,0,1,2.12-.88,4.77,4.77,0,0,1,1.53.29l-.18,1.18a2.56,2.56,0,0,0-1.22-.35c-1.18,0-1.84.75-2,2.26Z"/><path d="M194.23,456.16l-.88,6.29h-1.19l.88-6.29Zm-.23-3.09h1.42l-1.59,2.05h-.78Z"/><path d="M200.72,456.16l-.89,6.29h-1.19l.12-.72,0,0a2.37,2.37,0,0,1-1.69.89,1.86,1.86,0,0,1-1.47-.73,2.7,2.7,0,0,1-.6-1.76,4.08,4.08,0,0,1,1.12-3,4.19,4.19,0,0,1,3.14-1.16A5.33,5.33,0,0,1,200.72,456.16Zm-1.82,4.47.52-3.63h-.37a2.62,2.62,0,0,0-2.14.89,3.12,3.12,0,0,0-.73,2,2.12,2.12,0,0,0,.35,1.25,1.09,1.09,0,0,0,.9.48,1.55,1.55,0,0,0,.94-.43C198.72,460.89,198.89,460.71,198.9,460.63Z"/><rect class="cls-4" x="50.17" y="435.9" width="10.02" height="10.02"/><rect class="cls-5" x="50.17" y="453.04" width="10.02" height="10.02"/><path class="cls-4" d="M333.4,256.87l-85,104.94a135,135,0,0,1-20-189.93c26.56-32.8,62.73-50,104.94-50Z"/><path class="cls-5" d="M329.8,254.6V103.35a151.25,151.25,0,1,1,0,302.49c-36.17,0-67.07-10.94-95.18-33.71Z"/><path class="cls-6" d="M366.91,270.07l.2-.15,1.25,1.56a12.69,12.69,0,0,0-2.73,2.31,9,9,0,0,0-1.66,2.95,4.9,4.9,0,0,1,2.26-.58,3.8,3.8,0,0,1,2.85,1.2,4,4,0,0,1,1.16,2.94,4.14,4.14,0,0,1-1.26,3.05,4.2,4.2,0,0,1-3.07,1.25,4.15,4.15,0,0,1-3.26-1.42,5.45,5.45,0,0,1-1.25-3.72A9.86,9.86,0,0,1,362,276a11.74,11.74,0,0,1,1.85-3.2A14.73,14.73,0,0,1,366.91,270.07Zm-3.38,8.8a5.85,5.85,0,0,0-.09,1.07,2.85,2.85,0,0,0,.71,2,2.29,2.29,0,0,0,1.8.78,2.14,2.14,0,0,0,1.62-.67,2.3,2.3,0,0,0,.64-1.68,2.18,2.18,0,0,0-.68-1.67,2.51,2.51,0,0,0-1.8-.64,2.87,2.87,0,0,0-1,.17A5.75,5.75,0,0,0,363.53,278.87Z"/><path class="cls-6" d="M372,270.11h9.26l-6.48,14.49-1.83-.77,5.24-11.76H372Z"/><path class="cls-6" d="M385.7,270.11h2.06v14.32H385.7Z"/><path class="cls-6" d="M263.76,227.22h.84v8h1.6V237h-1.6v4.72h-2V237h-6.06v-.88Zm-1.16,8V231.1l-3.31,4.15Z"/><path class="cls-6" d="M270.59,233.39h.12a3.25,3.25,0,0,0,2.05-.56,1.9,1.9,0,0,0,.7-1.61,2,2,0,0,0-.68-1.54,2.62,2.62,0,0,0-1.79-.6,5.46,5.46,0,0,0-2.48.7v-2a6,6,0,0,1,2.73-.63,4.47,4.47,0,0,1,3.12,1,3.63,3.63,0,0,1,1.14,2.83,3.49,3.49,0,0,1-.44,1.83,3.56,3.56,0,0,1-1.4,1.27,2.93,2.93,0,0,1,1.23.81,3.4,3.4,0,0,1,.6,1.15,4.82,4.82,0,0,1,.22,1.44,4.18,4.18,0,0,1-1.25,3.1,4.34,4.34,0,0,1-3.16,1.23,6.69,6.69,0,0,1-3.15-.79v-2.24a5.91,5.91,0,0,0,3.15,1,2.27,2.27,0,0,0,1.66-.62,2.17,2.17,0,0,0,.63-1.63,2.25,2.25,0,0,0-.52-1.48,1.88,1.88,0,0,0-.68-.53,7,7,0,0,0-1.61-.32l-.19,0Z"/><path class="cls-6" d="M281.64,239.75h5.45v2H278v-.14l.87-1q2-2.5,3.21-4.25a15.37,15.37,0,0,0,1.56-2.64,4.66,4.66,0,0,0,.36-1.76,2.75,2.75,0,0,0-.68-1.94,2.39,2.39,0,0,0-1.83-.73,3.33,3.33,0,0,0-1.7.5,5.45,5.45,0,0,0-1.5,1.43v-2.6a5.4,5.4,0,0,1,3.45-1.36,4.1,4.1,0,0,1,3.09,1.25,4.36,4.36,0,0,1,1.21,3.18,6.35,6.35,0,0,1-.3,1.84,10.6,10.6,0,0,1-1.07,2.25,30.17,30.17,0,0,1-2.61,3.48Z"/><path class="cls-4" d="M216.09,380.31l-2.65,19c0,4.61.15,6,.24,8.41a1.94,1.94,0,0,0,1.94,1.87h8.29a1.94,1.94,0,0,0,1.89-2.07c-.27-4-1.4-9.73-1.26-10.61l4.53-15.05a17.42,17.42,0,0,0-.38-7.36L223.83,357l-13,18Z"/><path class="cls-4" d="M284,380l-12.36,10.45a2.28,2.28,0,0,0-.8,1.79l1,15.71a1.6,1.6,0,0,1-1.54,1.6H249.59c-.62,0-2.83-3.76-2.77-4.1h0a2.55,2.55,0,0,1,1.83-2l6.87-2.63a1.6,1.6,0,0,0,1.16-1.68s-1.8-10.38-1.76-10.94l.91-11.73a1.57,1.57,0,0,1,.67-1.18l14.76-10.47a1.61,1.61,0,0,1,1.87,0l10.23,7.45a1.58,1.58,0,0,1,.65,1.14l.49,5.24A1.63,1.63,0,0,1,284,380Z"/><path class="cls-7" d="M287.75,360a36.5,36.5,0,0,0,26.86-20.49c5.44-12.05,3.6-24.68-2.51-36.06-5.31-9.9-13.46-20-24.89-22.76-10.6-2.57-22.88,1.38-27.13,12.11-5.19,13.1,4.54,26.47,18.14,27.22,6,.33,6-9,0-9.31-11-.61-14.06-15.7-3.89-20.26,9.55-4.28,19.22,2.4,24.8,9.84,6.59,8.76,11.58,19.81,8.64,30.87-2.85,10.73-11.75,18-22.5,19.85-5.89,1-3.39,10,2.48,9Z"/><path class="cls-5" d="M293.66,399.85h0c-1,1.78-6.51,4.3-6.51,4.3a2,2,0,0,0-1.43,1.65l0,.22c-.08.52,1.1,3.72,3,3.54l21.73,0a1,1,0,0,0,.92-1.11l-18.26-46.17c-3.71-6.07-1.89-12.53-33.91-25.8-5.17-2.14-48.86-11.7-48.86-11.7a20,20,0,0,0-7.2.38h0a8.69,8.69,0,0,0-6.39,6.17l-.12.44c-1.9,7,.84,27.85,1.94,37.06.13,1.08-2.58,8.94-5.74,17.63-4.21,11.6-6.4,16-9.62,16-3.6,0-3.52,7.06-2.17,7.06h11.77a2,2,0,0,0,1.95-2.06s.48-.8.65-1.05c4.4-6.67,14.68-20.92,18.5-26.08,2.81-3.8,7.26-17.49,7.26-17.49a32.47,32.47,0,0,0,21.68,12.74c20,2.74,28.27-1.48,28.27-1.48S294.08,399.07,293.66,399.85Z"/><path class="cls-7" d="M169.24,323c2.15,4.82,6.94,7.38,10.7,5.71s5.05-6.94,2.9-11.77-6.93-7.39-10.69-5.71S167.09,318.13,169.24,323Z"/><path class="cls-5" d="M177.93,326.09c-2.22.4-4.86-1.44-6.12-4.28-1.43-3.21-.7-6.79,1.6-7.81a3.18,3.18,0,0,1,.74-.23c2.23-.4,4.86,1.43,6.13,4.27a7.71,7.71,0,0,1,.55,5,4,4,0,0,1-2.15,2.85,3.83,3.83,0,0,1-.75.23Z"/><path class="cls-7" d="M221.06,323c-2.15,4.82-6.93,7.38-10.69,5.71s-5.06-6.94-2.91-11.77,6.94-7.39,10.69-5.71S223.21,318.13,221.06,323Z"/><path class="cls-5" d="M212.37,326.09c2.23.4,4.86-1.44,6.13-4.28,1.43-3.21.7-6.79-1.6-7.81a3.26,3.26,0,0,0-.75-.23c-2.22-.4-4.86,1.43-6.12,4.27a7.79,7.79,0,0,0-.56,5,4,4,0,0,0,2.15,2.85,3.83,3.83,0,0,0,.75.23Z"/><path class="cls-4" d="M179.15,313.73A19.6,19.6,0,0,1,214.75,325a19.78,19.78,0,0,1-.74,5.37,18.7,18.7,0,0,1-.95,2.6l-.26.56a19.42,19.42,0,0,1-2.12,3.43h0q-.58.75-1.23,1.44l-4.09,4.78h0a12.72,12.72,0,0,1-20.72-.52h0l-3-3.47a20.16,20.16,0,0,1-2.7-3.19l0,0h0a21.13,21.13,0,0,1-1.42-2.45l-.26-.56a18.67,18.67,0,0,1-.94-2.6,19.58,19.58,0,0,1,2.85-16.68Z"/><path class="cls-7" d="M187.75,326.88a10.86,10.86,0,0,1,4.71-8.15,4.8,4.8,0,0,1,5.38,0,10.87,10.87,0,0,1,4.72,8.15A10.87,10.87,0,0,1,195.45,346h-.59A10.86,10.86,0,0,1,184,335.1a11.53,11.53,0,0,1,.22-2.22A10.89,10.89,0,0,1,187.75,326.88Z"/><path class="cls-7" d="M199.75,328.71h4.11a6.47,6.47,0,0,0,6.46-6.47v-1a6.46,6.46,0,0,0-6.46-6.46h-4.11a6.36,6.36,0,0,0-2.51.51,6.47,6.47,0,0,0-4,5.95v1A6.47,6.47,0,0,0,199.75,328.71Z"/><path class="cls-7" d="M186.45,328.71h4.1a6.47,6.47,0,0,0,6.47-6.47v-1a6.47,6.47,0,0,0-6.47-6.46h-4.1a6.47,6.47,0,0,0-6.47,6.46v1A6.47,6.47,0,0,0,186.45,328.71Z"/></g></g></svg>