<svg xmlns="http://www.w3.org/2000/svg" viewBox="0 0 660.04 519"><defs><style>.cls-1{fill:#fff;}.cls-2{fill:#5045b3;}.cls-3{fill:#eb6654;}.cls-4{fill:#0069b3;}.cls-5{fill:#1c313a;}.cls-6{fill:#fde89a;}.cls-7{fill:#f1685a;}.cls-8{fill:#f09433;}.cls-13,.cls-14,.cls-9{fill:none;stroke-miterlimit:10;}.cls-9{stroke:#f1685a;}.cls-10{fill:#037559;}.cls-11{fill:#038d71;}.cls-12{fill:#0e233f;}.cls-13{stroke:#5045b3;}.cls-14{stroke:#eb6654;}</style></defs><g id="Capa_2" data-name="Capa 2"><g id="Arte"><rect class="cls-1" width="660.04" height="519" rx="5"/><path class="cls-2" d="M0,5H0A5,5,0,0,1,5,0H655a5,5,0,0,1,5,5H0Z"/><rect class="cls-3" x="80.78" y="413.34" width="17.11" height="5.92"/><path class="cls-4" d="M44.27,66.15h1.64V78.43H44.15V68.88l-3.78,4.74h-.32l-3.82-4.74v9.55H34.47V66.15h1.66l4.08,5Z"/><path class="cls-4" d="M53.38,78.43v-1a3.72,3.72,0,0,1-1.16.87,3,3,0,0,1-1.31.31,2.76,2.76,0,0,1-1.41-.38,2.52,2.52,0,0,1-1-1A5.35,5.35,0,0,1,48.2,75V70.34h1.59V75a3.21,3.21,0,0,0,.37,1.78,1.47,1.47,0,0,0,1.28.51,2.35,2.35,0,0,0,1.94-1.12V70.34H55v8.09Z"/><path class="cls-4" d="M58.72,70.34v1a3.23,3.23,0,0,1,2.44-1.18,2.67,2.67,0,0,1,1.4.39,2.49,2.49,0,0,1,1,1.07,5,5,0,0,1,.34,2.16v4.62h-1.6v-4.6a3.2,3.2,0,0,0-.38-1.78,1.44,1.44,0,0,0-1.26-.53,2.31,2.31,0,0,0-1.93,1.14v5.77H57.09V70.34Z"/><path class="cls-4" d="M66.84,66.94a.93.93,0,0,1,.68.28.91.91,0,0,1,.28.66,1,1,0,0,1-.28.67.93.93,0,0,1-.68.28.88.88,0,0,1-.65-.28.91.91,0,0,1-.28-.67,1,1,0,0,1,.93-.94Zm-.79,3.4h1.6v8.09h-1.6Z"/><path class="cls-4" d="M75.92,76.54v1.58a6.75,6.75,0,0,1-2.36.45,3.88,3.88,0,0,1-4.16-4.14,4.29,4.29,0,0,1,1.1-3.07,3.8,3.8,0,0,1,2.9-1.17,4.87,4.87,0,0,1,1.12.12,6.16,6.16,0,0,1,1.22.44v1.7a4.3,4.3,0,0,0-2.25-.77,2.27,2.27,0,0,0-1.77.76,2.74,2.74,0,0,0-.7,1.94,2.62,2.62,0,0,0,.75,2,2.82,2.82,0,0,0,2,.73A5.29,5.29,0,0,0,75.92,76.54Z"/><path class="cls-4" d="M78.45,66.94a.91.91,0,0,1,.68.28.87.87,0,0,1,.28.66,1,1,0,0,1-1,1,.9.9,0,0,1-.65-.28,1,1,0,0,1-.28-.67.94.94,0,0,1,.28-.65A.91.91,0,0,1,78.45,66.94Zm-.79,3.4h1.6v8.09h-1.6Z"/><path class="cls-4" d="M81.36,82.55V70.34h2.8a4.82,4.82,0,0,1,3.35,1.08,3.79,3.79,0,0,1,1.2,3,4.13,4.13,0,0,1-1.13,3,3.81,3.81,0,0,1-2.87,1.17A4.94,4.94,0,0,1,83,78.23v4.32Zm2.77-10.71H83v5a3.22,3.22,0,0,0,1.54.38,2.39,2.39,0,0,0,1.84-.78,2.89,2.89,0,0,0,.71-2,2.77,2.77,0,0,0-.34-1.4,2,2,0,0,0-.92-.88A4,4,0,0,0,84.13,71.84Z"/><path class="cls-4" d="M91.19,66.94a.91.91,0,0,1,.67.28.87.87,0,0,1,.28.66.94.94,0,0,1-1.61.67,1,1,0,0,1-.28-.67.94.94,0,0,1,.28-.65A.91.91,0,0,1,91.19,66.94Zm-.8,3.4H92v8.09h-1.6Z"/><path class="cls-4" d="M98.06,70.33a4.19,4.19,0,0,1,3.07,1.19,4,4,0,0,1,1.22,3,3.8,3.8,0,0,1-1.24,2.91A4.37,4.37,0,0,1,98,78.57a4.24,4.24,0,0,1-3-1.17,4.14,4.14,0,0,1,0-5.89A4.27,4.27,0,0,1,98.06,70.33ZM98,71.77a2.53,2.53,0,0,0-1.89.75,2.63,2.63,0,0,0-.74,1.93,2.53,2.53,0,0,0,.75,1.89,2.7,2.7,0,0,0,2,.74,2.66,2.66,0,0,0,1.93-.74,2.77,2.77,0,0,0,0-3.82A2.75,2.75,0,0,0,98,71.77Z"/><path class="cls-4" d="M103.63,77.85V76.13a7.89,7.89,0,0,0,1.38.77,3.34,3.34,0,0,0,1.19.29,1.52,1.52,0,0,0,.86-.24.71.71,0,0,0,.36-.59.82.82,0,0,0-.23-.59,5.64,5.64,0,0,0-1-.67,7,7,0,0,1-2-1.47,2.11,2.11,0,0,1-.48-1.33,1.87,1.87,0,0,1,.72-1.52,2.85,2.85,0,0,1,1.87-.59,5.24,5.24,0,0,1,2.44.66v1.59a4.82,4.82,0,0,0-2.33-.86,1.3,1.3,0,0,0-.75.19.61.61,0,0,0-.29.53.76.76,0,0,0,.26.53,4.17,4.17,0,0,0,.91.62l.57.32c1.35.77,2,1.61,2,2.53a2,2,0,0,1-.78,1.63,3,3,0,0,1-2,.64,5,5,0,0,1-1.28-.15A8,8,0,0,1,103.63,77.85Z"/><path class="cls-4" d="M119.55,70.34h3V82.55H121V78.29a6.94,6.94,0,0,1-1.77.28,3.81,3.81,0,0,1-2.85-1.16,4,4,0,0,1-1.13-2.94,4,4,0,0,1,1.17-3A4.39,4.39,0,0,1,119.55,70.34ZM121,76.9V71.84h-1a6.74,6.74,0,0,0-1.39.09,2.24,2.24,0,0,0-.61.26,1.92,1.92,0,0,0-.46.4,2.66,2.66,0,0,0-.66,1.84,2.84,2.84,0,0,0,.74,2,2.56,2.56,0,0,0,1.93.79,2.68,2.68,0,0,0,.45,0c.11,0,.37-.1.77-.23l.12,0Z"/><path class="cls-4" d="M129.77,78.43v-1a3.61,3.61,0,0,1-1.16.87,3,3,0,0,1-1.31.31,2.76,2.76,0,0,1-1.41-.38,2.49,2.49,0,0,1-1-1,5.15,5.15,0,0,1-.33-2.17V70.34h1.6V75a3.22,3.22,0,0,0,.36,1.78,1.48,1.48,0,0,0,1.28.51,2.35,2.35,0,0,0,1.94-1.12V70.34h1.6v8.09Z"/><path class="cls-4" d="M140.41,74.53h-5.69a2.61,2.61,0,0,0,.78,1.84,2.54,2.54,0,0,0,1.85.69,4.89,4.89,0,0,0,2.92-1v1.56a5.31,5.31,0,0,1-1.47.7,6.12,6.12,0,0,1-1.7.21,3.8,3.8,0,0,1-2.16-.55,4.06,4.06,0,0,1-1.32-1.49,4.46,4.46,0,0,1-.5-2.17,4.29,4.29,0,0,1,1-3,3.47,3.47,0,0,1,2.71-1.15,3.21,3.21,0,0,1,2.57,1.12,4.5,4.5,0,0,1,1,3Zm-5.66-1h4.07a2.24,2.24,0,0,0-.57-1.48,1.84,1.84,0,0,0-1.37-.51,2,2,0,0,0-1.41.51A2.62,2.62,0,0,0,134.75,73.57Z"/><path class="cls-4" d="M152,73.57V77c0,.27.1.41.28.41a1.89,1.89,0,0,0,.91-.43v1a4.91,4.91,0,0,1-.88.47,1.77,1.77,0,0,1-.69.13c-.68,0-1.09-.27-1.21-.81a3.46,3.46,0,0,1-2.17.79,2,2,0,0,1-1.42-3.32,3.85,3.85,0,0,1,1.56-1l2.05-.7v-.43A1.29,1.29,0,0,0,149,71.68,3.53,3.53,0,0,0,146.42,73V71.29a3.3,3.3,0,0,1,2.68-1.1,3.1,3.1,0,0,1,2.1.68,2.06,2.06,0,0,1,.48.59,2.09,2.09,0,0,1,.27.73A13.07,13.07,0,0,1,152,73.57Zm-1.57,3.26v-2.4l-1.07.41a3.69,3.69,0,0,0-1.16.66,1.18,1.18,0,0,0,0,1.64,1.15,1.15,0,0,0,.83.32A2,2,0,0,0,150.43,76.83Z"/><path class="cls-4" d="M160.56,76.54v1.58a6.69,6.69,0,0,1-2.35.45,4.09,4.09,0,0,1-3-1.12,4.05,4.05,0,0,1-1.13-3,4.25,4.25,0,0,1,1.1-3.07A3.77,3.77,0,0,1,158,70.19a4.81,4.81,0,0,1,1.12.12,6.44,6.44,0,0,1,1.23.44v1.7a4.3,4.3,0,0,0-2.25-.77,2.28,2.28,0,0,0-1.78.76,2.78,2.78,0,0,0-.69,1.94,2.62,2.62,0,0,0,.75,2,2.79,2.79,0,0,0,2,.73A5.26,5.26,0,0,0,160.56,76.54Z"/><path class="cls-4" d="M161.14,71.63l3-2.95v1.66h2.56v1.45h-2.56v3.95c0,.93.39,1.39,1.16,1.39a3.53,3.53,0,0,0,1.81-.57v1.49a4,4,0,0,1-2,.52,2.67,2.67,0,0,1-1.83-.64,1.88,1.88,0,0,1-.37-.43,2.25,2.25,0,0,1-.25-.64,6.76,6.76,0,0,1-.11-1.49V71.79h-1.4Z"/><path class="cls-4" d="M173.31,78.43v-1a3.65,3.65,0,0,1-1.17.87,3,3,0,0,1-1.3.31,2.76,2.76,0,0,1-1.41-.38,2.52,2.52,0,0,1-1-1,5.15,5.15,0,0,1-.33-2.17V70.34h1.6V75a3.12,3.12,0,0,0,.37,1.78,1.47,1.47,0,0,0,1.28.51,2.35,2.35,0,0,0,1.94-1.12V70.34h1.6v8.09Z"/><path class="cls-4" d="M182.13,73.57V77c0,.27.09.41.28.41a1.89,1.89,0,0,0,.91-.43v1a5.27,5.27,0,0,1-.88.47,1.8,1.8,0,0,1-.69.13c-.68,0-1.09-.27-1.21-.81a3.46,3.46,0,0,1-2.17.79A2,2,0,0,1,177,75.23a3.85,3.85,0,0,1,1.56-1l2.05-.7v-.43a1.29,1.29,0,0,0-1.46-1.46A3.53,3.53,0,0,0,176.55,73V71.29a3.29,3.29,0,0,1,2.68-1.1,3.14,3.14,0,0,1,2.1.68,2.24,2.24,0,0,1,.48.59,2.07,2.07,0,0,1,.26.73A10.17,10.17,0,0,1,182.13,73.57Zm-1.57,3.26v-2.4l-1.07.41a3.58,3.58,0,0,0-1.16.66,1.08,1.08,0,0,0-.34.82,1.11,1.11,0,0,0,.32.82,1.15,1.15,0,0,0,.83.32A2,2,0,0,0,180.56,76.83Z"/><path class="cls-4" d="M184.66,66.15h1.6V78.43h-1.6Z"/><path class="cls-4" d="M189.29,66.94a.93.93,0,0,1,.68.28.91.91,0,0,1,.28.66,1,1,0,0,1-.28.67.93.93,0,0,1-.68.28.88.88,0,0,1-.65-.28.91.91,0,0,1-.28-.67,1,1,0,0,1,.93-.94Zm-.79,3.4h1.6v8.09h-1.6Z"/><path class="cls-4" d="M191.54,70.34h6.91l-4.28,6.6h4.28v1.49h-7.08l4.25-6.59h-4.08Z"/><path class="cls-4" d="M204.78,73.57V77c0,.27.09.41.28.41A1.91,1.91,0,0,0,206,77v1a4.89,4.89,0,0,1-.87.47,1.8,1.8,0,0,1-.69.13c-.69,0-1.09-.27-1.21-.81a3.48,3.48,0,0,1-2.17.79,2,2,0,0,1-1.42-3.32,3.71,3.71,0,0,1,1.56-1l2-.7v-.43a1.29,1.29,0,0,0-1.45-1.46A3.5,3.5,0,0,0,199.2,73V71.29a3.29,3.29,0,0,1,2.68-1.1,3.14,3.14,0,0,1,2.1.68,2.22,2.22,0,0,1,.47.59,2.09,2.09,0,0,1,.27.73A10.17,10.17,0,0,1,204.78,73.57Zm-1.58,3.26v-2.4l-1.07.41a3.62,3.62,0,0,0-1.15.66,1.18,1.18,0,0,0,0,1.64,1.13,1.13,0,0,0,.83.32A2,2,0,0,0,203.2,76.83Z"/><path class="cls-4" d="M209,70.34V72.2l.08-.14c.78-1.25,1.55-1.87,2.32-1.87a2.83,2.83,0,0,1,1.89.91l-.84,1.41a2.36,2.36,0,0,0-1.55-.79,1.66,1.66,0,0,0-1.34.73A2.86,2.86,0,0,0,209,74.2v4.23h-1.61V70.34Z"/><path class="cls-4" d="M217.71,70.33a4.21,4.21,0,0,1,3.07,1.19,4,4,0,0,1,1.22,3,3.8,3.8,0,0,1-1.24,2.91,4.41,4.41,0,0,1-3.12,1.15,4.22,4.22,0,0,1-3-1.17,3.87,3.87,0,0,1-1.22-2.93,3.93,3.93,0,0,1,1.23-3A4.31,4.31,0,0,1,217.71,70.33Zm-.09,1.44a2.56,2.56,0,0,0-1.89.75,2.67,2.67,0,0,0-.74,1.93,2.54,2.54,0,0,0,.76,1.89,2.9,2.9,0,0,0,3.87,0,2.77,2.77,0,0,0,0-3.82A2.73,2.73,0,0,0,217.62,71.77Z"/><path class="cls-4" d="M225.27,70.34v1a3.19,3.19,0,0,1,2.43-1.18,2.7,2.7,0,0,1,1.41.39,2.62,2.62,0,0,1,1,1.07,5.19,5.19,0,0,1,.34,2.16v4.62h-1.6v-4.6a3.2,3.2,0,0,0-.38-1.78,1.46,1.46,0,0,0-1.27-.53,2.29,2.29,0,0,0-1.92,1.14v5.77h-1.64V70.34Z"/><path class="cls-4" d="M237.06,77.85V76.13a7.89,7.89,0,0,0,1.38.77,3.34,3.34,0,0,0,1.19.29,1.5,1.5,0,0,0,.86-.24.71.71,0,0,0,.36-.59.78.78,0,0,0-.23-.59,5.64,5.64,0,0,0-1-.67,7,7,0,0,1-2-1.47,2.11,2.11,0,0,1-.48-1.33,1.87,1.87,0,0,1,.72-1.52,2.85,2.85,0,0,1,1.87-.59,5.24,5.24,0,0,1,2.44.66v1.59a4.82,4.82,0,0,0-2.33-.86,1.3,1.3,0,0,0-.75.19.61.61,0,0,0-.29.53.76.76,0,0,0,.26.53,4.17,4.17,0,0,0,.91.62l.57.32c1.35.77,2,1.61,2,2.53a2,2,0,0,1-.78,1.63,3,3,0,0,1-2,.64,5,5,0,0,1-1.28-.15A8,8,0,0,1,237.06,77.85Z"/><path class="cls-4" d="M249.42,78.43v-1a3.72,3.72,0,0,1-1.16.87,3,3,0,0,1-1.31.31,2.76,2.76,0,0,1-1.41-.38,2.52,2.52,0,0,1-1-1,5.35,5.35,0,0,1-.32-2.17V70.34h1.59V75a3.21,3.21,0,0,0,.37,1.78,1.47,1.47,0,0,0,1.28.51,2.35,2.35,0,0,0,1.94-1.12V70.34H251v8.09Z"/><path class="cls-4" d="M258,82.55V70.34h2.8a4.84,4.84,0,0,1,3.35,1.08,3.79,3.79,0,0,1,1.2,3,4.13,4.13,0,0,1-1.13,3,3.81,3.81,0,0,1-2.87,1.17,5,5,0,0,1-1.72-.34v4.32Zm2.77-10.71h-1.14v5a3.29,3.29,0,0,0,1.55.38,2.39,2.39,0,0,0,1.84-.78,2.89,2.89,0,0,0,.71-2,2.77,2.77,0,0,0-.34-1.4,2,2,0,0,0-.92-.88A4,4,0,0,0,260.72,71.84Z"/><path class="cls-4" d="M270.81,70.33a4.19,4.19,0,0,1,3.07,1.19,4,4,0,0,1,1.22,3,3.8,3.8,0,0,1-1.24,2.91,4.37,4.37,0,0,1-3.12,1.15,4.24,4.24,0,0,1-3-1.17,4.14,4.14,0,0,1,0-5.89A4.27,4.27,0,0,1,270.81,70.33Zm-.08,1.44a2.53,2.53,0,0,0-1.89.75,2.63,2.63,0,0,0-.74,1.93,2.53,2.53,0,0,0,.75,1.89,2.7,2.7,0,0,0,1.95.74,2.66,2.66,0,0,0,1.93-.74,2.77,2.77,0,0,0,0-3.82A2.75,2.75,0,0,0,270.73,71.77Z"/><path class="cls-4" d="M275.64,71.63l3-2.95v1.66h2.56v1.45h-2.56v3.95c0,.93.39,1.39,1.15,1.39a3.57,3.57,0,0,0,1.82-.57v1.49a4,4,0,0,1-2,.52,2.67,2.67,0,0,1-1.83-.64,1.92,1.92,0,0,1-.38-.43,2.59,2.59,0,0,1-.25-.64,7.71,7.71,0,0,1-.1-1.49V71.79h-1.4Z"/><path class="cls-4" d="M39.25,34.53a3.94,3.94,0,0,1,2.8,1,3.6,3.6,0,0,1,0,5.15,4.17,4.17,0,0,1-2.88,1H36.88v5.15H34.5V34.53Zm-.59,5.27a2.27,2.27,0,0,0,1.48-.43,1.55,1.55,0,0,0,.53-1.29c0-1.13-.72-1.69-2.18-1.69H36.88V39.8Z"/><path class="cls-4" d="M51.2,34.37a7.41,7.41,0,0,1,3.43.79,6,6,0,0,1,2.43,2.27A6.06,6.06,0,0,1,58,40.68a6.17,6.17,0,0,1-3.31,5.48,7.38,7.38,0,0,1-3.48.81,7.28,7.28,0,0,1-3.46-.83,6.07,6.07,0,0,1-3.3-5.46,6.19,6.19,0,0,1,.87-3.18,6.06,6.06,0,0,1,2.4-2.31A7.36,7.36,0,0,1,51.2,34.37Zm-4.33,6.31a4.34,4.34,0,0,0,.55,2.19A3.79,3.79,0,0,0,49,44.38a4.61,4.61,0,0,0,2.24.54,4.28,4.28,0,0,0,3.11-1.19,4.08,4.08,0,0,0,1.22-3A4.53,4.53,0,0,0,55,38.47,3.82,3.82,0,0,0,53.43,37a4.94,4.94,0,0,0-4.49,0,3.8,3.8,0,0,0-1.54,1.51A4.57,4.57,0,0,0,46.87,40.68Z"/><path class="cls-4" d="M69.55,34.53v1.86H65.19V46.81H62.82V36.39H58.46V34.53Z"/><path class="cls-4" d="M81.28,34.53,86.7,46.81H84.2l-1.28-3H77.46l-1.18,3H73.79l5.06-12.28ZM78.19,42h4l-2.08-4.86Z"/><path class="cls-4" d="M93.94,34.37a8.77,8.77,0,0,1,2,.24,10.38,10.38,0,0,1,2.16.81v2.23a10.06,10.06,0,0,0-2.09-.94,7.13,7.13,0,0,0-2-.29,5.14,5.14,0,0,0-2.37.54A4,4,0,0,0,90,38.49a4.44,4.44,0,0,0,0,4.39,4,4,0,0,0,1.63,1.51,5.3,5.3,0,0,0,2.38.53A6.54,6.54,0,0,0,96,44.63a13.33,13.33,0,0,0,2.31-1.05v2.24a10.71,10.71,0,0,1-2.2.88,8.93,8.93,0,0,1-2.33.27,7.55,7.55,0,0,1-3.48-.78A5.78,5.78,0,0,1,87.88,44,6.12,6.12,0,0,1,87,40.78a6.25,6.25,0,0,1,.9-3.33,6.07,6.07,0,0,1,2.48-2.28A7.76,7.76,0,0,1,93.94,34.37Z"/><path class="cls-4" d="M110.63,34.53v1.86h-4.36V46.81H103.9V36.39H99.54V34.53Z"/><path class="cls-4" d="M114.61,34.53v7.15a3.93,3.93,0,0,0,.33,1.75A2.62,2.62,0,0,0,116,44.5a3.5,3.5,0,0,0,1.74.42,3.86,3.86,0,0,0,1.85-.4,2.57,2.57,0,0,0,1.12-1.09,4.34,4.34,0,0,0,.35-1.91v-7h2.37v7.3A4.86,4.86,0,0,1,122,45.64,6.13,6.13,0,0,1,117.75,47a6.61,6.61,0,0,1-3-.61,4.22,4.22,0,0,1-1.91-1.75,5.32,5.32,0,0,1-.66-2.7V34.53Z"/><path class="cls-4" d="M132,34.53l5.42,12.28h-2.5l-1.28-3h-5.46l-1.18,3h-2.49l5.06-12.28ZM128.9,42h4l-2.08-4.86Z"/><path class="cls-4" d="M141.13,34.53V45h6v1.85h-8.33V34.53Z"/><path class="cls-4" d="M151,34.53V46.81h-2.37V34.53Z"/><path class="cls-4" d="M163.78,34.53,156.63,45h7.19v1.85H152.55l7.14-10.42H153V34.53Z"/><path class="cls-4" d="M171.73,34.53l5.43,12.28h-2.51l-1.27-3h-5.46l-1.19,3h-2.49l5.07-12.28ZM168.64,42h4l-2.07-4.86Z"/><path class="cls-4" d="M183.63,34.53a7.26,7.26,0,0,1,3.41.78,5.73,5.73,0,0,1,2.32,2.2,6.55,6.55,0,0,1,0,6.38A5.61,5.61,0,0,1,187,46.05a7.88,7.88,0,0,1-3.51.76h-5V34.53ZM183.38,45a4.27,4.27,0,0,0,3.16-1.19,4.64,4.64,0,0,0,0-6.23,4.46,4.46,0,0,0-3.23-1.15h-2.45V45Z"/><path class="cls-4" d="M198.59,34.37a7.44,7.44,0,0,1,3.43.79,6,6,0,0,1,2.43,2.27,6.21,6.21,0,0,1-2.4,8.73,7.77,7.77,0,0,1-7,0,6.07,6.07,0,0,1-3.3-5.46,6.19,6.19,0,0,1,.87-3.18,6.06,6.06,0,0,1,2.4-2.31A7.4,7.4,0,0,1,198.59,34.37Zm-4.34,6.31a4.35,4.35,0,0,0,.56,2.19,3.79,3.79,0,0,0,1.54,1.51,4.61,4.61,0,0,0,2.24.54,4.29,4.29,0,0,0,3.11-1.19,4.08,4.08,0,0,0,1.21-3,4.42,4.42,0,0,0-.55-2.21A3.73,3.73,0,0,0,200.82,37a5,5,0,0,0-4.5,0,3.83,3.83,0,0,0-1.53,1.51A4.47,4.47,0,0,0,194.25,40.68Z"/><path class="cls-4" d="M217.11,34.53a3.94,3.94,0,0,1,2.8,1,3.6,3.6,0,0,1,0,5.15,4.17,4.17,0,0,1-2.88,1h-2.28v5.15h-2.38V34.53Zm-.59,5.27a2.27,2.27,0,0,0,1.48-.43,1.55,1.55,0,0,0,.53-1.29c0-1.13-.72-1.69-2.18-1.69h-1.61V39.8Z"/><path class="cls-4" d="M229.06,34.37a7.41,7.41,0,0,1,3.43.79,6,6,0,0,1,2.43,2.27,6.06,6.06,0,0,1,.91,3.25,6.17,6.17,0,0,1-3.31,5.48A7.38,7.38,0,0,1,229,47a7.25,7.25,0,0,1-3.46-.83,6.07,6.07,0,0,1-3.3-5.46,6.19,6.19,0,0,1,.87-3.18,6.1,6.1,0,0,1,2.39-2.31A7.43,7.43,0,0,1,229.06,34.37Zm-4.33,6.31a4.34,4.34,0,0,0,.55,2.19,3.79,3.79,0,0,0,1.54,1.51,4.61,4.61,0,0,0,2.24.54,4.28,4.28,0,0,0,3.11-1.19,4.08,4.08,0,0,0,1.21-3,4.52,4.52,0,0,0-.54-2.21A3.82,3.82,0,0,0,231.29,37a4.68,4.68,0,0,0-2.25-.54,4.61,4.61,0,0,0-2.24.54,3.8,3.8,0,0,0-1.54,1.51A4.57,4.57,0,0,0,224.73,40.68Z"/><path class="cls-4" d="M242.36,34.53a4.13,4.13,0,0,1,2.83,1,3.19,3.19,0,0,1,1.09,2.5,3.06,3.06,0,0,1-.55,1.82,3.56,3.56,0,0,1-1.6,1.23,3.55,3.55,0,0,1,1.05.86,11.09,11.09,0,0,1,1.13,1.83c.75,1.49,1.31,2.52,1.67,3.08h-2.65c-.18-.27-.42-.7-.73-1.29a26.06,26.06,0,0,0-1.5-2.64,3.45,3.45,0,0,0-.91-1,1.81,1.81,0,0,0-1-.29h-.86v5.19h-2.38V34.53Zm-.53,5.24a2.13,2.13,0,0,0,1.46-.47,1.58,1.58,0,0,0,.53-1.27,1.51,1.51,0,0,0-.52-1.26,2.4,2.4,0,0,0-1.51-.42h-1.47v3.42Z"/><path class="cls-4" d="M259.46,34.53l5.43,12.28h-2.51l-1.27-3h-5.46l-1.19,3H252L257,34.53ZM256.37,42h4l-2.07-4.86Z"/><path class="cls-4" d="M268.3,34.53l7.3,8.57V34.53h2.32V46.81h-2l-7.34-8.71v8.71h-2.32V34.53ZM271,31.15a2.33,2.33,0,0,1,.78.15c.28.1.55.22.81.34l.75.33a1.64,1.64,0,0,0,.59.15.55.55,0,0,0,.46-.24,1.41,1.41,0,0,0,.25-.71h1.13a3,3,0,0,1-.6,1.81,1.7,1.7,0,0,1-1.39.67,2.77,2.77,0,0,1-.89-.13,6.55,6.55,0,0,1-1-.45l-.43-.19-.3-.12-.22-.07h-.2a.52.52,0,0,0-.47.24,1.79,1.79,0,0,0-.23.73h-1.12a3,3,0,0,1,.63-1.84A1.82,1.82,0,0,1,271,31.15Z"/><path class="cls-4" d="M286.8,34.37a7.41,7.41,0,0,1,3.43.79,6,6,0,0,1,2.43,2.27,6.06,6.06,0,0,1,.91,3.25,6.17,6.17,0,0,1-3.31,5.48,7.38,7.38,0,0,1-3.48.81,7.28,7.28,0,0,1-3.46-.83,6.07,6.07,0,0,1-3.3-5.46,6.19,6.19,0,0,1,.87-3.18,6.1,6.1,0,0,1,2.39-2.31A7.43,7.43,0,0,1,286.8,34.37Zm-4.33,6.31a4.34,4.34,0,0,0,.55,2.19,3.79,3.79,0,0,0,1.54,1.51,4.61,4.61,0,0,0,2.24.54,4.28,4.28,0,0,0,3.11-1.19,4.08,4.08,0,0,0,1.21-3,4.52,4.52,0,0,0-.54-2.21A3.82,3.82,0,0,0,289,37a4.68,4.68,0,0,0-2.25-.54,4.61,4.61,0,0,0-2.24.54A3.8,3.8,0,0,0,283,38.47,4.57,4.57,0,0,0,282.47,40.68Z"/><polygon class="cls-5" points="609.17 158.55 573.43 128.81 609.17 99.7 609.17 158.55"/><path class="cls-6" d="M552.13,63S579.4,76.76,579.4,124L552.13,95.11Z"/><path class="cls-6" d="M552.13,194.35S579.4,181,579.4,133.77l-27.27,27.67Z"/><path class="cls-7" d="M545.41,127.76a8.6,8.6,0,0,1,2.62,7,8.69,8.69,0,1,0-14-7.55,8.63,8.63,0,0,1,11.39.57Z"/><path class="cls-6" d="M538.05,121.14A16,16,0,0,0,552.13,137V120.55H538.05Z"/><path class="cls-5" d="M542,121a11.48,11.48,0,0,0,10.12,11.4V120.55H542Z"/><path class="cls-8" d="M552.13,120.54a7.43,7.43,0,0,0-14.08,0"/><line class="cls-9" x1="576.2" y1="128.72" x2="610.36" y2="109.16"/><line class="cls-9" x1="576.2" y1="128.72" x2="610.36" y2="118.02"/><line class="cls-9" x1="576.2" y1="128.72" x2="610.36" y2="128.77"/><line class="cls-9" x1="610.36" y1="149.59" x2="576.2" y2="128.72"/><line class="cls-9" x1="610.36" y1="140.18" x2="576.2" y2="128.72"/><path class="cls-5" d="M571.59,128.77a65.18,65.18,0,0,0-19.46-46.62v93.24A65.18,65.18,0,0,0,571.59,128.77Z"/><polygon class="cls-8" points="552.13 95.25 552.13 161.58 579.4 133.77 579.4 123.98 552.13 95.25"/><polygon class="cls-5" points="569.85 143.52 552.13 128.61 569.85 113.92 569.85 143.52"/><polygon class="cls-5" points="562.12 151.6 552.13 144.24 562.12 136.99 562.12 151.6"/><polygon class="cls-5" points="562.12 120.58 552.13 113.23 562.12 105.97 562.12 120.58"/><rect class="cls-10" x="289.91" y="62.62" width="42.98" height="25.63" rx="5"/><rect class="cls-11" x="289.91" y="60.62" width="42.98" height="25.63" rx="5"/><path class="cls-1" d="M302.23,67.28V79.56H300V67.28Z"/><path class="cls-1" d="M310.45,67.13a4,4,0,0,1,2.08.54A3.67,3.67,0,0,1,314,69.21a5,5,0,0,1,.5,2.27,9.06,9.06,0,0,1-1.17,4.17,15.39,15.39,0,0,1-3.13,4.07h-2.68a15.48,15.48,0,0,0,2.22-2.46,12.8,12.8,0,0,0,1.65-2.75,3.51,3.51,0,0,1-1.41.28,3.13,3.13,0,0,1-2.41-1,3.78,3.78,0,0,1-.95-2.67,4,4,0,0,1,.5-2,3.7,3.7,0,0,1,1.39-1.44A3.77,3.77,0,0,1,310.45,67.13Zm-1.64,3.92a2,2,0,0,0,.46,1.34,1.57,1.57,0,0,0,1.23.53,1.55,1.55,0,0,0,1.2-.53,1.84,1.84,0,0,0,.47-1.27,2.12,2.12,0,0,0-.47-1.43,1.57,1.57,0,0,0-1.25-.55,1.47,1.47,0,0,0-1.19.53A2,2,0,0,0,308.81,71.05Z"/><path class="cls-1" d="M319.28,67.13a3.87,3.87,0,0,1,2.79,1,3.58,3.58,0,0,1,1,2.66,6,6,0,0,1-.77,2.74,27.27,27.27,0,0,1-2.7,3.92h4.21v2.12h-8v-.25c.93-1.14,1.72-2.17,2.39-3.08s1.18-1.67,1.54-2.27a9.07,9.07,0,0,0,.77-1.53,3.69,3.69,0,0,0,.23-1.31,2,2,0,0,0-.54-1.42,1.72,1.72,0,0,0-1.31-.58,4.18,4.18,0,0,0-2.89,1.58V68.3A5.34,5.34,0,0,1,319.28,67.13Z"/><rect class="cls-3" x="72.2" y="484.93" width="10.02" height="10.02"/><path d="M91.08,484.36h1.64a3.38,3.38,0,0,1,2.28.69,2.49,2.49,0,0,1,.81,2,2.81,2.81,0,0,1-.8,2,2.92,2.92,0,0,1-2.25.85H91.61l-.56,4H89.73Zm1.15,1.14-.46,3.25h.93a1.79,1.79,0,0,0,1.34-.5,1.71,1.71,0,0,0,.49-1.23,1.38,1.38,0,0,0-.46-1.1,1.81,1.81,0,0,0-1.28-.42Z"/><path d="M101,484.24a3,3,0,0,1,2.44,1.11,4.29,4.29,0,0,1,.94,2.9,6.33,6.33,0,0,1-1.36,4.14A4.1,4.1,0,0,1,99.75,494a3.09,3.09,0,0,1-2.45-1.13,4.32,4.32,0,0,1-1-2.9,6.6,6.6,0,0,1,1.31-4A4,4,0,0,1,101,484.24Zm-1.2,8.65a2.79,2.79,0,0,0,2.3-1.43,5.86,5.86,0,0,0,1-3.44,3,3,0,0,0-.56-1.93,1.86,1.86,0,0,0-1.53-.7,2.77,2.77,0,0,0-2.41,1.47,6.17,6.17,0,0,0-.92,3.33,3,3,0,0,0,.58,2A1.88,1.88,0,0,0,99.78,492.89Z"/><path d="M111.49,484.36l-.17,1.19h-2.69l-1.17,8.36h-1.32l1.18-8.36h-2.69l.17-1.19Z"/><path d="M121,487.63l-.88,6.28h-1.19l.12-.72,0,0a2.37,2.37,0,0,1-1.7.89,1.82,1.82,0,0,1-1.46-.73,2.64,2.64,0,0,1-.61-1.76,4.05,4.05,0,0,1,1.13-2.95,4.14,4.14,0,0,1,3.14-1.17A5.19,5.19,0,0,1,121,487.63Zm-1.81,4.47.51-3.63-.37,0a2.61,2.61,0,0,0-2.13.89,3.07,3.07,0,0,0-.73,2,2.09,2.09,0,0,0,.35,1.24,1.07,1.07,0,0,0,.89.48,1.51,1.51,0,0,0,1-.43C119,492.35,119.14,492.17,119.15,492.1Z"/><path d="M126.29,492.51l-.14,1.15a3.59,3.59,0,0,1-1.75.45,2.65,2.65,0,0,1-2-.79,2.93,2.93,0,0,1-.76-2.11,3.58,3.58,0,0,1,1.15-2.68,4.06,4.06,0,0,1,2.93-1.1,6.79,6.79,0,0,1,1.08.11l-.16,1.06a4,4,0,0,0-.91-.11,2.82,2.82,0,0,0-2,.8,2.46,2.46,0,0,0-.82,1.85,2,2,0,0,0,.46,1.4,1.62,1.62,0,0,0,1.26.51A3.3,3.3,0,0,0,126.29,492.51Z"/><path d="M130.67,487.63l-.13.92h-1.25l-.61,3.44a2,2,0,0,0-.05.44c0,.41.22.62.66.62a2.42,2.42,0,0,0,1.15-.38l-.07,1.16a3.21,3.21,0,0,1-1.3.28,1.79,1.79,0,0,1-1.22-.39,1.31,1.31,0,0,1-.45-1,1.82,1.82,0,0,1,0-.32l.66-3.81H127l.15-.92h1.15l.23-1.29h1.17l-.23,1.29Z"/><path d="M136.74,487.63l-.89,6.28h-1.18l.11-1.06a3,3,0,0,1-2.07,1.16,1.41,1.41,0,0,1-1.07-.46,1.75,1.75,0,0,1-.45-1.29,4.22,4.22,0,0,1,0-.49l.59-4.14H133l-.58,4.14a2.77,2.77,0,0,0,0,.39c0,.63.23.94.7.94s1.12-.46,1.89-1.39l.58-4.08Z"/><path d="M143.42,487.63l-.89,6.28h-1.18l.11-.72,0,0a2.35,2.35,0,0,1-1.69.89,1.84,1.84,0,0,1-1.47-.73,2.68,2.68,0,0,1-.6-1.76,4,4,0,0,1,1.12-2.95,4.16,4.16,0,0,1,3.14-1.17A5.27,5.27,0,0,1,143.42,487.63Zm-1.82,4.47.52-3.63-.37,0a2.59,2.59,0,0,0-2.13.89,3.08,3.08,0,0,0-.74,2,2,2,0,0,0,.36,1.24,1.06,1.06,0,0,0,.89.48,1.54,1.54,0,0,0,1-.43C141.42,492.35,141.59,492.17,141.6,492.1Z"/><path d="M146.6,484.36l-1.35,9.55h-1.18l1.34-9.55Z"/><path d="M148.77,487.63l-.88,6.28H146.7l.88-6.28Zm-1.06-2a.68.68,0,0,1,.2-.49.65.65,0,0,1,.48-.2.62.62,0,0,1,.48.2.65.65,0,0,1,.21.49.7.7,0,0,1-.69.68.68.68,0,0,1-.68-.68Z"/><path d="M155.26,487.63l-4.17,5.23h3.66l-.22,1.05h-5.71l4.11-5.23h-3.18l.14-1.05Z"/><path d="M161.66,487.63l-.88,6.28h-1.19l.12-.72,0,0a2.37,2.37,0,0,1-1.7.89,1.82,1.82,0,0,1-1.46-.73,2.64,2.64,0,0,1-.61-1.76A4.05,4.05,0,0,1,157,488.6a4.14,4.14,0,0,1,3.14-1.17A5.19,5.19,0,0,1,161.66,487.63Zm-1.81,4.47.51-3.63-.37,0a2.61,2.61,0,0,0-2.13.89,3.07,3.07,0,0,0-.73,2,2.09,2.09,0,0,0,.35,1.24,1.09,1.09,0,0,0,.9.48,1.51,1.51,0,0,0,.94-.43C159.66,492.35,159.84,492.17,159.85,492.1Z"/><path d="M168.68,484.36l-1.34,9.55a5.58,5.58,0,0,1-1.61.2,3.56,3.56,0,0,1-2.45-.76,2.71,2.71,0,0,1-.86-2.15,3.71,3.71,0,0,1,1.12-2.57,3.92,3.92,0,0,1,3-1.2h.5l.42-3.07Zm-2.4,8.74.65-4.68h-.31a3,3,0,0,0-2.16.81,2.68,2.68,0,0,0-.82,1.94,1.89,1.89,0,0,0,.54,1.45,2.18,2.18,0,0,0,1.55.51A3.82,3.82,0,0,0,166.28,493.1Z"/><path d="M172.07,487.43a2.11,2.11,0,0,1,1.7.75,3,3,0,0,1,.64,2,4.48,4.48,0,0,1-.86,2.83,2.59,2.59,0,0,1-2.12,1.11,2.17,2.17,0,0,1-1.74-.74,3.17,3.17,0,0,1-.62-2.07,4.33,4.33,0,0,1,.86-2.76A2.64,2.64,0,0,1,172.07,487.43Zm0,.94a1.5,1.5,0,0,0-1.26.91,4.17,4.17,0,0,0-.53,2.14,2.1,2.1,0,0,0,.32,1.2.93.93,0,0,0,.79.47,1.51,1.51,0,0,0,1.27-.85,3.91,3.91,0,0,0,.53-2.13,2.36,2.36,0,0,0-.3-1.27A1,1,0,0,0,172.07,488.37Z"/><path d="M179.36,488.09v1.24a3.31,3.31,0,0,0-1.89-.82,1,1,0,0,0-.61.19.58.58,0,0,0-.25.47.62.62,0,0,0,.16.38,5.33,5.33,0,0,0,1,.75,3.81,3.81,0,0,1,1.1,1,1.76,1.76,0,0,1,.28.93,1.81,1.81,0,0,1-.55,1.36,1.94,1.94,0,0,1-1.4.52,3.76,3.76,0,0,1-2.18-.82l.21-1.15a3.47,3.47,0,0,0,1.93.93.89.89,0,0,0,.59-.19.66.66,0,0,0,.23-.5.82.82,0,0,0-.17-.47,5,5,0,0,0-1-.79,3.83,3.83,0,0,1-1.06-1,1.66,1.66,0,0,1-.26-.88,1.7,1.7,0,0,1,.54-1.31,2,2,0,0,1,1.43-.5A3.37,3.37,0,0,1,179.36,488.09Z"/><rect class="cls-3" x="119.6" y="391.66" width="17.11" height="27.6"/><rect class="cls-3" x="167.31" y="323.96" width="17.11" height="95.3"/><rect class="cls-3" x="215.91" y="279" width="17.11" height="140.27"/><rect class="cls-3" x="263.8" y="189.21" width="17.11" height="230.05"/><rect class="cls-3" x="312.05" y="330.47" width="17.11" height="88.79"/><rect class="cls-3" x="360.48" y="341.43" width="17.11" height="77.84"/><rect class="cls-3" x="408.52" y="290.42" width="17.11" height="128.85"/><rect class="cls-3" x="456.56" y="268.04" width="17.11" height="151.22"/><rect class="cls-3" x="505.36" y="330.47" width="17.11" height="88.79"/><rect class="cls-3" x="553.15" y="374.87" width="17.11" height="44.4"/><path class="cls-12" d="M68,443.91h3.89v1.42H65.4v-.11l.61-.72c1-1.19,1.73-2.2,2.3-3a11.28,11.28,0,0,0,1.11-1.88,3.23,3.23,0,0,0,.26-1.26,1.94,1.94,0,0,0-.49-1.39,1.7,1.7,0,0,0-1.3-.53,2.22,2.22,0,0,0-1.21.37,3.7,3.7,0,0,0-1.08,1v-1.86a3.88,3.88,0,0,1,2.46-1,2.93,2.93,0,0,1,2.21.9,3.11,3.11,0,0,1,.87,2.27,4.23,4.23,0,0,1-.22,1.31,6.9,6.9,0,0,1-.76,1.61,22,22,0,0,1-1.87,2.49Z"/><path class="cls-12" d="M76.19,435a2.71,2.71,0,0,1,2.33,1.48,8.16,8.16,0,0,1,0,7.53,2.75,2.75,0,0,1-2.39,1.46A2.72,2.72,0,0,1,73.75,444a7,7,0,0,1-.9-3.78,6.93,6.93,0,0,1,.93-3.79A2.77,2.77,0,0,1,76.19,435Zm0,1.39h-.08a1.5,1.5,0,0,0-1.33,1,6.61,6.61,0,0,0-.5,2.81,6.73,6.73,0,0,0,.49,2.85,1.47,1.47,0,0,0,1.33,1,1.49,1.49,0,0,0,1.34-1,6.59,6.59,0,0,0,.49-2.81,7.12,7.12,0,0,0-.47-2.83C77.16,436.71,76.74,436.35,76.21,436.35Z"/><path class="cls-12" d="M83.69,435A2.71,2.71,0,0,1,86,436.44,8.16,8.16,0,0,1,86,444a2.75,2.75,0,0,1-2.39,1.46A2.72,2.72,0,0,1,81.25,444a7,7,0,0,1-.9-3.78,6.93,6.93,0,0,1,.93-3.79A2.77,2.77,0,0,1,83.69,435Zm0,1.39h-.08a1.5,1.5,0,0,0-1.33,1,6.61,6.61,0,0,0-.5,2.81,6.73,6.73,0,0,0,.49,2.85,1.47,1.47,0,0,0,1.33,1,1.49,1.49,0,0,0,1.34-1,6.59,6.59,0,0,0,.49-2.81,7.12,7.12,0,0,0-.47-2.83C84.66,436.71,84.24,436.35,83.71,436.35Z"/><path class="cls-12" d="M90.19,445.44l-.9-1.06a8.26,8.26,0,0,0,2-1.74,5.45,5.45,0,0,0,1.14-2.1,3,3,0,0,1-1.63.44,2.64,2.64,0,0,1-2-.88,3,3,0,0,1,0-4.25A3,3,0,0,1,91,435,3,3,0,0,1,93.38,436a4,4,0,0,1,.92,2.69,7.22,7.22,0,0,1-1.16,3.76A8.59,8.59,0,0,1,90.19,445.44Zm2.51-6.35c0-.39.08-.65.08-.76a2.09,2.09,0,0,0-.49-1.45,1.62,1.62,0,0,0-1.27-.57,1.57,1.57,0,0,0-1.18.48,1.66,1.66,0,0,0-.46,1.21,1.58,1.58,0,0,0,.5,1.15,1.7,1.7,0,0,0,1.21.48A2.83,2.83,0,0,0,92.7,439.09Z"/><path class="cls-12" d="M115.85,443.91h3.9v1.42h-6.48v-.11l.62-.72c1-1.19,1.72-2.2,2.29-3a11.83,11.83,0,0,0,1.12-1.89,3.34,3.34,0,0,0,.26-1.26,2,2,0,0,0-.49-1.38,1.72,1.72,0,0,0-1.31-.53,2.25,2.25,0,0,0-1.21.37,3.56,3.56,0,0,0-1.07,1v-1.86a3.84,3.84,0,0,1,2.46-1,3,3,0,0,1,2.21.9,3.1,3.1,0,0,1,.86,2.27,4.52,4.52,0,0,1-.21,1.31,7.42,7.42,0,0,1-.77,1.61,21.64,21.64,0,0,1-1.86,2.49Z"/><path class="cls-12" d="M124.07,435a2.67,2.67,0,0,1,2.32,1.48,8.16,8.16,0,0,1,0,7.53,2.69,2.69,0,0,1-4.77,0,8.31,8.31,0,0,1,0-7.58A2.79,2.79,0,0,1,124.07,435Zm0,1.39H124a1.51,1.51,0,0,0-1.34,1,6.62,6.62,0,0,0-.49,2.81,6.91,6.91,0,0,0,.48,2.85,1.48,1.48,0,0,0,1.33,1,1.5,1.5,0,0,0,1.35-1,6.75,6.75,0,0,0,.49-2.81,6.93,6.93,0,0,0-.48-2.83C125,436.71,124.61,436.35,124.08,436.35Z"/><path class="cls-12" d="M130.79,435.09h1.47v10.24h-1.47Z"/><path class="cls-12" d="M138.35,443.91h3.9v1.42h-6.48v-.11l.62-.72c1-1.19,1.72-2.2,2.29-3a11.83,11.83,0,0,0,1.12-1.89,3.34,3.34,0,0,0,.26-1.26,2,2,0,0,0-.49-1.38,1.72,1.72,0,0,0-1.31-.53,2.25,2.25,0,0,0-1.21.37,3.56,3.56,0,0,0-1.07,1v-1.86a3.84,3.84,0,0,1,2.46-1,3,3,0,0,1,2.21.9,3.1,3.1,0,0,1,.86,2.27,4.52,4.52,0,0,1-.21,1.31,7.42,7.42,0,0,1-.77,1.61,21.64,21.64,0,0,1-1.86,2.49Z"/><path class="cls-12" d="M164.18,443.91h3.9v1.42H161.6v-.11l.62-.72c1-1.19,1.73-2.2,2.29-3a11.83,11.83,0,0,0,1.12-1.89,3.34,3.34,0,0,0,.26-1.26,2,2,0,0,0-.49-1.38,1.72,1.72,0,0,0-1.31-.53,2.25,2.25,0,0,0-1.21.37,3.56,3.56,0,0,0-1.07,1v-1.86a3.84,3.84,0,0,1,2.46-1,3,3,0,0,1,2.21.9,3.1,3.1,0,0,1,.86,2.27,4.52,4.52,0,0,1-.21,1.31,7.42,7.42,0,0,1-.77,1.61,21.64,21.64,0,0,1-1.86,2.49Z"/><path class="cls-12" d="M172.4,435a2.67,2.67,0,0,1,2.32,1.48,8.16,8.16,0,0,1,0,7.53,2.69,2.69,0,0,1-4.77,0,8.31,8.31,0,0,1,0-7.58A2.79,2.79,0,0,1,172.4,435Zm0,1.39h-.07a1.51,1.51,0,0,0-1.34,1,6.62,6.62,0,0,0-.49,2.81,6.91,6.91,0,0,0,.48,2.85,1.48,1.48,0,0,0,1.33,1,1.5,1.5,0,0,0,1.35-1,6.75,6.75,0,0,0,.49-2.81,6.93,6.93,0,0,0-.48-2.83C173.37,436.71,173,436.35,172.41,436.35Z"/><path class="cls-12" d="M179.12,435.09h1.47v10.24h-1.47Z"/><path class="cls-12" d="M186.29,439.37h.09a2.33,2.33,0,0,0,1.46-.39,1.37,1.37,0,0,0,.5-1.15,1.4,1.4,0,0,0-.48-1.11,1.9,1.9,0,0,0-1.28-.42,3.92,3.92,0,0,0-1.77.49v-1.4a4.35,4.35,0,0,1,1.94-.44,3.15,3.15,0,0,1,2.23.74,2.56,2.56,0,0,1,.82,2,2.5,2.5,0,0,1-.31,1.3,2.6,2.6,0,0,1-1,.92,2,2,0,0,1,.88.57,2.37,2.37,0,0,1,.43.82,3.22,3.22,0,0,1,.16,1,3,3,0,0,1-.9,2.22,3.08,3.08,0,0,1-2.25.87,4.75,4.75,0,0,1-2.25-.56v-1.6a4.18,4.18,0,0,0,2.25.73,1.65,1.65,0,0,0,1.19-.44,1.55,1.55,0,0,0,.45-1.17,1.62,1.62,0,0,0-.38-1.06,1.3,1.3,0,0,0-.48-.37,4.62,4.62,0,0,0-1.16-.24h-.13Z"/><path class="cls-12" d="M212.21,443.91h3.9v1.42h-6.48v-.11l.62-.72c1-1.19,1.72-2.2,2.29-3a11.83,11.83,0,0,0,1.12-1.89,3.34,3.34,0,0,0,.26-1.26,2,2,0,0,0-.49-1.38,1.72,1.72,0,0,0-1.31-.53,2.25,2.25,0,0,0-1.21.37,3.56,3.56,0,0,0-1.07,1v-1.86a3.84,3.84,0,0,1,2.46-1,3,3,0,0,1,2.21.9,3.14,3.14,0,0,1,.86,2.27,4.52,4.52,0,0,1-.21,1.31,7.42,7.42,0,0,1-.77,1.61,21.64,21.64,0,0,1-1.86,2.49Z"/><path class="cls-12" d="M220.43,435a2.69,2.69,0,0,1,2.32,1.48,8.16,8.16,0,0,1,0,7.53,2.69,2.69,0,0,1-4.77,0,8.31,8.31,0,0,1,0-7.58A2.79,2.79,0,0,1,220.43,435Zm0,1.39h-.07a1.51,1.51,0,0,0-1.34,1,6.62,6.62,0,0,0-.49,2.81,6.91,6.91,0,0,0,.48,2.85,1.38,1.38,0,0,0,2.67,0,6.58,6.58,0,0,0,.5-2.81,6.93,6.93,0,0,0-.48-2.83C221.4,436.71,221,436.35,220.44,436.35Z"/><path class="cls-12" d="M227.15,435.09h1.46v10.24h-1.46Z"/><path class="cls-12" d="M236.94,435h.6v5.75h1.15V442h-1.15v3.38h-1.43V442h-4.32v-.63Zm-.83,5.75v-3l-2.36,3Z"/><path class="cls-12" d="M261.74,443.91h3.9v1.42h-6.48v-.11l.62-.72c1-1.19,1.73-2.2,2.3-3a11.59,11.59,0,0,0,1.11-1.89,3.34,3.34,0,0,0,.26-1.26,1.93,1.93,0,0,0-.49-1.38,1.71,1.71,0,0,0-1.31-.53,2.25,2.25,0,0,0-1.21.37,3.67,3.67,0,0,0-1.07,1v-1.86a3.88,3.88,0,0,1,2.46-1,3,3,0,0,1,2.21.9,3.11,3.11,0,0,1,.87,2.27,4.23,4.23,0,0,1-.22,1.31,7.33,7.33,0,0,1-.76,1.61,22,22,0,0,1-1.87,2.49Z"/><path class="cls-12" d="M270,435a2.7,2.7,0,0,1,2.33,1.48,8.24,8.24,0,0,1,0,7.53,2.7,2.7,0,0,1-4.78,0,8.31,8.31,0,0,1,0-7.58A2.79,2.79,0,0,1,270,435Zm0,1.39h-.08a1.5,1.5,0,0,0-1.33,1,6.61,6.61,0,0,0-.5,2.81,6.91,6.91,0,0,0,.48,2.85,1.39,1.39,0,0,0,2.68,0,6.75,6.75,0,0,0,.49-2.81,7.12,7.12,0,0,0-.47-2.83C270.93,436.71,270.51,436.35,270,436.35Z"/><path class="cls-12" d="M276.68,435.09h1.47v10.24h-1.47Z"/><path class="cls-12" d="M282.67,435.09h4.54v1.31H284V439h.32a3.42,3.42,0,0,1,2.44.9,3.31,3.31,0,0,1,0,4.65,3.38,3.38,0,0,1-2.45.91,5.25,5.25,0,0,1-2.42-.6v-1.51a4,4,0,0,0,2.16.72,2.29,2.29,0,0,0,1.55-.54,1.68,1.68,0,0,0,.63-1.32,1.65,1.65,0,0,0-.69-1.36,2.58,2.58,0,0,0-1.69-.55,3.13,3.13,0,0,0-1.19.15Z"/><path class="cls-12" d="M309.28,443.91h3.89v1.42H306.7v-.11l.61-.72c1-1.19,1.73-2.2,2.3-3a10.88,10.88,0,0,0,1.11-1.89,3.16,3.16,0,0,0,.26-1.26,1.93,1.93,0,0,0-.49-1.38,1.69,1.69,0,0,0-1.3-.53,2.22,2.22,0,0,0-1.21.37,3.7,3.7,0,0,0-1.08,1v-1.86a3.88,3.88,0,0,1,2.46-1,2.93,2.93,0,0,1,2.21.9,3.11,3.11,0,0,1,.87,2.27,4.23,4.23,0,0,1-.22,1.31,6.9,6.9,0,0,1-.76,1.61,22,22,0,0,1-1.87,2.49Z"/><path class="cls-12" d="M317.49,435a2.69,2.69,0,0,1,2.33,1.48,8.16,8.16,0,0,1,0,7.53,2.69,2.69,0,0,1-4.77,0,8.31,8.31,0,0,1,0-7.58A2.78,2.78,0,0,1,317.49,435Zm0,1.39h-.07a1.5,1.5,0,0,0-1.34,1,6.62,6.62,0,0,0-.49,2.81,6.91,6.91,0,0,0,.48,2.85,1.38,1.38,0,0,0,2.67,0,6.59,6.59,0,0,0,.49-2.81,7,7,0,0,0-.47-2.83C318.46,436.71,318,436.35,317.51,436.35Z"/><path class="cls-12" d="M324.22,435.09h1.46v10.24h-1.46Z"/><path class="cls-12" d="M333.29,435.06l.15-.1.89,1.12a8.71,8.71,0,0,0-1.95,1.65,6.27,6.27,0,0,0-1.19,2.1,3.48,3.48,0,0,1,1.62-.41,2.75,2.75,0,0,1,2,.85,3.09,3.09,0,0,1-.08,4.28,3,3,0,0,1-2.19.89,2.93,2.93,0,0,1-2.33-1,3.9,3.9,0,0,1-.89-2.66,6.85,6.85,0,0,1,.46-2.45,8,8,0,0,1,1.32-2.28A10.58,10.58,0,0,1,333.29,435.06Zm-2.41,6.29a4.54,4.54,0,0,0-.06.77,2,2,0,0,0,.5,1.42,1.64,1.64,0,0,0,1.28.56,1.56,1.56,0,0,0,1.17-.48,1.69,1.69,0,0,0,.45-1.2,1.6,1.6,0,0,0-.48-1.2,1.85,1.85,0,0,0-1.29-.46,2,2,0,0,0-.74.13A4,4,0,0,0,330.88,441.35Z"/><path class="cls-12" d="M358.61,443.91h3.89v1.42H356v-.11l.61-.72c1-1.19,1.73-2.2,2.3-3a10.88,10.88,0,0,0,1.11-1.89,3.16,3.16,0,0,0,.26-1.26,1.93,1.93,0,0,0-.49-1.38,1.69,1.69,0,0,0-1.3-.53,2.22,2.22,0,0,0-1.21.37,3.7,3.7,0,0,0-1.08,1v-1.86a3.89,3.89,0,0,1,2.47-1,2.92,2.92,0,0,1,2.2.9,3.11,3.11,0,0,1,.87,2.27,4.23,4.23,0,0,1-.22,1.31,6.9,6.9,0,0,1-.76,1.61,22,22,0,0,1-1.87,2.49Z"/><path class="cls-12" d="M366.82,435a2.69,2.69,0,0,1,2.33,1.48,8.16,8.16,0,0,1,0,7.53,2.69,2.69,0,0,1-4.77,0,8.31,8.31,0,0,1,0-7.58A2.78,2.78,0,0,1,366.82,435Zm0,1.39h-.07a1.5,1.5,0,0,0-1.34,1,6.62,6.62,0,0,0-.49,2.81,6.91,6.91,0,0,0,.48,2.85,1.38,1.38,0,0,0,2.67,0,6.59,6.59,0,0,0,.49-2.81,7,7,0,0,0-.47-2.83C367.79,436.71,367.37,436.35,366.84,436.35Z"/><path class="cls-12" d="M373.55,435.09H375v10.24h-1.46Z"/><path class="cls-12" d="M378.75,435.09h6.62l-4.63,10.36-1.31-.56,3.74-8.4h-4.42Z"/><path class="cls-12" d="M407.24,443.91h3.89v1.42h-6.47v-.11l.62-.72c1-1.19,1.72-2.2,2.29-3a10.88,10.88,0,0,0,1.11-1.89,3.16,3.16,0,0,0,.26-1.26,1.93,1.93,0,0,0-.49-1.38,1.69,1.69,0,0,0-1.3-.53,2.25,2.25,0,0,0-1.21.37,3.7,3.7,0,0,0-1.08,1v-1.86a3.89,3.89,0,0,1,2.47-1,2.92,2.92,0,0,1,2.2.9,3.11,3.11,0,0,1,.87,2.27,4.52,4.52,0,0,1-.21,1.31,7.42,7.42,0,0,1-.77,1.61,22,22,0,0,1-1.87,2.49Z"/><path class="cls-12" d="M415.45,435a2.69,2.69,0,0,1,2.33,1.48,8.16,8.16,0,0,1,0,7.53,2.69,2.69,0,0,1-4.77,0,8.31,8.31,0,0,1,0-7.58A2.78,2.78,0,0,1,415.45,435Zm0,1.39h-.07a1.51,1.51,0,0,0-1.34,1,6.62,6.62,0,0,0-.49,2.81,6.91,6.91,0,0,0,.48,2.85,1.38,1.38,0,0,0,2.67,0,6.59,6.59,0,0,0,.49-2.81,7,7,0,0,0-.47-2.83C416.43,436.71,416,436.35,415.47,436.35Z"/><path class="cls-12" d="M422.18,435.09h1.46v10.24h-1.46Z"/><path class="cls-12" d="M427.36,437.84a2.66,2.66,0,0,1,.91-2,3.1,3.1,0,0,1,2.2-.84,3,3,0,0,1,2.16.83,2.72,2.72,0,0,1,.89,2,2.67,2.67,0,0,1-1.28,2.26,2.63,2.63,0,0,1,1.42,2.42,2.7,2.7,0,0,1-.92,2.1,3.7,3.7,0,0,1-4.67,0,2.74,2.74,0,0,1-.94-2.1,2.63,2.63,0,0,1,1.45-2.4,3.51,3.51,0,0,1-.93-1.05A2.49,2.49,0,0,1,427.36,437.84Zm4.82,4.74v-.15a1.43,1.43,0,0,0-.5-1.14,1.87,1.87,0,0,0-1.3-.45,1.84,1.84,0,0,0-1.28.45,1.61,1.61,0,0,0,0,2.32,2,2,0,0,0,1.32.44,1.87,1.87,0,0,0,1.26-.41A1.31,1.31,0,0,0,432.18,442.58Zm-.12-4.7a1.41,1.41,0,0,0-.46-1.09,1.61,1.61,0,0,0-1.16-.44,1.64,1.64,0,0,0-1.16.43,1.41,1.41,0,0,0-.46,1.09,1.43,1.43,0,0,0,.48,1.09,1.64,1.64,0,0,0,1.15.46,1.58,1.58,0,0,0,1.14-.45A1.48,1.48,0,0,0,432.06,437.88Z"/><path class="cls-12" d="M453.77,443.91h3.9v1.42h-6.48v-.11l.62-.72c1-1.19,1.72-2.2,2.29-3a11.83,11.83,0,0,0,1.12-1.89,3.34,3.34,0,0,0,.26-1.26,2,2,0,0,0-.49-1.38,1.71,1.71,0,0,0-1.31-.53,2.25,2.25,0,0,0-1.21.37,3.67,3.67,0,0,0-1.07,1v-1.86a3.84,3.84,0,0,1,2.46-1,3,3,0,0,1,2.21.9,3.11,3.11,0,0,1,.87,2.27,4.55,4.55,0,0,1-.22,1.31,7,7,0,0,1-.77,1.61,20.5,20.5,0,0,1-1.86,2.49Z"/><path class="cls-12" d="M462,435a2.67,2.67,0,0,1,2.32,1.48,8.16,8.16,0,0,1,0,7.53,2.69,2.69,0,0,1-4.77,0,8.31,8.31,0,0,1,0-7.58A2.79,2.79,0,0,1,462,435Zm0,1.39h-.07a1.51,1.51,0,0,0-1.34,1,6.62,6.62,0,0,0-.49,2.81,6.91,6.91,0,0,0,.48,2.85,1.48,1.48,0,0,0,1.34,1,1.5,1.5,0,0,0,1.34-1,6.75,6.75,0,0,0,.49-2.81,6.93,6.93,0,0,0-.48-2.83C463,436.71,462.54,436.35,462,436.35Z"/><path class="cls-12" d="M468.71,435.09h1.47v10.24h-1.47Z"/><path class="cls-12" d="M476,445.44l-.91-1.06a8.5,8.5,0,0,0,2-1.74,5.42,5.42,0,0,0,1.13-2.1,3,3,0,0,1-1.63.44,2.67,2.67,0,0,1-2-.88,3,3,0,0,1,.06-4.25,3.16,3.16,0,0,1,4.55.16,3.89,3.89,0,0,1,.92,2.69,7.2,7.2,0,0,1-1.15,3.76A8.68,8.68,0,0,1,476,445.44Zm2.5-6.35a6.6,6.6,0,0,0,.09-.77,2.13,2.13,0,0,0-.5-1.45,1.62,1.62,0,0,0-1.27-.56,1.56,1.56,0,0,0-1.17.48,1.66,1.66,0,0,0-.47,1.2,1.52,1.52,0,0,0,.51,1.15,1.67,1.67,0,0,0,1.21.49A2.8,2.8,0,0,0,478.49,439.09Z"/><path class="cls-12" d="M502.31,443.91h3.89v1.42h-6.47v-.11l.61-.72c1-1.19,1.73-2.2,2.3-3a10.88,10.88,0,0,0,1.11-1.89,3.34,3.34,0,0,0,.26-1.26,1.93,1.93,0,0,0-.49-1.38,1.7,1.7,0,0,0-1.3-.53,2.22,2.22,0,0,0-1.21.37,3.7,3.7,0,0,0-1.08,1v-1.86a3.88,3.88,0,0,1,2.46-1,2.93,2.93,0,0,1,2.21.9,3.11,3.11,0,0,1,.87,2.27,4.23,4.23,0,0,1-.22,1.31,7.33,7.33,0,0,1-.76,1.61,22,22,0,0,1-1.87,2.49Z"/><path class="cls-12" d="M510.52,435a2.69,2.69,0,0,1,2.33,1.48,8.16,8.16,0,0,1,0,7.53,2.75,2.75,0,0,1-2.39,1.46,2.72,2.72,0,0,1-2.38-1.43,8.31,8.31,0,0,1,0-7.58A2.78,2.78,0,0,1,510.52,435Zm0,1.39h-.08a1.5,1.5,0,0,0-1.33,1,6.61,6.61,0,0,0-.5,2.81,6.73,6.73,0,0,0,.49,2.85,1.47,1.47,0,0,0,1.33,1,1.49,1.49,0,0,0,1.34-1,6.59,6.59,0,0,0,.49-2.81,7.12,7.12,0,0,0-.47-2.83C511.49,436.71,511.07,436.35,510.54,436.35Z"/><path class="cls-12" d="M517.31,443.91h3.89v1.42h-6.47v-.11l.61-.72c1-1.19,1.73-2.2,2.3-3a10.88,10.88,0,0,0,1.11-1.89,3.34,3.34,0,0,0,.26-1.26,1.93,1.93,0,0,0-.49-1.38,1.7,1.7,0,0,0-1.3-.53,2.22,2.22,0,0,0-1.21.37,3.7,3.7,0,0,0-1.08,1v-1.86a3.88,3.88,0,0,1,2.46-1,2.93,2.93,0,0,1,2.21.9,3.11,3.11,0,0,1,.87,2.27,4.23,4.23,0,0,1-.22,1.31,7.33,7.33,0,0,1-.76,1.61,22,22,0,0,1-1.87,2.49Z"/><path class="cls-12" d="M525.52,435a2.69,2.69,0,0,1,2.33,1.48,8.16,8.16,0,0,1,0,7.53,2.75,2.75,0,0,1-2.39,1.46,2.72,2.72,0,0,1-2.38-1.43,8.31,8.31,0,0,1,0-7.58A2.78,2.78,0,0,1,525.52,435Zm0,1.39h-.08a1.5,1.5,0,0,0-1.33,1,6.61,6.61,0,0,0-.5,2.81,6.73,6.73,0,0,0,.49,2.85,1.47,1.47,0,0,0,1.33,1,1.49,1.49,0,0,0,1.34-1,6.59,6.59,0,0,0,.49-2.81,7.12,7.12,0,0,0-.47-2.83C526.49,436.71,526.07,436.35,525.54,436.35Z"/><path class="cls-12" d="M552.64,443.91h3.89v1.42h-6.47v-.11l.61-.72c1-1.19,1.73-2.2,2.3-3a11.28,11.28,0,0,0,1.11-1.88,3.42,3.42,0,0,0,.26-1.26,1.94,1.94,0,0,0-.49-1.39,1.7,1.7,0,0,0-1.3-.53,2.22,2.22,0,0,0-1.21.37,3.7,3.7,0,0,0-1.08,1v-1.86a3.88,3.88,0,0,1,2.46-1,2.93,2.93,0,0,1,2.21.9,3.11,3.11,0,0,1,.87,2.27,4.23,4.23,0,0,1-.22,1.31,7.33,7.33,0,0,1-.76,1.61,22,22,0,0,1-1.87,2.49Z"/><path class="cls-12" d="M560.85,435a2.71,2.71,0,0,1,2.33,1.48,8.16,8.16,0,0,1,0,7.53,2.75,2.75,0,0,1-2.39,1.46,2.72,2.72,0,0,1-2.38-1.43,7,7,0,0,1-.9-3.78,6.93,6.93,0,0,1,.93-3.79A2.77,2.77,0,0,1,560.85,435Zm0,1.39h-.08a1.5,1.5,0,0,0-1.33,1,6.61,6.61,0,0,0-.5,2.81,6.73,6.73,0,0,0,.49,2.85,1.47,1.47,0,0,0,1.33,1,1.49,1.49,0,0,0,1.34-1,6.59,6.59,0,0,0,.49-2.81,7.12,7.12,0,0,0-.47-2.83C561.82,436.71,561.4,436.35,560.87,436.35Z"/><path class="cls-12" d="M567.64,443.91h3.89v1.42h-6.47v-.11l.61-.72c1-1.19,1.73-2.2,2.3-3a11.28,11.28,0,0,0,1.11-1.88,3.42,3.42,0,0,0,.26-1.26,1.94,1.94,0,0,0-.49-1.39,1.7,1.7,0,0,0-1.3-.53,2.22,2.22,0,0,0-1.21.37,3.7,3.7,0,0,0-1.08,1v-1.86a3.88,3.88,0,0,1,2.46-1,2.93,2.93,0,0,1,2.21.9,3.11,3.11,0,0,1,.87,2.27,4.23,4.23,0,0,1-.22,1.31,7.33,7.33,0,0,1-.76,1.61,22,22,0,0,1-1.87,2.49Z"/><path class="cls-12" d="M575.08,435.09h1.46v10.24h-1.46Z"/><line class="cls-13" x1="80.33" y1="408.34" x2="80.33" y2="364.95"/><circle class="cls-13" cx="80.33" cy="350.77" r="14.18"/><path class="cls-2" d="M79.76,346.2h1.46v10.23H79.76Z"/><line class="cls-13" x1="128.15" y1="386.66" x2="128.15" y2="343.27"/><circle class="cls-13" cx="128.15" cy="329.09" r="14.18"/><path class="cls-2" d="M126.06,323.52h4.54v1.31h-3.21v2.58h.32a3.42,3.42,0,0,1,2.44.9,3,3,0,0,1,1,2.3,3.06,3.06,0,0,1-1,2.35,3.42,3.42,0,0,1-2.45.91,5.25,5.25,0,0,1-2.42-.6v-1.51a4,4,0,0,0,2.16.72,2.29,2.29,0,0,0,1.55-.54,1.7,1.7,0,0,0-.05-2.68,2.63,2.63,0,0,0-1.7-.55,3.13,3.13,0,0,0-1.19.15Z"/><line class="cls-13" x1="175.86" y1="318.96" x2="175.86" y2="275.57"/><circle class="cls-13" cx="175.86" cy="261.39" r="14.18"/><path class="cls-2" d="M171.24,255.82h1.46v10.23h-1.46Z"/><path class="cls-2" d="M176.44,255.82h6.62l-4.63,10.35-1.31-.55,3.74-8.4h-4.42Z"/><line class="cls-13" x1="224.47" y1="274" x2="224.47" y2="230.61"/><circle class="cls-13" cx="224.47" cy="216.43" r="14.18"/><path class="cls-2" d="M220,219.68h3.9v1.41h-6.48V221l.62-.73c1-1.19,1.72-2.2,2.29-3a12.32,12.32,0,0,0,1.12-1.88,3.42,3.42,0,0,0,.26-1.26,2,2,0,0,0-.49-1.39,1.72,1.72,0,0,0-1.31-.52,2.32,2.32,0,0,0-1.21.36,3.56,3.56,0,0,0-1.07,1V211.7a3.83,3.83,0,0,1,2.46-1,2.94,2.94,0,0,1,2.21.89,3.16,3.16,0,0,1,.86,2.27,4.52,4.52,0,0,1-.21,1.31,7.7,7.7,0,0,1-.77,1.62,22.64,22.64,0,0,1-1.86,2.48Z"/><path class="cls-2" d="M225.87,210.86h4.55v1.3h-3.21v2.59l.31,0a3.41,3.41,0,0,1,2.45.91,3,3,0,0,1,1,2.3,3.13,3.13,0,0,1-1,2.35,3.42,3.42,0,0,1-2.46.9,5.21,5.21,0,0,1-2.41-.6v-1.51a3.92,3.92,0,0,0,2.16.72,2.31,2.31,0,0,0,1.55-.54,1.71,1.71,0,0,0-.06-2.68,2.64,2.64,0,0,0-1.7-.54,3.26,3.26,0,0,0-1.19.14Z"/><line class="cls-13" x1="272.36" y1="184.21" x2="272.36" y2="140.82"/><circle class="cls-13" cx="272.36" cy="126.64" r="14.18"/><path class="cls-2" d="M270.07,120.94h.61v5.74h1.14v1.24h-1.14v3.38h-1.43v-3.38h-4.33v-.62Zm-.82,5.74v-3l-2.37,3Z"/><path class="cls-2" d="M275.28,121.07h1.47V131.3h-1.47Z"/><line class="cls-13" x1="320.61" y1="325.47" x2="320.61" y2="282.08"/><circle class="cls-13" cx="320.61" cy="267.9" r="14.18"/><path class="cls-2" d="M315,262.33h1.46v10.23H315Z"/><path class="cls-2" d="M324.1,262.3l.15-.1.89,1.11a9.52,9.52,0,0,0-1.95,1.65,6.5,6.5,0,0,0-1.19,2.11,3.49,3.49,0,0,1,1.62-.42,2.73,2.73,0,0,1,2,.86,2.9,2.9,0,0,1,.82,2.1,3,3,0,0,1-.9,2.18,3,3,0,0,1-2.19.89,2.94,2.94,0,0,1-2.33-1,3.88,3.88,0,0,1-.89-2.65,6.81,6.81,0,0,1,.46-2.45,8,8,0,0,1,1.32-2.29A10.55,10.55,0,0,1,324.1,262.3Zm-2.41,6.29a4.34,4.34,0,0,0-.06.76,2.05,2.05,0,0,0,.5,1.42,1.62,1.62,0,0,0,1.29.56,1.55,1.55,0,0,0,1.16-.48,1.65,1.65,0,0,0,.45-1.2,1.56,1.56,0,0,0-.48-1.19,1.8,1.8,0,0,0-1.29-.46,2.17,2.17,0,0,0-.74.12A4.42,4.42,0,0,0,321.69,268.59Z"/><line class="cls-13" x1="369.03" y1="336.43" x2="369.03" y2="293.04"/><circle class="cls-13" cx="369.03" cy="278.86" r="14.18"/><path class="cls-2" d="M363.45,273.29h1.47v10.23h-1.47Z"/><path class="cls-2" d="M373.25,273.16h.6v5.74H375v1.24h-1.14v3.38h-1.43v-3.38h-4.33v-.63Zm-.83,5.74v-3l-2.37,3Z"/><line class="cls-13" x1="417.07" y1="285.42" x2="417.07" y2="242.03"/><circle class="cls-13" cx="417.07" cy="227.84" r="14.18"/><path class="cls-2" d="M412.55,231.09h3.9v1.42H410v-.11l.61-.72c1-1.19,1.73-2.2,2.3-3a11.59,11.59,0,0,0,1.11-1.89,3.33,3.33,0,0,0,.26-1.25,1.94,1.94,0,0,0-.49-1.39,1.7,1.7,0,0,0-1.3-.53,2.28,2.28,0,0,0-1.22.37,3.8,3.8,0,0,0-1.07,1v-1.86a3.88,3.88,0,0,1,2.46-1,3,3,0,0,1,2.21.9,3.11,3.11,0,0,1,.87,2.27,4.23,4.23,0,0,1-.22,1.31,7.33,7.33,0,0,1-.76,1.61,22,22,0,0,1-1.87,2.49Z"/><path class="cls-2" d="M419.67,226.55h.08a2.33,2.33,0,0,0,1.46-.39,1.38,1.38,0,0,0,.51-1.15,1.41,1.41,0,0,0-.49-1.11,1.9,1.9,0,0,0-1.28-.42,4,4,0,0,0-1.77.49v-1.39a4.24,4.24,0,0,1,1.95-.45,3.23,3.23,0,0,1,2.23.74,2.59,2.59,0,0,1,.81,2,2.48,2.48,0,0,1-.31,1.3,2.64,2.64,0,0,1-1,.92,1.94,1.94,0,0,1,.87.57,2.52,2.52,0,0,1,.44.83,3.4,3.4,0,0,1,.15,1,3,3,0,0,1-.89,2.22,3.12,3.12,0,0,1-2.26.87,4.75,4.75,0,0,1-2.25-.56v-1.6a4.18,4.18,0,0,0,2.25.73,1.65,1.65,0,0,0,1.19-.44,1.54,1.54,0,0,0,.45-1.16,1.64,1.64,0,0,0-.37-1.07,1.41,1.41,0,0,0-.49-.37,4.31,4.31,0,0,0-1.15-.23l-.13,0Z"/><line class="cls-13" x1="465.11" y1="263.04" x2="465.11" y2="219.65"/><circle class="cls-13" cx="465.11" cy="205.47" r="14.18"/><path class="cls-2" d="M460.6,208.72h3.89v1.41H458V210l.61-.73c1-1.19,1.73-2.2,2.3-3a11.28,11.28,0,0,0,1.11-1.88,3.42,3.42,0,0,0,.26-1.26,1.94,1.94,0,0,0-.49-1.39,1.7,1.7,0,0,0-1.3-.52,2.36,2.36,0,0,0-1.22.36,3.8,3.8,0,0,0-1.07,1v-1.86a3.87,3.87,0,0,1,2.46-1,2.92,2.92,0,0,1,2.21.89,3.12,3.12,0,0,1,.87,2.27,4.23,4.23,0,0,1-.22,1.31,7.6,7.6,0,0,1-.76,1.62,23,23,0,0,1-1.87,2.48Z"/><path class="cls-2" d="M465.74,199.9h6.62l-4.63,10.35-1.31-.55,3.74-8.4h-4.42Z"/><line class="cls-13" x1="513.92" y1="325.47" x2="513.92" y2="282.08"/><circle class="cls-13" cx="513.92" cy="267.9" r="14.18"/><path class="cls-2" d="M509.34,262.33h1.47v10.23h-1.47Z"/><path class="cls-2" d="M518.42,262.3l.14-.1.89,1.11a9.19,9.19,0,0,0-1.94,1.65,6.15,6.15,0,0,0-1.19,2.11,3.48,3.48,0,0,1,1.61-.42,2.73,2.73,0,0,1,2,.86,2.91,2.91,0,0,1,.83,2.1,3,3,0,0,1-.9,2.18,3,3,0,0,1-2.19.89,3,3,0,0,1-2.34-1,3.88,3.88,0,0,1-.89-2.65,7,7,0,0,1,.46-2.45,8.51,8.51,0,0,1,1.32-2.29A10.36,10.36,0,0,1,518.42,262.3ZM516,268.59a4.34,4.34,0,0,0-.06.76,2.05,2.05,0,0,0,.5,1.42,1.65,1.65,0,0,0,1.29.56,1.54,1.54,0,0,0,1.16-.48,1.62,1.62,0,0,0,.46-1.2,1.53,1.53,0,0,0-.49-1.19,1.79,1.79,0,0,0-1.29-.46,2.17,2.17,0,0,0-.74.12A4.42,4.42,0,0,0,516,268.59Z"/><line class="cls-13" x1="561.7" y1="369.87" x2="561.7" y2="326.48"/><circle class="cls-13" cx="561.7" cy="312.3" r="14.18"/><path class="cls-2" d="M559.09,309.47a2.69,2.69,0,0,1,.9-2,3.12,3.12,0,0,1,2.21-.84,3,3,0,0,1,2.16.84,2.72,2.72,0,0,1-.39,4.3,2.64,2.64,0,0,1,1.42,2.42,2.71,2.71,0,0,1-.92,2.1,3.67,3.67,0,0,1-4.67,0,2.7,2.7,0,0,1-.94-2.09,2.65,2.65,0,0,1,1.45-2.41,3.56,3.56,0,0,1-.94-1.05A2.6,2.6,0,0,1,559.09,309.47Zm4.82,4.74v-.14a1.47,1.47,0,0,0-.5-1.15,2.11,2.11,0,0,0-2.58,0,1.5,1.5,0,0,0-.49,1.16,1.47,1.47,0,0,0,.5,1.16,2.17,2.17,0,0,0,2.58,0A1.3,1.3,0,0,0,563.91,314.21Zm-.12-4.69a1.46,1.46,0,0,0-.46-1.1,1.62,1.62,0,0,0-1.16-.43,1.66,1.66,0,0,0-1.17.42,1.51,1.51,0,0,0,0,2.18,1.67,1.67,0,0,0,2.29,0A1.45,1.45,0,0,0,563.79,309.52Z"/><line class="cls-14" x1="43.48" y1="427.32" x2="616.55" y2="427.32"/><rect class="cls-1" width="660.04" height="519" rx="5"/><path class="cls-2" d="M0,5H0A5,5,0,0,1,5,0H655a5,5,0,0,1,5,5H0Z"/><rect class="cls-3" x="80.78" y="413.34" width="17.11" height="5.92"/><path class="cls-4" d="M44.27,66.15h1.64V78.43H44.15V68.88l-3.78,4.74h-.32l-3.82-4.74v9.55H34.47V66.15h1.66l4.08,5Z"/><path class="cls-4" d="M53.38,78.43v-1a3.72,3.72,0,0,1-1.16.87,3,3,0,0,1-1.31.31,2.76,2.76,0,0,1-1.41-.38,2.52,2.52,0,0,1-1-1A5.35,5.35,0,0,1,48.2,75V70.34h1.59V75a3.21,3.21,0,0,0,.37,1.78,1.47,1.47,0,0,0,1.28.51,2.35,2.35,0,0,0,1.94-1.12V70.34H55v8.09Z"/><path class="cls-4" d="M58.72,70.34v1a3.23,3.23,0,0,1,2.44-1.18,2.67,2.67,0,0,1,1.4.39,2.49,2.49,0,0,1,1,1.07,5,5,0,0,1,.34,2.16v4.62h-1.6v-4.6a3.2,3.2,0,0,0-.38-1.78,1.44,1.44,0,0,0-1.26-.53,2.31,2.31,0,0,0-1.93,1.14v5.77H57.09V70.34Z"/><path class="cls-4" d="M66.84,66.94a.93.93,0,0,1,.68.28.91.91,0,0,1,.28.66,1,1,0,0,1-.28.67.93.93,0,0,1-.68.28.88.88,0,0,1-.65-.28.91.91,0,0,1-.28-.67,1,1,0,0,1,.93-.94Zm-.79,3.4h1.6v8.09h-1.6Z"/><path class="cls-4" d="M75.92,76.54v1.58a6.75,6.75,0,0,1-2.36.45,3.88,3.88,0,0,1-4.16-4.14,4.29,4.29,0,0,1,1.1-3.07,3.8,3.8,0,0,1,2.9-1.17,4.87,4.87,0,0,1,1.12.12,6.16,6.16,0,0,1,1.22.44v1.7a4.3,4.3,0,0,0-2.25-.77,2.27,2.27,0,0,0-1.77.76,2.74,2.74,0,0,0-.7,1.94,2.62,2.62,0,0,0,.75,2,2.82,2.82,0,0,0,2,.73A5.29,5.29,0,0,0,75.92,76.54Z"/><path class="cls-4" d="M78.45,66.94a.91.91,0,0,1,.68.28.87.87,0,0,1,.28.66,1,1,0,0,1-1,1,.9.9,0,0,1-.65-.28,1,1,0,0,1-.28-.67.94.94,0,0,1,.28-.65A.91.91,0,0,1,78.45,66.94Zm-.79,3.4h1.6v8.09h-1.6Z"/><path class="cls-4" d="M81.36,82.55V70.34h2.8a4.82,4.82,0,0,1,3.35,1.08,3.79,3.79,0,0,1,1.2,3,4.13,4.13,0,0,1-1.13,3,3.81,3.81,0,0,1-2.87,1.17A4.94,4.94,0,0,1,83,78.23v4.32Zm2.77-10.71H83v5a3.22,3.22,0,0,0,1.54.38,2.39,2.39,0,0,0,1.84-.78,2.89,2.89,0,0,0,.71-2,2.77,2.77,0,0,0-.34-1.4,2,2,0,0,0-.92-.88A4,4,0,0,0,84.13,71.84Z"/><path class="cls-4" d="M91.19,66.94a.91.91,0,0,1,.67.28.87.87,0,0,1,.28.66.94.94,0,0,1-1.61.67,1,1,0,0,1-.28-.67.94.94,0,0,1,.28-.65A.91.91,0,0,1,91.19,66.94Zm-.8,3.4H92v8.09h-1.6Z"/><path class="cls-4" d="M98.06,70.33a4.19,4.19,0,0,1,3.07,1.19,4,4,0,0,1,1.22,3,3.8,3.8,0,0,1-1.24,2.91A4.37,4.37,0,0,1,98,78.57a4.24,4.24,0,0,1-3-1.17,4.14,4.14,0,0,1,0-5.89A4.27,4.27,0,0,1,98.06,70.33ZM98,71.77a2.53,2.53,0,0,0-1.89.75,2.63,2.63,0,0,0-.74,1.93,2.53,2.53,0,0,0,.75,1.89,2.7,2.7,0,0,0,2,.74,2.66,2.66,0,0,0,1.93-.74,2.77,2.77,0,0,0,0-3.82A2.75,2.75,0,0,0,98,71.77Z"/><path class="cls-4" d="M103.63,77.85V76.13a7.89,7.89,0,0,0,1.38.77,3.34,3.34,0,0,0,1.19.29,1.52,1.52,0,0,0,.86-.24.71.71,0,0,0,.36-.59.82.82,0,0,0-.23-.59,5.64,5.64,0,0,0-1-.67,7,7,0,0,1-2-1.47,2.11,2.11,0,0,1-.48-1.33,1.87,1.87,0,0,1,.72-1.52,2.85,2.85,0,0,1,1.87-.59,5.24,5.24,0,0,1,2.44.66v1.59a4.82,4.82,0,0,0-2.33-.86,1.3,1.3,0,0,0-.75.19.61.61,0,0,0-.29.53.76.76,0,0,0,.26.53,4.17,4.17,0,0,0,.91.62l.57.32c1.35.77,2,1.61,2,2.53a2,2,0,0,1-.78,1.63,3,3,0,0,1-2,.64,5,5,0,0,1-1.28-.15A8,8,0,0,1,103.63,77.85Z"/><path class="cls-4" d="M119.55,70.34h3V82.55H121V78.29a6.94,6.94,0,0,1-1.77.28,3.81,3.81,0,0,1-2.85-1.16,4,4,0,0,1-1.13-2.94,4,4,0,0,1,1.17-3A4.39,4.39,0,0,1,119.55,70.34ZM121,76.9V71.84h-1a6.74,6.74,0,0,0-1.39.09,2.24,2.24,0,0,0-.61.26,1.92,1.92,0,0,0-.46.4,2.66,2.66,0,0,0-.66,1.84,2.84,2.84,0,0,0,.74,2,2.56,2.56,0,0,0,1.93.79,2.68,2.68,0,0,0,.45,0c.11,0,.37-.1.77-.23l.12,0Z"/><path class="cls-4" d="M129.77,78.43v-1a3.61,3.61,0,0,1-1.16.87,3,3,0,0,1-1.31.31,2.76,2.76,0,0,1-1.41-.38,2.49,2.49,0,0,1-1-1,5.15,5.15,0,0,1-.33-2.17V70.34h1.6V75a3.22,3.22,0,0,0,.36,1.78,1.48,1.48,0,0,0,1.28.51,2.35,2.35,0,0,0,1.94-1.12V70.34h1.6v8.09Z"/><path class="cls-4" d="M140.41,74.53h-5.69a2.61,2.61,0,0,0,.78,1.84,2.54,2.54,0,0,0,1.85.69,4.89,4.89,0,0,0,2.92-1v1.56a5.31,5.31,0,0,1-1.47.7,6.12,6.12,0,0,1-1.7.21,3.8,3.8,0,0,1-2.16-.55,4.06,4.06,0,0,1-1.32-1.49,4.46,4.46,0,0,1-.5-2.17,4.29,4.29,0,0,1,1-3,3.47,3.47,0,0,1,2.71-1.15,3.21,3.21,0,0,1,2.57,1.12,4.5,4.5,0,0,1,1,3Zm-5.66-1h4.07a2.24,2.24,0,0,0-.57-1.48,1.84,1.84,0,0,0-1.37-.51,2,2,0,0,0-1.41.51A2.62,2.62,0,0,0,134.75,73.57Z"/><path class="cls-4" d="M152,73.57V77c0,.27.1.41.28.41a1.89,1.89,0,0,0,.91-.43v1a4.91,4.91,0,0,1-.88.47,1.77,1.77,0,0,1-.69.13c-.68,0-1.09-.27-1.21-.81a3.46,3.46,0,0,1-2.17.79,2,2,0,0,1-1.42-3.32,3.85,3.85,0,0,1,1.56-1l2.05-.7v-.43A1.29,1.29,0,0,0,149,71.68,3.53,3.53,0,0,0,146.42,73V71.29a3.3,3.3,0,0,1,2.68-1.1,3.1,3.1,0,0,1,2.1.68,2.06,2.06,0,0,1,.48.59,2.09,2.09,0,0,1,.27.73A13.07,13.07,0,0,1,152,73.57Zm-1.57,3.26v-2.4l-1.07.41a3.69,3.69,0,0,0-1.16.66,1.18,1.18,0,0,0,0,1.64,1.15,1.15,0,0,0,.83.32A2,2,0,0,0,150.43,76.83Z"/><path class="cls-4" d="M160.56,76.54v1.58a6.69,6.69,0,0,1-2.35.45,4.09,4.09,0,0,1-3-1.12,4.05,4.05,0,0,1-1.13-3,4.25,4.25,0,0,1,1.1-3.07A3.77,3.77,0,0,1,158,70.19a4.81,4.81,0,0,1,1.12.12,6.44,6.44,0,0,1,1.23.44v1.7a4.3,4.3,0,0,0-2.25-.77,2.28,2.28,0,0,0-1.78.76,2.78,2.78,0,0,0-.69,1.94,2.62,2.62,0,0,0,.75,2,2.79,2.79,0,0,0,2,.73A5.26,5.26,0,0,0,160.56,76.54Z"/><path class="cls-4" d="M161.14,71.63l3-2.95v1.66h2.56v1.45h-2.56v3.95c0,.93.39,1.39,1.16,1.39a3.53,3.53,0,0,0,1.81-.57v1.49a4,4,0,0,1-2,.52,2.67,2.67,0,0,1-1.83-.64,1.88,1.88,0,0,1-.37-.43,2.25,2.25,0,0,1-.25-.64,6.76,6.76,0,0,1-.11-1.49V71.79h-1.4Z"/><path class="cls-4" d="M173.31,78.43v-1a3.65,3.65,0,0,1-1.17.87,3,3,0,0,1-1.3.31,2.76,2.76,0,0,1-1.41-.38,2.52,2.52,0,0,1-1-1,5.15,5.15,0,0,1-.33-2.17V70.34h1.6V75a3.12,3.12,0,0,0,.37,1.78,1.47,1.47,0,0,0,1.28.51,2.35,2.35,0,0,0,1.94-1.12V70.34h1.6v8.09Z"/><path class="cls-4" d="M182.13,73.57V77c0,.27.09.41.28.41a1.89,1.89,0,0,0,.91-.43v1a5.27,5.27,0,0,1-.88.47,1.8,1.8,0,0,1-.69.13c-.68,0-1.09-.27-1.21-.81a3.46,3.46,0,0,1-2.17.79A2,2,0,0,1,177,75.23a3.85,3.85,0,0,1,1.56-1l2.05-.7v-.43a1.29,1.29,0,0,0-1.46-1.46A3.53,3.53,0,0,0,176.55,73V71.29a3.29,3.29,0,0,1,2.68-1.1,3.14,3.14,0,0,1,2.1.68,2.24,2.24,0,0,1,.48.59,2.07,2.07,0,0,1,.26.73A10.17,10.17,0,0,1,182.13,73.57Zm-1.57,3.26v-2.4l-1.07.41a3.58,3.58,0,0,0-1.16.66,1.08,1.08,0,0,0-.34.82,1.11,1.11,0,0,0,.32.82,1.15,1.15,0,0,0,.83.32A2,2,0,0,0,180.56,76.83Z"/><path class="cls-4" d="M184.66,66.15h1.6V78.43h-1.6Z"/><path class="cls-4" d="M189.29,66.94a.93.93,0,0,1,.68.28.91.91,0,0,1,.28.66,1,1,0,0,1-.28.67.93.93,0,0,1-.68.28.88.88,0,0,1-.65-.28.91.91,0,0,1-.28-.67,1,1,0,0,1,.93-.94Zm-.79,3.4h1.6v8.09h-1.6Z"/><path class="cls-4" d="M191.54,70.34h6.91l-4.28,6.6h4.28v1.49h-7.08l4.25-6.59h-4.08Z"/><path class="cls-4" d="M204.78,73.57V77c0,.27.09.41.28.41A1.91,1.91,0,0,0,206,77v1a4.89,4.89,0,0,1-.87.47,1.8,1.8,0,0,1-.69.13c-.69,0-1.09-.27-1.21-.81a3.48,3.48,0,0,1-2.17.79,2,2,0,0,1-1.42-3.32,3.71,3.71,0,0,1,1.56-1l2-.7v-.43a1.29,1.29,0,0,0-1.45-1.46A3.5,3.5,0,0,0,199.2,73V71.29a3.29,3.29,0,0,1,2.68-1.1,3.14,3.14,0,0,1,2.1.68,2.22,2.22,0,0,1,.47.59,2.09,2.09,0,0,1,.27.73A10.17,10.17,0,0,1,204.78,73.57Zm-1.58,3.26v-2.4l-1.07.41a3.62,3.62,0,0,0-1.15.66,1.18,1.18,0,0,0,0,1.64,1.13,1.13,0,0,0,.83.32A2,2,0,0,0,203.2,76.83Z"/><path class="cls-4" d="M209,70.34V72.2l.08-.14c.78-1.25,1.55-1.87,2.32-1.87a2.83,2.83,0,0,1,1.89.91l-.84,1.41a2.36,2.36,0,0,0-1.55-.79,1.66,1.66,0,0,0-1.34.73A2.86,2.86,0,0,0,209,74.2v4.23h-1.61V70.34Z"/><path class="cls-4" d="M217.71,70.33a4.21,4.21,0,0,1,3.07,1.19,4,4,0,0,1,1.22,3,3.8,3.8,0,0,1-1.24,2.91,4.41,4.41,0,0,1-3.12,1.15,4.22,4.22,0,0,1-3-1.17,3.87,3.87,0,0,1-1.22-2.93,3.93,3.93,0,0,1,1.23-3A4.31,4.31,0,0,1,217.71,70.33Zm-.09,1.44a2.56,2.56,0,0,0-1.89.75,2.67,2.67,0,0,0-.74,1.93,2.54,2.54,0,0,0,.76,1.89,2.9,2.9,0,0,0,3.87,0,2.77,2.77,0,0,0,0-3.82A2.73,2.73,0,0,0,217.62,71.77Z"/><path class="cls-4" d="M225.27,70.34v1a3.19,3.19,0,0,1,2.43-1.18,2.7,2.7,0,0,1,1.41.39,2.62,2.62,0,0,1,1,1.07,5.19,5.19,0,0,1,.34,2.16v4.62h-1.6v-4.6a3.2,3.2,0,0,0-.38-1.78,1.46,1.46,0,0,0-1.27-.53,2.29,2.29,0,0,0-1.92,1.14v5.77h-1.64V70.34Z"/><path class="cls-4" d="M237.06,77.85V76.13a7.89,7.89,0,0,0,1.38.77,3.34,3.34,0,0,0,1.19.29,1.5,1.5,0,0,0,.86-.24.71.71,0,0,0,.36-.59.78.78,0,0,0-.23-.59,5.64,5.64,0,0,0-1-.67,7,7,0,0,1-2-1.47,2.11,2.11,0,0,1-.48-1.33,1.87,1.87,0,0,1,.72-1.52,2.85,2.85,0,0,1,1.87-.59,5.24,5.24,0,0,1,2.44.66v1.59a4.82,4.82,0,0,0-2.33-.86,1.3,1.3,0,0,0-.75.19.61.61,0,0,0-.29.53.76.76,0,0,0,.26.53,4.17,4.17,0,0,0,.91.62l.57.32c1.35.77,2,1.61,2,2.53a2,2,0,0,1-.78,1.63,3,3,0,0,1-2,.64,5,5,0,0,1-1.28-.15A8,8,0,0,1,237.06,77.85Z"/><path class="cls-4" d="M249.42,78.43v-1a3.72,3.72,0,0,1-1.16.87,3,3,0,0,1-1.31.31,2.76,2.76,0,0,1-1.41-.38,2.52,2.52,0,0,1-1-1,5.35,5.35,0,0,1-.32-2.17V70.34h1.59V75a3.21,3.21,0,0,0,.37,1.78,1.47,1.47,0,0,0,1.28.51,2.35,2.35,0,0,0,1.94-1.12V70.34H251v8.09Z"/><path class="cls-4" d="M258,82.55V70.34h2.8a4.84,4.84,0,0,1,3.35,1.08,3.79,3.79,0,0,1,1.2,3,4.13,4.13,0,0,1-1.13,3,3.81,3.81,0,0,1-2.87,1.17,5,5,0,0,1-1.72-.34v4.32Zm2.77-10.71h-1.14v5a3.29,3.29,0,0,0,1.55.38,2.39,2.39,0,0,0,1.84-.78,2.89,2.89,0,0,0,.71-2,2.77,2.77,0,0,0-.34-1.4,2,2,0,0,0-.92-.88A4,4,0,0,0,260.72,71.84Z"/><path class="cls-4" d="M270.81,70.33a4.19,4.19,0,0,1,3.07,1.19,4,4,0,0,1,1.22,3,3.8,3.8,0,0,1-1.24,2.91,4.37,4.37,0,0,1-3.12,1.15,4.24,4.24,0,0,1-3-1.17,4.14,4.14,0,0,1,0-5.89A4.27,4.27,0,0,1,270.81,70.33Zm-.08,1.44a2.53,2.53,0,0,0-1.89.75,2.63,2.63,0,0,0-.74,1.93,2.53,2.53,0,0,0,.75,1.89,2.7,2.7,0,0,0,1.95.74,2.66,2.66,0,0,0,1.93-.74,2.77,2.77,0,0,0,0-3.82A2.75,2.75,0,0,0,270.73,71.77Z"/><path class="cls-4" d="M275.64,71.63l3-2.95v1.66h2.56v1.45h-2.56v3.95c0,.93.39,1.39,1.15,1.39a3.57,3.57,0,0,0,1.82-.57v1.49a4,4,0,0,1-2,.52,2.67,2.67,0,0,1-1.83-.64,1.92,1.92,0,0,1-.38-.43,2.59,2.59,0,0,1-.25-.64,7.71,7.71,0,0,1-.1-1.49V71.79h-1.4Z"/><path class="cls-4" d="M39.25,34.53a3.94,3.94,0,0,1,2.8,1,3.6,3.6,0,0,1,0,5.15,4.17,4.17,0,0,1-2.88,1H36.88v5.15H34.5V34.53Zm-.59,5.27a2.27,2.27,0,0,0,1.48-.43,1.55,1.55,0,0,0,.53-1.29c0-1.13-.72-1.69-2.18-1.69H36.88V39.8Z"/><path class="cls-4" d="M51.2,34.37a7.41,7.41,0,0,1,3.43.79,6,6,0,0,1,2.43,2.27A6.06,6.06,0,0,1,58,40.68a6.17,6.17,0,0,1-3.31,5.48,7.38,7.38,0,0,1-3.48.81,7.28,7.28,0,0,1-3.46-.83,6.07,6.07,0,0,1-3.3-5.46,6.19,6.19,0,0,1,.87-3.18,6.06,6.06,0,0,1,2.4-2.31A7.36,7.36,0,0,1,51.2,34.37Zm-4.33,6.31a4.34,4.34,0,0,0,.55,2.19A3.79,3.79,0,0,0,49,44.38a4.61,4.61,0,0,0,2.24.54,4.28,4.28,0,0,0,3.11-1.19,4.08,4.08,0,0,0,1.22-3A4.53,4.53,0,0,0,55,38.47,3.82,3.82,0,0,0,53.43,37a4.94,4.94,0,0,0-4.49,0,3.8,3.8,0,0,0-1.54,1.51A4.57,4.57,0,0,0,46.87,40.68Z"/><path class="cls-4" d="M69.55,34.53v1.86H65.19V46.81H62.82V36.39H58.46V34.53Z"/><path class="cls-4" d="M81.28,34.53,86.7,46.81H84.2l-1.28-3H77.46l-1.18,3H73.79l5.06-12.28ZM78.19,42h4l-2.08-4.86Z"/><path class="cls-4" d="M93.94,34.37a8.77,8.77,0,0,1,2,.24,10.38,10.38,0,0,1,2.16.81v2.23a10.06,10.06,0,0,0-2.09-.94,7.13,7.13,0,0,0-2-.29,5.14,5.14,0,0,0-2.37.54A4,4,0,0,0,90,38.49a4.44,4.44,0,0,0,0,4.39,4,4,0,0,0,1.63,1.51,5.3,5.3,0,0,0,2.38.53A6.54,6.54,0,0,0,96,44.63a13.33,13.33,0,0,0,2.31-1.05v2.24a10.71,10.71,0,0,1-2.2.88,8.93,8.93,0,0,1-2.33.27,7.55,7.55,0,0,1-3.48-.78A5.78,5.78,0,0,1,87.88,44,6.12,6.12,0,0,1,87,40.78a6.25,6.25,0,0,1,.9-3.33,6.07,6.07,0,0,1,2.48-2.28A7.76,7.76,0,0,1,93.94,34.37Z"/><path class="cls-4" d="M110.63,34.53v1.86h-4.36V46.81H103.9V36.39H99.54V34.53Z"/><path class="cls-4" d="M114.61,34.53v7.15a3.93,3.93,0,0,0,.33,1.75A2.62,2.62,0,0,0,116,44.5a3.5,3.5,0,0,0,1.74.42,3.86,3.86,0,0,0,1.85-.4,2.57,2.57,0,0,0,1.12-1.09,4.34,4.34,0,0,0,.35-1.91v-7h2.37v7.3A4.86,4.86,0,0,1,122,45.64,6.13,6.13,0,0,1,117.75,47a6.61,6.61,0,0,1-3-.61,4.22,4.22,0,0,1-1.91-1.75,5.32,5.32,0,0,1-.66-2.7V34.53Z"/><path class="cls-4" d="M132,34.53l5.42,12.28h-2.5l-1.28-3h-5.46l-1.18,3h-2.49l5.06-12.28ZM128.9,42h4l-2.08-4.86Z"/><path class="cls-4" d="M141.13,34.53V45h6v1.85h-8.33V34.53Z"/><path class="cls-4" d="M151,34.53V46.81h-2.37V34.53Z"/><path class="cls-4" d="M163.78,34.53,156.63,45h7.19v1.85H152.55l7.14-10.42H153V34.53Z"/><path class="cls-4" d="M171.73,34.53l5.43,12.28h-2.51l-1.27-3h-5.46l-1.19,3h-2.49l5.07-12.28ZM168.64,42h4l-2.07-4.86Z"/><path class="cls-4" d="M183.63,34.53a7.26,7.26,0,0,1,3.41.78,5.73,5.73,0,0,1,2.32,2.2,6.55,6.55,0,0,1,0,6.38A5.61,5.61,0,0,1,187,46.05a7.88,7.88,0,0,1-3.51.76h-5V34.53ZM183.38,45a4.27,4.27,0,0,0,3.16-1.19,4.64,4.64,0,0,0,0-6.23,4.46,4.46,0,0,0-3.23-1.15h-2.45V45Z"/><path class="cls-4" d="M198.59,34.37a7.44,7.44,0,0,1,3.43.79,6,6,0,0,1,2.43,2.27,6.21,6.21,0,0,1-2.4,8.73,7.77,7.77,0,0,1-7,0,6.07,6.07,0,0,1-3.3-5.46,6.19,6.19,0,0,1,.87-3.18,6.06,6.06,0,0,1,2.4-2.31A7.4,7.4,0,0,1,198.59,34.37Zm-4.34,6.31a4.35,4.35,0,0,0,.56,2.19,3.79,3.79,0,0,0,1.54,1.51,4.61,4.61,0,0,0,2.24.54,4.29,4.29,0,0,0,3.11-1.19,4.08,4.08,0,0,0,1.21-3,4.42,4.42,0,0,0-.55-2.21A3.73,3.73,0,0,0,200.82,37a5,5,0,0,0-4.5,0,3.83,3.83,0,0,0-1.53,1.51A4.47,4.47,0,0,0,194.25,40.68Z"/><path class="cls-4" d="M217.11,34.53a3.94,3.94,0,0,1,2.8,1,3.6,3.6,0,0,1,0,5.15,4.17,4.17,0,0,1-2.88,1h-2.28v5.15h-2.38V34.53Zm-.59,5.27a2.27,2.27,0,0,0,1.48-.43,1.55,1.55,0,0,0,.53-1.29c0-1.13-.72-1.69-2.18-1.69h-1.61V39.8Z"/><path class="cls-4" d="M229.06,34.37a7.41,7.41,0,0,1,3.43.79,6,6,0,0,1,2.43,2.27,6.06,6.06,0,0,1,.91,3.25,6.17,6.17,0,0,1-3.31,5.48A7.38,7.38,0,0,1,229,47a7.25,7.25,0,0,1-3.46-.83,6.07,6.07,0,0,1-3.3-5.46,6.19,6.19,0,0,1,.87-3.18,6.1,6.1,0,0,1,2.39-2.31A7.43,7.43,0,0,1,229.06,34.37Zm-4.33,6.31a4.34,4.34,0,0,0,.55,2.19,3.79,3.79,0,0,0,1.54,1.51,4.61,4.61,0,0,0,2.24.54,4.28,4.28,0,0,0,3.11-1.19,4.08,4.08,0,0,0,1.21-3,4.52,4.52,0,0,0-.54-2.21A3.82,3.82,0,0,0,231.29,37a4.68,4.68,0,0,0-2.25-.54,4.61,4.61,0,0,0-2.24.54,3.8,3.8,0,0,0-1.54,1.51A4.57,4.57,0,0,0,224.73,40.68Z"/><path class="cls-4" d="M242.36,34.53a4.13,4.13,0,0,1,2.83,1,3.19,3.19,0,0,1,1.09,2.5,3.06,3.06,0,0,1-.55,1.82,3.56,3.56,0,0,1-1.6,1.23,3.55,3.55,0,0,1,1.05.86,11.09,11.09,0,0,1,1.13,1.83c.75,1.49,1.31,2.52,1.67,3.08h-2.65c-.18-.27-.42-.7-.73-1.29a26.06,26.06,0,0,0-1.5-2.64,3.45,3.45,0,0,0-.91-1,1.81,1.81,0,0,0-1-.29h-.86v5.19h-2.38V34.53Zm-.53,5.24a2.13,2.13,0,0,0,1.46-.47,1.58,1.58,0,0,0,.53-1.27,1.51,1.51,0,0,0-.52-1.26,2.4,2.4,0,0,0-1.51-.42h-1.47v3.42Z"/><path class="cls-4" d="M259.46,34.53l5.43,12.28h-2.51l-1.27-3h-5.46l-1.19,3H252L257,34.53ZM256.37,42h4l-2.07-4.86Z"/><path class="cls-4" d="M268.3,34.53l7.3,8.57V34.53h2.32V46.81h-2l-7.34-8.71v8.71h-2.32V34.53ZM271,31.15a2.33,2.33,0,0,1,.78.15c.28.1.55.22.81.34l.75.33a1.64,1.64,0,0,0,.59.15.55.55,0,0,0,.46-.24,1.41,1.41,0,0,0,.25-.71h1.13a3,3,0,0,1-.6,1.81,1.7,1.7,0,0,1-1.39.67,2.77,2.77,0,0,1-.89-.13,6.55,6.55,0,0,1-1-.45l-.43-.19-.3-.12-.22-.07h-.2a.52.52,0,0,0-.47.24,1.79,1.79,0,0,0-.23.73h-1.12a3,3,0,0,1,.63-1.84A1.82,1.82,0,0,1,271,31.15Z"/><path class="cls-4" d="M286.8,34.37a7.41,7.41,0,0,1,3.43.79,6,6,0,0,1,2.43,2.27,6.06,6.06,0,0,1,.91,3.25,6.17,6.17,0,0,1-3.31,5.48,7.38,7.38,0,0,1-3.48.81,7.28,7.28,0,0,1-3.46-.83,6.07,6.07,0,0,1-3.3-5.46,6.19,6.19,0,0,1,.87-3.18,6.1,6.1,0,0,1,2.39-2.31A7.43,7.43,0,0,1,286.8,34.37Zm-4.33,6.31a4.34,4.34,0,0,0,.55,2.19,3.79,3.79,0,0,0,1.54,1.51,4.61,4.61,0,0,0,2.24.54,4.28,4.28,0,0,0,3.11-1.19,4.08,4.08,0,0,0,1.21-3,4.52,4.52,0,0,0-.54-2.21A3.82,3.82,0,0,0,289,37a4.68,4.68,0,0,0-2.25-.54,4.61,4.61,0,0,0-2.24.54A3.8,3.8,0,0,0,283,38.47,4.57,4.57,0,0,0,282.47,40.68Z"/><polygon class="cls-5" points="609.17 158.55 573.43 128.81 609.17 99.7 609.17 158.55"/><path class="cls-6" d="M552.13,63S579.4,76.76,579.4,124L552.13,95.11Z"/><path class="cls-6" d="M552.13,194.35S579.4,181,579.4,133.77l-27.27,27.67Z"/><path class="cls-7" d="M545.41,127.76a8.6,8.6,0,0,1,2.62,7,8.69,8.69,0,1,0-14-7.55,8.63,8.63,0,0,1,11.39.57Z"/><path class="cls-6" d="M538.05,121.14A16,16,0,0,0,552.13,137V120.55H538.05Z"/><path class="cls-5" d="M542,121a11.48,11.48,0,0,0,10.12,11.4V120.55H542Z"/><path class="cls-8" d="M552.13,120.54a7.43,7.43,0,0,0-14.08,0"/><line class="cls-9" x1="576.2" y1="128.72" x2="610.36" y2="109.16"/><line class="cls-9" x1="576.2" y1="128.72" x2="610.36" y2="118.02"/><line class="cls-9" x1="576.2" y1="128.72" x2="610.36" y2="128.77"/><line class="cls-9" x1="610.36" y1="149.59" x2="576.2" y2="128.72"/><line class="cls-9" x1="610.36" y1="140.18" x2="576.2" y2="128.72"/><path class="cls-5" d="M571.59,128.77a65.18,65.18,0,0,0-19.46-46.62v93.24A65.18,65.18,0,0,0,571.59,128.77Z"/><polygon class="cls-8" points="552.13 95.25 552.13 161.58 579.4 133.77 579.4 123.98 552.13 95.25"/><polygon class="cls-5" points="569.85 143.52 552.13 128.61 569.85 113.92 569.85 143.52"/><polygon class="cls-5" points="562.12 151.6 552.13 144.24 562.12 136.99 562.12 151.6"/><polygon class="cls-5" points="562.12 120.58 552.13 113.23 562.12 105.97 562.12 120.58"/><rect class="cls-10" x="289.91" y="62.62" width="42.98" height="25.63" rx="5"/><rect class="cls-11" x="289.91" y="60.62" width="42.98" height="25.63" rx="5"/><path class="cls-1" d="M302.23,67.28V79.56H300V67.28Z"/><path class="cls-1" d="M310.45,67.13a4,4,0,0,1,2.08.54A3.67,3.67,0,0,1,314,69.21a5,5,0,0,1,.5,2.27,9.06,9.06,0,0,1-1.17,4.17,15.39,15.39,0,0,1-3.13,4.07h-2.68a15.48,15.48,0,0,0,2.22-2.46,12.8,12.8,0,0,0,1.65-2.75,3.51,3.51,0,0,1-1.41.28,3.13,3.13,0,0,1-2.41-1,3.78,3.78,0,0,1-.95-2.67,4,4,0,0,1,.5-2,3.7,3.7,0,0,1,1.39-1.44A3.77,3.77,0,0,1,310.45,67.13Zm-1.64,3.92a2,2,0,0,0,.46,1.34,1.57,1.57,0,0,0,1.23.53,1.55,1.55,0,0,0,1.2-.53,1.84,1.84,0,0,0,.47-1.27,2.12,2.12,0,0,0-.47-1.43,1.57,1.57,0,0,0-1.25-.55,1.47,1.47,0,0,0-1.19.53A2,2,0,0,0,308.81,71.05Z"/><path class="cls-1" d="M319.28,67.13a3.87,3.87,0,0,1,2.79,1,3.58,3.58,0,0,1,1,2.66,6,6,0,0,1-.77,2.74,27.27,27.27,0,0,1-2.7,3.92h4.21v2.12h-8v-.25c.93-1.14,1.72-2.17,2.39-3.08s1.18-1.67,1.54-2.27a9.07,9.07,0,0,0,.77-1.53,3.69,3.69,0,0,0,.23-1.31,2,2,0,0,0-.54-1.42,1.72,1.72,0,0,0-1.31-.58,4.18,4.18,0,0,0-2.89,1.58V68.3A5.34,5.34,0,0,1,319.28,67.13Z"/><rect class="cls-3" x="72.2" y="484.93" width="10.02" height="10.02"/><path d="M91.08,484.36h1.64a3.38,3.38,0,0,1,2.28.69,2.49,2.49,0,0,1,.81,2,2.81,2.81,0,0,1-.8,2,2.92,2.92,0,0,1-2.25.85H91.61l-.56,4H89.73Zm1.15,1.14-.46,3.25h.93a1.79,1.79,0,0,0,1.34-.5,1.71,1.71,0,0,0,.49-1.23,1.38,1.38,0,0,0-.46-1.1,1.81,1.81,0,0,0-1.28-.42Z"/><path d="M101,484.24a3,3,0,0,1,2.44,1.11,4.29,4.29,0,0,1,.94,2.9,6.33,6.33,0,0,1-1.36,4.14A4.1,4.1,0,0,1,99.75,494a3.09,3.09,0,0,1-2.45-1.13,4.32,4.32,0,0,1-1-2.9,6.6,6.6,0,0,1,1.31-4A4,4,0,0,1,101,484.24Zm-1.2,8.65a2.79,2.79,0,0,0,2.3-1.43,5.86,5.86,0,0,0,1-3.44,3,3,0,0,0-.56-1.93,1.86,1.86,0,0,0-1.53-.7,2.77,2.77,0,0,0-2.41,1.47,6.17,6.17,0,0,0-.92,3.33,3,3,0,0,0,.58,2A1.88,1.88,0,0,0,99.78,492.89Z"/><path d="M111.49,484.36l-.17,1.19h-2.69l-1.17,8.36h-1.32l1.18-8.36h-2.69l.17-1.19Z"/><path d="M121,487.63l-.88,6.28h-1.19l.12-.72,0,0a2.37,2.37,0,0,1-1.7.89,1.82,1.82,0,0,1-1.46-.73,2.64,2.64,0,0,1-.61-1.76,4.05,4.05,0,0,1,1.13-2.95,4.14,4.14,0,0,1,3.14-1.17A5.19,5.19,0,0,1,121,487.63Zm-1.81,4.47.51-3.63-.37,0a2.61,2.61,0,0,0-2.13.89,3.07,3.07,0,0,0-.73,2,2.09,2.09,0,0,0,.35,1.24,1.07,1.07,0,0,0,.89.48,1.51,1.51,0,0,0,1-.43C119,492.35,119.14,492.17,119.15,492.1Z"/><path d="M126.29,492.51l-.14,1.15a3.59,3.59,0,0,1-1.75.45,2.65,2.65,0,0,1-2-.79,2.93,2.93,0,0,1-.76-2.11,3.58,3.58,0,0,1,1.15-2.68,4.06,4.06,0,0,1,2.93-1.1,6.79,6.79,0,0,1,1.08.11l-.16,1.06a4,4,0,0,0-.91-.11,2.82,2.82,0,0,0-2,.8,2.46,2.46,0,0,0-.82,1.85,2,2,0,0,0,.46,1.4,1.62,1.62,0,0,0,1.26.51A3.3,3.3,0,0,0,126.29,492.51Z"/><path d="M130.67,487.63l-.13.92h-1.25l-.61,3.44a2,2,0,0,0-.05.44c0,.41.22.62.66.62a2.42,2.42,0,0,0,1.15-.38l-.07,1.16a3.21,3.21,0,0,1-1.3.28,1.79,1.79,0,0,1-1.22-.39,1.31,1.31,0,0,1-.45-1,1.82,1.82,0,0,1,0-.32l.66-3.81H127l.15-.92h1.15l.23-1.29h1.17l-.23,1.29Z"/><path d="M136.74,487.63l-.89,6.28h-1.18l.11-1.06a3,3,0,0,1-2.07,1.16,1.41,1.41,0,0,1-1.07-.46,1.75,1.75,0,0,1-.45-1.29,4.22,4.22,0,0,1,0-.49l.59-4.14H133l-.58,4.14a2.77,2.77,0,0,0,0,.39c0,.63.23.94.7.94s1.12-.46,1.89-1.39l.58-4.08Z"/><path d="M143.42,487.63l-.89,6.28h-1.18l.11-.72,0,0a2.35,2.35,0,0,1-1.69.89,1.84,1.84,0,0,1-1.47-.73,2.68,2.68,0,0,1-.6-1.76,4,4,0,0,1,1.12-2.95,4.16,4.16,0,0,1,3.14-1.17A5.27,5.27,0,0,1,143.42,487.63Zm-1.82,4.47.52-3.63-.37,0a2.59,2.59,0,0,0-2.13.89,3.08,3.08,0,0,0-.74,2,2,2,0,0,0,.36,1.24,1.06,1.06,0,0,0,.89.48,1.54,1.54,0,0,0,1-.43C141.42,492.35,141.59,492.17,141.6,492.1Z"/><path d="M146.6,484.36l-1.35,9.55h-1.18l1.34-9.55Z"/><path d="M148.77,487.63l-.88,6.28H146.7l.88-6.28Zm-1.06-2a.68.68,0,0,1,.2-.49.65.65,0,0,1,.48-.2.62.62,0,0,1,.48.2.65.65,0,0,1,.21.49.7.7,0,0,1-.69.68.68.68,0,0,1-.68-.68Z"/><path d="M155.26,487.63l-4.17,5.23h3.66l-.22,1.05h-5.71l4.11-5.23h-3.18l.14-1.05Z"/><path d="M161.66,487.63l-.88,6.28h-1.19l.12-.72,0,0a2.37,2.37,0,0,1-1.7.89,1.82,1.82,0,0,1-1.46-.73,2.64,2.64,0,0,1-.61-1.76A4.05,4.05,0,0,1,157,488.6a4.14,4.14,0,0,1,3.14-1.17A5.19,5.19,0,0,1,161.66,487.63Zm-1.81,4.47.51-3.63-.37,0a2.61,2.61,0,0,0-2.13.89,3.07,3.07,0,0,0-.73,2,2.09,2.09,0,0,0,.35,1.24,1.09,1.09,0,0,0,.9.48,1.51,1.51,0,0,0,.94-.43C159.66,492.35,159.84,492.17,159.85,492.1Z"/><path d="M168.68,484.36l-1.34,9.55a5.58,5.58,0,0,1-1.61.2,3.56,3.56,0,0,1-2.45-.76,2.71,2.71,0,0,1-.86-2.15,3.71,3.71,0,0,1,1.12-2.57,3.92,3.92,0,0,1,3-1.2h.5l.42-3.07Zm-2.4,8.74.65-4.68h-.31a3,3,0,0,0-2.16.81,2.68,2.68,0,0,0-.82,1.94,1.89,1.89,0,0,0,.54,1.45,2.18,2.18,0,0,0,1.55.51A3.82,3.82,0,0,0,166.28,493.1Z"/><path d="M172.07,487.43a2.11,2.11,0,0,1,1.7.75,3,3,0,0,1,.64,2,4.48,4.48,0,0,1-.86,2.83,2.59,2.59,0,0,1-2.12,1.11,2.17,2.17,0,0,1-1.74-.74,3.17,3.17,0,0,1-.62-2.07,4.33,4.33,0,0,1,.86-2.76A2.64,2.64,0,0,1,172.07,487.43Zm0,.94a1.5,1.5,0,0,0-1.26.91,4.17,4.17,0,0,0-.53,2.14,2.1,2.1,0,0,0,.32,1.2.93.93,0,0,0,.79.47,1.51,1.51,0,0,0,1.27-.85,3.91,3.91,0,0,0,.53-2.13,2.36,2.36,0,0,0-.3-1.27A1,1,0,0,0,172.07,488.37Z"/><path d="M179.36,488.09v1.24a3.31,3.31,0,0,0-1.89-.82,1,1,0,0,0-.61.19.58.58,0,0,0-.25.47.62.62,0,0,0,.16.38,5.33,5.33,0,0,0,1,.75,3.81,3.81,0,0,1,1.1,1,1.76,1.76,0,0,1,.28.93,1.81,1.81,0,0,1-.55,1.36,1.94,1.94,0,0,1-1.4.52,3.76,3.76,0,0,1-2.18-.82l.21-1.15a3.47,3.47,0,0,0,1.93.93.89.89,0,0,0,.59-.19.66.66,0,0,0,.23-.5.82.82,0,0,0-.17-.47,5,5,0,0,0-1-.79,3.83,3.83,0,0,1-1.06-1,1.66,1.66,0,0,1-.26-.88,1.7,1.7,0,0,1,.54-1.31,2,2,0,0,1,1.43-.5A3.37,3.37,0,0,1,179.36,488.09Z"/><rect class="cls-3" x="119.6" y="391.66" width="17.11" height="27.6"/><rect class="cls-3" x="167.31" y="323.96" width="17.11" height="95.3"/><rect class="cls-3" x="215.91" y="279" width="17.11" height="140.27"/><rect class="cls-3" x="263.8" y="189.21" width="17.11" height="230.05"/><rect class="cls-3" x="312.05" y="330.47" width="17.11" height="88.79"/><rect class="cls-3" x="360.48" y="341.43" width="17.11" height="77.84"/><rect class="cls-3" x="408.52" y="290.42" width="17.11" height="128.85"/><rect class="cls-3" x="456.56" y="268.04" width="17.11" height="151.22"/><rect class="cls-3" x="505.36" y="330.47" width="17.11" height="88.79"/><rect class="cls-3" x="553.15" y="374.87" width="17.11" height="44.4"/><path class="cls-12" d="M68,443.91h3.89v1.42H65.4v-.11l.61-.72c1-1.19,1.73-2.2,2.3-3a11.28,11.28,0,0,0,1.11-1.88,3.23,3.23,0,0,0,.26-1.26,1.94,1.94,0,0,0-.49-1.39,1.7,1.7,0,0,0-1.3-.53,2.22,2.22,0,0,0-1.21.37,3.7,3.7,0,0,0-1.08,1v-1.86a3.88,3.88,0,0,1,2.46-1,2.93,2.93,0,0,1,2.21.9,3.11,3.11,0,0,1,.87,2.27,4.23,4.23,0,0,1-.22,1.31,6.9,6.9,0,0,1-.76,1.61,22,22,0,0,1-1.87,2.49Z"/><path class="cls-12" d="M76.19,435a2.71,2.71,0,0,1,2.33,1.48,8.16,8.16,0,0,1,0,7.53,2.75,2.75,0,0,1-2.39,1.46A2.72,2.72,0,0,1,73.75,444a7,7,0,0,1-.9-3.78,6.93,6.93,0,0,1,.93-3.79A2.77,2.77,0,0,1,76.19,435Zm0,1.39h-.08a1.5,1.5,0,0,0-1.33,1,6.61,6.61,0,0,0-.5,2.81,6.73,6.73,0,0,0,.49,2.85,1.47,1.47,0,0,0,1.33,1,1.49,1.49,0,0,0,1.34-1,6.59,6.59,0,0,0,.49-2.81,7.12,7.12,0,0,0-.47-2.83C77.16,436.71,76.74,436.35,76.21,436.35Z"/><path class="cls-12" d="M83.69,435A2.71,2.71,0,0,1,86,436.44,8.16,8.16,0,0,1,86,444a2.75,2.75,0,0,1-2.39,1.46A2.72,2.72,0,0,1,81.25,444a7,7,0,0,1-.9-3.78,6.93,6.93,0,0,1,.93-3.79A2.77,2.77,0,0,1,83.69,435Zm0,1.39h-.08a1.5,1.5,0,0,0-1.33,1,6.61,6.61,0,0,0-.5,2.81,6.73,6.73,0,0,0,.49,2.85,1.47,1.47,0,0,0,1.33,1,1.49,1.49,0,0,0,1.34-1,6.59,6.59,0,0,0,.49-2.81,7.12,7.12,0,0,0-.47-2.83C84.66,436.71,84.24,436.35,83.71,436.35Z"/><path class="cls-12" d="M90.19,445.44l-.9-1.06a8.26,8.26,0,0,0,2-1.74,5.45,5.45,0,0,0,1.14-2.1,3,3,0,0,1-1.63.44,2.64,2.64,0,0,1-2-.88,3,3,0,0,1,0-4.25A3,3,0,0,1,91,435,3,3,0,0,1,93.38,436a4,4,0,0,1,.92,2.69,7.22,7.22,0,0,1-1.16,3.76A8.59,8.59,0,0,1,90.19,445.44Zm2.51-6.35c0-.39.08-.65.08-.76a2.09,2.09,0,0,0-.49-1.45,1.62,1.62,0,0,0-1.27-.57,1.57,1.57,0,0,0-1.18.48,1.66,1.66,0,0,0-.46,1.21,1.58,1.58,0,0,0,.5,1.15,1.7,1.7,0,0,0,1.21.48A2.83,2.83,0,0,0,92.7,439.09Z"/><path class="cls-12" d="M115.85,443.91h3.9v1.42h-6.48v-.11l.62-.72c1-1.19,1.72-2.2,2.29-3a11.83,11.83,0,0,0,1.12-1.89,3.34,3.34,0,0,0,.26-1.26,2,2,0,0,0-.49-1.38,1.72,1.72,0,0,0-1.31-.53,2.25,2.25,0,0,0-1.21.37,3.56,3.56,0,0,0-1.07,1v-1.86a3.84,3.84,0,0,1,2.46-1,3,3,0,0,1,2.21.9,3.1,3.1,0,0,1,.86,2.27,4.52,4.52,0,0,1-.21,1.31,7.42,7.42,0,0,1-.77,1.61,21.64,21.64,0,0,1-1.86,2.49Z"/><path class="cls-12" d="M124.07,435a2.67,2.67,0,0,1,2.32,1.48,8.16,8.16,0,0,1,0,7.53,2.69,2.69,0,0,1-4.77,0,8.31,8.31,0,0,1,0-7.58A2.79,2.79,0,0,1,124.07,435Zm0,1.39H124a1.51,1.51,0,0,0-1.34,1,6.62,6.62,0,0,0-.49,2.81,6.91,6.91,0,0,0,.48,2.85,1.48,1.48,0,0,0,1.33,1,1.5,1.5,0,0,0,1.35-1,6.75,6.75,0,0,0,.49-2.81,6.93,6.93,0,0,0-.48-2.83C125,436.71,124.61,436.35,124.08,436.35Z"/><path class="cls-12" d="M130.79,435.09h1.47v10.24h-1.47Z"/><path class="cls-12" d="M138.35,443.91h3.9v1.42h-6.48v-.11l.62-.72c1-1.19,1.72-2.2,2.29-3a11.83,11.83,0,0,0,1.12-1.89,3.34,3.34,0,0,0,.26-1.26,2,2,0,0,0-.49-1.38,1.72,1.72,0,0,0-1.31-.53,2.25,2.25,0,0,0-1.21.37,3.56,3.56,0,0,0-1.07,1v-1.86a3.84,3.84,0,0,1,2.46-1,3,3,0,0,1,2.21.9,3.1,3.1,0,0,1,.86,2.27,4.52,4.52,0,0,1-.21,1.31,7.42,7.42,0,0,1-.77,1.61,21.64,21.64,0,0,1-1.86,2.49Z"/><path class="cls-12" d="M164.18,443.91h3.9v1.42H161.6v-.11l.62-.72c1-1.19,1.73-2.2,2.29-3a11.83,11.83,0,0,0,1.12-1.89,3.34,3.34,0,0,0,.26-1.26,2,2,0,0,0-.49-1.38,1.72,1.72,0,0,0-1.31-.53,2.25,2.25,0,0,0-1.21.37,3.56,3.56,0,0,0-1.07,1v-1.86a3.84,3.84,0,0,1,2.46-1,3,3,0,0,1,2.21.9,3.1,3.1,0,0,1,.86,2.27,4.52,4.52,0,0,1-.21,1.31,7.42,7.42,0,0,1-.77,1.61,21.64,21.64,0,0,1-1.86,2.49Z"/><path class="cls-12" d="M172.4,435a2.67,2.67,0,0,1,2.32,1.48,8.16,8.16,0,0,1,0,7.53,2.69,2.69,0,0,1-4.77,0,8.31,8.31,0,0,1,0-7.58A2.79,2.79,0,0,1,172.4,435Zm0,1.39h-.07a1.51,1.51,0,0,0-1.34,1,6.62,6.62,0,0,0-.49,2.81,6.91,6.91,0,0,0,.48,2.85,1.48,1.48,0,0,0,1.33,1,1.5,1.5,0,0,0,1.35-1,6.75,6.75,0,0,0,.49-2.81,6.93,6.93,0,0,0-.48-2.83C173.37,436.71,173,436.35,172.41,436.35Z"/><path class="cls-12" d="M179.12,435.09h1.47v10.24h-1.47Z"/><path class="cls-12" d="M186.29,439.37h.09a2.33,2.33,0,0,0,1.46-.39,1.37,1.37,0,0,0,.5-1.15,1.4,1.4,0,0,0-.48-1.11,1.9,1.9,0,0,0-1.28-.42,3.92,3.92,0,0,0-1.77.49v-1.4a4.35,4.35,0,0,1,1.94-.44,3.15,3.15,0,0,1,2.23.74,2.56,2.56,0,0,1,.82,2,2.5,2.5,0,0,1-.31,1.3,2.6,2.6,0,0,1-1,.92,2,2,0,0,1,.88.57,2.37,2.37,0,0,1,.43.82,3.22,3.22,0,0,1,.16,1,3,3,0,0,1-.9,2.22,3.08,3.08,0,0,1-2.25.87,4.75,4.75,0,0,1-2.25-.56v-1.6a4.18,4.18,0,0,0,2.25.73,1.65,1.65,0,0,0,1.19-.44,1.55,1.55,0,0,0,.45-1.17,1.62,1.62,0,0,0-.38-1.06,1.3,1.3,0,0,0-.48-.37,4.62,4.62,0,0,0-1.16-.24h-.13Z"/><path class="cls-12" d="M212.21,443.91h3.9v1.42h-6.48v-.11l.62-.72c1-1.19,1.72-2.2,2.29-3a11.83,11.83,0,0,0,1.12-1.89,3.34,3.34,0,0,0,.26-1.26,2,2,0,0,0-.49-1.38,1.72,1.72,0,0,0-1.31-.53,2.25,2.25,0,0,0-1.21.37,3.56,3.56,0,0,0-1.07,1v-1.86a3.84,3.84,0,0,1,2.46-1,3,3,0,0,1,2.21.9,3.14,3.14,0,0,1,.86,2.27,4.52,4.52,0,0,1-.21,1.31,7.42,7.42,0,0,1-.77,1.61,21.64,21.64,0,0,1-1.86,2.49Z"/><path class="cls-12" d="M220.43,435a2.69,2.69,0,0,1,2.32,1.48,8.16,8.16,0,0,1,0,7.53,2.69,2.69,0,0,1-4.77,0,8.31,8.31,0,0,1,0-7.58A2.79,2.79,0,0,1,220.43,435Zm0,1.39h-.07a1.51,1.51,0,0,0-1.34,1,6.62,6.62,0,0,0-.49,2.81,6.91,6.91,0,0,0,.48,2.85,1.38,1.38,0,0,0,2.67,0,6.58,6.58,0,0,0,.5-2.81,6.93,6.93,0,0,0-.48-2.83C221.4,436.71,221,436.35,220.44,436.35Z"/><path class="cls-12" d="M227.15,435.09h1.46v10.24h-1.46Z"/><path class="cls-12" d="M236.94,435h.6v5.75h1.15V442h-1.15v3.38h-1.43V442h-4.32v-.63Zm-.83,5.75v-3l-2.36,3Z"/><path class="cls-12" d="M261.74,443.91h3.9v1.42h-6.48v-.11l.62-.72c1-1.19,1.73-2.2,2.3-3a11.59,11.59,0,0,0,1.11-1.89,3.34,3.34,0,0,0,.26-1.26,1.93,1.93,0,0,0-.49-1.38,1.71,1.71,0,0,0-1.31-.53,2.25,2.25,0,0,0-1.21.37,3.67,3.67,0,0,0-1.07,1v-1.86a3.88,3.88,0,0,1,2.46-1,3,3,0,0,1,2.21.9,3.11,3.11,0,0,1,.87,2.27,4.23,4.23,0,0,1-.22,1.31,7.33,7.33,0,0,1-.76,1.61,22,22,0,0,1-1.87,2.49Z"/><path class="cls-12" d="M270,435a2.7,2.7,0,0,1,2.33,1.48,8.24,8.24,0,0,1,0,7.53,2.7,2.7,0,0,1-4.78,0,8.31,8.31,0,0,1,0-7.58A2.79,2.79,0,0,1,270,435Zm0,1.39h-.08a1.5,1.5,0,0,0-1.33,1,6.61,6.61,0,0,0-.5,2.81,6.91,6.91,0,0,0,.48,2.85,1.39,1.39,0,0,0,2.68,0,6.75,6.75,0,0,0,.49-2.81,7.12,7.12,0,0,0-.47-2.83C270.93,436.71,270.51,436.35,270,436.35Z"/><path class="cls-12" d="M276.68,435.09h1.47v10.24h-1.47Z"/><path class="cls-12" d="M282.67,435.09h4.54v1.31H284V439h.32a3.42,3.42,0,0,1,2.44.9,3.31,3.31,0,0,1,0,4.65,3.38,3.38,0,0,1-2.45.91,5.25,5.25,0,0,1-2.42-.6v-1.51a4,4,0,0,0,2.16.72,2.29,2.29,0,0,0,1.55-.54,1.68,1.68,0,0,0,.63-1.32,1.65,1.65,0,0,0-.69-1.36,2.58,2.58,0,0,0-1.69-.55,3.13,3.13,0,0,0-1.19.15Z"/><path class="cls-12" d="M309.28,443.91h3.89v1.42H306.7v-.11l.61-.72c1-1.19,1.73-2.2,2.3-3a10.88,10.88,0,0,0,1.11-1.89,3.16,3.16,0,0,0,.26-1.26,1.93,1.93,0,0,0-.49-1.38,1.69,1.69,0,0,0-1.3-.53,2.22,2.22,0,0,0-1.21.37,3.7,3.7,0,0,0-1.08,1v-1.86a3.88,3.88,0,0,1,2.46-1,2.93,2.93,0,0,1,2.21.9,3.11,3.11,0,0,1,.87,2.27,4.23,4.23,0,0,1-.22,1.31,6.9,6.9,0,0,1-.76,1.61,22,22,0,0,1-1.87,2.49Z"/><path class="cls-12" d="M317.49,435a2.69,2.69,0,0,1,2.33,1.48,8.16,8.16,0,0,1,0,7.53,2.69,2.69,0,0,1-4.77,0,8.31,8.31,0,0,1,0-7.58A2.78,2.78,0,0,1,317.49,435Zm0,1.39h-.07a1.5,1.5,0,0,0-1.34,1,6.62,6.62,0,0,0-.49,2.81,6.91,6.91,0,0,0,.48,2.85,1.38,1.38,0,0,0,2.67,0,6.59,6.59,0,0,0,.49-2.81,7,7,0,0,0-.47-2.83C318.46,436.71,318,436.35,317.51,436.35Z"/><path class="cls-12" d="M324.22,435.09h1.46v10.24h-1.46Z"/><path class="cls-12" d="M333.29,435.06l.15-.1.89,1.12a8.71,8.71,0,0,0-1.95,1.65,6.27,6.27,0,0,0-1.19,2.1,3.48,3.48,0,0,1,1.62-.41,2.75,2.75,0,0,1,2,.85,3.09,3.09,0,0,1-.08,4.28,3,3,0,0,1-2.19.89,2.93,2.93,0,0,1-2.33-1,3.9,3.9,0,0,1-.89-2.66,6.85,6.85,0,0,1,.46-2.45,8,8,0,0,1,1.32-2.28A10.58,10.58,0,0,1,333.29,435.06Zm-2.41,6.29a4.54,4.54,0,0,0-.06.77,2,2,0,0,0,.5,1.42,1.64,1.64,0,0,0,1.28.56,1.56,1.56,0,0,0,1.17-.48,1.69,1.69,0,0,0,.45-1.2,1.6,1.6,0,0,0-.48-1.2,1.85,1.85,0,0,0-1.29-.46,2,2,0,0,0-.74.13A4,4,0,0,0,330.88,441.35Z"/><path class="cls-12" d="M358.61,443.91h3.89v1.42H356v-.11l.61-.72c1-1.19,1.73-2.2,2.3-3a10.88,10.88,0,0,0,1.11-1.89,3.16,3.16,0,0,0,.26-1.26,1.93,1.93,0,0,0-.49-1.38,1.69,1.69,0,0,0-1.3-.53,2.22,2.22,0,0,0-1.21.37,3.7,3.7,0,0,0-1.08,1v-1.86a3.89,3.89,0,0,1,2.47-1,2.92,2.92,0,0,1,2.2.9,3.11,3.11,0,0,1,.87,2.27,4.23,4.23,0,0,1-.22,1.31,6.9,6.9,0,0,1-.76,1.61,22,22,0,0,1-1.87,2.49Z"/><path class="cls-12" d="M366.82,435a2.69,2.69,0,0,1,2.33,1.48,8.16,8.16,0,0,1,0,7.53,2.69,2.69,0,0,1-4.77,0,8.31,8.31,0,0,1,0-7.58A2.78,2.78,0,0,1,366.82,435Zm0,1.39h-.07a1.5,1.5,0,0,0-1.34,1,6.62,6.62,0,0,0-.49,2.81,6.91,6.91,0,0,0,.48,2.85,1.38,1.38,0,0,0,2.67,0,6.59,6.59,0,0,0,.49-2.81,7,7,0,0,0-.47-2.83C367.79,436.71,367.37,436.35,366.84,436.35Z"/><path class="cls-12" d="M373.55,435.09H375v10.24h-1.46Z"/><path class="cls-12" d="M378.75,435.09h6.62l-4.63,10.36-1.31-.56,3.74-8.4h-4.42Z"/><path class="cls-12" d="M407.24,443.91h3.89v1.42h-6.47v-.11l.62-.72c1-1.19,1.72-2.2,2.29-3a10.88,10.88,0,0,0,1.11-1.89,3.16,3.16,0,0,0,.26-1.26,1.93,1.93,0,0,0-.49-1.38,1.69,1.69,0,0,0-1.3-.53,2.25,2.25,0,0,0-1.21.37,3.7,3.7,0,0,0-1.08,1v-1.86a3.89,3.89,0,0,1,2.47-1,2.92,2.92,0,0,1,2.2.9,3.11,3.11,0,0,1,.87,2.27,4.52,4.52,0,0,1-.21,1.31,7.42,7.42,0,0,1-.77,1.61,22,22,0,0,1-1.87,2.49Z"/><path class="cls-12" d="M415.45,435a2.69,2.69,0,0,1,2.33,1.48,8.16,8.16,0,0,1,0,7.53,2.69,2.69,0,0,1-4.77,0,8.31,8.31,0,0,1,0-7.58A2.78,2.78,0,0,1,415.45,435Zm0,1.39h-.07a1.51,1.51,0,0,0-1.34,1,6.62,6.62,0,0,0-.49,2.81,6.91,6.91,0,0,0,.48,2.85,1.38,1.38,0,0,0,2.67,0,6.59,6.59,0,0,0,.49-2.81,7,7,0,0,0-.47-2.83C416.43,436.71,416,436.35,415.47,436.35Z"/><path class="cls-12" d="M422.18,435.09h1.46v10.24h-1.46Z"/><path class="cls-12" d="M427.36,437.84a2.66,2.66,0,0,1,.91-2,3.1,3.1,0,0,1,2.2-.84,3,3,0,0,1,2.16.83,2.72,2.72,0,0,1,.89,2,2.67,2.67,0,0,1-1.28,2.26,2.63,2.63,0,0,1,1.42,2.42,2.7,2.7,0,0,1-.92,2.1,3.7,3.7,0,0,1-4.67,0,2.74,2.74,0,0,1-.94-2.1,2.63,2.63,0,0,1,1.45-2.4,3.51,3.51,0,0,1-.93-1.05A2.49,2.49,0,0,1,427.36,437.84Zm4.82,4.74v-.15a1.43,1.43,0,0,0-.5-1.14,1.87,1.87,0,0,0-1.3-.45,1.84,1.84,0,0,0-1.28.45,1.61,1.61,0,0,0,0,2.32,2,2,0,0,0,1.32.44,1.87,1.87,0,0,0,1.26-.41A1.31,1.31,0,0,0,432.18,442.58Zm-.12-4.7a1.41,1.41,0,0,0-.46-1.09,1.61,1.61,0,0,0-1.16-.44,1.64,1.64,0,0,0-1.16.43,1.41,1.41,0,0,0-.46,1.09,1.43,1.43,0,0,0,.48,1.09,1.64,1.64,0,0,0,1.15.46,1.58,1.58,0,0,0,1.14-.45A1.48,1.48,0,0,0,432.06,437.88Z"/><path class="cls-12" d="M453.77,443.91h3.9v1.42h-6.48v-.11l.62-.72c1-1.19,1.72-2.2,2.29-3a11.83,11.83,0,0,0,1.12-1.89,3.34,3.34,0,0,0,.26-1.26,2,2,0,0,0-.49-1.38,1.71,1.71,0,0,0-1.31-.53,2.25,2.25,0,0,0-1.21.37,3.67,3.67,0,0,0-1.07,1v-1.86a3.84,3.84,0,0,1,2.46-1,3,3,0,0,1,2.21.9,3.11,3.11,0,0,1,.87,2.27,4.55,4.55,0,0,1-.22,1.31,7,7,0,0,1-.77,1.61,20.5,20.5,0,0,1-1.86,2.49Z"/><path class="cls-12" d="M462,435a2.67,2.67,0,0,1,2.32,1.48,8.16,8.16,0,0,1,0,7.53,2.69,2.69,0,0,1-4.77,0,8.31,8.31,0,0,1,0-7.58A2.79,2.79,0,0,1,462,435Zm0,1.39h-.07a1.51,1.51,0,0,0-1.34,1,6.62,6.62,0,0,0-.49,2.81,6.91,6.91,0,0,0,.48,2.85,1.48,1.48,0,0,0,1.34,1,1.5,1.5,0,0,0,1.34-1,6.75,6.75,0,0,0,.49-2.81,6.93,6.93,0,0,0-.48-2.83C463,436.71,462.54,436.35,462,436.35Z"/><path class="cls-12" d="M468.71,435.09h1.47v10.24h-1.47Z"/><path class="cls-12" d="M476,445.44l-.91-1.06a8.5,8.5,0,0,0,2-1.74,5.42,5.42,0,0,0,1.13-2.1,3,3,0,0,1-1.63.44,2.67,2.67,0,0,1-2-.88,3,3,0,0,1,.06-4.25,3.16,3.16,0,0,1,4.55.16,3.89,3.89,0,0,1,.92,2.69,7.2,7.2,0,0,1-1.15,3.76A8.68,8.68,0,0,1,476,445.44Zm2.5-6.35a6.6,6.6,0,0,0,.09-.77,2.13,2.13,0,0,0-.5-1.45,1.62,1.62,0,0,0-1.27-.56,1.56,1.56,0,0,0-1.17.48,1.66,1.66,0,0,0-.47,1.2,1.52,1.52,0,0,0,.51,1.15,1.67,1.67,0,0,0,1.21.49A2.8,2.8,0,0,0,478.49,439.09Z"/><path class="cls-12" d="M502.31,443.91h3.89v1.42h-6.47v-.11l.61-.72c1-1.19,1.73-2.2,2.3-3a10.88,10.88,0,0,0,1.11-1.89,3.34,3.34,0,0,0,.26-1.26,1.93,1.93,0,0,0-.49-1.38,1.7,1.7,0,0,0-1.3-.53,2.22,2.22,0,0,0-1.21.37,3.7,3.7,0,0,0-1.08,1v-1.86a3.88,3.88,0,0,1,2.46-1,2.93,2.93,0,0,1,2.21.9,3.11,3.11,0,0,1,.87,2.27,4.23,4.23,0,0,1-.22,1.31,7.33,7.33,0,0,1-.76,1.61,22,22,0,0,1-1.87,2.49Z"/><path class="cls-12" d="M510.52,435a2.69,2.69,0,0,1,2.33,1.48,8.16,8.16,0,0,1,0,7.53,2.75,2.75,0,0,1-2.39,1.46,2.72,2.72,0,0,1-2.38-1.43,8.31,8.31,0,0,1,0-7.58A2.78,2.78,0,0,1,510.52,435Zm0,1.39h-.08a1.5,1.5,0,0,0-1.33,1,6.61,6.61,0,0,0-.5,2.81,6.73,6.73,0,0,0,.49,2.85,1.47,1.47,0,0,0,1.33,1,1.49,1.49,0,0,0,1.34-1,6.59,6.59,0,0,0,.49-2.81,7.12,7.12,0,0,0-.47-2.83C511.49,436.71,511.07,436.35,510.54,436.35Z"/><path class="cls-12" d="M517.31,443.91h3.89v1.42h-6.47v-.11l.61-.72c1-1.19,1.73-2.2,2.3-3a10.88,10.88,0,0,0,1.11-1.89,3.34,3.34,0,0,0,.26-1.26,1.93,1.93,0,0,0-.49-1.38,1.7,1.7,0,0,0-1.3-.53,2.22,2.22,0,0,0-1.21.37,3.7,3.7,0,0,0-1.08,1v-1.86a3.88,3.88,0,0,1,2.46-1,2.93,2.93,0,0,1,2.21.9,3.11,3.11,0,0,1,.87,2.27,4.23,4.23,0,0,1-.22,1.31,7.33,7.33,0,0,1-.76,1.61,22,22,0,0,1-1.87,2.49Z"/><path class="cls-12" d="M525.52,435a2.69,2.69,0,0,1,2.33,1.48,8.16,8.16,0,0,1,0,7.53,2.75,2.75,0,0,1-2.39,1.46,2.72,2.72,0,0,1-2.38-1.43,8.31,8.31,0,0,1,0-7.58A2.78,2.78,0,0,1,525.52,435Zm0,1.39h-.08a1.5,1.5,0,0,0-1.33,1,6.61,6.61,0,0,0-.5,2.81,6.73,6.73,0,0,0,.49,2.85,1.47,1.47,0,0,0,1.33,1,1.49,1.49,0,0,0,1.34-1,6.59,6.59,0,0,0,.49-2.81,7.12,7.12,0,0,0-.47-2.83C526.49,436.71,526.07,436.35,525.54,436.35Z"/><path class="cls-12" d="M552.64,443.91h3.89v1.42h-6.47v-.11l.61-.72c1-1.19,1.73-2.2,2.3-3a11.28,11.28,0,0,0,1.11-1.88,3.42,3.42,0,0,0,.26-1.26,1.94,1.94,0,0,0-.49-1.39,1.7,1.7,0,0,0-1.3-.53,2.22,2.22,0,0,0-1.21.37,3.7,3.7,0,0,0-1.08,1v-1.86a3.88,3.88,0,0,1,2.46-1,2.93,2.93,0,0,1,2.21.9,3.11,3.11,0,0,1,.87,2.27,4.23,4.23,0,0,1-.22,1.31,7.33,7.33,0,0,1-.76,1.61,22,22,0,0,1-1.87,2.49Z"/><path class="cls-12" d="M560.85,435a2.71,2.71,0,0,1,2.33,1.48,8.16,8.16,0,0,1,0,7.53,2.75,2.75,0,0,1-2.39,1.46,2.72,2.72,0,0,1-2.38-1.43,7,7,0,0,1-.9-3.78,6.93,6.93,0,0,1,.93-3.79A2.77,2.77,0,0,1,560.85,435Zm0,1.39h-.08a1.5,1.5,0,0,0-1.33,1,6.61,6.61,0,0,0-.5,2.81,6.73,6.73,0,0,0,.49,2.85,1.47,1.47,0,0,0,1.33,1,1.49,1.49,0,0,0,1.34-1,6.59,6.59,0,0,0,.49-2.81,7.12,7.12,0,0,0-.47-2.83C561.82,436.71,561.4,436.35,560.87,436.35Z"/><path class="cls-12" d="M567.64,443.91h3.89v1.42h-6.47v-.11l.61-.72c1-1.19,1.73-2.2,2.3-3a11.28,11.28,0,0,0,1.11-1.88,3.42,3.42,0,0,0,.26-1.26,1.94,1.94,0,0,0-.49-1.39,1.7,1.7,0,0,0-1.3-.53,2.22,2.22,0,0,0-1.21.37,3.7,3.7,0,0,0-1.08,1v-1.86a3.88,3.88,0,0,1,2.46-1,2.93,2.93,0,0,1,2.21.9,3.11,3.11,0,0,1,.87,2.27,4.23,4.23,0,0,1-.22,1.31,7.33,7.33,0,0,1-.76,1.61,22,22,0,0,1-1.87,2.49Z"/><path class="cls-12" d="M575.08,435.09h1.46v10.24h-1.46Z"/><line class="cls-13" x1="80.33" y1="408.34" x2="80.33" y2="364.95"/><circle class="cls-13" cx="80.33" cy="350.77" r="14.18"/><path class="cls-2" d="M79.76,346.2h1.46v10.23H79.76Z"/><line class="cls-13" x1="128.15" y1="386.66" x2="128.15" y2="343.27"/><circle class="cls-13" cx="128.15" cy="329.09" r="14.18"/><path class="cls-2" d="M126.06,323.52h4.54v1.31h-3.21v2.58h.32a3.42,3.42,0,0,1,2.44.9,3,3,0,0,1,1,2.3,3.06,3.06,0,0,1-1,2.35,3.42,3.42,0,0,1-2.45.91,5.25,5.25,0,0,1-2.42-.6v-1.51a4,4,0,0,0,2.16.72,2.29,2.29,0,0,0,1.55-.54,1.7,1.7,0,0,0-.05-2.68,2.63,2.63,0,0,0-1.7-.55,3.13,3.13,0,0,0-1.19.15Z"/><line class="cls-13" x1="175.86" y1="318.96" x2="175.86" y2="275.57"/><circle class="cls-13" cx="175.86" cy="261.39" r="14.18"/><path class="cls-2" d="M171.24,255.82h1.46v10.23h-1.46Z"/><path class="cls-2" d="M176.44,255.82h6.62l-4.63,10.35-1.31-.55,3.74-8.4h-4.42Z"/><line class="cls-13" x1="224.47" y1="274" x2="224.47" y2="230.61"/><circle class="cls-13" cx="224.47" cy="216.43" r="14.18"/><path class="cls-2" d="M220,219.68h3.9v1.41h-6.48V221l.62-.73c1-1.19,1.72-2.2,2.29-3a12.32,12.32,0,0,0,1.12-1.88,3.42,3.42,0,0,0,.26-1.26,2,2,0,0,0-.49-1.39,1.72,1.72,0,0,0-1.31-.52,2.32,2.32,0,0,0-1.21.36,3.56,3.56,0,0,0-1.07,1V211.7a3.83,3.83,0,0,1,2.46-1,2.94,2.94,0,0,1,2.21.89,3.16,3.16,0,0,1,.86,2.27,4.52,4.52,0,0,1-.21,1.31,7.7,7.7,0,0,1-.77,1.62,22.64,22.64,0,0,1-1.86,2.48Z"/><path class="cls-2" d="M225.87,210.86h4.55v1.3h-3.21v2.59l.31,0a3.41,3.41,0,0,1,2.45.91,3,3,0,0,1,1,2.3,3.13,3.13,0,0,1-1,2.35,3.42,3.42,0,0,1-2.46.9,5.21,5.21,0,0,1-2.41-.6v-1.51a3.92,3.92,0,0,0,2.16.72,2.31,2.31,0,0,0,1.55-.54,1.71,1.71,0,0,0-.06-2.68,2.64,2.64,0,0,0-1.7-.54,3.26,3.26,0,0,0-1.19.14Z"/><line class="cls-13" x1="272.36" y1="184.21" x2="272.36" y2="140.82"/><circle class="cls-13" cx="272.36" cy="126.64" r="14.18"/><path class="cls-2" d="M270.07,120.94h.61v5.74h1.14v1.24h-1.14v3.38h-1.43v-3.38h-4.33v-.62Zm-.82,5.74v-3l-2.37,3Z"/><path class="cls-2" d="M275.28,121.07h1.47V131.3h-1.47Z"/><line class="cls-13" x1="320.61" y1="325.47" x2="320.61" y2="282.08"/><circle class="cls-13" cx="320.61" cy="267.9" r="14.18"/><path class="cls-2" d="M315,262.33h1.46v10.23H315Z"/><path class="cls-2" d="M324.1,262.3l.15-.1.89,1.11a9.52,9.52,0,0,0-1.95,1.65,6.5,6.5,0,0,0-1.19,2.11,3.49,3.49,0,0,1,1.62-.42,2.73,2.73,0,0,1,2,.86,2.9,2.9,0,0,1,.82,2.1,3,3,0,0,1-.9,2.18,3,3,0,0,1-2.19.89,2.94,2.94,0,0,1-2.33-1,3.88,3.88,0,0,1-.89-2.65,6.81,6.81,0,0,1,.46-2.45,8,8,0,0,1,1.32-2.29A10.55,10.55,0,0,1,324.1,262.3Zm-2.41,6.29a4.34,4.34,0,0,0-.06.76,2.05,2.05,0,0,0,.5,1.42,1.62,1.62,0,0,0,1.29.56,1.55,1.55,0,0,0,1.16-.48,1.65,1.65,0,0,0,.45-1.2,1.56,1.56,0,0,0-.48-1.19,1.8,1.8,0,0,0-1.29-.46,2.17,2.17,0,0,0-.74.12A4.42,4.42,0,0,0,321.69,268.59Z"/><line class="cls-13" x1="369.03" y1="336.43" x2="369.03" y2="293.04"/><circle class="cls-13" cx="369.03" cy="278.86" r="14.18"/><path class="cls-2" d="M363.45,273.29h1.47v10.23h-1.47Z"/><path class="cls-2" d="M373.25,273.16h.6v5.74H375v1.24h-1.14v3.38h-1.43v-3.38h-4.33v-.63Zm-.83,5.74v-3l-2.37,3Z"/><line class="cls-13" x1="417.07" y1="285.42" x2="417.07" y2="242.03"/><circle class="cls-13" cx="417.07" cy="227.84" r="14.18"/><path class="cls-2" d="M412.55,231.09h3.9v1.42H410v-.11l.61-.72c1-1.19,1.73-2.2,2.3-3a11.59,11.59,0,0,0,1.11-1.89,3.33,3.33,0,0,0,.26-1.25,1.94,1.94,0,0,0-.49-1.39,1.7,1.7,0,0,0-1.3-.53,2.28,2.28,0,0,0-1.22.37,3.8,3.8,0,0,0-1.07,1v-1.86a3.88,3.88,0,0,1,2.46-1,3,3,0,0,1,2.21.9,3.11,3.11,0,0,1,.87,2.27,4.23,4.23,0,0,1-.22,1.31,7.33,7.33,0,0,1-.76,1.61,22,22,0,0,1-1.87,2.49Z"/><path class="cls-2" d="M419.67,226.55h.08a2.33,2.33,0,0,0,1.46-.39,1.38,1.38,0,0,0,.51-1.15,1.41,1.41,0,0,0-.49-1.11,1.9,1.9,0,0,0-1.28-.42,4,4,0,0,0-1.77.49v-1.39a4.24,4.24,0,0,1,1.95-.45,3.23,3.23,0,0,1,2.23.74,2.59,2.59,0,0,1,.81,2,2.48,2.48,0,0,1-.31,1.3,2.64,2.64,0,0,1-1,.92,1.94,1.94,0,0,1,.87.57,2.52,2.52,0,0,1,.44.83,3.4,3.4,0,0,1,.15,1,3,3,0,0,1-.89,2.22,3.12,3.12,0,0,1-2.26.87,4.75,4.75,0,0,1-2.25-.56v-1.6a4.18,4.18,0,0,0,2.25.73,1.65,1.65,0,0,0,1.19-.44,1.54,1.54,0,0,0,.45-1.16,1.64,1.64,0,0,0-.37-1.07,1.41,1.41,0,0,0-.49-.37,4.31,4.31,0,0,0-1.15-.23l-.13,0Z"/><line class="cls-13" x1="465.11" y1="263.04" x2="465.11" y2="219.65"/><circle class="cls-13" cx="465.11" cy="205.47" r="14.18"/><path class="cls-2" d="M460.6,208.72h3.89v1.41H458V210l.61-.73c1-1.19,1.73-2.2,2.3-3a11.28,11.28,0,0,0,1.11-1.88,3.42,3.42,0,0,0,.26-1.26,1.94,1.94,0,0,0-.49-1.39,1.7,1.7,0,0,0-1.3-.52,2.36,2.36,0,0,0-1.22.36,3.8,3.8,0,0,0-1.07,1v-1.86a3.87,3.87,0,0,1,2.46-1,2.92,2.92,0,0,1,2.21.89,3.12,3.12,0,0,1,.87,2.27,4.23,4.23,0,0,1-.22,1.31,7.6,7.6,0,0,1-.76,1.62,23,23,0,0,1-1.87,2.48Z"/><path class="cls-2" d="M465.74,199.9h6.62l-4.63,10.35-1.31-.55,3.74-8.4h-4.42Z"/><line class="cls-13" x1="513.92" y1="325.47" x2="513.92" y2="282.08"/><circle class="cls-13" cx="513.92" cy="267.9" r="14.18"/><path class="cls-2" d="M509.34,262.33h1.47v10.23h-1.47Z"/><path class="cls-2" d="M518.42,262.3l.14-.1.89,1.11a9.19,9.19,0,0,0-1.94,1.65,6.15,6.15,0,0,0-1.19,2.11,3.48,3.48,0,0,1,1.61-.42,2.73,2.73,0,0,1,2,.86,2.91,2.91,0,0,1,.83,2.1,3,3,0,0,1-.9,2.18,3,3,0,0,1-2.19.89,3,3,0,0,1-2.34-1,3.88,3.88,0,0,1-.89-2.65,7,7,0,0,1,.46-2.45,8.51,8.51,0,0,1,1.32-2.29A10.36,10.36,0,0,1,518.42,262.3ZM516,268.59a4.34,4.34,0,0,0-.06.76,2.05,2.05,0,0,0,.5,1.42,1.65,1.65,0,0,0,1.29.56,1.54,1.54,0,0,0,1.16-.48,1.62,1.62,0,0,0,.46-1.2,1.53,1.53,0,0,0-.49-1.19,1.79,1.79,0,0,0-1.29-.46,2.17,2.17,0,0,0-.74.12A4.42,4.42,0,0,0,516,268.59Z"/><line class="cls-13" x1="561.7" y1="369.87" x2="561.7" y2="326.48"/><circle class="cls-13" cx="561.7" cy="312.3" r="14.18"/><path class="cls-2" d="M559.09,309.47a2.69,2.69,0,0,1,.9-2,3.12,3.12,0,0,1,2.21-.84,3,3,0,0,1,2.16.84,2.72,2.72,0,0,1-.39,4.3,2.64,2.64,0,0,1,1.42,2.42,2.71,2.71,0,0,1-.92,2.1,3.67,3.67,0,0,1-4.67,0,2.7,2.7,0,0,1-.94-2.09,2.65,2.65,0,0,1,1.45-2.41,3.56,3.56,0,0,1-.94-1.05A2.6,2.6,0,0,1,559.09,309.47Zm4.82,4.74v-.14a1.47,1.47,0,0,0-.5-1.15,2.11,2.11,0,0,0-2.58,0,1.5,1.5,0,0,0-.49,1.16,1.47,1.47,0,0,0,.5,1.16,2.17,2.17,0,0,0,2.58,0A1.3,1.3,0,0,0,563.91,314.21Zm-.12-4.69a1.46,1.46,0,0,0-.46-1.1,1.62,1.62,0,0,0-1.16-.43,1.66,1.66,0,0,0-1.17.42,1.51,1.51,0,0,0,0,2.18,1.67,1.67,0,0,0,2.29,0A1.45,1.45,0,0,0,563.79,309.52Z"/><line class="cls-14" x1="43.48" y1="427.32" x2="616.55" y2="427.32"/><line class="cls-14" x1="52.48" y1="427.32" x2="625.55" y2="427.32"/></g></g></svg>