<svg xmlns="http://www.w3.org/2000/svg" xmlns:xlink="http://www.w3.org/1999/xlink" viewBox="0 0 660.04 519"><defs><style>.cls-1,.cls-5{fill:none;}.cls-2{fill:#fff;}.cls-3{fill:#5045b3;}.cls-4{fill:#0069b3;}.cls-5{stroke:#000;stroke-miterlimit:10;stroke-width:0.5px;opacity:0.2;}.cls-6{fill:#eb6654;}.cls-7{fill:#038d71;}.cls-8{fill:#fdf6e6;}.cls-9{clip-path:url(#clip-path);}.cls-10{fill:var(--azul-igac);}.cls-11{fill:#0e233f;}</style><clipPath id="clip-path"><rect class="cls-1" x="331.25" y="303.14" width="184.22" height="71.88"/></clipPath></defs><g id="Capa_2" data-name="Capa 2"><g id="Arte"><rect class="cls-2" width="660.04" height="519" rx="5"/><path class="cls-3" d="M0,5H0A5,5,0,0,1,5,0H655a5,5,0,0,1,5,5H0Z"/><path class="cls-4" d="M36.64,34.53l4,4.84,4-4.84h2.12V46.81H44.45V38.19h-.07l-3.55,4.32H40.5L37,38.19h-.07v8.62H34.5V34.53Z"/><path class="cls-4" d="M51.71,34.53v7.15A3.93,3.93,0,0,0,52,43.43a2.59,2.59,0,0,0,1.08,1.07,3.48,3.48,0,0,0,1.74.42,3.92,3.92,0,0,0,1.85-.4,2.6,2.6,0,0,0,1.11-1.09,4.34,4.34,0,0,0,.35-1.91v-7h2.37v7.3a4.86,4.86,0,0,1-1.48,3.81A6.12,6.12,0,0,1,54.86,47a6.63,6.63,0,0,1-3-.61A4.28,4.28,0,0,1,50,44.61a5.32,5.32,0,0,1-.66-2.7V34.53Z"/><path class="cls-4" d="M65.14,34.53l7.29,8.57V34.53h2.32V46.81h-2L65.38,38.1v8.71H63.06V34.53Z"/><path class="cls-4" d="M79.77,34.53V46.81H77.4V34.53Z"/><path class="cls-4" d="M88.86,34.37a8.77,8.77,0,0,1,2,.24,10.38,10.38,0,0,1,2.16.81v2.23A10.06,10.06,0,0,0,91,36.71a7,7,0,0,0-2-.29,5.09,5.09,0,0,0-2.36.54A3.91,3.91,0,0,0,85,38.49a4.41,4.41,0,0,0,0,4.39,3.93,3.93,0,0,0,1.64,1.51,5.23,5.23,0,0,0,2.37.53,6.49,6.49,0,0,0,1.93-.29,13.33,13.33,0,0,0,2.31-1.05v2.24A10.43,10.43,0,0,1,91,46.7a9.07,9.07,0,0,1-2.34.27,7.51,7.51,0,0,1-3.47-.78A5.8,5.8,0,0,1,82.8,44a6.12,6.12,0,0,1-.87-3.19,6.25,6.25,0,0,1,.9-3.33,6.14,6.14,0,0,1,2.48-2.28A7.79,7.79,0,0,1,88.86,34.37Z"/><path class="cls-4" d="M97.79,34.53V46.81H95.42V34.53Z"/><path class="cls-4" d="M105.19,34.53a3.94,3.94,0,0,1,2.8,1,3.36,3.36,0,0,1,1.07,2.57A3.28,3.28,0,0,1,108,40.67a4.09,4.09,0,0,1-2.87,1h-2.28v5.15h-2.38V34.53Zm-.59,5.27a2.27,2.27,0,0,0,1.48-.43,1.58,1.58,0,0,0,.53-1.29c0-1.13-.72-1.69-2.18-1.69h-1.61V39.8Z"/><path class="cls-4" d="M113.27,34.53V46.81H110.9V34.53Z"/><path class="cls-4" d="M122.22,34.37a7.44,7.44,0,0,1,3.43.79,6,6,0,0,1,2.43,2.27,6.27,6.27,0,0,1,0,6.44,6.2,6.2,0,0,1-2.42,2.29,7.77,7.77,0,0,1-7,0,6.21,6.21,0,0,1,0-11A7.4,7.4,0,0,1,122.22,34.37Zm-4.34,6.3a4.36,4.36,0,0,0,.56,2.2A3.79,3.79,0,0,0,120,44.38a4.58,4.58,0,0,0,2.24.54,4.25,4.25,0,0,0,3.1-1.19,4.09,4.09,0,0,0,1.22-3.06,4.41,4.41,0,0,0-.55-2.2A3.79,3.79,0,0,0,124.45,37a5,5,0,0,0-4.5,0,3.83,3.83,0,0,0-1.53,1.51A4.45,4.45,0,0,0,117.88,40.67Z"/><path class="cls-4" d="M134.66,34.37a7.11,7.11,0,0,1,3.45.9v2.11a6.73,6.73,0,0,0-3.38-1.15,2.36,2.36,0,0,0-1.4.35,1.07,1.07,0,0,0-.51.92c0,.47.32.89.94,1.29.18.11.86.44,2,1A5.72,5.72,0,0,1,138,41.35a3.31,3.31,0,0,1,.67,2.09A3.2,3.2,0,0,1,137.5,46a4.42,4.42,0,0,1-2.95,1,7,7,0,0,1-2-.26,8.55,8.55,0,0,1-1.9-.89V43.48a5.93,5.93,0,0,0,3.7,1.63,2.42,2.42,0,0,0,1.41-.37,1.19,1.19,0,0,0,.54-1,1.6,1.6,0,0,0-.93-1.39c-.52-.28-1.19-.61-2-1a6,6,0,0,1-2.17-1.53,3.19,3.19,0,0,1-.71-2,3,3,0,0,1,1.15-2.47A4.75,4.75,0,0,1,134.66,34.37Z"/><path class="cls-4" d="M151.94,34.37a8.77,8.77,0,0,1,2.05.24,10.38,10.38,0,0,1,2.16.81v2.23a10.06,10.06,0,0,0-2.09-.94,7.13,7.13,0,0,0-2-.29,5.14,5.14,0,0,0-2.37.54A4,4,0,0,0,148,38.49a4.44,4.44,0,0,0,0,4.39,4,4,0,0,0,1.63,1.51,5.3,5.3,0,0,0,2.38.53,6.54,6.54,0,0,0,1.93-.29,13.33,13.33,0,0,0,2.31-1.05v2.24a10.64,10.64,0,0,1-2.19.88,9.07,9.07,0,0,1-2.34.27,7.51,7.51,0,0,1-3.47-.78A5.74,5.74,0,0,1,145.88,44a6.12,6.12,0,0,1-.87-3.19,6.25,6.25,0,0,1,.9-3.33,6.07,6.07,0,0,1,2.48-2.28A7.76,7.76,0,0,1,151.94,34.37Z"/><path class="cls-4" d="M164.56,34.37a7.41,7.41,0,0,1,3.43.79,6,6,0,0,1,2.43,2.27,6.06,6.06,0,0,1,.91,3.24A6.17,6.17,0,0,1,168,46.16a7.38,7.38,0,0,1-3.48.81,7.28,7.28,0,0,1-3.46-.83,6.21,6.21,0,0,1,0-11A7.39,7.39,0,0,1,164.56,34.37Zm-4.33,6.3a4.36,4.36,0,0,0,.55,2.2,3.79,3.79,0,0,0,1.54,1.51,4.61,4.61,0,0,0,2.24.54,4.28,4.28,0,0,0,3.11-1.19,4.09,4.09,0,0,0,1.22-3.06,4.52,4.52,0,0,0-.55-2.2A3.82,3.82,0,0,0,166.79,37a4.94,4.94,0,0,0-4.49,0,3.8,3.8,0,0,0-1.54,1.51A4.56,4.56,0,0,0,160.23,40.67Z"/><path class="cls-4" d="M175.53,34.53l7.29,8.57V34.53h2.32V46.81h-2l-7.34-8.71v8.71h-2.32V34.53Z"/><path class="cls-4" d="M197.77,34.53l5.42,12.28h-2.5l-1.28-3H194l-1.18,3h-2.49l5.06-12.28ZM194.67,42h4l-2.08-4.86Z"/><path class="cls-4" d="M210.43,34.37a8.77,8.77,0,0,1,2,.24,10.38,10.38,0,0,1,2.16.81v2.23a10.12,10.12,0,0,0-2.1-.94,7,7,0,0,0-2-.29,5.11,5.11,0,0,0-2.37.54,4,4,0,0,0-1.64,1.53,4.44,4.44,0,0,0,0,4.39,3.91,3.91,0,0,0,1.63,1.51,5.3,5.3,0,0,0,2.38.53,6.42,6.42,0,0,0,1.92-.29,13,13,0,0,0,2.32-1.05v2.24a10.71,10.71,0,0,1-2.2.88,8.93,8.93,0,0,1-2.33.27,7.55,7.55,0,0,1-3.48-.78,5.72,5.72,0,0,1-2.4-2.22,6.12,6.12,0,0,1-.87-3.19,6.25,6.25,0,0,1,.9-3.33,6.11,6.11,0,0,1,2.47-2.28A7.83,7.83,0,0,1,210.43,34.37Z"/><path class="cls-4" d="M227.12,34.53v1.86h-4.36V46.81h-2.37V36.39H216V34.53Z"/><path class="cls-4" d="M234.38,34.37a7.48,7.48,0,0,1,3.44.79,6.23,6.23,0,0,1,2.45,8.71,6.16,6.16,0,0,1-2.43,2.29,7.37,7.37,0,0,1-3.47.81,7.29,7.29,0,0,1-3.47-.83,6.21,6.21,0,0,1,0-11A7.39,7.39,0,0,1,234.38,34.37Zm-4.33,6.3a4.46,4.46,0,0,0,.55,2.2,3.82,3.82,0,0,0,1.55,1.51,4.57,4.57,0,0,0,2.23.54,4.28,4.28,0,0,0,3.11-1.19,4.09,4.09,0,0,0,1.22-3.06,4.52,4.52,0,0,0-.55-2.2A3.76,3.76,0,0,0,236.61,37a4.94,4.94,0,0,0-4.49,0,3.71,3.71,0,0,0-1.53,1.51A4.45,4.45,0,0,0,230.05,40.67Z"/><path class="cls-4" d="M253.3,34.53l5.42,12.28h-2.5l-1.27-3h-5.46l-1.19,3h-2.49l5.07-12.28ZM250.21,42h4l-2.07-4.86Z"/><path class="cls-4" d="M265.2,34.53a7.26,7.26,0,0,1,3.41.78,5.73,5.73,0,0,1,2.32,2.2,6.55,6.55,0,0,1,0,6.38,5.61,5.61,0,0,1-2.36,2.16,7.88,7.88,0,0,1-3.51.76h-5V34.53ZM265,45a4.27,4.27,0,0,0,3.16-1.19,4.14,4.14,0,0,0,1.19-3.1,4.15,4.15,0,0,0-1.19-3.13,4.49,4.49,0,0,0-3.24-1.15h-2.44V45Z"/><path class="cls-4" d="M276,34.53l4,4.84,4-4.84h2.12V46.81h-2.38V38.19h-.07l-3.55,4.32h-.33l-3.55-4.32h-.07v8.62h-2.38V34.53Z"/><path class="cls-4" d="M291.21,34.53V46.81h-2.37V34.53Z"/><path class="cls-4" d="M296,34.53l7.29,8.57V34.53h2.32V46.81h-2l-7.34-8.71v8.71h-2.32V34.53Z"/><path class="cls-4" d="M310.58,34.53V46.81H308.2V34.53Z"/><path class="cls-4" d="M316.79,34.37a7.16,7.16,0,0,1,3.45.9v2.11a6.73,6.73,0,0,0-3.38-1.15,2.36,2.36,0,0,0-1.4.35,1.07,1.07,0,0,0-.51.92c0,.47.31.89.94,1.29.18.11.85.44,2,1a5.72,5.72,0,0,1,2.18,1.58,3.31,3.31,0,0,1,.67,2.09A3.2,3.2,0,0,1,319.63,46a4.42,4.42,0,0,1-2.95,1,7,7,0,0,1-2-.26,8.81,8.81,0,0,1-1.91-.89V43.48a6,6,0,0,0,3.71,1.63,2.42,2.42,0,0,0,1.41-.37,1.18,1.18,0,0,0,.53-1,1.6,1.6,0,0,0-.93-1.39c-.51-.28-1.18-.61-2-1a6,6,0,0,1-2.17-1.53,3.13,3.13,0,0,1-.71-2,3,3,0,0,1,1.15-2.47A4.73,4.73,0,0,1,316.79,34.37Z"/><path class="cls-4" d="M332.56,34.53v1.86H328.2V46.81h-2.37V36.39h-4.36V34.53Z"/><path class="cls-4" d="M338.68,34.53a4.12,4.12,0,0,1,2.82,1,3.19,3.19,0,0,1,1.09,2.5,3.13,3.13,0,0,1-.54,1.82A3.6,3.6,0,0,1,340.44,41a3.55,3.55,0,0,1,1.05.86,11.09,11.09,0,0,1,1.13,1.83c.75,1.49,1.31,2.52,1.67,3.08h-2.64a13,13,0,0,1-.74-1.29,26.06,26.06,0,0,0-1.5-2.64,3.45,3.45,0,0,0-.91-1,1.81,1.81,0,0,0-1-.29h-.86v5.19h-2.38V34.53Zm-.54,5.24a2.13,2.13,0,0,0,1.46-.47,1.58,1.58,0,0,0,.53-1.27,1.51,1.51,0,0,0-.52-1.26,2.38,2.38,0,0,0-1.51-.42h-1.47v3.42Z"/><path class="cls-4" d="M352,34.53l5.43,12.28h-2.51l-1.27-3h-5.46l-1.19,3h-2.49l5.07-12.28ZM348.87,42h4l-2.07-4.86Z"/><path class="cls-4" d="M367.46,34.53v1.86H363.1V46.81h-2.37V36.39h-4.36V34.53Z"/><path class="cls-4" d="M371.58,34.53V46.81h-2.37V34.53Z"/><path class="cls-4" d="M375.47,34.53,379,42.42l3.38-7.89h2.49L379.39,47h-.82L373,34.53Z"/><path class="cls-4" d="M392.08,34.37a7.41,7.41,0,0,1,3.43.79A6.06,6.06,0,0,1,398,37.43a6.2,6.2,0,0,1-2.41,8.73,7.37,7.37,0,0,1-3.47.81,7.29,7.29,0,0,1-3.47-.83,6.21,6.21,0,0,1,0-11A7.39,7.39,0,0,1,392.08,34.37Zm-4.33,6.3a4.36,4.36,0,0,0,.55,2.2,3.82,3.82,0,0,0,1.55,1.51,4.54,4.54,0,0,0,2.23.54,4.28,4.28,0,0,0,3.11-1.19,4.09,4.09,0,0,0,1.22-3.06,4.52,4.52,0,0,0-.55-2.2A3.76,3.76,0,0,0,394.31,37a4.94,4.94,0,0,0-4.49,0,3.71,3.71,0,0,0-1.53,1.51A4.45,4.45,0,0,0,387.75,40.67Z"/><path d="M79.6,405.14v9.55H78.33v-7.27l-3.85,7.27-1.68-7.3-2.35,7.3H69.18l3.15-9.55h1.09l1.49,6.47,3.43-6.47Z"/><path d="M86.71,408.41l-.89,6.28H84.64l.11-1.06a3,3,0,0,1-2.07,1.16,1.47,1.47,0,0,1-1.08-.45,1.83,1.83,0,0,1-.44-1.3,2.77,2.77,0,0,1,0-.49l.58-4.14H83l-.59,4.14c0,.14,0,.27,0,.39,0,.63.23.94.69.94s1.12-.46,1.9-1.39l.57-4.08Z"/><path d="M89.64,408.41l-.16,1.11,0,0a2.77,2.77,0,0,1,2.08-1.23,1.34,1.34,0,0,1,1.14.54,2.22,2.22,0,0,1,.4,1.38,2.89,2.89,0,0,1,0,.5l-.6,4H91.31l.58-4a2.77,2.77,0,0,0,0-.39,1.22,1.22,0,0,0-.2-.75.62.62,0,0,0-.52-.26,1.08,1.08,0,0,0-.4.09,2.38,2.38,0,0,0-.48.27,5.34,5.34,0,0,0-.62.56,1.55,1.55,0,0,0-.39.48l-.58,4H87.56l.88-6.28Z"/><path d="M96.1,408.41l-.88,6.28H94l.89-6.28Zm-1-2a.64.64,0,0,1,.2-.49.68.68,0,0,1,1,0,.64.64,0,0,1,.2.49.65.65,0,0,1-.2.48.68.68,0,0,1-1,0A.65.65,0,0,1,95.05,406.44Z"/><path d="M101.34,413.29l-.14,1.15a3.56,3.56,0,0,1-1.75.45,2.67,2.67,0,0,1-2-.79,2.93,2.93,0,0,1-.75-2.11,3.57,3.57,0,0,1,1.14-2.68,4.08,4.08,0,0,1,2.93-1.1,6.79,6.79,0,0,1,1.08.11l-.15,1.06a4,4,0,0,0-.91-.11,2.84,2.84,0,0,0-2.06.8,2.49,2.49,0,0,0-.81,1.85,2,2,0,0,0,.46,1.4,1.61,1.61,0,0,0,1.26.51A3.26,3.26,0,0,0,101.34,413.29Z"/><path d="M104.12,408.41l-.88,6.28h-1.19l.88-6.28Zm-1.06-2a.65.65,0,0,1,.21-.49.62.62,0,0,1,.48-.2.63.63,0,0,1,.48.2.68.68,0,0,1,.2.49.69.69,0,0,1-.2.48.67.67,0,0,1-.48.2.7.7,0,0,1-.69-.68Z"/><path d="M107.29,406.81l-.23,1.6a2.83,2.83,0,0,1,1.07-.2,2.39,2.39,0,0,1,1.86.84,3,3,0,0,1,.74,2.09,3.76,3.76,0,0,1-1,2.62,3.54,3.54,0,0,1-2.78,1.13h-.79l-.41,3h-1.19l1.11-8a3.34,3.34,0,0,0-.69.71,2.17,2.17,0,0,1-.35.44s-.06,0-.06-.09a2,2,0,0,1,.36-.9,3.82,3.82,0,0,1,.86-1l.32-2.31Zm-.35,2.48-.64,4.59h.57a2.42,2.42,0,0,0,1.93-.82,2.79,2.79,0,0,0,.72-1.92,2.06,2.06,0,0,0-.51-1.49,1.7,1.7,0,0,0-1.29-.54A1.75,1.75,0,0,0,106.94,409.29Z"/><path d="M113.62,408.41l-.88,6.28h-1.19l.88-6.28Zm-1.06-2a.68.68,0,0,1,.2-.49.65.65,0,0,1,.48-.2.62.62,0,0,1,.48.2.65.65,0,0,1,.21.49.7.7,0,0,1-.69.68.68.68,0,0,1-.68-.68Z"/><path d="M117.37,408.21a2.12,2.12,0,0,1,1.7.75,3,3,0,0,1,.64,2,4.52,4.52,0,0,1-.86,2.83,2.62,2.62,0,0,1-2.12,1.1,2.17,2.17,0,0,1-1.74-.74,3.12,3.12,0,0,1-.63-2.07,4.34,4.34,0,0,1,.87-2.76A2.62,2.62,0,0,1,117.37,408.21Zm0,.94a1.49,1.49,0,0,0-1.26.91,4.17,4.17,0,0,0-.53,2.14,2.1,2.1,0,0,0,.32,1.2.93.93,0,0,0,.79.47A1.49,1.49,0,0,0,118,413a3.91,3.91,0,0,0,.53-2.13,2.36,2.36,0,0,0-.3-1.27A1,1,0,0,0,117.37,409.15Z"/><path d="M124.66,408.87v1.24a3.34,3.34,0,0,0-1.89-.82.93.93,0,0,0-.61.19.58.58,0,0,0-.25.47.59.59,0,0,0,.16.38,5.33,5.33,0,0,0,1,.75,3.81,3.81,0,0,1,1.1,1,1.85,1.85,0,0,1,.28.93,1.79,1.79,0,0,1-.55,1.36,1.94,1.94,0,0,1-1.4.52,3.73,3.73,0,0,1-2.18-.82l.21-1.15a3.44,3.44,0,0,0,1.93.93.85.85,0,0,0,.58-.19.62.62,0,0,0,.23-.5.83.83,0,0,0-.16-.47,5,5,0,0,0-1-.79,3.83,3.83,0,0,1-1.06-1,1.66,1.66,0,0,1-.26-.88,1.7,1.7,0,0,1,.54-1.31,2,2,0,0,1,1.43-.5A3.37,3.37,0,0,1,124.66,408.87Z"/><path d="M134,413.29l-.14,1.15a3.59,3.59,0,0,1-1.75.45,2.65,2.65,0,0,1-2-.79,2.93,2.93,0,0,1-.76-2.11,3.58,3.58,0,0,1,1.15-2.68,4.06,4.06,0,0,1,2.93-1.1,6.79,6.79,0,0,1,1.08.11l-.16,1.06a3.91,3.91,0,0,0-.91-.11,2.82,2.82,0,0,0-2.05.8,2.46,2.46,0,0,0-.82,1.85,2,2,0,0,0,.46,1.4,1.62,1.62,0,0,0,1.26.51A3.3,3.3,0,0,0,134,413.29Z"/><path d="M137.88,408.21a2.12,2.12,0,0,1,1.7.75,3,3,0,0,1,.64,2,4.52,4.52,0,0,1-.86,2.83,2.62,2.62,0,0,1-2.12,1.1,2.17,2.17,0,0,1-1.74-.74,3.12,3.12,0,0,1-.63-2.07,4.34,4.34,0,0,1,.87-2.76A2.62,2.62,0,0,1,137.88,408.21Zm0,.94a1.49,1.49,0,0,0-1.26.91,4.17,4.17,0,0,0-.53,2.14,2,2,0,0,0,.32,1.2.93.93,0,0,0,.79.47,1.5,1.5,0,0,0,1.27-.85,4,4,0,0,0,.53-2.13,2.28,2.28,0,0,0-.31-1.27A.93.93,0,0,0,137.88,409.15Z"/><path d="M143.13,408.41l-.16,1.11,0,0a2.77,2.77,0,0,1,2.08-1.23,1.34,1.34,0,0,1,1.14.54,2.28,2.28,0,0,1,.4,1.38,2.89,2.89,0,0,1,0,.5l-.6,4h-1.18l.58-4a2.77,2.77,0,0,0,0-.39,1.16,1.16,0,0,0-.21-.75.59.59,0,0,0-.51-.26,1.08,1.08,0,0,0-.4.09,2.38,2.38,0,0,0-.48.27,4.63,4.63,0,0,0-.62.56,1.55,1.55,0,0,0-.39.48l-.58,4h-1.17l.88-6.28Z"/><path d="M157.34,408.41l-.88,6.28h-1.19l.12-.72,0,0a2.39,2.39,0,0,1-1.7.88,1.82,1.82,0,0,1-1.46-.73,2.64,2.64,0,0,1-.61-1.76,4.05,4.05,0,0,1,1.13-2.95,4.14,4.14,0,0,1,3.14-1.17A5.19,5.19,0,0,1,157.34,408.41Zm-1.81,4.47.51-3.63-.37,0a2.61,2.61,0,0,0-2.13.89,3.07,3.07,0,0,0-.73,2,2.09,2.09,0,0,0,.35,1.24,1.09,1.09,0,0,0,.9.48,1.51,1.51,0,0,0,.94-.43C155.34,413.13,155.52,413,155.53,412.88Z"/><path d="M162.67,413.29l-.14,1.15a3.59,3.59,0,0,1-1.75.45,2.65,2.65,0,0,1-2-.79A2.93,2.93,0,0,1,158,412a3.58,3.58,0,0,1,1.15-2.68,4.06,4.06,0,0,1,2.93-1.1,6.79,6.79,0,0,1,1.08.11l-.16,1.06a3.91,3.91,0,0,0-.91-.11,2.82,2.82,0,0,0-2.05.8,2.46,2.46,0,0,0-.82,1.85,2,2,0,0,0,.46,1.4,1.62,1.62,0,0,0,1.26.51A3.3,3.3,0,0,0,162.67,413.29Z"/><path d="M169.19,408.41l-.89,6.28h-1.18l.11-1.06a3,3,0,0,1-2.07,1.16,1.44,1.44,0,0,1-1.07-.45,1.79,1.79,0,0,1-.45-1.3,4.22,4.22,0,0,1,0-.49l.59-4.14h1.18l-.58,4.14a2.77,2.77,0,0,0,0,.39c0,.63.23.94.7.94s1.12-.46,1.89-1.39l.58-4.08Z"/><path d="M175.06,413.05l-.17,1.14a3.47,3.47,0,0,1-2.1.7,2.39,2.39,0,0,1-1.91-.83,3.25,3.25,0,0,1-.72-2.21,4,4,0,0,1,.86-2.59,2.66,2.66,0,0,1,2.12-1.05,2,2,0,0,1,1.59.74,2.77,2.77,0,0,1,.64,1.9c0,.19,0,.38,0,.58H171.4a4.3,4.3,0,0,0-.05.61,2,2,0,0,0,.47,1.37,1.61,1.61,0,0,0,1.2.5A3.67,3.67,0,0,0,175.06,413.05Zm-3.47-2.44h2.63a1.63,1.63,0,0,0-.3-1,1,1,0,0,0-.84-.38C172.4,409.19,171.9,409.66,171.59,410.61Z"/><path d="M178.35,408.41l-.19,1.19,0,0a5.28,5.28,0,0,1,.89-1.06,1.24,1.24,0,0,1,.78-.26,1.27,1.27,0,0,1,.52.1v1.34a1.51,1.51,0,0,0-.73-.21,1.21,1.21,0,0,0-.63.17,2.9,2.9,0,0,0-.66.75,2.82,2.82,0,0,0-.4.69l-.5,3.54h-1.18l.88-6.28Z"/><path d="M186.55,405.14l-1.34,9.55a5.63,5.63,0,0,1-1.61.2,3.56,3.56,0,0,1-2.45-.76,2.71,2.71,0,0,1-.86-2.15,3.71,3.71,0,0,1,1.12-2.57,3.92,3.92,0,0,1,3-1.2h.5l.43-3.07Zm-2.4,8.74.65-4.67h-.31a3,3,0,0,0-2.16.8,2.68,2.68,0,0,0-.82,1.94,1.89,1.89,0,0,0,.54,1.45,2.18,2.18,0,0,0,1.55.51A3.82,3.82,0,0,0,184.15,413.88Z"/><path d="M189.94,408.21a2.12,2.12,0,0,1,1.7.75,3,3,0,0,1,.64,2,4.52,4.52,0,0,1-.86,2.83,2.62,2.62,0,0,1-2.12,1.1,2.17,2.17,0,0,1-1.74-.74,3.12,3.12,0,0,1-.63-2.07,4.34,4.34,0,0,1,.87-2.76A2.62,2.62,0,0,1,189.94,408.21Zm0,.94a1.49,1.49,0,0,0-1.26.91,4.17,4.17,0,0,0-.53,2.14,2.1,2.1,0,0,0,.32,1.2.93.93,0,0,0,.79.47,1.49,1.49,0,0,0,1.27-.85,3.91,3.91,0,0,0,.53-2.13,2.36,2.36,0,0,0-.3-1.27A1,1,0,0,0,189.94,409.15Z"/><path d="M79.6,422.14v9.55H78.33v-7.27l-3.85,7.27-1.68-7.3-2.35,7.3H69.18l3.15-9.55h1.09l1.49,6.47,3.43-6.47Z"/><path d="M86.71,425.41l-.89,6.28H84.64l.11-1.06a3,3,0,0,1-2.07,1.16,1.47,1.47,0,0,1-1.08-.45,1.83,1.83,0,0,1-.44-1.3,2.77,2.77,0,0,1,0-.49l.58-4.14H83l-.59,4.14c0,.14,0,.27,0,.39,0,.63.23.94.69.94s1.12-.46,1.9-1.39l.57-4.08Z"/><path d="M89.64,425.41l-.16,1.11,0,0a2.77,2.77,0,0,1,2.08-1.23,1.34,1.34,0,0,1,1.14.54,2.22,2.22,0,0,1,.4,1.38,2.89,2.89,0,0,1,0,.5l-.6,4H91.31l.58-4a2.77,2.77,0,0,0,0-.39,1.22,1.22,0,0,0-.2-.75.62.62,0,0,0-.52-.26,1.08,1.08,0,0,0-.4.09,2.38,2.38,0,0,0-.48.27,5.34,5.34,0,0,0-.62.56,1.55,1.55,0,0,0-.39.48l-.58,4H87.56l.88-6.28Z"/><path d="M96.1,425.41l-.88,6.28H94l.89-6.28Zm-1-2a.64.64,0,0,1,.2-.49.68.68,0,0,1,1,0,.64.64,0,0,1,.2.49.65.65,0,0,1-.2.48.68.68,0,0,1-1,0A.65.65,0,0,1,95.05,423.44Z"/><path d="M101.34,430.29l-.14,1.15a3.56,3.56,0,0,1-1.75.45,2.67,2.67,0,0,1-2-.79,2.93,2.93,0,0,1-.75-2.11,3.57,3.57,0,0,1,1.14-2.68,4.08,4.08,0,0,1,2.93-1.1,6.79,6.79,0,0,1,1.08.11l-.15,1.06a4,4,0,0,0-.91-.11,2.84,2.84,0,0,0-2.06.8,2.49,2.49,0,0,0-.81,1.85,2,2,0,0,0,.46,1.4,1.61,1.61,0,0,0,1.26.51A3.26,3.26,0,0,0,101.34,430.29Z"/><path d="M104.12,425.41l-.88,6.28h-1.19l.88-6.28Zm-1.06-2a.65.65,0,0,1,.21-.49.62.62,0,0,1,.48-.2.63.63,0,0,1,.48.2.68.68,0,0,1,.2.49.69.69,0,0,1-.2.48.67.67,0,0,1-.48.2.7.7,0,0,1-.69-.68Z"/><path d="M107.29,423.81l-.23,1.6a2.83,2.83,0,0,1,1.07-.2,2.39,2.39,0,0,1,1.86.84,3,3,0,0,1,.74,2.09,3.76,3.76,0,0,1-1,2.62,3.54,3.54,0,0,1-2.78,1.13h-.79l-.41,3h-1.19l1.11-8a3.34,3.34,0,0,0-.69.71,2.17,2.17,0,0,1-.35.44s-.06,0-.06-.09a2,2,0,0,1,.36-.9,3.82,3.82,0,0,1,.86-1l.32-2.31Zm-.35,2.48-.64,4.59h.57a2.42,2.42,0,0,0,1.93-.82,2.79,2.79,0,0,0,.72-1.92,2.06,2.06,0,0,0-.51-1.49,1.7,1.7,0,0,0-1.29-.54A1.75,1.75,0,0,0,106.94,426.29Z"/><path d="M113.62,425.41l-.88,6.28h-1.19l.88-6.28Zm-1.06-2a.68.68,0,0,1,.2-.49.65.65,0,0,1,.48-.2.62.62,0,0,1,.48.2.65.65,0,0,1,.21.49.7.7,0,0,1-.69.68.68.68,0,0,1-.68-.68Z"/><path d="M117.37,425.21a2.12,2.12,0,0,1,1.7.75,3,3,0,0,1,.64,2,4.52,4.52,0,0,1-.86,2.83,2.62,2.62,0,0,1-2.12,1.1,2.17,2.17,0,0,1-1.74-.74,3.12,3.12,0,0,1-.63-2.07,4.34,4.34,0,0,1,.87-2.76A2.62,2.62,0,0,1,117.37,425.21Zm0,.94a1.49,1.49,0,0,0-1.26.91,4.17,4.17,0,0,0-.53,2.14,2.1,2.1,0,0,0,.32,1.2.93.93,0,0,0,.79.47A1.49,1.49,0,0,0,118,430a3.91,3.91,0,0,0,.53-2.13,2.36,2.36,0,0,0-.3-1.27A1,1,0,0,0,117.37,426.15Z"/><path d="M124.66,425.87v1.24a3.34,3.34,0,0,0-1.89-.82.93.93,0,0,0-.61.19.58.58,0,0,0-.25.47.59.59,0,0,0,.16.38,5.33,5.33,0,0,0,1,.75,3.81,3.81,0,0,1,1.1,1,1.85,1.85,0,0,1,.28.93,1.79,1.79,0,0,1-.55,1.36,1.94,1.94,0,0,1-1.4.52,3.73,3.73,0,0,1-2.18-.82l.21-1.15a3.44,3.44,0,0,0,1.93.93.85.85,0,0,0,.58-.19.62.62,0,0,0,.23-.5.83.83,0,0,0-.16-.47,5,5,0,0,0-1-.79,3.83,3.83,0,0,1-1.06-1,1.66,1.66,0,0,1-.26-.88,1.7,1.7,0,0,1,.54-1.31,2,2,0,0,1,1.43-.5A3.37,3.37,0,0,1,124.66,425.87Z"/><path d="M134,430.29l-.14,1.15a3.59,3.59,0,0,1-1.75.45,2.65,2.65,0,0,1-2-.79,2.93,2.93,0,0,1-.76-2.11,3.58,3.58,0,0,1,1.15-2.68,4.06,4.06,0,0,1,2.93-1.1,6.79,6.79,0,0,1,1.08.11l-.16,1.06a3.91,3.91,0,0,0-.91-.11,2.82,2.82,0,0,0-2.05.8,2.46,2.46,0,0,0-.82,1.85,2,2,0,0,0,.46,1.4,1.62,1.62,0,0,0,1.26.51A3.3,3.3,0,0,0,134,430.29Z"/><path d="M137.88,425.21a2.12,2.12,0,0,1,1.7.75,3,3,0,0,1,.64,2,4.52,4.52,0,0,1-.86,2.83,2.62,2.62,0,0,1-2.12,1.1,2.17,2.17,0,0,1-1.74-.74,3.12,3.12,0,0,1-.63-2.07,4.34,4.34,0,0,1,.87-2.76A2.62,2.62,0,0,1,137.88,425.21Zm0,.94a1.49,1.49,0,0,0-1.26.91,4.17,4.17,0,0,0-.53,2.14,2,2,0,0,0,.32,1.2.93.93,0,0,0,.79.47,1.5,1.5,0,0,0,1.27-.85,4,4,0,0,0,.53-2.13,2.28,2.28,0,0,0-.31-1.27A.93.93,0,0,0,137.88,426.15Z"/><path d="M143.13,425.41l-.16,1.11,0,0a2.77,2.77,0,0,1,2.08-1.23,1.34,1.34,0,0,1,1.14.54,2.28,2.28,0,0,1,.4,1.38,2.89,2.89,0,0,1,0,.5l-.6,4h-1.18l.58-4a2.77,2.77,0,0,0,0-.39,1.16,1.16,0,0,0-.21-.75.59.59,0,0,0-.51-.26,1.08,1.08,0,0,0-.4.09,2.38,2.38,0,0,0-.48.27,4.63,4.63,0,0,0-.62.56,1.55,1.55,0,0,0-.39.48l-.58,4h-1.17l.88-6.28Z"/><path d="M154,423.81l-.22,1.6a2.78,2.78,0,0,1,1.06-.2,2.39,2.39,0,0,1,1.86.84,3,3,0,0,1,.75,2.09,3.81,3.81,0,0,1-1,2.62,3.54,3.54,0,0,1-2.78,1.13h-.79l-.42,3h-1.19l1.12-8a2.92,2.92,0,0,0-.69.71c-.21.3-.33.44-.36.44s0,0,0-.09a2,2,0,0,1,.36-.9,3.64,3.64,0,0,1,.86-1l.32-2.31Zm-.34,2.48-.65,4.59h.58a2.44,2.44,0,0,0,1.93-.82,2.79,2.79,0,0,0,.71-1.92,2.05,2.05,0,0,0-.5-1.49,1.7,1.7,0,0,0-1.29-.54A1.72,1.72,0,0,0,153.68,426.29Z"/><path d="M160.55,425.41l-.18,1.19,0,0a5.69,5.69,0,0,1,.88-1.06,1.24,1.24,0,0,1,.78-.26,1.27,1.27,0,0,1,.52.1v1.34a1.48,1.48,0,0,0-.73-.21,1.18,1.18,0,0,0-.62.17,2.9,2.9,0,0,0-.66.75,3,3,0,0,0-.41.69l-.49,3.54h-1.19l.88-6.28Z"/><path d="M165.58,425.21a2.14,2.14,0,0,1,1.7.75,3,3,0,0,1,.64,2,4.52,4.52,0,0,1-.86,2.83,2.62,2.62,0,0,1-2.12,1.1,2.17,2.17,0,0,1-1.74-.74,3.12,3.12,0,0,1-.63-2.07,4.34,4.34,0,0,1,.87-2.76A2.62,2.62,0,0,1,165.58,425.21Zm0,.94a1.49,1.49,0,0,0-1.26.91,4.07,4.07,0,0,0-.53,2.14,2,2,0,0,0,.32,1.2.93.93,0,0,0,.79.47,1.5,1.5,0,0,0,1.27-.85,4,4,0,0,0,.53-2.13,2.28,2.28,0,0,0-.31-1.27A.93.93,0,0,0,165.58,426.15Z"/><path d="M173.73,425.41l-4.51,9.5H168l1.71-3.61-1.22-5.89h1.19l.87,4.32,2-4.32Z"/><path d="M178.53,430.05l-.17,1.14a3.47,3.47,0,0,1-2.1.7,2.39,2.39,0,0,1-1.91-.83,3.25,3.25,0,0,1-.72-2.21,3.94,3.94,0,0,1,.87-2.59,2.63,2.63,0,0,1,2.11-1.05,2,2,0,0,1,1.59.74,2.77,2.77,0,0,1,.64,1.9,3.86,3.86,0,0,1,0,.58h-3.92a3.23,3.23,0,0,0-.06.61,1.92,1.92,0,0,0,.48,1.37,1.57,1.57,0,0,0,1.19.5A3.67,3.67,0,0,0,178.53,430.05Zm-3.47-2.44h2.63a1.63,1.63,0,0,0-.3-1,1,1,0,0,0-.83-.38C175.87,426.19,175.37,426.66,175.06,427.61Z"/><path d="M184.23,430.29l-.14,1.15a3.59,3.59,0,0,1-1.75.45,2.65,2.65,0,0,1-2-.79,2.93,2.93,0,0,1-.75-2.11,3.57,3.57,0,0,1,1.14-2.68,4.06,4.06,0,0,1,2.93-1.1,6.79,6.79,0,0,1,1.08.11l-.16,1.06a3.91,3.91,0,0,0-.91-.11,2.82,2.82,0,0,0-2.05.8,2.46,2.46,0,0,0-.82,1.85,2.05,2.05,0,0,0,.46,1.4,1.62,1.62,0,0,0,1.26.51A3.3,3.3,0,0,0,184.23,430.29Z"/><path d="M188.61,425.41l-.13.93h-1.25l-.61,3.43a2.81,2.81,0,0,0-.05.44c0,.41.22.62.66.62a2.39,2.39,0,0,0,1.15-.38l-.06,1.16a3.29,3.29,0,0,1-1.31.28,1.79,1.79,0,0,1-1.22-.39,1.31,1.31,0,0,1-.45-1,1.82,1.82,0,0,1,0-.32l.66-3.8h-1.11l.15-.93h1.15l.23-1.29h1.17l-.23,1.29Z"/><path d="M192.06,425.21a2.12,2.12,0,0,1,1.7.75,3,3,0,0,1,.64,2,4.52,4.52,0,0,1-.86,2.83,2.62,2.62,0,0,1-2.12,1.1,2.17,2.17,0,0,1-1.74-.74,3.12,3.12,0,0,1-.63-2.07,4.34,4.34,0,0,1,.87-2.76A2.62,2.62,0,0,1,192.06,425.21Zm0,.94a1.49,1.49,0,0,0-1.26.91,4.17,4.17,0,0,0-.53,2.14,2.1,2.1,0,0,0,.32,1.2.93.93,0,0,0,.79.47,1.5,1.5,0,0,0,1.27-.85,3.91,3.91,0,0,0,.53-2.13,2.28,2.28,0,0,0-.31-1.27A.93.93,0,0,0,192.06,426.15Z"/><path d="M205.4,422.14l-1.34,9.55a5.58,5.58,0,0,1-1.61.2,3.56,3.56,0,0,1-2.45-.76,2.71,2.71,0,0,1-.86-2.15,3.75,3.75,0,0,1,1.12-2.57,3.92,3.92,0,0,1,3-1.2h.5l.43-3.07Zm-2.4,8.74.65-4.67h-.31a3,3,0,0,0-2.15.8,2.64,2.64,0,0,0-.82,1.94,1.89,1.89,0,0,0,.54,1.45,2.15,2.15,0,0,0,1.54.51A3.72,3.72,0,0,0,203,430.88Z"/><path d="M210.72,430.05l-.17,1.14a3.47,3.47,0,0,1-2.1.7,2.37,2.37,0,0,1-1.91-.83,3.25,3.25,0,0,1-.72-2.21,3.93,3.93,0,0,1,.86-2.59,2.65,2.65,0,0,1,2.12-1.05,2,2,0,0,1,1.59.74,2.81,2.81,0,0,1,.63,1.9,3.86,3.86,0,0,1,0,.58h-3.92a3.23,3.23,0,0,0-.06.61,1.92,1.92,0,0,0,.48,1.37,1.58,1.58,0,0,0,1.19.5A3.67,3.67,0,0,0,210.72,430.05Zm-3.48-2.44h2.64a1.63,1.63,0,0,0-.3-1,1,1,0,0,0-.84-.38C208.06,426.19,207.56,426.66,207.24,427.61Z"/><path d="M221.55,425.41l-.89,6.28h-1.19l.12-.72,0,0a2.39,2.39,0,0,1-1.69.88,1.83,1.83,0,0,1-1.47-.73,2.68,2.68,0,0,1-.6-1.76,4,4,0,0,1,1.12-2.95,4.16,4.16,0,0,1,3.14-1.17A5.32,5.32,0,0,1,221.55,425.41Zm-1.82,4.47.52-3.63-.37,0a2.62,2.62,0,0,0-2.14.89,3.12,3.12,0,0,0-.73,2,2.09,2.09,0,0,0,.35,1.24,1.09,1.09,0,0,0,.9.48,1.49,1.49,0,0,0,.94-.43C219.55,430.13,219.72,430,219.73,429.88Z"/><path d="M226.87,430.29l-.14,1.15a3.56,3.56,0,0,1-1.75.45,2.67,2.67,0,0,1-2-.79,2.93,2.93,0,0,1-.75-2.11,3.57,3.57,0,0,1,1.14-2.68,4.08,4.08,0,0,1,2.93-1.1,6.79,6.79,0,0,1,1.08.11l-.16,1.06a3.82,3.82,0,0,0-.9-.11,2.84,2.84,0,0,0-2.06.8,2.5,2.5,0,0,0-.82,1.85,2,2,0,0,0,.47,1.4,1.59,1.59,0,0,0,1.26.51A3.26,3.26,0,0,0,226.87,430.29Z"/><path d="M233.4,425.41l-.9,6.28h-1.17l.11-1.06a3,3,0,0,1-2.08,1.16,1.44,1.44,0,0,1-1.07-.45,1.78,1.78,0,0,1-.44-1.3,4.15,4.15,0,0,1,0-.49l.59-4.14h1.19l-.59,4.14a2.77,2.77,0,0,0,0,.39c0,.63.24.94.7.94s1.12-.46,1.89-1.39l.58-4.08Z"/><path d="M239.26,430.05l-.17,1.14a3.47,3.47,0,0,1-2.1.7,2.39,2.39,0,0,1-1.91-.83,3.25,3.25,0,0,1-.72-2.21,3.94,3.94,0,0,1,.87-2.59,2.63,2.63,0,0,1,2.11-1.05,2,2,0,0,1,1.6.74,2.81,2.81,0,0,1,.63,1.9,3.86,3.86,0,0,1,0,.58h-3.92a3.23,3.23,0,0,0-.06.61,1.92,1.92,0,0,0,.48,1.37,1.57,1.57,0,0,0,1.19.5A3.67,3.67,0,0,0,239.26,430.05Zm-3.47-2.44h2.63a1.63,1.63,0,0,0-.3-1,1,1,0,0,0-.83-.38C236.6,426.19,236.1,426.66,235.79,427.61Z"/><path d="M242.55,425.41l-.19,1.19,0,0a5.64,5.64,0,0,1,.89-1.06,1.24,1.24,0,0,1,.78-.26,1.27,1.27,0,0,1,.52.1v1.34a1.48,1.48,0,0,0-.73-.21,1.18,1.18,0,0,0-.62.17,2.72,2.72,0,0,0-.67.75,2.82,2.82,0,0,0-.4.69l-.49,3.54h-1.19l.88-6.28Z"/><path d="M250.75,422.14l-1.34,9.55a5.58,5.58,0,0,1-1.61.2,3.56,3.56,0,0,1-2.45-.76,2.71,2.71,0,0,1-.86-2.15,3.71,3.71,0,0,1,1.12-2.57,3.92,3.92,0,0,1,3-1.2h.5l.43-3.07Zm-2.4,8.74.65-4.67h-.31a3,3,0,0,0-2.15.8,2.64,2.64,0,0,0-.82,1.94,1.89,1.89,0,0,0,.54,1.45,2.15,2.15,0,0,0,1.54.51A3.72,3.72,0,0,0,248.35,430.88Z"/><path d="M254.15,425.21a2.1,2.1,0,0,1,1.69.75,3,3,0,0,1,.64,2,4.46,4.46,0,0,1-.86,2.83,2.6,2.6,0,0,1-2.12,1.1,2.15,2.15,0,0,1-1.73-.74,3.12,3.12,0,0,1-.63-2.07,4.34,4.34,0,0,1,.87-2.76A2.61,2.61,0,0,1,254.15,425.21Zm0,.94a1.51,1.51,0,0,0-1.27.91,4.17,4.17,0,0,0-.53,2.14,2.1,2.1,0,0,0,.32,1.2.94.94,0,0,0,.79.47,1.52,1.52,0,0,0,1.28-.85,4,4,0,0,0,.53-2.13,2.36,2.36,0,0,0-.31-1.27A1,1,0,0,0,254.15,426.15Z"/><path d="M77,456.14l-.17,1.19H74.13L73,465.69H71.64l1.18-8.36H70.13l.17-1.19Z"/><path d="M81,456a3,3,0,0,1,2.44,1.11,4.33,4.33,0,0,1,.93,2.9A6.27,6.27,0,0,1,83,464.17a4.08,4.08,0,0,1-3.24,1.65,3.07,3.07,0,0,1-2.45-1.13,4.32,4.32,0,0,1-1-2.9,6.6,6.6,0,0,1,1.31-4A4,4,0,0,1,81,456Zm-1.21,8.65a2.79,2.79,0,0,0,2.31-1.43,5.86,5.86,0,0,0,1-3.44,3,3,0,0,0-.57-1.93,1.84,1.84,0,0,0-1.53-.7,2.76,2.76,0,0,0-2.4,1.47,6.12,6.12,0,0,0-.93,3.33,3,3,0,0,0,.59,2A1.86,1.86,0,0,0,79.77,464.67Z"/><path d="M91.49,456.14l-.17,1.19H88.63l-1.17,8.36H86.14l1.17-8.36H84.63l.17-1.19Z"/><path d="M94.92,456.09l1.86,9.6H95.6l-.57-3H92l-1.26,3H89.49l4.23-9.6Zm-2.46,5.6h2.38l-.73-3.92Z"/><path d="M100.38,456.14l-1.26,8.49h3.93l-.16,1.06H97.77l1.34-9.55Z"/><path d="M115.13,456l-.25,1.2h-.7a5.15,5.15,0,0,0-3.8,1.33,4.36,4.36,0,0,0-1.33,3.21,3,3,0,0,0,.69,2.08,2.28,2.28,0,0,0,1.82.77,3.92,3.92,0,0,0,1.39-.31,5.5,5.5,0,0,0,1.46-.86l-.2,1.54a5.79,5.79,0,0,1-2.83.84,3.48,3.48,0,0,1-2.66-1.11,4.08,4.08,0,0,1-1-2.86,5.41,5.41,0,0,1,1.79-4.2,6.74,6.74,0,0,1,4.74-1.63Z"/><path d="M120.08,456a3,3,0,0,1,2.44,1.11,4.29,4.29,0,0,1,.94,2.9,6.33,6.33,0,0,1-1.36,4.14,4.1,4.1,0,0,1-3.25,1.65,3.09,3.09,0,0,1-2.45-1.13,4.32,4.32,0,0,1-1-2.9,6.6,6.6,0,0,1,1.31-4A4,4,0,0,1,120.08,456Zm-1.2,8.65a2.79,2.79,0,0,0,2.3-1.43,5.86,5.86,0,0,0,1-3.44,3,3,0,0,0-.56-1.93,1.86,1.86,0,0,0-1.53-.7,2.77,2.77,0,0,0-2.41,1.47,6.11,6.11,0,0,0-.92,3.33,3,3,0,0,0,.58,2A1.86,1.86,0,0,0,118.88,464.67Z"/><path d="M133.41,456.14l-1.35,9.55h-.68l-4.75-7-1,7h-1.19l1.34-9.55h.65l4.77,7,1-7Z"/><path d="M141.25,456.09l1.85,9.6h-1.17l-.57-3h-3l-1.26,3h-1.28l4.23-9.6Zm-2.47,5.6h2.39l-.74-3.92Z"/><path d="M151.17,456l-.25,1.2h-.7a5.15,5.15,0,0,0-3.8,1.33,4.36,4.36,0,0,0-1.33,3.21,3,3,0,0,0,.69,2.08,2.28,2.28,0,0,0,1.82.77,3.92,3.92,0,0,0,1.39-.31,5.67,5.67,0,0,0,1.46-.86l-.2,1.54a5.79,5.79,0,0,1-2.83.84,3.48,3.48,0,0,1-2.66-1.11,4,4,0,0,1-1-2.86,5.41,5.41,0,0,1,1.79-4.2,6.74,6.74,0,0,1,4.74-1.63Z"/><path d="M158.57,456.14l-.17,1.19h-2.69l-1.17,8.36h-1.32l1.18-8.36h-2.69l.17-1.19Z"/><path d="M162.56,456a3,3,0,0,1,2.44,1.11,4.33,4.33,0,0,1,.93,2.9,6.27,6.27,0,0,1-1.36,4.14,4.08,4.08,0,0,1-3.24,1.65,3.07,3.07,0,0,1-2.45-1.13,4.32,4.32,0,0,1-1-2.9,6.6,6.6,0,0,1,1.31-4A4,4,0,0,1,162.56,456Zm-1.21,8.65a2.79,2.79,0,0,0,2.31-1.43,5.86,5.86,0,0,0,1-3.44,3,3,0,0,0-.57-1.93,1.84,1.84,0,0,0-1.53-.7,2.76,2.76,0,0,0-2.4,1.47,6.12,6.12,0,0,0-.93,3.33,3,3,0,0,0,.59,2A1.86,1.86,0,0,0,161.35,464.67Z"/><path d="M174.1,456.09l1.85,9.6h-1.18l-.56-3h-3l-1.26,3h-1.28l4.23-9.6Zm-2.47,5.6H174l-.74-3.92Z"/><path d="M177,465.69l1.36-9.55h1.13a6.13,6.13,0,0,1,4.13,1.28,4.42,4.42,0,0,1,1.48,3.52,4.71,4.71,0,0,1-1.3,3.46,5,5,0,0,1-3.69,1.29Zm2.48-8.4-1,7.27h1.15a5.72,5.72,0,0,0,2.42-.39,2.91,2.91,0,0,0,1.24-1.24,4.2,4.2,0,0,0,.47-2,3.27,3.27,0,0,0-1.15-2.65,4.05,4.05,0,0,0-2.67-1Z"/><path d="M196,456.14v9.55h-1.26v-7.27l-3.85,7.27-1.69-7.3-2.35,7.3h-1.26l3.15-9.55h1.09l1.5,6.47,3.42-6.47Z"/><path d="M200.22,456.14l-1.34,9.55h-1.32l1.34-9.55Z"/><path d="M209.88,456.14l-1.35,9.55h-.68l-4.76-7-1,7h-1.18l1.34-9.55h.65l4.76,7,1-7Z"/><path d="M216.16,456.4l-.19,1.3a3,3,0,0,0-1.67-.5,1.85,1.85,0,0,0-1.23.39,1.35,1.35,0,0,0-.45,1.05,1.29,1.29,0,0,0,.22.68,6.54,6.54,0,0,0,1.27,1.2,5.26,5.26,0,0,1,1.4,1.5,2.67,2.67,0,0,1,.34,1.28,2.37,2.37,0,0,1-.77,1.77,2.84,2.84,0,0,1-2.06.75,4.53,4.53,0,0,1-2.31-.69l.2-1.4a4.14,4.14,0,0,0,2.24.91,1.59,1.59,0,0,0,1-.33,1.07,1.07,0,0,0,.46-.9,1.51,1.51,0,0,0-.23-.75,6.71,6.71,0,0,0-1.3-1.26,5.11,5.11,0,0,1-1.38-1.5,2.76,2.76,0,0,1-.33-1.27,2.32,2.32,0,0,1,.92-1.86,3.3,3.3,0,0,1,2.16-.75A4.46,4.46,0,0,1,216.16,456.4Z"/><path d="M219.63,456.14l-1.35,9.55H217l1.34-9.55Z"/><path d="M227.59,456.14l-.17,1.19h-2.69l-1.18,8.36h-1.31l1.17-8.36h-2.69l.18-1.19Z"/><path d="M228.77,456.14h1.72a3.35,3.35,0,0,1,2.57.76,2.64,2.64,0,0,1,.68,1.83,2.27,2.27,0,0,1-.51,1.47,2.66,2.66,0,0,1-1.45.87,2.42,2.42,0,0,1,.8,1.06l1.71,3.56h-1.37l-1.09-2.27a8.31,8.31,0,0,0-.88-1.5,1.39,1.39,0,0,0-1.11-.44h-.51l-.59,4.21h-1.31Zm1.15,1.14-.42,3.07h.67a2.52,2.52,0,0,0,1.65-.46,1.48,1.48,0,0,0,.57-1.22c0-.93-.58-1.39-1.73-1.39Z"/><path d="M239.29,456.09l1.85,9.6H240l-.57-3h-3l-1.26,3h-1.28l4.23-9.6Zm-2.46,5.6h2.38l-.74-3.92Z"/><path d="M248.05,456.14l-.17,1.19h-2.69L244,465.69H242.7l1.17-8.36h-2.69l.18-1.19Z"/><path d="M250.59,456.14l-1.35,9.55h-1.31l1.34-9.55Z"/><path d="M258.66,456.14,254,465.78h-.5l-1.86-9.64h1.24l1.27,6.67,3.19-6.67Z"/><path d="M263,456a3,3,0,0,1,2.44,1.11,4.29,4.29,0,0,1,.94,2.9,6.33,6.33,0,0,1-1.36,4.14,4.1,4.1,0,0,1-3.25,1.65,3.09,3.09,0,0,1-2.45-1.13,4.31,4.31,0,0,1-.95-2.9,6.59,6.59,0,0,1,1.3-4A4,4,0,0,1,263,456Zm-1.2,8.65a2.79,2.79,0,0,0,2.3-1.43,5.86,5.86,0,0,0,1-3.44,3,3,0,0,0-.56-1.93,1.86,1.86,0,0,0-1.53-.7,2.77,2.77,0,0,0-2.41,1.47,6.2,6.2,0,0,0-.92,3.33,3,3,0,0,0,.58,2A1.89,1.89,0,0,0,261.75,464.67Z"/><path d="M278.06,456.14l-4.46,9.68h-1.3l3.91-8.5h-3.84l.16-1.18Z"/><path d="M284.34,456l-.88,5.71h1.37l-.14,1h-1.41l-.46,2.93h-1.23l.5-2.93h-3.57v-.55l5.06-6.19Zm-4.22,5.71h2.14l.56-3.32Z"/><path d="M286.93,458l.18-1.36a4.17,4.17,0,0,1,2.16-.66,2.28,2.28,0,0,1,1.67.63,2.2,2.2,0,0,1,.64,1.65,4.83,4.83,0,0,1-.91,2.47,37.32,37.32,0,0,1-2.85,3.75h3.64l-.16,1.17h-5.8q2.79-3.4,3.82-5a5.15,5.15,0,0,0,1-2.31,1.1,1.1,0,0,0-.36-.87,1.44,1.44,0,0,0-1-.32A3.61,3.61,0,0,0,286.93,458Z"/><path d="M300.45,456h.67a12.5,12.5,0,0,0-1.44,2.41,11.74,11.74,0,0,0-1.08,3.42,18.36,18.36,0,0,0-.28,2.72,10.35,10.35,0,0,0,.87,4.34h-.59a12.35,12.35,0,0,1-1-2.66,10.45,10.45,0,0,1-.39-2.68,9.14,9.14,0,0,1,.75-3.62A17,17,0,0,1,300.45,456Z"/><path d="M306.33,456.14l-2.75,4,0,0a2,2,0,0,1,1.23-.32,2.13,2.13,0,0,1,1.64.65,2.41,2.41,0,0,1,.61,1.74,3.5,3.5,0,0,1-1,2.48,3,3,0,0,1-2.28,1.09A2.29,2.29,0,0,1,302,465a3.15,3.15,0,0,1-.68-2.13,4.59,4.59,0,0,1,.37-1.61,9.5,9.5,0,0,1,.94-1.75l2.33-3.41Zm-2.49,8.49a1.82,1.82,0,0,0,1.39-.69,2.28,2.28,0,0,0,.62-1.59,1.36,1.36,0,0,0-.36-1,1.23,1.23,0,0,0-.92-.38,2,2,0,0,0-1.43.62,2,2,0,0,0-.6,1.44,1.77,1.77,0,0,0,.36,1.14A1.19,1.19,0,0,0,303.84,464.63Z"/><path d="M315.22,456.14l-4.46,9.68h-1.31l3.92-8.5h-3.85l.17-1.18Z"/><path d="M318.06,456a2.06,2.06,0,0,1,1.5.62,2.12,2.12,0,1,1-3.62,1.51,2.1,2.1,0,0,1,2.12-2.13Zm5.9,0-6.28,9.8h-1.06l6.29-9.8Zm-5.9,3.24a1,1,0,0,0,.78-.33,1.11,1.11,0,0,0-1.56-1.57,1,1,0,0,0-.33.79,1.11,1.11,0,0,0,.34.77A1.07,1.07,0,0,0,318.06,459.26Zm4.45,2.29a2.08,2.08,0,0,1,1.51.62,2,2,0,0,1,.62,1.51,2.15,2.15,0,0,1-2.13,2.12,2.13,2.13,0,0,1-2.12-2.12,2.1,2.1,0,0,1,2.12-2.13Zm0,3.24a1.07,1.07,0,0,0,.79-.33,1.1,1.1,0,0,0,.32-.78,1.11,1.11,0,1,0-2.21,0,1.17,1.17,0,0,0,1.1,1.11Z"/><path d="M324.94,468.91h-.68a13.63,13.63,0,0,0,2.53-5.82,19.48,19.48,0,0,0,.27-2.73,10.38,10.38,0,0,0-.86-4.34h.58a12.37,12.37,0,0,1,1,2.66,10.52,10.52,0,0,1,.39,2.69,9.17,9.17,0,0,1-.75,3.62A17,17,0,0,1,324.94,468.91Z"/><line class="cls-5" x1="62.79" y1="444.43" x2="352.13" y2="444.43"/><rect class="cls-6" x="52.76" y="405.15" width="10.02" height="10.02"/><rect class="cls-7" x="52.76" y="422.28" width="10.02" height="10.02"/><path class="cls-7" d="M356.18,102.52c26,.79,49.88,7.9,71.47,22.14,32.15,21.21,52.61,50.75,60.05,88.53C502.35,287.57,456,353.86,391,372.3c-34.23,9.71-67.77,6.92-99.74-8.72-33.07-16.18-55.14-42.51-68-77,2.48-.9,4.87-1.79,7.27-2.65l53.86-19.24,44.42-15.85c7.6-2.72,15.2-5.49,22.81-8.17a1.79,1.79,0,0,0,1.37-2c.06-5.43.19-10.86.31-16.29.15-7,.29-14.06.46-21.08.11-4.3.32-8.6.42-12.89.15-7.18.22-14.36.38-21.54s.44-14.21.61-21.31c.18-7.63.3-15.25.46-22.88.14-6.45.31-12.9.47-19.36C356.1,103.14,356.14,102.93,356.18,102.52Z"/><path class="cls-6" d="M360.42,87.33c0,26.45-7.78,153.51-7.78,153.51L211.32,291.36S165.39,106.8,360.42,87.33Z"/><path class="cls-8" d="M361,261.65h6.36v1.83h-4.49v3.62a3.17,3.17,0,0,1,.44,0,4.8,4.8,0,0,1,3.42,1.26,4.23,4.23,0,0,1,1.34,3.23,4.34,4.34,0,0,1-1.32,3.28,4.76,4.76,0,0,1-3.44,1.27,7.36,7.36,0,0,1-3.39-.84v-2.11a5.57,5.57,0,0,0,3,1,3.24,3.24,0,0,0,2.17-.75,2.4,2.4,0,0,0-.08-3.76,3.75,3.75,0,0,0-2.38-.76,4.39,4.39,0,0,0-1.66.21Z"/><path class="cls-8" d="M373.59,261.65h2.05V276h-2.05Z"/><path class="cls-8" d="M383.63,267.64h.12a3.32,3.32,0,0,0,2.05-.55,2.15,2.15,0,0,0,0-3.16,2.6,2.6,0,0,0-1.79-.6,5.62,5.62,0,0,0-2.48.7v-2a6,6,0,0,1,2.73-.62,4.47,4.47,0,0,1,3.12,1,3.63,3.63,0,0,1,1.14,2.83,3.49,3.49,0,0,1-.44,1.83,3.56,3.56,0,0,1-1.4,1.27,2.93,2.93,0,0,1,1.23.81,3.4,3.4,0,0,1,.6,1.15,4.57,4.57,0,0,1,.22,1.44,4.16,4.16,0,0,1-1.25,3.1,4.34,4.34,0,0,1-3.16,1.23,6.69,6.69,0,0,1-3.15-.79v-2.24a5.91,5.91,0,0,0,3.15,1,2.27,2.27,0,0,0,1.66-.62,2.14,2.14,0,0,0,.64-1.63,2.26,2.26,0,0,0-.53-1.48,1.88,1.88,0,0,0-.68-.53,7,7,0,0,0-1.61-.32l-.19,0Z"/><path class="cls-8" d="M292.29,209.26h5.45v2h-9.06v-.15l.86-1q2-2.51,3.21-4.25a15.78,15.78,0,0,0,1.56-2.63,4.57,4.57,0,0,0,.37-1.77,2.72,2.72,0,0,0-.69-1.94,2.39,2.39,0,0,0-1.83-.73,3.3,3.3,0,0,0-1.69.5,5.19,5.19,0,0,0-1.5,1.43v-2.6a5.38,5.38,0,0,1,3.44-1.36A4.1,4.1,0,0,1,295.5,198a4.37,4.37,0,0,1,1.22,3.18,6.35,6.35,0,0,1-.3,1.84,10.7,10.7,0,0,1-1.08,2.25,31,31,0,0,1-2.61,3.49Z"/><path class="cls-8" d="M302.79,209.26h5.45v2h-9.06v-.15l.86-1q2-2.51,3.21-4.25a15.78,15.78,0,0,0,1.56-2.63,4.57,4.57,0,0,0,.37-1.77,2.72,2.72,0,0,0-.69-1.94,2.39,2.39,0,0,0-1.83-.73,3.3,3.3,0,0,0-1.69.5,5.19,5.19,0,0,0-1.5,1.43v-2.6a5.38,5.38,0,0,1,3.44-1.36A4.1,4.1,0,0,1,306,198a4.37,4.37,0,0,1,1.22,3.18,6.35,6.35,0,0,1-.3,1.84,10.7,10.7,0,0,1-1.08,2.25,31,31,0,0,1-2.61,3.49Z"/><path class="cls-8" d="M312.89,211.4l-1.26-1.49a12,12,0,0,0,2.78-2.43,7.65,7.65,0,0,0,1.58-2.94,4.24,4.24,0,0,1-2.28.6,3.76,3.76,0,0,1-2.82-1.22A4.26,4.26,0,0,1,311,198a4.16,4.16,0,0,1,3.06-1.24,4.24,4.24,0,0,1,3.32,1.46,5.49,5.49,0,0,1,1.29,3.77,10.06,10.06,0,0,1-1.62,5.26A12.16,12.16,0,0,1,312.89,211.4Zm3.5-8.9a8.26,8.26,0,0,0,.13-1.07,3,3,0,0,0-.69-2,2.3,2.3,0,0,0-1.78-.79,2.22,2.22,0,0,0-1.65.67,2.36,2.36,0,0,0-.65,1.69,2.16,2.16,0,0,0,.71,1.61,2.36,2.36,0,0,0,1.69.68A3.87,3.87,0,0,0,316.39,202.5Z"/><g class="cls-9"><path class="cls-10" d="M468.44,308l-29.88,34.81v31h62.35V341.68S468.44,308.19,468.44,308"/><polygon class="cls-11" points="468.05 310.28 500.92 341.68 515.47 341.68 475.49 303.17 468.05 310.28"/><polygon class="cls-11" points="331.25 342.87 438.33 342.87 475.57 303.14 368.5 303.14 331.25 342.87"/><rect class="cls-11" x="466.09" y="350.45" width="10.63" height="18.06"/><rect class="cls-11" x="413.19" y="351.45" width="9.29" height="7.76"/><rect class="cls-11" x="389.99" y="351.45" width="9.29" height="7.76"/><rect class="cls-11" x="366.79" y="351.45" width="9.29" height="7.76"/></g><circle class="cls-6" cx="306.19" cy="323.42" r="29.13"/><rect class="cls-11" x="304.84" y="327.81" width="2.7" height="54.01"/></g></g></svg>