<svg xmlns="http://www.w3.org/2000/svg" viewBox="0 0 660.04 500"><defs><style>.cls-1{fill:#fff;}.cls-2{fill:#5045b3;}.cls-3{fill:none;stroke:#000;stroke-miterlimit:10;stroke-width:0.5px;opacity:0.2;}.cls-4{fill:var(--azul-igac);}.cls-5{fill:#eb6654;}.cls-6,.cls-7{font-size:21px;font-family:GillSans, Gill Sans;}.cls-6{fill:#fdf6e6;}.cls-11,.cls-7{fill:#0e233f;}.cls-8{fill:#0069b3;}.cls-9{fill:#f5ce44;}.cls-10{fill:#07aa7d;}.cls-12{fill:#e3e3e3;}.cls-13{fill:#faf5e5;}.cls-14{fill:#038d71;}.cls-15{font-size:14px;font-family:GillSans-Italic, Gill Sans;font-style:italic;}.cls-16{letter-spacing:-0.1em;}.cls-17{letter-spacing:-0.02em;}.cls-18{letter-spacing:-0.02em;}.cls-19{letter-spacing:-0.08em;}.cls-20{letter-spacing:-0.02em;}.cls-21{letter-spacing:0.02em;}</style></defs><g id="Capa_2" data-name="Capa 2"><g id="Arte"><rect class="cls-1" width="660.04" height="500" rx="5"/><path class="cls-2" d="M0,5H0A5,5,0,0,1,5,0H655a5,5,0,0,1,5,5H0Z"/><line class="cls-3" x1="50.02" y1="404.92" x2="339.37" y2="404.92"/><path class="cls-4" d="M328.27,204.11V57.4A146.72,146.72,0,1,1,181.55,204.11a139.38,139.38,0,0,1,7.18-45.33Z"/><path class="cls-5" d="M328.37,204.3l-26.56-159c-63.52,6.31-110,53-120.26,111.1Z"/><text class="cls-6" transform="translate(322.38 241.89)">80%</text><text class="cls-6" transform="translate(240.4 135.21)">17%</text><text class="cls-7" transform="translate(312.59 48.78)">3%</text><path class="cls-8" d="M453.6,78.36,443.36,88.6a1.21,1.21,0,0,0,0,1.69,1.19,1.19,0,0,0,1.69,0l10.24-10.23a1.22,1.22,0,0,0,0-1.7,1.21,1.21,0,0,0-1.69,0"/><path class="cls-8" d="M443.54,68.3,433.3,78.54A1.2,1.2,0,1,0,435,80.23L445.23,70a1.2,1.2,0,0,0-1.69-1.69"/><path class="cls-5" d="M472.53,30l-32.6,32.6a1.47,1.47,0,0,0,0,2.09l19,19a1.47,1.47,0,0,0,2.09,0l32.6-32.6a1.47,1.47,0,0,0,0-2.09l-19-19a1.47,1.47,0,0,0-2.09,0"/><polygon class="cls-9" points="468.45 56.83 478.13 66.52 476.44 68.21 466.76 58.52 450.26 75.03 448.57 73.33 465.07 56.83 455.38 47.15 457.07 45.46 466.76 55.14 483.26 38.64 484.95 40.33 468.45 56.83"/><path class="cls-8" d="M402.88,112.34l10.23-10.23a1.2,1.2,0,0,0-1.69-1.69l-10.23,10.23a1.2,1.2,0,1,0,1.69,1.69"/><path class="cls-8" d="M412.94,122.4l10.23-10.23a1.2,1.2,0,1,0-1.69-1.69l-10.23,10.23a1.2,1.2,0,0,0,1.69,1.69"/><path class="cls-10" d="M446.61,113.73c5.17-5.18,7.77-11,5.79-12.94s-7.76.62-12.93,5.79-7.76,11-5.79,12.94,7.76-.62,12.93-5.79"/><path class="cls-10" d="M433.74,119.58l.12.1h0l.14.1,0,0,.12.07h0l.15.07,0,0,.13,0,0,0,.17,0h0l.16,0H435l.14,0h.05l.18,0H436l.18,0h.06a.64.64,0,0,0,.2,0h0l.24,0h.06L437,120h.05l.26-.07.06,0,.25-.07h0l.31-.11.06,0,.31-.12.05,0,.38-.16.05,0,.39-.17.07,0,.18-.09.09,0,.19-.09.07,0,.27-.14,0,0,.22-.12.06,0,.45-.26,0,0,.46-.28.05,0c.15-.09.31-.19.46-.3l.05,0,.48-.33s0,0,0,0l.52-.37h0l.5-.39,0,0,.48-.38,0,0,.47-.39.05,0,.78-.68,0,0,.61-.56,0-.05c.18-.16.35-.33.52-.5l.09-.09.44-.45,0,0,.48-.52,0,0,.45-.5,0,0q.23-.24.42-.48l.05,0,.4-.48,0-.06.4-.5,0,0,.42-.55,0,0,.4-.56,0-.05.41-.6,0-.06.16-.26a.25.25,0,0,0,0-.07c.07-.1.13-.2.19-.3a.21.21,0,0,1,0-.06c.07-.12.14-.23.2-.35l0,0,.2-.36,0-.06.25-.47s0,0,0,0,.16-.32.23-.48l.05-.09a.5.5,0,0,1,.05-.13l.05-.1a.61.61,0,0,1,.05-.12l0-.1.05-.12,0-.1a1.17,1.17,0,0,1,.05-.11l0-.11a1.17,1.17,0,0,0,.05-.11l0-.1a.49.49,0,0,0,0-.11l0-.1a.36.36,0,0,0,0-.11l0-.09,0-.11,0-.1,0-.1,0-.1a.36.36,0,0,1,0-.1l0-.09a196402138788,196402138788,0,0,0,0-.2s0-.06,0-.1l0-.09v-.09s0-.06,0-.09v-.19a.28.28,0,0,0,0-.09V103a.28.28,0,0,1,0-.09v-.5a.25.25,0,0,0,0-.08v-.07a.25.25,0,0,1,0-.08v-.08s0,0,0-.07,0,0,0-.08a.17.17,0,0,0,0-.07l0-.07s0,0,0-.07a.19.19,0,0,1,0-.07l0-.07,0-.06a.14.14,0,0,0,0-.07l0-.06,0-.07a.14.14,0,0,0,0-.06l0-.06,0-.05a.16.16,0,0,0,0-.07l0,0,0-.06,0,0-.06-.06,0,0a.38.38,0,0,0-.09-.09L465.61,114a.41.41,0,0,1,.09.1l0,0,.06.07,0,0,0,.06,0,0,0,.06s0,0,0,.06l0,.06,0,.06s0,0,0,.07l0,.06a.14.14,0,0,1,0,.07l0,.06a.19.19,0,0,0,0,.07,102613326124.71,102613326124.71,0,0,1,0,.14s0,0,0,.07,0,0,0,.07a.15.15,0,0,0,0,.07v.31a.22.22,0,0,1,0,.08v.5a.25.25,0,0,0,0,.08,3225414726838.18,3225414726838.18,0,0,0,0,.18.28.28,0,0,1,0,.09v.09s0,.06,0,.1,0,0,0,.08,0,.07,0,.1a.29.29,0,0,0,0,.09s0,.07,0,.1,0,.06,0,.09a.43.43,0,0,0,0,.11l0,.09s0,.07,0,.1l0,.1,0,.1,0,.1,0,.1,0,.1,0,.11a.42.42,0,0,0,0,.1.49.49,0,0,1,0,.11l0,.1a.76.76,0,0,0,0,.11l0,.1-.05.12a.42.42,0,0,1,0,.1.61.61,0,0,1,0,.12.42.42,0,0,1,0,.1l-.05.12s0,.07-.05.1,0,.08,0,.13a.2.2,0,0,0,0,.08h0c-.07.16-.15.32-.23.48v0l-.25.47v0a.05.05,0,0,0,0,0c-.07.11-.13.23-.2.35l0,0c-.06.11-.13.23-.21.35v0h0l-.18.31-.05.07-.16.26,0,0h0l-.41.6v0l0,0c-.13.18-.26.37-.4.55v0h0l-.42.56h0l0,0-.4.5,0,0,0,0c-.13.16-.27.32-.4.49l0,0,0,0-.41.48,0,0v0l-.45.49,0,0h0c-.16.17-.33.34-.49.52h0l0,0-.44.45-.07.07,0,0c-.17.17-.34.34-.52.5l0,0a0,0,0,0,0,0,0l-.61.56h0l0,0-.78.68,0,0,0,0-.47.39-.05,0-.48.38,0,0-.5.38h0l-.51.37,0,0-.48.33-.05,0-.46.3a.1.1,0,0,0-.05,0l-.46.27-.05,0-.45.26h0l0,0-.24.13,0,0-.26.13-.08,0-.19.1-.09,0-.18.09-.05,0h0a3.39,3.39,0,0,1-.39.18l0,0-.38.16h-.05l-.31.12-.06,0-.31.1h0l-.25.08-.06,0-.26.07h0l-.21.05H450l-.24.05h0l-.19,0h-.07l-.18,0h-.71l-.18,0h-.05l-.14,0h-.05l-.16,0h0l-.17,0h0l-.12,0h-.05l-.15-.07,0,0-.12-.07h0l-.14-.1h0l-.12-.1,0,0s0,0,0,0l-13.21-13.2.06.06"/><path class="cls-9" d="M433.27,100.39c6.5-6.52,9.94-13.63,7.68-15.89s-9.36,1.18-15.87,7.69-9.95,13.63-7.69,15.89,9.37-1.18,15.88-7.69"/><path class="cls-11" d="M417.46,108.14l.14.12h0l.17.11,0,0,.15.08h0l.18.08h.05l.14,0,.05,0,.2,0h0l.2,0h.06l.16,0h.59l.18,0h.07l.24,0h.06l.21,0h.08l.24,0h0l.29-.07.07,0,.25-.07h.06l.32-.1.07,0,.31-.1,0,0,.37-.14.08,0,.38-.16.06,0,.46-.22.06,0,.48-.24.09,0,.22-.12.11-.06.23-.12.1,0,.32-.18.05,0,.28-.16.07,0,.55-.34.07,0,.56-.36.06,0,.58-.39,0,0,.6-.43,0,0,.64-.47h0l.63-.49.05,0c.2-.15.4-.32.6-.48l.06-.05.59-.5.06,0,1-.86s0,0,0,0l.76-.71.06-.06.65-.62.12-.12.55-.57,0,0c.21-.21.42-.43.62-.65l0,0c.2-.21.39-.41.57-.62l.05-.06.53-.6.06-.07.5-.6.06-.07c.17-.2.34-.41.5-.62l0,0,.53-.69,0,0q.25-.36.51-.69a.21.21,0,0,1,0-.06l.52-.75a.56.56,0,0,0,.05-.08l.21-.31.06-.09c.08-.13.17-.25.24-.38l.05-.07.27-.43v0l.27-.44,0-.07c.12-.2.23-.39.33-.59l0,0c.1-.2.21-.39.3-.59l.06-.12.08-.15.06-.12.06-.15.06-.12.07-.15,0-.12.06-.14a.5.5,0,0,0,.05-.13l.06-.13s0-.09.05-.13a.69.69,0,0,0,.05-.13l0-.12a.5.5,0,0,1,.05-.13.42.42,0,0,1,0-.12s0-.09,0-.13a.56.56,0,0,0,0-.12.65.65,0,0,0,0-.13.76.76,0,0,0,0-.11c0-.05,0-.09,0-.13l0-.11,0-.13,0-.11,0-.12,0-.11,0-.12,0-.11a.52.52,0,0,1,0-.11s0-.07,0-.1a.5.5,0,0,1,0-.12s0-.07,0-.1a.41.41,0,0,0,0-.11l0-.1a.41.41,0,0,1,0-.11v-.2s0-.07,0-.1v-.29a.28.28,0,0,0,0-.09v-.1s0-.05,0-.08,0-.07,0-.1,0,0,0-.08a.29.29,0,0,0,0-.09v-.08s0-.06,0-.09a123308550119.33,123308550119.33,0,0,0,0-.16l0-.07,0-.09a.64.64,0,0,1,0-.07.59.59,0,0,1,0-.08l0-.06,0-.08,0-.06-.05-.08,0,0-.05-.08,0,0-.06-.08,0,0L441,84.5l20.71,20.69.1.11,0,0,.07.08,0,0,.05.07a.21.21,0,0,0,0,.06.25.25,0,0,0,0,.07l0,.07,0,.07,0,.07,0,.08a.19.19,0,0,1,0,.07l0,.08a.24.24,0,0,1,0,.08l0,.08a.24.24,0,0,0,0,.08s0,.06,0,.09l0,.08s0,.06,0,.09a.19.19,0,0,1,0,.08.28.28,0,0,1,0,.09.28.28,0,0,1,0,.09s0,.06,0,.1v.68s0,.07,0,.1,0,.07,0,.1,0,.08,0,.11,0,.07,0,.11,0,.07,0,.11a.43.43,0,0,1,0,.11l0,.11a.43.43,0,0,0,0,.11l0,.12s0,.07,0,.11l0,.12,0,.11s0,.08,0,.12l0,.12s0,.08,0,.12l0,.12a.5.5,0,0,0,0,.13.36.36,0,0,0,0,.11s0,.09-.05.13,0,.08,0,.12,0,.09,0,.13,0,.09-.05.13a.69.69,0,0,1-.05.13l-.05.12-.05.14-.06.12a.94.94,0,0,1-.06.15.61.61,0,0,1-.05.12l-.07.14a.69.69,0,0,1-.05.13s-.05.09-.07.15l-.06.12-.07.15-.06.11h0l-.31.59,0,0-.32.58,0,0a.08.08,0,0,0,0,0l-.26.45s0,0,0,0l-.27.44,0,0s0,0,0,0-.16.25-.25.37a.41.41,0,0,1-.05.09l-.22.32,0,.06,0,0-.52.75,0,0s0,0,0,0l-.51.69,0,0h0l-.53.69h0l0,0-.51.62s0,0,0,0l0,0-.51.6,0,0,0,0-.53.6,0,0,0,0-.56.62,0,0h0c-.2.22-.41.43-.62.65h0l0,0c-.18.19-.36.38-.55.56l-.09.09,0,0c-.22.22-.43.43-.65.63l0,0,0,0c-.25.24-.5.48-.76.71v0h0l-1,.87,0,0,0,0-.58.49-.07.06-.6.48-.05,0-.63.49h0l-.63.47,0,0-.6.43-.05,0-.57.39-.07,0-.56.36-.07,0-.55.34,0,0,0,0-.28.17-.05,0c-.11.06-.21.13-.32.18l-.09,0-.24.13-.1.06-.23.11-.06,0h0l-.47.23-.06,0-.47.21,0,0h0l-.38.16-.07,0-.38.15h0l-.3.11-.08,0-.32.1h-.06l-.25.07-.07,0-.29.07h0l-.24,0-.07,0-.22,0h-.05l-.25,0h-.84l-.16,0h-.06l-.19,0h0l-.19,0h-.06l-.14-.05h-.05l-.18-.07,0,0-.14-.07,0,0h0l-.16-.11h0l-.14-.12,0,0,0,0-20.71-20.69.07.06"/><path class="cls-5" d="M438.74,87.9a1.33,1.33,0,0,0,0-1.87l-7.49-7.49a1.32,1.32,0,1,0-1.87,1.87l7.48,7.49a1.33,1.33,0,0,0,1.88,0"/><path class="cls-5" d="M420.8,105.83a1.32,1.32,0,0,0,0-1.87l-7.48-7.49a1.33,1.33,0,0,0-1.88,1.87l7.49,7.49a1.32,1.32,0,0,0,1.87,0"/><path class="cls-5" d="M431.55,98.36a1.33,1.33,0,0,0,0-1.87L424.06,89a1.32,1.32,0,0,0-1.87,1.87l7.48,7.49a1.33,1.33,0,0,0,1.88,0"/><path class="cls-9" d="M413.71,80.83c6.51-6.51,10-13.63,7.69-15.89s-9.37,1.18-15.88,7.7-9.94,13.62-7.68,15.88,9.36-1.18,15.87-7.69"/><path class="cls-11" d="M397.9,88.58l.14.12h0a.91.91,0,0,0,.16.11l0,0,.14.08h0l.18.08.05,0,.14,0,.06,0,.19,0h0l.19,0h1.06l.25,0h.05l.21,0h.08l.24,0h0l.29-.07.07,0,.25-.06.06,0,.32-.1.08,0,.3-.1,0,0,.38-.14.07,0,.38-.16.06,0,.47-.21,0,0,.48-.24.09,0,.22-.12.11-.06.23-.12.1,0,.32-.18.05,0,.28-.16L406,87l.55-.33.07,0,.56-.35.06-.05c.19-.13.39-.25.58-.39l0,0,.6-.43,0,0,.63-.47h0l.63-.49.05,0,.6-.49.06,0,.59-.5.06-.05,1-.86,0,0c.26-.24.51-.47.76-.72l.06,0,.65-.63.12-.12.55-.57,0,0c.21-.21.42-.43.62-.65l0,0c.19-.2.38-.41.56-.62l.05-.06.53-.6.06-.07.51-.6.05-.06.51-.63,0,0,.53-.69,0,0,.51-.69,0-.06.52-.75.05-.07c.08-.11.15-.22.21-.32l.06-.09.25-.38,0-.06.27-.44,0,0c.09-.15.17-.3.26-.44l0-.07.32-.58,0,0c.11-.2.21-.4.31-.6a1.17,1.17,0,0,1,0-.11c0-.05.05-.11.08-.16l.06-.12A1,1,0,0,1,421,71l0-.12a1,1,0,0,0,.07-.15.61.61,0,0,0,0-.12l.06-.14.06-.12s0-.1.05-.14a.61.61,0,0,0,.05-.12.78.78,0,0,0,.05-.14l.05-.12s0-.09,0-.13,0-.08,0-.12,0-.09.05-.13a.56.56,0,0,1,0-.12.65.65,0,0,1,0-.13l0-.11a.65.65,0,0,0,0-.13l0-.11s0-.08,0-.13l0-.11a.5.5,0,0,1,0-.12l0-.11,0-.12a.36.36,0,0,1,0-.1s0-.08,0-.12l0-.1,0-.12s0-.07,0-.1,0-.07,0-.11v-.1s0-.07,0-.11v-.68a.28.28,0,0,1,0-.09s0-.06,0-.09a.28.28,0,0,0,0-.09.28.28,0,0,0,0-.09s0-.06,0-.09,0,0,0-.08a.29.29,0,0,0,0-.09s0,0,0-.07l0-.09,0-.07,0-.09a.25.25,0,0,0,0-.07l0-.07,0-.07s0,0,0-.08l0-.06-.05-.07,0-.06-.05-.08,0,0-.06-.08,0,0-.1-.11,15.14,15.13a.52.52,0,0,1,.1.11l0,0,.06.08,0,0,.05.07,0,.06s0,0,0,.08l0,.06a.2.2,0,0,1,0,.08l0,.06,0,.08,0,.07a.31.31,0,0,1,0,.08l0,.08a.24.24,0,0,0,0,.08l0,.08a.29.29,0,0,0,0,.09s0,.05,0,.08,0,.06,0,.09a.22.22,0,0,1,0,.08s0,.06,0,.1v.08s0,.07,0,.1v.48a.34.34,0,0,0,0,.1v.1a.41.41,0,0,1,0,.11v.1s0,.07,0,.11,0,.07,0,.1a.36.36,0,0,1,0,.11.43.43,0,0,1,0,.11.36.36,0,0,1,0,.11s0,.08,0,.11l0,.12a.43.43,0,0,1,0,.11l0,.12,0,.11a.93.93,0,0,1,0,.13l0,.11,0,.12a.56.56,0,0,0,0,.12s0,.08,0,.13,0,.08,0,.11l-.05.14a.84.84,0,0,1,0,.12,1.12,1.12,0,0,1-.05.13s0,.08,0,.12l-.06.13s0,.08,0,.12l-.06.14a.69.69,0,0,0-.05.13l-.06.14-.06.12-.06.14-.06.13-.07.15-.06.12-.07.15-.06.11h0l-.31.59,0,0c-.1.2-.21.39-.32.58a0,0,0,0,0,0,0l0,0c-.09.14-.17.29-.26.44l0,0-.27.43,0,.05v0l-.24.38-.06.08-.21.32,0,.06,0,0c-.16.25-.34.5-.52.75v0l0,0q-.24.35-.51.69s0,0,0,0h0l-.53.69h0l0,0c-.16.21-.33.41-.5.62l0,0,0,0c-.17.2-.33.4-.51.6l0,0,0,0-.52.6,0,0,0,0-.57.62,0,0h0c-.2.22-.41.43-.62.65h0s0,0,0,0l-.56.57-.09.08,0,0-.64.62,0,0,0,0-.77.71v0l0,0-1,.86,0,0,0,0-.58.49-.07.06-.6.48s0,0,0,0l-.63.49h0l-.63.47,0,0-.6.42-.06,0-.57.39-.07,0c-.19.13-.37.25-.56.36l-.06,0-.56.34,0,0,0,0-.28.17-.05,0a3.37,3.37,0,0,1-.32.19l-.09,0-.23.12-.11.06-.23.12-.06,0h0l-.48.24-.06,0a4.84,4.84,0,0,1-.47.21l0,0h0l-.38.16-.07,0-.38.14h0l-.3.1-.08,0-.32.1H417l-.24.07-.08,0-.29.07h0l-.23,0-.08,0-.22,0h0l-.25,0h-.83l-.17,0h-.06l-.19,0h0l-.2,0H414l-.15,0h-.05l-.18-.07,0,0-.14-.07,0,0h0l-.16-.11h0l-.14-.12,0,0,0,0L397.84,88.52l.06.06"/><path class="cls-5" d="M383.94,160.71l32.61-32.61a1.47,1.47,0,0,0,0-2.09l-19-19a1.49,1.49,0,0,0-2.09,0l-32.61,32.61a1.49,1.49,0,0,0,0,2.09l19,19a1.47,1.47,0,0,0,2.09,0"/><path class="cls-11" d="M493.23,108.19c-3.48-3.49-17.92,5.3-32.24,19.62s-23.1,28.75-19.62,32.24,17.92-5.3,32.24-19.62,23.11-28.75,19.62-32.24"/><path class="cls-5" d="M484.16,151.27a1.2,1.2,0,0,0,.35-.77,1.21,1.21,0,0,0-1.13-1.27L444.48,147a1.19,1.19,0,1,0-.14,2.38l38.9,2.27a1.18,1.18,0,0,0,.92-.35"/><path class="cls-5" d="M484.16,151.27a1.2,1.2,0,0,0,.35-.91l-2.29-39a1.19,1.19,0,0,0-1.26-1.12,1.2,1.2,0,0,0-1.13,1.26l2.29,39a1.19,1.19,0,0,0,1.26,1.12,1.2,1.2,0,0,0,.78-.35"/><path class="cls-5" d="M484.16,151.27a1.19,1.19,0,0,0,0-1.69l-22.47-22.47a1.21,1.21,0,0,0-1.69,0,1.19,1.19,0,0,0,0,1.69l22.47,22.47a1.19,1.19,0,0,0,1.69,0"/><path class="cls-11" d="M480.28,153.46c.71.71,2.64-.08,4.31-1.76s2.47-3.61,1.76-4.31-2.64.08-4.31,1.75-2.46,3.61-1.76,4.32"/><path class="cls-9" d="M461,127.81c-14.32,14.32-23.1,28.75-19.62,32.24-5.86-5.86-.11-23.33,14.21-37.65s31.79-20.07,37.65-14.21c-3.48-3.48-17.92,5.3-32.24,19.62"/><polygon class="cls-9" points="388.03 133.88 378.34 124.19 380.03 122.5 389.72 132.18 406.22 115.68 407.91 117.37 391.41 133.88 401.09 143.56 399.4 145.25 389.72 135.57 373.21 152.07 371.52 150.38 388.03 133.88"/><polygon class="cls-11" points="324.83 350.62 320.46 350.31 314.32 330.47 318.6 330.47 324.83 350.62"/><polygon class="cls-11" points="338.37 350.72 334.13 350.83 327.83 330.47 332.11 330.47 338.37 350.72"/><polygon class="cls-12" points="302.1 310.77 302.1 278.9 288.59 278.9 302.1 310.77"/><path class="cls-9" d="M297.48,310.16a25.27,25.27,0,1,0,50.54,0V299.09l0-.21a11.17,11.17,0,0,0-11.17-11.17H321.33l7.93,6.88v10.53h-32Z"/><path class="cls-13" d="M329.37,295.15a7.38,7.38,0,1,0,7.38-7.38l-.64-.06h-6.74v7.68"/><path class="cls-13" d="M288.91,305.13h40.34v22.74Z"/><path class="cls-5" d="M329.25,305.14a11.36,11.36,0,0,1,0,22.72"/><polygon class="cls-14" points="305.6 67.95 328.27 67.95 328.37 204.3 305.6 67.95"/><text class="cls-15" transform="translate(56.43 356.51)">Actualizado<tspan class="cls-16" x="60.84" y="0">:</tspan><tspan x="62.21" y="0" xml:space="preserve"> 192</tspan><tspan x="0" y="17">Vi</tspan><tspan class="cls-17" x="9.77" y="17">g</tspan><tspan x="15.53" y="17">encia de mediano pla</tspan><tspan class="cls-18" x="128.37" y="17">z</tspan><tspan x="134.5" y="17">o vencida</tspan><tspan class="cls-16" x="183.77" y="17">:</tspan><tspan x="185.14" y="17" xml:space="preserve"> 30</tspan><tspan x="0" y="34">Desactualizado</tspan><tspan class="cls-16" x="80.38" y="34">:</tspan><tspan x="81.76" y="34" xml:space="preserve"> 877</tspan><tspan x="0" y="68">SIN P</tspan><tspan class="cls-19" x="29.57" y="68">O</tspan><tspan class="cls-20" x="37.63" y="68">T</tspan><tspan class="cls-16" x="44.42" y="68">:</tspan><tspan x="45.79" y="68" xml:space="preserve"> 4 (Municipios que nunca han adoptado </tspan><tspan x="0" y="85">P</tspan><tspan class="cls-19" x="6.28" y="85">O</tspan><tspan class="cls-20" x="14.33" y="85">T</tspan><tspan class="cls-16" x="21.12" y="85">:</tspan><tspan x="22.5" y="85" xml:space="preserve"> El Charco</tspan><tspan class="cls-16" x="76.95" y="85">,</tspan><tspan x="78.33" y="85" xml:space="preserve"> Mosque</tspan><tspan class="cls-18" x="124.1" y="85">r</tspan><tspan x="128.2" y="85">a</tspan><tspan class="cls-16" x="134.77" y="85">,</tspan><tspan x="136.14" y="85" xml:space="preserve"> Santa Bárba</tspan><tspan class="cls-18" x="205.2" y="85">r</tspan><tspan x="209.3" y="85">a (Na</tspan><tspan class="cls-21" x="240.05" y="85">r</tspan><tspan x="244.71" y="85">iño) y </tspan><tspan x="0" y="102">Bar</tspan><tspan class="cls-18" x="18.09" y="102">r</tspan><tspan x="22.19" y="102">anco Minas (Guainía)</tspan></text><rect class="cls-5" x="40" y="346.96" width="10.02" height="10.02"/><rect class="cls-14" x="40" y="364.1" width="10.02" height="10.02"/><rect class="cls-4" x="40" y="381.23" width="10.02" height="10.02"/></g></g></svg>