<svg xmlns="http://www.w3.org/2000/svg" viewBox="0 0 660.04 500"><defs><style>.cls-1{fill:#fff;}.cls-2{fill:#5045b3;}.cls-3{fill:none;stroke:#000;stroke-miterlimit:10;stroke-width:0.5px;opacity:0.2;}.cls-4{fill:#eb6654;}.cls-5{fill:var(--azul-igac);}.cls-6{fill:#038d71;}.cls-7{fill:#fdf6e6;}.cls-8{fill:#0e233f;}.cls-9{fill:#f5ce44;}</style></defs><g id="Capa_2" data-name="Capa 2"><g id="Arte"><rect class="cls-1" width="660.04" height="500" rx="5"/><path class="cls-2" d="M0,5H0A5,5,0,0,1,5,0H655a5,5,0,0,1,5,5H0Z"/><path d="M58.15,345.12h1.64a3.48,3.48,0,0,1,2.29.68,2.54,2.54,0,0,1,.8,2,2.75,2.75,0,0,1-.8,1.95,2.92,2.92,0,0,1-2.25.86H58.69l-.57,4H56.81Zm1.15,1.14-.46,3.24h.93a1.82,1.82,0,0,0,1.35-.49,1.7,1.7,0,0,0,.48-1.23,1.45,1.45,0,0,0-.45-1.11,1.85,1.85,0,0,0-1.29-.41Z"/><path d="M68.05,345a3,3,0,0,1,2.44,1.1,4.32,4.32,0,0,1,.94,2.9,6.33,6.33,0,0,1-1.36,4.14,4.1,4.1,0,0,1-3.25,1.65,3.08,3.08,0,0,1-2.45-1.12,4.38,4.38,0,0,1-1-2.9,6.59,6.59,0,0,1,1.3-4A4,4,0,0,1,68.05,345Zm-1.2,8.65a2.79,2.79,0,0,0,2.3-1.43,5.89,5.89,0,0,0,1-3.44,3,3,0,0,0-.57-1.93,1.86,1.86,0,0,0-1.53-.7,2.77,2.77,0,0,0-2.41,1.47,6.17,6.17,0,0,0-.92,3.33,3,3,0,0,0,.58,2A1.92,1.92,0,0,0,66.85,353.65Z"/><path d="M78.56,345.12l-.17,1.19H75.71l-1.18,8.36H73.21l1.18-8.36H71.7l.17-1.19Z"/><path d="M77.78,354.06a.82.82,0,1,1,.24.57A.78.78,0,0,1,77.78,354.06Zm.78-5.06a.82.82,0,0,1,.81-.81.8.8,0,0,1,.58.24.82.82,0,0,1,0,1.14.8.8,0,0,1-.58.24.82.82,0,0,1-.81-.81Z"/><path d="M88.61,345.12l-2.74,4,0,0a2,2,0,0,1,1.23-.32,2.14,2.14,0,0,1,1.64.66,2.42,2.42,0,0,1,.62,1.74,3.56,3.56,0,0,1-1,2.48,3.08,3.08,0,0,1-2.29,1.08,2.33,2.33,0,0,1-1.84-.77,3.16,3.16,0,0,1-.68-2.14,4.41,4.41,0,0,1,.38-1.6,9.31,9.31,0,0,1,.94-1.76l2.32-3.4Zm-2.49,8.48a1.86,1.86,0,0,0,1.4-.69,2.31,2.31,0,0,0,.61-1.58,1.36,1.36,0,0,0-.36-1,1.19,1.19,0,0,0-.92-.38,2,2,0,0,0-1.43.61,2,2,0,0,0-.6,1.45,1.67,1.67,0,0,0,.37,1.13A1.13,1.13,0,0,0,86.12,353.6Z"/><path d="M95.35,345l-1.51,9.67H92.57L94.1,345Z"/><path d="M58.15,362.12h1.64a3.48,3.48,0,0,1,2.29.68,2.54,2.54,0,0,1,.8,2,2.75,2.75,0,0,1-.8,1.95,2.92,2.92,0,0,1-2.25.86H58.69l-.57,4H56.81Zm1.15,1.14-.46,3.24h.93a1.82,1.82,0,0,0,1.35-.49,1.7,1.7,0,0,0,.48-1.23,1.45,1.45,0,0,0-.45-1.11,1.85,1.85,0,0,0-1.29-.41Z"/><path d="M64.58,362.12H66a3.45,3.45,0,0,1,2.25.65,2.18,2.18,0,0,1,.78,1.78,2,2,0,0,1-1.32,1.88,2.56,2.56,0,0,1,2,2.57,2.35,2.35,0,0,1-1,1.93,4,4,0,0,1-2.49.74h-3Zm.57,4.89-.5,3.59h1.44a2.79,2.79,0,0,0,1.69-.43,1.4,1.4,0,0,0,.59-1.23,1.71,1.71,0,0,0-.67-1.37,2.49,2.49,0,0,0-1.62-.56Zm.53-3.8-.38,2.73H66a1.94,1.94,0,0,0,1.26-.39,1.3,1.3,0,0,0,.47-1c0-.88-.55-1.32-1.64-1.32Z"/><path d="M75.19,362a3.06,3.06,0,0,1,2.44,1.1,4.37,4.37,0,0,1,.93,2.9,6.27,6.27,0,0,1-1.36,4.14A4.08,4.08,0,0,1,74,371.79a3.06,3.06,0,0,1-2.45-1.12,4.34,4.34,0,0,1-1-2.9,6.6,6.6,0,0,1,1.31-4A3.94,3.94,0,0,1,75.19,362ZM74,370.65a2.79,2.79,0,0,0,2.31-1.43,5.88,5.88,0,0,0,1-3.44,3,3,0,0,0-.57-1.93,1.84,1.84,0,0,0-1.53-.7,2.76,2.76,0,0,0-2.4,1.47,6.1,6.1,0,0,0-.93,3.33,3,3,0,0,0,.59,2A1.88,1.88,0,0,0,74,370.65Z"/><path d="M85.7,362.12l-.17,1.19H82.84l-1.17,8.36H80.35l1.17-8.36H78.84l.17-1.19Z"/><path d="M84.91,371.06a.81.81,0,0,1,1.39-.58.83.83,0,0,1,0,1.15.82.82,0,0,1-1.39-.57Zm.78-5.06a.82.82,0,1,1,.24.57A.78.78,0,0,1,85.69,366Z"/><path d="M95.19,362l-1.51,9.67H92.41L94,362Z"/><path d="M99.05,371.79l2.83-4.11,0,0a2.41,2.41,0,0,1-1.21.34,2.27,2.27,0,0,1-1.65-.64,2.21,2.21,0,0,1-.65-1.63,3.74,3.74,0,0,1,1-2.61,3.06,3.06,0,0,1,2.34-1.11,2.28,2.28,0,0,1,1.78.78,2.89,2.89,0,0,1,.7,2,4.63,4.63,0,0,1-.32,1.74,10.22,10.22,0,0,1-1,1.85l-2.36,3.42Zm1.9-4.94a1.8,1.8,0,0,0,1.32-.62,2,2,0,0,0,.6-1.39,1.78,1.78,0,0,0-.35-1.17,1.13,1.13,0,0,0-1-.44,1.79,1.79,0,0,0-1.36.68,2.38,2.38,0,0,0-.58,1.59A1.18,1.18,0,0,0,101,366.85Z"/><path d="M111.22,362.12,111,363.3h-2.74l-.38,2.38a2.9,2.9,0,0,1,2,.82,2.7,2.7,0,0,1,.72,1.95,3.16,3.16,0,0,1-1,2.41,4,4,0,0,1-4.87.22l.43-1.1a3.1,3.1,0,0,0,1.92.69,2.13,2.13,0,0,0,1.58-.62,2.17,2.17,0,0,0,.62-1.59,1.48,1.48,0,0,0-.54-1.2,2.18,2.18,0,0,0-1.44-.45,3.67,3.67,0,0,0-.84.12l.85-4.81Z"/><path d="M63.4,379.12l-.16,1.14H59.42l-.41,3h3.37l-.15,1.13h-3.4l-.45,3.16h5l-.17,1.13H57l1.39-9.55Z"/><path d="M68.91,379a3.08,3.08,0,0,1,2.45,1.1,4.37,4.37,0,0,1,.93,2.9,6.27,6.27,0,0,1-1.36,4.14,4.1,4.1,0,0,1-3.25,1.65,3.08,3.08,0,0,1-2.45-1.12,4.38,4.38,0,0,1-1-2.9,6.59,6.59,0,0,1,1.3-4A4,4,0,0,1,68.91,379Zm-1.2,8.65A2.82,2.82,0,0,0,70,386.22a6,6,0,0,0,1-3.44,3,3,0,0,0-.57-1.93,1.86,1.86,0,0,0-1.53-.7,2.74,2.74,0,0,0-2.4,1.47,6.1,6.1,0,0,0-.93,3.33,3,3,0,0,0,.58,2A1.92,1.92,0,0,0,67.71,387.65Z"/><path d="M79.43,379.12l-.18,1.19H76.57l-1.18,8.36H74.07l1.18-8.36H72.56l.17-1.19Z"/><path d="M78.64,388.06a.82.82,0,1,1,.24.57A.78.78,0,0,1,78.64,388.06Zm.78-5.06a.82.82,0,1,1,.24.57A.78.78,0,0,1,79.42,383Z"/><path d="M88.94,383.68a2,2,0,0,1,1.26,2,2.88,2.88,0,0,1-1,2.18,3.23,3.23,0,0,1-2.33.89,2.62,2.62,0,0,1-1.94-.73,2.58,2.58,0,0,1-.74-1.91,2.55,2.55,0,0,1,2-2.62,2.05,2.05,0,0,1-1.08-1.87,2.55,2.55,0,0,1,.82-1.88,2.75,2.75,0,0,1,2-.78,2.62,2.62,0,0,1,1.88.67,2.33,2.33,0,0,1,.71,1.77,2.27,2.27,0,0,1-.43,1.36A2.43,2.43,0,0,1,88.94,383.68Zm-1.93,4A2,2,0,0,0,89,385.74a1.47,1.47,0,0,0-.42-1.11,1.58,1.58,0,0,0-1.15-.41,1.76,1.76,0,0,0-1.33.59,1.86,1.86,0,0,0-.57,1.35,1.47,1.47,0,0,0,.44,1.08A1.51,1.51,0,0,0,87,387.67Zm.74-4.58a1.48,1.48,0,0,0,1.1-.49,1.59,1.59,0,0,0,.47-1.14,1.3,1.3,0,0,0-.37-1,1.27,1.27,0,0,0-.93-.37,1.49,1.49,0,0,0-1.11.48,1.58,1.58,0,0,0-.46,1.13,1.34,1.34,0,0,0,.36,1A1.24,1.24,0,0,0,87.75,383.09Z"/><path d="M97.34,379l-.87,5.71h1.36l-.14,1H96.28l-.46,2.94H94.59l.5-2.94H91.52v-.55L96.58,379Zm-4.22,5.71h2.14l.56-3.32Z"/><path d="M100.07,380.73l.18-1.32a5.13,5.13,0,0,1,2-.41,2.57,2.57,0,0,1,1.86.67,2.44,2.44,0,0,1-1.16,4.08,2.13,2.13,0,0,1,1.28,2.16,2.77,2.77,0,0,1-.87,2,3.26,3.26,0,0,1-2.44.88,5.59,5.59,0,0,1-2.3-.52l.17-1.14a4.5,4.5,0,0,0,2.07.54,2.23,2.23,0,0,0,1.49-.49,1.57,1.57,0,0,0,.57-1.26,1.51,1.51,0,0,0-.52-1.22,1.62,1.62,0,0,0-1.22-.38l.15-1.14a2.66,2.66,0,0,0,1.6-.57,1.47,1.47,0,0,0,.56-1.12,1.26,1.26,0,0,0-.41-1,1.57,1.57,0,0,0-1.08-.37A3.49,3.49,0,0,0,100.07,380.73Z"/><path d="M62.57,413.37l-.18,1.31a3,3,0,0,0-1.67-.51,1.84,1.84,0,0,0-1.23.4,1.3,1.3,0,0,0-.24,1.72,6.65,6.65,0,0,0,1.28,1.21,5.4,5.4,0,0,1,1.4,1.49,2.83,2.83,0,0,1,.34,1.29,2.38,2.38,0,0,1-.78,1.77,2.81,2.81,0,0,1-2.05.74,4.51,4.51,0,0,1-2.31-.68l.19-1.4a4.17,4.17,0,0,0,2.25.91,1.64,1.64,0,0,0,1-.33,1.06,1.06,0,0,0,.45-.9,1.42,1.42,0,0,0-.23-.75,6.26,6.26,0,0,0-1.29-1.26,5.33,5.33,0,0,1-1.39-1.51,2.84,2.84,0,0,1-.32-1.27,2.3,2.3,0,0,1,.91-1.85,3.34,3.34,0,0,1,2.16-.75A4.4,4.4,0,0,1,62.57,413.37Z"/><path d="M66.05,413.12l-1.35,9.55H63.39l1.34-9.55Z"/><path d="M75.7,413.12l-1.35,9.55h-.68l-4.75-7-1,7H66.75l1.34-9.55h.65l4.77,7,1-7Z"/><path d="M81.45,413.12h1.64a3.47,3.47,0,0,1,2.28.68,2.51,2.51,0,0,1,.81,2,2.79,2.79,0,0,1-.8,1.95,2.92,2.92,0,0,1-2.25.86H82l-.56,4H80.1Zm1.14,1.14-.45,3.24h.93a1.78,1.78,0,0,0,1.34-.49,1.7,1.7,0,0,0,.48-1.23,1.45,1.45,0,0,0-.45-1.11,1.81,1.81,0,0,0-1.28-.41Z"/><path d="M91.35,413a3.06,3.06,0,0,1,2.44,1.1,4.37,4.37,0,0,1,.93,2.9,6.27,6.27,0,0,1-1.36,4.14,4.08,4.08,0,0,1-3.24,1.65,3.06,3.06,0,0,1-2.45-1.12,4.34,4.34,0,0,1-1-2.9,6.6,6.6,0,0,1,1.31-4A3.94,3.94,0,0,1,91.35,413Zm-1.21,8.65a2.79,2.79,0,0,0,2.31-1.43,5.88,5.88,0,0,0,1-3.44,3,3,0,0,0-.56-1.93,1.87,1.87,0,0,0-1.54-.7,2.76,2.76,0,0,0-2.4,1.47A6.1,6.1,0,0,0,88,419a3,3,0,0,0,.59,2A1.88,1.88,0,0,0,90.14,421.65Z"/><path d="M101.86,413.12l-.17,1.19H99l-1.17,8.36H96.51l1.17-8.36H95l.17-1.19Z"/><path d="M101.07,422.06a.83.83,0,0,1,.24-.58.82.82,0,1,1,0,1.15A.82.82,0,0,1,101.07,422.06Zm.78-5.06a.82.82,0,1,1,.24.57A.78.78,0,0,1,101.85,417Z"/><path d="M112.49,413l-.88,5.71H113l-.15,1h-1.4l-.47,2.94h-1.22l.49-2.94h-3.57v-.55l5.07-6.18Zm-4.22,5.71h2.13l.56-3.32Z"/><path d="M121.3,413H122a12.19,12.19,0,0,0-1.44,2.41,11.58,11.58,0,0,0-1.08,3.41,18.34,18.34,0,0,0-.28,2.73,10.38,10.38,0,0,0,.87,4.34h-.59a12.9,12.9,0,0,1-1-2.66,10.52,10.52,0,0,1-.39-2.69,9.21,9.21,0,0,1,.75-3.62A17.18,17.18,0,0,1,121.3,413Z"/><path d="M131.79,413.12v9.55h-1.27V415.4l-3.85,7.27L125,415.36l-2.35,7.31h-1.26l3.15-9.55h1.09l1.5,6.47,3.42-6.47Z"/><path d="M138.9,416.38l-.89,6.29h-1.18l.11-1.07a3,3,0,0,1-2.07,1.17,1.41,1.41,0,0,1-1.07-.46,1.75,1.75,0,0,1-.45-1.29,4.22,4.22,0,0,1,0-.49l.59-4.15h1.18l-.58,4.15a2.64,2.64,0,0,0,0,.38c0,.63.23.95.7.95s1.12-.47,1.89-1.39l.58-4.09Z"/><path d="M141.83,416.38l-.16,1.11,0,0a2.78,2.78,0,0,1,2.09-1.23,1.33,1.33,0,0,1,1.13.53,2.25,2.25,0,0,1,.4,1.39,3,3,0,0,1,0,.5l-.6,4h-1.17l.57-4a2.75,2.75,0,0,0,0-.38,1.21,1.21,0,0,0-.2-.76.65.65,0,0,0-.52-.26,1.13,1.13,0,0,0-.4.09,2,2,0,0,0-.47.28,5.3,5.3,0,0,0-.63.56,1.71,1.71,0,0,0-.39.47l-.57,4h-1.18l.88-6.29Z"/><path d="M148.3,416.38l-.89,6.29h-1.18l.88-6.29Zm-1.06-2a.7.7,0,0,1,.2-.49.67.67,0,0,1,.48-.2.66.66,0,0,1,.48.2.68.68,0,0,1,0,1,.66.66,0,0,1-.48.2.67.67,0,0,1-.48-.2A.7.7,0,0,1,147.24,414.41Z"/><path d="M153.53,421.27l-.13,1.15a3.59,3.59,0,0,1-1.75.45,2.64,2.64,0,0,1-2-.79,2.91,2.91,0,0,1-.76-2.11,3.56,3.56,0,0,1,1.15-2.69,4.06,4.06,0,0,1,2.93-1.09,6.79,6.79,0,0,1,1.08.11l-.16,1.05a4,4,0,0,0-.91-.1,2.8,2.8,0,0,0-2.05.79,2.5,2.5,0,0,0-.82,1.86,2,2,0,0,0,.46,1.39,1.62,1.62,0,0,0,1.26.51A3.31,3.31,0,0,0,153.53,421.27Z"/><path d="M156.31,416.38l-.88,6.29h-1.19l.89-6.29Zm-1.05-2a.68.68,0,1,1,.2.49A.66.66,0,0,1,155.26,414.41Z"/><path d="M159.48,414.79l-.23,1.59a2.83,2.83,0,0,1,1.07-.19,2.42,2.42,0,0,1,1.86.83,3,3,0,0,1,.75,2.1,3.79,3.79,0,0,1-1,2.62,3.56,3.56,0,0,1-2.78,1.13h-.79l-.41,3h-1.19l1.11-7.95a3.12,3.12,0,0,0-.69.71,2.12,2.12,0,0,1-.35.44s-.06,0-.06-.09a2,2,0,0,1,.36-.91,3.94,3.94,0,0,1,.86-1l.32-2.31Zm-.35,2.47-.64,4.6h.57A2.46,2.46,0,0,0,161,421a2.81,2.81,0,0,0,.72-1.92,2.1,2.1,0,0,0-.51-1.5,1.65,1.65,0,0,0-1.28-.53A1.93,1.93,0,0,0,159.13,417.26Z"/><path d="M165.81,416.38l-.88,6.29h-1.19l.88-6.29Zm-1.06-2a.68.68,0,1,1,.2.49A.7.7,0,0,1,164.75,414.41Z"/><path d="M169.56,416.19a2.11,2.11,0,0,1,1.7.75,2.94,2.94,0,0,1,.64,2,4.44,4.44,0,0,1-.86,2.83,2.59,2.59,0,0,1-2.12,1.11,2.12,2.12,0,0,1-1.73-.75,3.09,3.09,0,0,1-.63-2.07,4.36,4.36,0,0,1,.86-2.75A2.64,2.64,0,0,1,169.56,416.19Zm0,.94a1.52,1.52,0,0,0-1.26.9,4.23,4.23,0,0,0-.53,2.15,2.1,2.1,0,0,0,.32,1.2.93.93,0,0,0,.79.46,1.53,1.53,0,0,0,1.28-.84,4,4,0,0,0,.53-2.14,2.3,2.3,0,0,0-.31-1.26A.93.93,0,0,0,169.56,417.13Z"/><path d="M176.85,416.85v1.24a3.31,3.31,0,0,0-1.89-.83,1,1,0,0,0-.61.2.59.59,0,0,0-.25.47.64.64,0,0,0,.16.38,5,5,0,0,0,1,.74,3.81,3.81,0,0,1,1.1,1,1.73,1.73,0,0,1,.28.93,1.77,1.77,0,0,1-.55,1.35,1.93,1.93,0,0,1-1.4.53,3.78,3.78,0,0,1-2.18-.83l.21-1.15a3.43,3.43,0,0,0,1.93.94.9.9,0,0,0,.59-.2.64.64,0,0,0,.23-.5.82.82,0,0,0-.17-.46,5,5,0,0,0-1-.8,3.61,3.61,0,0,1-1.07-1A1.78,1.78,0,0,1,173,418a1.68,1.68,0,0,1,.54-1.3,2,2,0,0,1,1.43-.5A3.37,3.37,0,0,1,176.85,416.85Z"/><path d="M187.38,416.19l-1.35,9.7h-1.19l.48-3.4a3.16,3.16,0,0,1-1.3.38,2.2,2.2,0,0,1-1.75-.78,3.1,3.1,0,0,1-.67-2,3.61,3.61,0,0,1,1.17-2.75,4.6,4.6,0,0,1,3.29-1.1Zm-1.94,5.41.62-4.43a3.08,3.08,0,0,0-2.38.73,2.9,2.9,0,0,0-.85,2.21,1.85,1.85,0,0,0,.44,1.29,1.56,1.56,0,0,0,1.19.48A2.38,2.38,0,0,0,185.44,421.6Z"/><path d="M193.88,416.38l-.9,6.29h-1.17l.11-1.07a3,3,0,0,1-2.07,1.17,1.41,1.41,0,0,1-1.08-.46,1.78,1.78,0,0,1-.44-1.29,4.15,4.15,0,0,1,0-.49l.59-4.15h1.19l-.59,4.15a2.64,2.64,0,0,0,0,.38c0,.63.24.95.7.95s1.12-.47,1.9-1.39l.57-4.09Z"/><path d="M199.74,421l-.17,1.13a3.43,3.43,0,0,1-2.09.71,2.44,2.44,0,0,1-1.92-.83,3.25,3.25,0,0,1-.72-2.21,3.92,3.92,0,0,1,.87-2.59,2.63,2.63,0,0,1,2.11-1.05,2.07,2.07,0,0,1,1.6.73,2.83,2.83,0,0,1,.63,1.9,4,4,0,0,1,0,.59h-3.92a3.21,3.21,0,0,0-.06.6,1.89,1.89,0,0,0,.48,1.37,1.54,1.54,0,0,0,1.19.5A3.62,3.62,0,0,0,199.74,421Zm-3.47-2.45h2.63a1.68,1.68,0,0,0-.29-1,1,1,0,0,0-.84-.38C197.08,417.17,196.59,417.64,196.27,418.58Z"/><path d="M206.82,416.38l-.16,1.11,0,0a2.77,2.77,0,0,1,2.08-1.23,1.33,1.33,0,0,1,1.14.53,2.25,2.25,0,0,1,.4,1.39,3,3,0,0,1,0,.5l-.6,4H208.5l.58-4a2.75,2.75,0,0,0,0-.38,1.21,1.21,0,0,0-.21-.76.62.62,0,0,0-.51-.26,1.08,1.08,0,0,0-.4.09,2,2,0,0,0-.48.28,4.63,4.63,0,0,0-.62.56,1.71,1.71,0,0,0-.39.47l-.58,4h-1.17l.88-6.29Z"/><path d="M217,416.38l-.9,6.29H215l.11-1.07a3,3,0,0,1-2.07,1.17,1.41,1.41,0,0,1-1.08-.46,1.78,1.78,0,0,1-.44-1.29,4.15,4.15,0,0,1,0-.49l.59-4.15h1.19l-.59,4.15a2.64,2.64,0,0,0,0,.38c0,.63.24.95.7.95s1.12-.47,1.9-1.39l.57-4.09Z"/><path d="M220,416.38l-.16,1.11,0,0a2.77,2.77,0,0,1,2.08-1.23,1.33,1.33,0,0,1,1.14.53,2.31,2.31,0,0,1,.4,1.39,3,3,0,0,1,0,.5l-.61,4h-1.17l.57-4a1.82,1.82,0,0,0,0-.38,1.21,1.21,0,0,0-.21-.76.62.62,0,0,0-.51-.26,1.08,1.08,0,0,0-.4.09,2,2,0,0,0-.48.28,5.3,5.3,0,0,0-.63.56,1.79,1.79,0,0,0-.38.47l-.58,4h-1.17l.88-6.29Z"/><path d="M229,421.27l-.14,1.15a3.59,3.59,0,0,1-1.75.45,2.65,2.65,0,0,1-2-.79,3,3,0,0,1-.76-2.11,3.6,3.6,0,0,1,1.15-2.69,4.06,4.06,0,0,1,2.93-1.09,6.79,6.79,0,0,1,1.08.11l-.16,1.05a3.91,3.91,0,0,0-.91-.1,2.81,2.81,0,0,0-2.05.79,2.5,2.5,0,0,0-.82,1.86,2,2,0,0,0,.46,1.39,1.62,1.62,0,0,0,1.26.51A3.37,3.37,0,0,0,229,421.27Z"/><path d="M235.67,416.38l-.89,6.29H233.6l.11-.72,0,0a2.33,2.33,0,0,1-1.69.88,1.86,1.86,0,0,1-1.47-.72,2.7,2.7,0,0,1-.6-1.76,4.08,4.08,0,0,1,1.12-3,4.2,4.2,0,0,1,3.15-1.16A5.26,5.26,0,0,1,235.67,416.38Zm-1.82,4.47.52-3.63H234a2.6,2.6,0,0,0-2.13.89,3.06,3.06,0,0,0-.73,2,2,2,0,0,0,.35,1.24,1,1,0,0,0,.89.49,1.59,1.59,0,0,0,1-.43C233.67,421.1,233.85,420.93,233.85,420.85Z"/><path d="M242.71,413.12l-.6,4.27,0,0a3,3,0,0,1,2.18-1.23,1.3,1.3,0,0,1,1.07.47,1.9,1.9,0,0,1,.39,1.26,3.67,3.67,0,0,1,0,.46l-.6,4.29H244l.6-4.35c0-.11,0-.22,0-.31,0-.62-.24-.92-.73-.92a1.86,1.86,0,0,0-1.21.68,3.81,3.81,0,0,0-.7.81l-.57,4.09h-1.19l1.35-9.55Z"/><path d="M252.7,416.38l-.89,6.29h-1.19l.12-.72,0,0a2.33,2.33,0,0,1-1.69.88,1.85,1.85,0,0,1-1.47-.72,2.7,2.7,0,0,1-.6-1.76,4.08,4.08,0,0,1,1.12-3,4.19,4.19,0,0,1,3.14-1.16A5.33,5.33,0,0,1,252.7,416.38Zm-1.82,4.47.52-3.63H251a2.59,2.59,0,0,0-2.13.89,3.07,3.07,0,0,0-.74,2,2,2,0,0,0,.36,1.24,1,1,0,0,0,.89.49,1.59,1.59,0,0,0,1-.43C250.7,421.1,250.87,420.93,250.88,420.85Z"/><path d="M255.52,416.38l-.16,1.11,0,0a2.77,2.77,0,0,1,2.08-1.23,1.33,1.33,0,0,1,1.14.53,2.25,2.25,0,0,1,.4,1.39,3,3,0,0,1,0,.5l-.6,4h-1.18l.58-4a2.75,2.75,0,0,0,0-.38,1.27,1.27,0,0,0-.2-.76.65.65,0,0,0-.52-.26,1.08,1.08,0,0,0-.4.09,1.82,1.82,0,0,0-.47.28,5.3,5.3,0,0,0-.63.56,1.71,1.71,0,0,0-.39.47l-.57,4h-1.18l.88-6.29Z"/><path d="M269.73,416.38l-.89,6.29h-1.19l.12-.72,0,0a2.35,2.35,0,0,1-1.69.88,1.85,1.85,0,0,1-1.47-.72,2.7,2.7,0,0,1-.6-1.76,4.08,4.08,0,0,1,1.12-3,4.19,4.19,0,0,1,3.14-1.16A5.33,5.33,0,0,1,269.73,416.38Zm-1.82,4.47.52-3.63h-.37a2.62,2.62,0,0,0-2.14.89,3.12,3.12,0,0,0-.73,2,2.07,2.07,0,0,0,.35,1.24,1.07,1.07,0,0,0,.9.49,1.55,1.55,0,0,0,.94-.43C267.73,421.1,267.9,420.93,267.91,420.85Z"/><path d="M276.74,413.12l-1.34,9.55a6,6,0,0,1-1.61.2,3.56,3.56,0,0,1-2.45-.76,2.73,2.73,0,0,1-.86-2.15,3.75,3.75,0,0,1,1.12-2.57,3.92,3.92,0,0,1,3-1.2h.5l.43-3.07Zm-2.4,8.74.65-4.68h-.31a2.91,2.91,0,0,0-2.15.81,2.62,2.62,0,0,0-.82,1.94,1.91,1.91,0,0,0,.54,1.45,2.19,2.19,0,0,0,1.54.5A4,4,0,0,0,274.34,421.86Z"/><path d="M280.14,416.19a2.1,2.1,0,0,1,1.69.75,2.94,2.94,0,0,1,.64,2,4.44,4.44,0,0,1-.86,2.83,2.59,2.59,0,0,1-2.12,1.11,2.13,2.13,0,0,1-1.73-.75,3.09,3.09,0,0,1-.63-2.07,4.31,4.31,0,0,1,.87-2.75A2.61,2.61,0,0,1,280.14,416.19Zm0,.94a1.52,1.52,0,0,0-1.27.9,4.23,4.23,0,0,0-.53,2.15,2.1,2.1,0,0,0,.32,1.2.93.93,0,0,0,.79.46,1.53,1.53,0,0,0,1.28-.84,4,4,0,0,0,.53-2.14,2.3,2.3,0,0,0-.31-1.26A.93.93,0,0,0,280.14,417.13Z"/><path d="M285.82,414.79l-.22,1.59a2.74,2.74,0,0,1,1.06-.19,2.42,2.42,0,0,1,1.86.83,3,3,0,0,1,.75,2.1,3.79,3.79,0,0,1-1,2.62,3.54,3.54,0,0,1-2.78,1.13h-.78l-.42,3h-1.19l1.12-7.95a3,3,0,0,0-.7.71,2.12,2.12,0,0,1-.35.44s0,0,0-.09a2.11,2.11,0,0,1,.35-.91,3.94,3.94,0,0,1,.86-1l.32-2.31Zm-.35,2.47-.64,4.6h.57a2.46,2.46,0,0,0,1.93-.82,2.81,2.81,0,0,0,.72-1.92,2.14,2.14,0,0,0-.5-1.5,1.69,1.69,0,0,0-1.29-.53A1.93,1.93,0,0,0,285.47,417.26Z"/><path d="M293.75,416.38l-.13.93h-1.25l-.61,3.44a2.69,2.69,0,0,0-.05.44c0,.41.22.61.67.61a2.39,2.39,0,0,0,1.15-.37l-.07,1.16a3.25,3.25,0,0,1-1.31.28,1.81,1.81,0,0,1-1.22-.39,1.32,1.32,0,0,1-.44-1,1.77,1.77,0,0,1,0-.32l.67-3.81h-1.11l.14-.93h1.15l.23-1.28h1.18l-.23,1.28Z"/><path d="M299.93,416.38l-.88,6.29h-1.19L298,422l0,0a2.35,2.35,0,0,1-1.7.88,1.84,1.84,0,0,1-1.46-.72,2.66,2.66,0,0,1-.61-1.76,4.09,4.09,0,0,1,1.13-3,4.19,4.19,0,0,1,3.14-1.16A5.21,5.21,0,0,1,299.93,416.38Zm-1.81,4.47.51-3.63h-.37a2.61,2.61,0,0,0-2.13.89,3.06,3.06,0,0,0-.73,2,2.07,2.07,0,0,0,.35,1.24,1.07,1.07,0,0,0,.9.49,1.57,1.57,0,0,0,.94-.43C297.93,421.1,298.11,420.93,298.12,420.85Z"/><path d="M307,413.12l-1.34,9.55a6,6,0,0,1-1.61.2,3.56,3.56,0,0,1-2.45-.76,2.73,2.73,0,0,1-.86-2.15,3.71,3.71,0,0,1,1.12-2.57,3.92,3.92,0,0,1,3-1.2h.5l.42-3.07Zm-2.4,8.74.65-4.68h-.31a3,3,0,0,0-2.16.81,2.66,2.66,0,0,0-.82,1.94,1.91,1.91,0,0,0,.54,1.45,2.24,2.24,0,0,0,1.55.5A4.12,4.12,0,0,0,304.55,421.86Z"/><path d="M310.34,416.19a2.11,2.11,0,0,1,1.7.75,2.94,2.94,0,0,1,.64,2,4.5,4.5,0,0,1-.86,2.83,2.59,2.59,0,0,1-2.12,1.11,2.15,2.15,0,0,1-1.74-.75,3.14,3.14,0,0,1-.62-2.07,4.3,4.3,0,0,1,.86-2.75A2.64,2.64,0,0,1,310.34,416.19Zm0,.94a1.52,1.52,0,0,0-1.26.9,4.23,4.23,0,0,0-.53,2.15,2.1,2.1,0,0,0,.32,1.2.93.93,0,0,0,.79.46,1.53,1.53,0,0,0,1.28-.84,4,4,0,0,0,.52-2.14,2.3,2.3,0,0,0-.3-1.26A.93.93,0,0,0,310.34,417.13Z"/><path d="M58.15,430.12h1.64a3.48,3.48,0,0,1,2.29.68,2.54,2.54,0,0,1,.8,2,2.75,2.75,0,0,1-.8,1.95,2.92,2.92,0,0,1-2.25.86H58.69l-.57,4H56.81Zm1.15,1.14-.46,3.24h.93a1.82,1.82,0,0,0,1.35-.49,1.7,1.7,0,0,0,.48-1.23,1.45,1.45,0,0,0-.45-1.11,1.85,1.85,0,0,0-1.29-.41Z"/><path d="M68.05,430a3,3,0,0,1,2.44,1.1,4.32,4.32,0,0,1,.94,2.9,6.33,6.33,0,0,1-1.36,4.14,4.1,4.1,0,0,1-3.25,1.65,3.08,3.08,0,0,1-2.45-1.12,4.38,4.38,0,0,1-1-2.9,6.59,6.59,0,0,1,1.3-4A4,4,0,0,1,68.05,430Zm-1.2,8.65a2.79,2.79,0,0,0,2.3-1.43,5.89,5.89,0,0,0,1-3.44,3,3,0,0,0-.57-1.93,1.86,1.86,0,0,0-1.53-.7,2.77,2.77,0,0,0-2.41,1.47,6.17,6.17,0,0,0-.92,3.33,3,3,0,0,0,.58,2A1.92,1.92,0,0,0,66.85,438.65Z"/><path d="M78.56,430.12l-.17,1.19H75.71l-1.18,8.36H73.21l1.18-8.36H71.7l.17-1.19Z"/><path d="M77.78,439.06a.82.82,0,1,1,.24.57A.78.78,0,0,1,77.78,439.06Zm.78-5.06a.82.82,0,0,1,.81-.81.8.8,0,0,1,.58.24.82.82,0,0,1,0,1.14.8.8,0,0,1-.58.24.82.82,0,0,1-.81-.81Z"/><path d="M89.79,430.12l-.16,1.14H85.81l-.42,3h3.37l-.15,1.13H85.22l-.46,3.16h5l-.17,1.13H83.35l1.39-9.55Z"/><path d="M92.81,430.12l-1.35,9.55H90.27l1.35-9.55Z"/><path d="M104.6,430l-.26,1.2h-.69a5.15,5.15,0,0,0-3.81,1.33,4.37,4.37,0,0,0-1.32,3.21,3.06,3.06,0,0,0,.68,2.08,2.35,2.35,0,0,0,1.83.77,3.66,3.66,0,0,0,1.38-.32,5.45,5.45,0,0,0,1.47-.86l-.21,1.55a5.74,5.74,0,0,1-2.83.83,3.46,3.46,0,0,1-2.65-1.11,4,4,0,0,1-1-2.86,5.41,5.41,0,0,1,1.79-4.2,6.78,6.78,0,0,1,4.74-1.62Z"/><path d="M107,430.12l-.6,4.27,0,0a3,3,0,0,1,2.18-1.23,1.34,1.34,0,0,1,1.08.47,2,2,0,0,1,.38,1.26,3.67,3.67,0,0,1,0,.46l-.6,4.29h-1.19l.6-4.35a1.8,1.8,0,0,0,0-.31c0-.62-.25-.92-.74-.92a1.89,1.89,0,0,0-1.21.68,4.2,4.2,0,0,0-.7.81l-.57,4.09h-1.19l1.35-9.55Z"/><path d="M117,433.38l-.88,6.29h-1.19l.11-.72,0,0a2.37,2.37,0,0,1-1.7.88,1.84,1.84,0,0,1-1.46-.72,2.66,2.66,0,0,1-.61-1.76,4.09,4.09,0,0,1,1.13-3,4.17,4.17,0,0,1,3.14-1.16A5.26,5.26,0,0,1,117,433.38Zm-1.81,4.47.51-3.63h-.37a2.61,2.61,0,0,0-2.13.89,3.06,3.06,0,0,0-.73,2,2,2,0,0,0,.35,1.24,1.06,1.06,0,0,0,.89.49,1.57,1.57,0,0,0,1-.43C115,438.1,115.19,437.93,115.2,437.85Z"/><path d="M119.93,433.38l-.19,1.2,0,0a5,5,0,0,1,.89-1.06,1.19,1.19,0,0,1,.78-.26,1.46,1.46,0,0,1,.52.09v1.35a1.51,1.51,0,0,0-.73-.21,1.13,1.13,0,0,0-.63.17,2.9,2.9,0,0,0-.66.75,2.82,2.82,0,0,0-.4.69l-.5,3.54h-1.18l.88-6.29Z"/><path d="M126.72,438.27l-.14,1.15a3.59,3.59,0,0,1-1.75.45,2.65,2.65,0,0,1-2-.79,3,3,0,0,1-.76-2.11,3.6,3.6,0,0,1,1.15-2.69,4.06,4.06,0,0,1,2.93-1.09,6.79,6.79,0,0,1,1.08.11l-.16,1.05a3.91,3.91,0,0,0-.91-.1,2.81,2.81,0,0,0-2,.79,2.5,2.5,0,0,0-.82,1.86,2,2,0,0,0,.46,1.39,1.62,1.62,0,0,0,1.26.51A3.37,3.37,0,0,0,126.72,438.27Z"/><path d="M130.62,433.19a2.12,2.12,0,0,1,1.7.75,3,3,0,0,1,.64,2,4.5,4.5,0,0,1-.86,2.83,2.6,2.6,0,0,1-2.12,1.11,2.15,2.15,0,0,1-1.74-.75,3.09,3.09,0,0,1-.63-2.07,4.31,4.31,0,0,1,.87-2.75A2.62,2.62,0,0,1,130.62,433.19Zm0,.94a1.49,1.49,0,0,0-1.26.9,4.23,4.23,0,0,0-.53,2.15,2,2,0,0,0,.32,1.2.92.92,0,0,0,.79.46,1.51,1.51,0,0,0,1.27-.84,4,4,0,0,0,.53-2.14,2.22,2.22,0,0,0-.31-1.26A.91.91,0,0,0,130.62,434.13Z"/><path d="M133.05,441.69l.08-.62a1.18,1.18,0,0,0,.92-1.2.79.79,0,0,1-.55-.72.78.78,0,0,1,.25-.59.89.89,0,0,1,.64-.24.79.79,0,0,1,.63.32,1.28,1.28,0,0,1,.25.79,2,2,0,0,1-.6,1.4A3.16,3.16,0,0,1,133.05,441.69Z"/><path d="M149.05,430.12v9.55h-1.27V432.4l-3.85,7.27-1.69-7.31-2.35,7.31h-1.26l3.15-9.55h1.09l1.5,6.47,3.42-6.47Z"/><path d="M153.54,433.19a2.12,2.12,0,0,1,1.7.75,2.94,2.94,0,0,1,.64,2,4.5,4.5,0,0,1-.86,2.83,2.6,2.6,0,0,1-2.12,1.11,2.15,2.15,0,0,1-1.74-.75,3.09,3.09,0,0,1-.63-2.07,4.31,4.31,0,0,1,.87-2.75A2.62,2.62,0,0,1,153.54,433.19Zm0,.94a1.49,1.49,0,0,0-1.26.9,4.23,4.23,0,0,0-.53,2.15,2.1,2.1,0,0,0,.32,1.2.92.92,0,0,0,.79.46,1.51,1.51,0,0,0,1.27-.84,3.93,3.93,0,0,0,.53-2.14,2.22,2.22,0,0,0-.31-1.26A.91.91,0,0,0,153.54,434.13Z"/><path d="M160.83,433.85v1.24a3.36,3.36,0,0,0-1.9-.83.92.92,0,0,0-.6.2.56.56,0,0,0-.25.47.68.68,0,0,0,.15.38,5.83,5.83,0,0,0,1,.74,3.56,3.56,0,0,1,1.1,1,1.75,1.75,0,0,1,.29.93,1.77,1.77,0,0,1-.55,1.35,2,2,0,0,1-1.4.53,3.75,3.75,0,0,1-2.18-.83l.2-1.15a3.45,3.45,0,0,0,1.94.94.85.85,0,0,0,.58-.2.61.61,0,0,0,.23-.5.8.8,0,0,0-.16-.46,5.2,5.2,0,0,0-1-.8,3.75,3.75,0,0,1-1.07-1A1.77,1.77,0,0,1,157,435a1.64,1.64,0,0,1,.54-1.3,2,2,0,0,1,1.43-.5A3.37,3.37,0,0,1,160.83,433.85Z"/><path d="M167.47,433.19l-1.35,9.7h-1.19l.47-3.4a3.08,3.08,0,0,1-1.3.38,2.2,2.2,0,0,1-1.74-.78,3,3,0,0,1-.67-2,3.64,3.64,0,0,1,1.16-2.75,4.64,4.64,0,0,1,3.29-1.1Zm-1.94,5.41.62-4.43a3.08,3.08,0,0,0-2.38.73,2.91,2.91,0,0,0-.86,2.21,1.81,1.81,0,0,0,.45,1.29,1.54,1.54,0,0,0,1.18.48A2.42,2.42,0,0,0,165.53,438.6Z"/><path d="M174,433.38l-.89,6.29H171.9l.1-1.07a3,3,0,0,1-2.07,1.17,1.41,1.41,0,0,1-1.07-.46,1.74,1.74,0,0,1-.44-1.29,4.15,4.15,0,0,1,0-.49l.59-4.15h1.19l-.59,4.15a2.64,2.64,0,0,0,0,.38c0,.63.23.95.7.95s1.12-.47,1.89-1.39l.58-4.09Z"/><path d="M179.83,438l-.17,1.13a3.48,3.48,0,0,1-2.1.71,2.42,2.42,0,0,1-1.91-.83,3.25,3.25,0,0,1-.72-2.21,3.92,3.92,0,0,1,.87-2.59,2.63,2.63,0,0,1,2.11-1.05,2,2,0,0,1,1.59.73,2.78,2.78,0,0,1,.64,1.9,4,4,0,0,1,0,.59h-3.93a4.28,4.28,0,0,0,0,.6,1.93,1.93,0,0,0,.47,1.37,1.57,1.57,0,0,0,1.2.5A3.64,3.64,0,0,0,179.83,438Zm-3.47-2.45H179a1.62,1.62,0,0,0-.3-1,1,1,0,0,0-.83-.38Q176.83,434.17,176.36,435.58Z"/><path d="M183.12,433.38l-.19,1.2,0,0a5,5,0,0,1,.89-1.06,1.19,1.19,0,0,1,.78-.26,1.46,1.46,0,0,1,.52.09v1.35a1.48,1.48,0,0,0-.73-.21,1.09,1.09,0,0,0-.62.17,2.72,2.72,0,0,0-.67.75,2.82,2.82,0,0,0-.4.69l-.49,3.54h-1.19l.88-6.29Z"/><path d="M190.87,433.38l-.88,6.29H188.8l.12-.72,0,0a2.35,2.35,0,0,1-1.7.88,1.84,1.84,0,0,1-1.46-.72,2.66,2.66,0,0,1-.61-1.76,4.09,4.09,0,0,1,1.13-3,4.17,4.17,0,0,1,3.14-1.16A5.21,5.21,0,0,1,190.87,433.38Zm-1.81,4.47.51-3.63h-.37a2.61,2.61,0,0,0-2.13.89,3.06,3.06,0,0,0-.73,2,2.07,2.07,0,0,0,.35,1.24,1.07,1.07,0,0,0,.9.49,1.57,1.57,0,0,0,.94-.43C188.87,438.1,189.05,437.93,189.06,437.85Z"/><path d="M190.87,441.69l.08-.62a1.18,1.18,0,0,0,.92-1.2.79.79,0,0,1-.55-.72.78.78,0,0,1,.25-.59.88.88,0,0,1,.63-.24.77.77,0,0,1,.63.32,1.23,1.23,0,0,1,.26.79,2,2,0,0,1-.6,1.4A3.2,3.2,0,0,1,190.87,441.69Z"/><path d="M202.61,430.37l-.19,1.31a2.93,2.93,0,0,0-1.67-.51,1.81,1.81,0,0,0-1.22.4,1.3,1.3,0,0,0-.46,1.05,1.24,1.24,0,0,0,.22.67,6.34,6.34,0,0,0,1.28,1.21A5.33,5.33,0,0,1,202,436a2.71,2.71,0,0,1,.34,1.29,2.4,2.4,0,0,1-.77,1.77,2.83,2.83,0,0,1-2.06.74,4.51,4.51,0,0,1-2.31-.68l.2-1.4a4.14,4.14,0,0,0,2.24.91,1.59,1.59,0,0,0,1-.33,1,1,0,0,0,.46-.9,1.51,1.51,0,0,0-.23-.75,6.71,6.71,0,0,0-1.3-1.26,5.12,5.12,0,0,1-1.38-1.51,2.73,2.73,0,0,1-.33-1.27,2.31,2.31,0,0,1,.92-1.85,3.3,3.3,0,0,1,2.16-.75A4.44,4.44,0,0,1,202.61,430.37Z"/><path d="M209.12,433.38l-.89,6.29h-1.18l.11-.72,0,0a2.33,2.33,0,0,1-1.69.88,1.86,1.86,0,0,1-1.47-.72,2.7,2.7,0,0,1-.6-1.76,4.08,4.08,0,0,1,1.12-3,4.19,4.19,0,0,1,3.14-1.16A5.28,5.28,0,0,1,209.12,433.38Zm-1.82,4.47.52-3.63h-.37a2.59,2.59,0,0,0-2.13.89,3.07,3.07,0,0,0-.74,2,2,2,0,0,0,.36,1.24,1,1,0,0,0,.89.49,1.59,1.59,0,0,0,.95-.43C207.12,438.1,207.29,437.93,207.3,437.85Z"/><path d="M211.94,433.38l-.16,1.11,0,0a2.77,2.77,0,0,1,2.09-1.23,1.33,1.33,0,0,1,1.13.53,2.25,2.25,0,0,1,.4,1.39,3,3,0,0,1,0,.5l-.6,4h-1.17l.57-4a2.75,2.75,0,0,0,0-.38,1.21,1.21,0,0,0-.2-.76.65.65,0,0,0-.52-.26,1.08,1.08,0,0,0-.4.09,2,2,0,0,0-.47.28,5.3,5.3,0,0,0-.63.56,1.71,1.71,0,0,0-.39.47l-.57,4h-1.18l.88-6.29Z"/><path d="M220,433.38l-.13.93h-1.25l-.61,3.44a1.91,1.91,0,0,0-.05.44c0,.41.22.61.66.61a2.39,2.39,0,0,0,1.15-.37l-.07,1.16a3.21,3.21,0,0,1-1.3.28,1.79,1.79,0,0,1-1.22-.39,1.33,1.33,0,0,1-.45-1,1.82,1.82,0,0,1,0-.32l.66-3.81h-1.11l.15-.93h1.15l.23-1.28H219l-.23,1.28Z"/><path d="M226.19,433.38l-.89,6.29h-1.18l.11-.72,0,0a2.33,2.33,0,0,1-1.69.88,1.86,1.86,0,0,1-1.47-.72,2.7,2.7,0,0,1-.6-1.76,4.08,4.08,0,0,1,1.12-3,4.19,4.19,0,0,1,3.14-1.16A5.33,5.33,0,0,1,226.19,433.38Zm-1.82,4.47.52-3.63h-.37a2.59,2.59,0,0,0-2.13.89,3.07,3.07,0,0,0-.74,2,2,2,0,0,0,.36,1.24,1,1,0,0,0,.89.49,1.59,1.59,0,0,0,.95-.43C224.19,438.1,224.36,437.93,224.37,437.85Z"/><path d="M232.28,430.12h1.4a3.45,3.45,0,0,1,2.25.65,2.18,2.18,0,0,1,.78,1.78,2,2,0,0,1-1.32,1.88,2.57,2.57,0,0,1,2,2.57,2.35,2.35,0,0,1-1,1.93,4,4,0,0,1-2.49.74h-3Zm.57,4.89-.5,3.59h1.44a2.79,2.79,0,0,0,1.69-.43,1.42,1.42,0,0,0,.59-1.23,1.69,1.69,0,0,0-.68-1.37,2.45,2.45,0,0,0-1.61-.56Zm.53-3.8-.38,2.73h.69a1.94,1.94,0,0,0,1.26-.39,1.29,1.29,0,0,0,.46-1c0-.88-.54-1.32-1.63-1.32Z"/><path d="M243.78,433.38l-.88,6.29h-1.19l.12-.72,0,0a2.35,2.35,0,0,1-1.7.88,1.84,1.84,0,0,1-1.46-.72,2.66,2.66,0,0,1-.61-1.76,4.09,4.09,0,0,1,1.13-3,4.17,4.17,0,0,1,3.14-1.16A5.21,5.21,0,0,1,243.78,433.38ZM242,437.85l.51-3.63h-.37a2.61,2.61,0,0,0-2.13.89,3.06,3.06,0,0,0-.73,2,2.07,2.07,0,0,0,.35,1.24,1.07,1.07,0,0,0,.9.49,1.57,1.57,0,0,0,.94-.43C241.78,438.1,242,437.93,242,437.85Zm-.31-7.56h1.42l-1.59,2h-.78Z"/><path d="M246.7,433.38l-.19,1.2,0,0a5.32,5.32,0,0,1,.89-1.06,1.19,1.19,0,0,1,.78-.26,1.46,1.46,0,0,1,.52.09v1.35a1.48,1.48,0,0,0-.73-.21,1.09,1.09,0,0,0-.62.17,2.72,2.72,0,0,0-.67.75,2.82,2.82,0,0,0-.4.69l-.49,3.54h-1.19l.88-6.29Z"/><path d="M251.43,430.12l-.51,3.77a2.1,2.1,0,0,1,1.53-.7,2,2,0,0,1,1.6.8,3.29,3.29,0,0,1,.61,2.07,3.75,3.75,0,0,1-1,2.74,4.07,4.07,0,0,1-3,1.07,13,13,0,0,1-1.67-.1l1.3-9.65Zm-1.23,8.76h.66a2.39,2.39,0,0,0,1.89-.77,3,3,0,0,0,.7-2.08,2.1,2.1,0,0,0-.37-1.33,1.18,1.18,0,0,0-1-.48,1.8,1.8,0,0,0-.85.24.82.82,0,0,0-.49.56Z"/><path d="M261.3,433.38l-.88,6.29h-1.19l.12-.72,0,0a2.35,2.35,0,0,1-1.7.88,1.84,1.84,0,0,1-1.46-.72,2.66,2.66,0,0,1-.61-1.76,4.09,4.09,0,0,1,1.13-3,4.19,4.19,0,0,1,3.14-1.16A5.21,5.21,0,0,1,261.3,433.38Zm-1.81,4.47.51-3.63h-.37a2.61,2.61,0,0,0-2.13.89,3.06,3.06,0,0,0-.73,2,2.07,2.07,0,0,0,.35,1.24,1.07,1.07,0,0,0,.9.49,1.57,1.57,0,0,0,.94-.43C259.3,438.1,259.48,437.93,259.49,437.85Z"/><path d="M264.22,433.38l-.19,1.2,0,0a5.32,5.32,0,0,1,.89-1.06,1.19,1.19,0,0,1,.78-.26,1.46,1.46,0,0,1,.52.09v1.35a1.48,1.48,0,0,0-.73-.21,1.09,1.09,0,0,0-.62.17,2.72,2.72,0,0,0-.67.75,2.82,2.82,0,0,0-.4.69l-.49,3.54h-1.19l.88-6.29Z"/><path d="M272,433.38l-.88,6.29H269.9L270,439l0,0a2.35,2.35,0,0,1-1.7.88,1.84,1.84,0,0,1-1.46-.72,2.71,2.71,0,0,1-.61-1.76,4.09,4.09,0,0,1,1.13-3,4.19,4.19,0,0,1,3.14-1.16A5.21,5.21,0,0,1,272,433.38Zm-1.81,4.47.51-3.63h-.36a2.62,2.62,0,0,0-2.14.89,3.12,3.12,0,0,0-.73,2,2.07,2.07,0,0,0,.35,1.24,1.07,1.07,0,0,0,.9.49,1.55,1.55,0,0,0,.94-.43C270,438.1,270.15,437.93,270.16,437.85Z"/><path d="M280.2,430h.67a12.64,12.64,0,0,0-1.45,2.41,12.21,12.21,0,0,0-1.08,3.41,19.81,19.81,0,0,0-.28,2.73,10.38,10.38,0,0,0,.87,4.34h-.59a12.9,12.9,0,0,1-1-2.66,10.94,10.94,0,0,1-.38-2.69,9.21,9.21,0,0,1,.75-3.62A16.51,16.51,0,0,1,280.2,430Z"/><path d="M289.77,430.12l-1.34,9.55h-.69l-4.75-7-1,7h-1.18l1.34-9.55h.65l4.76,7,1-7Z"/><path d="M296.15,433.38l-.88,6.29h-1.19l.12-.72,0,0a2.35,2.35,0,0,1-1.7.88,1.84,1.84,0,0,1-1.46-.72,2.66,2.66,0,0,1-.61-1.76,4.09,4.09,0,0,1,1.13-3,4.17,4.17,0,0,1,3.14-1.16A5.21,5.21,0,0,1,296.15,433.38Zm-1.81,4.47.51-3.63h-.37a2.61,2.61,0,0,0-2.13.89,3.06,3.06,0,0,0-.73,2,2.07,2.07,0,0,0,.35,1.24,1.07,1.07,0,0,0,.9.49,1.57,1.57,0,0,0,.94-.43C294.15,438.1,294.33,437.93,294.34,437.85Z"/><path d="M299.07,433.38l-.19,1.2,0,0a5.32,5.32,0,0,1,.89-1.06,1.19,1.19,0,0,1,.78-.26,1.46,1.46,0,0,1,.52.09v1.35a1.48,1.48,0,0,0-.73-.21,1.09,1.09,0,0,0-.62.17,2.72,2.72,0,0,0-.67.75,2.82,2.82,0,0,0-.4.69l-.49,3.54H297l.88-6.29Z"/><path d="M303.53,433.38l-.88,6.29h-1.19l.89-6.29Zm-1-2a.68.68,0,1,1,.2.49A.66.66,0,0,1,302.48,431.41Z"/><path d="M306.27,433.38l-.16,1.11,0,0a2.77,2.77,0,0,1,2.08-1.23,1.33,1.33,0,0,1,1.14.53,2.25,2.25,0,0,1,.4,1.39,3,3,0,0,1,0,.5l-.6,4h-1.18l.58-4a2.75,2.75,0,0,0,0-.38,1.27,1.27,0,0,0-.2-.76.65.65,0,0,0-.52-.26,1.08,1.08,0,0,0-.4.09,1.82,1.82,0,0,0-.47.28,5.3,5.3,0,0,0-.63.56,1.71,1.71,0,0,0-.39.47l-.57,4h-1.18l.88-6.29Zm3-2.84h.55a2,2,0,0,1-.32,1.14,1,1,0,0,1-.83.46,4.08,4.08,0,0,1-.94-.27,4,4,0,0,0-1-.27c-.28,0-.44.18-.48.52h-.56a2.06,2.06,0,0,1,.32-1.17,1,1,0,0,1,.81-.42,3.88,3.88,0,0,1,1,.26,3.77,3.77,0,0,0,1,.27C309.1,431.06,309.26,430.89,309.31,430.54Z"/><path d="M313.86,433.19a2.14,2.14,0,0,1,1.7.75,3,3,0,0,1,.64,2,4.44,4.44,0,0,1-.87,2.83,2.59,2.59,0,0,1-2.12,1.11,2.14,2.14,0,0,1-1.73-.75,3.09,3.09,0,0,1-.63-2.07,4.31,4.31,0,0,1,.87-2.75A2.62,2.62,0,0,1,313.86,433.19Zm0,.94a1.49,1.49,0,0,0-1.26.9,4.13,4.13,0,0,0-.53,2.15,2.1,2.1,0,0,0,.31,1.2.94.94,0,0,0,.79.46,1.51,1.51,0,0,0,1.28-.84,4,4,0,0,0,.53-2.14,2.22,2.22,0,0,0-.31-1.26A.92.92,0,0,0,313.86,434.13Z"/><path d="M316.52,442.89h-.67a12.64,12.64,0,0,0,1.45-2.41,12,12,0,0,0,1.07-3.41,18.34,18.34,0,0,0,.28-2.73,10.35,10.35,0,0,0-.87-4.34h.59a12.9,12.9,0,0,1,1,2.66,10.45,10.45,0,0,1,.39,2.68A9.22,9.22,0,0,1,319,439,17.18,17.18,0,0,1,316.52,442.89Z"/><path d="M330.2,433.38l-4.51,9.51h-1.26l1.71-3.62-1.22-5.89h1.18l.88,4.33,2-4.33Z"/><path d="M58.3,447.12h1.4a3.45,3.45,0,0,1,2.25.65,2.18,2.18,0,0,1,.78,1.78,2,2,0,0,1-1.32,1.88,2.57,2.57,0,0,1,2,2.57,2.34,2.34,0,0,1-1,1.93,4,4,0,0,1-2.49.74H57Zm.58,4.89-.51,3.59h1.45a2.81,2.81,0,0,0,1.69-.43,1.42,1.42,0,0,0,.59-1.23,1.72,1.72,0,0,0-.68-1.37,2.47,2.47,0,0,0-1.61-.56Zm.53-3.8L59,450.94h.68a1.9,1.9,0,0,0,1.26-.39,1.3,1.3,0,0,0,.47-1c0-.88-.55-1.32-1.64-1.32Z"/><path d="M69.81,450.38l-.89,6.29H67.74l.11-.72,0,0a2.33,2.33,0,0,1-1.69.88,1.86,1.86,0,0,1-1.47-.72,2.7,2.7,0,0,1-.6-1.76,4.08,4.08,0,0,1,1.12-3,4.19,4.19,0,0,1,3.14-1.16A5.28,5.28,0,0,1,69.81,450.38ZM68,454.85l.52-3.63h-.37a2.59,2.59,0,0,0-2.13.89,3.06,3.06,0,0,0-.73,2,2,2,0,0,0,.35,1.24,1,1,0,0,0,.89.49,1.59,1.59,0,0,0,1-.43C67.81,455.1,68,454.93,68,454.85Z"/><path d="M72.72,450.38l-.18,1.2,0,0a5,5,0,0,1,.89-1.06,1.19,1.19,0,0,1,.78-.26,1.5,1.5,0,0,1,.52.09v1.35a1.52,1.52,0,0,0-.74-.21,1.09,1.09,0,0,0-.62.17,2.9,2.9,0,0,0-.66.75,3,3,0,0,0-.41.69l-.49,3.54H70.66l.88-6.29Z"/><path d="M77.11,450.38l-.19,1.2,0,0a5,5,0,0,1,.89-1.06,1.19,1.19,0,0,1,.78-.26,1.46,1.46,0,0,1,.52.09v1.35a1.51,1.51,0,0,0-.73-.21,1.13,1.13,0,0,0-.63.17,2.9,2.9,0,0,0-.66.75,2.82,2.82,0,0,0-.4.69l-.5,3.54H75l.88-6.29Z"/><path d="M84.86,450.38,84,456.67H82.79l.12-.72,0,0a2.37,2.37,0,0,1-1.7.88,1.84,1.84,0,0,1-1.46-.72,2.66,2.66,0,0,1-.61-1.76,4.09,4.09,0,0,1,1.13-3,4.17,4.17,0,0,1,3.14-1.16A5.26,5.26,0,0,1,84.86,450.38Zm-1.81,4.47.51-3.63h-.37a2.61,2.61,0,0,0-2.13.89,3.06,3.06,0,0,0-.73,2,2.07,2.07,0,0,0,.35,1.24,1.06,1.06,0,0,0,.89.49,1.57,1.57,0,0,0,1-.43C82.86,455.1,83,454.93,83.05,454.85Z"/><path d="M87.68,450.38l-.16,1.11,0,0a2.78,2.78,0,0,1,2.09-1.23,1.32,1.32,0,0,1,1.13.53,2.25,2.25,0,0,1,.41,1.39,4.57,4.57,0,0,1,0,.5l-.61,4H89.36l.57-4a2.9,2.9,0,0,0,0-.38,1.21,1.21,0,0,0-.21-.76.64.64,0,0,0-.51-.26,1,1,0,0,0-.4.09,2,2,0,0,0-.48.28,5.3,5.3,0,0,0-.63.56,1.71,1.71,0,0,0-.39.47l-.57,4H85.61l.88-6.29Z"/><path d="M96.75,455.27l-.13,1.15a3.59,3.59,0,0,1-1.75.45,2.65,2.65,0,0,1-2-.79,2.91,2.91,0,0,1-.76-2.11,3.56,3.56,0,0,1,1.15-2.69,4.06,4.06,0,0,1,2.93-1.09,6.79,6.79,0,0,1,1.08.11l-.16,1.05a4,4,0,0,0-.91-.1,2.81,2.81,0,0,0-2.05.79,2.5,2.5,0,0,0-.82,1.86,2,2,0,0,0,.46,1.39,1.62,1.62,0,0,0,1.26.51A3.31,3.31,0,0,0,96.75,455.27Z"/><path d="M100.66,450.19a2.14,2.14,0,0,1,1.7.75,3,3,0,0,1,.64,2,4.44,4.44,0,0,1-.87,2.83,2.58,2.58,0,0,1-2.11,1.11,2.15,2.15,0,0,1-1.74-.75,3.09,3.09,0,0,1-.63-2.07,4.31,4.31,0,0,1,.87-2.75A2.62,2.62,0,0,1,100.66,450.19Zm0,.94a1.49,1.49,0,0,0-1.26.9,4.13,4.13,0,0,0-.53,2.15,2,2,0,0,0,.32,1.2.92.92,0,0,0,.78.46,1.51,1.51,0,0,0,1.28-.84,4,4,0,0,0,.53-2.14,2.22,2.22,0,0,0-.31-1.26A.92.92,0,0,0,100.66,451.13Z"/><path d="M117.71,447.12v9.55h-1.26V449.4l-3.85,7.27-1.68-7.31-2.35,7.31H107.3l3.15-9.55h1.09l1.49,6.47,3.43-6.47Z"/><path d="M121.08,450.38l-.88,6.29H119l.88-6.29Zm-1.06-2a.67.67,0,0,1,.21-.49.66.66,0,0,1,.48-.2.67.67,0,0,1,.48.2.7.7,0,0,1,0,1,.67.67,0,0,1-.48.2.66.66,0,0,1-.48-.2A.67.67,0,0,1,120,448.41Z"/><path d="M123.82,450.38l-.16,1.11,0,0a2.77,2.77,0,0,1,2.08-1.23,1.33,1.33,0,0,1,1.14.53,2.25,2.25,0,0,1,.4,1.39,3,3,0,0,1,0,.5l-.6,4h-1.18l.58-4a2.75,2.75,0,0,0,0-.38,1.27,1.27,0,0,0-.2-.76.65.65,0,0,0-.52-.26,1.08,1.08,0,0,0-.4.09,2,2,0,0,0-.48.28,5.34,5.34,0,0,0-.62.56,1.71,1.71,0,0,0-.39.47l-.58,4h-1.17l.88-6.29Z"/><path d="M134.13,450.38l-.88,6.29h-1.19l.12-.72,0,0a2.35,2.35,0,0,1-1.7.88,1.84,1.84,0,0,1-1.46-.72,2.71,2.71,0,0,1-.61-1.76,4.09,4.09,0,0,1,1.13-3,4.19,4.19,0,0,1,3.14-1.16A5.21,5.21,0,0,1,134.13,450.38Zm-1.81,4.47.51-3.63h-.36a2.62,2.62,0,0,0-2.14.89,3.12,3.12,0,0,0-.73,2,2.07,2.07,0,0,0,.35,1.24,1.07,1.07,0,0,0,.9.49,1.55,1.55,0,0,0,.94-.43C132.14,455.1,132.31,454.93,132.32,454.85Z"/><path d="M139,450.85v1.24a3.36,3.36,0,0,0-1.9-.83.92.92,0,0,0-.6.2.56.56,0,0,0-.25.47.68.68,0,0,0,.15.38,5.39,5.39,0,0,0,1,.74,3.56,3.56,0,0,1,1.1,1,1.75,1.75,0,0,1,.29.93,1.81,1.81,0,0,1-.55,1.35,2,2,0,0,1-1.4.53,3.75,3.75,0,0,1-2.18-.83l.2-1.15a3.45,3.45,0,0,0,1.94.94.85.85,0,0,0,.58-.2.61.61,0,0,0,.23-.5.8.8,0,0,0-.16-.46,5.2,5.2,0,0,0-1-.8,3.75,3.75,0,0,1-1.07-1,1.78,1.78,0,0,1-.26-.89,1.68,1.68,0,0,1,.54-1.3,2.05,2.05,0,0,1,1.44-.5A3.39,3.39,0,0,1,139,450.85Z"/><path d="M147.31,447H148a12.19,12.19,0,0,0-1.44,2.41,11.58,11.58,0,0,0-1.08,3.41,18.34,18.34,0,0,0-.28,2.73,10.38,10.38,0,0,0,.87,4.34h-.59a12.9,12.9,0,0,1-1-2.66,10.52,10.52,0,0,1-.39-2.69,9.21,9.21,0,0,1,.75-3.62A17.18,17.18,0,0,1,147.31,447Z"/><path d="M155.47,452.53,155,456a6.46,6.46,0,0,1-3.09.83,3.76,3.76,0,0,1-2.93-1.2,4.33,4.33,0,0,1-1.08-3,5.34,5.34,0,0,1,1.7-3.94,6.65,6.65,0,0,1,4.85-1.66,15.09,15.09,0,0,1,1.65.12l-.16,1.15c-.75-.08-1.31-.12-1.69-.12a5,5,0,0,0-3.67,1.32,4.2,4.2,0,0,0-1.33,3.09,3.21,3.21,0,0,0,.77,2.22,2.55,2.55,0,0,0,2,.87,4.13,4.13,0,0,0,1.83-.46l.23-1.66H152.7l.14-1Z"/><path d="M162,450.38l-.9,6.29h-1.17l.11-1.07a3,3,0,0,1-2.07,1.17,1.41,1.41,0,0,1-1.08-.46,1.78,1.78,0,0,1-.44-1.29,4.15,4.15,0,0,1,0-.49l.59-4.15h1.19l-.59,4.15a2.64,2.64,0,0,0,0,.38c0,.63.24.95.7.95s1.12-.47,1.9-1.39l.57-4.09Z"/><path d="M168.66,450.38l-.88,6.29h-1.19l.12-.72,0,0a2.35,2.35,0,0,1-1.7.88,1.84,1.84,0,0,1-1.46-.72,2.66,2.66,0,0,1-.61-1.76,4.09,4.09,0,0,1,1.13-3,4.17,4.17,0,0,1,3.14-1.16A5.21,5.21,0,0,1,168.66,450.38Zm-1.81,4.47.51-3.63H167a2.61,2.61,0,0,0-2.13.89,3.06,3.06,0,0,0-.73,2,2.07,2.07,0,0,0,.35,1.24,1.07,1.07,0,0,0,.9.49,1.57,1.57,0,0,0,.94-.43C166.66,455.1,166.84,454.93,166.85,454.85Z"/><path d="M171.38,450.38l-.88,6.29h-1.19l.88-6.29Zm-1.06-2a.67.67,0,0,1,.21-.49.66.66,0,0,1,.48-.2.69.69,0,0,1,0,1.38.66.66,0,0,1-.48-.2A.67.67,0,0,1,170.32,448.41Z"/><path d="M174.12,450.38l-.17,1.11,0,0a2.77,2.77,0,0,1,2.08-1.23,1.33,1.33,0,0,1,1.14.53,2.25,2.25,0,0,1,.4,1.39,3,3,0,0,1,0,.5l-.6,4h-1.18l.58-4a2.75,2.75,0,0,0,0-.38,1.21,1.21,0,0,0-.21-.76.62.62,0,0,0-.51-.26,1.08,1.08,0,0,0-.4.09,2,2,0,0,0-.48.28,4.63,4.63,0,0,0-.62.56,1.71,1.71,0,0,0-.39.47l-.58,4H172l.88-6.29Z"/><path d="M180.58,450.38l-.88,6.29h-1.19l.88-6.29Zm-.23-3.09h1.42l-1.59,2h-.78Z"/><path d="M187.07,450.38l-.89,6.29H185l.12-.72,0,0a2.35,2.35,0,0,1-1.69.88,1.85,1.85,0,0,1-1.47-.72,2.7,2.7,0,0,1-.6-1.76,4.08,4.08,0,0,1,1.12-3,4.19,4.19,0,0,1,3.14-1.16A5.33,5.33,0,0,1,187.07,450.38Zm-1.82,4.47.52-3.63h-.37a2.62,2.62,0,0,0-2.14.89,3.12,3.12,0,0,0-.73,2,2.07,2.07,0,0,0,.35,1.24,1.07,1.07,0,0,0,.9.49,1.55,1.55,0,0,0,.94-.43C185.07,455.1,185.24,454.93,185.25,454.85Z"/><path d="M187.3,459.89h-.68a12.14,12.14,0,0,0,1.45-2.41,12.31,12.31,0,0,0,1.08-3.41,19.48,19.48,0,0,0,.27-2.73,10.35,10.35,0,0,0-.87-4.34h.59a12.37,12.37,0,0,1,1,2.66,10.45,10.45,0,0,1,.39,2.68,9.22,9.22,0,0,1-.75,3.63A17.53,17.53,0,0,1,187.3,459.89Z"/><line class="cls-3" x1="50.02" y1="403.09" x2="339.37" y2="403.09"/><rect class="cls-4" x="40" y="345.12" width="10.02" height="10.02"/><rect class="cls-5" x="40" y="362.26" width="10.02" height="10.02"/><rect class="cls-6" x="40" y="379.4" width="10.02" height="10.02"/><path class="cls-6" d="M314.29,227.16,203.81,142.92a138.93,138.93,0,1,0,194.72-26.24c-1.83-1.39-4-3-5.9-4.25Z"/><path class="cls-4" d="M314.29,227.16,250.67,119.91a120,120,0,0,0-35.54,31.64Z"/><path class="cls-7" d="M243.68,139.32l.2-.14,1.24,1.56a12.86,12.86,0,0,0-2.72,2.31,9,9,0,0,0-1.66,2.95,4.87,4.87,0,0,1,2.26-.58,3.8,3.8,0,0,1,2.85,1.2,4.3,4.3,0,0,1-.1,6,4.42,4.42,0,0,1-6.33-.17,5.41,5.41,0,0,1-1.25-3.71,9.86,9.86,0,0,1,.64-3.43,11.59,11.59,0,0,1,1.85-3.2A14.49,14.49,0,0,1,243.68,139.32Zm-3.39,8.8a7,7,0,0,0-.08,1.08,2.85,2.85,0,0,0,.71,2,2.28,2.28,0,0,0,1.79.78,2.15,2.15,0,0,0,1.63-.67,2.3,2.3,0,0,0,.64-1.68,2.22,2.22,0,0,0-.68-1.68,2.57,2.57,0,0,0-1.8-.64,2.87,2.87,0,0,0-1,.18A5.92,5.92,0,0,0,240.29,148.12Z"/><path class="cls-7" d="M251.44,139.2a3.2,3.2,0,0,1,2.25,5.47,3,3,0,0,1-2.25.94,3.07,3.07,0,0,1-2.25-.94,3.11,3.11,0,0,1-.94-2.26,3.23,3.23,0,0,1,3.19-3.21Zm7.26,0h1.58l-9.42,14.69h-1.58Zm-7.28,1.6a1.66,1.66,0,0,0-1.66,1.66,1.54,1.54,0,0,0,.49,1.15,1.67,1.67,0,0,0,2.34,0,1.56,1.56,0,0,0,.48-1.15,1.64,1.64,0,0,0-1.65-1.66Zm6.78,6.7a3.19,3.19,0,0,1,3.2,3.19,3,3,0,0,1-.94,2.23,3.26,3.26,0,0,1-4.52,0,3,3,0,0,1-.94-2.23,3,3,0,0,1,.94-2.26A3.1,3.1,0,0,1,258.2,147.46Zm0,1.55a1.57,1.57,0,0,0-1.15.49,1.59,1.59,0,0,0-.47,1.15,1.62,1.62,0,0,0,.47,1.17,1.57,1.57,0,0,0,1.15.49,1.64,1.64,0,0,0,1.66-1.66,1.57,1.57,0,0,0-.48-1.16A1.6,1.6,0,0,0,258.18,149Z"/><polygon class="cls-8" points="209.22 305.12 190.31 328.11 190.31 365.64 309.59 365.64 309.59 305.12 209.22 305.12"/><rect class="cls-7" x="206.56" y="321.19" width="4.34" height="8.3"/><rect class="cls-6" x="227.64" y="328.11" width="102.76" height="37.54"/><path class="cls-9" d="M209.22,305.12l18.13,23h103s-9.57-10.34-20.57-22.89l0,0Z"/><rect class="cls-7" x="311.42" y="339.47" width="4.97" height="9.51"/><rect class="cls-7" x="295.86" y="339.47" width="4.97" height="9.51"/><rect class="cls-7" x="280.31" y="339.47" width="4.97" height="9.51"/><rect class="cls-7" x="264.75" y="339.47" width="4.97" height="9.51"/><rect class="cls-7" x="249.19" y="339.47" width="4.97" height="9.51"/><path class="cls-7" d="M312.82,254.5h9.27L315.6,269l-1.83-.77L319,256.46h-6.19Z"/><path class="cls-7" d="M328.74,254.46l.21-.14,1.24,1.56a12.37,12.37,0,0,0-2.73,2.31,8.86,8.86,0,0,0-1.66,2.95,4.92,4.92,0,0,1,2.26-.59,3.84,3.84,0,0,1,2.86,1.2,4.33,4.33,0,0,1-.11,6,4.2,4.2,0,0,1-3.06,1.25,4.13,4.13,0,0,1-3.27-1.42,5.43,5.43,0,0,1-1.24-3.72,9.68,9.68,0,0,1,.64-3.43,11.59,11.59,0,0,1,1.84-3.2A15,15,0,0,1,328.74,254.46Zm-3.38,8.8a5.94,5.94,0,0,0-.08,1.08,2.82,2.82,0,0,0,.7,2,2.32,2.32,0,0,0,1.8.78,2.16,2.16,0,0,0,1.62-.66,2.33,2.33,0,0,0,.64-1.68,2.19,2.19,0,0,0-.68-1.68,2.49,2.49,0,0,0-1.8-.64,3.11,3.11,0,0,0-1,.17A6.29,6.29,0,0,0,325.36,263.26Z"/><path class="cls-7" d="M336.5,254.34a3,3,0,0,1,2.26.94,3.13,3.13,0,0,1,.93,2.27,3.18,3.18,0,0,1-5.44,2.25,3.19,3.19,0,0,1,0-4.52A3,3,0,0,1,336.5,254.34Zm7.26,0h1.58L335.92,269h-1.58Zm-7.28,1.6a1.64,1.64,0,0,0-1.17,2.81,1.67,1.67,0,0,0,2.34,0,1.65,1.65,0,0,0-1.17-2.81Zm6.79,6.69a3.11,3.11,0,0,1,2.25.94,3.07,3.07,0,0,1,.94,2.25,3,3,0,0,1-.94,2.23,3.24,3.24,0,0,1-4.52,0,3,3,0,0,1-.94-2.23,3.21,3.21,0,0,1,3.21-3.19Zm0,1.56a1.55,1.55,0,0,0-1.15.48,1.59,1.59,0,0,0-.48,1.16,1.62,1.62,0,0,0,.48,1.17,1.55,1.55,0,0,0,1.15.48,1.64,1.64,0,0,0,1.65-1.65,1.55,1.55,0,0,0-.48-1.16A1.59,1.59,0,0,0,343.25,264.15Z"/><path class="cls-5" d="M223.05,74.18l90.88,153.71L420.47,72.56S335.24,15.15,223.05,74.18Z"/><circle class="cls-9" cx="438.11" cy="86.95" r="27.29" transform="translate(255.02 494.36) rotate(-77.03)"/><path class="cls-6" d="M423.42,85.42H391.15s.24-3.9,6.22-3.9c0,0,1.51-4.87,7.65-4.87a9.22,9.22,0,0,1,6.93,2.4S423.42,77.67,423.42,85.42Z"/><path class="cls-6" d="M438.11,105.61H489.9s-.38-6.27-10-6.27c0,0-2.43-7.8-12.28-7.8-4.62,0-7.54.77-11.13,3.84C456.52,95.38,438.11,93.18,438.11,105.61Z"/><path class="cls-7" d="M304.57,130.8h2.05v14.32h-2.05Z"/><path class="cls-7" d="M311.83,134.64a3.74,3.74,0,0,1,1.26-2.85,4.35,4.35,0,0,1,3.09-1.18,4.23,4.23,0,0,1,3,1.17,3.8,3.8,0,0,1-.55,6,3.67,3.67,0,0,1,2,3.38,3.79,3.79,0,0,1-1.29,2.94,5.12,5.12,0,0,1-6.53,0,3.78,3.78,0,0,1-1.33-2.93,3.7,3.7,0,0,1,2-3.36,5.32,5.32,0,0,1-1.3-1.47A3.47,3.47,0,0,1,311.83,134.64Zm6.75,6.64v-.21a2,2,0,0,0-.7-1.6,2.63,2.63,0,0,0-1.82-.62,2.6,2.6,0,0,0-1.79.62,2.09,2.09,0,0,0-.69,1.62,2,2,0,0,0,.7,1.62,2.69,2.69,0,0,0,1.84.63,2.64,2.64,0,0,0,1.77-.58A1.83,1.83,0,0,0,318.58,141.28Zm-.17-6.58a2,2,0,0,0-.65-1.53,2.22,2.22,0,0,0-1.62-.61,2.28,2.28,0,0,0-1.63.6,2,2,0,0,0-.64,1.52,2,2,0,0,0,.67,1.53,2.26,2.26,0,0,0,1.62.64,2.22,2.22,0,0,0,1.59-.63A2,2,0,0,0,318.41,134.7Z"/><path class="cls-7" d="M325,130.63a3.21,3.21,0,0,1,0,6.41,3,3,0,0,1-2.25-.94,3.21,3.21,0,0,1,2.25-5.47Zm7.25,0h1.59l-9.42,14.7h-1.58Zm-7.28,1.6a1.66,1.66,0,0,0-1.65,1.66,1.54,1.54,0,0,0,.49,1.15,1.65,1.65,0,0,0,2.33,0,1.54,1.54,0,0,0,.49-1.15,1.64,1.64,0,0,0-1.66-1.66Zm6.79,6.7a3.17,3.17,0,0,1,2.26,5.42,3.25,3.25,0,0,1-4.53,0,3,3,0,0,1-.93-2.23,3.06,3.06,0,0,1,.94-2.26A3.1,3.1,0,0,1,331.8,138.89Zm0,1.56a1.62,1.62,0,0,0-1.62,1.63,1.58,1.58,0,0,0,.47,1.17,1.54,1.54,0,0,0,1.15.49,1.64,1.64,0,0,0,1.66-1.66,1.59,1.59,0,0,0-.48-1.16A1.65,1.65,0,0,0,331.78,140.45Z"/></g></g></svg>