<svg xmlns="http://www.w3.org/2000/svg" viewBox="0 0 655.53 424.45"><defs><style>.cls-1{fill:#fff;}.cls-2{fill:#0069b3;}.cls-3{fill:#038d71;}.cls-4{fill:#3595e0;}.cls-5{fill:#5045b3;}.cls-6{fill:#eb6654;}.cls-7{fill:#fdf6e6;}.cls-8{fill:none;stroke:#000;stroke-miterlimit:10;stroke-width:0.5px;opacity:0.2;}</style></defs><g id="Capa_2" data-name="Capa 2"><g id="Arte"><path class="cls-1" d="M655.53,424.45H3.68c-2,0-3.68-1.36-3.68-3.05V3.05C0,1.37,1.65,0,3.68,0H655.53Z"/><path class="cls-2" d="M9.78.16V2H4.22V5.24H9.54V7.09H4.22v3.49H9.9v1.86H1.84V.16Z"/><path class="cls-2" d="M15.57,0A7.14,7.14,0,0,1,19,.9V3a6.73,6.73,0,0,0-3.38-1.15,2.44,2.44,0,0,0-1.4.34,1.07,1.07,0,0,0-.51.93c0,.46.32.89.94,1.28.18.12.85.45,2,1A5.72,5.72,0,0,1,18.88,7a3.31,3.31,0,0,1,.67,2.09,3.18,3.18,0,0,1-1.14,2.55,4.38,4.38,0,0,1-2.95,1,7,7,0,0,1-2-.26,8.9,8.9,0,0,1-1.91-.9V9.11a6,6,0,0,0,3.71,1.63,2.35,2.35,0,0,0,1.41-.38,1.16,1.16,0,0,0,.54-1A1.58,1.58,0,0,0,16.25,8c-.51-.28-1.18-.62-2-1a5.85,5.85,0,0,1-2.17-1.54,3.09,3.09,0,0,1-.71-2A3,3,0,0,1,12.53.92,4.75,4.75,0,0,1,15.57,0Z"/><path class="cls-2" d="M31.34.16V2H27V12.44H24.61V2H20.25V.16Z"/><path class="cls-2" d="M37.82.16l5.42,12.28h-2.5l-1.28-3H34l-1.18,3H30.33L35.39.16Zm-3.1,7.49h4L36.61,2.79Z"/><path class="cls-2" d="M49.72.16a7.29,7.29,0,0,1,3.41.78,5.72,5.72,0,0,1,2.32,2.2,6.18,6.18,0,0,1,.82,3.18,6.08,6.08,0,0,1-.83,3.2,5.6,5.6,0,0,1-2.36,2.15,7.73,7.73,0,0,1-3.5.77h-5V.16Zm-.25,10.42A4.28,4.28,0,0,0,52.63,9.4a4.19,4.19,0,0,0,1.19-3.1,4.16,4.16,0,0,0-1.2-3.14A4.51,4.51,0,0,0,49.39,2H47v8.57Z"/><path class="cls-2" d="M64.67,0A7.29,7.29,0,0,1,68.1.79a6,6,0,0,1,2.43,2.26,6.06,6.06,0,0,1,.91,3.25,6.14,6.14,0,0,1-3.31,5.48,7.39,7.39,0,0,1-3.48.82,7.28,7.28,0,0,1-3.46-.83,6.19,6.19,0,0,1-2.43-8.64A6.06,6.06,0,0,1,61.16.82,7.39,7.39,0,0,1,64.67,0ZM60.34,6.3a4.36,4.36,0,0,0,.55,2.2A3.88,3.88,0,0,0,62.44,10a4.54,4.54,0,0,0,2.23.54,4.28,4.28,0,0,0,3.11-1.19A4.09,4.09,0,0,0,69,6.3a4.49,4.49,0,0,0-.55-2.2A3.84,3.84,0,0,0,66.9,2.58a4.76,4.76,0,0,0-2.25-.53,4.61,4.61,0,0,0-2.24.54A3.65,3.65,0,0,0,60.88,4.1,4.45,4.45,0,0,0,60.34,6.3Z"/><path class="cls-2" d="M83.59.16A7.26,7.26,0,0,1,87,.94a5.66,5.66,0,0,1,2.32,2.2,6.18,6.18,0,0,1,.83,3.18,6.18,6.18,0,0,1-.83,3.2A5.66,5.66,0,0,1,87,11.67a7.75,7.75,0,0,1-3.51.77h-5V.16Zm-.25,10.42A4.26,4.26,0,0,0,86.5,9.4a4.15,4.15,0,0,0,1.19-3.1A4.19,4.19,0,0,0,86.5,3.16,4.52,4.52,0,0,0,83.27,2H80.82v8.57Z"/><path class="cls-2" d="M100.19.16V2H94.63V5.24H100V7.09H94.63v3.49h5.68v1.86H92.25V.16Z"/><path class="cls-2" d="M109.69.16V10.58h6v1.86h-8.34V.16Z"/><path class="cls-2" d="M123.1,0a7.31,7.31,0,0,1,3.43.79,6.14,6.14,0,0,1,3.33,5.51,6.14,6.14,0,0,1-3.31,5.48,7.71,7.71,0,0,1-6.94,0,6.19,6.19,0,0,1-2.43-8.64,6.06,6.06,0,0,1,2.4-2.31A7.4,7.4,0,0,1,123.1,0Zm-4.34,6.3a4.36,4.36,0,0,0,.56,2.2A3.86,3.86,0,0,0,120.86,10a4.58,4.58,0,0,0,2.24.54,4.25,4.25,0,0,0,3.1-1.19,4.09,4.09,0,0,0,1.22-3.06,4.38,4.38,0,0,0-.55-2.2,3.84,3.84,0,0,0-1.55-1.52,5,5,0,0,0-4.49,0A3.77,3.77,0,0,0,119.3,4.1,4.45,4.45,0,0,0,118.76,6.3Z"/><path class="cls-2" d="M135.54,0A7.14,7.14,0,0,1,139,.9V3a6.73,6.73,0,0,0-3.38-1.15,2.44,2.44,0,0,0-1.4.34,1.07,1.07,0,0,0-.51.93c0,.46.32.89.94,1.28.18.12.85.45,2,1A5.72,5.72,0,0,1,138.85,7a3.31,3.31,0,0,1,.67,2.09,3.18,3.18,0,0,1-1.14,2.55,4.38,4.38,0,0,1-2.95,1,7,7,0,0,1-2-.26,8.9,8.9,0,0,1-1.91-.9V9.11a6,6,0,0,0,3.71,1.63,2.35,2.35,0,0,0,1.41-.38,1.16,1.16,0,0,0,.54-1A1.58,1.58,0,0,0,136.22,8c-.51-.28-1.18-.62-2-1a5.85,5.85,0,0,1-2.17-1.54,3.09,3.09,0,0,1-.71-2A3,3,0,0,1,132.5.92,4.75,4.75,0,0,1,135.54,0Z"/><path class="cls-2" d="M151.13.16a3.91,3.91,0,0,1,2.79,1A3.33,3.33,0,0,1,155,3.73a3.28,3.28,0,0,1-1.09,2.57,4.09,4.09,0,0,1-2.87,1h-2.29v5.15h-2.37V.16Zm-.59,5.27A2.29,2.29,0,0,0,152,5a1.58,1.58,0,0,0,.53-1.29c0-1.13-.73-1.7-2.18-1.7h-1.62V5.43Z"/><path class="cls-2" d="M163.08,0a7.31,7.31,0,0,1,3.43.79,6.14,6.14,0,0,1,3.33,5.51,6.14,6.14,0,0,1-3.31,5.48,7.71,7.71,0,0,1-6.94,0,6.19,6.19,0,0,1-2.43-8.64,6.06,6.06,0,0,1,2.4-2.31A7.4,7.4,0,0,1,163.08,0Zm-4.34,6.3a4.36,4.36,0,0,0,.56,2.2A3.86,3.86,0,0,0,160.84,10a4.58,4.58,0,0,0,2.24.54,4.25,4.25,0,0,0,3.1-1.19A4.09,4.09,0,0,0,167.4,6.3a4.38,4.38,0,0,0-.55-2.2,3.84,3.84,0,0,0-1.55-1.52,5,5,0,0,0-4.49,0,3.77,3.77,0,0,0-1.53,1.51A4.45,4.45,0,0,0,158.74,6.3Z"/><path class="cls-2" d="M177.1.16a7.23,7.23,0,0,1,3.41.78,5.66,5.66,0,0,1,2.32,2.2,6.18,6.18,0,0,1,.83,3.18,6.18,6.18,0,0,1-.83,3.2,5.66,5.66,0,0,1-2.36,2.15,7.75,7.75,0,0,1-3.51.77h-5V.16Zm-.24,10.42A4.25,4.25,0,0,0,180,9.4a4.16,4.16,0,0,0,1.2-3.1A4.16,4.16,0,0,0,180,3.16,4.51,4.51,0,0,0,176.78,2h-2.45v8.57Z"/><path class="cls-3" d="M255.74,295.58c2.89-4.21,5.71-8.39,8.6-12.51,3.72-5.3,7.51-10.55,11.26-15.83,2.31-3.26,4.6-6.53,6.9-9.8l13.12-18.66c2.18-3.11,4.34-6.25,6.53-9.35q4.77-6.75,9.57-13.47c2.11-3,4.24-5.93,6.33-8.92,2.84-4.07,5.6-8.2,8.46-12.27s5.81-8.22,8.82-12.25a9.51,9.51,0,0,1,2.61-2.07c1.66-1.06,3.41-2,5.08-3,3.3-2.08,6.55-4.26,9.87-6.31,4.6-2.86,9.27-5.61,13.88-8.45,2.89-1.79,5.72-3.69,8.6-5.49,3.78-2.35,7.6-4.63,11.38-7,2.56-1.59,5.08-3.25,7.65-4.85,3.84-2.38,7.71-4.73,11.57-7.11,2.17-1.34,4.31-2.72,6.48-4.06,4.18-2.6,8.37-5.16,12.55-7.76,2.52-1.57,5-3.21,7.53-4.76,3.36-2.07,6.74-4.08,10.11-6.13,2.48-1.51,4.95-3,7.42-4.54,1.17-.73,2.31-1.52,3.58-2.36a26.73,26.73,0,0,1,1.52,2.3c2.22,4.12,4.48,8.21,6.57,12.39,1.32,2.66,2.46,5.41,3.53,8.18,1.21,3.13,2.34,6.3,3.33,9.51,1,3.06,1.81,6.15,2.47,9.28.81,3.81,1.41,7.67,2,11.52.42,2.71.78,5.45,1,8.18s.26,5.55.39,8.33v.35c0,3,.06,6,0,8.94-.07,2.71-.15,5.44-.49,8.12-.57,4.49-1.12,9-2.08,13.41-1.19,5.48-2.69,10.89-4.26,16.27a81.92,81.92,0,0,1-3.25,8.83c-1.46,3.51-2.93,7-4.7,10.38-2.34,4.46-4.8,8.88-7.52,13.11a133,133,0,0,1-8.08,11.09c-2.78,3.48-5.72,6.86-8.82,10.06a129,129,0,0,1-9.6,9c-3.35,2.82-6.88,5.42-10.43,8-2.45,1.77-5,3.35-7.61,4.92s-5.14,3.16-7.82,4.51c-3.66,1.84-7.37,3.58-11.15,5.15s-7.41,2.83-11.14,4.15c-2.37.84-4.75,1.67-7.19,2.27-4.14,1-8.32,1.89-12.51,2.71-2.77.55-5.57,1-8.37,1.28-2.45.28-4.92.3-7.39.45-.62,0-1.23.15-1.85.16-2.71,0-5.42.2-8.12.06-4.53-.22-9.07-.44-13.56-1a118.58,118.58,0,0,1-14.27-2.61c-5.76-1.5-11.42-3.4-17.05-5.35a84.86,84.86,0,0,1-9.72-4.17q-6.25-3.1-12.3-6.59c-3.11-1.81-6.06-3.9-9.08-5.87C256,295.77,255.82,295.64,255.74,295.58Z"/><path class="cls-4" d="M340.28,187.29H193.36s-3.49,80,67.37,122.4Z"/><path class="cls-5" d="M340.68,187.16c-1.15-4.51-2.26-8.76-3.31-13q-4.14-16.72-8.24-33.46l-5.49-22.33-7.29-29.6c-1.3-5.3-2.56-10.61-4-15.89-.32-1.23,0-1.39,1.09-1.53,5.11-.7,10.19-1.76,15.31-2.14a145.08,145.08,0,0,1,16-.11,98.44,98.44,0,0,1,18.61,2.65,122.18,122.18,0,0,1,17.22,5.37,117.57,117.57,0,0,1,16.37,8,119.93,119.93,0,0,1,21.63,16.35,127.74,127.74,0,0,1,15.7,18c.66.9.47,1.26-.37,1.86q-17.73,12.42-35.4,24.92c-7.75,5.47-15.47,11-23.21,16.44q-16.23,11.47-32.48,22.9C342.19,186.05,341.52,186.55,340.68,187.16Z"/><path class="cls-6" d="M341.77,186.94l-9.15.72c-6.53.52-13.06,1.09-19.59,1.57-3.95.3-7.91.43-11.86.73-6.37.48-12.73,1.07-19.1,1.56-3.73.29-7.47.45-11.2.71-6.7.48-13.4,1-20.1,1.49-7,.51-13.94,1-20.91,1.48-6.76.5-13.5,1.07-20.26,1.57-5.46.41-10.93.75-16.39,1.16q-4.86.36-9.71.84c-1.45.15-2-.25-2-1.85.18-6.32-.06-12.68.42-19,.46-6,1.53-11.93,2.49-17.87a73.29,73.29,0,0,1,2.2-10.29c2.23-7.12,4.46-14.27,7.25-21.19a147.86,147.86,0,0,1,8.54-17.65c3.24-5.72,7-11.19,10.77-16.57a126.23,126.23,0,0,1,16.44-19c4.35-4.12,8.8-8.18,13.48-11.92a159.16,159.16,0,0,1,46.45-25.84c4-1.42,8.15-2.56,12.17-4,1.21-.43,1.46.09,1.69,1,1.3,5.09,2.61,10.18,3.89,15.27,1.67,6.62,3.3,13.23,4.95,19.85q4.41,17.64,8.84,35.29,4.25,16.93,8.5,33.86,3.3,13.07,6.6,26.13C338,172.23,339.85,179.4,341.77,186.94Z"/><path class="cls-7" d="M259.72,218h6.36v1.82h-4.49v3.62l.44,0a4.76,4.76,0,0,1,3.42,1.27,4.21,4.21,0,0,1,1.34,3.22,4.36,4.36,0,0,1-1.32,3.29,4.8,4.8,0,0,1-3.44,1.27,7.37,7.37,0,0,1-3.39-.85V229.5a5.58,5.58,0,0,0,3,1,3.19,3.19,0,0,0,2.17-.76,2.35,2.35,0,0,0,.87-1.85,2.33,2.33,0,0,0-.95-1.9,3.69,3.69,0,0,0-2.38-.76,4.44,4.44,0,0,0-1.66.2Z"/><path class="cls-7" d="M262.45,119.47h9.27L265.24,134l-1.83-.77,5.24-11.77h-6.2Z"/><path class="cls-7" d="M366.71,113.67l.21-.15,1.24,1.56a12.86,12.86,0,0,0-2.72,2.31,9,9,0,0,0-1.67,3,4.94,4.94,0,0,1,2.27-.58,3.8,3.8,0,0,1,2.85,1.2,4.3,4.3,0,0,1-.1,6,4.2,4.2,0,0,1-3.07,1.26,4.16,4.16,0,0,1-3.27-1.42,5.45,5.45,0,0,1-1.24-3.72,9.64,9.64,0,0,1,.64-3.43,11.56,11.56,0,0,1,1.84-3.2A14.69,14.69,0,0,1,366.71,113.67Zm-3.38,8.79a7,7,0,0,0-.08,1.08,2.85,2.85,0,0,0,.7,2,2.32,2.32,0,0,0,1.8.78,2.15,2.15,0,0,0,1.63-.67A2.34,2.34,0,0,0,368,124a2.22,2.22,0,0,0-.68-1.68,2.57,2.57,0,0,0-1.8-.64,2.93,2.93,0,0,0-1.05.18A5.89,5.89,0,0,0,363.33,122.46Z"/><path class="cls-7" d="M376.79,218h2v14.32h-2Z"/><path class="cls-7" d="M390.5,217.8h.84v8h1.6v1.74h-1.6v4.73h-2v-4.73h-6.06v-.88Zm-1.16,8v-4.15L386,225.84Z"/><line class="cls-8" x1="45.68" y1="401" x2="335.02" y2="401"/><path d="M57,329.32l1.85,9.6H57.69l-.56-3h-3l-1.26,3H51.59l4.23-9.6Zm-2.47,5.59h2.39L56.2,331Z"/><path d="M66.07,329.37l-1.35,9.55a5.9,5.9,0,0,1-1.61.2,3.58,3.58,0,0,1-2.45-.76,2.72,2.72,0,0,1-.85-2.15,3.72,3.72,0,0,1,1.11-2.57,4,4,0,0,1,3-1.2h.5l.43-3.07Zm-2.41,8.74.65-4.68H64a2.93,2.93,0,0,0-2.15.81,2.62,2.62,0,0,0-.82,1.94,1.87,1.87,0,0,0,.54,1.44,2.15,2.15,0,0,0,1.54.51Z"/><path d="M69.46,332.44a2.14,2.14,0,0,1,1.7.75,3,3,0,0,1,.64,2,4.5,4.5,0,0,1-.86,2.83,2.62,2.62,0,0,1-2.12,1.11,2.15,2.15,0,0,1-1.74-.75,3.09,3.09,0,0,1-.63-2.07,4.31,4.31,0,0,1,.87-2.75A2.62,2.62,0,0,1,69.46,332.44Zm0,.94a1.49,1.49,0,0,0-1.26.9,4.13,4.13,0,0,0-.53,2.15,2,2,0,0,0,.32,1.2.92.92,0,0,0,.78.46,1.51,1.51,0,0,0,1.28-.84,4,4,0,0,0,.53-2.14,2.22,2.22,0,0,0-.31-1.26A.91.91,0,0,0,69.46,333.38Z"/><path d="M75.14,331l-.22,1.59a2.78,2.78,0,0,1,1.06-.19,2.42,2.42,0,0,1,1.86.83,3,3,0,0,1,.75,2.1,3.83,3.83,0,0,1-1,2.62,3.57,3.57,0,0,1-2.78,1.13H74l-.42,3H72.4l1.12-7.95a2.75,2.75,0,0,0-.69.71,2,2,0,0,1-.36.44s0,0,0-.09a2,2,0,0,1,.36-.91,3.75,3.75,0,0,1,.86-1L74,331Zm-.34,2.47-.65,4.6h.58a2.47,2.47,0,0,0,1.93-.82,2.8,2.8,0,0,0,.71-1.92,2.09,2.09,0,0,0-.5-1.5,1.69,1.69,0,0,0-1.29-.53A1.71,1.71,0,0,0,74.8,333.51Z"/><path d="M83.08,332.63l-.13.93H81.7L81.08,337a2.55,2.55,0,0,0,0,.44c0,.41.22.61.66.61a2.39,2.39,0,0,0,1.15-.37l-.07,1.16a3.24,3.24,0,0,1-1.3.28,1.73,1.73,0,0,1-1.22-.4,1.29,1.29,0,0,1-.45-1,1.82,1.82,0,0,1,0-.32l.66-3.81H79.39l.15-.93h1.15l.23-1.28h1.17l-.23,1.28Z"/><path d="M89.26,332.63l-.89,6.29H87.18l.12-.72,0,0a2.35,2.35,0,0,1-1.69.88,1.83,1.83,0,0,1-1.47-.73,2.66,2.66,0,0,1-.6-1.76,4.08,4.08,0,0,1,1.12-2.95,4.19,4.19,0,0,1,3.14-1.16A5.33,5.33,0,0,1,89.26,332.63Zm-1.82,4.47.52-3.63h-.37a2.62,2.62,0,0,0-2.14.89,3.12,3.12,0,0,0-.73,2,2,2,0,0,0,.36,1.24,1.07,1.07,0,0,0,.89.49,1.55,1.55,0,0,0,.94-.43C87.26,337.35,87.43,337.18,87.44,337.1Z"/><path d="M96.27,329.37l-1.34,9.55a6,6,0,0,1-1.61.2,3.56,3.56,0,0,1-2.45-.76,2.73,2.73,0,0,1-.86-2.15,3.73,3.73,0,0,1,1.12-2.57,3.94,3.94,0,0,1,3-1.2h.5l.43-3.07Zm-2.4,8.74.65-4.68h-.31a2.91,2.91,0,0,0-2.15.81,2.62,2.62,0,0,0-.82,1.94,1.87,1.87,0,0,0,.54,1.44,2.15,2.15,0,0,0,1.54.51Z"/><path d="M99.67,332.44a2.14,2.14,0,0,1,1.7.75,3,3,0,0,1,.63,2,4.44,4.44,0,0,1-.86,2.83A2.59,2.59,0,0,1,99,339.12a2.14,2.14,0,0,1-1.73-.75,3.09,3.09,0,0,1-.63-2.07,4.31,4.31,0,0,1,.87-2.75A2.62,2.62,0,0,1,99.67,332.44Zm0,.94a1.52,1.52,0,0,0-1.27.9,4.23,4.23,0,0,0-.52,2.15,2.1,2.1,0,0,0,.31,1.2.93.93,0,0,0,.79.46,1.53,1.53,0,0,0,1.28-.84,4,4,0,0,0,.53-2.14,2.22,2.22,0,0,0-.31-1.26A.93.93,0,0,0,99.67,333.38Z"/><path d="M59.05,346.37l-.15,1.14H55.07l-.41,3H58l-.15,1.13h-3.4L54,354.79h5l-.17,1.13H52.61L54,346.37Z"/><path d="M61.71,349.63l-.16,1.11,0,0a2.78,2.78,0,0,1,2.09-1.23,1.32,1.32,0,0,1,1.13.53,2.25,2.25,0,0,1,.41,1.39,4.57,4.57,0,0,1,0,.5l-.61,4H63.39l.57-4a2.9,2.9,0,0,0,0-.38,1.21,1.21,0,0,0-.21-.76.64.64,0,0,0-.51-.26,1,1,0,0,0-.4.09,2,2,0,0,0-.48.28,5.3,5.3,0,0,0-.63.56,1.71,1.71,0,0,0-.39.47l-.57,4H59.64l.88-6.29Z"/><path d="M72.6,348l-.22,1.59a2.74,2.74,0,0,1,1.06-.19,2.42,2.42,0,0,1,1.86.83,3,3,0,0,1,.75,2.1A3.79,3.79,0,0,1,75,355a3.54,3.54,0,0,1-2.78,1.13h-.78l-.42,3H69.86L71,351.19a3,3,0,0,0-.7.71,2.12,2.12,0,0,1-.35.44s-.05,0-.05-.09a2.11,2.11,0,0,1,.35-.91,3.94,3.94,0,0,1,.86-1l.32-2.31Zm-.35,2.47-.64,4.6h.57a2.46,2.46,0,0,0,1.93-.82,2.81,2.81,0,0,0,.72-1.92,2.14,2.14,0,0,0-.5-1.5,1.69,1.69,0,0,0-1.29-.53A1.78,1.78,0,0,0,72.25,350.51Z"/><path d="M79.13,349.63l-.19,1.2,0,0a5.79,5.79,0,0,1,.89-1.07,1.23,1.23,0,0,1,.78-.25,1.46,1.46,0,0,1,.52.09V351a1.48,1.48,0,0,0-.73-.21,1.09,1.09,0,0,0-.62.17,2.58,2.58,0,0,0-.67.75,2.82,2.82,0,0,0-.4.69l-.49,3.54H77.06l.88-6.29Z"/><path d="M84.16,349.44a2.14,2.14,0,0,1,1.7.75,3,3,0,0,1,.63,2,4.44,4.44,0,0,1-.86,2.83,2.59,2.59,0,0,1-2.12,1.11,2.13,2.13,0,0,1-1.73-.75,3.09,3.09,0,0,1-.63-2.07,4.31,4.31,0,0,1,.87-2.75A2.62,2.62,0,0,1,84.16,349.44Zm0,.94a1.52,1.52,0,0,0-1.27.9,4.23,4.23,0,0,0-.53,2.15,2.1,2.1,0,0,0,.32,1.2.93.93,0,0,0,.79.46,1.53,1.53,0,0,0,1.28-.84,4,4,0,0,0,.53-2.14,2.3,2.3,0,0,0-.31-1.26A.93.93,0,0,0,84.16,350.38Z"/><path d="M91.91,354.52l-.13,1.15a3.59,3.59,0,0,1-1.75.45,2.65,2.65,0,0,1-2-.79,2.91,2.91,0,0,1-.76-2.11,3.56,3.56,0,0,1,1.15-2.69,4.06,4.06,0,0,1,2.93-1.09,6.79,6.79,0,0,1,1.08.11l-.16,1.05a4,4,0,0,0-.91-.1,2.81,2.81,0,0,0-2,.79,2.49,2.49,0,0,0-.82,1.85,2,2,0,0,0,.46,1.4,1.62,1.62,0,0,0,1.26.51A3.22,3.22,0,0,0,91.91,354.52Z"/><path d="M97.74,354.28l-.17,1.13a3.48,3.48,0,0,1-2.1.71,2.42,2.42,0,0,1-1.91-.83,3.27,3.27,0,0,1-.72-2.21,4,4,0,0,1,.86-2.59,2.65,2.65,0,0,1,2.12-1.05,2,2,0,0,1,1.59.73,2.83,2.83,0,0,1,.64,1.9c0,.19,0,.39,0,.59H94.08a4.28,4.28,0,0,0,0,.6,1.93,1.93,0,0,0,.47,1.37,1.56,1.56,0,0,0,1.19.5A3.64,3.64,0,0,0,97.74,354.28Zm-3.48-2.45H96.9a1.6,1.6,0,0,0-.3-1,1,1,0,0,0-.84-.38Q94.74,350.42,94.26,351.83Z"/><path d="M103,350.1v1.24a3.31,3.31,0,0,0-1.89-.83,1,1,0,0,0-.61.2.54.54,0,0,0-.09.84,4.53,4.53,0,0,0,1,.75,3.81,3.81,0,0,1,1.1,1,1.73,1.73,0,0,1,.28.93,1.77,1.77,0,0,1-.55,1.35,1.93,1.93,0,0,1-1.4.53,3.78,3.78,0,0,1-2.18-.83l.21-1.15a3.43,3.43,0,0,0,1.93.94.9.9,0,0,0,.59-.2.64.64,0,0,0,.23-.5.82.82,0,0,0-.17-.46,5,5,0,0,0-1-.8,3.49,3.49,0,0,1-1.07-1,1.72,1.72,0,0,1-.26-.88,1.68,1.68,0,0,1,.54-1.3,2,2,0,0,1,1.43-.5A3.37,3.37,0,0,1,103,350.1Z"/><path d="M106.91,349.44a2.14,2.14,0,0,1,1.7.75,3,3,0,0,1,.63,2,4.44,4.44,0,0,1-.86,2.83,2.59,2.59,0,0,1-2.12,1.11,2.13,2.13,0,0,1-1.73-.75,3.09,3.09,0,0,1-.63-2.07,4.31,4.31,0,0,1,.87-2.75A2.62,2.62,0,0,1,106.91,349.44Zm0,.94a1.52,1.52,0,0,0-1.27.9,4.23,4.23,0,0,0-.53,2.15,2.1,2.1,0,0,0,.32,1.2.93.93,0,0,0,.79.46,1.53,1.53,0,0,0,1.28-.84,4,4,0,0,0,.53-2.14,2.3,2.3,0,0,0-.31-1.26A.93.93,0,0,0,106.91,350.38Z"/><path d="M117.56,346.25h.67a12.19,12.19,0,0,0-1.44,2.41,11.58,11.58,0,0,0-1.08,3.41,18.34,18.34,0,0,0-.28,2.73,10.38,10.38,0,0,0,.87,4.34h-.59a12.9,12.9,0,0,1-1-2.66,10.52,10.52,0,0,1-.39-2.69,9.17,9.17,0,0,1,.75-3.62A17.18,17.18,0,0,1,117.56,346.25Z"/><path d="M124,346.37l-.16,1.14h-3.32l-.42,3h3.06l-.18,1.13h-3l-.61,4.29h-1.27l1.38-9.55Z"/><path d="M126.78,349.44a2.11,2.11,0,0,1,1.7.75,2.94,2.94,0,0,1,.64,2,4.44,4.44,0,0,1-.86,2.83,2.59,2.59,0,0,1-2.12,1.11,2.12,2.12,0,0,1-1.73-.75,3.09,3.09,0,0,1-.63-2.07,4.31,4.31,0,0,1,.87-2.75A2.61,2.61,0,0,1,126.78,349.44Zm0,.94a1.52,1.52,0,0,0-1.26.9,4.23,4.23,0,0,0-.53,2.15,2.1,2.1,0,0,0,.32,1.2.93.93,0,0,0,.79.46,1.53,1.53,0,0,0,1.28-.84,4,4,0,0,0,.53-2.14,2.3,2.3,0,0,0-.31-1.26A.93.93,0,0,0,126.78,350.38Z"/><path d="M132.14,349.63l-.19,1.2,0,0a5.42,5.42,0,0,1,.89-1.07,1.23,1.23,0,0,1,.78-.25,1.5,1.5,0,0,1,.52.09V351a1.51,1.51,0,0,0-.73-.21,1.13,1.13,0,0,0-.63.17,2.73,2.73,0,0,0-.66.75,2.48,2.48,0,0,0-.4.69l-.5,3.54h-1.18l.88-6.29Z"/><path d="M136.32,349.63l-.16,1.09a3.1,3.1,0,0,1,2.19-1.18c.81,0,1.29.47,1.43,1.41a3.14,3.14,0,0,1,2.35-1.41,1.4,1.4,0,0,1,1.08.45,1.9,1.9,0,0,1,.4,1.29,4,4,0,0,1,0,.57l-.57,4.07h-1.19l.59-4.13a2.8,2.8,0,0,0,0-.4c0-.61-.22-.92-.67-.92a1.4,1.4,0,0,0-.38.07,2.28,2.28,0,0,0-.46.24,4.75,4.75,0,0,0-.69.6,1.66,1.66,0,0,0-.45.55l-.58,4H138l.56-4a3.37,3.37,0,0,0,0-.52c0-.63-.24-.95-.74-.95a2,2,0,0,0-1.17.66,3.29,3.29,0,0,0-.72.8l-.57,4h-1.18l.89-6.29Z"/><path d="M150.29,349.63l-.89,6.29h-1.18l.11-1.07a3,3,0,0,1-2.07,1.17,1.44,1.44,0,0,1-1.08-.46,1.78,1.78,0,0,1-.44-1.29,2.77,2.77,0,0,1,0-.49l.58-4.15h1.19l-.58,4.15a2.64,2.64,0,0,0,0,.38c0,.63.23.95.7.95s1.11-.47,1.89-1.39l.57-4.09Z"/><path d="M153.58,346.37l-1.35,9.55h-1.18l1.34-9.55Z"/><path d="M159.6,349.63l-.89,6.29h-1.18l.11-.72,0,0a2.33,2.33,0,0,1-1.69.88,1.84,1.84,0,0,1-1.47-.73,2.66,2.66,0,0,1-.6-1.76A4.08,4.08,0,0,1,155,350.6a4.19,4.19,0,0,1,3.14-1.16A5.28,5.28,0,0,1,159.6,349.63Zm-1.82,4.47.52-3.63h-.37a2.59,2.59,0,0,0-2.13.89,3.06,3.06,0,0,0-.73,2,2,2,0,0,0,.35,1.24,1.07,1.07,0,0,0,.89.49,1.59,1.59,0,0,0,.95-.43C157.6,354.35,157.77,354.18,157.78,354.1Z"/><path d="M164.92,354.52l-.13,1.15a3.59,3.59,0,0,1-1.75.45,2.64,2.64,0,0,1-2-.79,2.91,2.91,0,0,1-.76-2.11,3.56,3.56,0,0,1,1.15-2.69,4,4,0,0,1,2.92-1.09,6.58,6.58,0,0,1,1.08.11l-.15,1.05a4,4,0,0,0-.91-.1,2.84,2.84,0,0,0-2.06.79,2.52,2.52,0,0,0-.81,1.85,2,2,0,0,0,.46,1.4,1.62,1.62,0,0,0,1.26.51A3.22,3.22,0,0,0,164.92,354.52Z"/><path d="M167.7,349.63l-.88,6.29h-1.19l.89-6.29Zm-1-2a.68.68,0,0,1,1.16-.49.7.7,0,0,1,.2.49.66.66,0,0,1-.2.48.65.65,0,0,1-1,0A.62.62,0,0,1,166.65,347.66Z"/><path d="M171.46,349.44a2.14,2.14,0,0,1,1.7.75,3,3,0,0,1,.64,2,4.44,4.44,0,0,1-.87,2.83,2.58,2.58,0,0,1-2.11,1.11,2.15,2.15,0,0,1-1.74-.75,3.09,3.09,0,0,1-.63-2.07,4.31,4.31,0,0,1,.87-2.75A2.62,2.62,0,0,1,171.46,349.44Zm0,.94a1.49,1.49,0,0,0-1.26.9,4.13,4.13,0,0,0-.53,2.15,2.1,2.1,0,0,0,.31,1.2.94.94,0,0,0,.79.46,1.51,1.51,0,0,0,1.28-.84,4,4,0,0,0,.53-2.14,2.22,2.22,0,0,0-.31-1.26A.92.92,0,0,0,171.46,350.38Zm.45-3.84h1.41l-1.58,2H171Z"/><path d="M176.71,349.63l-.16,1.11,0,0a2.78,2.78,0,0,1,2.09-1.23,1.32,1.32,0,0,1,1.13.53,2.25,2.25,0,0,1,.41,1.39,4.57,4.57,0,0,1,0,.5l-.61,4h-1.17l.57-4a1.82,1.82,0,0,0,0-.38,1.21,1.21,0,0,0-.21-.76.64.64,0,0,0-.51-.26,1,1,0,0,0-.4.09,2,2,0,0,0-.48.28,5.3,5.3,0,0,0-.63.56,2,2,0,0,0-.39.47l-.57,4h-1.17l.88-6.29Z"/><path d="M180.69,359.14H180a13,13,0,0,0,1.45-2.41,12,12,0,0,0,1.07-3.41,18.46,18.46,0,0,0,.28-2.73,10.35,10.35,0,0,0-.87-4.34h.59a12.9,12.9,0,0,1,1,2.66,10.45,10.45,0,0,1,.39,2.68,9.22,9.22,0,0,1-.75,3.63A17.18,17.18,0,0,1,180.69,359.14Z"/><path d="M58.23,363.62,58,364.93a3,3,0,0,0-1.67-.51,1.8,1.8,0,0,0-1.23.4,1.32,1.32,0,0,0-.45,1.05,1.33,1.33,0,0,0,.21.67,7,7,0,0,0,1.28,1.21,5.25,5.25,0,0,1,1.4,1.49,2.71,2.71,0,0,1,.34,1.29,2.4,2.4,0,0,1-.77,1.77,2.87,2.87,0,0,1-2.06.74,4.51,4.51,0,0,1-2.31-.68L53,371a4.22,4.22,0,0,0,2.24.91,1.59,1.59,0,0,0,1-.33,1.06,1.06,0,0,0,.45-.9,1.42,1.42,0,0,0-.23-.75,6.26,6.26,0,0,0-1.29-1.26,5.12,5.12,0,0,1-1.38-1.51,2.73,2.73,0,0,1-.33-1.27,2.31,2.31,0,0,1,.92-1.85,3.3,3.3,0,0,1,2.16-.75A4.44,4.44,0,0,1,58.23,363.62Z"/><path d="M60.88,366.63,60,372.92H58.82l.88-6.29Zm-1.05-2a.68.68,0,1,1,1.36,0,.62.62,0,0,1-.2.48.65.65,0,0,1-1,0A.62.62,0,0,1,59.83,364.66Z"/><path d="M63.62,366.63l-.16,1.11,0,0a2.78,2.78,0,0,1,2.09-1.23,1.33,1.33,0,0,1,1.13.53,2.25,2.25,0,0,1,.4,1.39,3,3,0,0,1,0,.5l-.6,4H65.3l.57-4a2.75,2.75,0,0,0,0-.38,1.21,1.21,0,0,0-.2-.76.65.65,0,0,0-.52-.26,1.13,1.13,0,0,0-.4.09,2,2,0,0,0-.47.28,5.3,5.3,0,0,0-.63.56,1.71,1.71,0,0,0-.39.47l-.57,4H61.54l.88-6.29Z"/><path d="M77.83,366.63l-.89,6.29H75.75l.12-.72,0,0a2.33,2.33,0,0,1-1.69.88,1.83,1.83,0,0,1-1.47-.73,2.66,2.66,0,0,1-.6-1.76,4.08,4.08,0,0,1,1.12-2.95,4.19,4.19,0,0,1,3.14-1.16A5.33,5.33,0,0,1,77.83,366.63ZM76,371.1l.52-3.63h-.37a2.62,2.62,0,0,0-2.14.89,3.12,3.12,0,0,0-.73,2,2,2,0,0,0,.36,1.24,1.07,1.07,0,0,0,.89.49,1.55,1.55,0,0,0,.94-.43C75.83,371.35,76,371.18,76,371.1Z"/><path d="M83.91,366.63,80.68,373h-.59l-1.43-6.41h1.18l.85,4,2-4Z"/><path d="M89.65,366.63l-.89,6.29H87.57l.12-.72,0,0A2.35,2.35,0,0,1,86,373a1.83,1.83,0,0,1-1.47-.73,2.66,2.66,0,0,1-.6-1.76A4.08,4.08,0,0,1,85,367.6a4.19,4.19,0,0,1,3.14-1.16A5.33,5.33,0,0,1,89.65,366.63Zm-1.82,4.47.52-3.63H88a2.62,2.62,0,0,0-2.14.89,3.12,3.12,0,0,0-.73,2,2,2,0,0,0,.36,1.24,1.07,1.07,0,0,0,.89.49,1.55,1.55,0,0,0,.94-.43C87.65,371.35,87.82,371.18,87.83,371.1Z"/><path d="M92.47,366.63l-.16,1.11,0,0a2.77,2.77,0,0,1,2.08-1.23,1.33,1.33,0,0,1,1.14.53,2.25,2.25,0,0,1,.4,1.39,3,3,0,0,1,0,.5l-.6,4H94.14l.58-4a2.75,2.75,0,0,0,0-.38,1.27,1.27,0,0,0-.2-.76.65.65,0,0,0-.52-.26,1.08,1.08,0,0,0-.4.09,2,2,0,0,0-.48.28,5.34,5.34,0,0,0-.62.56,1.71,1.71,0,0,0-.39.47l-.58,4H90.39l.88-6.29Z"/><path d="M101.54,371.52l-.14,1.15a3.56,3.56,0,0,1-1.75.45,2.67,2.67,0,0,1-2-.79,2.94,2.94,0,0,1-.75-2.11A3.59,3.59,0,0,1,98,367.53a4.07,4.07,0,0,1,2.93-1.09,6.79,6.79,0,0,1,1.08.11l-.16,1.05a3.88,3.88,0,0,0-.9-.1,2.84,2.84,0,0,0-2.06.79,2.53,2.53,0,0,0-.82,1.85,2,2,0,0,0,.47,1.4,1.59,1.59,0,0,0,1.26.51A3.25,3.25,0,0,0,101.54,371.52Z"/><path d="M107.36,371.28l-.17,1.13a3.43,3.43,0,0,1-2.1.71,2.42,2.42,0,0,1-1.91-.83,3.27,3.27,0,0,1-.72-2.21,3.92,3.92,0,0,1,.87-2.59,2.63,2.63,0,0,1,2.11-1.05,2.07,2.07,0,0,1,1.6.73,2.83,2.83,0,0,1,.63,1.9,4,4,0,0,1,0,.59h-3.92a3.21,3.21,0,0,0-.06.6,1.89,1.89,0,0,0,.48,1.37,1.54,1.54,0,0,0,1.19.5A3.64,3.64,0,0,0,107.36,371.28Zm-3.47-2.45h2.63a1.66,1.66,0,0,0-.29-1,1,1,0,0,0-.84-.38Q104.36,367.42,103.89,368.83Z"/><path d="M59.05,380.37l-.15,1.14H55.07l-.41,3H58l-.15,1.13h-3.4L54,388.79h5l-.17,1.13H52.61L54,380.37Z"/><path d="M61.71,383.63l-.16,1.11,0,0a2.78,2.78,0,0,1,2.09-1.23,1.32,1.32,0,0,1,1.13.53,2.25,2.25,0,0,1,.41,1.39,4.57,4.57,0,0,1,0,.5l-.61,4H63.39l.57-4a2.9,2.9,0,0,0,0-.38,1.21,1.21,0,0,0-.21-.76.64.64,0,0,0-.51-.26,1,1,0,0,0-.4.09,2,2,0,0,0-.48.28,5.3,5.3,0,0,0-.63.56,1.71,1.71,0,0,0-.39.47l-.57,4H59.64l.88-6.29Z"/><path d="M72.6,382l-.22,1.59a2.74,2.74,0,0,1,1.06-.19,2.42,2.42,0,0,1,1.86.83,3,3,0,0,1,.75,2.1A3.79,3.79,0,0,1,75,389a3.54,3.54,0,0,1-2.78,1.13h-.78l-.42,3H69.86L71,385.19a3,3,0,0,0-.7.71,2.12,2.12,0,0,1-.35.44s-.05,0-.05-.09a2.11,2.11,0,0,1,.35-.91,3.94,3.94,0,0,1,.86-1l.32-2.31Zm-.35,2.47-.64,4.6h.57a2.46,2.46,0,0,0,1.93-.82,2.81,2.81,0,0,0,.72-1.92,2.14,2.14,0,0,0-.5-1.5,1.69,1.69,0,0,0-1.29-.53A1.78,1.78,0,0,0,72.25,384.51Z"/><path d="M79.13,383.63l-.19,1.2,0,0a5.79,5.79,0,0,1,.89-1.07,1.23,1.23,0,0,1,.78-.25,1.46,1.46,0,0,1,.52.09V385a1.48,1.48,0,0,0-.73-.21,1.09,1.09,0,0,0-.62.17,2.58,2.58,0,0,0-.67.75,2.82,2.82,0,0,0-.4.69l-.49,3.54H77.06l.88-6.29Z"/><path d="M84.16,383.44a2.14,2.14,0,0,1,1.7.75,3,3,0,0,1,.63,2,4.44,4.44,0,0,1-.86,2.83,2.59,2.59,0,0,1-2.12,1.11,2.13,2.13,0,0,1-1.73-.75,3.09,3.09,0,0,1-.63-2.07,4.31,4.31,0,0,1,.87-2.75A2.62,2.62,0,0,1,84.16,383.44Zm0,.94a1.52,1.52,0,0,0-1.27.9,4.23,4.23,0,0,0-.53,2.15,2.1,2.1,0,0,0,.32,1.2.93.93,0,0,0,.79.46,1.53,1.53,0,0,0,1.28-.84,4,4,0,0,0,.53-2.14,2.3,2.3,0,0,0-.31-1.26A.93.93,0,0,0,84.16,384.38Z"/><path d="M91.91,388.52l-.13,1.15a3.59,3.59,0,0,1-1.75.45,2.65,2.65,0,0,1-2-.79,2.91,2.91,0,0,1-.76-2.11,3.56,3.56,0,0,1,1.15-2.69,4.06,4.06,0,0,1,2.93-1.09,6.79,6.79,0,0,1,1.08.11l-.16,1.05a4,4,0,0,0-.91-.1,2.81,2.81,0,0,0-2,.79,2.49,2.49,0,0,0-.82,1.85,2,2,0,0,0,.46,1.4,1.62,1.62,0,0,0,1.26.51A3.22,3.22,0,0,0,91.91,388.52Z"/><path d="M97.74,388.28l-.17,1.13a3.48,3.48,0,0,1-2.1.71,2.42,2.42,0,0,1-1.91-.83,3.27,3.27,0,0,1-.72-2.21,4,4,0,0,1,.86-2.59,2.65,2.65,0,0,1,2.12-1.05,2,2,0,0,1,1.59.73,2.83,2.83,0,0,1,.64,1.9c0,.19,0,.39,0,.59H94.08a4.28,4.28,0,0,0,0,.6,1.93,1.93,0,0,0,.47,1.37,1.56,1.56,0,0,0,1.19.5A3.64,3.64,0,0,0,97.74,388.28Zm-3.48-2.45H96.9a1.6,1.6,0,0,0-.3-1,1,1,0,0,0-.84-.38Q94.74,384.42,94.26,385.83Z"/><path d="M103,384.1v1.24a3.31,3.31,0,0,0-1.89-.83,1,1,0,0,0-.61.2.54.54,0,0,0-.09.84,4.53,4.53,0,0,0,1,.75,3.81,3.81,0,0,1,1.1,1,1.73,1.73,0,0,1,.28.93,1.77,1.77,0,0,1-.55,1.35,1.93,1.93,0,0,1-1.4.53,3.78,3.78,0,0,1-2.18-.83l.21-1.15a3.43,3.43,0,0,0,1.93.94.9.9,0,0,0,.59-.2.64.64,0,0,0,.23-.5.82.82,0,0,0-.17-.46,5,5,0,0,0-1-.8,3.49,3.49,0,0,1-1.07-1,1.72,1.72,0,0,1-.26-.88,1.68,1.68,0,0,1,.54-1.3,2,2,0,0,1,1.43-.5A3.37,3.37,0,0,1,103,384.1Z"/><path d="M106.91,383.44a2.14,2.14,0,0,1,1.7.75,3,3,0,0,1,.63,2,4.44,4.44,0,0,1-.86,2.83,2.59,2.59,0,0,1-2.12,1.11,2.13,2.13,0,0,1-1.73-.75,3.09,3.09,0,0,1-.63-2.07,4.31,4.31,0,0,1,.87-2.75A2.62,2.62,0,0,1,106.91,383.44Zm0,.94a1.52,1.52,0,0,0-1.27.9,4.23,4.23,0,0,0-.53,2.15,2.1,2.1,0,0,0,.32,1.2.93.93,0,0,0,.79.46,1.53,1.53,0,0,0,1.28-.84,4,4,0,0,0,.53-2.14,2.3,2.3,0,0,0-.31-1.26A.93.93,0,0,0,106.91,384.38Z"/><path d="M117.56,380.25h.67a12.19,12.19,0,0,0-1.44,2.41,11.58,11.58,0,0,0-1.08,3.41,18.34,18.34,0,0,0-.28,2.73,10.38,10.38,0,0,0,.87,4.34h-.59a12.9,12.9,0,0,1-1-2.66,10.52,10.52,0,0,1-.39-2.69,9.17,9.17,0,0,1,.75-3.62A17.18,17.18,0,0,1,117.56,380.25Z"/><path d="M118.19,389.92l1.36-9.55h1.13a6.13,6.13,0,0,1,4.13,1.27,4.44,4.44,0,0,1,1.48,3.52,4.69,4.69,0,0,1-1.3,3.46,5,5,0,0,1-3.69,1.3Zm2.48-8.4-1,7.27h1.15a5.69,5.69,0,0,0,2.42-.4,2.8,2.8,0,0,0,1.24-1.24,4.14,4.14,0,0,0,.47-2,3.28,3.28,0,0,0-1.15-2.65,4.1,4.1,0,0,0-2.67-1Z"/><path d="M129.22,383.63l-.89,6.29h-1.18l.88-6.29Zm-1.06-2a.7.7,0,0,1,.2-.49.67.67,0,0,1,.48-.2.66.66,0,0,1,.48.2.67.67,0,0,1,.21.49.72.72,0,0,1-.69.69.64.64,0,0,1-.48-.21A.66.66,0,0,1,128.16,381.66Z"/><path d="M135.7,383.63l-.88,6.29h-1.19l.11-.72,0,0A2.33,2.33,0,0,1,132,390a1.85,1.85,0,0,1-1.47-.73,2.66,2.66,0,0,1-.6-1.76,4.08,4.08,0,0,1,1.12-2.95,4.2,4.2,0,0,1,3.15-1.16A5.26,5.26,0,0,1,135.7,383.63Zm-1.81,4.47.51-3.63H134a2.61,2.61,0,0,0-2.13.89,3.06,3.06,0,0,0-.73,2,2,2,0,0,0,.35,1.24,1.07,1.07,0,0,0,.89.49,1.57,1.57,0,0,0,1-.43C133.7,388.35,133.88,388.18,133.89,388.1Z"/><path d="M142.25,383.63l-.12.93h-1.22a2.11,2.11,0,0,1,.42,1.24,2.51,2.51,0,0,1-.34,1.33,2,2,0,0,1-.82.81,5.21,5.21,0,0,1-1.27.38,2.77,2.77,0,0,0-1,.28.39.39,0,0,0-.21.33c0,.1.06.18.18.26a6.43,6.43,0,0,0,1.28.39,3.29,3.29,0,0,1,1.55.71,1.47,1.47,0,0,1,.44,1.06,1.51,1.51,0,0,1-.73,1.28,3.1,3.1,0,0,1-1.84.51,3.84,3.84,0,0,1-2-.46,1.36,1.36,0,0,1-.77-1.17c0-.6.6-1,1.81-1.3-.73-.26-1.09-.63-1.09-1.1a.94.94,0,0,1,.33-.68,2,2,0,0,1,.91-.48,1.87,1.87,0,0,1-1.13-1.81,2.5,2.5,0,0,1,.68-1.78,2.18,2.18,0,0,1,1.65-.73Zm-3.55,8.61a1.91,1.91,0,0,0,1-.21.66.66,0,0,0,.36-.57c0-.23-.2-.44-.59-.62a2.42,2.42,0,0,0-.81-.28,3,3,0,0,0-.94.29c-.46.19-.69.4-.69.64s.16.41.46.55A3,3,0,0,0,138.7,392.24Zm.27-4.91a1.08,1.08,0,0,0,.88-.44,1.64,1.64,0,0,0,.35-1,1.33,1.33,0,0,0-.32-.91,1,1,0,0,0-.8-.35,1.14,1.14,0,0,0-.87.45,1.51,1.51,0,0,0-.38,1,1.33,1.33,0,0,0,.32.91A1.06,1.06,0,0,0,139,387.33Z"/><path d="M144.49,383.63l-.16,1.11,0,0a2.77,2.77,0,0,1,2.08-1.23,1.33,1.33,0,0,1,1.14.53,2.25,2.25,0,0,1,.4,1.39,3,3,0,0,1,0,.5l-.6,4h-1.18l.58-4a2.75,2.75,0,0,0,0-.38,1.21,1.21,0,0,0-.21-.76.62.62,0,0,0-.51-.26,1.08,1.08,0,0,0-.4.09,2,2,0,0,0-.48.28,4.63,4.63,0,0,0-.62.56,1.71,1.71,0,0,0-.39.47l-.58,4h-1.17l.88-6.29Z"/><path d="M152.08,383.44a2.11,2.11,0,0,1,1.7.75,2.94,2.94,0,0,1,.64,2,4.44,4.44,0,0,1-.86,2.83,2.59,2.59,0,0,1-2.12,1.11,2.12,2.12,0,0,1-1.73-.75,3.09,3.09,0,0,1-.63-2.07,4.36,4.36,0,0,1,.86-2.75A2.64,2.64,0,0,1,152.08,383.44Zm0,.94a1.52,1.52,0,0,0-1.26.9,4.23,4.23,0,0,0-.53,2.15,2.1,2.1,0,0,0,.32,1.2.93.93,0,0,0,.79.46,1.53,1.53,0,0,0,1.28-.84,4,4,0,0,0,.53-2.14,2.3,2.3,0,0,0-.31-1.26A.93.93,0,0,0,152.08,384.38Zm.46-3.84H154l-1.59,2h-.77Z"/><path d="M159.37,384.1v1.24a3.31,3.31,0,0,0-1.89-.83,1,1,0,0,0-.61.2.54.54,0,0,0-.09.84,4.53,4.53,0,0,0,1,.75,3.81,3.81,0,0,1,1.1,1,1.73,1.73,0,0,1,.28.93,1.77,1.77,0,0,1-.55,1.35,1.93,1.93,0,0,1-1.4.53,3.78,3.78,0,0,1-2.18-.83l.21-1.15a3.43,3.43,0,0,0,1.93.94.9.9,0,0,0,.59-.2.64.64,0,0,0,.23-.5.82.82,0,0,0-.17-.46,5,5,0,0,0-1-.8,3.49,3.49,0,0,1-1.07-1,1.72,1.72,0,0,1-.26-.88,1.68,1.68,0,0,1,.54-1.3,2,2,0,0,1,1.43-.5A3.37,3.37,0,0,1,159.37,384.1Z"/><path d="M163.79,383.63l-.12.93h-1.26L161.8,388a2.55,2.55,0,0,0,0,.44c0,.41.22.61.66.61a2.39,2.39,0,0,0,1.15-.37l-.07,1.16a3.25,3.25,0,0,1-1.31.28,1.76,1.76,0,0,1-1.22-.4,1.32,1.32,0,0,1-.44-1,1.82,1.82,0,0,1,0-.32l.66-3.81h-1.11l.14-.93h1.15l.23-1.28h1.18l-.23,1.28Z"/><path d="M166.12,383.63l-.88,6.29h-1.19l.89-6.29Zm-1.05-2a.68.68,0,1,1,1.36,0,.62.62,0,0,1-.2.48.65.65,0,0,1-1,0A.62.62,0,0,1,165.07,381.66Z"/><path d="M171.36,388.52l-.13,1.15a3.59,3.59,0,0,1-1.75.45,2.67,2.67,0,0,1-2-.79,2.94,2.94,0,0,1-.75-2.11,3.56,3.56,0,0,1,1.15-2.69,4,4,0,0,1,2.92-1.09,6.68,6.68,0,0,1,1.08.11l-.15,1.05a4,4,0,0,0-.91-.1,2.84,2.84,0,0,0-2.06.79,2.52,2.52,0,0,0-.81,1.85,2,2,0,0,0,.46,1.4,1.62,1.62,0,0,0,1.26.51A3.25,3.25,0,0,0,171.36,388.52Z"/><path d="M175.27,383.44a2.1,2.1,0,0,1,1.69.75,2.94,2.94,0,0,1,.64,2,4.44,4.44,0,0,1-.86,2.83,2.59,2.59,0,0,1-2.12,1.11,2.13,2.13,0,0,1-1.73-.75,3.09,3.09,0,0,1-.63-2.07,4.31,4.31,0,0,1,.87-2.75A2.61,2.61,0,0,1,175.27,383.44Zm0,.94a1.52,1.52,0,0,0-1.27.9,4.23,4.23,0,0,0-.53,2.15,2.1,2.1,0,0,0,.32,1.2.93.93,0,0,0,.79.46,1.53,1.53,0,0,0,1.28-.84,4,4,0,0,0,.53-2.14,2.3,2.3,0,0,0-.31-1.26A.93.93,0,0,0,175.27,384.38Z"/><path d="M177.93,393.14h-.68a12,12,0,0,0,1.45-2.41,11.68,11.68,0,0,0,1.08-3.41,20,20,0,0,0,.28-2.73,10.35,10.35,0,0,0-.87-4.34h.59a12.9,12.9,0,0,1,1,2.66,10.45,10.45,0,0,1,.39,2.68,9.22,9.22,0,0,1-.75,3.63A17.18,17.18,0,0,1,177.93,393.14Z"/><path d="M59.88,414.37l-.17,1.19H57l-1.17,8.36H54.53l1.17-8.36H53l.17-1.19Z"/><path d="M63.87,414.25a3.06,3.06,0,0,1,2.44,1.1,4.35,4.35,0,0,1,.93,2.9,6.27,6.27,0,0,1-1.36,4.14A4.08,4.08,0,0,1,62.64,424a3.06,3.06,0,0,1-2.45-1.12,4.34,4.34,0,0,1-1-2.9,6.62,6.62,0,0,1,1.3-4A4,4,0,0,1,63.87,414.25Zm-1.21,8.64A2.78,2.78,0,0,0,65,421.47,6,6,0,0,0,66,418a3,3,0,0,0-.57-1.93,1.84,1.84,0,0,0-1.53-.7,2.76,2.76,0,0,0-2.4,1.47,6.1,6.1,0,0,0-.93,3.33,3,3,0,0,0,.59,2A1.88,1.88,0,0,0,62.66,422.89Z"/><path d="M74.38,414.37l-.17,1.19H71.52l-1.17,8.36H69l1.17-8.36H67.52l.17-1.19Z"/><path d="M77.81,414.32l1.85,9.6H78.49l-.57-3h-3l-1.26,3H72.38l4.23-9.6Zm-2.46,5.59h2.38L77,416Z"/><path d="M83.27,414.37,82,422.85h3.93l-.16,1.07H80.66L82,414.37Z"/><path d="M91.7,416l.19-1.32a5,5,0,0,1,2-.41,2.57,2.57,0,0,1,1.86.67A2.44,2.44,0,0,1,94.56,419a2.13,2.13,0,0,1,1.29,2.16,2.78,2.78,0,0,1-.88,2,3.26,3.26,0,0,1-2.44.88,5.63,5.63,0,0,1-2.3-.52l.17-1.14a4.57,4.57,0,0,0,2.08.54,2.25,2.25,0,0,0,1.49-.49,1.59,1.59,0,0,0,.56-1.26A1.51,1.51,0,0,0,94,420a1.59,1.59,0,0,0-1.21-.38l.15-1.14a2.61,2.61,0,0,0,1.59-.57,1.49,1.49,0,0,0,.57-1.12,1.29,1.29,0,0,0-.41-1,1.62,1.62,0,0,0-1.09-.37A3.49,3.49,0,0,0,91.7,416Z"/><path d="M98.86,416.26,99,414.9a4.24,4.24,0,0,1,2.16-.65,2.28,2.28,0,0,1,1.67.63,2.18,2.18,0,0,1,.64,1.65,4.77,4.77,0,0,1-.91,2.46,35.16,35.16,0,0,1-2.85,3.75h3.64l-.16,1.18h-5.8c1.86-2.27,3.13-3.94,3.82-5a5.11,5.11,0,0,0,1-2.3,1.12,1.12,0,0,0-.35-.88,1.45,1.45,0,0,0-1-.31A3.59,3.59,0,0,0,98.86,416.26Z"/><rect class="cls-4" x="35.65" y="329.37" width="10.02" height="10.02"/><rect class="cls-6" x="35.65" y="346.51" width="10.02" height="10.02"/><rect class="cls-5" x="35.65" y="363.65" width="10.02" height="10.02"/><rect class="cls-3" x="35.65" y="380.78" width="10.02" height="10.02"/><rect class="cls-6" x="337.66" y="218.02" width="4.89" height="4.89" transform="translate(-56.28 305.06) rotate(-45)"/><rect class="cls-6" x="350.62" y="218.02" width="4.89" height="4.89" transform="translate(-52.48 314.22) rotate(-45)"/><rect class="cls-6" x="298.79" y="218.02" width="4.89" height="4.89" transform="translate(-67.66 277.57) rotate(-45)"/><rect class="cls-6" x="311.74" y="218.02" width="4.89" height="4.89" transform="translate(-63.87 286.74) rotate(-45)"/><rect class="cls-6" x="324.7" y="218.02" width="4.89" height="4.89" transform="translate(-60.07 295.91) rotate(-45)"/><polyline class="cls-7" points="325.29 245.28 325.28 279.4 328.44 279.4 328.45 245.89"/><path class="cls-6" d="M339.76,255.59a14.46,14.46,0,0,0-14.47,14.46h0v4.57l27.33-19Z"/><path class="cls-5" d="M325.29,274.72v46.34l3.16.28,0-44.66v-2.06h9.69a14.57,14.57,0,0,0,4.05-.57c.43-.13.85-.27,1.26-.43a16.49,16.49,0,0,0,1.59-.74,14.54,14.54,0,0,0,4.27-3.52,14.43,14.43,0,0,0,3.3-9.2v-4.57Z"/><path class="cls-5" d="M325.29,266.18A12.24,12.24,0,0,0,313,253.93h-10.9l23.15,16.12Z"/><path class="cls-7" d="M325.29,270.05l-23.15-16.12v3.87a12.18,12.18,0,0,0,1.48,5.84,12.55,12.55,0,0,0,1.9,2.61,12,12,0,0,0,1.84,1.58c.25.18.5.34.77.5a12.2,12.2,0,0,0,6.27,1.72Z"/><path class="cls-5" d="M328,249.51a45,45,0,0,0,38.48-21.66h-77A45,45,0,0,0,328,249.51Z"/></g></g></svg>