<svg xmlns="http://www.w3.org/2000/svg" viewBox="0 0 581.75 211.86"><defs><style>.cls-1{fill:var(--azul-igac);}.cls-2{fill:#eb6654;}.cls-3{fill:#fdf6e6;}.cls-4{opacity:0.6;}</style></defs><g id="Capa_2" data-name="Capa 2"><g id="Arte"><rect class="cls-1" x="0.49" width="514.48" height="136.35"/><rect class="cls-2" x="514.97" width="66.78" height="136.35" transform="translate(1096.72 136.35) rotate(180)"/><path class="cls-3" d="M243.58,89.12l-1.08-1.27a10.1,10.1,0,0,0,2.38-2.09,6.51,6.51,0,0,0,1.36-2.52,3.61,3.61,0,0,1-2,.52,3.24,3.24,0,0,1-2.41-1,3.66,3.66,0,0,1,.06-5.11,3.58,3.58,0,0,1,2.62-1.06,3.65,3.65,0,0,1,2.85,1.25A4.71,4.71,0,0,1,248.51,81a8.67,8.67,0,0,1-1.39,4.51A10.46,10.46,0,0,1,243.58,89.12Zm3-7.62a8.74,8.74,0,0,0,.11-.92,2.56,2.56,0,0,0-.59-1.74,2,2,0,0,0-1.53-.68,1.89,1.89,0,0,0-1.41.58,2,2,0,0,0-.56,1.45,1.84,1.84,0,0,0,.61,1.38,2,2,0,0,0,1.45.58A3.36,3.36,0,0,0,246.58,81.5Z"/><path class="cls-3" d="M250.07,80a3.23,3.23,0,0,1,1.08-2.45,3.75,3.75,0,0,1,2.65-1,3.68,3.68,0,0,1,2.6,1A3.28,3.28,0,0,1,257.46,80a3.2,3.2,0,0,1-1.53,2.71,3.18,3.18,0,0,1,1.7,2.9,3.23,3.23,0,0,1-1.11,2.52,4,4,0,0,1-2.79,1,4.06,4.06,0,0,1-2.81-1,3.27,3.27,0,0,1-1.13-2.51,3.19,3.19,0,0,1,1.74-2.89,4.38,4.38,0,0,1-1.12-1.26A3.07,3.07,0,0,1,250.07,80Zm5.79,5.69v-.18a1.75,1.75,0,0,0-.61-1.37,2.24,2.24,0,0,0-1.56-.54,2.18,2.18,0,0,0-1.53.54,1.92,1.92,0,0,0,0,2.78,2.29,2.29,0,0,0,1.58.53,2.27,2.27,0,0,0,1.51-.49A1.57,1.57,0,0,0,255.86,85.69Zm-.15-5.64a1.73,1.73,0,0,0-.55-1.31,2.15,2.15,0,0,0-2.79,0,1.69,1.69,0,0,0-.55,1.31,1.73,1.73,0,0,0,.58,1.31,1.93,1.93,0,0,0,1.38.54,1.89,1.89,0,0,0,1.36-.54A1.72,1.72,0,0,0,255.71,80.05Z"/><path class="cls-3" d="M259.09,91.11v-.32a2.38,2.38,0,0,0,.55-.76,3.13,3.13,0,0,0,.19-1,1.12,1.12,0,0,1-.93-1.15,1.15,1.15,0,0,1,.32-.82,1,1,0,0,1,.76-.35,1.05,1.05,0,0,1,.88.48,2.06,2.06,0,0,1,.34,1.21,2.76,2.76,0,0,1-.56,1.71A3,3,0,0,1,259.09,91.11Z"/><path class="cls-3" d="M268.55,76.55h.72v6.89h1.37v1.49h-1.37v4h-1.72v-4h-5.19v-.75Zm-1,6.89V79.88l-2.84,3.56Z"/><path class="cls-3" d="M274.34,76.56a2.61,2.61,0,0,1,1.93.81,2.74,2.74,0,1,1-3.86,3.88,2.62,2.62,0,0,1-.8-1.93,2.65,2.65,0,0,1,.8-1.95A2.6,2.6,0,0,1,274.34,76.56Zm6.22,0h1.36l-8.08,12.59h-1.36Zm-6.24,1.37a1.42,1.42,0,0,0-1.42,1.42,1.32,1.32,0,0,0,.42,1,1.42,1.42,0,0,0,2,0,1.32,1.32,0,0,0,.42-1,1.42,1.42,0,0,0-1.42-1.42Zm5.81,5.74a2.73,2.73,0,0,1,2.74,2.73,2.55,2.55,0,0,1-.8,1.91,2.64,2.64,0,0,1-1.94.79,2.67,2.67,0,0,1-1.94-.79,2.58,2.58,0,0,1-.8-1.91,2.61,2.61,0,0,1,.81-1.93A2.64,2.64,0,0,1,280.13,83.64Zm0,1.34a1.31,1.31,0,0,0-1,.41,1.35,1.35,0,0,0-.41,1,1.39,1.39,0,0,0,.41,1,1.32,1.32,0,0,0,1,.42,1.41,1.41,0,1,0,0-2.82Z"/><path class="cls-3" d="M242.21,56h2.34V72.37h-2.34Z"/><path class="cls-3" d="M254.21,56h2.34V72.37h-2.34Z"/><path class="cls-3" d="M267.45,55.79a4.3,4.3,0,0,1,3.72,2.36,11.15,11.15,0,0,1,1.47,6,11.19,11.19,0,0,1-1.47,6.06,4.31,4.31,0,0,1-7.63,0,11.23,11.23,0,0,1-1.44-6.06,11,11,0,0,1,1.49-6.06A4.44,4.44,0,0,1,267.45,55.79Zm0,2.22h-.12a2.42,2.42,0,0,0-2.14,1.66,10.59,10.59,0,0,0-.79,4.5,11.12,11.12,0,0,0,.77,4.56,2.21,2.21,0,0,0,4.28,0,10.69,10.69,0,0,0,.79-4.49,11.37,11.37,0,0,0-.76-4.54C269,58.58,268.33,58,267.48,58Z"/><path class="cls-3" d="M277.68,62.84h.14a3.71,3.71,0,0,0,2.34-.63,2.19,2.19,0,0,0,.8-1.84,2.22,2.22,0,0,0-.77-1.77,3,3,0,0,0-2.05-.68,6.37,6.37,0,0,0-2.84.8V56.48a6.88,6.88,0,0,1,3.12-.72A5.11,5.11,0,0,1,282,57a4.14,4.14,0,0,1,1.31,3.23,4,4,0,0,1-.51,2.09,4.09,4.09,0,0,1-1.6,1.46,3.22,3.22,0,0,1,1.4.92,4,4,0,0,1,.7,1.32,5.47,5.47,0,0,1,.24,1.64,4.79,4.79,0,0,1-1.43,3.55,5,5,0,0,1-3.61,1.4,7.74,7.74,0,0,1-3.6-.9V69.1a6.84,6.84,0,0,0,3.6,1.16,2.61,2.61,0,0,0,1.91-.7,2.49,2.49,0,0,0,.72-1.87,2.62,2.62,0,0,0-.6-1.7,2.21,2.21,0,0,0-.78-.6,7.86,7.86,0,0,0-1.85-.37l-.21,0Z"/><path class="cls-3" d="M539.79,55.27h2.34V71.64h-2.34Z"/><path class="cls-3" d="M548.09,59.66a4.28,4.28,0,0,1,1.44-3.26,5,5,0,0,1,3.53-1.34,4.85,4.85,0,0,1,3.46,1.33,4.35,4.35,0,0,1-.63,6.89,4.2,4.2,0,0,1,2.28,3.87,4.32,4.32,0,0,1-1.48,3.35,5.86,5.86,0,0,1-7.47,0,4.33,4.33,0,0,1-1.51-3.34A4.24,4.24,0,0,1,550,63.28a5.77,5.77,0,0,1-1.49-1.68A4.05,4.05,0,0,1,548.09,59.66Zm7.71,7.59V67a2.34,2.34,0,0,0-.8-1.83,3,3,0,0,0-2.08-.71,3,3,0,0,0-2,.71,2.55,2.55,0,0,0,0,3.71A3.46,3.46,0,0,0,555,69,2.11,2.11,0,0,0,555.8,67.25Zm-.2-7.52a2.29,2.29,0,0,0-.73-1.75,2.85,2.85,0,0,0-3.72,0,2.29,2.29,0,0,0-.73,1.75,2.34,2.34,0,0,0,.77,1.75,2.58,2.58,0,0,0,1.84.72,2.54,2.54,0,0,0,1.82-.72A2.3,2.3,0,0,0,555.6,59.73Z"/><path class="cls-3" d="M533.52,76h1.76V88.24h-1.76Z"/><path class="cls-3" d="M539.76,90.36V90a2.32,2.32,0,0,0,.56-.76,3.37,3.37,0,0,0,.18-1,1.14,1.14,0,0,1-.93-1.16,1.19,1.19,0,0,1,.32-.82,1,1,0,0,1,.76-.34,1,1,0,0,1,.88.47,2,2,0,0,1,.34,1.21,2.81,2.81,0,0,1-.56,1.72A3,3,0,0,1,539.76,90.36Z"/><path class="cls-3" d="M548.36,75.92l.17-.12,1.07,1.34a10.54,10.54,0,0,0-2.34,2,7.67,7.67,0,0,0-1.42,2.52,4.24,4.24,0,0,1,1.94-.5,3.27,3.27,0,0,1,2.44,1,3.7,3.7,0,0,1-.09,5.13,3.77,3.77,0,0,1-5.42-.14A4.61,4.61,0,0,1,543.64,84a8.27,8.27,0,0,1,.55-2.94,9.71,9.71,0,0,1,1.58-2.74A12.69,12.69,0,0,1,548.36,75.92Zm-2.9,7.54a5.33,5.33,0,0,0-.07.93,2.44,2.44,0,0,0,.6,1.7,2,2,0,0,0,1.54.67,1.88,1.88,0,0,0,1.4-.57,2,2,0,0,0,.54-1.44,1.89,1.89,0,0,0-.58-1.44,2.14,2.14,0,0,0-1.54-.55,2.48,2.48,0,0,0-.89.15A5,5,0,0,0,545.46,83.46Z"/><path class="cls-3" d="M555,75.82a2.75,2.75,0,1,1-1.93.81A2.64,2.64,0,0,1,555,75.82Zm6.22,0h1.36l-8.08,12.6h-1.35ZM555,77.15a1.34,1.34,0,0,0-1,.42,1.36,1.36,0,0,0-.42,1,1.32,1.32,0,0,0,.42,1,1.35,1.35,0,0,0,1,.41,1.42,1.42,0,0,0,1.42-1.4,1.41,1.41,0,0,0-.41-1A1.4,1.4,0,0,0,555,77.15Zm5.82,5.74a2.77,2.77,0,0,1,2.74,2.74,2.57,2.57,0,0,1-.81,1.91,2.66,2.66,0,0,1-1.93.78,2.71,2.71,0,0,1-1.95-.78,2.6,2.6,0,0,1-.8-1.91,2.64,2.64,0,0,1,.81-1.94A2.67,2.67,0,0,1,560.81,82.89Zm0,1.34a1.37,1.37,0,0,0-1,.41,1.34,1.34,0,0,0-.4,1,1.36,1.36,0,0,0,.4,1,1.34,1.34,0,0,0,1,.42,1.4,1.4,0,0,0,1.42-1.42,1.4,1.4,0,0,0-1.42-1.4Z"/></g><g id="Especificaciones"><g class="cls-4"><path d="M31.07,182.09v9.55H29.81v-7.28L26,191.64l-1.69-7.31-2.35,7.31H20.65l3.15-9.55h1.1l1.49,6.47,3.43-6.47Z"/><path d="M38.19,185.35l-.9,6.29H36.12l.11-1.07a3,3,0,0,1-2.07,1.16,1.44,1.44,0,0,1-1.08-.45,1.81,1.81,0,0,1-.44-1.3,3.87,3.87,0,0,1,0-.48l.59-4.15h1.19l-.59,4.15a2.53,2.53,0,0,0,0,.38c0,.63.24.94.7.94s1.12-.46,1.9-1.38l.57-4.09Z"/><path d="M41.11,185.35,41,186.46l0,0a2.78,2.78,0,0,1,2.09-1.23,1.31,1.31,0,0,1,1.13.54,2.24,2.24,0,0,1,.41,1.38,4.38,4.38,0,0,1,0,.5l-.61,4H42.79l.57-4a1.84,1.84,0,0,0,0-.39,1.16,1.16,0,0,0-.21-.75.64.64,0,0,0-.51-.26,1.08,1.08,0,0,0-.4.09,2.38,2.38,0,0,0-.48.27,6.39,6.39,0,0,0-.63.56c-.25.25-.38.41-.38.48l-.58,4H39l.88-6.29Z"/><path d="M47.58,185.35l-.88,6.29H45.51l.88-6.29Zm-1.06-2a.69.69,0,1,1,1.37,0,.66.66,0,0,1-.2.48.69.69,0,0,1-1,0A.66.66,0,0,1,46.52,183.38Z"/><path d="M52.82,190.24l-.14,1.14a3.5,3.5,0,0,1-1.75.46,2.69,2.69,0,0,1-2-.79,2.94,2.94,0,0,1-.75-2.11,3.59,3.59,0,0,1,1.14-2.69,4.06,4.06,0,0,1,2.93-1.09,5.79,5.79,0,0,1,1.08.11l-.16,1a3.91,3.91,0,0,0-.91-.1,2.81,2.81,0,0,0-2.05.79,2.49,2.49,0,0,0-.82,1.85,2,2,0,0,0,.46,1.4,1.63,1.63,0,0,0,1.27.51A3.37,3.37,0,0,0,52.82,190.24Z"/><path d="M55.6,185.35l-.88,6.29H53.53l.88-6.29Zm-1.06-2a.69.69,0,1,1,1.37,0,.68.68,0,0,1-.69.68.65.65,0,0,1-.48-.2A.66.66,0,0,1,54.54,183.38Z"/><path d="M58.76,183.76l-.22,1.59a2.78,2.78,0,0,1,1.06-.19,2.42,2.42,0,0,1,1.86.83,3,3,0,0,1,.75,2.09,3.83,3.83,0,0,1-1,2.63,3.58,3.58,0,0,1-2.79,1.13h-.78l-.42,3H56l1.12-8a3,3,0,0,0-.7.71,1.79,1.79,0,0,1-.35.44S56,188,56,188a2,2,0,0,1,.36-.91,3.9,3.9,0,0,1,.85-1l.33-2.31Zm-.35,2.47-.64,4.59h.58a2.46,2.46,0,0,0,1.93-.81,2.88,2.88,0,0,0,.71-1.93,2.13,2.13,0,0,0-.5-1.49,1.7,1.7,0,0,0-1.29-.54A1.79,1.79,0,0,0,58.41,186.23Z"/><path d="M65.09,185.35l-.88,6.29H63l.89-6.29Zm-1-2a.68.68,0,1,1,1.36,0,.68.68,0,0,1-1.36,0Z"/><path d="M68.85,185.16a2.14,2.14,0,0,1,1.7.75,3,3,0,0,1,.64,2,4.44,4.44,0,0,1-.87,2.83,2.58,2.58,0,0,1-2.11,1.11,2.15,2.15,0,0,1-1.74-.75,3.12,3.12,0,0,1-.63-2.07,4.34,4.34,0,0,1,.87-2.76A2.64,2.64,0,0,1,68.85,185.16Zm0,.93a1.51,1.51,0,0,0-1.26.91,4.1,4.1,0,0,0-.53,2.14,2.06,2.06,0,0,0,.32,1.21.92.92,0,0,0,.78.46,1.5,1.5,0,0,0,1.28-.85,4,4,0,0,0,.53-2.13,2.22,2.22,0,0,0-.31-1.26A.92.92,0,0,0,68.85,186.09Z"/><path d="M76.13,185.81v1.25a3.31,3.31,0,0,0-1.89-.83,1,1,0,0,0-.61.2.57.57,0,0,0-.24.46.64.64,0,0,0,.15.38,4.83,4.83,0,0,0,1,.75,3.68,3.68,0,0,1,1.1,1,1.72,1.72,0,0,1,.29.93,1.81,1.81,0,0,1-.55,1.35,2,2,0,0,1-1.4.53,3.73,3.73,0,0,1-2.18-.83l.2-1.15a3.52,3.52,0,0,0,1.94.94.87.87,0,0,0,.58-.2.64.64,0,0,0,.23-.5.82.82,0,0,0-.17-.46,4.69,4.69,0,0,0-1-.8,3.75,3.75,0,0,1-1.07-1,1.72,1.72,0,0,1-.26-.88,1.7,1.7,0,0,1,.54-1.31,2,2,0,0,1,1.44-.49A3.4,3.4,0,0,1,76.13,185.81Z"/><path d="M84,185.16a2.12,2.12,0,0,1,1.7.75,3,3,0,0,1,.64,2,4.5,4.5,0,0,1-.86,2.83,2.6,2.6,0,0,1-2.12,1.11,2.15,2.15,0,0,1-1.74-.75A3.12,3.12,0,0,1,81,189a4.34,4.34,0,0,1,.87-2.76A2.64,2.64,0,0,1,84,185.16Zm0,.93a1.51,1.51,0,0,0-1.26.91,4.19,4.19,0,0,0-.53,2.14,2.06,2.06,0,0,0,.32,1.21.92.92,0,0,0,.79.46,1.5,1.5,0,0,0,1.27-.85,4,4,0,0,0,.53-2.13,2.22,2.22,0,0,0-.31-1.26A.92.92,0,0,0,84,186.09Z"/><path d="M89.67,182.09l-.51,3.76a2.12,2.12,0,0,1,1.53-.69,2,2,0,0,1,1.6.79A3.32,3.32,0,0,1,92.9,188a3.76,3.76,0,0,1-1.05,2.74,4.07,4.07,0,0,1-3,1.07,11.18,11.18,0,0,1-1.67-.11l1.3-9.64Zm-1.23,8.76h.66a2.42,2.42,0,0,0,1.89-.77,3,3,0,0,0,.7-2.08,2.1,2.1,0,0,0-.37-1.33,1.18,1.18,0,0,0-1-.48,1.8,1.8,0,0,0-.85.24A.8.8,0,0,0,89,187Z"/><path d="M96.16,182.09l-1.35,9.55H93.62L95,182.09Z"/><path d="M98.32,185.35l-.88,6.29H96.25l.88-6.29Zm-1-2a.68.68,0,0,1,1.16-.49.7.7,0,0,1,.2.49.66.66,0,0,1-.2.48.68.68,0,0,1-1.16-.48Z"/><path d="M104.79,185.35l-.12.93h-1.22a2.11,2.11,0,0,1,.42,1.24,2.53,2.53,0,0,1-.34,1.33,2,2,0,0,1-.83.81,4.63,4.63,0,0,1-1.26.37,3.11,3.11,0,0,0-1,.29.4.4,0,0,0-.2.33.33.33,0,0,0,.18.26,6.18,6.18,0,0,0,1.28.39,3.11,3.11,0,0,1,1.54.71,1.44,1.44,0,0,1,.45,1.06,1.52,1.52,0,0,1-.73,1.27,3.06,3.06,0,0,1-1.84.52,3.72,3.72,0,0,1-2-.47,1.33,1.33,0,0,1-.77-1.16c0-.61.6-1,1.81-1.3-.73-.27-1.1-.64-1.1-1.11a1,1,0,0,1,.34-.68,2.18,2.18,0,0,1,.91-.48,1.85,1.85,0,0,1-1.14-1.8,2.51,2.51,0,0,1,.69-1.79,2.21,2.21,0,0,1,1.65-.72ZM101.24,194a1.83,1.83,0,0,0,1-.22.63.63,0,0,0,.36-.56c0-.23-.2-.44-.6-.62a2.32,2.32,0,0,0-.8-.28,3.31,3.31,0,0,0-1,.28c-.45.19-.68.41-.68.64s.15.42.46.56A3.17,3.17,0,0,0,101.24,194Zm.26-4.91a1.09,1.09,0,0,0,.89-.44,1.64,1.64,0,0,0,.34-1,1.32,1.32,0,0,0-.31-.91,1.07,1.07,0,0,0-.81-.35,1.14,1.14,0,0,0-.86.44,1.56,1.56,0,0,0-.38,1,1.35,1.35,0,0,0,.32.91A1,1,0,0,0,101.5,189.05Z"/><path d="M110.78,185.35l-.88,6.29h-1.19l.12-.73,0,0a2.33,2.33,0,0,1-1.69.88,1.85,1.85,0,0,1-1.47-.73,2.66,2.66,0,0,1-.6-1.76,4.07,4.07,0,0,1,1.13-3,4.17,4.17,0,0,1,3.14-1.16A5.26,5.26,0,0,1,110.78,185.35ZM109,189.82l.51-3.63h-.37a2.58,2.58,0,0,0-2.13.89,3,3,0,0,0-.73,2,2.07,2.07,0,0,0,.35,1.24,1.07,1.07,0,0,0,.89.48,1.55,1.55,0,0,0,1-.42C108.78,190.07,109,189.89,109,189.82Z"/><path d="M117.8,182.09l-1.35,9.55a5.88,5.88,0,0,1-1.6.2,3.61,3.61,0,0,1-2.45-.76,2.72,2.72,0,0,1-.86-2.16,3.69,3.69,0,0,1,1.12-2.56,3.92,3.92,0,0,1,3-1.2h.5l.43-3.07Zm-2.41,8.73.65-4.67h-.3a3,3,0,0,0-2.16.81,2.65,2.65,0,0,0-.82,1.94,1.89,1.89,0,0,0,.54,1.44,2.18,2.18,0,0,0,1.55.51A3.57,3.57,0,0,0,115.39,190.82Z"/><path d="M121.19,185.16a2.12,2.12,0,0,1,1.7.75,2.94,2.94,0,0,1,.64,2,4.5,4.5,0,0,1-.86,2.83,2.6,2.6,0,0,1-2.12,1.11,2.15,2.15,0,0,1-1.74-.75,3.12,3.12,0,0,1-.63-2.07,4.34,4.34,0,0,1,.87-2.76A2.64,2.64,0,0,1,121.19,185.16Zm0,.93a1.51,1.51,0,0,0-1.26.91,4.19,4.19,0,0,0-.53,2.14,2.13,2.13,0,0,0,.32,1.21.92.92,0,0,0,.79.46,1.5,1.5,0,0,0,1.27-.85,4,4,0,0,0,.53-2.13,2.22,2.22,0,0,0-.31-1.26A.92.92,0,0,0,121.19,186.09Z"/><path d="M128.48,185.81v1.25a3.36,3.36,0,0,0-1.9-.83.92.92,0,0,0-.6.2.56.56,0,0,0-.25.46.64.64,0,0,0,.15.38,5.18,5.18,0,0,0,1,.75,3.74,3.74,0,0,1,1.11,1,1.83,1.83,0,0,1-.27,2.28,2,2,0,0,1-1.4.53,3.75,3.75,0,0,1-2.18-.83l.2-1.15a3.52,3.52,0,0,0,1.94.94.85.85,0,0,0,.58-.2.61.61,0,0,0,.23-.5.8.8,0,0,0-.16-.46,5.2,5.2,0,0,0-1-.8,3.56,3.56,0,0,1-1.06-1,1.63,1.63,0,0,1-.26-.88,1.72,1.72,0,0,1,.53-1.31,2.06,2.06,0,0,1,1.44-.49A3.43,3.43,0,0,1,128.48,185.81Z"/><path d="M139,185.35l-.88,6.29H137l.11-.73,0,0a2.33,2.33,0,0,1-1.69.88,1.85,1.85,0,0,1-1.47-.73,2.66,2.66,0,0,1-.6-1.76,4.07,4.07,0,0,1,1.13-3,4.17,4.17,0,0,1,3.14-1.16A5.26,5.26,0,0,1,139,185.35Zm-1.81,4.47.51-3.63h-.37a2.58,2.58,0,0,0-2.13.89,3,3,0,0,0-.73,2,2,2,0,0,0,.35,1.24,1.07,1.07,0,0,0,.89.48,1.55,1.55,0,0,0,.95-.42C137,190.07,137.22,189.89,137.23,189.82Z"/><path d="M147.25,185.35l-.13.93h-1.25l-.61,3.44a2.7,2.7,0,0,0,0,.43c0,.41.22.62.66.62a2.39,2.39,0,0,0,1.15-.38l-.06,1.17a3.47,3.47,0,0,1-1.31.28,1.74,1.74,0,0,1-1.22-.4,1.29,1.29,0,0,1-.45-1,1.73,1.73,0,0,1,0-.32l.66-3.81h-1.11l.15-.93h1.15l.23-1.29h1.17l-.22,1.29Z"/><path d="M152.62,190l-.17,1.13a3.48,3.48,0,0,1-2.1.71,2.42,2.42,0,0,1-1.91-.83,3.28,3.28,0,0,1-.72-2.22,3.91,3.91,0,0,1,.87-2.58,2.63,2.63,0,0,1,2.11-1.05,2,2,0,0,1,1.59.73,2.77,2.77,0,0,1,.64,1.9,4,4,0,0,1,0,.59H149a4.28,4.28,0,0,0-.05.6,1.91,1.91,0,0,0,.48,1.37,1.57,1.57,0,0,0,1.19.5A3.64,3.64,0,0,0,152.62,190Zm-3.47-2.45h2.63a1.65,1.65,0,0,0-.3-1,1,1,0,0,0-.83-.38C150,186.13,149.46,186.61,149.15,187.55Z"/><path d="M155.81,185.35l-.16,1.11,0,0a2.77,2.77,0,0,1,2.08-1.23,1.31,1.31,0,0,1,1.13.54,2.24,2.24,0,0,1,.41,1.38,4.38,4.38,0,0,1,0,.5l-.61,4h-1.17l.57-4a1.84,1.84,0,0,0,0-.39,1.16,1.16,0,0,0-.21-.75.63.63,0,0,0-.51-.26,1.08,1.08,0,0,0-.4.09,2.38,2.38,0,0,0-.48.27,6.39,6.39,0,0,0-.63.56,1.45,1.45,0,0,0-.38.48l-.58,4h-1.17l.88-6.29Z"/><path d="M165.32,190l-.17,1.13a3.46,3.46,0,0,1-2.1.71,2.42,2.42,0,0,1-1.91-.83,3.28,3.28,0,0,1-.72-2.22,3.91,3.91,0,0,1,.87-2.58,2.63,2.63,0,0,1,2.11-1.05,2,2,0,0,1,1.6.73,2.81,2.81,0,0,1,.63,1.9,4,4,0,0,1,0,.59h-3.92a3.21,3.21,0,0,0-.06.6,1.91,1.91,0,0,0,.48,1.37,1.57,1.57,0,0,0,1.19.5A3.64,3.64,0,0,0,165.32,190Zm-3.47-2.45h2.63a1.71,1.71,0,0,0-.29-1,1,1,0,0,0-.84-.38C162.66,186.13,162.16,186.61,161.85,187.55Z"/><path d="M168.61,185.35l-.18,1.2,0,0a6,6,0,0,1,.89-1.06,1.24,1.24,0,0,1,.78-.26,1.46,1.46,0,0,1,.52.1v1.35a1.4,1.4,0,0,0-.73-.22,1.1,1.1,0,0,0-.62.18,2.65,2.65,0,0,0-.67.74,2.62,2.62,0,0,0-.4.7l-.49,3.54h-1.19l.88-6.29Z"/><path d="M176,182.09h1.64a3.47,3.47,0,0,1,2.28.68,2.51,2.51,0,0,1,.81,2,2.79,2.79,0,0,1-.8,1.95,3,3,0,0,1-2.25.85h-1.15l-.56,4h-1.32Zm1.14,1.13-.45,3.25h.92A1.8,1.8,0,0,0,179,186a1.69,1.69,0,0,0,.48-1.22,1.45,1.45,0,0,0-.45-1.11,1.82,1.82,0,0,0-1.29-.42Z"/><path d="M185.91,182a3,3,0,0,1,2.45,1.1,4.33,4.33,0,0,1,.93,2.9,6.27,6.27,0,0,1-1.36,4.14,4.1,4.1,0,0,1-3.25,1.65,3.05,3.05,0,0,1-2.44-1.13,4.3,4.3,0,0,1-1-2.9,6.54,6.54,0,0,1,1.3-4A4,4,0,0,1,185.91,182Zm-1.2,8.64a2.81,2.81,0,0,0,2.31-1.42,6,6,0,0,0,1-3.44,3,3,0,0,0-.57-1.94,1.89,1.89,0,0,0-1.53-.7,2.76,2.76,0,0,0-2.4,1.48,6.09,6.09,0,0,0-.93,3.32,3.07,3.07,0,0,0,.58,2A1.91,1.91,0,0,0,184.71,190.61Z"/><path d="M196.43,182.09l-.17,1.19h-2.69l-1.18,8.36h-1.32l1.18-8.36h-2.69l.17-1.19Z"/><path d="M195.64,191a.82.82,0,1,1,.24.58A.78.78,0,0,1,195.64,191Zm.78-5.05a.82.82,0,1,1,.24.57A.78.78,0,0,1,196.42,186Z"/><path d="M203.43,182l-1.51,9.67h-1.27l1.53-9.67Z"/><path d="M210.72,182l-1.51,9.67H208l1.53-9.67Z"/><path d="M217.35,182a2.1,2.1,0,0,1,1.81.88,4.37,4.37,0,0,1,.63,2.57,9,9,0,0,1-1,4.43,3.11,3.11,0,0,1-2.73,1.91c-1.68,0-2.52-1.13-2.52-3.4a9.46,9.46,0,0,1,1-4.39A3.13,3.13,0,0,1,217.35,182ZM216,190.63c.63,0,1.2-.54,1.72-1.63a8.47,8.47,0,0,0,.79-3.73c0-1.45-.41-2.17-1.23-2.17-.59,0-1.16.54-1.68,1.63a8.13,8.13,0,0,0-.79,3.61C214.81,189.87,215.21,190.63,216,190.63Z"/><path d="M221.88,183.7l.18-1.32a5,5,0,0,1,2-.41,2.53,2.53,0,0,1,1.85.67,2.44,2.44,0,0,1-1.16,4.08,2.11,2.11,0,0,1,1.29,2.16,2.79,2.79,0,0,1-.87,2,3.27,3.27,0,0,1-2.44.88,5.46,5.46,0,0,1-2.3-.53l.17-1.13a4.49,4.49,0,0,0,2.07.53,2.22,2.22,0,0,0,1.49-.48,1.6,1.6,0,0,0,.57-1.27,1.52,1.52,0,0,0-.52-1.21,1.67,1.67,0,0,0-1.22-.39l.15-1.13a2.61,2.61,0,0,0,1.6-.58,1.47,1.47,0,0,0,.56-1.12,1.28,1.28,0,0,0-.41-1,1.52,1.52,0,0,0-1.08-.37A3.47,3.47,0,0,0,221.88,183.7Z"/><path d="M25.61,199l1.85,9.61H26.28l-.56-3h-3l-1.26,3H20.18L24.4,199Zm-2.47,5.6h2.39l-.74-3.91Zm2.25-8.43h1.42l-1.59,2.05h-.78Z"/><path d="M30.55,202.35l-.18,1.2,0,0a6,6,0,0,1,.89-1.06,1.24,1.24,0,0,1,.78-.26,1.46,1.46,0,0,1,.52.1v1.35a1.4,1.4,0,0,0-.73-.22,1.1,1.1,0,0,0-.62.18,2.81,2.81,0,0,0-.67.74,2.62,2.62,0,0,0-.4.7l-.49,3.54H28.48l.88-6.29Z"/><path d="M37.64,207l-.17,1.13a3.48,3.48,0,0,1-2.1.71,2.42,2.42,0,0,1-1.91-.83,3.28,3.28,0,0,1-.72-2.22,3.91,3.91,0,0,1,.87-2.58,2.63,2.63,0,0,1,2.11-1.05,2,2,0,0,1,1.59.73,2.77,2.77,0,0,1,.64,1.9,4,4,0,0,1,0,.59H34a4.28,4.28,0,0,0,0,.6,1.91,1.91,0,0,0,.48,1.37,1.57,1.57,0,0,0,1.19.5A3.64,3.64,0,0,0,37.64,207Zm-3.47-2.45H36.8a1.65,1.65,0,0,0-.3-1,1,1,0,0,0-.83-.38C35,203.13,34.48,203.61,34.17,204.55Z"/><path d="M44.58,202.35l-.88,6.29H42.51l.12-.73,0,0a2.37,2.37,0,0,1-1.7.88,1.82,1.82,0,0,1-1.46-.73,2.62,2.62,0,0,1-.61-1.76,4.07,4.07,0,0,1,1.13-3,4.17,4.17,0,0,1,3.14-1.16A5.26,5.26,0,0,1,44.58,202.35Zm-1.81,4.47.51-3.63h-.37a2.58,2.58,0,0,0-2.13.89,3,3,0,0,0-.73,2,2.07,2.07,0,0,0,.35,1.24,1.07,1.07,0,0,0,.89.48,1.55,1.55,0,0,0,1-.42C42.58,207.07,42.76,206.89,42.77,206.82Z"/><path d="M49.43,202.81v1.25a3.31,3.31,0,0,0-1.89-.83,1,1,0,0,0-.61.2.57.57,0,0,0-.24.46.64.64,0,0,0,.15.38,4.83,4.83,0,0,0,1,.75,3.68,3.68,0,0,1,1.1,1,1.72,1.72,0,0,1,.29.93,1.78,1.78,0,0,1-.56,1.35,1.93,1.93,0,0,1-1.39.53,3.73,3.73,0,0,1-2.18-.83l.2-1.15a3.49,3.49,0,0,0,1.94.94.87.87,0,0,0,.58-.2.64.64,0,0,0,.23-.5.82.82,0,0,0-.17-.46,4.69,4.69,0,0,0-1-.8,3.62,3.62,0,0,1-1.07-1,1.72,1.72,0,0,1-.26-.88,1.7,1.7,0,0,1,.54-1.31,2,2,0,0,1,1.44-.49A3.4,3.4,0,0,1,49.43,202.81Z"/><path d="M56.25,202.35l-.16,1.11,0,0a2.77,2.77,0,0,1,2.09-1.23,1.34,1.34,0,0,1,1.13.54,2.24,2.24,0,0,1,.4,1.38,2.89,2.89,0,0,1,0,.5l-.6,4H57.92l.58-4a2.77,2.77,0,0,0,0-.39,1.22,1.22,0,0,0-.2-.75.65.65,0,0,0-.52-.26,1.08,1.08,0,0,0-.4.09,2.08,2.08,0,0,0-.47.27,6.39,6.39,0,0,0-.63.56,1.55,1.55,0,0,0-.39.48l-.58,4H54.17l.88-6.29Z"/><path d="M63.84,202.16a2.14,2.14,0,0,1,1.7.75,3,3,0,0,1,.64,2,4.44,4.44,0,0,1-.87,2.83,2.58,2.58,0,0,1-2.11,1.11,2.15,2.15,0,0,1-1.74-.75,3.12,3.12,0,0,1-.63-2.07,4.34,4.34,0,0,1,.87-2.76A2.64,2.64,0,0,1,63.84,202.16Zm0,.93a1.51,1.51,0,0,0-1.26.91,4.1,4.1,0,0,0-.53,2.14,2.13,2.13,0,0,0,.31,1.21.94.94,0,0,0,.79.46,1.5,1.5,0,0,0,1.28-.85,4,4,0,0,0,.53-2.13,2.22,2.22,0,0,0-.31-1.26A.93.93,0,0,0,63.84,203.09Z"/><path d="M72.88,202.35l-.16,1.08a3.13,3.13,0,0,1,2.19-1.18c.81,0,1.29.47,1.43,1.42a3.14,3.14,0,0,1,2.35-1.42,1.39,1.39,0,0,1,1.08.46,1.88,1.88,0,0,1,.4,1.29,3.78,3.78,0,0,1,0,.56l-.57,4.08H78.37l.59-4.13a2.8,2.8,0,0,0,0-.4c0-.61-.22-.92-.67-.92a1.1,1.1,0,0,0-.38.07,2.28,2.28,0,0,0-.46.24,4.54,4.54,0,0,0-.69.59c-.28.29-.44.47-.45.56l-.58,4H74.58l.56-4a3.61,3.61,0,0,0,0-.53c0-.63-.25-.94-.75-.94a2,2,0,0,0-1.17.66,3.1,3.1,0,0,0-.72.8l-.57,4H70.8l.89-6.29Z"/><path d="M86.85,202.35,86,208.64H84.78l.11-1.07a3,3,0,0,1-2.07,1.16,1.47,1.47,0,0,1-1.08-.45,1.81,1.81,0,0,1-.44-1.3,2.59,2.59,0,0,1,0-.48l.59-4.15h1.18l-.58,4.15a2.53,2.53,0,0,0,0,.38c0,.63.23.94.7.94s1.12-.46,1.89-1.38l.57-4.09Z"/><path d="M89.78,202.35l-.16,1.11,0,0a2.77,2.77,0,0,1,2.08-1.23,1.34,1.34,0,0,1,1.14.54,2.24,2.24,0,0,1,.4,1.38,2.89,2.89,0,0,1,0,.5l-.6,4H91.46l.57-4a2.77,2.77,0,0,0,0-.39,1.22,1.22,0,0,0-.2-.75.65.65,0,0,0-.52-.26,1.08,1.08,0,0,0-.4.09,2.08,2.08,0,0,0-.47.27,6.39,6.39,0,0,0-.63.56,1.55,1.55,0,0,0-.39.48l-.57,4H87.7l.88-6.29Z"/><path d="M96.24,202.35l-.88,6.29H94.18l.88-6.29Zm-1-2a.68.68,0,1,1,1.36,0,.68.68,0,0,1-1.36,0Z"/><path d="M101.48,207.24l-.13,1.14a3.5,3.5,0,0,1-1.75.46,2.67,2.67,0,0,1-2-.79,2.91,2.91,0,0,1-.76-2.11A3.56,3.56,0,0,1,98,203.25a4,4,0,0,1,2.92-1.09,5.64,5.64,0,0,1,1.08.11l-.15,1a4,4,0,0,0-.91-.1,2.84,2.84,0,0,0-2.06.79,2.52,2.52,0,0,0-.81,1.85,2,2,0,0,0,.46,1.4,1.62,1.62,0,0,0,1.26.51A3.31,3.31,0,0,0,101.48,207.24Z"/><path d="M104.26,202.35l-.88,6.29h-1.19l.89-6.29Zm-1.05-2a.68.68,0,1,1,1.36,0,.68.68,0,0,1-1.36,0Z"/><path d="M107.43,200.76l-.23,1.59a2.83,2.83,0,0,1,1.07-.19,2.42,2.42,0,0,1,1.86.83,3,3,0,0,1,.75,2.09,3.8,3.8,0,0,1-1,2.63,3.56,3.56,0,0,1-2.78,1.13h-.79l-.41,3h-1.19l1.11-8a3.12,3.12,0,0,0-.69.71,2.12,2.12,0,0,1-.35.44s-.06,0-.06-.09a2,2,0,0,1,.36-.91,3.94,3.94,0,0,1,.86-1l.32-2.31Zm-.35,2.47-.64,4.59H107a2.45,2.45,0,0,0,1.93-.81,2.84,2.84,0,0,0,.72-1.93,2.09,2.09,0,0,0-.51-1.49,1.68,1.68,0,0,0-1.28-.54A1.79,1.79,0,0,0,107.08,203.23Z"/><path d="M117.61,202.35l-.89,6.29h-1.18l.11-.73,0,0a2.33,2.33,0,0,1-1.69.88,1.85,1.85,0,0,1-1.47-.73,2.66,2.66,0,0,1-.6-1.76,4.06,4.06,0,0,1,1.12-3,4.2,4.2,0,0,1,3.15-1.16A5.26,5.26,0,0,1,117.61,202.35Zm-1.82,4.47.52-3.63h-.37a2.58,2.58,0,0,0-2.13.89,3,3,0,0,0-.73,2,2,2,0,0,0,.35,1.24,1.06,1.06,0,0,0,.89.48,1.55,1.55,0,0,0,1-.42C115.61,207.07,115.79,206.89,115.79,206.82Z"/><path d="M120.79,199.09l-1.34,9.55h-1.19l1.35-9.55Z"/><path d="M123,202.35l-.88,6.29h-1.19l.88-6.29Zm-1.06-2a.69.69,0,1,1,1.37,0,.66.66,0,0,1-.2.48.69.69,0,0,1-1,0A.66.66,0,0,1,121.9,200.38Z"/><path d="M129.46,202.35l-4.18,5.24h3.66l-.22,1H123l4.1-5.24H124l.13-1.05Z"/><path d="M135.86,202.35l-.89,6.29h-1.19l.12-.73,0,0a2.35,2.35,0,0,1-1.69.88,1.83,1.83,0,0,1-1.47-.73,2.66,2.66,0,0,1-.6-1.76,4.06,4.06,0,0,1,1.12-3,4.19,4.19,0,0,1,3.14-1.16A5.33,5.33,0,0,1,135.86,202.35ZM134,206.82l.51-3.63h-.36a2.59,2.59,0,0,0-2.14.89,3.1,3.1,0,0,0-.73,2,2.07,2.07,0,0,0,.35,1.24,1.09,1.09,0,0,0,.9.48,1.53,1.53,0,0,0,.94-.42C133.86,207.07,134,206.89,134,206.82Z"/><path d="M142.87,199.09l-1.34,9.55a6,6,0,0,1-1.61.2,3.61,3.61,0,0,1-2.45-.76,2.75,2.75,0,0,1-.86-2.16,3.69,3.69,0,0,1,1.12-2.56,3.92,3.92,0,0,1,3-1.2h.5l.43-3.07Zm-2.4,8.73.65-4.67h-.31a2.91,2.91,0,0,0-2.15.81,2.61,2.61,0,0,0-.82,1.94,1.89,1.89,0,0,0,.54,1.44,2.15,2.15,0,0,0,1.54.51A3.72,3.72,0,0,0,140.47,207.82Z"/><path d="M149,202.35l-.88,6.29h-1.19l.12-.73,0,0a2.35,2.35,0,0,1-1.7.88,1.82,1.82,0,0,1-1.46-.73,2.67,2.67,0,0,1-.61-1.76,4.07,4.07,0,0,1,1.13-3,4.19,4.19,0,0,1,3.14-1.16A5.21,5.21,0,0,1,149,202.35Zm-1.81,4.47.51-3.63h-.37a2.58,2.58,0,0,0-2.13.89,3,3,0,0,0-.73,2,2.07,2.07,0,0,0,.35,1.24,1.09,1.09,0,0,0,.9.48,1.55,1.55,0,0,0,.94-.42C147,207.07,147.17,206.89,147.18,206.82Z"/><path d="M153.85,202.81v1.25a3.36,3.36,0,0,0-1.9-.83,1,1,0,0,0-.61.2.57.57,0,0,0-.24.46.64.64,0,0,0,.15.38,4.83,4.83,0,0,0,1,.75,3.68,3.68,0,0,1,1.1,1,1.72,1.72,0,0,1,.29.93,1.81,1.81,0,0,1-.55,1.35,2,2,0,0,1-1.4.53,3.73,3.73,0,0,1-2.18-.83l.2-1.15a3.52,3.52,0,0,0,1.94.94.87.87,0,0,0,.58-.2.61.61,0,0,0,.23-.5.75.75,0,0,0-.17-.46,4.69,4.69,0,0,0-1-.8,3.75,3.75,0,0,1-1.07-1A1.72,1.72,0,0,1,150,204a1.7,1.7,0,0,1,.54-1.31,2,2,0,0,1,1.44-.49A3.45,3.45,0,0,1,153.85,202.81Z"/><path d="M154.5,208a.82.82,0,0,1,.82-.81.76.76,0,0,1,.56.24.81.81,0,0,1,0,1.15.76.76,0,0,1-.56.24.82.82,0,0,1-.82-.82Zm.78-5.05a.82.82,0,1,1,.24.57A.78.78,0,0,1,155.28,203Z"/><path d="M164.78,199l-1.51,9.67H162l1.53-9.67Z"/><path d="M172.1,203.65a2,2,0,0,1,1.26,2,2.9,2.9,0,0,1-1,2.19,3.29,3.29,0,0,1-2.33.89,2.62,2.62,0,0,1-1.94-.73,2.74,2.74,0,0,1,1.3-4.54,2,2,0,0,1-1.08-1.87,2.49,2.49,0,0,1,.82-1.87,2.74,2.74,0,0,1,1.95-.78,2.65,2.65,0,0,1,1.88.66,2.5,2.5,0,0,1,.29,3.13A2.54,2.54,0,0,1,172.1,203.65Zm-1.94,4a1.9,1.9,0,0,0,1.38-.57,1.85,1.85,0,0,0,.57-1.35,1.51,1.51,0,0,0-.42-1.12,1.59,1.59,0,0,0-1.16-.4,1.77,1.77,0,0,0-1.32.58,1.88,1.88,0,0,0-.57,1.36,1.46,1.46,0,0,0,.43,1.08A1.52,1.52,0,0,0,170.16,207.63Zm.75-4.58a1.49,1.49,0,0,0,1.1-.48,1.58,1.58,0,0,0,.46-1.14,1.31,1.31,0,0,0-.36-1,1.23,1.23,0,0,0-.93-.37,1.46,1.46,0,0,0-1.11.48,1.54,1.54,0,0,0-.46,1.13,1.34,1.34,0,0,0,.36,1A1.24,1.24,0,0,0,170.91,203.05Z"/></g><rect class="cls-1" x="7.53" y="183.98" width="8.54" height="8.54"/><rect class="cls-2" x="7.53" y="201.35" width="8.54" height="8.54"/><path d="M6.86,161.17l-.17,1.19H4l-1.18,8.36H1.51l1.18-8.36H0l.17-1.19Z"/><path d="M8.31,164.24A2.11,2.11,0,0,1,10,165a2.94,2.94,0,0,1,.64,2,4.5,4.5,0,0,1-.86,2.83,2.6,2.6,0,0,1-2.12,1.11,2.15,2.15,0,0,1-1.74-.75,3.14,3.14,0,0,1-.63-2.07,4.31,4.31,0,0,1,.87-2.75A2.62,2.62,0,0,1,8.31,164.24Zm0,.94a1.51,1.51,0,0,0-1.26.9,4.23,4.23,0,0,0-.53,2.15,2.1,2.1,0,0,0,.32,1.2.92.92,0,0,0,.79.46,1.5,1.5,0,0,0,1.27-.84,3.93,3.93,0,0,0,.53-2.14,2.3,2.3,0,0,0-.3-1.26A.93.93,0,0,0,8.31,165.18Z"/><path d="M15.07,164.43l-.13.93H13.69l-.61,3.44a1.91,1.91,0,0,0-.05.44c0,.41.22.61.66.61a2.39,2.39,0,0,0,1.15-.37l-.07,1.16a3.21,3.21,0,0,1-1.3.28,1.77,1.77,0,0,1-1.22-.39,1.33,1.33,0,0,1-.45-1,1.73,1.73,0,0,1,0-.32l.66-3.81H11.38l.15-.93h1.15l.23-1.28h1.17l-.23,1.28Z"/><path d="M21.25,164.43l-.89,6.29H19.18l.11-.72,0,0a2.33,2.33,0,0,1-1.69.88,1.86,1.86,0,0,1-1.47-.72,2.7,2.7,0,0,1-.6-1.76,4.08,4.08,0,0,1,1.12-3,4.19,4.19,0,0,1,3.14-1.16A5.33,5.33,0,0,1,21.25,164.43Zm-1.82,4.47.52-3.63h-.37a2.59,2.59,0,0,0-2.13.89,3.07,3.07,0,0,0-.74,2,2,2,0,0,0,.36,1.24,1,1,0,0,0,.89.49,1.59,1.59,0,0,0,.95-.43C19.25,169.15,19.42,169,19.43,168.9Z"/><path d="M24.43,161.17l-1.35,9.55H21.9l1.34-9.55Z"/><path d="M24.43,170.11a.82.82,0,0,1,.82-.82.77.77,0,0,1,.56.24.81.81,0,0,1,0,1.15.77.77,0,0,1-.56.24.82.82,0,0,1-.82-.81Zm.78-5.06a.82.82,0,1,1,.24.57A.78.78,0,0,1,25.21,165.05Z"/><path d="M34.71,161.05l-1.51,9.67H31.93l1.53-9.67Z"/><path d="M42,161.05l-1.51,9.67H39.22l1.54-9.67Z"/><path d="M45.73,163.06l.17-1.36a4.3,4.3,0,0,1,2.16-.65,2.3,2.3,0,0,1,1.68.63,2.24,2.24,0,0,1,.64,1.65,4.86,4.86,0,0,1-.91,2.46,38.12,38.12,0,0,1-2.85,3.75h3.64l-.17,1.18H44.3c1.86-2.27,3.13-3.94,3.82-5a5.11,5.11,0,0,0,1-2.3,1.13,1.13,0,0,0-.36-.88,1.41,1.41,0,0,0-1-.31A3.56,3.56,0,0,0,45.73,163.06Z"/><path d="M56.59,161.05l-1.51,9.67H53.81l1.53-9.67Z"/></g></g></svg>