<svg xmlns="http://www.w3.org/2000/svg" viewBox="0 0 65.71 42.25"><defs><style>.cls-1{fill:#037559;}.cls-2{fill:#038d71;}.cls-3{fill:#fff;}</style></defs><g id="Capa_2" data-name="Capa 2"><g id="Arte"><rect class="cls-1" y="3.06" width="65.71" height="39.19" rx="5"/><rect class="cls-2" width="65.71" height="39.19" rx="5"/><path class="cls-3" d="M18.83,10.19V29H15.39V10.19Z"/><path class="cls-3" d="M35.8,10v11h1.6v2.75H35.8V29H32.36V23.66H24.69v-2.2L33.83,10Zm-3.52,5.7-4.15,5.26h4.23V15.65Z"/><path class="cls-3" d="M50.47,10a22,22,0,0,0-3.32,3.7,21.27,21.27,0,0,0-2.6,4.29,5.38,5.38,0,0,1,2.15-.45,5,5,0,0,1,4.49,2.76,6.62,6.62,0,0,1-.12,6,5.64,5.64,0,0,1-2.16,2.2,5.81,5.81,0,0,1-3,.8,5.72,5.72,0,0,1-4.44-1.85,6.82,6.82,0,0,1-1.7-4.8,13.6,13.6,0,0,1,1.77-6.3A24.71,24.71,0,0,1,46.38,10ZM43.28,23.14A3.17,3.17,0,0,0,44,25.29a2.36,2.36,0,0,0,1.88.84,2.28,2.28,0,0,0,1.83-.8,3.05,3.05,0,0,0,.7-2.11,3,3,0,0,0-.72-2,2.51,2.51,0,0,0-3.69,0A2.85,2.85,0,0,0,43.28,23.14Z"/></g></g></svg>