<svg xmlns="http://www.w3.org/2000/svg" viewBox="0 0 65.71 42.25"><defs><style>.cls-1{fill:#0e6eaf;}.cls-2{fill:var(--azul-igac);}.cls-3{fill:#fff;}</style></defs><g id="Capa_2" data-name="Capa 2"><g id="Arte"><rect class="cls-1" y="3.06" width="65.71" height="39.19" rx="5"/><rect class="cls-2" width="65.71" height="39.19" rx="5"/><path class="cls-3" d="M18.83,10.19V29H15.39V10.19Z"/><path class="cls-3" d="M30.33,10a6.51,6.51,0,0,1,4.21,1.3,4.18,4.18,0,0,1,1.6,3.43A4.58,4.58,0,0,1,33.52,19a4.31,4.31,0,0,1,2.27,1.76,5.31,5.31,0,0,1,.77,2.89,5.13,5.13,0,0,1-1.75,4,6.7,6.7,0,0,1-4.6,1.54,9.31,9.31,0,0,1-4.31-1.06V24.84A10,10,0,0,0,28,26a5.72,5.72,0,0,0,2,.34,3.12,3.12,0,0,0,2.16-.74,2.49,2.49,0,0,0,.84-1.94A2.63,2.63,0,0,0,32,21.5a3.8,3.8,0,0,0-2.54-.78h-.21V17.8h.16a3.73,3.73,0,0,0,2.35-.66,2.16,2.16,0,0,0,.85-1.8,2.23,2.23,0,0,0-.82-1.79,3.21,3.21,0,0,0-2.1-.68,7.54,7.54,0,0,0-3.33.85v-3A9.35,9.35,0,0,1,30.33,10Z"/><path class="cls-3" d="M44.91,10a5.84,5.84,0,0,1,4.25,1.53,5.36,5.36,0,0,1,1.58,4.06,9.23,9.23,0,0,1-1.17,4.2,41.85,41.85,0,0,1-4.14,6h6.44V29H39.71v-.39q2.11-2.62,3.65-4.71c1-1.39,1.8-2.55,2.36-3.47a14.19,14.19,0,0,0,1.18-2.34,6,6,0,0,0,.35-2,3.06,3.06,0,0,0-.83-2.17,2.67,2.67,0,0,0-2-.88Q42.3,13,40,15.42V11.74A8.14,8.14,0,0,1,44.91,10Z"/></g></g></svg>