<svg xmlns="http://www.w3.org/2000/svg" viewBox="0 0 32 32"><defs><style>.cls-1{fill:#5045b3;}.cls-2{fill:#fff;}</style></defs><g id="Capa_2" data-name="Capa 2"><g id="Fondo"><circle class="cls-1" cx="16" cy="16" r="16"/><path class="cls-2" d="M20.09,18.94a3.43,3.43,0,0,1-.39,1.69,3.38,3.38,0,0,1-1,1.15,4.43,4.43,0,0,1-1.36.63,5.3,5.3,0,0,1-1.39.2,9.39,9.39,0,0,1-2.12-.27,9.57,9.57,0,0,1-1.94-.64V18.86a6.64,6.64,0,0,0,1.38.89,3.43,3.43,0,0,0,1.52.36,2.05,2.05,0,0,0,1-.22,1.56,1.56,0,0,0,.61-.55,1.39,1.39,0,0,0,.2-.71,1.47,1.47,0,0,0-.25-.85,1.79,1.79,0,0,0-.74-.6A2.63,2.63,0,0,0,14.45,17H14v-2h.48a2,2,0,0,0,1.05-.24,1.55,1.55,0,0,0,.6-.59,1.33,1.33,0,0,0-.26-1.66A1.56,1.56,0,0,0,14.77,12a3.91,3.91,0,0,0-1.31.24,5.37,5.37,0,0,0-1.27.63V10.44a12.59,12.59,0,0,1,1.68-.59,6.88,6.88,0,0,1,1.77-.21,4.7,4.7,0,0,1,2.39.55,3.68,3.68,0,0,1,1.41,1.35A3.08,3.08,0,0,1,19.88,13a2.72,2.72,0,0,1-.25,1.13,3.35,3.35,0,0,1-.64,1,3.67,3.67,0,0,1-.82.69A4.25,4.25,0,0,1,19.51,17,3,3,0,0,1,20.09,18.94Z"/></g></g></svg>