<svg xmlns="http://www.w3.org/2000/svg" viewBox="0 0 32 32"><defs><style>.cls-1{fill:#57bd8d;}.cls-2{fill:#0069b3;}</style></defs><g id="Capa_2" data-name="Capa 2"><g id="Especificaciones"><circle class="cls-1" cx="16" cy="16" r="16"/><path class="cls-2" d="M20.87,22.45h-9.6V22.2c.38-.36.78-.79,1.23-1.29s1-1.15,1.71-2c.32-.37.62-.74.91-1.1a9.8,9.8,0,0,0,.72-1,6,6,0,0,0,.51-1.12,3.81,3.81,0,0,0,.21-1.25,2.05,2.05,0,0,0-.5-1.42,1.7,1.7,0,0,0-1.29-.54,4.38,4.38,0,0,0-3.09,1.61v-3l.89-.56a6.59,6.59,0,0,1,.8-.41,6.4,6.4,0,0,1,1.07-.35,6.26,6.26,0,0,1,1.34-.14,4.56,4.56,0,0,1,2.1.47,3.44,3.44,0,0,1,1.49,1.36,3.81,3.81,0,0,1,.55,2.07,5,5,0,0,1-.25,1.57,5.72,5.72,0,0,1-.51,1.17c-.18.3-.41.67-.7,1.11a24.39,24.39,0,0,1-1.68,2.22h4.09Z"/></g></g></svg>