<svg xmlns="http://www.w3.org/2000/svg" viewBox="0 0 32 32"><defs><style>.cls-1{fill:#eb6654;}.cls-2{fill:#fdeed6;}</style></defs><g id="Capa_2" data-name="Capa 2"><g id="Arte"><circle class="cls-1" cx="16" cy="16" r="16"/><path class="cls-2" d="M20.22,18.49a4.22,4.22,0,0,1-.51,2A3.65,3.65,0,0,1,18.19,22a5,5,0,0,1-2.47.57,8.24,8.24,0,0,1-2.24-.3,6.62,6.62,0,0,1-2-.91V18.67a7.64,7.64,0,0,0,1.65.89A4.85,4.85,0,0,0,15,20a1.58,1.58,0,0,0,1.31-.49,1.64,1.64,0,0,0,.37-1,1.54,1.54,0,0,0-.22-.81,1.56,1.56,0,0,0-.75-.64,3.58,3.58,0,0,0-1.44-.25,5,5,0,0,0-1.9.37V9.81H19.7v2.66H15.18v2.17l.3,0,.23,0H16a4.5,4.5,0,0,1,2.24.54,3.78,3.78,0,0,1,2,3.36Z"/></g></g></svg>