<svg xmlns="http://www.w3.org/2000/svg" viewBox="0 0 65.71 42.25"><defs><style>.cls-1{fill:#ba382b;}.cls-2{fill:#eb6654;}.cls-3{fill:#fff;}</style></defs><g id="Capa_2" data-name="Capa 2"><g id="Arte"><rect class="cls-1" y="3.06" width="65.71" height="39.19" rx="5"/><rect class="cls-2" width="65.71" height="39.19" rx="5"/><path class="cls-3" d="M18.83,10.2V29H15.39V10.2Z"/><path class="cls-3" d="M33.2,10.2V29H29.76V10.2Z"/><path class="cls-3" d="M45.88,10A5.81,5.81,0,0,1,50,11.42a4.9,4.9,0,0,1,1.6,3.79,4.49,4.49,0,0,1-2.32,4,5,5,0,0,1,2.1,1.89A5.28,5.28,0,0,1,52,23.74a5.18,5.18,0,0,1-.8,2.82,5.28,5.28,0,0,1-2.2,2,6.92,6.92,0,0,1-3.13.7,6.47,6.47,0,0,1-4.43-1.53,5,5,0,0,1-1.74-3.94,4.73,4.73,0,0,1,2.75-4.54,4.55,4.55,0,0,1-2.31-4,4.86,4.86,0,0,1,1.61-3.77A5.9,5.9,0,0,1,45.88,10ZM43.2,23.58a3.14,3.14,0,0,0,.73,2.18,2.5,2.5,0,0,0,2,.79,2.46,2.46,0,0,0,1.93-.8,3.08,3.08,0,0,0,.7-2.12,3.24,3.24,0,0,0-.72-2.16,2.39,2.39,0,0,0-1.89-.85,2.56,2.56,0,0,0-1.95.8A3.05,3.05,0,0,0,43.2,23.58Zm.39-8.32a3,3,0,0,0,.65,2,2,2,0,0,0,1.64.78,2,2,0,0,0,1.61-.8,3,3,0,0,0,.65-2,2.85,2.85,0,0,0-.62-1.93,2,2,0,0,0-1.64-.72,2.14,2.14,0,0,0-1.67.7A2.87,2.87,0,0,0,43.59,15.26Z"/></g></g></svg>