<svg xmlns="http://www.w3.org/2000/svg" viewBox="0 0 106.41 68.41"><defs><style>.cls-1{fill:#2c288c;}.cls-2{fill:#5045b3;}.cls-3{fill:#fff;}</style></defs><g id="Capa_2" data-name="Capa 2"><g id="Arte"><rect class="cls-1" y="4.95" width="106.41" height="63.46" rx="5"/><rect class="cls-2" width="106.41" height="63.46" rx="5"/><path class="cls-3" d="M30.5,16.51v30.4H24.93V16.51Z"/><path class="cls-3" d="M49.12,16.12a10.49,10.49,0,0,1,6.81,2.1,6.79,6.79,0,0,1,2.59,5.56,7.42,7.42,0,0,1-4.24,7A6.92,6.92,0,0,1,58,33.58a8.62,8.62,0,0,1,1.24,4.69,8.31,8.31,0,0,1-2.82,6.54,10.87,10.87,0,0,1-7.45,2.49,15.15,15.15,0,0,1-7-1.71V40.23A15.68,15.68,0,0,0,45.33,42a9.26,9.26,0,0,0,3.16.55A5,5,0,0,0,52,41.37a4,4,0,0,0,1.36-3.14,4.25,4.25,0,0,0-1.5-3.41,6.2,6.2,0,0,0-4.11-1.27h-.35V28.83h.26a6,6,0,0,0,3.81-1.08,3.52,3.52,0,0,0,1.37-2.9,3.57,3.57,0,0,0-1.33-2.91,5.15,5.15,0,0,0-3.39-1.1,12.44,12.44,0,0,0-5.4,1.37V17.45A15,15,0,0,1,49.12,16.12Z"/><path class="cls-3" d="M81.23,16.12V33.85h2.59v4.47H81.23v8.59H75.66V38.32H63.24V34.75L78,16.12Zm-5.7,9.23-6.72,8.5h6.85v-8.5Z"/></g></g></svg>