<svg xmlns="http://www.w3.org/2000/svg" xmlns:xlink="http://www.w3.org/1999/xlink" viewBox="0 0 505.32 191.47"><defs><style>.cls-1{fill:none;}.cls-2{clip-path:url(#clip-path);}.cls-3{fill:#a09f9f;}.cls-4{fill:#fdf6e6;}.cls-5{fill:#bfbfbf;}.cls-6{fill:#efefef;}.cls-7{fill:#e0e0e0;}.cls-8{fill:#6b6a6a;}.cls-9{fill:#606060;}</style><clipPath id="clip-path" transform="translate(5.32 -39.15)"><rect class="cls-1" width="500" height="227.47" transform="translate(500 227.47) rotate(180)"/></clipPath></defs><g id="Capa_2" data-name="Capa 2"><g id="Arte"><g class="cls-2"><path class="cls-3" d="M372.42,99.89A127.58,127.58,0,0,0,244.84,227.47H500A127.58,127.58,0,0,0,372.42,99.89Z" transform="translate(5.32 -39.15)"/><path class="cls-4" d="M442.71,170.18a57.29,57.29,0,0,0-57.3,57.29H500A57.29,57.29,0,0,0,442.71,170.18Z" transform="translate(5.32 -39.15)"/><rect class="cls-5" x="68.96" y="56.43" width="87.47" height="78.96"/><path class="cls-6" d="M285,153h-134V95.59H226.6A57.43,57.43,0,0,1,284,153Z" transform="translate(5.32 -39.15)"/><path class="cls-3" d="M170.88,113.87H299.1a69,69,0,0,1,69,69v7.8a0,0,0,0,1,0,0H170.88a0,0,0,0,1,0,0V113.87A0,0,0,0,1,170.88,113.87Z"/><path class="cls-7" d="M249.35,189.37c6.9,0,9-1.3,14.28-6.31s9.79-2.15,12,.07c2.43,2.43,4.86,6.42,11.75,6.46s9-1.3,14.28-6.31,9.79-2.15,12,.07c2.43,2.43,4.86,6.42,11.76,6.46h-.53c6.9,0,9-1.3,14.28-6.31s9.79-2.15,12,.07C353.66,186,356.08,190,363,190s9-1.3,14.28-6.31,9.79-2.15,12,.07l.52.55a41.23,41.23,0,0,1,10.77,28.2l-.13,17.8H237.07l.28-41.09Z" transform="translate(5.32 -39.15)"/><path class="cls-6" d="M-5.26,188.56l99.5-2.08V109.17A28.86,28.86,0,0,0,65.38,80.31H-5.26Z" transform="translate(5.32 -39.15)"/><path class="cls-8" d="M96.24,120.78H93.89v-5.35A15.43,15.43,0,0,0,78.48,100H65.88a10.08,10.08,0,0,1-1.09-20.1V62.59h2.35V82.2H66a7.74,7.74,0,0,0,0,15.47H78.48a17.78,17.78,0,0,1,17.76,17.76Z" transform="translate(5.32 -39.15)"/><path class="cls-7" d="M83.71,84.81a20.21,20.21,0,0,1,14.69-3.6L75.63,97.59A20.22,20.22,0,0,1,83.71,84.81Z" transform="translate(5.32 -39.15)"/><path class="cls-3" d="M65,44.66a2.76,2.76,0,1,1,2.75-2.76A2.76,2.76,0,0,1,65,44.66Z" transform="translate(5.32 -39.15)"/><circle class="cls-3" cx="60.8" cy="5.77" r="2.75"/><circle class="cls-3" cx="78.42" cy="5.77" r="2.75"/><path class="cls-8" d="M32.35,51.48a36.79,36.79,0,0,0,33,20.57l-.18-20.57Z" transform="translate(5.32 -39.15)"/><path class="cls-7" d="M65.37,72.05a36.79,36.79,0,0,0,33-20.57H65.19Z" transform="translate(5.32 -39.15)"/><path class="cls-3" d="M262.34,122.11H248a6.06,6.06,0,0,1-5.92-4.72l-2.83-12.76a3.91,3.91,0,0,0-3.83-3H171.29a3.9,3.9,0,0,0-3.82,3l-4,17.51h-.08V140a5,5,0,0,0,5,4.93h94.26a3.7,3.7,0,0,0,3.71-3.68V126A4,4,0,0,0,262.34,122.11Z" transform="translate(5.32 -39.15)"/><ellipse class="cls-8" cx="186.71" cy="104.03" rx="9.9" ry="9.83"/><path class="cls-4" d="M174.38,143.19a7,7,0,1,0,7-6.95A7,7,0,0,0,174.38,143.19Z" transform="translate(5.32 -39.15)"/><ellipse class="cls-8" cx="253.75" cy="104.03" rx="9.9" ry="9.83"/><path class="cls-4" d="M241.42,143.19a7,7,0,1,0,7-6.95A7,7,0,0,0,241.42,143.19Z" transform="translate(5.32 -39.15)"/><path class="cls-5" d="M171.38,121.63a3.49,3.49,0,0,1-2.67-1.24,3.42,3.42,0,0,1-.76-2.81l2-11a3.47,3.47,0,0,1,3.43-2.86H189a3.47,3.47,0,0,1,3.48,3.46v11a3.47,3.47,0,0,1-3.48,3.46Z" transform="translate(5.32 -39.15)"/><path class="cls-5" d="M223.26,121.63a3.48,3.48,0,0,1-3.48-3.46v-11a3.48,3.48,0,0,1,3.48-3.46h10.38a3.47,3.47,0,0,1,3.42,2.86l2,11a3.42,3.42,0,0,1-.76,2.81,3.48,3.48,0,0,1-2.67,1.24Z" transform="translate(5.32 -39.15)"/><rect class="cls-5" x="196.83" y="101.38" width="17.95" height="22.54" rx="2.22" transform="translate(323.78 -132.31) rotate(90)"/><rect class="cls-4" x="164.1" y="96.98" width="9.18" height="6.23" rx="1.85"/><path class="cls-6" d="M227.2,127.52h-4.78a.5.5,0,0,1-.5-.5h0a.5.5,0,0,1,.5-.5h4.78a.5.5,0,0,1,.5.5h0A.5.5,0,0,1,227.2,127.52Z" transform="translate(5.32 -39.15)"/><path class="cls-6" d="M200.42,127.52h-4.77a.5.5,0,0,1-.5-.5h0a.5.5,0,0,1,.5-.5h4.77a.5.5,0,0,1,.5.5h0A.5.5,0,0,1,200.42,127.52Z" transform="translate(5.32 -39.15)"/><rect class="cls-4" x="267.2" y="96.98" width="9.18" height="6.23" rx="1.85"/><rect class="cls-5" x="270.84" y="88.37" width="1.75" height="8.71"/><path class="cls-7" d="M16.53,230.16H255a91.44,91.44,0,0,0-91.45-91.44H84.3l-.94,91.63" transform="translate(5.32 -39.15)"/><path class="cls-4" d="M161.22,155H135.93s.19-3.06,4.87-3.06a6,6,0,0,1,6-3.81,7.3,7.3,0,0,1,5.44,1.87S161.22,148.92,161.22,155Z" transform="translate(5.32 -39.15)"/><path class="cls-3" d="M141.23,184.84c-.71-.35-146.49,0-146.49,0v45.51l192.47-.19Z" transform="translate(5.32 -39.15)"/><path class="cls-4" d="M195.68,157.22H164.59l-9.89,17.33H114l-9.51,11h95.39l1.55,44.84V160A3.53,3.53,0,0,0,195.68,157.22Z" transform="translate(5.32 -39.15)"/><path class="cls-6" d="M113.21,101.39v18.27H130a39.32,39.32,0,0,1,8.18.87,38.75,38.75,0,0,1,12.94,5.37l.12.07v-7.19a17.38,17.38,0,0,0-17.38-17.39Z" transform="translate(5.32 -39.15)"/><path class="cls-3" d="M113.21,110.52v9.14H130a38.81,38.81,0,0,1,21.12,6.24,17.38,17.38,0,0,0-17.26-15.38Z" transform="translate(5.32 -39.15)"/><path class="cls-9" d="M113.21,101.39h0A18.56,18.56,0,0,0,94.65,120v1.45h0a15,15,0,0,0-15,15v20.21h9.69a23.9,23.9,0,0,0,23.9-23.89Z" transform="translate(5.32 -39.15)"/><path class="cls-3" d="M113.21,104.91v14.75c-5.41,0-9.79-3.3-9.79-7.38S107.8,104.91,113.21,104.91Z" transform="translate(5.32 -39.15)"/><path class="cls-9" d="M138.16,120.53a38.75,38.75,0,0,1,12.94,5.37l.12.07v-7.19a17.39,17.39,0,0,0-2.06-8.22c-2.48-1.63-5.12-2.12-7.31-1.11C138.54,111,137.2,115.48,138.16,120.53Z" transform="translate(5.32 -39.15)"/><path class="cls-4" d="M76.41,154.62h0a18.23,18.23,0,0,0,18.23-18.23v-16.9h0a18.23,18.23,0,0,0-18.23,18.23Z" transform="translate(5.32 -39.15)"/><path class="cls-3" d="M50.91,98.46v50.93H76.35V101.27L62.93,87.44S50.91,98.57,50.91,98.46Z" transform="translate(5.32 -39.15)"/><path class="cls-7" d="M46.75,138.72h0L56.07,148l20.28,0v9l-81.67,0S40.68,144.8,46.75,138.72Z" transform="translate(5.32 -39.15)"/><rect class="cls-8" x="35.38" y="75.84" width="3.41" height="6.52"/><rect class="cls-8" x="45.43" y="75.84" width="3.41" height="6.52"/><polygon class="cls-7" points="56.22 61.37 29.05 61.37 41.97 48.2 68.27 48.2 56.22 61.37"/><path class="cls-4" d="M29.32,110.84H64.1s-.26-4.21-6.7-4.21c0,0-1.63-5.24-8.24-5.24A10,10,0,0,0,41.68,104S29.32,102.49,29.32,110.84Z" transform="translate(5.32 -39.15)"/><path class="cls-6" d="M151.28,138.75a10,10,0,0,0-15.33-.07h0a10,10,0,0,0-15.33.07H130.7c1.37,2.19,3.21,3.55,5.25,3.55s3.87-1.36,5.25-3.55Z" transform="translate(5.32 -39.15)"/><path class="cls-4" d="M209.13,183a23,23,0,0,1,16.7-4.1l-25.9,18.63A23,23,0,0,1,209.13,183Z" transform="translate(5.32 -39.15)"/><path class="cls-4" d="M210,199.27a23,23,0,0,1,16.71-4.1L200.82,213.8A23,23,0,0,1,210,199.27Z" transform="translate(5.32 -39.15)"/><path class="cls-8" d="M191.57,183.94a23,23,0,0,0-16.71-4.1l25.91,18.63A23,23,0,0,0,191.57,183.94Z" transform="translate(5.32 -39.15)"/><path class="cls-8" d="M191.57,200.25a23,23,0,0,0-16.71-4.09l25.91,18.63A23,23,0,0,0,191.57,200.25Z" transform="translate(5.32 -39.15)"/><rect class="cls-4" x="204.26" y="130.75" width="2.74" height="60.26"/><path class="cls-4" d="M199.48,164.24s-15.43.9-18.83-2.13-2.7-17.18-2.7-17.18,17.57-3.63,21.38-.22S199.48,164.24,199.48,164.24Z" transform="translate(5.32 -39.15)"/><path class="cls-4" d="M199.48,164.24s15.55.58,18.88-2.52,2.35-17.23,2.35-17.23-17.64-3.27-21.38.22S199.48,164.24,199.48,164.24Z" transform="translate(5.32 -39.15)"/><path class="cls-3" d="M210.26,163.65a10.84,10.84,0,1,1-21.67,0" transform="translate(5.32 -39.15)"/><path class="cls-4" d="M38.38,136.8H-5.32s.32-5.29,8.41-5.29c0,0,2.05-6.58,10.36-6.58,3.9,0,6.37.65,9.39,3.24C22.84,128.17,38.38,126.31,38.38,136.8Z" transform="translate(5.32 -39.15)"/><path class="cls-8" d="M107.26,183.16l-1,39.28a1.68,1.68,0,0,0,.6,1.32l3.13,2.58a1.63,1.63,0,0,0,1,.38h3.21a1.65,1.65,0,0,1,1.65,1.65v.6a1.65,1.65,0,0,1-1.65,1.65H103.84a1.65,1.65,0,0,1-1.17-.48l-9.81-9.82a1.51,1.51,0,0,1-.36-.54l-3-7.38a1.77,1.77,0,0,1-.12-.64c0-2.42.1-17.45,0-17.45s10.13-8.33,15.21-12.47A1.65,1.65,0,0,1,107.26,183.16Z" transform="translate(5.32 -39.15)"/><path class="cls-8" d="M37.77,212.64l1.74,16.23a1.64,1.64,0,0,0,1.64,1.48h14.2A1.65,1.65,0,0,0,57,228.7v-.59c0-.91-.74-1.38-1.65-1.38H53.28a1.66,1.66,0,0,1-1.64-1.82l1.87-18.55a1.65,1.65,0,0,0-2.38-1.64L38.67,211A1.65,1.65,0,0,0,37.77,212.64Z" transform="translate(5.32 -39.15)"/><path class="cls-5" d="M96,229a1.66,1.66,0,0,1-1.65,1.64H84.48a1.62,1.62,0,0,1-1.25-.57l-3.63-4.21a1.67,1.67,0,0,1-.4-1.13l.8-24.41a1.66,1.66,0,0,0-2.09-1.65l-24.19,6.62-.2.07-.17.08L38,214l-3.43,1.93-10.93,6.22a1.69,1.69,0,0,0-.77.95l-1.27,1.22a1.65,1.65,0,0,0,1.58,2.14h1.36a1.65,1.65,0,0,1,1.65,1.65v.59a1.65,1.65,0,0,1-1.65,1.65h-8A1.65,1.65,0,0,1,15,229.27L9.89,218.38a1.66,1.66,0,0,1,.08-1.33l9.83-19a1.77,1.77,0,0,0,.15-.42l4.71-22.07a27.1,27.1,0,0,1,27.08-26.2c.43,0,.85,0,1.27,0,.71,0,1.41.09,2.11.18l.08-.17h0a30.09,30.09,0,0,1,3,.3h0l.44.07L78.37,153c3.06.47,40.82.93,47.07,7.82.15.16.32.31.48.47a2.73,2.73,0,0,0,.23.25h0c.21.25.41.5.61.76h0l3.06,3.79a.83.83,0,0,1,.18.43l.18,1.58a1.87,1.87,0,0,0,.65,1.23l5.76,5,1.36,1.18a.83.83,0,0,1,.21,1l-.91,2.05-.54,1.22a.87.87,0,0,1-.64.49s-27.84,4-28,4.64c0,0-5.54,17.34-5.67,17.5L91.76,216.48,88,221.87a1.64,1.64,0,0,0,.18,2.12l2.25,2.25a1.65,1.65,0,0,0,1.17.48h2.78A1.65,1.65,0,0,1,96,228.38V229" transform="translate(5.32 -39.15)"/><path class="cls-3" d="M138.16,176.47l-.91,2.05-.9-1a1.8,1.8,0,0,1-.3-1.81c.17-.41.36-.89.54-1.34l1.36,1.18A.83.83,0,0,1,138.16,176.47Z" transform="translate(5.32 -39.15)"/><path class="cls-4" d="M114.82,164.12a1.14,1.14,0,0,1-1.62,0l-.47-.47h0c-1.65-1.65-2-3.92-.89-5.08s3.43-.76,5.08.89l.47.48a1.13,1.13,0,0,1,0,1.61Z" transform="translate(5.32 -39.15)"/><path class="cls-6" d="M257.59,172.79a.28.28,0,0,1-.28-.27L257,162l-2.38-2.05a.28.28,0,1,1,.36-.42l2.57,2.2.32,10.82a.28.28,0,0,1-.27.28Z" transform="translate(5.32 -39.15)"/><path class="cls-6" d="M259.3,172.81a.29.29,0,0,1-.29-.27l-.32-10.83,3.09-2.44a.28.28,0,1,1,.34.44L259.26,162l.31,10.55a.29.29,0,0,1-.27.29Z" transform="translate(5.32 -39.15)"/><path class="cls-6" d="M258.53,181.83s.42-1,.91-2.43l-1.86,0C258.11,180.9,258.53,181.83,258.53,181.83Z" transform="translate(5.32 -39.15)"/><path class="cls-6" d="M260.36,176.5l-3.78.05c.16.59.33,1.15.5,1.67l2.83,0Q260.15,177.39,260.36,176.5Z" transform="translate(5.32 -39.15)"/><path class="cls-6" d="M260.79,175a71.47,71.47,0,0,0,.58-11.26l-6.45-.05A61,61,0,0,0,256.06,175l.15.67,4.47-.06C260.72,175.36,260.76,175.16,260.79,175Z" transform="translate(5.32 -39.15)"/><path class="cls-8" d="M242.32,169.27l15.86.12s-3.85-5.55-7.75-5.58S242.37,169.32,242.32,169.27Z" transform="translate(5.32 -39.15)"/><path class="cls-7" d="M258.18,169.39l-15.86-.12s3.85,5.55,7.75,5.58S258.13,169.34,258.18,169.39Z" transform="translate(5.32 -39.15)"/><path class="cls-8" d="M258.12,169.12l15.86.12s-3.85-5.55-7.74-5.58S258.17,169.17,258.12,169.12Z" transform="translate(5.32 -39.15)"/><path class="cls-7" d="M274,169.25l-15.87-.13s3.85,5.56,7.75,5.59S273.93,169.19,274,169.25Z" transform="translate(5.32 -39.15)"/><path class="cls-6" d="M289.39,172.79a.27.27,0,0,1-.28-.27L288.8,162l-2.38-2.05a.28.28,0,0,1,.36-.42l2.57,2.2.32,10.82a.28.28,0,0,1-.27.28Z" transform="translate(5.32 -39.15)"/><path class="cls-6" d="M291.09,172.81a.28.28,0,0,1-.28-.27l-.32-10.83,3.09-2.44a.28.28,0,1,1,.34.44L291.06,162l.31,10.55a.29.29,0,0,1-.27.29Z" transform="translate(5.32 -39.15)"/><path class="cls-6" d="M290.33,181.83s.42-1,.91-2.43l-1.86,0C289.91,180.9,290.33,181.83,290.33,181.83Z" transform="translate(5.32 -39.15)"/><path class="cls-6" d="M292.15,176.5l-3.77.05c.16.59.33,1.15.5,1.67l2.83,0C291.86,177.65,292,177.09,292.15,176.5Z" transform="translate(5.32 -39.15)"/><path class="cls-6" d="M292.59,175a71.47,71.47,0,0,0,.58-11.26l-6.45-.05A61,61,0,0,0,287.86,175l.15.67,4.47-.06C292.52,175.36,292.56,175.16,292.59,175Z" transform="translate(5.32 -39.15)"/><path class="cls-8" d="M274.11,169.27l15.87.12s-3.85-5.55-7.75-5.58S274.17,169.32,274.11,169.27Z" transform="translate(5.32 -39.15)"/><path class="cls-7" d="M290,169.39l-15.86-.12s3.85,5.55,7.75,5.58S289.93,169.34,290,169.39Z" transform="translate(5.32 -39.15)"/><path class="cls-8" d="M289.92,169.12l15.86.12s-3.85-5.55-7.75-5.58S290,169.17,289.92,169.12Z" transform="translate(5.32 -39.15)"/><path class="cls-7" d="M305.78,169.25l-15.86-.13s3.85,5.56,7.75,5.59S305.73,169.19,305.78,169.25Z" transform="translate(5.32 -39.15)"/><path class="cls-6" d="M320.81,172.79a.28.28,0,0,1-.29-.27L320.21,162l-2.38-2.05a.28.28,0,1,1,.36-.42l2.57,2.2.32,10.82a.28.28,0,0,1-.27.28Z" transform="translate(5.32 -39.15)"/><path class="cls-6" d="M322.51,172.81a.29.29,0,0,1-.29-.27l-.31-10.83,3.08-2.44a.28.28,0,0,1,.39,0,.27.27,0,0,1-.05.39L322.47,162l.31,10.55a.29.29,0,0,1-.27.29Z" transform="translate(5.32 -39.15)"/><path class="cls-6" d="M321.74,181.83s.42-1,.91-2.43l-1.86,0C321.32,180.9,321.74,181.83,321.74,181.83Z" transform="translate(5.32 -39.15)"/><path class="cls-6" d="M323.57,176.5l-3.78.05c.17.59.33,1.15.5,1.67l2.83,0Q323.36,177.39,323.57,176.5Z" transform="translate(5.32 -39.15)"/><path class="cls-6" d="M324,175a71.47,71.47,0,0,0,.58-11.26l-6.44-.05A60,60,0,0,0,319.27,175l.15.67,4.47-.06C323.93,175.36,324,175.16,324,175Z" transform="translate(5.32 -39.15)"/><path class="cls-8" d="M305.53,169.27l15.86.12s-3.85-5.55-7.75-5.58S305.58,169.32,305.53,169.27Z" transform="translate(5.32 -39.15)"/><path class="cls-7" d="M321.39,169.39l-15.86-.12s3.85,5.55,7.75,5.58S321.34,169.34,321.39,169.39Z" transform="translate(5.32 -39.15)"/><path class="cls-8" d="M321.33,169.12l15.86.12s-3.85-5.55-7.74-5.58S321.38,169.17,321.33,169.12Z" transform="translate(5.32 -39.15)"/><path class="cls-7" d="M337.2,169.25l-15.87-.13s3.85,5.56,7.75,5.59S337.14,169.19,337.2,169.25Z" transform="translate(5.32 -39.15)"/><polygon class="cls-6" points="71.91 151.57 74.41 158.59 81.13 155.39 77.93 162.11 84.95 164.61 77.93 167.1 81.13 173.83 74.41 170.63 71.91 177.65 69.42 170.63 62.69 173.83 65.89 167.1 58.87 164.61 65.89 162.11 62.69 155.39 69.42 158.59 71.91 151.57"/><polygon class="cls-6" points="74.54 191.2 69.28 191.2 69.28 169.94 74.54 170.21 74.54 191.2"/><path class="cls-8" d="M132.21,220.13a10.11,10.11,0,0,1,10.11,10.1H122.11A10.1,10.1,0,0,1,132.21,220.13Z" transform="translate(5.32 -39.15)"/><path class="cls-8" d="M156.55,220.13a10.1,10.1,0,0,1,10.1,10.1H146.44A10.11,10.11,0,0,1,156.55,220.13Z" transform="translate(5.32 -39.15)"/><path class="cls-8" d="M180.88,220.13A10.11,10.11,0,0,1,191,230.23H170.78A10.1,10.1,0,0,1,180.88,220.13Z" transform="translate(5.32 -39.15)"/><path class="cls-8" d="M132.21,220.13a10.11,10.11,0,0,1,10.11,10.1H122.11A10.1,10.1,0,0,1,132.21,220.13Z" transform="translate(5.32 -39.15)"/><path class="cls-8" d="M156.55,220.13a10.1,10.1,0,0,1,10.1,10.1H146.44A10.11,10.11,0,0,1,156.55,220.13Z" transform="translate(5.32 -39.15)"/><path class="cls-8" d="M180.88,220.13A10.11,10.11,0,0,1,191,230.23H170.78A10.1,10.1,0,0,1,180.88,220.13Z" transform="translate(5.32 -39.15)"/><path class="cls-6" d="M126.15,171.67a.64.64,0,0,1-.35-.1L123.1,170a.71.71,0,0,1-.35-.65.67.67,0,0,1,.42-.6l3.71-1.66a.7.7,0,0,1,.93.36.71.71,0,0,1-.35.93L125,169.48l1.51.87a.71.71,0,0,1-.36,1.32Z" transform="translate(5.32 -39.15)"/><path class="cls-8" d="M379.2,206.68s-32.16-29.36-113.32-7l-21-13.71,2.3,17.06-6.51,9,18-4.76S323.31,238.55,379.2,206.68Z" transform="translate(5.32 -39.15)"/><path class="cls-5" d="M379.2,206.68c-56,33.27-120.59.55-120.59.55,38.27,5.41,78.08,5.94,100.48,4.07C374.37,210,379.2,206.68,379.2,206.68Z" transform="translate(5.32 -39.15)"/><polygon class="cls-8" points="331.98 152.19 314.98 136.95 308.9 153.16 331.98 152.19"/><polygon class="cls-8" points="299.7 154.36 286.77 146.82 283.24 157.5 299.7 154.36"/><polygon class="cls-8" points="329.29 169.44 306.52 170.79 297.5 191.46 329.29 169.44"/></g></g></g></svg>