<svg xmlns="http://www.w3.org/2000/svg" xmlns:xlink="http://www.w3.org/1999/xlink" viewBox="0 0 660.04 500"><defs><style>.cls-1{fill:none;}.cls-2{fill:#fff;}.cls-3{fill:#face33;}.cls-4{font-size:18px;fill:#0069b3;letter-spacing:-0.01em;}.cls-11,.cls-4{font-family:GillSans, Gill Sans;}.cls-5{letter-spacing:-0.02em;}.cls-6{letter-spacing:-0.03em;}.cls-7{letter-spacing:-0.01em;}.cls-8{letter-spacing:-0.02em;}.cls-9{letter-spacing:-0.03em;}.cls-10{letter-spacing:0.01em;}.cls-11{font-size:16px;opacity:0.6;}.cls-12{letter-spacing:-0.02em;}.cls-13{letter-spacing:-0.1em;}.cls-14{fill:#57576b;}.cls-15{clip-path:url(#clip-path);}.cls-16{fill:#038d71;}.cls-17{fill:#f4a833;}.cls-18{fill:#3595e0;}.cls-19{fill:#043040;}.cls-20,.cls-25{fill:#f6f6d4;}.cls-21{fill:#0e243f;}.cls-22{clip-path:url(#clip-path-2);}.cls-23{clip-path:url(#clip-path-3);}.cls-24{clip-path:url(#clip-path-4);}.cls-25,.cls-26{fill-rule:evenodd;}.cls-26{fill:#003a30;}.cls-27{fill:#16253e;}.cls-28{clip-path:url(#clip-path-5);}.cls-29{clip-path:url(#clip-path-6);}.cls-30{fill:#153140;}</style><clipPath id="clip-path"><path class="cls-1" d="M436.05,268.26h-3.76l7.48-6.35q11.94-10.17,16.4-18.74c.2-.38.4-.78.6-1.18a42.82,42.82,0,0,0,4-18.88,31.15,31.15,0,0,0-3.34-14.61,30.1,30.1,0,0,0-8.6-10,43.29,43.29,0,0,0-27-9.15q-17.42,0-28.78,7.67v31.14q12.66-10,25.47-10a13.27,13.27,0,0,1,8.34,2.44,7.85,7.85,0,0,1,3.17,6.56,17.25,17.25,0,0,1-3.46,9.74,40.7,40.7,0,0,1-4.25,5.16q-3.18,3.38-8.12,7.82l-14.61,13L389.27,272v22.72h74.52V268.26Z"/></clipPath><clipPath id="clip-path-2"><path class="cls-1" d="M270.89,255c-.87-8.7,3.35-38.74,3.35-38.74l-10.06-24.17H205l-2.91,26-3.86,34.43a77.65,77.65,0,0,1,24.72-4q8,0,12.22,2.79a9.36,9.36,0,0,1,3.33,3.61,9.25,9.25,0,0,1,.93,4.19q0,5.79-4.64,8.41-3.87,2.19-10.95,2.19-14.58,0-28.4-9v29q13.1,7.36,30.31,7.36,22.54,0,34.75-11.95a38.16,38.16,0,0,0,4-4.53q6.61-8.84,6.62-21.49C271.09,257.74,271,256.35,270.89,255Z"/></clipPath><clipPath id="clip-path-3"><polygon class="cls-1" points="304.24 65.1 254.12 92.64 259.83 120.61 282.83 130.81 309.2 120 309.2 146.75 309.2 179.1 309.2 210.29 349.03 210.29 349.03 196.54 349.03 146.75 349.03 100.85 349.03 77.5 304.24 65.1"/></clipPath><clipPath id="clip-path-4"><polygon class="cls-1" points="313.94 77.5 282.83 92.3 282.83 100.85 282.83 130.81 309.2 120 309.2 146.75 309.2 179.1 309.2 210.29 349.03 210.29 349.03 196.54 349.03 146.75 349.03 100.85 349.03 77.5 313.94 77.5"/></clipPath><clipPath id="clip-path-5"><path class="cls-1" d="M393,428.29q-18.92,0-32.94-8.41V391.29q16.25,9.58,29.84,9.58,7.1,0,11.3-2.8a8.74,8.74,0,0,0,4.21-7.67A8.94,8.94,0,0,0,401.9,383q-3.54-2.79-9.89-2.8a39.63,39.63,0,0,0-17.29,3.54v-19l20.39-15.33H362.46V323H432v23.59l-17.88,14.44q23.05,8.85,23,30.22,0,16.8-12.85,27T393,428.29Z"/></clipPath><clipPath id="clip-path-6"><path class="cls-1" d="M300.33,381V323.75h-32l-13.6,16.71-25.09,30.8-.18.22L220.13,383v22.46h49.6v23.82h30.6V405.46h13.72V381ZM251,381l8.12-9.56h0L269.73,359v22H251Z"/></clipPath></defs><g id="Capa_2" data-name="Capa 2"><g id="Arte"><rect class="cls-2" width="660.04" height="500" rx="5"/><circle class="cls-3" cx="330.02" cy="273.35" r="54.98" transform="translate(25.48 574.83) rotate(-84.35)"/><text class="cls-4" transform="translate(134.05 341.66)">Desa<tspan class="cls-5" x="36.3" y="0">r</tspan><tspan class="cls-6" x="43.14" y="0">r</tspan><tspan class="cls-7" x="49.71" y="0">ollo</tspan><tspan x="-39.57" y="17">de he</tspan><tspan class="cls-5" x="0.31" y="17">r</tspan><tspan class="cls-7" x="7.15" y="17">ramientas</tspan></text><text class="cls-4" transform="translate(481.09 198.8)">Disposición<tspan x="0" y="17">de in</tspan><tspan class="cls-5" x="35.21" y="17">f</tspan><tspan class="cls-7" x="39.42" y="17">ormación</tspan></text><text class="cls-4" transform="translate(456.09 332.26)">I<tspan class="cls-8" x="4.39" y="0">n</tspan><tspan class="cls-9" x="13.01" y="0">v</tspan><tspan class="cls-7" x="20.43" y="0">estigación</tspan><tspan x="0" y="17">de lineamientos</tspan></text><text class="cls-4" transform="translate(363.1 88.64)">Asesoría de entes<tspan x="0" y="17">te</tspan><tspan class="cls-5" x="14.4" y="17">r</tspan><tspan class="cls-7" x="21.24" y="17">ritoriales</tspan></text><text class="cls-4" transform="translate(85.31 204.51)">Pa<tspan class="cls-10" x="16.64" y="0">r</tspan><tspan class="cls-7" x="24.02" y="0">ticipación</tspan><tspan x="-1.25" y="17">en cot y c</tspan><tspan class="cls-6" x="69.87" y="17">r</tspan><tspan class="cls-7" x="76.45" y="17">ot</tspan></text><text class="cls-11" transform="translate(363.1 126.34)">Lo<tspan class="cls-12" x="16.67" y="0">r</tspan><tspan x="22.69" y="0">em ipsum dolor sit </tspan><tspan x="0" y="18">amet</tspan><tspan class="cls-13" x="32.16" y="18">,</tspan><tspan x="34.06" y="18" xml:space="preserve"> consectetuer</tspan></text><text class="cls-11" transform="translate(32.9 244.13)">Lo<tspan class="cls-12" x="16.67" y="0">r</tspan><tspan x="22.69" y="0">em ipsum dolor sit </tspan><tspan x="21.18" y="18">amet</tspan><tspan class="cls-13" x="53.34" y="18">,</tspan><tspan x="55.24" y="18" xml:space="preserve"> consectetuer</tspan></text><text class="cls-11" transform="translate(67.77 378.17)">Lo<tspan class="cls-12" x="16.67" y="0">r</tspan><tspan x="22.69" y="0">em ipsum dolor sit </tspan><tspan x="21.18" y="18">amet</tspan><tspan class="cls-13" x="53.34" y="18">,</tspan><tspan x="55.24" y="18" xml:space="preserve"> consectetuer</tspan></text><text class="cls-11" transform="translate(458.97 370.65)">Lo<tspan class="cls-12" x="16.67" y="0">r</tspan><tspan x="22.69" y="0">em ipsum dolor sit </tspan><tspan x="0" y="18">amet</tspan><tspan class="cls-13" x="32.16" y="18">,</tspan><tspan x="34.06" y="18" xml:space="preserve"> consectetuer</tspan></text><text class="cls-11" transform="translate(481.09 235.89)">Lo<tspan class="cls-12" x="16.67" y="0">r</tspan><tspan x="22.69" y="0">em ipsum dolor sit </tspan><tspan x="0" y="18">amet</tspan><tspan class="cls-13" x="32.16" y="18">,</tspan><tspan x="34.06" y="18" xml:space="preserve"> consectetuer</tspan></text><path class="cls-14" d="M414,280.87a1.57,1.57,0,1,1-1.56-1.56A1.56,1.56,0,0,1,414,280.87Z"/><path class="cls-14" d="M435.4,280.17a1.57,1.57,0,1,1-1.56-1.56A1.56,1.56,0,0,1,435.4,280.17Z"/><g class="cls-15"><path class="cls-16" d="M432.29,268.2l7.48-6.35q11.94-10.17,16.4-18.73l.6-1.18H422.28q-3.18,3.38-8.12,7.82l-14.61,13c9.51,5.08,19.48,14.5,22,31.86h14.51V268.2Z"/><path class="cls-17" d="M448.83,198.41a43.29,43.29,0,0,0-27-9.15q-17.42,0-28.78,7.68v11.5h64.42A30.2,30.2,0,0,0,448.83,198.41Z"/><path class="cls-3" d="M460.77,223.05a31.15,31.15,0,0,0-3.34-14.61H393v19.63q12.66-10,25.47-10a13.33,13.33,0,0,1,8.34,2.44A7.85,7.85,0,0,1,430,227a17.25,17.25,0,0,1-3.46,9.74,41.4,41.4,0,0,1-4.25,5.17h34.49A42.89,42.89,0,0,0,460.77,223.05Z"/><path class="cls-18" d="M399.55,262.75l-10.28,9.14v22.72h32.27C419,277.25,409.06,267.83,399.55,262.75Z"/><rect class="cls-17" x="399.81" y="251.49" width="66.09" height="38.02"/><polygon class="cls-19" points="399.81 289.51 392.66 292.62 473.06 292.62 465.9 289.51 399.81 289.51"/><rect class="cls-17" x="392.66" y="292.61" width="80.4" height="2.38"/><rect class="cls-2" x="403.95" y="255.67" width="57.92" height="30.51"/><polygon class="cls-14" points="436.78 279.35 428.44 262.75 415.29 280.17 415.82 280.57 428.32 263.99 436.69 280.63 450.82 260.44 450.29 260.07 436.78 279.35"/><path class="cls-14" d="M429.91,263.43a1.57,1.57,0,1,1-1.56-1.56A1.56,1.56,0,0,1,429.91,263.43Z"/></g><path class="cls-14" d="M438.23,280.87a1.57,1.57,0,1,1-1.57-1.56A1.57,1.57,0,0,1,438.23,280.87Z"/><path class="cls-14" d="M415.37,278.61a1.56,1.56,0,1,1-1.56,1.56,1.56,1.56,0,0,1,1.56-1.56"/><path class="cls-18" d="M466.7,189H429.26a2.17,2.17,0,0,0-2.17,2.16v18.14a2.17,2.17,0,0,0,2.17,2.17h3.19l-1.46,4,5.74-4h30a2.17,2.17,0,0,0,2.17-2.17V191.12A2.17,2.17,0,0,0,466.7,189"/><path class="cls-20" d="M464.67,203.81H429.83a.44.44,0,0,1-.44-.44.44.44,0,0,1,.44-.43h34.84a.44.44,0,0,1,.44.43.44.44,0,0,1-.44.44"/><path class="cls-20" d="M452.47,193.89H429.83a.44.44,0,1,1,0-.87h22.64a.44.44,0,0,1,0,.87"/><path class="cls-20" d="M439.62,208.77h-9.79a.44.44,0,1,1,0-.88h9.79a.44.44,0,0,1,0,.88"/><path class="cls-20" d="M464.67,208.77h-22a.44.44,0,1,1,0-.88h22a.44.44,0,1,1,0,.88"/><path class="cls-20" d="M464.93,193.89h-9a.44.44,0,1,1,0-.87h9a.44.44,0,0,1,0,.87"/><path class="cls-20" d="M444.06,198.85H429.83a.44.44,0,1,1,0-.87h14.23a.44.44,0,1,1,0,.87"/><path class="cls-20" d="M464.93,198.85H447.25a.44.44,0,1,1,0-.87h17.68a.44.44,0,0,1,0,.87"/><path class="cls-16" d="M239.46,259.15q0,5.78-4.64,8.41a92.9,92.9,0,0,1,25.71,17.61,37.49,37.49,0,0,0,4-4.54q6.61-8.82,6.62-21.48a40.67,40.67,0,0,0-.21-4.19H238.53A9.22,9.22,0,0,1,239.46,259.15Z"/><polygon class="cls-18" points="205.03 192.05 202.11 218.09 264.18 218.09 264.18 192.05 205.03 192.05"/><path class="cls-17" d="M202.11,218.09l-3.85,34.44a77.57,77.57,0,0,1,24.72-4q8,0,12.21,2.8a9.32,9.32,0,0,1,3.34,3.61h32.36q-1.31-13.05-11-20.83-10.89-9-29-9l-3.24.15.59-7.22"/><path class="cls-21" d="M223.86,269.74q-14.56,0-28.4-9v29q13.1,7.35,30.32,7.35,22.54,0,34.75-11.94a92.9,92.9,0,0,0-25.71-17.61Q231,269.74,223.86,269.74Z"/><path class="cls-2" d="M232.3,286.5H195.36a5.73,5.73,0,0,1-5.73-5.73h0a5.73,5.73,0,0,1,5.73-5.73H232.3a5.73,5.73,0,0,1,5.73,5.73h0A5.73,5.73,0,0,1,232.3,286.5Z"/><path class="cls-3" d="M238.11,280.77h0a5.73,5.73,0,0,0-5.73-5.73H222.8V286.5h9.58A5.73,5.73,0,0,0,238.11,280.77Z"/><path class="cls-21" d="M229.84,282.36a2.18,2.18,0,1,1,2.18-2.18,2.13,2.13,0,0,1-.64,1.54,2.17,2.17,0,0,1-1.54.64m0-3.81a1.63,1.63,0,1,0,0,3.26,1.59,1.59,0,0,0,1.15-.48,1.63,1.63,0,0,0-1.15-2.78"/><path class="cls-21" d="M232.91,283.54a.32.32,0,0,1-.2-.08L231,281.73a.29.29,0,0,1,0-.39.27.27,0,0,1,.39,0l1.73,1.73a.28.28,0,0,1-.19.47"/><g class="cls-22"><path class="cls-3" d="M264.75,208.39H235.31a2.4,2.4,0,0,0-2.55,2.2v44.12a2.39,2.39,0,0,0,2.55,2.2h29.44a2.39,2.39,0,0,0,2.56-2.2V210.59a2.4,2.4,0,0,0-2.56-2.2"/><rect class="cls-2" x="235.35" y="213.78" width="29.37" height="38.12"/><path class="cls-19" d="M254,210.36h-8a.88.88,0,1,0,0,1.73h8a.88.88,0,1,0,0-1.73"/><path class="cls-19" d="M250,252.65a1.7,1.7,0,1,0,1.66,1.71,1.68,1.68,0,0,0-1.66-1.71"/><rect class="cls-19" x="238.21" y="219.88" width="2.67" height="26.37"/><rect class="cls-19" x="242.32" y="223.52" width="2.67" height="22.72"/><rect class="cls-19" x="246.58" y="223.52" width="2.67" height="22.72"/><rect class="cls-19" x="250.82" y="227.36" width="2.67" height="18.89"/><rect class="cls-19" x="255.08" y="230.03" width="2.67" height="16.21"/><rect class="cls-19" x="259.15" y="235.48" width="2.67" height="10.79"/></g><g class="cls-23"><polygon class="cls-17" points="349.03 77.5 313.94 77.5 282.83 92.3 282.83 100.85 331.61 100.85 349.03 100.85 349.03 77.5"/><polygon class="cls-18" points="331.61 100.85 282.83 100.85 282.83 130.81 309.2 120 309.2 146.75 331.61 146.75 331.61 100.85"/><rect class="cls-21" x="331.61" y="100.85" width="17.42" height="45.9"/><g class="cls-24"><path class="cls-3" d="M331.61,146.75H309.2V179.1A69.72,69.72,0,0,1,349,196.54V146.75Z"/><path class="cls-16" d="M309.2,210.29H349V196.54A69.72,69.72,0,0,0,309.2,179.1Z"/><path class="cls-25" d="M327.31,150.66v7.91c0,3.12,2.29,5.2,3.59,6.55s2.08,3.28,2.08,9.32-.17,16.62-.17,21.72c0,13.74-26.19,13.74-26.19,0,0-5.1-.17-15.69-.17-21.72s.78-8,2.08-9.32,3.59-3.43,3.59-6.55v-7.91c0-10.54,15.19-10.54,15.19,0"/><path class="cls-26" d="M320.27,151.3a.5.5,0,0,0-1,0v11.24L317,161.2a.29.29,0,0,0-.4.11.29.29,0,0,0,.1.4l2.61,1.51v16.07l-6.85-4a.29.29,0,0,0-.4.11.29.29,0,0,0,.11.4l7.14,4.13v15.41l-6.85-3.95a.29.29,0,0,0-.4.1.3.3,0,0,0,.11.41l7.14,4.12v17.72a.5.5,0,0,0,1,0V200.16l5.86-3.38a.31.31,0,0,0,.11-.41.28.28,0,0,0-.4-.1l-5.57,3.22V186.6l5.86-3.39a.29.29,0,0,0-.29-.51l-5.57,3.22V173l5.86-3.39a.29.29,0,0,0-.29-.51l-5.57,3.22V159.47l3.82-2.2a.29.29,0,0,0-.29-.51l-3.53,2Z"/></g><path class="cls-20" d="M318.49,81.85h0a22.5,22.5,0,0,1,22.5,22.5v1.76h0a18.22,18.22,0,0,1,18.22,18.22v24.5H347.46a29,29,0,0,1-29-29"/><path class="cls-18" d="M318.49,104c6.55,0,11.87-4,11.87-8.94s-5.32-9-11.87-9"/><path class="cls-3" d="M293.47,81.85A21,21,0,0,0,274.9,93c3-2,6.2-2.58,8.86-1.35a7.11,7.11,0,0,1,2.87,2.44,20.93,20.93,0,0,1,6.84-1.14h25V81.85Z"/><path class="cls-16" d="M286.63,94.06c1.85,2.62,2.43,6.64,1.6,11a46.7,46.7,0,0,1,6.13-.91h.08c.77-.07,1.55-.11,2.33-.13h21.72V92.92h-25A20.93,20.93,0,0,0,286.63,94.06Z"/><path class="cls-27" d="M286.63,94.06a7.11,7.11,0,0,0-2.87-2.44c-2.66-1.23-5.87-.63-8.86,1.35a21,21,0,0,0-2.5,10v8.73a.55.55,0,0,1,.14-.09l.84-.53.23-.14.63-.38.25-.15.67-.38.2-.11c.29-.16.58-.32.88-.47l0,0c.27-.15.55-.29.83-.43l.25-.13.64-.3.29-.14.66-.3.23-.1.89-.38.21-.09.7-.28.31-.12.62-.23.31-.11.76-.27.15-.05,1-.31.1,0,.88-.27.14,0c1-.28,2-.54,3-.75C289.06,100.7,288.48,96.68,286.63,94.06Z"/><path class="cls-3" d="M363.1,146.39h0a22.1,22.1,0,0,1-22.1-22.1V103.8h0a22.09,22.09,0,0,1,22.1,22.1Z"/></g><circle class="cls-17" cx="328.39" cy="213.77" r="7.26"/><path class="cls-2" d="M264.06,270.07a7.26,7.26,0,1,1,7.26,7.26A7.26,7.26,0,0,1,264.06,270.07Z"/><path class="cls-3" d="M380.5,271.33a7.26,7.26,0,1,1,7.26,7.26A7.26,7.26,0,0,1,380.5,271.33Z"/><g class="cls-28"><path class="cls-17" d="M405.45,390.32a8.75,8.75,0,0,1-4.21,7.68q-4.22,2.82-11.3,2.81h-.65c10.74,6.35,19.89,15.16,26.59,22.72a44.65,44.65,0,0,0,8.48-5.28q12.84-10.19,12.85-27a35.36,35.36,0,0,0-.39-5.33H404.4A9.27,9.27,0,0,1,405.45,390.32Z"/><polygon class="cls-18" points="432.04 322.82 362.46 322.82 362.46 349.26 395.11 349.26 390.09 353.05 423.9 353.05 432.04 346.45 432.04 322.82"/><path class="cls-16" d="M414.16,360.93,423.9,353H390.09l-15.37,11.58v19.06A39.48,39.48,0,0,1,392,380.13q6.35,0,9.89,2.81a9.22,9.22,0,0,1,2.5,2.94h32.42Q434.23,368.65,414.16,360.93Z"/><path class="cls-3" d="M389.29,400.8q-13.34-.23-29.19-9.59v28.66q14,8.42,32.94,8.42a52.5,52.5,0,0,0,22.84-4.77C409.18,416,400,407.15,389.29,400.8Z"/><polygon class="cls-3" points="411.07 356.52 409.37 360.46 412.78 360.46 411.07 356.52"/><polygon class="cls-18" points="414.76 375.99 412.37 377.92 409.83 375.99 407.13 377.92 404.17 375.99 402.66 377.18 402.66 433.19 419.49 433.19 419.49 376.03 417.31 377.92 414.76 375.99"/><polygon class="cls-2" points="418.14 372.87 412.78 360.46 409.37 360.46 403.88 373.16 402.66 375.99 402.66 377.18 404.17 375.99 407.13 377.92 409.83 375.99 412.37 377.92 414.76 375.99 417.31 377.92 419.49 376.03 419.49 375.99 418.14 372.87"/><rect class="cls-2" x="407.13" y="381.45" width="0.52" height="45.61"/><rect class="cls-2" x="411.07" y="381.22" width="0.52" height="45.61"/><rect class="cls-2" x="415.23" y="381.22" width="0.52" height="45.61"/></g><circle class="cls-16" cx="360.1" cy="323.04" r="7.26"/><g class="cls-29"><polygon points="229.68 371.26 229.5 371.48 229.68 371.48 229.68 371.26"/><path class="cls-16" d="M300.33,381v-9.56h-30.6V381H266a34.75,34.75,0,0,1-6.52,24.42h54.56V381Z"/><polygon class="cls-17" points="268.37 323.75 254.77 340.46 300.33 340.46 300.33 323.75 268.37 323.75"/><polygon class="cls-18" points="259.15 371.48 269.73 359.03 269.73 371.48 300.33 371.48 300.33 340.46 254.77 340.46 229.68 371.26 229.68 371.48 259.15 371.48"/><path class="cls-3" d="M266,381H251l8.12-9.56H229.5L220.13,383v22.46h39.36A34.75,34.75,0,0,0,266,381Z"/><rect x="244.42" y="356.75" height="29.47"/><polygon class="cls-21" points="263.23 405.46 269.73 405.46 269.73 429.28 300.33 429.28 300.33 405.46 314.05 405.46 314.05 405.45 263.23 405.45 263.23 405.46"/><path class="cls-3" d="M310.48,340.23a10.15,10.15,0,1,1-10.15-10.15,10.14,10.14,0,0,1,10.15,10.15"/><path class="cls-3" d="M300.33,325.87a1.81,1.81,0,0,1-1.8-1.8v-9a1.81,1.81,0,0,1,3.61,0v9a1.81,1.81,0,0,1-1.81,1.8"/><path class="cls-3" d="M300.33,367.67a1.81,1.81,0,0,1-1.8-1.8v-9a1.81,1.81,0,1,1,3.61,0v9a1.81,1.81,0,0,1-1.81,1.8"/><path class="cls-3" d="M325.74,342.26h-9a1.81,1.81,0,0,1,0-3.61h9a1.81,1.81,0,1,1,0,3.61"/><path class="cls-3" d="M283.94,342.26h-9a1.81,1.81,0,0,1,0-3.61h9a1.81,1.81,0,1,1,0,3.61"/><path class="cls-3" d="M318.3,360.23a1.84,1.84,0,0,1-1.28-.53l-6.38-6.38a1.81,1.81,0,1,1,2.56-2.55l6.38,6.38a1.81,1.81,0,0,1,0,2.55,1.84,1.84,0,0,1-1.28.53"/><path class="cls-3" d="M288.74,330.67a1.75,1.75,0,0,1-1.27-.53l-6.38-6.38a1.79,1.79,0,0,1,0-2.55,1.81,1.81,0,0,1,2.55,0l6.38,6.38a1.81,1.81,0,0,1,0,2.55,1.78,1.78,0,0,1-1.28.53"/><path class="cls-3" d="M282.36,360.23a1.81,1.81,0,0,1-1.27-3.08l6.38-6.38a1.8,1.8,0,1,1,2.55,2.55l-6.38,6.38a1.82,1.82,0,0,1-1.28.53"/><path class="cls-3" d="M311.92,330.67a1.81,1.81,0,0,1-1.28-3.08l6.38-6.38a1.81,1.81,0,0,1,2.56,2.55l-6.38,6.38a1.79,1.79,0,0,1-1.28.53"/><path class="cls-20" d="M258.26,349.1a8,8,0,0,0-.68,3.61,5.65,5.65,0,0,0,5.65,5.65V338.65Z"/><path class="cls-17" d="M268.87,352.71a11.45,11.45,0,0,0-1.36-4.82l-4.28-9.24h0v19.71h0A5.65,5.65,0,0,0,268.87,352.71Z"/></g><polygon class="cls-3" points="296.22 429.31 310.66 429.31 310.66 396.27 303.44 389.56 296.22 396.27 296.22 429.31"/><rect class="cls-17" x="280.86" y="396.27" width="15.36" height="33.04"/><polygon class="cls-17" points="280.86 396.27 296.22 396.27 303.44 389.56 287.79 389.56 280.86 396.27"/><rect class="cls-2" x="301.9" y="397.43" width="3.35" height="5.48"/><rect class="cls-2" x="301.9" y="404.74" width="3.35" height="5.48"/><rect class="cls-2" x="301.9" y="412.04" width="3.35" height="5.48"/><rect class="cls-2" x="301.9" y="419.35" width="3.35" height="5.48"/><polygon class="cls-18" points="296.22 396.27 280.86 429.31 280.86 396.27 296.22 396.27"/><path class="cls-18" d="M293.36,323.91a7.26,7.26,0,1,1,7.26,7.26A7.26,7.26,0,0,1,293.36,323.91Z"/><path class="cls-30" d="M302.58,281.46h-5.27V264h5.27Z"/><path class="cls-30" d="M323.45,280.22l-1,.36-.78.25-1.08.29c-.79.18-1.59.32-2.38.42a20.21,20.21,0,0,1-2.51.14,12.27,12.27,0,0,1-4.92-1,8,8,0,0,1-3.6-3,8.81,8.81,0,0,1-1.36-5,10.47,10.47,0,0,1,.7-3.76,6.65,6.65,0,0,1,2.13-2.95,10.3,10.3,0,0,1,2.4-1.41,10,10,0,0,1,2.38-.64,18.11,18.11,0,0,1,2.56-.17,17.36,17.36,0,0,1,3.8.35c1,.23,2.09.53,3.29.91v4.13A14.69,14.69,0,0,0,320.6,268a10.05,10.05,0,0,0-3.3-.46,6.82,6.82,0,0,0-3.65.86,4.82,4.82,0,0,0-1.9,2.06,5.61,5.61,0,0,0-.53,2.32,4.93,4.93,0,0,0,.61,2.43A4.56,4.56,0,0,0,313.7,277a6.23,6.23,0,0,0,3,.68,9.29,9.29,0,0,0,2.14-.27v-2h-2.37v-3.51h7Z"/><path class="cls-30" d="M346.39,281.46H341l-1.42-3.54H332l-1.45,3.54h-5.39L332.88,264h5.82Zm-8-6.58-2.56-6.37-2.58,6.37Z"/><path class="cls-30" d="M364,280.15a12.31,12.31,0,0,1-2.22.9,14.17,14.17,0,0,1-2.29.49,18.45,18.45,0,0,1-2.38.14,12.37,12.37,0,0,1-4.09-.63,8.82,8.82,0,0,1-3.14-1.85,8,8,0,0,1-2-2.87,9.62,9.62,0,0,1-.66-3.61,9.34,9.34,0,0,1,.78-4,7.63,7.63,0,0,1,2.19-2.82,9.27,9.27,0,0,1,3.2-1.65,13,13,0,0,1,3.78-.54,20.67,20.67,0,0,1,6.74,1.32v4.64a17.51,17.51,0,0,0-2.56-1.34,7.59,7.59,0,0,0-3-.54,6.66,6.66,0,0,0-2.85.61,5.31,5.31,0,0,0-2.13,1.72,4.63,4.63,0,0,0-.1,5.05,5,5,0,0,0,2,1.75,6.11,6.11,0,0,0,2.83.65,9.28,9.28,0,0,0,2.4-.31,11.16,11.16,0,0,0,1.91-.69,17.44,17.44,0,0,0,1.6-.89Z"/></g></g></svg>