<svg xmlns="http://www.w3.org/2000/svg" viewBox="0 0 165.93 147.2"><defs><style>.cls-1{fill:#5045b1;}.cls-2{fill:#1a2e35;}.cls-3{fill:#face33;}.cls-4{opacity:0.3;}.cls-5{fill:#fff;}.cls-6{opacity:0.1;}.cls-7{fill:#a9a8a8;}.cls-8{opacity:0.2;}.cls-9{fill:#dcdcdc;}.cls-10{fill:#038d71;}.cls-11{fill:#eb6654;}</style></defs><g id="Capa_2" data-name="Capa 2"><g id="Arte"><path class="cls-1" d="M43.71,140A76,76,0,0,1,7.24,38.83C25.09.83,68.4,15.2,108.37,2.36c53.18-17.09,54.33,63.13,36.48,101.13A76,76,0,0,1,43.71,140Z"/><rect class="cls-2" x="111.74" y="88.66" width="54.19" height="30.55"/><rect class="cls-3" x="111.77" y="79.29" width="47.38" height="34.34"/><polygon class="cls-3" points="128.51 75.74 111.77 75.74 111.77 79.3 129.47 79.3 128.51 75.74"/><g class="cls-4"><rect x="111.77" y="79.29" width="47.38" height="34.34"/><polygon points="128.51 75.74 111.77 75.74 111.77 79.3 129.47 79.3 128.51 75.74"/></g><rect class="cls-5" x="113.41" y="77.13" width="13.69" height="2.07"/><polygon class="cls-3" points="159.15 113.64 111.77 113.64 111.42 81.42 158.8 81.42 159.15 113.64"/><polygon class="cls-3" points="128.13 78.16 111.39 78.16 111.42 81.42 129.13 81.42 128.13 78.16"/><g class="cls-6"><polygon points="159.15 113.64 111.77 113.64 111.42 81.42 158.8 81.42 159.15 113.64"/><polygon points="128.13 78.16 111.39 78.16 111.42 81.42 129.13 81.42 128.13 78.16"/></g><rect class="cls-3" x="109.4" y="76.87" width="47.38" height="34.34"/><polygon class="cls-3" points="126.14 73.31 109.4 73.31 109.4 76.87 127.1 76.87 126.14 73.31"/><g class="cls-4"><rect x="109.4" y="76.87" width="47.38" height="34.34"/><polygon points="126.14 73.31 109.4 73.31 109.4 76.87 127.1 76.87 126.14 73.31"/></g><rect class="cls-5" x="111.04" y="74.7" width="13.69" height="2.07"/><polygon class="cls-3" points="156.78 111.22 109.4 111.22 109.05 79 156.43 79 156.78 111.22"/><polygon class="cls-3" points="125.76 75.74 109.02 75.74 109.05 79 126.75 79 125.76 75.74"/><g class="cls-6"><polygon points="156.78 111.22 109.4 111.22 109.05 79 156.43 79 156.78 111.22"/><polygon points="125.76 75.74 109.02 75.74 109.05 79 126.75 79 125.76 75.74"/></g><rect class="cls-7" x="87.47" y="46.32" width="47.38" height="34.34"/><polygon class="cls-7" points="104.22 42.76 87.47 42.76 87.47 46.32 105.18 46.32 104.22 42.76"/><g class="cls-8"><rect class="cls-2" x="87.47" y="46.32" width="47.38" height="34.34"/></g><rect class="cls-5" x="89.12" y="43.83" width="13.69" height="2.07"/><polygon class="cls-9" points="134.73 80.66 87.35 80.66 83.7 49.17 131.07 49.17 134.73 80.66"/><rect class="cls-7" x="81.05" y="77.85" width="47.38" height="34.34"/><polygon class="cls-7" points="111.69 74.29 128.43 74.29 128.43 77.85 110.73 77.85 111.69 74.29"/><g class="cls-8"><rect class="cls-7" x="81.05" y="77.85" width="47.38" height="34.34"/><polygon class="cls-7" points="111.69 74.29 128.43 74.29 128.43 77.85 110.73 77.85 111.69 74.29"/></g><rect class="cls-5" x="113.1" y="75.68" width="13.69" height="2.07" transform="translate(239.89 153.43) rotate(180)"/><polygon class="cls-10" points="81.06 112.19 128.43 112.19 128.78 79.98 81.4 79.98 81.06 112.19"/><polygon class="cls-10" points="112.07 76.72 128.81 76.72 128.78 79.98 111.08 79.98 112.07 76.72"/><rect class="cls-2" x="78.35" y="88.66" width="61.48" height="30.55"/><rect class="cls-9" x="97.86" y="97.56" width="17.87" height="6.08"/><rect class="cls-10" x="139.96" y="93.24" width="25.97" height="25.97"/><path class="cls-11" d="M11.48,123.7c.16.17,48.08,10.48,48.08,10.48S65.4,120,63.1,111.66C58.23,94.13,46.42,57.34,42.9,53.71,39.83,50.54,31.56,49,26.46,52c-10.7,6.3-16.09,49.49-20.27,60.24C4.12,117.58,11.29,123.48,11.48,123.7Z"/><path class="cls-3" d="M39.9,65.55C36,65.7,30,58.14,28.37,53c-.11-.35,1-3.58,2.22-7.58C31.31,43,32,40.3,32.54,37.77l15.13,6.95a41.36,41.36,0,0,0-3.44,9.43,6.6,6.6,0,0,0-.09,1.06,1,1,0,0,1,0,.17C44.07,57.42,43.66,65.4,39.9,65.55Z"/><path class="cls-2" d="M44.14,55.21a.81.81,0,0,0,0,.17,10.43,10.43,0,0,1-1.65-.22c-9.15-2-9.12-13.67-8.92-16.92L37.34,40l10.33,4.75a40.37,40.37,0,0,0-3.43,9.42A4.93,4.93,0,0,0,44.14,55.21Z"/><path class="cls-3" d="M34.28,21.57c-2.56,5.42-2,22.26,1.55,26.5,5.08,6.16,14.59,8.07,20.12,1.69,5.36-6.19,4.18-28.12.16-32.1C50.18,11.8,38.06,13.55,34.28,21.57Z"/><path class="cls-2" d="M38.23,30.91c1.53-3.06.42-8.68,2.22-9.9,3.89-2.64,10.17,4.29,15,5s6.71-2.15,6.38-6.1-3.23-7-8.42-8.47a20.09,20.09,0,0,0-13.62,1.33s1.45-1.75,1.09-2.4-2.93.86-3.75,1.55A7.27,7.27,0,0,0,35.7,14a8,8,0,0,0-2.13-.52,4.51,4.51,0,0,0-3,.88c-.13.27,1.56.72,2.76.94,0,0-2.66,2.68-2.95,5.24s2,15.22,2.95,15.48C34.58,36.39,37.61,32.15,38.23,30.91Z"/><path class="cls-2" d="M33.88,15.09s.09.05,0,.08a8.09,8.09,0,0,0-3,3.26,10.13,10.13,0,0,0-.77,5.25c.29,3.45,1.52,6.72,2.52,10,0,.09-.13.14-.17.05C31.18,30.33,29.9,26.63,29.74,23,29.6,19.83,30.79,16.41,33.88,15.09Z"/><path class="cls-2" d="M40.43,19.74a11.68,11.68,0,0,1,4.24.87,16.78,16.78,0,0,1,3.43,2.31,16.44,16.44,0,0,0,8.39,3.59,0,0,0,1,1,0,.06,14.41,14.41,0,0,1-7.88-2.85,37.23,37.23,0,0,0-3.53-2.52A15.1,15.1,0,0,0,40.41,20,.13.13,0,0,1,40.43,19.74Z"/><path class="cls-2" d="M42.91,11.82a22.35,22.35,0,0,1,6.33-1.18,17.6,17.6,0,0,1,6.13.62c3.42,1,6.34,3.71,6.67,7.41A7.71,7.71,0,0,1,60.58,24a.1.1,0,0,1-.16-.12,8,8,0,0,0-.53-9.52c-2.53-2.88-6.53-3.62-10.19-3.53a32.34,32.34,0,0,0-6.78,1S42.9,11.82,42.91,11.82Z"/><path class="cls-3" d="M35.83,35.44s-3-5.78-5.63-4.76-.75,9.09,1.95,10.5a2.91,2.91,0,0,0,4.06-1.07Z"/><path class="cls-2" d="M30.79,33a0,0,0,0,0,0,.07c1.89,1.06,2.7,3,3.19,5a1.59,1.59,0,0,0-2.32-.73c-.06,0,0,.12,0,.11a1.8,1.8,0,0,1,1.87.87A8.49,8.49,0,0,1,34.28,40c.07.19.4.13.36-.08v0C35,37.37,33.47,33.58,30.79,33Z"/><path class="cls-3" d="M24.86,77.83C40.33,88.52,71.3,103.19,78,102.7c5.93-.43,22.36-17.53,29-25.7,2.49-3.06-22.06-21-24.65-17.72-3.11,4-12.73,15.45-14.06,15.46s-24-5.5-38.78-7.66C16.13,65.13,19,73.79,24.86,77.83Z"/><path class="cls-3" d="M89.93,47.9C96,41,98.67,40.17,100.74,31.61c1.36-5.62,5.53-7.17,7-1.34,2.4,9.54-3.62,20.1-6.76,23.15Z"/><path class="cls-3" d="M77.2,70.34s4.1-11,9.89-19c4-5.52,14-16.58,34.34-14.68,4.81.46,11.35,4.51,3.22,6.63-5.77,1.5-9.89.71-13.09,2.2,0,0,7.7,6.14,7.06,10.95a87.74,87.74,0,0,1-2.57,12.43,19.76,19.76,0,0,1-2.37-.27S112.66,73,107,77Z"/><path class="cls-3" d="M91.75,46.68c3.49-.81,10.91-2.38,17.42-1.56,7.24.91,20.94,4.61,20.22,10-.54,3.91-5.89,3-5.89,3s5.34,2.72,4.08,6.15c-1.14,3.13-5.24,2.14-5.24,2.14s3,2.21,1.27,5c-2,3.36-7.88-1.82-12.87-.18C109.62,71.52,91.75,46.68,91.75,46.68Z"/><path class="cls-2" d="M106.94,52.6a29.14,29.14,0,0,1,16.5,5.29c.12.09.12.23,0,.17a71.71,71.71,0,0,0-16.5-5.39S106.9,52.61,106.94,52.6Z"/><path class="cls-2" d="M106.23,59.94c3,.11,11,2,16.16,6.26.12.09.1.23,0,.16A76.26,76.26,0,0,0,106.22,60,0,0,0,0,1,106.23,59.94Z"/><path class="cls-2" d="M91.05,46.69C92.63,45,94.3,43.3,95.8,41.5A30,30,0,0,0,98,38.74a11.05,11.05,0,0,0,1.58-3.12,9.42,9.42,0,0,1-1.39,3.24A27.81,27.81,0,0,1,96,41.69q-1.15,1.34-2.4,2.58C92.79,45.1,91.92,45.89,91.05,46.69Z"/><path class="cls-2" d="M107.56,29.64a13.1,13.1,0,0,1,.87,3.82,12.83,12.83,0,0,1,0,2,10.58,10.58,0,0,1-.3,1.94c0-.65.09-1.3.08-2a17.8,17.8,0,0,0-.08-1.93c0-.64-.13-1.29-.23-1.92S107.71,30.28,107.56,29.64Z"/><path class="cls-2" d="M104.31,38.42a50.68,50.68,0,0,1,10.86-2,35.34,35.34,0,0,1,5.54.07,15.88,15.88,0,0,1,5.37,1.33,5.52,5.52,0,0,1,2.18,1.75,1.93,1.93,0,0,1,.3,1.41,2.26,2.26,0,0,1-.81,1.19,7,7,0,0,1-2.55,1.15,16.07,16.07,0,0,1-2.74.49,54.34,54.34,0,0,0-10.86,1.77l0-.21a65.89,65.89,0,0,1,10.06,2.74,24.7,24.7,0,0,1,4.69,2.26,9.18,9.18,0,0,1,2,1.65,3.68,3.68,0,0,1,1,2.33,3.65,3.65,0,0,0-1.08-2.3,9.54,9.54,0,0,0-2-1.61,28,28,0,0,0-4.71-2.18,65.46,65.46,0,0,0-10-2.68l-.42-.08.41-.13a54.47,54.47,0,0,1,10.9-1.84,17.53,17.53,0,0,0,2.7-.47A7.1,7.1,0,0,0,127.59,42a2.08,2.08,0,0,0,.73-1,1.68,1.68,0,0,0-.27-1.22A5.17,5.17,0,0,0,126,38a15.49,15.49,0,0,0-5.29-1.33,33.79,33.79,0,0,0-5.51-.11A54.17,54.17,0,0,0,104.31,38.42Z"/><path class="cls-11" d="M108.43,82.53,81.12,59.39l-13,14.26c-11.16-2.29-33.47-6.84-41.42-7.26C17.35,65.9,16.4,72.34,24,78c17.44,13,49.86,26.91,55.29,26.47C87.09,103.89,108.43,82.53,108.43,82.53Z"/><path class="cls-2" d="M101.28,84.12c-2-1.11-9.13-7-10.9-8.46S81.71,68,79.89,66.48c-.1-.08,0-.25.1-.17,1.82,1.48,9.21,7.13,11,8.59s8.87,7.4,10.36,9.12C101.4,84.08,101.34,84.16,101.28,84.12Z"/><path class="cls-2" d="M99,91.35q-3.52,3.08-7.24,6a75.59,75.59,0,0,1-7.69,5.37,14.94,14.94,0,0,1-4.31,1.88,13.38,13.38,0,0,1-4.66-.61,76.72,76.72,0,0,1-8.84-3.14c-5.79-2.39-11.4-5.16-17-8S38.2,87,32.77,83.92q8.25,4.45,16.61,8.7c5.58,2.8,11.23,5.49,17,7.95a77.76,77.76,0,0,0,8.8,3.19,13.31,13.31,0,0,0,4.58.62A14.48,14.48,0,0,0,84,102.54a81.14,81.14,0,0,0,7.72-5.3C94.19,95.34,96.63,93.38,99,91.35Z"/><path class="cls-2" d="M37.43,86.54a8.54,8.54,0,0,1-1.74-.36,5.17,5.17,0,0,1-1.61-.76c.28.1.57.16.85.24l.85.25A12.72,12.72,0,0,1,37.43,86.54Z"/><path class="cls-2" d="M44.06,69.13c3.61.51,7.18,1.32,10.76,2S62,72.62,65.56,73.23l1.35.21.67.08.33,0a.3.3,0,0,0,.24-.1c.65-.57,1.29-1.26,1.91-1.91,1.25-1.33,2.48-2.68,3.71-4l7.34-8.12h0l.69.59-.7-.58h0q-3.54,4.17-7.21,8.24-1.81,2.06-3.67,4.06c-.64.67-1.22,1.34-1.95,2-.05,0-.08.09-.15.11l-.22,0a2.17,2.17,0,0,1-.36,0c-.23,0-.46,0-.69-.07q-.68-.09-1.35-.21c-3.6-.64-7.17-1.41-10.74-2.17l-5.36-1.13C47.64,69.83,45.86,69.39,44.06,69.13Z"/><path class="cls-2" d="M45.3,68.54a8.26,8.26,0,0,1,1.7.56,5,5,0,0,1,1.51,1c-.27-.14-.55-.23-.82-.35l-.81-.34A13.18,13.18,0,0,1,45.3,68.54Z"/></g></g></svg>