<svg xmlns="http://www.w3.org/2000/svg" viewBox="0 0 336.51 177.35"><defs><style>.cls-1{fill:#1e4a93;}.cls-2{fill:#f2a742;}.cls-3{fill:#038d71;}.cls-4{fill:#fff;}.cls-5{fill:#1a2e35;}.cls-6{fill:#eb6654;}.cls-7{fill:#dee3fc;}.cls-8{fill:#f0f4ff;}.cls-9{fill:var(--azul-igac);}.cls-10{fill:#face33;}.cls-11{fill:#2b454e;}.cls-12{fill:#455a64;}.cls-13{fill:#495ad6;}</style></defs><g id="Capa_2" data-name="Capa 2"><g id="Especificaciones"><rect class="cls-1" width="336.51" height="177.35"/><path class="cls-2" d="M116.17,108.67c-15.33-30.28,12-53.21,42.24-68.54s37.77,3.11,53.1,33.39,25.37,51-4.91,66.37S131.49,139,116.17,108.67Z"/><rect class="cls-3" x="177.81" y="51.8" width="64.47" height="31.29" rx="3.45"/><rect class="cls-4" x="180.79" y="58.93" width="21.62" height="21.62" rx="4.86"/><path class="cls-5" d="M220.19,61.67H205.25a.74.74,0,0,1-.73-.74h0a.74.74,0,0,1,.73-.74h14.94a.74.74,0,0,1,.74.74h0A.74.74,0,0,1,220.19,61.67Z"/><path class="cls-5" d="M213.38,64.6h-8.13a.73.73,0,0,1-.73-.73h0a.74.74,0,0,1,.73-.74h8.13a.74.74,0,0,1,.74.74h0A.74.74,0,0,1,213.38,64.6Z"/><path class="cls-5" d="M238.38,64.6h-22a.74.74,0,0,1-.74-.73h0a.74.74,0,0,1,.74-.74h22a.74.74,0,0,1,.74.74h0A.74.74,0,0,1,238.38,64.6Z"/><path class="cls-5" d="M217.83,67.54H205.25a.74.74,0,0,1-.73-.74h0a.73.73,0,0,1,.73-.73h12.58a.74.74,0,0,1,.74.73h0A.74.74,0,0,1,217.83,67.54Z"/><path class="cls-5" d="M228.51,67.54H220.6a.74.74,0,0,1-.73-.74h0a.73.73,0,0,1,.73-.73h7.91a.74.74,0,0,1,.74.73h0A.74.74,0,0,1,228.51,67.54Z"/><path class="cls-5" d="M238.38,67.54H231.1a.74.74,0,0,1-.74-.74h0a.74.74,0,0,1,.74-.73h7.28a.74.74,0,0,1,.74.73h0A.74.74,0,0,1,238.38,67.54Z"/><path class="cls-5" d="M238.38,70.48H205.25a.74.74,0,0,1-.73-.74h0a.73.73,0,0,1,.73-.73h33.13a.73.73,0,0,1,.74.73h0A.74.74,0,0,1,238.38,70.48Z"/><path class="cls-5" d="M223.48,73.41H205.25a.73.73,0,0,1-.73-.73h0a.74.74,0,0,1,.73-.74h18.23a.74.74,0,0,1,.74.74h0A.74.74,0,0,1,223.48,73.41Z"/><path class="cls-5" d="M238.38,73.41h-12a.73.73,0,0,1-.73-.73h0a.74.74,0,0,1,.73-.74h12a.74.74,0,0,1,.74.74h0A.74.74,0,0,1,238.38,73.41Z"/><path class="cls-5" d="M216,76.35H205.25a.74.74,0,0,1-.73-.74h0a.73.73,0,0,1,.73-.73H216a.74.74,0,0,1,.74.73h0A.74.74,0,0,1,216,76.35Z"/><path class="cls-5" d="M229.58,76.35H218.86a.74.74,0,0,1-.73-.74h0a.73.73,0,0,1,.73-.73h10.72a.73.73,0,0,1,.73.73h0A.74.74,0,0,1,229.58,76.35Z"/><path class="cls-5" d="M238.38,76.35h-6.22a.74.74,0,0,1-.73-.74h0a.73.73,0,0,1,.73-.73h6.22a.74.74,0,0,1,.74.73h0A.74.74,0,0,1,238.38,76.35Z"/><path class="cls-5" d="M220.19,79.29H205.25a.74.74,0,0,1-.73-.74h0a.73.73,0,0,1,.73-.73h14.94a.74.74,0,0,1,.74.73h0A.74.74,0,0,1,220.19,79.29Z"/><path class="cls-5" d="M238.38,61.67H223.44a.73.73,0,0,1-.73-.74h0a.73.73,0,0,1,.73-.74h14.94a.74.74,0,0,1,.74.74h0A.74.74,0,0,1,238.38,61.67Z"/><path class="cls-6" d="M242.29,55.25v1H177.81v-1a3.46,3.46,0,0,1,3.45-3.45h57.58A3.46,3.46,0,0,1,242.29,55.25Z"/><circle class="cls-7" cx="229.34" cy="54.12" r="0.8"/><circle class="cls-7" cx="233.42" cy="54.12" r="0.8"/><circle class="cls-7" cx="237.51" cy="54.12" r="0.8"/><rect class="cls-6" x="101.96" y="58.38" width="52.95" height="39.21" rx="3.22"/><circle class="cls-8" cx="144.19" cy="68.73" r="7.67" transform="translate(53.25 200.04) rotate(-80.78)"/><path class="cls-4" d="M133.08,97.58h-27.9A3.22,3.22,0,0,1,102,94.36V89.21l12.21-21.16a1.66,1.66,0,0,1,2.87,0l9.22,16,6.85,11.86A1.62,1.62,0,0,1,133.08,97.58Z"/><path class="cls-9" d="M145.12,97.58H118.43L126.26,84l4.22-7.31a1.5,1.5,0,0,1,2.59,0Z"/><path class="cls-5" d="M150.25,97.09c2.52,1.31,3,5.85,11,5.61,1.14,0,2.07-.49,3.11-.11,1.53.57,2.74,1.79,4.1,2.68a8.74,8.74,0,0,0,3.64,1.4,10.9,10.9,0,0,0,7.16-1.65c1.3-.8,2.4-1.92,3.67-2.79s8.91-2.72,10.19-7c.82-2.72.69-5.83-2.55-9.82a5.09,5.09,0,0,1-1.46-2.65,5.93,5.93,0,0,1,.59-2.56,5,5,0,0,0,.47-2.94,6.55,6.55,0,0,0-1.7-2.51c-1.2-1.44-1-3.53,0-6.1a7.56,7.56,0,0,0-.77-6.62A15.35,15.35,0,0,0,185,59c-1.46-1.39-1.73-2.68-2.37-4.63a10.26,10.26,0,0,0-5.47-6.61c-2.06-1-2-.64-4.2-.31a11.52,11.52,0,0,0-7.46-1.61c-2.42.3-4.41,1.92-6.23,3.47-1.63,1.39-3.11,2.88-3.2,5.21-.05,1.35.27,2.68.21,4a5.57,5.57,0,0,1-2.17,3.87A10.09,10.09,0,0,0,150.73,68c-.29,1.83,1.5,4.66-.6,7.35-1.85,2.38-5.11,5.12-6,8.12C141.5,92.78,147.83,95.82,150.25,97.09Z"/><path class="cls-5" d="M195.23,97s0-.06,0-.08a10.23,10.23,0,0,0-.46-6.81c-.58-1.43-1.45-2.71-2-4.15-.1-.25-.19-.5-.28-.75.82,1.12,1.93,2,2.73,3.14,1.75,2.38,2.26,5.21.63,7.79A7.86,7.86,0,0,1,195.23,97Z"/><path class="cls-5" d="M144.84,92.15a.07.07,0,1,0,.11-.07c-1.55-2.69-1.11-5.45.13-7.92-.59,3.69.13,7.82,3.5,9.8.06,0,.11-.06,0-.09-3.49-2.09-4-6.86-3.07-10.59a20.92,20.92,0,0,1,2.7-3.54c1.61-1.73,3.6-3.43,4.78-5.55a5.05,5.05,0,0,1-2,3.1c-.06,0,0,.15.06.11a5.38,5.38,0,0,0,2.23-3.19,4.68,4.68,0,0,0,.09-.83,7.31,7.31,0,0,0,.58-2.17s0,0,0,0a7.19,7.19,0,0,1-.55,1.94,15.38,15.38,0,0,0-.78-3.4c-.86-3.2.75-5.09,2.73-6.81l.49-.3a6.91,6.91,0,0,0,2.64-2.44l.4-.44s0,0,0,0-.21.21-.32.32a4.44,4.44,0,0,0,.33-.93s0,0,0,0a4.67,4.67,0,0,1-.9,1.46c-.79.66-1.67,1.27-2.5,1.91-1.56,1-3.13,1.86-3.74,3.76s-.13,3.77,0,5.61c.22,2.85-.81,5.24-3.39,6.37,0,0,0,.07,0,.05a5.71,5.71,0,0,0,.58-.21,10.07,10.07,0,0,0-3.51,4.61C143.67,85.52,142.9,89.13,144.84,92.15Zm6.65-16-.88.68a5.22,5.22,0,0,0,1-1.65c.71-2,.12-4.21.07-6.29a5.48,5.48,0,0,1,2-4.62,6.25,6.25,0,0,0-1.3,2.31c-.46,1.53,0,3,.46,4.44a7.22,7.22,0,0,1,.34,2.87A12.89,12.89,0,0,1,151.49,76.11Zm-5.37,5.61a12.8,12.8,0,0,1,3.67-4.15l.3-.25c.41-.34.82-.67,1.22-1C149.64,78.19,147.55,79.86,146.12,81.72Z"/><path class="cls-5" d="M150.05,94.51s0,0,0,0A0,0,0,0,1,150.05,94.51Z"/><path class="cls-9" d="M175.69,86.57c16.34,14.4,31.52,30.2,32.79,38.34,1.75,11.27-5.16,14.47-8.27,14.54-8.47.18-24.24-34-29.73-47C165.14,79.77,172.1,83.4,175.69,86.57Z"/><path class="cls-9" d="M185.86,125.4l-1.26-7.9s5.67-5.86,2.74-12c-1.48-3.12-11.55-18.3-16.93-22.12-5-3.57-11-.6-13.27,3.27-5.65,9.78-11,21-14.29,45.2l37.53,0A5.55,5.55,0,0,0,185.86,125.4Z"/><path class="cls-5" d="M177.89,115.66a46.09,46.09,0,0,0-6.79,1.25c-1.1.31-2.18.66-3.26,1-.54.19-1.08.36-1.62.53a7.46,7.46,0,0,1-1.75.36c-.05,0-.05.09,0,.09a13.57,13.57,0,0,0,1.69-.07,12.27,12.27,0,0,0,1.6-.33c1.13-.3,2.23-.66,3.35-1,2.26-.63,4.51-1.25,6.81-1.72C178,115.82,178,115.64,177.89,115.66Z"/><path class="cls-5" d="M183.59,117.57a51.42,51.42,0,0,0-5.69-.16c-1,0-1.89.12-2.83.23q-.67.08-1.35.18c-.5.07-1,.21-1.48.28-.05,0-.05.08,0,.08.47-.05.94,0,1.41,0l1.42-.07,2.84-.12c1.9-.1,3.78-.19,5.68-.22C183.7,117.73,183.69,117.58,183.59,117.57Z"/><path class="cls-9" d="M156.57,85.16c-15.21,12-30.16,32.6-30.27,44.15-.11,11.4,3.86,10.3,5,10.22,6.89-.45,23.1-32.18,28-45.11S160.33,82.21,156.57,85.16Z"/><path class="cls-5" d="M140.44,130.63c.8-1.44,1.62-2.86,2.4-4.31l2.37-4.31c1.56-2.88,3.15-5.75,4.67-8.66s3.09-5.79,4.59-8.7c.75-1.46,1.49-2.92,2.21-4.4s1.42-3,2.11-4.45a88.36,88.36,0,0,1-3.77,9.12c-1.39,3-2.91,5.89-4.44,8.8s-3.16,5.77-4.84,8.59S142.33,127.94,140.44,130.63Z"/><path class="cls-5" d="M157.18,99.62a15,15,0,0,1,.94-1.49c.17-.23.33-.47.52-.7s.35-.46.55-.69a4.29,4.29,0,0,1-.75,1.62A4.87,4.87,0,0,1,157.18,99.62Z"/><path class="cls-10" d="M203.71,108.22c-.8-5.35-2.4-12.81-4.33-14.36s-9.39-7-11.51-7.74S176.31,81.94,174.6,83c-1.38.82.3,4.44,4.79,6.13a64.85,64.85,0,0,1,7.12,3.37c1.15.48,4,4.16,3.22,5.81-.43,1-3.24,2.15-5,1.37s-2.23-4.23-4.25-5.85-5.55-1.37-5.74-.42,1,1.39,2.82,4.61c1.18,2.07,1.31,7.07,4,10.63a62.72,62.72,0,0,1,3.7,6.55Z"/><path class="cls-5" d="M178.59,92.33a3.49,3.49,0,0,1-1.75-.78,1.42,1.42,0,0,1-.41-.71,1.35,1.35,0,0,1,0-.45.68.68,0,0,1,.17-.43s0-.06,0,0-.11.14-.16.22a1.24,1.24,0,0,0-.1.2,1.31,1.31,0,0,0-.07.44,1.47,1.47,0,0,0,.36.89,2.46,2.46,0,0,0,2,.7A0,0,0,0,0,178.59,92.33Z"/><path class="cls-10" d="M199.38,93.86c-1.73-2.66-6.15-7.43-10.48-9-2.93-1.09-12.92,3.9-12.61,5.82s2,1.91,4.56,1.58c.93-.12,5.81-1.93,6.65-.91,1.21,1.46,2.79,6.49,2.79,6.49Z"/><path class="cls-5" d="M176.53,89.89c1.22-2.07,3.94-3.2,6.64-4.09,0,0,.07,0,0,.06-.68.23-5.09,2.31-6.63,4.06C176.54,89.94,176.52,89.91,176.53,89.89Z"/><path class="cls-10" d="M199.38,93.86c-1.73-2.66-6.15-7.43-10.48-9C186,83.73,178.09,90.07,178.4,92s2.78,2,5.5,1.06c.87-.31,3.8-2.42,4.65-1.4,1.21,1.46,4.17,5.09,4.17,5.09Z"/><path class="cls-5" d="M191,94.49l-.66-1c-.29-.41-.58-.82-.89-1.21a3.87,3.87,0,0,0-.91-.94,2,2,0,0,0-1.21-.23,6.84,6.84,0,0,0-2.59,1.18,8.23,8.23,0,0,1-4.16,1.24,2.86,2.86,0,0,1-1.12-.29,1.85,1.85,0,0,1-.68-.53c-.63-1,.13-2.24.91-3.1A18.13,18.13,0,0,1,185,85.92c.46-.24.94-.46,1.41-.68a4.14,4.14,0,0,1,1.72-.51A8,8,0,0,1,191.28,86s.07,0,0-.06c-.61-.37-2.13-1.59-3.72-1.49a4.93,4.93,0,0,0-1.65.58c-.56.24-1.1.5-1.64.78a22.07,22.07,0,0,0-3,1.83A9.41,9.41,0,0,0,178.82,90a2.78,2.78,0,0,0-.14,2.85,2.4,2.4,0,0,0,1.8.93,4.84,4.84,0,0,0,1.26,0,20.51,20.51,0,0,0,2.72-.83c.86-.35,1.63-.94,2.52-1.22a1.65,1.65,0,0,1,1.29.07,4.45,4.45,0,0,1,1,.87,12.79,12.79,0,0,1,1.63,1.89C191,94.73,191.13,94.67,191,94.49Z"/><path class="cls-10" d="M200.67,96.18c-.64-1.26-1.75-6.5-2.78-8.1S192.18,81,190,81.23c-2.71.34.17,5.19,1.61,7.19s1.24,5.43,1.24,5.43Z"/><path class="cls-5" d="M189.62,85.11c.51.63,1,1.33,1.41,2a15.55,15.55,0,0,1,1.23,2,6.89,6.89,0,0,1,.55,2.23c0,.38.06.75.07,1.13s0,.83,0,1.25c0,0-.06.05-.06,0a18.87,18.87,0,0,0-.32-2.24,9.71,9.71,0,0,0-.7-2.24c-.65-1.41-1.59-2.67-2.26-4.07A.06.06,0,0,1,189.62,85.11Z"/><path class="cls-5" d="M192.84,94.42a7.73,7.73,0,0,1-.65,3.82,14.39,14.39,0,0,1-.85,1.77,15.77,15.77,0,0,1-1.11,1.61,15,15,0,0,0-1.94,3.19,15.18,15.18,0,0,0-1,3.64,9.91,9.91,0,0,1,.44-3.85,11.65,11.65,0,0,1,1.87-3.45,19.18,19.18,0,0,0,2-3.17A11.68,11.68,0,0,0,192.84,94.42Z"/><path class="cls-10" d="M199.42,139.06c-5.28-.71-8.74-9.56-14.78-25.11-1.06-2.73,12.76-19.51,14.64-17,2.37,3.16,8.74,20.72,9.41,25.51C210,131.88,205.6,139.89,199.42,139.06Z"/><path class="cls-9" d="M187.83,122.63l17-16.56s4.84,14.25,4.39,20.22-2.53,12.78-9.73,13.16C194.15,139.73,187.83,122.63,187.83,122.63Z"/><path class="cls-5" d="M193.34,134.09c-.62-.87-1.16-1.78-1.7-2.7s-1-1.86-1.51-2.81-.92-1.92-1.31-2.91a18,18,0,0,1-1-3q.67,1.44,1.41,2.85l1.43,2.83c.46.95.93,1.9,1.38,2.87S192.94,133.1,193.34,134.09Z"/><path class="cls-5" d="M191.5,125.51c.83-.9,1.73-1.75,2.61-2.6s1.77-1.71,2.67-2.55c1.8-1.67,3.6-3.34,5.43-5,.5-.45,1-.9,1.51-1.34s1.15-.88,1.69-1.35a0,0,0,0,1,.06.06c-.44.42-.81.9-1.24,1.33s-.89.88-1.35,1.31c-.89.85-1.78,1.7-2.68,2.53-1.79,1.68-3.6,3.35-5.45,5-1,.91-2.07,1.87-3.17,2.72C191.52,125.66,191.45,125.57,191.5,125.51Z"/><path class="cls-10" d="M160.37,83.33s3.09,7.86,4.1,8.77,9.7.4,9.89-.32-3.65-7.86-3.65-7.86a18.15,18.15,0,0,0-6-1.67A6.71,6.71,0,0,0,160.37,83.33Z"/><path class="cls-10" d="M161.09,83.85c.13.87,3.72,6.85,8.48,6.56,2.77-.17.88-5.69.88-5.69l2.39-7.55-9.12-7S161,83.48,161.09,83.85Z"/><path class="cls-5" d="M162.74,75.16a15.37,15.37,0,0,0,8.17,9.14l1.94-7.13-9.13-7S163.27,72.44,162.74,75.16Z"/><path class="cls-10" d="M183.61,66.57c.27,13-7.47,14.6-10.27,14.65-2.54,0-11.19-.1-12.8-13s4.34-17.1,10.14-17.52S183.34,53.6,183.61,66.57Z"/><path class="cls-5" d="M160.43,68.47c1.44,0,5.39-3.76,5.87-10.68,0,0-.86,6.19-1.38,7.07s2.21-2.1,2.68-7.68a22.54,22.54,0,0,0,5.57,3.28c2.6.88,4.22.94,4.42.76S174,59.61,173,58.34c0,0,6.85,3.64,10.07,4.06.37.05,1.23-7.62-3.6-11.16s-12.93-.43-15.17,1.52c0,0-2.53.22-5.44,3.77S158.88,68.48,160.43,68.47Z"/><path class="cls-10" d="M162.74,68.31s-2.56-4.22-4.46-3.34-.16,6.89,1.94,7.83a2.19,2.19,0,0,0,3-1Z"/><path class="cls-5" d="M158.82,66.68s0,0,0,.06a5.53,5.53,0,0,1,2.63,3.65,1.21,1.21,0,0,0-1.79-.45s0,.09,0,.08a1.36,1.36,0,0,1,1.45.57,6.57,6.57,0,0,1,.63,1.24c.06.14.31.09.27-.07s0,0,0,0C162.19,69.8,160.88,67,158.82,66.68Z"/><path class="cls-11" d="M174,89.94l-7.18,22.25c-.29.65,0,1.21.66,1.25l11.67.77a1.89,1.89,0,0,0,1.7-1.1L188,90.86c.29-.65,0-1.21-.66-1.25l-11.67-.76A1.86,1.86,0,0,0,174,89.94Z"/><path class="cls-12" d="M175.37,90l-7.18,22.25c-.28.65,0,1.21.67,1.25l11.67.76a1.88,1.88,0,0,0,1.7-1.09l7.18-22.25c.29-.65,0-1.21-.66-1.25l-11.68-.77A1.91,1.91,0,0,0,175.37,90Z"/><path class="cls-5" d="M178.51,91.26a1,1,0,1,1-2-.17,1,1,0,0,1,1.07-.9A1,1,0,0,1,178.51,91.26Z"/><path class="cls-10" d="M129.71,139.51c5.09.7,11.44-3.26,27.92-15.29,2.28-1.66-5.14-20.91-7.66-19.26-3.18,2.08-15.08,10.85-15.87,11.6C127.45,122.89,126.25,139,129.71,139.51Z"/><path class="cls-10" d="M144.08,110.78s4.69-6.58,8.23-9.27A28.61,28.61,0,0,1,165,96.38c4.94-.73,17.38.93,17.53,4.6.13,3.31-12.5,1-12.5,1s13.27.25,12.7,4.28-15.08.48-15.08.48,13.63.57,12.38,4.63c-.94,3.06-14.26.59-14.26.59s11.71.57,10.87,3.77c-.92,3.53-13.36,2-13.36,2-3.48,7.77-8.48,10-12.12,11.16C150.26,129.18,144.08,110.78,144.08,110.78Z"/><path class="cls-5" d="M165.43,101.58c1.56,0,3.14-.07,4.69,0s3.12.28,4.65.54a26.89,26.89,0,0,1,5.9,1.57,57.12,57.12,0,0,0-10.59-1.68c-1.56-.11-3.1-.3-4.66-.41C165.38,101.63,165.39,101.58,165.43,101.58Z"/><path class="cls-5" d="M164.92,107.19c2,0,4,0,6,.17s3.85.45,5.81.73c.15,0,.09.09-.06.08-2-.2-3.82-.23-5.8-.41s-4-.42-5.92-.52C164.88,107.24,164.89,107.19,164.92,107.19Z"/><path class="cls-5" d="M163.62,111.93a44.93,44.93,0,0,1,9.1,1c.15,0,.06.12-.09.1-3-.38-5.39-.7-9-.95C163.56,112,163.55,111.93,163.62,111.93Z"/><path class="cls-9" d="M144.08,108.17l6.49,23.65s-17.41,10.26-21.26,7.55-1.33-16.38,3-21.59C134.15,115.61,144.08,108.17,144.08,108.17Z"/><path class="cls-5" d="M144.3,109l-.26-.78.07,0c-1.65,1.34-3.3,2.68-4.93,4s-3.26,2.71-4.81,4.14a25.81,25.81,0,0,0-2.21,2.23,19.6,19.6,0,0,0-1.75,2.59,20,20,0,0,0-2.1,5.94A16.67,16.67,0,0,1,130,121a15.25,15.25,0,0,1,1.73-2.72,24.49,24.49,0,0,1,2.23-2.32c1.58-1.44,3.23-2.78,4.91-4.09s3.41-2.54,5.18-3.72l.05,0v.06Z"/><path class="cls-5" d="M140.27,114c.39,1.16.69,2.36,1,3.54s.65,2.38,1,3.57c.6,2.38,1.19,4.76,1.75,7.16.16.65.31,1.31.45,2s.21,1.42.37,2.12c0,.06-.07.08-.08,0-.16-.58-.4-1.14-.57-1.72s-.35-1.21-.51-1.81c-.31-1.19-.62-2.38-.92-3.57-.61-2.38-1.2-4.77-1.73-7.17-.3-1.35-.64-2.71-.86-4.08A.07.07,0,0,1,140.27,114Z"/><path class="cls-5" d="M150.57,131.82c.12.23.11,0,.09-.1s-.3-1.28-.55-2c0-.08-.13-.21-.1.05C150.11,130.38,150.57,131.82,150.57,131.82Z"/><path class="cls-4" d="M237.79,93.25H199.35a3.84,3.84,0,0,1-3.84-3.84h0a3.83,3.83,0,0,1,3.84-3.83h38.44a3.83,3.83,0,0,1,3.84,3.83h0A3.84,3.84,0,0,1,237.79,93.25Z"/><path class="cls-13" d="M237.79,93.61H199.35a4.2,4.2,0,1,1,0-8.39h38.44a4.2,4.2,0,1,1,0,8.39Zm-38.44-7.68a3.49,3.49,0,0,0,0,7h38.44a3.49,3.49,0,0,0,0-7Z"/><path class="cls-13" d="M235.19,91.86a2.71,2.71,0,1,1,2.71-2.71A2.71,2.71,0,0,1,235.19,91.86Zm0-4.08a1.37,1.37,0,1,0,1.37,1.37A1.37,1.37,0,0,0,235.19,87.78Z"/><path class="cls-13" d="M237.76,92.39a.69.69,0,0,1-.48-.2l-1.12-1.12a.68.68,0,0,1,0-.95.66.66,0,0,1,.94,0l1.13,1.13a.67.67,0,0,1-.47,1.14Z"/><path class="cls-8" d="M145.91,54.38a.88.88,0,0,1-.72-.37l-2.87-4h-24.9a4,4,0,0,1-4-4V39.21a4,4,0,0,1,4-4h28.71a4,4,0,0,1,4,4V46a4,4,0,0,1-3.33,3.94v3.55a.89.89,0,0,1-.62.85A.84.84,0,0,1,145.91,54.38ZM117.42,36.55a2.67,2.67,0,0,0-2.66,2.66V46a2.67,2.67,0,0,0,2.66,2.66h25a1.17,1.17,0,0,1,.94.48l2.11,3V49.78a1.15,1.15,0,0,1,1-1.14A2.67,2.67,0,0,0,148.79,46V39.21a2.67,2.67,0,0,0-2.66-2.66Z"/><path class="cls-8" d="M142.82,44.36a1.77,1.77,0,1,1,1.77-1.77A1.76,1.76,0,0,1,142.82,44.36Zm0-2.19a.43.43,0,1,0,0,.85.43.43,0,1,0,0-.85Z"/><path class="cls-8" d="M137.3,44.36a1.77,1.77,0,1,1,1.76-1.77A1.77,1.77,0,0,1,137.3,44.36Zm0-2.19a.43.43,0,1,0,.43.42A.42.42,0,0,0,137.3,42.17Z"/><path class="cls-8" d="M131.78,44.36a1.77,1.77,0,1,1,1.76-1.77A1.77,1.77,0,0,1,131.78,44.36Zm0-2.19a.43.43,0,1,0,.42.42A.42.42,0,0,0,131.78,42.17Z"/><path class="cls-8" d="M126.25,44.36A1.77,1.77,0,1,1,128,42.59,1.76,1.76,0,0,1,126.25,44.36Zm0-2.19a.43.43,0,1,0,0,.85.43.43,0,1,0,0-.85Z"/><path class="cls-8" d="M120.73,44.36a1.77,1.77,0,1,1,1.76-1.77A1.77,1.77,0,0,1,120.73,44.36Zm0-2.19a.43.43,0,1,0,.43.42A.42.42,0,0,0,120.73,42.17Z"/></g></g></svg>