<svg xmlns="http://www.w3.org/2000/svg" viewBox="0 0 336.51 177.35"><defs><style>.cls-1{fill:#038d71;}.cls-2{fill:#eb6654;}.cls-3{fill:var(--azul-igac);}.cls-4{fill:#fdf6e6;}.cls-5{fill:#1e4a93;}.cls-6{fill:#1a2e35;}.cls-7{fill:#face33;}.cls-8{fill:#5045b1;}</style></defs><g id="Capa_2" data-name="Capa 2"><g id="Especificaciones"><rect class="cls-1" width="336.51" height="177.35"/><path class="cls-2" d="M117.93,102.17c0-29.89,34.44-73.55,59.35-54.13,19.74,15.4,59.36,24.24,59.36,54.13s-26.58,54.13-59.36,54.13S117.93,132.07,117.93,102.17Z"/><path class="cls-3" d="M171.08,58.22a31.52,31.52,0,0,1-14.63,26.63h0A31.14,31.14,0,0,1,145,89.26a32.2,32.2,0,0,1-5.41.47A31.33,31.33,0,0,1,119,82a31.76,31.76,0,0,1-4.12-4.32,31.55,31.55,0,0,1-2-36.06,30.3,30.3,0,0,1,1.78-2.58,31.38,31.38,0,0,1,25-12.35,33.4,33.4,0,0,1,3.49.19,31.46,31.46,0,0,1,28,31.31Z"/><path class="cls-4" d="M145,89.26a32.2,32.2,0,0,1-5.41.47A31.33,31.33,0,0,1,119,82a1.81,1.81,0,0,0,.42-.16,3.55,3.55,0,0,0,1.36-1.36c1.11-1.72,1.64-3.75,2.63-5.53s2.7-3.44,4.74-3.39a3.81,3.81,0,0,1,3.57,3.29c.17,1.56-.66,3-1,4.56s0,3.54,1.54,4a4,4,0,0,0,2.38-.37c2.32-.83,4.95-1.4,7.16-.33S145.24,86.62,145,89.26Z"/><path class="cls-4" d="M143.12,26.91a4.09,4.09,0,0,1-.92,1.43c-3.52,3.57-10.29,2.62-13.15,6.74-1,1.49-1.32,3.38-2.28,4.92s-3.16,2.63-4.54,1.45c-.64-.54-.92-1.45-1.61-1.93-1-.7-2.37-.21-3.58,0a3.11,3.11,0,0,1-2.39-.48,31.38,31.38,0,0,1,25-12.35A33.4,33.4,0,0,1,143.12,26.91Z"/><path class="cls-4" d="M171.08,58.22a31.52,31.52,0,0,1-14.63,26.63h0a5.13,5.13,0,0,1-1.23.12,3.86,3.86,0,0,1-3.37-3.22,5.68,5.68,0,0,1,1.52-4.62c.78-.88,1.77-1.55,2.62-2.37a4.88,4.88,0,0,0,1.7-3,2.4,2.4,0,0,0-1.86-2.62,3.58,3.58,0,0,0-1.33.19,24,24,0,0,0-6.95,2.62,7.8,7.8,0,0,1-1.69,1,4.07,4.07,0,0,1-2.27,0,6.55,6.55,0,0,1-4.72-4.82c-.24-1.08-.2-2.2-.4-3.29a3.7,3.7,0,0,0-1.68-2.71c-1.36-.71-3.38-.15-4.24-1.41a2.62,2.62,0,0,1,.28-2.79,12.1,12.1,0,0,0,1.56-2.52,3.19,3.19,0,0,0-.75-3.16c-.61-.62-1.46-1-2-1.62a3.69,3.69,0,0,1-.43-3.84,8.85,8.85,0,0,1,2.57-3.11A28.44,28.44,0,0,1,139.29,40a2.13,2.13,0,0,0,.93-.71c.4-.72-.2-1.56-.46-2.34a3.67,3.67,0,0,1,.89-3.51,8.35,8.35,0,0,1,3.15-2.05,24.59,24.59,0,0,1,8.74-1.88A31.51,31.51,0,0,1,171.08,58.22Z"/><path class="cls-4" d="M112.68,62.47c-1.67,1.79-2.33,4.88-.63,6.65.44.46,1,.79,1.44,1.24,1.16,1.19,1.38,3,1.38,4.67,0,.88,0,1.79,0,2.68a31.55,31.55,0,0,1-2-36.06,1.64,1.64,0,0,1,1.19-.09,1.67,1.67,0,0,1,1,1.63,4.79,4.79,0,0,1-.59,1.9c-.57,1.25-1.15,2.48-1.72,3.73a3.34,3.34,0,0,0-.46,2.26A2.35,2.35,0,0,0,115,52.43a9.37,9.37,0,0,0,3-1.51,4.48,4.48,0,0,1,3.16-.9c1.92.38,2.76,2.91,2,4.73s-2.5,3-4.24,3.89C116.74,59.76,114.36,60.67,112.68,62.47Z"/><path class="cls-4" d="M118.94,64.14a4.14,4.14,0,0,0,.49,4.58,1.46,1.46,0,0,0,1,.54c.63,0,1.07-.59,1.61-.92,1.5-.89,3.41.43,5.12.12a3.17,3.17,0,0,0,2.44-3.08C129.68,59.6,121,59.93,118.94,64.14Z"/><path class="cls-5" d="M165.92,30.76a7.75,7.75,0,0,0-2.73-7.46,7.58,7.58,0,0,0-11.95,8.09h-.06l.09.15a9.58,9.58,0,0,0,1.95,3.87l5,7,5.06-6A12,12,0,0,0,165.92,30.76Z"/><path class="cls-4" d="M161.51,33.13a4.73,4.73,0,1,1,1.89-3.8,4.74,4.74,0,0,1-1.89,3.8"/><path class="cls-5" d="M257.51,81.7a38.93,38.93,0,0,0-43.09-31.39,37.24,37.24,0,0,0-4.24.77,38.8,38.8,0,0,0-29.6,40.33l-2.45.3L180,106.56,192.85,105l14-1.76,7.31-.92h0l19.82-2.5,5.73-.72,23-2.9L260.74,81.3ZM246.8,83.06l-15.74,2-5.73.72-.34,0A5,5,0,0,0,215.33,87l-24.06,3a26.61,26.61,0,0,1,.18-4.56,6.59,6.59,0,0,1,.1-.76s0,0,0,0c0-.25.07-.51.12-.76a27.17,27.17,0,0,1,1.61-5.59c.06-.19.14-.37.22-.56a.8.8,0,0,1,.08-.16l.24-.56a27.6,27.6,0,0,1,2.75-4.65,2.49,2.49,0,0,1,.21-.32l.24-.31a3.81,3.81,0,0,1,.24-.32,29.23,29.23,0,0,1,3.68-3.87s.05,0,.06-.06l.54-.43.06-.06a27.72,27.72,0,0,1,5.19-3.35l.12,0,.58-.3.11,0h0a30.29,30.29,0,0,1,3.18-1.22,27.57,27.57,0,0,1,3.89-.93l.77-.13.33,0,.47,0a27.38,27.38,0,0,1,6.07,0l.78.09a27.71,27.71,0,0,1,5.39,1.3c.24.08.48.16.72.26a27.25,27.25,0,0,1,5.15,2.58c.23.14.45.29.67.44a28.46,28.46,0,0,1,5,4.27c.19.19.36.39.54.59a28.44,28.44,0,0,1,3.94,5.89c.12.24.23.49.35.73A27.71,27.71,0,0,1,246.8,83.06Z"/><path class="cls-6" d="M214.94,57l.51,4-.77.12-.51-4.05a.39.39,0,0,1,.33-.44A.39.39,0,0,1,214.94,57Z"/><path class="cls-6" d="M223.84,57.27,223.1,61l-.78-.1.75-3.83a.4.4,0,0,1,.46-.31A.41.41,0,0,1,223.84,57.27Z"/><path class="cls-6" d="M230.68,59.44l-1.47,3.15c-.24-.1-.48-.18-.73-.26L230,59.1a.39.39,0,1,1,.7.34Z"/><path class="cls-6" d="M237,63.68,235,65.61l-.67-.44,2-2.05a.38.38,0,0,1,.55,0A.39.39,0,0,1,237,63.68Z"/><path class="cls-6" d="M242.78,69.23l-2.25,1.24c-.18-.2-.35-.4-.54-.59l2.42-1.33a.39.39,0,0,1,.53.16A.38.38,0,0,1,242.78,69.23Z"/><path class="cls-6" d="M246.65,76.3a.39.39,0,0,1-.3.46l-1.53.33c-.12-.24-.23-.49-.35-.72l1.71-.37A.39.39,0,0,1,246.65,76.3Z"/><path class="cls-6" d="M207.6,63.32l-.11,0c-.19.1-.39.19-.58.3l-1.71-3.56a.39.39,0,0,1,.71-.33Z"/><path class="cls-6" d="M201.54,67.13l-.53.43-.07.06-2.78-3.38a.39.39,0,0,1,.6-.5Z"/><path class="cls-6" d="M197,71.8l-.24.32c-.08.11-.16.22-.22.32l-4-2.36a.41.41,0,0,1-.13-.54.39.39,0,0,1,.54-.13Z"/><path class="cls-6" d="M193.57,77.64a1.22,1.22,0,0,1-.07.17c-.08.18-.16.37-.23.56l-4.41-1.13a.38.38,0,0,1-.28-.47.4.4,0,0,1,.47-.29Z"/><path class="cls-6" d="M191.55,84.72v0c0,.25-.07.51-.1.76l-4.52.18a.38.38,0,0,1-.4-.38.39.39,0,0,1,.37-.41Z"/><path class="cls-7" d="M175.76,94.58c-2.93,8.83-16.06,36.9-21.58,38.86-5.74,2-27.92,4.58-32.84.7-2.41-1.9-3.25-22.19,0-21.7s22.81,1.22,25.13.39,17.87-23.46,24.18-28.94C181.53,74.45,177.35,89.82,175.76,94.58Z"/><path class="cls-1" d="M126.26,112.1l.32,25.28s22.75.06,28.81-3.12,18.88-32.42,22.08-43.6-1.92-12.91-10.06-4.7-20.4,25.4-21.85,25.75S126.26,112.1,126.26,112.1Z"/><path class="cls-6" d="M132.89,124.58c0-2-.15-10-.33-12,0,0-.06,0-.06,0-.19,1.93-.3,9.83-.28,11.84a109.21,109.21,0,0,0,.44,12c0,.07.13.09.13,0C133.09,132.49,132.93,128.53,132.89,124.58Z"/><path class="cls-1" d="M204.52,140.19a9.79,9.79,0,0,1-10.35,11.19c-16.39-1.11-43.71-3-44-3.45-.65-.86,16.91-57.24,21.31-65.52,1.88-3.53,10.85-4,14.39-.7,8.88,8.35,15.06,35.35,16.36,43.44C203.05,130.4,203.85,135.69,204.52,140.19Z"/><path class="cls-7" d="M193.3,88.11c14.73,16.26,31.33,43.68,24.23,49.54-6.49,5.35-30.19.26-45.08-5.56-2.84-1.11,8.66-26.19,11.55-24.7a81.85,81.85,0,0,0,9.43,4.24c.82.22-3.66-5.25-8.65-18.39C179.71,79.87,184.88,78.82,193.3,88.11Z"/><path class="cls-7" d="M147.8,105.52c0,2.91,7.18,2.34,7.18,2.34a5.38,5.38,0,0,0-2.19,2.93c-.55,2.15,2.59,3.94,2.59,3.94a6.63,6.63,0,0,0-1.82,3.46c-.31,2.11,2.59,4.37,2.59,4.37a5.83,5.83,0,0,0,.32,4c1.71,3.32,7.45,3.39,11,4.13a76,76,0,0,1,11.65,3.71l6.59-26.19s-15.39-9.14-19.7-8.93C162.39,99.5,147.82,101.06,147.8,105.52Z"/><path class="cls-6" d="M155,107.78a48.88,48.88,0,0,1,11.8-1.45.07.07,0,0,1,0,.14c-3.9.1-7.88,1.24-11.77,1.49A.09.09,0,0,1,155,107.78Z"/><path class="cls-6" d="M155.48,114.44a10.17,10.17,0,0,1,2.7-.15c1,0,1.92,0,2.87.08q2.88.13,5.75.41c.08,0,.09.14,0,.14q-2.87-.14-5.73-.15l-2.88,0a12.19,12.19,0,0,1-2.7-.09A.14.14,0,0,1,155.48,114.44Z"/><path class="cls-6" d="M156.23,122.56a7.4,7.4,0,0,1,2.44,0l2.62.16c1.74.1,3.49.19,5.24.23.08,0,.09.14,0,.14-1.78,0-3.55,0-5.33-.08l-2.62-.08a6.92,6.92,0,0,1-2.36-.28A0,0,0,0,1,156.23,122.56Z"/><path class="cls-1" d="M180.73,136.14s35.27,9.2,38.93.28c2-4.8-3.13-16.61-10.11-28a1.74,1.74,0,0,1-.11-.18l-.15-.23-.14-.23A141.94,141.94,0,0,0,201,96l-.3-.39a66.18,66.18,0,0,0-10.06-10.73c-12-9.46-7.47,5.43-7.11,6.63.11.37.26.79.43,1.25l.21.54c1,2.52,2.61,5.9,4.17,9l.19.38.06.12a1.14,1.14,0,0,0,.1.19c2,4,3.86,7.38,4,7.59L186.4,108Z"/><path class="cls-6" d="M187,108c4.05,1.42,14.67,6.72,17,8.89.07.06,0,.18-.08.12-2.3-1.61-15.42-8-17.47-8.82,0,0-.1.25-.14.32s-.12,0-.12,0a4.4,4.4,0,0,1,.15-.69Z"/><path class="cls-6" d="M190,123.75c.38-2,1.85-9.84,2.07-11.82,0,0,0-.05-.06,0-.58,1.85-2.26,9.58-2.64,11.55a108.42,108.42,0,0,0-2,11.85c0,.07.1.11.12,0C188.64,131.54,189.28,127.63,190,123.75Z"/><path class="cls-6" d="M192.93,110.8c-1.11-2.4-2.46-4.69-3.67-7s-2.47-4.66-3.6-7c0,0-.07,0,0,0,.68,1.62,1.37,3.23,2.1,4.82-.22-.25-.43-.51-.64-.77-.37-.48-.71-1-1-1.49,0,0-.07,0-.05,0a7.65,7.65,0,0,0,1,1.59,11.61,11.61,0,0,0,.94,1c.3.65.61,1.29.94,1.93a49.45,49.45,0,0,0,3.69,6.89C192.57,110.87,193,110.87,192.93,110.8Z"/><path class="cls-6" d="M204.63,140.11c-4.16-.05-19.88-3.14-23.77-3.93,0-.42,0-.56.11-1.14,0-.08-.11-.12-.13,0-.11.56-.48,1.66-.32,1.72,1.86.73,20,3.91,24.12,3.57A.09.09,0,0,0,204.63,140.11Z"/><polygon class="cls-6" points="162.31 137.26 133.04 141.2 121.94 100.53 151.2 96.59 162.31 137.26"/><polygon class="cls-6" points="160.87 137.46 131.6 141.4 120.5 100.73 149.76 96.79 160.87 137.46"/><path class="cls-7" d="M120.79,109.11c-1.22,3.42-4.71,7.88-4.75,10.58a3.1,3.1,0,0,0,2,3.08s-2.53,1.6-2.17,4c.19,1.27,2.37,2.08,2.37,2.08a3.71,3.71,0,0,0-1.52,3.54c.37,1.72,2.5,2.28,2.5,2.28s-1.28,2.2-.34,3.83c1.89,3.33,16.94,1.8,18.71-4,.82-2.7-2.84-2.13-2.84-2.13s5.06-2.09,4.82-5.2-4.94-2.08-4.94-2.08,4.89-2.08,4.32-5.28-5.13-1.49-5.13-1.49,3.12-2.61,2.12-5c-1.65-3.88-7.48,1.81-10.86,1.36l-2.39-5.27Z"/><path class="cls-7" d="M118.26,114.16c.87-3.34-3.53-6.91-3.15-10.23.5-4.48,5.88-.68,7.62,5.58l.51,5.1Z"/><path class="cls-6" d="M119.58,134.86s0,.07,0,.08a26.28,26.28,0,0,0,15.41-2.5c.15-.08.09-.36-.09-.3A53.92,53.92,0,0,1,119.58,134.86Z"/><path class="cls-6" d="M118.21,128.94c-.06,0-.06.1,0,.11a24.56,24.56,0,0,0,16.65-3.78c.17-.11.2-.39,0-.27C131.42,127,123.1,128.86,118.21,128.94Z"/><path class="cls-6" d="M134.14,118c-4.84,3.08-10.18,4.31-15.85,4.78-.07,0-.06.11,0,.12,2.83.52,6.41-.15,9.16-.91a15.13,15.13,0,0,0,6.79-3.83C134.32,118.12,134.24,118,134.14,118Z"/><path class="cls-6" d="M170.42,84.57s0,0,0,0c-.11,2.53-.19,8.38,3.76,8a8.45,8.45,0,0,0,4.22-2.2,22.5,22.5,0,0,0,3.29-3.47,32.88,32.88,0,0,0,3-4.44c0-.06.13,0,.09.07a52.64,52.64,0,0,1-2.71,4.65A19,19,0,0,1,178.6,91a8.3,8.3,0,0,1-4.49,2.16,3.19,3.19,0,0,1-3.29-2.34A14.06,14.06,0,0,1,170.42,84.57Z"/><path class="cls-7" d="M174.31,90c2.85.25,7.52-5.09,8.89-8.78.09-.25-.63-2.66-1.36-5.64-.44-1.8-.89-3.83-1.16-5.7L169.34,74.4a30.27,30.27,0,0,1,2.19,7,5.37,5.37,0,0,1,0,.79v.13C171.54,83.84,171.56,89.71,174.31,90Z"/><path class="cls-6" d="M171.56,82.22v.12a7.7,7.7,0,0,0,1.22-.1c6.78-1.15,7.17-9.71,7.13-12.1l-2.83,1.14-7.74,3.12a30.11,30.11,0,0,1,2.18,7A3.46,3.46,0,0,1,171.56,82.22Z"/><path class="cls-7" d="M182,57c1.18,4.25-1.35,16.36-4.42,19-4.44,3.83-11.56,4-14.77-1.28-3.11-5.14.47-20.86,3.88-23.24C171.69,48,180.24,50.74,182,57Z"/><path class="cls-6" d="M164.34,55c.69-1,1.44-1.9,2.12-2s.76,1.56,2.18,2c1.92.55,3.25-1,6-.64,4,.57,5,4.21,3.89,9.78-1,5,1.91,6.08,1.91,6.08s4.17-10.53,1.87-14.82-9-7.4-14.52-5C165.8,51.32,164.34,55,164.34,55Z"/><path class="cls-7" d="M178.41,67.46s2.93-3.8,4.67-2.74-.59,6.66-2.72,7.35a2.13,2.13,0,0,1-2.8-1.28Z"/><path class="cls-6" d="M182.37,66.31s0,0,0,0a5.39,5.39,0,0,0-2.93,3.25,1.17,1.17,0,0,1,1.77-.25s0,.09,0,.08a1.32,1.32,0,0,0-1.47.39A6.19,6.19,0,0,0,179,71c-.07.13-.31,0-.25-.1v0C178.78,69,180.35,66.4,182.37,66.31Z"/><path class="cls-8" d="M171.76,48.93a18.18,18.18,0,0,1,5.17-.69c1.95.06,7.91,1.47,9.16,2.91s.75,7.18.66,8-1.26,5.81-3.27,6.73-.84-7.63-3.27-10.92S171.76,48.93,171.76,48.93Z"/><path class="cls-8" d="M182.19,70.89c.19-2.31-1.16-8.76-3-12.63s-8.69-7-9.7-7.13c-2.44-.24-3.16.83-3.51.55s2.51-2.64,3.25-3a8,8,0,0,1,3.48-.31c1.05.19,7.44,1.86,9.37,5s4,11.42,3.12,13.31c-.22.45-.91.66-1.21,1.3-.41.85-.76,1.84-1.12,2.42S182.17,71.09,182.19,70.89Z"/><path class="cls-6" d="M178.84,56.6a11.57,11.57,0,0,0,1.75-.9,8.2,8.2,0,0,0,1.57-1.23s.1,0,.06.05a6.6,6.6,0,0,1-1.47,1.42,5.66,5.66,0,0,1-1.88.79A.07.07,0,0,1,178.84,56.6Z"/><path class="cls-6" d="M182.57,68.62a4.8,4.8,0,0,1,.32-.43,2.78,2.78,0,0,0,.3-.53,4.91,4.91,0,0,1,.43-1.06,4.25,4.25,0,0,1,.66-.68,1.54,1.54,0,0,0,.59-.85,0,0,0,0,1,.08,0c-.11.69-.65,1.11-1,1.64a6.7,6.7,0,0,0-.5,1.13,1.8,1.8,0,0,1-.75.86S182.54,68.67,182.57,68.62Z"/><path class="cls-6" d="M182.17,66a9.58,9.58,0,0,0,.76-.67,6.53,6.53,0,0,0,.62-.77c.19-.27.36-.55.54-.82s.48-.61.68-.94c0,0,.08,0,.06.05-.21.34-.36.71-.56,1.06a7.19,7.19,0,0,1-.58.86,5.81,5.81,0,0,1-.66.74,2.65,2.65,0,0,1-.84.53S182.15,66.05,182.17,66Z"/><path class="cls-6" d="M181.69,63.68a7,7,0,0,0,1.46-1.2c.41-.46.8-.95,1.17-1.44,0,0,.09,0,.07,0a7.41,7.41,0,0,1-1.06,1.6,3.45,3.45,0,0,1-.69.63,4.25,4.25,0,0,1-.91.44S181.65,63.71,181.69,63.68Z"/><path class="cls-6" d="M181.13,61.41a2.06,2.06,0,0,0,.69-.52c.24-.22.47-.45.7-.69l.65-.67a2.29,2.29,0,0,0,.54-.77,0,0,0,0,1,.07,0,2.25,2.25,0,0,1-.4.84,6.4,6.4,0,0,1-.65.81,7.06,7.06,0,0,1-.76.69,1.46,1.46,0,0,1-.82.39C181.1,61.51,181.07,61.43,181.13,61.41Z"/><path class="cls-6" d="M180.9,58.61c.24-.18.48-.35.71-.54l.67-.6c.22-.22.46-.43.67-.66,0,0,.08,0,.06,0a6.66,6.66,0,0,1-.55.76,8.54,8.54,0,0,1-1.4,1.2,2.24,2.24,0,0,1-.82.4s-.08,0-.05-.08A3.65,3.65,0,0,1,180.9,58.61Z"/><path class="cls-6" d="M177.3,55a7.77,7.77,0,0,1,.82-.7,8.23,8.23,0,0,1,.92-.62,10.5,10.5,0,0,1,2-.91s.08,0,0,.07c-1.22.75-2.47,1.45-3.69,2.22A0,0,0,0,1,177.3,55Z"/><path class="cls-6" d="M176.23,52.87a4.93,4.93,0,0,1,.88-.61,10.79,10.79,0,0,1,2.12-.78c.05,0,.08.05,0,.07-.65.3-1.31.59-1.94.93a8.51,8.51,0,0,0-.92.54c-.29.2-.53.46-.82.67a0,0,0,0,1,0,0A2.7,2.7,0,0,1,176.23,52.87Z"/><path class="cls-6" d="M174.47,51.68a5.6,5.6,0,0,1,.83-.62,5.89,5.89,0,0,1,1.81-.71,0,0,0,0,1,0,.07,12.39,12.39,0,0,0-1.74.89l-.82.55a9,9,0,0,1-.8.58s0,0,0,0A5.59,5.59,0,0,1,174.47,51.68Z"/><path class="cls-6" d="M173.28,50.33l.83-.44a3.17,3.17,0,0,1,.86-.32s.05.06,0,.08c-.53.29-1.05.6-1.56.91a8.22,8.22,0,0,0-1.27,1.09s0,0,0,0A2.93,2.93,0,0,1,173.28,50.33Z"/><path class="cls-6" d="M171.63,49.7A4.77,4.77,0,0,1,173.3,49s.06.06,0,.08a5.76,5.76,0,0,0-1.55.82,7.62,7.62,0,0,0-1.3,1.18s-.06,0,0,0A3.86,3.86,0,0,1,171.63,49.7Z"/><path class="cls-6" d="M169.23,50.37l.25-.32a3.93,3.93,0,0,1,.61-.54,8.07,8.07,0,0,1,1.44-.79,0,0,0,1,1,0,.07,7,7,0,0,0-1.36.83,5.88,5.88,0,0,0-.59.53,3.47,3.47,0,0,0-.25.29,2.43,2.43,0,0,1-.24.3s-.07,0-.06,0A.94.94,0,0,1,169.23,50.37Z"/><path class="cls-6" d="M167.85,50.27c.15-.15.32-.3.49-.44a4.91,4.91,0,0,1,.55-.38c.19-.12.39-.23.58-.36a0,0,0,1,1,0,.07,4.39,4.39,0,0,0-.56.4l-.5.41-.5.41c-.17.14-.32.31-.5.43,0,0-.06,0,0-.05A2.87,2.87,0,0,1,167.85,50.27Z"/></g></g></svg>