<svg xmlns="http://www.w3.org/2000/svg" viewBox="0 0 336.51 177.35"><defs><style>.cls-1{fill:#f2a742;}.cls-2{fill:var(--azul-igac);}.cls-3{fill:#038d71;}.cls-4{fill:#6bdbb7;}.cls-5{fill:#1a2e35;}.cls-6{fill:#f5b968;}.cls-7{fill:#b57d32;}.cls-8{fill:#ececec;}.cls-9{fill:#5045b1;}.cls-10{fill:#eb6654;}.cls-11{fill:#fff;}.cls-12{fill:#face33;}.cls-13{fill:#dcdcdc;}</style></defs><g id="Capa_2" data-name="Capa 2"><g id="Especificaciones"><rect class="cls-1" width="336.51" height="177.35"/><path class="cls-2" d="M107.24,107.77c19-24.4,7.62-60.87,37.19-69.9A56,56,0,0,1,177.14,145C147.57,154,79.19,143.8,107.24,107.77Z"/><rect class="cls-3" x="118.58" y="60.21" width="20.78" height="20.79" rx="6.59"/><rect class="cls-3" x="118.58" y="33" width="20.78" height="20.79" rx="6.59"/><rect class="cls-4" x="118.58" y="87.96" width="20.78" height="20.79" rx="6.59"/><polygon class="cls-5" points="127.53 76.83 120.1 69.4 123.15 66.35 127.53 70.73 141.45 56.82 144.49 59.86 127.53 76.83"/><polygon class="cls-5" points="127.53 49.29 120.1 41.87 123.15 38.82 127.53 43.2 141.45 29.28 144.49 32.33 127.53 49.29"/><rect class="cls-5" x="118.43" y="96.56" width="21.83" height="4.31" transform="translate(-31.92 120.37) rotate(-45)"/><rect class="cls-5" x="126.99" y="87.6" width="4.31" height="21.83" transform="translate(-31.84 120.18) rotate(-45)"/><rect class="cls-6" x="166.38" y="37.08" width="77.39" height="48.83"/><rect class="cls-7" x="166.38" y="37.08" width="77.39" height="4.3"/><rect class="cls-8" x="174.97" y="49.94" width="37.14" height="0.84"/><rect class="cls-9" x="213.52" y="49.94" width="4.37" height="0.84"/><rect class="cls-8" x="220.51" y="61.17" width="4.37" height="0.84"/><rect class="cls-10" x="218.84" y="49.94" width="14.72" height="0.84"/><rect class="cls-10" x="212.93" y="61.17" width="6.55" height="0.84"/><rect class="cls-10" x="216.44" y="56.68" width="11.6" height="0.84"/><rect class="cls-10" x="190.1" y="54.43" width="29.28" height="0.84"/><rect class="cls-9" x="218.35" y="52.18" width="19.16" height="0.84"/><rect class="cls-8" x="195.61" y="52.18" width="21.79" height="0.84"/><rect class="cls-8" x="227.43" y="54.43" width="7.44" height="0.84"/><rect class="cls-9" x="213.31" y="65.67" width="17.51" height="0.84"/><rect class="cls-9" x="191.91" y="63.42" width="24.39" height="0.84"/><rect class="cls-8" x="192.44" y="58.93" width="25.45" height="0.84"/><rect class="cls-9" x="218.84" y="58.93" width="16.52" height="0.84"/><rect class="cls-9" x="189.94" y="56.68" width="25.43" height="0.84"/><rect class="cls-10" x="190.1" y="72.05" width="29.28" height="0.84"/><rect class="cls-9" x="218.35" y="69.8" width="19.16" height="0.84"/><rect class="cls-8" x="195.61" y="69.8" width="21.79" height="0.84"/><rect class="cls-8" x="227.43" y="72.05" width="7.44" height="0.84"/><rect class="cls-8" x="192.44" y="76.54" width="25.45" height="0.84"/><rect class="cls-9" x="189.94" y="74.3" width="25.43" height="0.84"/><path class="cls-11" d="M170.3,39.26a.95.95,0,1,1-1.89,0,.95.95,0,0,1,1.89,0Z"/><path class="cls-11" d="M174.15,39.26a.95.95,0,1,1-.94-.94A.95.95,0,0,1,174.15,39.26Z"/><path class="cls-11" d="M178,39.26a.94.94,0,1,1-.94-.94A.95.95,0,0,1,178,39.26Z"/><path class="cls-5" d="M158.56,107.4a31.27,31.27,0,0,0,5.71,3.8c-2.82-5.13-1.31-16.08-1.06-14.47,1.22,7.65,5.8,16.3,7.79,16.87h0a26.2,26.2,0,0,0,14.78-1.48s0,0,0,0c-3.71-5.85-2.51-17-2.28-16.3,2.41,7.54,8.4,12.33,9.51,12.42h0c4.41-3.12,6.9-6.39,6.35-6.79-4-2.9-7-9.78-9.65-17h0c-2.6-7.12-3.57-17.49-7.54-24-3.64-5.94-11.84-7.7-16.8-5.24C152.4,61.67,156.1,105.36,158.56,107.4Z"/><path class="cls-5" d="M166.3,54.82a8.18,8.18,0,0,0-2.91,1.75A17.15,17.15,0,0,0,161.14,59,28.4,28.4,0,0,0,158,64.62c-1.72,3.92-2.66,11.81-3.14,16a66.3,66.3,0,0,0,0,12.6c.09,1,.24,2.09.36,3.14l.46,3.12.6,3.11.7,3.09-.49-3.12L156,99.42l-.35-3.12c-.08-1-.19-2.09-.24-3.13a72.34,72.34,0,0,1,.17-12.49c.41-4.15,1.36-12,2.91-15.88a28.91,28.91,0,0,1,2.93-5.62,17,17,0,0,1,2.08-2.49,12,12,0,0,1,1.28-1.06A6,6,0,0,1,166.3,54.82Z"/><path class="cls-5" d="M200,100.34a52.37,52.37,0,0,1-3.22-4.67c-1-1.59-1.95-3.21-2.8-4.86s-1.64-3.33-2.31-5-1.29-3.46-1.94-5.19c-1.33-3.45-2.6-10.63-4.16-14-.79-1.69-1.62-3.37-2.57-5a24.4,24.4,0,0,0-1.58-2.37,7.2,7.2,0,0,0-2.11-2,7.4,7.4,0,0,1,1.93,2.1,21.77,21.77,0,0,1,1.41,2.42c.88,1.64,1.63,3.34,2.35,5,1.44,3.41,2.71,10.58,4,14,.67,1.73,1.3,3.46,2,5.18A42.83,42.83,0,0,0,193.44,91,51.71,51.71,0,0,0,200,100.34Z"/><path class="cls-12" d="M168.71,97.61c3.4,7.63,16.69,32.21,24.89,33.68,5.39,1,26.9-1.9,30.43-7.14,1.54-2.28-1.76-17.7-4.61-17s-20.08,3.63-22.23,3.09S178.45,92,172.34,87.61C161.8,80.13,166.88,93.5,168.71,97.61Z"/><path class="cls-10" d="M212.84,106.29l1.3,23.3s-17,3.73-24.41,1.17c-9-3.11-22.18-31-24-35.58-3-7.53-2.14-12.09,2.06-11,1.63.42,3.78,1.7,6.41,4s18.54,18.06,23.53,21C200.53,110.9,212.84,106.29,212.84,106.29Z"/><path class="cls-5" d="M209.89,129.23c-.3-3.44-1-17.54-.93-20.6,0-.21.14-.26.16,0a185.31,185.31,0,0,1,.9,20.62A.07.07,0,1,1,209.89,129.23Z"/><path class="cls-10" d="M150.46,131.85l31-.07-2.58-16s3.69-4.48,3-9.34c-.77-5.32-10.37-18.81-11.17-19.57-3.25-3-6.69-3.6-10-2.5h0C151.9,89.89,144.61,105,140,116.68A11.14,11.14,0,0,0,150.46,131.85Z"/><path class="cls-5" d="M175.8,93.31c.9,1.5,1.9,3,2.84,4.43-.38-1-.75-2.1-1.17-3.13,0,0,0,0,0,0a22.45,22.45,0,0,1,1.62,3.9A30.84,30.84,0,0,1,181,102a14,14,0,0,1,1.27,4.56,11.75,11.75,0,0,1-.67,4.7,29.83,29.83,0,0,1-2.36,5c-.12.21-.41,0-.32-.2,1.33-2.82,2.79-5.79,2.66-9S180,101,178.53,98.21a45,45,0,0,0-2.83-4.84C175.65,93.31,175.76,93.24,175.8,93.31Z"/><path class="cls-13" d="M190.54,128.45l-.93,5.3H219a3.59,3.59,0,0,0,3.4-2.89l.42-2.41Z"/><path class="cls-8" d="M187.23,130.86l.42-2.41h5.78l-.43,2.41a3.59,3.59,0,0,1-3.39,2.89,2.41,2.41,0,0,1-1.9-.84A2.51,2.51,0,0,1,187.23,130.86Z"/><path class="cls-13" d="M200.1,90.64l-7.6,43.11H219a3.59,3.59,0,0,0,3.4-2.89L230,87.75H203.49a3.44,3.44,0,0,0-2.19.84A3.57,3.57,0,0,0,200.1,90.64Z"/><path class="cls-8" d="M203.49,87.75,202,96.46h32.29l1-5.82a2.36,2.36,0,0,0-2.38-2.89Z"/><path class="cls-13" d="M200.1,90.64l-1,5.82h5.78l1-5.82a2.35,2.35,0,0,0-2.38-2.89,3.44,3.44,0,0,0-2.19.84A3.57,3.57,0,0,0,200.1,90.64Z"/><path class="cls-12" d="M226.11,104.42c1.08,3.08,4.2,7.09,4.23,9.51a2.78,2.78,0,0,1-1.85,2.76s2.26,1.44,1.93,3.65c-.17,1.13-2.13,1.85-2.13,1.85a3.32,3.32,0,0,1,1.34,3.18c-.33,1.55-2.25,2-2.25,2s1.14,2,.3,3.44c-1.71,3-15.22,1.54-16.78-3.65-.72-2.43,2.56-1.9,2.56-1.9s-4.54-1.9-4.31-4.69,4.44-1.85,4.44-1.85-4.37-1.88-3.85-4.75,4.61-1.32,4.61-1.32-2.79-2.35-1.88-4.46c1.49-3.48,6.7,1.65,9.74,1.26l2.16-4.72Z"/><path class="cls-12" d="M228.37,109c-.77-3,3.19-6.19,2.87-9.16-.44-4-5.28-.64-6.87,5l-.47,4.57Z"/><path class="cls-5" d="M227.09,127.53s.06.07,0,.07a23.6,23.6,0,0,1-13.83-2.3c-.13-.08-.07-.32.09-.27A48.29,48.29,0,0,0,227.09,127.53Z"/><path class="cls-5" d="M228.35,122.23c.05,0,.05.09,0,.09a22,22,0,0,1-14.93-3.45c-.15-.11-.18-.35,0-.24C216.5,120.45,224,122.14,228.35,122.23Z"/><path class="cls-5" d="M214.1,112.37c4.33,2.79,9.12,3.91,14.2,4.35.07,0,0,.1,0,.11a20,20,0,0,1-8.22-.85,13.66,13.66,0,0,1-6.08-3.46C213.93,112.45,214,112.31,214.1,112.37Z"/><path class="cls-12" d="M163.09,84.1c.06.82,3,6.54,6.69,6.93,1.19.12,2.16-6.33,2.16-6.33l.18-.46,2.52-6.44-7.06-6.23-1-.84s-.57,1.81-1.27,4.06c0,.11-.06.21-.09.33a2.53,2.53,0,0,0-.12.36c-.11.34-.22.68-.32,1s-.15.51-.23.79-.15.55-.22.82A45.13,45.13,0,0,0,163.09,84.1Z"/><path class="cls-5" d="M165.28,74.79a13.87,13.87,0,0,0,6.84,9.45l2.52-6.44-7.06-6.23-1-.84S166,72.54,165.28,74.79Z"/><path class="cls-12" d="M185.88,70.14c-1.6,12-9,12.42-11.58,12.08-2.35-.32-10.33-1.69-10-13.82s6.44-15.19,11.86-14.75S187.47,58.11,185.88,70.14Z"/><path class="cls-5" d="M165.17,68.55c2.77.57,3.61-3.82,3.61-3.82s3.21.33,4.43-4.72a7.87,7.87,0,0,0,5.08,4.83c.88.31-1.7-2.63-1.7-2.63s3,4,10,4.07c.5,0,1.44-7.36-3.39-10.82a12.32,12.32,0,0,0-14.36-.27s-3.79,1.33-4.94,4.92S164.09,68.33,165.17,68.55Z"/><path class="cls-10" d="M174.43,74a4,4,0,1,1,5.11-3.79h0a4,4,0,0,1-4.12,3.93A3.53,3.53,0,0,1,174.43,74Zm2-7.24a4,4,0,0,0-.86-.13,3.5,3.5,0,1,0,.86.13Z"/><path class="cls-10" d="M183.56,75.42c-1.48-.41-2.4-2.31-2.08-4.38a4.84,4.84,0,0,1,1.28-2.65,2.51,2.51,0,0,1,4.24.67,4.79,4.79,0,0,1,.4,2.91c-.34,2.19-2,3.76-3.58,3.51A2,2,0,0,1,183.56,75.42Zm1.62-7.32-.2,0a2.14,2.14,0,0,0-1.84.71A4.3,4.3,0,0,0,182,71.12c-.29,1.9.55,3.62,1.89,3.83s2.67-1.17,3-3.07a4.26,4.26,0,0,0-.35-2.58A2.2,2.2,0,0,0,185.18,68.1Z"/><path class="cls-10" d="M179.33,70.69l-.28-.46c.68-.41,2.19-.87,3,.32l-.44.3C180.88,69.78,179.39,70.66,179.33,70.69Z"/><path class="cls-10" d="M161.45,68.93l-.43-.31c.15-.21,1.48-2,2.7-2s8.16,1.79,8.46,1.86L172,69c-2-.51-7.44-1.84-8.32-1.84S161.81,68.45,161.45,68.93Z"/><path class="cls-12" d="M166.11,69.58s-1.77-4.27-3.65-3.73-1.13,6.34.68,7.51a2,2,0,0,0,2.92-.48Z"/><path class="cls-5" d="M162.72,67.51a0,0,0,0,0,0,0,5.2,5.2,0,0,1,1.91,3.75,1.13,1.13,0,0,0-1.59-.67,0,0,0,0,0,0,.08,1.26,1.26,0,0,1,1.26.73,6,6,0,0,1,.41,1.24c0,.14.27.12.26,0v0C165.39,70.87,164.57,68.11,162.72,67.51Z"/><path class="cls-8" d="M171.84,84.91l-1.69,5.54-7.24-6.21-1.7,2.34s7.43,10.22,7.43,9.73l1.81-4.81,3.47,2.94-.95-8Z"/><path class="cls-5" d="M173.67,90.44c-.2-1.33-.36-2.66-.62-4,0,0-.09-.06-.1,0-.15,1.31.64,6.36.74,7.58h0c-.14-.13-3.19-2.58-3.22-2.53-.41.77-1.75,4.27-1.83,4.59-1.18-1.62-6.12-8-7.48-9.51a0,0,0,0,0-.08,0c1.07,1.73,7.47,10.15,7.55,10.12a53.24,53.24,0,0,0,1.9-5.08,34.27,34.27,0,0,0,3.62,3.14A42.58,42.58,0,0,0,173.67,90.44Z"/><path class="cls-12" d="M160.69,95.45c-2.81,12.1-10.78,25.65-15.82,29.63-3.06,2.42-12.89,2.44-13.33-3.91S150.39,94.89,153.23,91,163.23,84.53,160.69,95.45Z"/><path class="cls-10" d="M160.69,95.45c-2.81,12.1-10.78,25.65-15.82,29.63-3.06,2.42-12.89,2.44-13.33-3.91S150.39,94.89,153.23,91,163.23,84.53,160.69,95.45Z"/><path class="cls-5" d="M136.38,126a13.09,13.09,0,0,0,4,0,10.89,10.89,0,0,0,3.68-1.32c2.41-1.38,4-3.73,5.45-6q2.36-3.8,4.41-7.76c1.37-2.65,2.63-5.35,3.85-8.07.61-1.37,1.17-2.76,1.76-4.14s1.14-2.75,1.64-4.15c.13-.35.25-.71.37-1.06,0,0,.07,0,.06,0-.46,1.45-.89,2.91-1.38,4.35-.07.18-.13.37-.2.55.51-1.08,1-2.15,1.57-3.22,0-.06.12,0,.1.06-.49,1.1-1,2.2-1.51,3.28l-.78,1.61c-.24.66-.5,1.33-.76,2q-1.69,4.25-3.77,8.3t-4.45,8c-1.46,2.39-3,4.84-5.4,6.44a10.27,10.27,0,0,1-7.72,1.56,6.11,6.11,0,0,1-1-.28A.06.06,0,0,1,136.38,126Z"/><path class="cls-12" d="M141.08,77.41c2-4.88,5.26-11.57,7.45-12.58s10.53-4.47,12.7-4.65,9.86,2.08,11.25,3.44c1.11,1.09-.82,3.7-5.2,3.32-4.1-.35-5.06-.63-6.24-.45s-4.72,3-4.4,4.76c.18,1,2.56,2.78,4.41,2.46s3-2.13,5.25-3.19,5.58,0,5.54.94-1.25,1.09-3.75,3.71c-1.6,1.68-2.76,5-6.12,7.77a60.72,60.72,0,0,0-5,5.34Z"/><path class="cls-12" d="M148.53,64.83c2.26-2.11,7.55-5.61,12-6.12,3-.35,11.32,6.71,10.58,8.45s-2.37,1.34-4.69.43c-.85-.33-5-3.18-6.08-2.41-1.49,1.1-4.16,5.5-4.16,5.5Z"/><path class="cls-5" d="M171.09,66.4c-.68-2.25-3-4-5.34-5.42,0,0-.07,0,0,.05.6.38,4.28,3.38,5.34,5.39C171.06,66.44,171.09,66.42,171.09,66.4Z"/><path class="cls-12" d="M148.53,64.83c2.26-2.11,7.55-5.61,12-6.12,3-.35,9,7.49,8.26,9.24s-3.1,1.28-5.45-.27c-.75-.51-3-3.19-4.07-2.42-1.49,1.1-5.15,3.85-5.15,3.85Z"/><path class="cls-5" d="M156.3,67.38l.85-.78c.37-.32.74-.64,1.12-.94a3.76,3.76,0,0,1,1.09-.68,1.94,1.94,0,0,1,1.19.07,6.84,6.84,0,0,1,2.18,1.72,7.92,7.92,0,0,0,3.65,2.14,2.69,2.69,0,0,0,1.13,0,1.7,1.7,0,0,0,.76-.35c.84-.83.4-2.15-.13-3.14A17.86,17.86,0,0,0,164,60.66l-1.18-1a4.11,4.11,0,0,0-1.51-.88,7.7,7.7,0,0,0-3.25.47s-.06-.05,0-.07c.67-.21,2.39-1,3.87-.54a4.81,4.81,0,0,1,1.44.93c.46.36.92.74,1.36,1.12a22.39,22.39,0,0,1,2.43,2.44A9.16,9.16,0,0,1,168.89,66a2.71,2.71,0,0,1-.53,2.73,2.35,2.35,0,0,1-1.92.46,4.85,4.85,0,0,1-1.19-.31,20,20,0,0,1-2.38-1.42c-.73-.54-1.33-1.28-2.1-1.75a1.64,1.64,0,0,0-1.24-.23,4.29,4.29,0,0,0-1.12.59,13.31,13.31,0,0,0-2,1.42C156.26,67.6,156.15,67.52,156.3,67.38Z"/><path class="cls-12" d="M146.77,66.73c.9-1,3.17-5.75,4.51-7s7.07-5.41,9.05-4.65c2.49.94-1.37,4.87-3.2,6.43s-2.44,4.84-2.44,4.84Z"/><path class="cls-5" d="M159.81,58.82c-.63.48-1.23,1-1.81,1.57A16.33,16.33,0,0,0,156.37,62a7.08,7.08,0,0,0-1,2A9.93,9.93,0,0,0,155,65c-.11.39-.17.79-.28,1.18,0,0,.05.07.06,0a17.24,17.24,0,0,1,.83-2,9.47,9.47,0,0,1,1.18-2c.95-1.19,2.13-2.16,3.09-3.33C159.92,58.84,159.85,58.78,159.81,58.82Z"/><path class="cls-5" d="M160.12,73.69a3.27,3.27,0,0,0,2.33-.79c.61-.45,1.19-.94,1.79-1.39a7.7,7.7,0,0,1,1.95-1.15,9.15,9.15,0,0,1,2.49-.42,4.91,4.91,0,0,1,2.4.35c.62.29,1.26.93.93,1.68a3,3,0,0,1-.69.87,7.19,7.19,0,0,1-.85.7,21.37,21.37,0,0,0-1.81,1.31,11.62,11.62,0,0,0-1.81,2.37c-.21.31-1.52,2.39-2,3.09a12.47,12.47,0,0,1-1.4,1.68,15.72,15.72,0,0,1-1.62,1.31,10.93,10.93,0,0,0-1.68,1.51s-.06,0,0,0a9.27,9.27,0,0,1,2.83-2.71c1.35-1,4.34-6.15,4.88-6.85.9-1.17,2.27-1.73,3.31-2.74.23-.23.59-.57.59-.93a1,1,0,0,0-.62-.79,4.19,4.19,0,0,0-2.35-.27,10.65,10.65,0,0,0-2.39.39,7.8,7.8,0,0,0-1.92,1c-.67.47-1.32,1-2,1.37a3.28,3.28,0,0,1-2.29.51S160.08,73.69,160.12,73.69Z"/><path class="cls-5" d="M171.19,63c-.54-.26-1.07-.55-1.62-.8,0,0,0,0,0,0,.65.25,1.32.47,2,.72a2.05,2.05,0,0,1,1.27,1,1.53,1.53,0,0,1-.3,1.49,4.12,4.12,0,0,1-1.43,1s-.05,0,0,0c.78-.46,2-1.37,1.36-2.42A2.82,2.82,0,0,0,171.19,63Z"/><path class="cls-5" d="M168.56,68.22a3.36,3.36,0,0,0,1.85-.32,1.4,1.4,0,0,0,.55-.58,1.45,1.45,0,0,0,.12-.42.66.66,0,0,0-.06-.44s0-.06,0,0,.07.15.1.24a.72.72,0,0,1,.05.21,1,1,0,0,1,0,.43,1.38,1.38,0,0,1-.54.76,2.34,2.34,0,0,1-2.08.19A0,0,0,0,1,168.56,68.22Z"/><path class="cls-12" d="M156.93,88.28c-1.34,4.86-11.56,30.74-14.42,34.4s-9.74,4.44-11.67-2.17,8.12-38.16,10.24-43.1C142.26,74.66,157.42,86.53,156.93,88.28Z"/><path class="cls-10" d="M159.17,91.55,139.1,79.92s-8.57,29.44-8.73,38.52c-.11,6.51,7.7,11.38,13.87,2.57S159.17,91.55,159.17,91.55Z"/><path class="cls-5" d="M156.43,95.13c-3-1.63-15.24-8.76-17.77-10.48-.17-.12-.14-.26.06-.16A187.79,187.79,0,0,1,156.49,95C156.56,95.05,156.51,95.17,156.43,95.13Z"/><path class="cls-5" d="M150,110.74c2.12-4,4.15-8,6-12.12.51-1.15,1-2.31,1.5-3.47s1-2.24,1.37-3.38c-.42-.29-2.26-1.5-2.46-1.68a.09.09,0,0,1,.09-.14c.24.09,2.38,1.34,2.83,1.67.07,0-.84,2.27-1.26,3.33s-.84,2.11-1.28,3.16q-1.32,3.12-2.78,6.16c-1.05,2.19-2.15,4.35-3.32,6.48C149.68,112.57,147.27,115.86,150,110.74Z"/></g></g></svg>