<svg xmlns="http://www.w3.org/2000/svg" viewBox="0 0 107.55 119.66"><defs><style>.cls-1{fill:#3595e0;}.cls-2{fill:#f4a833;}.cls-3{fill:#b77e26;}.cls-4{fill:#0a2e4a;}.cls-5{fill:#fdeed6;}.cls-6{fill:#145c93;}.cls-7{opacity:0.41;}.cls-8{fill:#ffe7e1;}</style></defs><g id="Capa_2" data-name="Capa 2"><g id="Arte"><rect class="cls-1" width="107.55" height="119.66" rx="6.82"/><path class="cls-2" d="M67.58,94.49H15.63V32.38H66.46c17.07,0,25.09,6.81,25.09,16.32v.75c0,6.34-5.6,11.94-16.51,14.08,12,2,16.88,7.09,16.88,14.27v.74C91.92,87.59,84.46,94.49,67.58,94.49ZM59.75,54.67c0-2.8-1.78-3.92-6.63-3.92h-5v8.12h5c4.85,0,6.63-1.21,6.63-3.92Zm0,17.53c0-2.7-1.78-3.91-6.63-3.91h-5V76.4h5c4.85,0,6.63-1.12,6.63-3.92Z"/><path class="cls-3" d="M25.1,42.18V89.69H23.88V42.18a.61.61,0,0,1,1.22,0Z"/><path class="cls-4" d="M25.1,81.21v3.37a2.23,2.23,0,0,1-.39.09,4.26,4.26,0,0,1-.83.06V81.1A2.65,2.65,0,0,1,25.1,81.21Z"/><path class="cls-4" d="M25.1,46.08v3.38a2.23,2.23,0,0,1-.39.09,4.26,4.26,0,0,1-.83.06V46A2.65,2.65,0,0,1,25.1,46.08Z"/><path class="cls-5" d="M25.1,44l-1,0h-.19a21.66,21.66,0,0,0-4.06.42.71.71,0,0,0,.15,1.4l.14,0a20.33,20.33,0,0,1,3.77-.39h.19l1,0A19.92,19.92,0,0,1,42.59,72.63s0,0,0,0a1,1,0,0,1,0,.1,20,20,0,0,1-9.84,10.48l-.13.07a19.82,19.82,0,0,1-7.46,1.87c-.34,0-.69,0-1,0h-.19a20.33,20.33,0,0,1-3.77-.4.71.71,0,0,0-.29,1.38,20.86,20.86,0,0,0,4.06.42h.19c.34,0,.69,0,1,0a21.28,21.28,0,0,0,8.49-2.22l.12-.07h0A21.49,21.49,0,0,0,43.55,74l0-.09s0,0,0,0A21.34,21.34,0,0,0,25.1,44Z"/><polygon class="cls-3" points="33.63 94.49 15.95 94.49 18.34 92.77 18.41 92.72 23.88 88.8 24.63 88.25 25.1 88.58 30.26 92.15 30.32 92.2 32.55 93.74 32.69 93.83 33.63 94.49"/><path class="cls-6" d="M41.55,65v.33a17.93,17.93,0,0,1-.6,4.24s0,.09,0,.13a17.33,17.33,0,0,1-2.86,5.79.47.47,0,0,1-.09.12c-.25.33-.52.66-.8,1-.08.09-.15.18-.23.26a17.52,17.52,0,0,1-3.14,2.69l-.4.26h0l-.15.1c-.43.27-.87.51-1.33.74l-.2.1a17.32,17.32,0,0,1-6,1.67h-.15c-.5,0-1,.07-1.51.07h-.2l-.6,0h-.15a17.53,17.53,0,0,1-2.83-.38L20,82a16.34,16.34,0,0,1-2.43-.76,14.69,14.69,0,0,1-1.4-.64A.65.65,0,0,1,16,80.5a17.17,17.17,0,0,1-3.19-2.12l-.37-.33a15.17,15.17,0,0,1-1.34-1.32l-.1-.11a17.5,17.5,0,0,1-3.46-5.88s0-.09-.05-.13a17.74,17.74,0,0,1-.92-5.29V65a17.58,17.58,0,0,1,1.06-6,1.12,1.12,0,0,0,0-.13,17.59,17.59,0,0,1,4.13-6.33l.11-.11a18.65,18.65,0,0,1,1.73-1.47l.53-.37a17.45,17.45,0,0,1,1.72-1l.54-.27.21-.1a17.15,17.15,0,0,1,4.51-1.4l.3,0a16.84,16.84,0,0,1,2-.18h.56c.53,0,1,0,1.55.07l.17,0a17.71,17.71,0,0,1,2.73.48l.27.08h0a15.2,15.2,0,0,1,2.09.73l.19.08a18.21,18.21,0,0,1,3.27,1.87,17.07,17.07,0,0,1,2,1.75h0l.19.18.1.12.07.07a17.58,17.58,0,0,1,3.74,6l0,.14A17.35,17.35,0,0,1,41.55,65Z"/><g class="cls-7"><rect class="cls-8" x="6.6" y="65.18" width="34.95" height="0.14"/><path class="cls-8" d="M24,47.52V82.47h-.13V47.52Z"/><path class="cls-8" d="M19,59.94a32.36,32.36,0,0,0-.24,5.24v.14c0,1.23.15,2.48.31,3.74,0,0,0,.09,0,.14.18,1.31.42,2.65.74,4,.12.53.25,1,.39,1.57a.65.65,0,0,0,0,.13,39,39,0,0,0,1.41,4.2l.06.13a33,33,0,0,0,1.52,3.22h-.15a32.35,32.35,0,0,1-1.51-3.19.5.5,0,0,1-.05-.13,39,39,0,0,1-1.42-4.2.74.74,0,0,0,0-.14c-.13-.5-.26-1-.39-1.55-.31-1.36-.56-2.7-.74-4,0,0,0-.09,0-.14-.17-1.26-.27-2.52-.32-3.75v-.14a33.72,33.72,0,0,1,.25-5.25V59.8s0-.07,0-.11a28.69,28.69,0,0,1,1.36-5.75.65.65,0,0,1,0-.13,27,27,0,0,1,1.73-3.91l.07-.13a24.05,24.05,0,0,1,1.39-2.24h.17a22.26,22.26,0,0,0-1.41,2.24l-.07.14a26,26,0,0,0-1.74,3.91s0,.09-.05.13a30.05,30.05,0,0,0-1.36,5.76s0,.06,0,.09S19,59.89,19,59.94Z"/><path class="cls-8" d="M20.29,82.06,20,82a14,14,0,0,1-1.8-2l-.09-.12a20.68,20.68,0,0,1-2.34-4.26,1.12,1.12,0,0,1,0-.13c-.24-.57-.46-1.16-.66-1.78a33.09,33.09,0,0,1-1.07-4,.59.59,0,0,1,0-.13,27.79,27.79,0,0,1-.52-4.27s0-.09,0-.14a24.26,24.26,0,0,1,.41-5.56.61.61,0,0,1,0-.13c.06-.33.13-.65.21-1a19.92,19.92,0,0,1,2.07-5.13s.05-.09.07-.13A18.37,18.37,0,0,1,19,49.64h0l.12-.12a15.59,15.59,0,0,1,2.06-1.76l.3,0a16.35,16.35,0,0,0-2.19,1.83l-.12.12h0a17.76,17.76,0,0,0-2.78,3.62l-.08.13a20.15,20.15,0,0,0-2.08,5.14c-.08.31-.15.63-.21,1l0,.13a24.18,24.18,0,0,0-.4,5.55v.14a28.82,28.82,0,0,0,.52,4.25l0,.13a31.43,31.43,0,0,0,1.06,4c.21.62.43,1.22.66,1.79l.06.13a19.67,19.67,0,0,0,2.35,4.25l.08.12A14,14,0,0,0,20.29,82.06Z"/><path class="cls-8" d="M11.74,76.54c.34.64.71,1.25,1.1,1.84l-.37-.33c-.31-.47-.59-1-.86-1.47l-.06-.12a23.72,23.72,0,0,1-1.9-4.86c-.1-.39-.2-.79-.29-1.18l0-.14q-.2-.93-.33-1.89c-.05-.32-.08-.64-.11-1h0c-.08-.71-.12-1.41-.13-2.11v-.14a23.18,23.18,0,0,1,.66-6l0-.13a20.65,20.65,0,0,1,1.35-3.75,17.69,17.69,0,0,1,1.55-2.67.94.94,0,0,1,.09-.12,17.24,17.24,0,0,1,1.24-1.58l.53-.37a17.15,17.15,0,0,0-1.63,2l-.09.12a19,19,0,0,0-1.57,2.7,20.64,20.64,0,0,0-1.33,3.7l0,.13a23.15,23.15,0,0,0-.67,6v.14c0,.64,0,1.3.12,2H9c0,.36.07.72.12,1.09.09.64.2,1.27.34,1.89a.61.61,0,0,0,0,.13c.09.41.18.81.3,1.21a23.1,23.1,0,0,0,1.88,4.82A1.34,1.34,0,0,0,11.74,76.54Z"/><path class="cls-8" d="M29.21,65.18s0,.09,0,.14c0,1.14-.11,2.28-.23,3.41,0,0,0,.09,0,.14a52.6,52.6,0,0,1-.81,5.28l0,.13c-.32,1.51-.69,3-1.14,4.47,0,0,0,.09,0,.14-.36,1.18-.76,2.35-1.21,3.5h-.15c.45-1.15.86-2.33,1.22-3.52l0-.13c.44-1.47.83-3,1.14-4.46l0-.14a52.16,52.16,0,0,0,.81-5.28c0-.05,0-.09,0-.14.11-1.13.19-2.27.23-3.41v-.14A49.7,49.7,0,0,0,29,60a.71.71,0,0,1,0-.14c-.07-1-.18-2.08-.32-3.11-.11-.79-.24-1.66-.44-2.58a.5.5,0,0,0,0-.13,20.56,20.56,0,0,0-1.35-4.26l-.06-.13a14.39,14.39,0,0,0-1.15-2.06l.17,0a14.9,14.9,0,0,1,1.12,2l.06.13A20.94,20.94,0,0,1,28.32,54l0,.13c.19.92.33,1.79.43,2.57.14,1,.25,2.08.32,3.13,0,0,0,.09,0,.13Q29.29,62.58,29.21,65.18Z"/><path class="cls-8" d="M35.05,65.18v.14A36.12,36.12,0,0,1,34.8,69a.57.57,0,0,1,0,.13,50.59,50.59,0,0,1-.92,5.28l0,.14s0,.09,0,.13a35.57,35.57,0,0,1-1.44,4.85l0,.12c-.13.34-.27.67-.42,1l-.19.1c.18-.38.33-.76.48-1.13h0s0-.08,0-.13a35.26,35.26,0,0,0,1.44-4.82l0-.14s0-.1,0-.15a49.68,49.68,0,0,0,.91-5.26s0-.09,0-.13c.14-1.26.22-2.47.24-3.64a.66.66,0,0,0,0-.14,29.27,29.27,0,0,0-.41-5.47l0-.13a1.57,1.57,0,0,0,0-.23,23,23,0,0,0-1.84-5.62h0l-.06-.12a19.94,19.94,0,0,0-2.83-4.29l-.1-.11a14.28,14.28,0,0,0-1.08-1.12l.27.08h0c.33.32.65.65,1,1l.1.12a19.73,19.73,0,0,1,2.82,4.3l.06.13a22.86,22.86,0,0,1,1.84,5.6,2.17,2.17,0,0,0,0,.25.59.59,0,0,1,0,.13A28.6,28.6,0,0,1,35.05,65.18Z"/><path class="cls-8" d="M39.17,65.18v.14a37.64,37.64,0,0,1-.3,4,.51.51,0,0,1,0,.13,34.54,34.54,0,0,1-1.28,5.88.5.5,0,0,1,0,.13c-.11.38-.24.74-.37,1.11-.08.09-.15.18-.23.26.16-.46.32-.93.47-1.4a.93.93,0,0,0,0-.13,35.52,35.52,0,0,0,1.28-5.86.57.57,0,0,0,0-.13,37.65,37.65,0,0,0,.3-4v-.14c0-.81,0-1.62,0-2.45a31.16,31.16,0,0,0-.34-3.38.59.59,0,0,0,0-.13,19.75,19.75,0,0,0-1.6-5.4c-.14-.3-.29-.6-.46-.89l-.06-.12h0l-.12-.21.19.19h.06a.75.75,0,0,1,.07.12l0,.08a8.36,8.36,0,0,1,.4.79,20.18,20.18,0,0,1,1.62,5.44.69.69,0,0,0,0,.13q.24,1.59.33,3.39C39.17,63.55,39.18,64.37,39.17,65.18Z"/><path class="cls-8" d="M31.07,49c-.4.12-.81.22-1.22.31a.66.66,0,0,1-.15,0,25.91,25.91,0,0,1-2.73.45h-.14c-.91.1-1.86.15-2.83.16h-.31l-1.49,0h-.15c-.93,0-1.89-.12-2.87-.24h0l-.17,0h0c-.63-.07-1.27-.17-1.93-.27l-.6-.11.21-.1.41.07c.7.12,1.37.21,2,.29l.17,0c1,.11,1.91.19,2.82.23h.15c.54,0,1.07,0,1.6,0H24c.95,0,1.87-.06,2.77-.15h.14a25.17,25.17,0,0,0,2.69-.43l.15,0c.38-.08.76-.17,1.13-.27Z"/><path class="cls-8" d="M36.72,52.9h0l-.11,0a36.43,36.43,0,0,1-3.85.79h-.14a41.39,41.39,0,0,1-4.24.43h-.14l-.81,0c-.53,0-1.07,0-1.61,0L24,54.2h-.13c-1.14,0-2.29-.12-3.46-.24h-.13c-1.3-.13-2.61-.31-4-.53l-.14,0c-1.15-.2-2.32-.42-3.51-.68l-.18,0-.14,0-.51-.12.11-.11.48.11.15,0,.12,0c1.21.26,2.39.49,3.55.68l.15,0c1.33.22,2.64.4,3.92.53h.14c1.16.12,2.29.2,3.41.24H24c1.15,0,2.28,0,3.4,0l.78,0h.14c1.43-.08,2.84-.21,4.21-.42l.14,0a39.13,39.13,0,0,0,3.85-.78h0l.07,0h.06A.75.75,0,0,1,36.72,52.9Z"/><path class="cls-8" d="M40.55,59.15l-1.75.19h-.14c-1.34.14-2.68.26-4,.35H34.5c-1.8.13-3.59.22-5.38.28H29c-1.39,0-2.79.06-4.19.06h-.92c-1.62,0-3.23-.05-4.85-.12h-.13q-2.45-.1-4.89-.3h-.13c-1.44-.11-2.88-.25-4.31-.41l-.14,0L7.66,59s0-.09,0-.13l1.74.21h.14c1.44.17,2.87.3,4.31.42H14c1.62.13,3.25.23,4.87.3H19q2.41.11,4.83.12H24c1.66,0,3.31,0,5-.06h.13c1.8-.06,3.59-.15,5.37-.28h.14c1.34-.1,2.69-.21,4-.35h.14L40.5,59S40.53,59.1,40.55,59.15Z"/><path class="cls-8" d="M41,69.56s0,.09,0,.14l-2.06-.25h-.13c-1.31-.14-2.62-.25-3.93-.34h-.14c-1.89-.12-3.79-.2-5.69-.22h-.14c-1.61,0-3.21,0-4.82,0h-.13c-1.59,0-3.18.14-4.76.27H19c-1.61.13-3.22.29-4.82.49l-.14,0c-1.51.19-3,.42-4.51.67l-.14,0-1.79.32s0-.09-.05-.13l1.81-.33.14,0c1.5-.26,3-.48,4.52-.67l.13,0c1.61-.2,3.22-.37,4.84-.5h.13c1.59-.13,3.18-.21,4.78-.27H24c1.61-.06,3.23-.07,4.84-.06H29c1.9,0,3.8.1,5.7.23h.13c1.31.09,2.63.2,3.93.34h.14Z"/><path class="cls-8" d="M38.05,75.48a.31.31,0,0,1-.09.11l-.43-.13-.13,0a27.9,27.9,0,0,0-3.6-.78h-.13c-.76-.12-1.53-.2-2.32-.26-1.08-.08-2.16-.11-3.23-.1H28c-1.36,0-2.7.09-4,.19l-.13,0c-1.27.11-2.48.25-3.59.4l-.14,0-.77.11c-1.13.16-2.29.33-3.44.55l-.14,0a40.73,40.73,0,0,0-4,.94l-.14,0-.48.15-.1-.11.52-.16.13,0a41.11,41.11,0,0,1,4.06-.94l.13,0c1.17-.22,2.34-.4,3.48-.56l.75-.11h.14c1.12-.15,2.34-.3,3.63-.41H24c1.29-.11,2.63-.19,4-.2h.14c1.06,0,2.13,0,3.21.1.8.06,1.58.14,2.34.25l.14,0a28.65,28.65,0,0,1,3.6.78l.13,0Z"/><path class="cls-8" d="M32.36,79.5c.34.08.69.18,1,.28l-.14.1c-.31-.1-.62-.18-.93-.26l-.13,0h0a24.88,24.88,0,0,0-5.24-.7H26.8c-.92,0-1.86,0-2.8.08h-.13l-.6.06c-.51,0-1,.12-1.52.2l-.14,0a33.21,33.21,0,0,0-3.25.7l-.14,0c-.67.18-1.34.38-2,.6L16,80.51c.71-.24,1.41-.45,2.1-.64l.15,0c1.1-.29,2.2-.53,3.28-.71l.13,0,1.56-.21.62,0H24a24.62,24.62,0,0,1,2.84-.08H27a25.65,25.65,0,0,1,5.25.71Z"/></g><path class="cls-5" d="M31.53,63.31A3.8,3.8,0,0,0,32,63c.14-.14.36-.31.37-.47,0-.73,0-1.47,0-2.23h-1.6c-.49,0-1.08.13-1.45-.09s-.46-.77-.65-1.2a.45.45,0,0,0-.49-.28c-.91,0-1.82,0-2.72,0h-.8c0-.44,0-.83,0-1.21a.44.44,0,0,0-.29-.48c-.41-.18-.81-.4-1.25-.61.14-.28.28-.52.38-.78a2.72,2.72,0,0,1,1.07-1.3c.71-.49,1.4-1,2.1-1.55l.23-.2-.75-.78-3.09,1.86a2,2,0,0,1-1.4.44.71.71,0,0,0-.34.08c-.55.17-1.1.38-1.66.53-.32.09-.47.23-.41.56a2,2,0,0,1-.79,2c-.8.69-1.51,1.49-2.27,2.26a2,2,0,0,0,.19.21A4.24,4.24,0,0,1,17.72,63a4.64,4.64,0,0,1-.55,2.26c-.18.32-.33.52-.72.46a.41.41,0,0,0-.33.16c-.26.71-.49,1.42-.72,2.12a8.71,8.71,0,0,0,3.37.81,9.54,9.54,0,0,1,1.61.12A5.53,5.53,0,0,1,23.8,71l.06.06c.4.42,1,.75.76,1.55L27.41,72a.88.88,0,0,1,.42,0c.48.22,1,.46,1.44.71l-.76,1.54,1.55.78c0-1.16,0-2.24,0-3.31a4.26,4.26,0,0,0-.58-2.49A4.4,4.4,0,0,1,29.21,68H30v-.75l-.72,0v-1.5h3.06v1.52h.39l.32,0A4.17,4.17,0,0,0,31.53,63.31ZM16.53,67a3.11,3.11,0,0,1-.11.4A3.11,3.11,0,0,0,16.53,67Zm1.83-2.53a2.3,2.3,0,0,1-.23.7A2.3,2.3,0,0,0,18.36,64.47ZM20,55.76a.74.74,0,0,1,.05-.19A.74.74,0,0,0,20,55.76Zm.29-.4.41-.15Zm10.92,7.3a8.19,8.19,0,0,1-.73.71A8.19,8.19,0,0,0,31.23,62.66Zm-3.11-3a.49.49,0,0,0-.41-.19A.49.49,0,0,1,28.12,59.7Zm-4.27-1.83a1.07,1.07,0,0,1,0,.48A1.07,1.07,0,0,0,23.85,57.87Zm2.47,1.65h0Z"/><path class="cls-4" d="M6.46,77.4A2.85,2.85,0,0,0,5,79.92a2.82,2.82,0,0,0,3.58,2.56,2.72,2.72,0,0,0,1-.55,2.47,2.47,0,0,0,.51-.56,0,0,0,0,1,0,0l0-.06a3.65,3.65,0,0,0,.63-1.46l.77-3H8.65A4.42,4.42,0,0,0,6.46,77.4Z"/><path class="cls-2" d="M6.65,78.44a1.73,1.73,0,1,1-.2,2.44A1.74,1.74,0,0,1,6.65,78.44Z"/><path class="cls-8" d="M72,24.78a7,7,0,0,0-1.2,3.94v7.33h-.55L65.72,33.7a6,6,0,0,0,0,7.59l4.55-2.35h.55v7.33A7,7,0,0,0,72,50.21l.74.92a7.87,7.87,0,0,0,1.21,1l.74.43A8.14,8.14,0,0,0,75.9,53l.74.17a7.12,7.12,0,0,0,1.23.11V38.4l4.24-.1a1.06,1.06,0,0,0-1-1.06,1.8,1.8,0,0,0-1.73-1.31H77.87V21.67a7.12,7.12,0,0,0-1.23.11L75.9,22a7.18,7.18,0,0,0-1.19.47l-.74.43a7.29,7.29,0,0,0-1.21,1Z"/></g></g></svg>