<svg xmlns="http://www.w3.org/2000/svg" viewBox="0 0 107.55 119.66"><defs><style>.cls-1{fill:#5045b3;}.cls-2{fill:#0069b3;}.cls-3{fill:#f14a36;}.cls-4{fill:#143827;}.cls-5{fill:#8cc1e9;}.cls-6{fill:#f9da8a;}.cls-7{fill:#cf394b;}</style></defs><g id="Capa_2" data-name="Capa 2"><g id="Arte"><rect class="cls-1" width="107.55" height="119.66" rx="6.82"/><path class="cls-2" d="M65.41,96.28l-3.73-11.8H42.25l-4.31,11.8H8.84L37,28.5H71.25L100,96.28Zm-12.63-40L48.09,69h8.8Z"/><path class="cls-3" d="M65.41,96.28l-3.73-11.8H42.25l-4.31,11.8H8.84L37,28.5H71.25L100,96.28Zm-12.63-40L48.09,69h8.8Z"/><path class="cls-4" d="M28.59,75.21l.48,10s-7.69-5.69-7.16-10.33c0,0,.75-1.87,3.6-1.6S28.59,75.21,28.59,75.21Z"/><path class="cls-4" d="M37.25,72.56l4.49-7.71s-10.12-2.07-15.39,4.87Z"/><path class="cls-4" d="M12.8,81.49a45,45,0,0,1,7.53-1.9c5.75-.63,19.4-.21,24.26,14.8l-2.94,8.52s4.12-2.88,5.07-6.15l7.16,3.49-5.42-6.93S51.12,83,45.55,76,28.39,66.68,22.1,67.65s-10.49,4.41-10.35,8.29"/><path class="cls-5" d="M11.75,75.94s-.2.08-.51.24"/><path class="cls-4" d="M11.72,81.76A2.53,2.53,0,1,1,9.4,77.27l2.66-1.44,2.4,2.42-.09,2.42Z"/><path class="cls-6" d="M14.16,79.78c4.47-2.78,13.45-5.06,21.39-1.46,9.79,4.44,9,16.07,9,16.07-4.86-15-18.51-15.43-24.26-14.8C17,80,14,81.29,11.82,81.74a8.79,8.79,0,0,1,2.34-2"/><path class="cls-4" d="M36.2,78.94,34.43,89S28,81.58,29.59,77c0,0,1.17-1.7,4-.78S36.2,78.94,36.2,78.94Z"/><rect class="cls-4" x="88.15" y="35.66" width="2.81" height="2.81" transform="translate(0.02 74.18) rotate(-45)"/><rect class="cls-4" x="95.59" y="35.66" width="2.81" height="2.81" transform="translate(2.2 79.44) rotate(-45)"/><rect class="cls-4" x="65.84" y="35.66" width="2.81" height="2.81" transform="translate(-6.52 58.4) rotate(-45)"/><rect class="cls-4" x="73.28" y="35.66" width="2.81" height="2.81" transform="translate(-4.34 63.66) rotate(-45)"/><rect class="cls-4" x="80.71" y="35.66" width="2.81" height="2.81" transform="translate(-2.16 68.92) rotate(-45)"/><polyline class="cls-1" points="81.05 57.23 81.05 70.89 82.86 70.89 82.86 51.66"/><path class="cls-1" d="M89.36,57.23a8.3,8.3,0,0,0-8.31,8.3h0v2.62L96.74,57.23Z"/><path class="cls-4" d="M81.05,68.21V96.28h1.81V68.15h5.56a8.52,8.52,0,0,0,2.33-.33,6.84,6.84,0,0,0,.72-.25,7.5,7.5,0,0,0,.91-.42,8.63,8.63,0,0,0,1.33-.9,7.9,7.9,0,0,0,1.12-1.12,8.26,8.26,0,0,0,1.9-5.28V57.23Z"/><path class="cls-4" d="M81.05,63.31a7,7,0,0,0-7-7H67.76l13.29,9.26Z"/><path class="cls-1" d="M81.05,65.53,67.76,56.27v2.22a6.87,6.87,0,0,0,.32,2.09,7.54,7.54,0,0,0,.53,1.27,7.33,7.33,0,0,0,1.1,1.5,6.93,6.93,0,0,0,1.05.9l.44.29a7,7,0,0,0,3.6,1Z"/><path class="cls-7" d="M82.61,53.73A25.81,25.81,0,0,0,104.7,41.31H60.52A25.83,25.83,0,0,0,82.61,53.73Z"/></g></g></svg>