<svg xmlns="http://www.w3.org/2000/svg" xmlns:xlink="http://www.w3.org/1999/xlink" viewBox="0 0 107.55 119.66"><defs><style>.cls-1{fill:none;}.cls-2{fill:#57bd8d;}.cls-3{fill:#0069b3;}.cls-4{fill:#143827;}.cls-5{fill:#4981c2;}.cls-6{fill:#99c3e1;}.cls-7{clip-path:url(#clip-path);}</style><clipPath id="clip-path"><path class="cls-1" d="M67.27,74.86A26.62,26.62,0,0,0,41.12,96.55h52.3A26.61,26.61,0,0,0,67.27,74.86Z"/></clipPath></defs><g id="Capa_2" data-name="Capa 2"><g id="Arte"><rect class="cls-2" width="107.55" height="119.66" rx="6.82"/><path class="cls-3" d="M65.41,96.28l-3.73-11.8H42.25l-4.31,11.8H8.84L37,28.5H71.25L100,96.28Zm-12.63-40L48.09,69h8.8Z"/><path class="cls-4" d="M29.41,58.14v26H12V60l9.21-9.22S29.41,58.21,29.41,58.14Z"/><polyline class="cls-4" points="29.41 58.14 29.41 96.28 11.95 96.28 11.95 60.02"/><rect class="cls-4" x="41.4" y="64.61" width="2.34" height="4.48" transform="translate(85.14 133.69) rotate(-180)"/><rect class="cls-4" x="34.5" y="64.61" width="2.34" height="4.48" transform="translate(71.34 133.69) rotate(-180)"/><polygon class="cls-5" points="29.43 59.78 48.09 59.78 39.21 50.73 21.16 50.73 29.43 59.78"/><path class="cls-6" d="M44.24,61.75H20.36s.18-2.89,4.6-2.89a5.67,5.67,0,0,1,5.66-3.59A6.83,6.83,0,0,1,35.75,57S44.24,56,44.24,61.75Z"/><path class="cls-6" d="M67.27,75.52A25.68,25.68,0,0,0,42,96.44H92.5A25.66,25.66,0,0,0,67.27,75.52Z"/><g class="cls-7"><path class="cls-4" d="M39.09,88.67H80.15a2.74,2.74,0,0,1,0,5.47H73.41a3.22,3.22,0,0,0,0,6.43H89.47l-3.21,3.36H38S39.16,88.74,39.09,88.67Z"/><path class="cls-4" d="M91.25,75H66.16a2,2,0,0,0,0,4h5a2.38,2.38,0,0,1,0,4.76H43.32l2.38,2.48H92.06S91.2,75.09,91.25,75Z"/></g></g></g></svg>