<svg xmlns="http://www.w3.org/2000/svg" viewBox="0 0 107.55 119.66"><defs><style>.cls-1{fill:#57bd8d;}.cls-2{fill:#0069b3;}.cls-3{fill:#143827;}.cls-4{fill:#4981c2;}.cls-5{fill:#99c3e1;}</style></defs><g id="Capa_2" data-name="Capa 2"><g id="Fondo"><rect class="cls-1" width="107.55" height="119.66" rx="6.82"/><path class="cls-2" d="M67.58,94.49H15.63V32.38H66.46c17.07,0,25.09,6.81,25.09,16.32v.75c0,6.34-5.6,11.94-16.51,14.08,12,2,16.88,7.09,16.88,14.27v.74C91.92,87.59,84.46,94.49,67.58,94.49ZM59.75,54.67c0-2.8-1.78-3.92-6.63-3.92h-5v8.12h5c4.85,0,6.63-1.21,6.63-3.92Zm0,17.53c0-2.7-1.78-3.91-6.63-3.91h-5V76.4h5c4.85,0,6.63-1.12,6.63-3.92Z"/><path class="cls-3" d="M31.37,17.3,28,20.7a.39.39,0,0,0,0,.56.4.4,0,0,0,.56,0l3.39-3.39a.4.4,0,0,0,0-.57A.4.4,0,0,0,31.37,17.3Z"/><path class="cls-3" d="M28,14l-3.4,3.39a.4.4,0,0,0,0,.56.39.39,0,0,0,.56,0l3.4-3.39a.4.4,0,0,0,0-.56A.39.39,0,0,0,28,14Z"/><rect class="cls-4" x="27.6" y="5.22" width="16.27" height="9.88" rx="0.49" transform="translate(3.28 28.25) rotate(-45)"/><polygon class="cls-5" points="36.3 10.16 39.51 13.38 38.95 13.94 35.74 10.72 30.27 16.2 29.7 15.64 35.18 10.16 31.97 6.95 31.97 6.95 32.53 6.39 32.53 6.39 35.74 9.6 41.21 4.13 41.77 4.69 36.3 10.16"/><path class="cls-3" d="M14.55,28.57,18,25.18a.4.4,0,0,0,0-.56.39.39,0,0,0-.56,0L14,28a.4.4,0,0,0,0,.56A.39.39,0,0,0,14.55,28.57Z"/><path class="cls-3" d="M17.89,31.91l3.39-3.39a.4.4,0,0,0-.56-.56l-3.39,3.39a.4.4,0,1,0,.56.56Z"/><path class="cls-4" d="M24.79,31l0,0h0l.05,0h0l0,0h0l0,0h.71l.08,0h0l.07,0h0l.08,0h0l.09,0h0l.1,0h0l.1,0h0l.13-.05h0l.13-.06h0l.05,0h0l.07,0,0,0,.09,0h0l.08,0h0l.14-.09h0l.15-.09h0l.15-.1h0l.16-.11h0l.17-.12h0L28,30h0l.16-.13h0l.15-.13h0l.26-.23h0l.2-.18v0l.17-.16,0,0,.14-.15h0l.16-.18h0l.15-.17h0l.14-.16,0,0a1.83,1.83,0,0,1,.13-.16v0A1.83,1.83,0,0,0,30,28v0l.14-.18h0l.13-.18v0a1.37,1.37,0,0,0,.13-.2l0,0,0-.08,0,0,.06-.1v0l.07-.11h0a.75.75,0,0,0,.07-.12v0a1.09,1.09,0,0,0,.08-.15h0c0-.06.05-.11.07-.16l0,0,0-.05v0l0,0v0l0,0v0l0,0V26.2l0,0V24.82h0v0h0l0,0,4.38,4.38,0,0h0l0,0v.1l0,0v1.27l0,0v0l0,0v0l0,0v0l0,0v0l0,0v0h0c0,.06,0,.11-.08.16h0l-.08.16h0a.75.75,0,0,1-.07.12h0l-.07.12h0l-.06.1,0,0a.41.41,0,0,1-.05.09v0h0l-.14.2h0l-.13.18h0l-.14.18h0l-.13.17h0s-.09.1-.13.16h0l-.14.15h0l-.15.16h0a1.29,1.29,0,0,1-.16.17h0l-.14.15,0,0h0c-.06.06-.12.11-.17.17h0l-.2.19h0l-.26.23h0l-.15.13h0l-.16.13h0l-.17.12h0l-.17.12h0l-.16.11h0l-.16.1h0l-.15.09h0l-.15.09h0l-.08,0h0l-.09,0h0l-.06,0h0l-.06,0h0l-.13.06h0l-.13.05h0l-.1,0h0l-.1,0h0l-.08,0h0l-.09,0h-.9l-.05,0h0l0,0h0l-.05,0h0l0,0h0v0L24.77,31Z"/><path class="cls-4" d="M27.7,21.72a.44.44,0,0,0,0-.62l-2.49-2.49a.44.44,0,0,0-.62.62l2.48,2.49A.45.45,0,0,0,27.7,21.72Z"/><path class="cls-4" d="M21.5,27.42a.44.44,0,0,0,0-.62L19,24.31a.44.44,0,0,0-.62,0,.45.45,0,0,0,0,.63l2.48,2.48A.44.44,0,0,0,21.5,27.42Z"/><path class="cls-4" d="M24.06,23.94a.44.44,0,0,0,0-.62l-2.48-2.49a.45.45,0,0,0-.63,0,.44.44,0,0,0,0,.62l2.49,2.49A.44.44,0,0,0,24.06,23.94Z"/><rect class="cls-4" x="2.05" y="30.78" width="16.27" height="9.88" rx="0.49" transform="translate(-22.27 17.66) rotate(-45)"/><polygon class="cls-5" points="9.63 35.72 6.41 32.5 6.97 31.94 10.19 35.16 15.66 29.68 16.22 30.24 10.75 35.72 13.96 38.93 13.96 38.93 13.4 39.49 13.4 39.49 10.19 36.28 4.71 41.75 4.15 41.19 9.63 35.72"/><path class="cls-4" d="M44.57,43.29a.36.36,0,0,0,.11-.26.39.39,0,0,0-.37-.42l-12.9-.75a.4.4,0,1,0-.05.79l12.91.75A.38.38,0,0,0,44.57,43.29Z"/><path class="cls-4" d="M44.57,43.29a.38.38,0,0,0,.11-.3l-.75-12.94a.41.41,0,0,0-.42-.38.39.39,0,0,0-.37.42L43.89,43a.39.39,0,0,0,.42.37A.36.36,0,0,0,44.57,43.29Z"/><path class="cls-4" d="M44.57,43.29a.4.4,0,0,0,0-.56l-7.45-7.45a.4.4,0,0,0-.56.56L44,43.29A.4.4,0,0,0,44.57,43.29Z"/><ellipse class="cls-3" cx="44.29" cy="43.01" rx="1.42" ry="0.6" transform="translate(-17.44 43.91) rotate(-45)"/><path class="cls-5" d="M28.69,47c-3.32-3.33-1.9-10.15,3.19-15.24s11.91-6.52,15.24-3.19"/><rect class="cls-3" x="12.22" y="12.77" width="12.95" height="11.81" transform="translate(-7.73 18.69) rotate(-45)"/><rect class="cls-3" x="21.41" y="21.96" width="12.95" height="11.81" transform="translate(-11.53 27.87) rotate(-45)"/><path class="cls-3" d="M85.41,83.46a9.64,9.64,0,0,0-18.33-5.69,9.64,9.64,0,0,0-.43,6.49c-.05,0-.08,0-.07,0l.12.19a12.21,12.21,0,0,0,2.49,5l6.37,8.87L82,90.6A15.42,15.42,0,0,0,85.41,83.46Z"/><path class="cls-5" d="M82.19,81.63a6,6,0,1,1-6-6A6,6,0,0,1,82.19,81.63Z"/></g></g></svg>