<svg xmlns="http://www.w3.org/2000/svg" viewBox="0 0 107.55 119.66"><defs><style>.cls-1{fill:#eb6654;}.cls-2{fill:#5045b3;}.cls-3{fill:#fde89a;}.cls-4{fill:#3595e0;}.cls-5{fill:#0e243f;}.cls-6{fill:#fff;}.cls-7{fill:#0e233f;}</style></defs><g id="Capa_2" data-name="Capa 2"><g id="Arte"><rect class="cls-1" width="107.55" height="119.66" rx="6.82"/><path class="cls-2" d="M65.41,96.28l-3.73-11.8H42.25l-4.31,11.8H8.84L37,28.5H71.25L100,96.28Zm-12.63-40L48.09,69h8.8Z"/><path class="cls-3" d="M9,56.83H46.1s-.27-4.49-7.15-4.49c0,0-1.74-5.59-8.79-5.59-3.31,0-5.41.55-8,2.75C22.18,49.5,9,47.93,9,56.83Z"/><circle class="cls-4" cx="67.03" cy="69.61" r="13.26"/><circle class="cls-4" cx="87.52" cy="52.31" r="9.88" transform="translate(16.62 125.59) rotate(-76.81)"/><rect class="cls-3" x="86.91" y="53.47" width="1.23" height="42.72"/><path class="cls-3" d="M87.26,86.2A14.28,14.28,0,0,1,80,78l1.18-.34-.59.17.59-.17a13.22,13.22,0,0,0,6.59,7.44Z"/><rect class="cls-3" x="83.7" y="69.13" width="15.8" height="1.23" transform="translate(-15.41 112.19) rotate(-58.92)"/><rect class="cls-3" x="66.42" y="71.6" width="1.23" height="24.58"/><polygon class="cls-5" points="8.57 79.42 25.07 79.42 32.11 71.5 15.61 71.5 8.57 79.42"/><polygon class="cls-4" points="16.35 72.25 10.44 78.63 10.44 96.28 22.25 96.28 22.25 78.63 16.35 72.25"/><rect class="cls-5" x="22.25" y="78.63" width="15.75" height="17.65"/><polygon class="cls-1" points="38.99 79.42 22.49 79.42 15.45 71.5 31.95 71.5 38.99 79.42"/><rect class="cls-6" x="13.2" y="81.19" width="1" height="2.44"/><rect class="cls-6" x="18.59" y="81.19" width="1" height="2.44"/><rect class="cls-6" x="13.2" y="85.62" width="1" height="2.44"/><rect class="cls-6" x="18.59" y="85.62" width="1" height="2.44"/><rect class="cls-6" x="24.52" y="81.19" width="1" height="2.44"/><rect class="cls-6" x="29.9" y="81.19" width="1" height="2.44"/><rect class="cls-6" x="24.52" y="85.62" width="1" height="2.44"/><rect class="cls-6" x="29.9" y="85.62" width="1" height="2.44"/><path class="cls-7" d="M17.77,96.28H14.92V91.89a1.43,1.43,0,0,1,2.85,0Z"/></g></g></svg>