<svg xmlns="http://www.w3.org/2000/svg" viewBox="0 0 107.55 119.66"><defs><style>.cls-1{fill:#3595e0;}.cls-2{fill:#f4a833;}.cls-3{fill:#145c93;}.cls-4{fill:#fdeed6;}.cls-5{fill:#b77e26;}.cls-6{fill:#fde89a;}</style></defs><g id="Capa_2" data-name="Capa 2"><g id="Arte"><rect class="cls-1" width="107.55" height="119.66" rx="6.82"/><path class="cls-2" d="M65.41,96.28l-3.73-11.8H42.25l-4.31,11.8H8.84L37,28.5H71.25L100,96.28Zm-12.63-40L48.09,69h8.8Z"/><polyline class="cls-3" points="64.26 32.44 75.55 43.69 64.43 43.69"/><polyline class="cls-4" points="64.55 43.65 53.39 43.65 64.24 32.41"/><rect class="cls-3" x="53.34" y="43.34" width="11.13" height="2.7"/><rect class="cls-4" x="64.45" y="43.34" width="11.13" height="2.7"/><rect class="cls-5" x="64.44" y="45.87" width="11.15" height="16.64"/><circle class="cls-3" cx="59.12" cy="51.79" r="2.96"/><rect class="cls-4" x="86.56" y="89.27" width="2.53" height="4.83"/><rect class="cls-4" x="78.66" y="89.27" width="2.53" height="4.83"/><rect class="cls-4" x="70.76" y="89.27" width="2.53" height="4.83"/><path class="cls-5" d="M64.33,62.25H85.58L95,84.54H74.89L65.37,75,56,84.42H42.27S64.21,62.25,64.33,62.25Z"/><polygon class="cls-4" points="74.89 84.54 65.34 75.04 84.24 75.04 74.89 84.54"/><path class="cls-6" d="M9,56.83H46.1s-.27-4.49-7.15-4.49c0,0-1.74-5.59-8.79-5.59-3.31,0-5.41.55-8,2.75C22.18,49.5,9,47.93,9,56.83Z"/></g></g></svg>