<svg xmlns="http://www.w3.org/2000/svg" viewBox="0 0 107.55 119.66"><defs><style>.cls-1{fill:#eb6654;}.cls-2{fill:#5045b3;}.cls-3{fill:#4d91d3;}.cls-4{fill:#fde89a;}.cls-5{fill:#0e243f;}.cls-6{fill:#fff;}.cls-7{fill:#3595e0;}</style></defs><g id="Capa_2" data-name="Capa 2"><g id="Arte"><rect class="cls-1" width="107.55" height="119.66" rx="6.82"/><path class="cls-2" d="M67.58,94.49H15.63V32.38H66.46c17.07,0,25.09,6.81,25.09,16.32v.75c0,6.34-5.6,11.94-16.51,14.08,12,2,16.88,7.09,16.88,14.27v.74C91.92,87.59,84.46,94.49,67.58,94.49ZM59.75,54.67c0-2.8-1.78-3.92-6.63-3.92h-5v8.12h5c4.85,0,6.63-1.21,6.63-3.92Zm0,17.53c0-2.7-1.78-3.91-6.63-3.91h-5V76.4h5c4.85,0,6.63-1.12,6.63-3.92Z"/><path class="cls-3" d="M19.56,36.46V27.92h2.65a4.87,4.87,0,0,1,4.87,4.87v3.67H49.2v4c0,5.14-.67-1.6-5.81-1.6l-10.69,8c-5.19,3.9-12.8.54-13.13-5.94,0-.16,0-.32,0-.48v-4Z"/><path class="cls-4" d="M9.29,29.88A10.27,10.27,0,0,0,19.56,40.15V29.88Z"/><rect class="cls-5" x="9.29" y="27.92" width="10.27" height="1.96" transform="translate(28.86 57.81) rotate(180)"/><path class="cls-4" d="M27.71,4.34s13.34,6.71,13.34,29.8L27.71,20Z"/><path class="cls-4" d="M27.71,68.56S41.05,62,41.05,38.93L27.71,52.46Z"/><polygon class="cls-5" points="27.71 20.09 27.71 52.53 41.05 38.93 41.05 34.14 27.71 20.09"/><polygon class="cls-5" points="74.1 94.56 83.56 94.56 83.56 72.93 78.83 68.53 74.1 72.93 74.1 94.56"/><rect class="cls-4" x="64.05" y="72.93" width="10.06" height="21.63"/><polygon class="cls-4" points="64.05 72.93 74.1 72.93 78.83 68.53 68.58 68.53 64.05 72.93"/><rect class="cls-6" x="77.82" y="73.69" width="2.19" height="3.59"/><rect class="cls-6" x="77.82" y="78.47" width="2.19" height="3.59"/><rect class="cls-6" x="77.82" y="83.25" width="2.19" height="3.59"/><rect class="cls-6" x="77.82" y="88.04" width="2.19" height="3.59"/><polygon class="cls-7" points="74.1 72.93 64.05 94.56 64.05 72.93 74.1 72.93"/></g></g></svg>