<svg xmlns="http://www.w3.org/2000/svg" xmlns:xlink="http://www.w3.org/1999/xlink" viewBox="0 0 93.27 75.17"><defs><style>.cls-1{fill:none;}.cls-2{fill:#face33;}.cls-3{clip-path:url(#clip-path);}.cls-4{fill:#3595e0;}.cls-5{fill:#038d71;}.cls-6{fill:#f2a742;}.cls-7{fill:#1a2e35;}.cls-8{fill:#eb6654;}.cls-9{fill:#dcdcdc;}.cls-10{fill:#ececec;}</style><clipPath id="clip-path"><rect class="cls-1" width="93.27" height="75.17" rx="4.63"/></clipPath></defs><g id="Capa_2" data-name="Capa 2"><g id="Arte"><rect class="cls-2" width="93.27" height="75.17" rx="4.63"/><g class="cls-3"><path class="cls-4" d="M17.46,47.12c10.3-13.23,4.13-33,20.16-37.9A30.36,30.36,0,1,1,55.36,67.29C39.33,72.18,2.25,66.66,17.46,47.12Z"/><rect class="cls-5" x="16.02" y="15.99" width="11.96" height="11.96" rx="5.98"/><rect class="cls-6" x="16.02" y="31.96" width="11.96" height="11.96" rx="5.98"/><polygon class="cls-7" points="21.17 25.55 16.9 21.27 18.65 19.52 21.17 22.04 29.18 14.03 30.94 15.79 21.17 25.55"/><rect class="cls-7" x="15.93" y="36.91" width="12.57" height="2.48" transform="translate(-20.47 26.88) rotate(-45)"/><rect class="cls-7" x="20.86" y="31.75" width="2.48" height="12.57" transform="translate(-20.42 26.77) rotate(-45)"/><path class="cls-7" d="M39,48.33a18.24,18.24,0,0,0,3.29,2.19c-1.62-3-.75-9.26-.61-8.34.7,4.41,3.34,9.39,4.49,9.72h0a15,15,0,0,0,8.5-.85v0c-2.13-3.37-1.44-9.79-1.31-9.38,1.39,4.34,4.84,7.1,5.47,7.15h0c2.54-1.79,4-3.68,3.65-3.91-2.31-1.67-4-5.63-5.55-9.78h0C55.49,31,54.93,25,52.65,21.3a8,8,0,0,0-9.67-3C35.49,22,37.62,47.15,39,48.33Z"/><path class="cls-7" d="M43.49,18.06a4.78,4.78,0,0,0-1.68,1,10.06,10.06,0,0,0-1.29,1.4A16.39,16.39,0,0,0,38.7,23.7c-1,2.26-1.54,6.8-1.81,9.2a38.18,38.18,0,0,0,0,7.25c0,.61.14,1.21.21,1.81l.26,1.8.35,1.79.4,1.78-.28-1.8-.24-1.79-.2-1.8c-.05-.6-.11-1.2-.14-1.8a41.09,41.09,0,0,1,.1-7.19c.23-2.39.78-6.89,1.67-9.14a16.38,16.38,0,0,1,1.69-3.24,9.48,9.48,0,0,1,1.2-1.43,6.05,6.05,0,0,1,.73-.61A3.25,3.25,0,0,1,43.49,18.06Z"/><path class="cls-7" d="M62.89,44.27A32.23,32.23,0,0,1,61,41.58c-.57-.92-1.12-1.85-1.6-2.8s-1-1.92-1.34-2.9-.74-2-1.11-3c-.77-2-1.5-6.12-2.4-8.07-.45-1-.93-1.94-1.48-2.88a14.65,14.65,0,0,0-.91-1.36A3.92,3.92,0,0,0,51,19.43a4.22,4.22,0,0,1,1.11,1.2A13,13,0,0,1,52.9,22c.51.95.94,1.92,1.35,2.9.83,2,1.56,6.09,2.3,8.08.38,1,.74,2,1.15,3a26,26,0,0,0,1.41,2.91A30.23,30.23,0,0,0,62.89,44.27Z"/><path class="cls-2" d="M44.88,42.69c1.95,4.4,9.6,18.54,14.33,19.39C62.3,62.64,74.69,61,76.72,58c.89-1.31-1-10.19-2.66-9.77S62.51,50.29,61.27,50,50.49,39.44,47,36.94C40.9,32.63,43.82,40.33,44.88,42.69Z"/><path class="cls-8" d="M70.28,47.69,71,61.1s-9.78,2.15-14.05.67C51.79,60,44.21,43.93,43.17,41.29,41.47,37,41.94,34.34,44.35,35A10,10,0,0,1,48,37.29c1.58,1.39,10.68,10.4,13.55,12.1C63.19,50.35,70.28,47.69,70.28,47.69Z"/><path class="cls-7" d="M68.58,60.89C68.41,58.92,68,50.8,68,49c0-.13.08-.15.1,0a108.79,108.79,0,0,1,.52,11.87S68.58,60.94,68.58,60.89Z"/><path class="cls-8" d="M34.37,62.4l17.86,0-1.48-9.23s2.12-2.58,1.72-5.38c-.44-3.06-6-10.82-6.43-11.26a5.45,5.45,0,0,0-5.75-1.44h0C35.2,38.25,31,46.93,28.37,53.67A6.41,6.41,0,0,0,34.37,62.4Z"/><path class="cls-7" d="M49,40.22c.52.86,1.09,1.7,1.63,2.55-.21-.61-.43-1.21-.67-1.8,0,0,0,0,0,0a12.9,12.9,0,0,1,.93,2.24,16.88,16.88,0,0,1,1.08,2,7.75,7.75,0,0,1,.73,2.63,6.89,6.89,0,0,1-.38,2.7,17.83,17.83,0,0,1-1.36,2.86c-.07.13-.24,0-.18-.11a11.32,11.32,0,0,0,1.52-5.17A12.23,12.23,0,0,0,50.53,43a25.08,25.08,0,0,0-1.63-2.79S48.94,40.18,49,40.22Z"/><path class="cls-9" d="M57.44,60.44l-.53,3.06H73.83a2.08,2.08,0,0,0,2-1.67L76,60.44Z"/><path class="cls-10" d="M55.54,61.83l.24-1.39h3.33l-.25,1.39a2.07,2.07,0,0,1-2,1.67,1.39,1.39,0,0,1-1.1-.49A1.47,1.47,0,0,1,55.54,61.83Z"/><path class="cls-9" d="M62.94,38.68,58.57,63.5H73.83a2.08,2.08,0,0,0,2-1.67L80.16,37H64.9a2,2,0,0,0-1.26.48A2,2,0,0,0,62.94,38.68Z"/><path class="cls-10" d="M64.9,37,64,42H82.6l.6-3.35A1.36,1.36,0,0,0,81.83,37Z"/><path class="cls-9" d="M62.94,38.68,62.35,42h3.33l.59-3.35A1.35,1.35,0,0,0,64.9,37a2,2,0,0,0-1.26.48A2,2,0,0,0,62.94,38.68Z"/><path class="cls-2" d="M77.92,46.61c.62,1.77,2.41,4.08,2.43,5.48a1.58,1.58,0,0,1-1.06,1.58,2.4,2.4,0,0,1,1.11,2.1c-.1.66-1.23,1.07-1.23,1.07A1.92,1.92,0,0,1,80,58.67c-.2.89-1.3,1.18-1.3,1.18a2.26,2.26,0,0,1,.17,2c-1,1.71-8.76.88-9.66-2.11-.41-1.39,1.47-1.09,1.47-1.09s-2.6-1.09-2.48-2.7,2.56-1.06,2.56-1.06-2.52-1.08-2.21-2.74,2.65-.76,2.65-.76S69.54,50,70.06,48.81c.86-2,3.86.95,5.61.72l1.24-2.72Z"/><path class="cls-2" d="M79.22,49.23c-.44-1.73,1.83-3.56,1.65-5.28-.25-2.31-3-.37-4,2.86l-.27,2.64Z"/><path class="cls-7" d="M78.48,59.92s0,0,0,0a13.58,13.58,0,0,1-8-1.33c-.08,0,0-.18,0-.16A28,28,0,0,0,78.48,59.92Z"/><path class="cls-7" d="M79.21,56.86s0,.06,0,.06a12.71,12.71,0,0,1-8.59-2c-.08-.06-.1-.2,0-.14A22.8,22.8,0,0,0,79.21,56.86Z"/><path class="cls-7" d="M71,51.19a17.48,17.48,0,0,0,8.18,2.5,0,0,0,0,1,0,.07,11.67,11.67,0,0,1-4.73-.49,7.87,7.87,0,0,1-3.5-2S71,51.15,71,51.19Z"/><path class="cls-2" d="M41.64,34.91c0,.48,1.76,3.77,3.85,4,.69.07,1.24-3.64,1.24-3.64l.11-.26,1.45-3.71L44.22,27.7l-.59-.48s-.33,1-.72,2.34l-.06.19a1.72,1.72,0,0,0-.07.21l-.18.58c-.05.16-.09.3-.13.46s-.09.32-.13.48A25.47,25.47,0,0,0,41.64,34.91Z"/><path class="cls-7" d="M42.91,29.56A8,8,0,0,0,46.84,35l1.45-3.71L44.22,27.7l-.59-.48S43.3,28.26,42.91,29.56Z"/><path class="cls-2" d="M54.76,26.88c-.92,6.92-5.17,7.15-6.67,7s-5.94-1-5.74-7.95,3.71-8.74,6.83-8.49S55.68,20,54.76,26.88Z"/><path class="cls-7" d="M42.84,26c1.6.32,2.08-2.2,2.08-2.2s1.84.19,2.55-2.72a4.53,4.53,0,0,0,2.92,2.78c.51.18-1-1.51-1-1.51s1.73,2.3,5.76,2.34c.28,0,.82-4.24-2-6.23A7.09,7.09,0,0,0,45,18.27a5,5,0,0,0-2.85,2.84C41.44,23.18,42.22,25.84,42.84,26Z"/><path class="cls-8" d="M48.17,29.12a2.31,2.31,0,0,1,.68-4.54A2.32,2.32,0,0,1,51.11,27h0a2.32,2.32,0,0,1-2.37,2.26A2.12,2.12,0,0,1,48.17,29.12ZM49.33,25a1.93,1.93,0,0,0-.49-.07,2,2,0,0,0-.1,4A2,2,0,0,0,49.33,25Z"/><path class="cls-8" d="M53.43,29.92a2.15,2.15,0,0,1-1.2-2.52A2.72,2.72,0,0,1,53,25.87a1.53,1.53,0,0,1,1.33-.49,1.5,1.5,0,0,1,1.11.88,2.74,2.74,0,0,1,.24,1.67c-.2,1.26-1.13,2.17-2.07,2A.32.32,0,0,1,53.43,29.92Zm.93-4.21-.12,0a1.26,1.26,0,0,0-1.06.41,2.55,2.55,0,0,0-.65,1.36c-.17,1.09.32,2.08,1.09,2.2s1.54-.67,1.71-1.77a2.44,2.44,0,0,0-.2-1.48A1.32,1.32,0,0,0,54.36,25.71Z"/><path class="cls-8" d="M51,27.2l-.16-.27c.39-.23,1.26-.5,1.72.19l-.25.17C51.88,26.68,51,27.18,51,27.2Z"/><path class="cls-8" d="M40.7,26.19,40.45,26c.09-.11.85-1.13,1.56-1.14s4.69,1,4.86,1.07l-.07.3c-1.16-.29-4.29-1.06-4.79-1.06S40.91,25.91,40.7,26.19Z"/><path class="cls-2" d="M43.38,26.56s-1-2.46-2.1-2.15-.65,3.65.39,4.33a1.18,1.18,0,0,0,1.68-.28Z"/><path class="cls-7" d="M41.43,25.37s0,0,0,0a3,3,0,0,1,1.1,2.15.66.66,0,0,0-.92-.38s0,0,0,0a.71.71,0,0,1,.72.42,3,3,0,0,1,.23.71c0,.08.16.07.15,0v0C43,27.3,42.49,25.71,41.43,25.37Z"/><path class="cls-10" d="M46.68,35.38l-1,3.19L41.54,35l-1,1.34s4.28,5.88,4.28,5.6l1-2.76,2,1.69-.54-4.63Z"/><path class="cls-7" d="M47.73,38.56c-.11-.76-.21-1.53-.36-2.28,0,0,0,0,0,0-.09.76.37,3.67.42,4.37h0c-.08-.07-1.84-1.48-1.85-1.45-.24.44-1,2.46-1.06,2.64-.67-.94-3.52-4.61-4.3-5.48a0,0,0,0,0-.05,0c.62,1,4.3,5.85,4.35,5.83a30.56,30.56,0,0,0,1.09-2.93A18.37,18.37,0,0,0,48,41.08,23.94,23.94,0,0,0,47.73,38.56Z"/><path class="cls-2" d="M40.26,41.45c-1.62,7-6.2,14.76-9.1,17-1.77,1.4-7.42,1.41-7.68-2.25S34.33,41.13,36,38.9,41.72,35.16,40.26,41.45Z"/><path class="cls-8" d="M40.26,41.45c-1.62,7-6.2,14.76-9.1,17-1.77,1.4-7.42,1.41-7.68-2.25S34.33,41.13,36,38.9,41.72,35.16,40.26,41.45Z"/><path class="cls-7" d="M26.27,59a7.71,7.71,0,0,0,2.3,0,6.12,6.12,0,0,0,2.12-.76,9.62,9.62,0,0,0,3.14-3.47q1.35-2.19,2.53-4.47c.79-1.52,1.52-3.07,2.22-4.64.35-.79.68-1.59,1-2.38s.66-1.59.95-2.39l.21-.61s0,0,0,0c-.26.84-.51,1.68-.79,2.5,0,.11-.08.22-.11.33q.43-.94.9-1.86s.07,0,0,0c-.27.64-.57,1.27-.86,1.9l-.45.92c-.14.38-.29.76-.44,1.14-.65,1.63-1.37,3.22-2.17,4.79s-1.65,3.08-2.56,4.58a11.49,11.49,0,0,1-3.11,3.71,5.91,5.91,0,0,1-4.44.89,4.94,4.94,0,0,1-.55-.15A0,0,0,1,1,26.27,59Z"/><path class="cls-2" d="M29,31.07c1.16-2.81,3-6.66,4.29-7.25s6.06-2.57,7.31-2.67,5.68,1.19,6.48,2c.63.63-.47,2.12-3,1.91a20.16,20.16,0,0,0-3.59-.26c-.69.11-2.71,1.74-2.53,2.74a2.65,2.65,0,0,0,2.54,1.42c1.06-.19,1.7-1.23,3-1.84s3.21,0,3.19.54-.72.63-2.16,2.14c-.92,1-1.59,2.89-3.52,4.47a33.31,33.31,0,0,0-2.9,3.07Z"/><path class="cls-2" d="M33.26,23.82c1.3-1.21,4.34-3.22,6.92-3.52,1.75-.2,6.52,3.87,6.09,4.87s-1.36.76-2.7.24c-.48-.19-2.9-1.83-3.5-1.38a17,17,0,0,0-2.39,3.16Z"/><path class="cls-7" d="M46.24,24.73c-.38-1.3-1.71-2.27-3.07-3.12,0,0,0,0,0,0a12.93,12.93,0,0,1,3.07,3.1S46.25,24.74,46.24,24.73Z"/><path class="cls-2" d="M33.26,23.82c1.3-1.21,4.34-3.22,6.92-3.52,1.75-.2,5.19,4.32,4.76,5.32s-1.79.74-3.14-.16c-.43-.29-1.74-1.83-2.34-1.39l-3,2.22Z"/><path class="cls-7" d="M37.73,25.29l.49-.45c.21-.18.43-.37.65-.54a2.49,2.49,0,0,1,.62-.39,1.09,1.09,0,0,1,.69,0,3.86,3.86,0,0,1,1.25,1,4.59,4.59,0,0,0,2.1,1.23,1.63,1.63,0,0,0,.66,0,1.09,1.09,0,0,0,.44-.2c.48-.48.23-1.24-.08-1.81a10.3,10.3,0,0,0-2.4-2.74l-.68-.56a2.47,2.47,0,0,0-.87-.51,4.59,4.59,0,0,0-1.87.27,0,0,0,1,1,0,0A3.74,3.74,0,0,1,41,20.27a2.78,2.78,0,0,1,.82.54c.27.21.53.42.79.65a12.34,12.34,0,0,1,1.4,1.4,5.28,5.28,0,0,1,1,1.62,1.57,1.57,0,0,1-.3,1.57,1.38,1.38,0,0,1-1.11.27,2.62,2.62,0,0,1-.68-.18,13.32,13.32,0,0,1-1.38-.82c-.42-.31-.76-.73-1.2-1a1,1,0,0,0-.72-.14,2.45,2.45,0,0,0-.64.34,7.08,7.08,0,0,0-1.15.82C37.71,25.42,37.64,25.37,37.73,25.29Z"/><path class="cls-2" d="M32.25,24.92c.51-.61,1.82-3.31,2.6-4s4.06-3.11,5.2-2.68c1.44.54-.79,2.8-1.84,3.7a5.62,5.62,0,0,0-1.4,2.79Z"/><path class="cls-7" d="M39.75,20.36c-.36.28-.7.6-1,.91a9,9,0,0,0-.93.92,3.56,3.56,0,0,0-.6,1.14,4.31,4.31,0,0,0-.19.61c-.06.22-.1.45-.16.67a0,0,0,0,0,0,0,10,10,0,0,1,.47-1.18A5.39,5.39,0,0,1,38,22.32c.55-.68,1.23-1.24,1.78-1.92C39.82,20.38,39.78,20.34,39.75,20.36Z"/><path class="cls-7" d="M39.93,28.93a1.91,1.91,0,0,0,1.35-.46c.34-.26.68-.54,1-.8A4.35,4.35,0,0,1,43.43,27a4.93,4.93,0,0,1,1.43-.24,2.82,2.82,0,0,1,1.38.2c.36.17.73.53.54,1a1.81,1.81,0,0,1-.4.51c-.15.14-.32.27-.49.4-.35.25-.72.47-1,.75A6.73,6.73,0,0,0,43.8,31c-.11.17-.87,1.37-1.16,1.77a6.25,6.25,0,0,1-.8,1,9.63,9.63,0,0,1-.93.76,5.34,5.34,0,0,0-1,.87s0,0,0,0a5.28,5.28,0,0,1,1.63-1.56c.78-.57,2.5-3.54,2.81-3.94a18.21,18.21,0,0,1,1.91-1.58c.13-.13.34-.32.34-.53a.61.61,0,0,0-.36-.46,2.49,2.49,0,0,0-1.35-.16,6.42,6.42,0,0,0-1.38.23,4.3,4.3,0,0,0-1.1.58c-.39.27-.76.55-1.17.79a1.94,1.94,0,0,1-1.32.29S39.91,28.92,39.93,28.93Z"/><path class="cls-7" d="M46.31,22.76c-.32-.15-.62-.32-.94-.46,0,0,0,0,0,0l1.13.41a1.19,1.19,0,0,1,.73.6.85.85,0,0,1-.17.85,2.4,2.4,0,0,1-.82.56s0,0,0,0c.46-.27,1.16-.79.79-1.39A1.57,1.57,0,0,0,46.31,22.76Z"/><path class="cls-7" d="M44.79,25.78a1.92,1.92,0,0,0,1.06-.19.78.78,0,0,0,.32-.33.73.73,0,0,0,.07-.24.38.38,0,0,0,0-.26s0,0,0,0a.84.84,0,0,0,.06.14l0,.12a.69.69,0,0,1,0,.25.76.76,0,0,1-.31.43,1.35,1.35,0,0,1-1.19.12S44.77,25.78,44.79,25.78Z"/><path class="cls-2" d="M38.1,37.32c-.78,2.8-6.66,17.7-8.3,19.8s-5.61,2.56-6.72-1.24,4.67-22,5.89-24.81C29.65,29.48,38.38,36.31,38.1,37.32Z"/><path class="cls-8" d="M39.39,39.21l-11.55-6.7s-4.94,17-5,22.17c-.06,3.75,4.43,6.55,8,1.49S39.39,39.21,39.39,39.21Z"/><path class="cls-7" d="M37.81,41.26c-1.75-.94-8.77-5-10.23-6-.1-.06-.08-.15,0-.09a108.48,108.48,0,0,1,10.23,6S37.85,41.29,37.81,41.26Z"/><path class="cls-7" d="M34.11,50.25c1.22-2.29,2.39-4.6,3.44-7,.29-.66.58-1.33.86-2S39,40,39.2,39.33c-.24-.17-1.3-.86-1.41-1a0,0,0,0,1,0-.07,16.23,16.23,0,0,1,1.64,1s-.49,1.3-.73,1.91S38.26,42.38,38,43c-.5,1.2-1,2.38-1.6,3.55s-1.24,2.5-1.91,3.73C33.92,51.31,32.54,53.2,34.11,50.25Z"/></g></g></g></svg>