<svg xmlns="http://www.w3.org/2000/svg" xmlns:xlink="http://www.w3.org/1999/xlink" viewBox="0 0 93.27 75.17"><defs><style>.cls-1{fill:none;}.cls-2{fill:#038d71;}.cls-3{clip-path:url(#clip-path);}.cls-4{fill:#eb6654;}.cls-5{fill:var(--azul-igac);}.cls-6{fill:#fdf6e6;}.cls-7{fill:#1e4a93;}.cls-8{fill:#face33;}.cls-9{fill:#1a2e35;}.cls-10{fill:#5045b1;}</style><clipPath id="clip-path"><rect class="cls-1" width="93.27" height="75.17" rx="4.63"/></clipPath></defs><g id="Capa_2" data-name="Capa 2"><g id="Arte"><rect class="cls-2" width="93.27" height="75.17" rx="4.63"/><g class="cls-3"><path class="cls-4" d="M13.23,40.72c0-16.8,19.36-41.34,33.36-30.42C57.68,19,80,23.92,80,40.72S65,71.14,46.59,71.14,13.23,57.52,13.23,40.72Z"/><path class="cls-5" d="M81,27.59a17.7,17.7,0,0,1-8.22,15h0A17.6,17.6,0,0,1,66.33,45a18,18,0,0,1-3,.26A17.61,17.61,0,0,1,51.71,41a17.13,17.13,0,0,1-2.31-2.43,17.74,17.74,0,0,1-1.15-20.27,16,16,0,0,1,1-1.44,17.65,17.65,0,0,1,14-6.95,18.1,18.1,0,0,1,2,.11A17.66,17.66,0,0,1,81,27.59Z"/><path class="cls-6" d="M66.33,45a18,18,0,0,1-3,.26A17.61,17.61,0,0,1,51.71,41a1.17,1.17,0,0,0,.24-.09,2.05,2.05,0,0,0,.76-.76c.63-1,.92-2.11,1.48-3.12a3.25,3.25,0,0,1,2.66-1.9,2.15,2.15,0,0,1,2,1.85,8,8,0,0,1-.57,2.56c-.21.86,0,2,.86,2.23a2.26,2.26,0,0,0,1.34-.21,5.26,5.26,0,0,1,4-.18A3.71,3.71,0,0,1,66.33,45Z"/><path class="cls-6" d="M65.25,10a2.39,2.39,0,0,1-.52.81c-2,2-5.78,1.47-7.39,3.78-.57.84-.74,1.9-1.28,2.77s-1.77,1.47-2.55.81c-.36-.3-.52-.81-.91-1.08-.56-.39-1.33-.12-2,0a1.72,1.72,0,0,1-1.34-.26,17.65,17.65,0,0,1,14-6.95A18.1,18.1,0,0,1,65.25,10Z"/><path class="cls-6" d="M81,27.59a17.7,17.7,0,0,1-8.22,15h0a3.22,3.22,0,0,1-.69.06,2.16,2.16,0,0,1-1.89-1.81A3.16,3.16,0,0,1,71,38.22c.44-.5,1-.88,1.47-1.33a2.78,2.78,0,0,0,1-1.7,1.36,1.36,0,0,0-1.05-1.47,2.07,2.07,0,0,0-.74.1,13.79,13.79,0,0,0-3.91,1.48,4.25,4.25,0,0,1-1,.53,2.32,2.32,0,0,1-1.28,0,3.68,3.68,0,0,1-2.65-2.71c-.14-.61-.11-1.24-.23-1.85a2.06,2.06,0,0,0-.94-1.52c-.76-.4-1.9-.09-2.38-.8a1.48,1.48,0,0,1,.15-1.57A6.51,6.51,0,0,0,60.33,26a1.8,1.8,0,0,0-.42-1.78c-.34-.34-.82-.54-1.15-.91a2.06,2.06,0,0,1-.23-2.15A4.78,4.78,0,0,1,60,19.39a15.78,15.78,0,0,1,3.13-2.05,1.16,1.16,0,0,0,.52-.4c.23-.41-.11-.88-.26-1.32a2.06,2.06,0,0,1,.5-2,4.64,4.64,0,0,1,1.77-1.15,13.65,13.65,0,0,1,4.92-1.06A17.71,17.71,0,0,1,81,27.59Z"/><path class="cls-6" d="M48.14,30c-.94,1-1.31,2.74-.35,3.73.25.26.56.45.81.7A3.7,3.7,0,0,1,49.38,37c0,.5,0,1,0,1.51a17.74,17.74,0,0,1-1.15-20.27,1,1,0,0,1,.67-.05.94.94,0,0,1,.53.92,2.57,2.57,0,0,1-.33,1.07c-.32.7-.65,1.39-1,2.09a1.89,1.89,0,0,0-.25,1.28,1.31,1.31,0,0,0,1.55.75,5,5,0,0,0,1.67-.85A2.59,2.59,0,0,1,52.9,23,2,2,0,0,1,54,25.64a4.74,4.74,0,0,1-2.39,2.19A11.88,11.88,0,0,0,48.14,30Z"/><path class="cls-6" d="M51.66,30.92a2.32,2.32,0,0,0,.28,2.57.83.83,0,0,0,.57.3c.35,0,.6-.33.9-.51.85-.5,1.92.24,2.88.06a1.77,1.77,0,0,0,1.37-1.73C57.7,28.37,52.84,28.55,51.66,30.92Z"/><path class="cls-7" d="M78.07,12.16A4.39,4.39,0,0,0,76.53,8,4.31,4.31,0,0,0,70,9.65a4.19,4.19,0,0,0-.35,1.71,4.32,4.32,0,0,0,.16,1.15h0l0,.08a5.38,5.38,0,0,0,1.1,2.18l2.8,3.91,2.84-3.38A6.85,6.85,0,0,0,78.07,12.16Z"/><path class="cls-6" d="M75.59,13.49a2.66,2.66,0,1,1,1.06-2.14,2.7,2.7,0,0,1-1.06,2.14"/><path class="cls-8" d="M45.74,36.45c-1.65,5-9,20.74-12.13,21.84s-15.69,2.58-18.46.4c-1.36-1.07-1.83-12.47,0-12.2s12.82.69,14.12.22S39.32,33.53,42.86,30.45C49,25.14,46.63,33.78,45.74,36.45Z"/><path class="cls-2" d="M17.92,46.3l.18,14.21s12.78,0,16.18-1.76S44.9,40.54,46.7,34.25,45.62,27,41,31.61,29.58,45.88,28.76,46.08,17.92,46.3,17.92,46.3Z"/><path class="cls-9" d="M21.64,53.31c0-1.12-.08-5.62-.18-6.74,0,0,0,0,0,0-.11,1.08-.17,5.53-.16,6.65A63.36,63.36,0,0,0,21.51,60a0,0,0,0,0,.08,0C21.75,57.76,21.66,55.53,21.64,53.31Z"/><path class="cls-2" d="M61.9,62.09a5.51,5.51,0,0,1-5.82,6.29c-9.21-.63-24.56-1.71-24.75-1.95-.36-.47,9.51-32.16,12-36.82,1.06-2,6.1-2.27,8.09-.39,5,4.69,8.47,19.87,9.2,24.42C61.07,56.58,61.52,59.56,61.9,62.09Z"/><path class="cls-8" d="M55.59,32.82C63.87,42,73.2,57.37,69.21,60.66c-3.65,3-17,.15-25.34-3.13-1.59-.62,4.87-14.72,6.5-13.88A47.09,47.09,0,0,0,55.67,46c.45.12-2.06-2.95-4.87-10.34S50.86,27.59,55.59,32.82Z"/><path class="cls-8" d="M30,42.6c0,1.64,4,1.32,4,1.32a3,3,0,0,0-1.23,1.64c-.3,1.21,1.46,2.22,1.46,2.22a3.72,3.72,0,0,0-1,1.94c-.18,1.19,1.45,2.46,1.45,2.46a3.27,3.27,0,0,0,.18,2.27c1,1.87,4.19,1.91,6.19,2.33a43.44,43.44,0,0,1,6.54,2.08l3.71-14.72s-8.65-5.13-11.07-5C38.22,39.22,30,40.1,30,42.6Z"/><path class="cls-9" d="M34.09,43.87a27.41,27.41,0,0,1,6.63-.81,0,0,0,1,1,0,.07c-2.19.06-4.43.7-6.62.85A.06.06,0,0,1,34.09,43.87Z"/><path class="cls-9" d="M34.34,47.61a5.87,5.87,0,0,1,1.51-.08c.54,0,1.08,0,1.62,0,1.08.05,2.15.12,3.23.23,0,0,0,.08,0,.07-1.07,0-2.15-.08-3.22-.08H35.86a6.43,6.43,0,0,1-1.52-.05A.08.08,0,0,1,34.34,47.61Z"/><path class="cls-9" d="M34.76,52.18a3.94,3.94,0,0,1,1.37,0l1.47.09c1,0,2,.11,2.95.13,0,0,.05.07,0,.07-1,0-2,0-3,0l-1.47,0a4,4,0,0,1-1.33-.16S34.74,52.19,34.76,52.18Z"/><path class="cls-2" d="M48.53,59.81S68.35,65,70.41,60c1.1-2.7-1.76-9.34-5.69-15.72l-.06-.1L64.58,44l-.08-.13a77.91,77.91,0,0,0-4.59-6.62l-.17-.22a36.79,36.79,0,0,0-5.66-6c-6.71-5.32-4.19,3.05-4,3.72.06.22.15.45.24.71l.12.3c.55,1.41,1.47,3.32,2.34,5.07l.11.21,0,.06.06.11c1.14,2.25,2.17,4.15,2.23,4.27L51.72,44Z"/><path class="cls-9" d="M52.06,44c2.27.8,8.24,3.77,9.55,5,0,0,0,.09,0,.06-1.29-.9-8.66-4.51-9.81-4.95,0,0-.06.14-.08.17s-.07,0-.07,0a2.23,2.23,0,0,1,.09-.39Z"/><path class="cls-9" d="M53.75,52.85c.22-1.11,1-5.53,1.17-6.65a0,0,0,0,0,0,0c-.32,1-1.26,5.39-1.48,6.5a62.29,62.29,0,0,0-1.1,6.65s.06.07.07,0C53,57.23,53.33,55,53.75,52.85Z"/><path class="cls-9" d="M55.38,45.57c-.62-1.35-1.38-2.64-2.06-4s-1.39-2.62-2-4c0,0,0,0,0,0,.38.91.77,1.81,1.18,2.71L52.09,40c-.21-.27-.4-.55-.59-.83,0,0,0,0,0,0A5.16,5.16,0,0,0,52,40a5.88,5.88,0,0,0,.53.58c.17.37.35.73.53,1.09a29.3,29.3,0,0,0,2.07,3.87S55.4,45.61,55.38,45.57Z"/><path class="cls-9" d="M62,62c-2.34,0-11.17-1.76-13.36-2.21,0-.23,0-.31.06-.64,0,0-.06-.06-.07,0-.06.31-.27.93-.18,1,1.05.42,11.26,2.2,13.55,2C62,62.14,62,62,62,62Z"/><polygon class="cls-9" points="38.17 60.44 21.73 62.66 15.49 39.8 31.93 37.59 38.17 60.44"/><polygon class="cls-9" points="37.37 60.55 20.92 62.77 14.68 39.91 31.12 37.69 37.37 60.55"/><path class="cls-8" d="M14.84,44.62c-.68,1.92-2.64,4.43-2.67,5.94a1.73,1.73,0,0,0,1.15,1.73,2.6,2.6,0,0,0-1.22,2.28c.1.71,1.33,1.17,1.33,1.17a2.07,2.07,0,0,0-.85,2C12.78,58.7,14,59,14,59a2.48,2.48,0,0,0-.19,2.16c1.06,1.87,9.52,1,10.51-2.24.46-1.52-1.59-1.2-1.59-1.2s2.84-1.17,2.71-2.92-2.78-1.17-2.78-1.17,2.75-1.17,2.43-3-2.88-.84-2.88-.84,1.75-1.46,1.19-2.79c-.93-2.18-4.2,1-6.11.77l-1.34-3Z"/><path class="cls-8" d="M13.42,47.46c.49-1.88-2-3.89-1.77-5.75.28-2.52,3.3-.39,4.28,3.13l.29,2.87Z"/><path class="cls-9" d="M14.16,59.09a0,0,0,1,0,0,0,14.7,14.7,0,0,0,8.66-1.4c.09,0,.05-.2-.05-.17A30,30,0,0,1,14.16,59.09Z"/><path class="cls-9" d="M13.39,55.76a0,0,0,0,0,0,.07,13.82,13.82,0,0,0,9.36-2.13c.09-.06.11-.22,0-.15C20.82,54.69,16.14,55.72,13.39,55.76Z"/><path class="cls-9" d="M22.34,49.63a19.11,19.11,0,0,1-8.9,2.69s0,.06,0,.07a12.52,12.52,0,0,0,5.15-.52,8.51,8.51,0,0,0,3.82-2.15S22.4,49.59,22.34,49.63Z"/><path class="cls-9" d="M42.73,30.83s0,0,0,0c0,1.42-.1,4.71,2.12,4.46a4.68,4.68,0,0,0,2.37-1.23,12.64,12.64,0,0,0,1.85-2,18.41,18.41,0,0,0,1.71-2.5s.07,0,.05,0c-.51.88-.93,1.79-1.52,2.62a11.09,11.09,0,0,1-2,2.16,4.76,4.76,0,0,1-2.52,1.21A1.79,1.79,0,0,1,43,34.32,7.92,7.92,0,0,1,42.73,30.83Z"/><path class="cls-8" d="M44.92,33.85c1.6.14,4.23-2.86,5-4.93,0-.14-.36-1.5-.77-3.17-.25-1-.5-2.15-.65-3.21l-6.37,2.57a17.21,17.21,0,0,1,1.23,4,2.08,2.08,0,0,1,0,.43v.08C43.36,30.42,43.37,33.71,44.92,33.85Z"/><path class="cls-9" d="M43.38,29.51a.16.16,0,0,0,0,.07,5.88,5.88,0,0,0,.68-.06c3.81-.65,4-5.46,4-6.8l-1.59.64-4.35,1.75a16.89,16.89,0,0,1,1.22,4A2.17,2.17,0,0,1,43.38,29.51Z"/><path class="cls-8" d="M49.23,15.34c.66,2.38-.76,9.19-2.48,10.67-2.5,2.15-6.5,2.26-8.3-.72s.26-11.73,2.17-13.07C43.44,10.25,48.25,11.81,49.23,15.34Z"/><path class="cls-9" d="M39.32,14.21c.38-.54.81-1.07,1.19-1.11s.43.88,1.22,1.11c1.08.31,1.83-.58,3.38-.36,2.23.32,2.8,2.36,2.19,5.49-.56,2.8,1.07,3.42,1.07,3.42s2.34-5.92,1.05-8.32a6.75,6.75,0,0,0-8.16-2.8C40.14,12.14,39.32,14.21,39.32,14.21Z"/><path class="cls-8" d="M47.23,21.21s1.64-2.14,2.62-1.54-.33,3.75-1.53,4.13a1.19,1.19,0,0,1-1.57-.72Z"/><path class="cls-9" d="M49.45,20.56s0,0,0,0a3,3,0,0,0-1.65,1.82.65.65,0,0,1,1-.14s0,0,0,0a.74.74,0,0,0-.82.22,3.71,3.71,0,0,0-.42.64c0,.07-.17,0-.14-.05v0C47.43,22.05,48.32,20.62,49.45,20.56Z"/><path class="cls-10" d="M43.48,10.8a9.81,9.81,0,0,1,2.91-.39c1.1,0,4.44.83,5.15,1.63s.42,4,.37,4.51-.71,3.26-1.84,3.78S49.6,16,48.24,14.19,43.48,10.8,43.48,10.8Z"/><path class="cls-10" d="M49.35,23.14A19.21,19.21,0,0,0,47.64,16c-1.06-2.18-4.89-3.95-5.45-4-1.38-.13-1.78.47-2,.32s1.4-1.49,1.82-1.66a4.43,4.43,0,0,1,2-.18c.59.11,4.18,1,5.26,2.81S51.54,19.74,51,20.8c-.13.25-.51.37-.69.73s-.42,1-.62,1.36S49.34,23.25,49.35,23.14Z"/><path class="cls-9" d="M47.46,15.11a6.18,6.18,0,0,0,1-.51,4.54,4.54,0,0,0,.88-.69s.05,0,0,0a4.19,4.19,0,0,1-.83.8,3.18,3.18,0,0,1-1.06.44S47.43,15.13,47.46,15.11Z"/><path class="cls-9" d="M49.56,21.86c0-.08.12-.16.18-.24a1.11,1.11,0,0,0,.17-.3,3,3,0,0,1,.24-.59,2.23,2.23,0,0,1,.37-.38.88.88,0,0,0,.33-.48s0,0,0,0c-.06.39-.37.63-.59.93a4.46,4.46,0,0,0-.28.63,1,1,0,0,1-.42.48S49.54,21.89,49.56,21.86Z"/><path class="cls-9" d="M49.34,20.41c.14-.13.29-.24.42-.38a2.86,2.86,0,0,0,.35-.43c.11-.15.2-.31.31-.46s.26-.35.38-.53c0,0,0,0,0,0-.12.19-.2.4-.31.59a5.25,5.25,0,0,1-.33.49,2.41,2.41,0,0,1-.37.41,1.3,1.3,0,0,1-.47.3S49.33,20.42,49.34,20.41Z"/><path class="cls-9" d="M49.07,19.09a4.12,4.12,0,0,0,.82-.68q.34-.39.66-.81s.05,0,0,0a4.36,4.36,0,0,1-.59.9,2.63,2.63,0,0,1-.39.35,2.41,2.41,0,0,1-.51.25S49.05,19.1,49.07,19.09Z"/><path class="cls-9" d="M48.75,17.81a1.11,1.11,0,0,0,.39-.29,3.59,3.59,0,0,0,.39-.39l.37-.38a1.19,1.19,0,0,0,.3-.43s0,0,0,0a1.23,1.23,0,0,1-.22.48,3.16,3.16,0,0,1-.37.45,5.22,5.22,0,0,1-.43.39.8.8,0,0,1-.45.22S48.72,17.82,48.75,17.81Z"/><path class="cls-9" d="M48.62,16.24a4.24,4.24,0,0,0,.4-.31c.13-.11.26-.22.38-.34l.37-.36a0,0,0,0,1,0,0,3.36,3.36,0,0,1-.31.43,3.24,3.24,0,0,1-.38.36c-.13.11-.26.22-.4.32a1.35,1.35,0,0,1-.47.22s0,0,0,0A2.19,2.19,0,0,1,48.62,16.24Z"/><path class="cls-9" d="M46.6,14.23a5.58,5.58,0,0,1,.46-.39,4.72,4.72,0,0,1,.52-.35,5.5,5.5,0,0,1,1.1-.51s0,0,0,0c-.69.42-1.39.81-2.08,1.24C46.6,14.28,46.58,14.25,46.6,14.23Z"/><path class="cls-9" d="M46,13a3.3,3.3,0,0,1,.49-.34,5.76,5.76,0,0,1,1.2-.44s0,0,0,0c-.36.17-.73.33-1.09.52-.17.1-.35.19-.51.3s-.31.26-.47.38,0,0,0,0A1.47,1.47,0,0,1,46,13Z"/><path class="cls-9" d="M45,12.35a2.3,2.3,0,0,1,.47-.35,2.83,2.83,0,0,1,1-.4s0,0,0,0a5.32,5.32,0,0,0-1,.5c-.16.09-.31.2-.46.3a4.29,4.29,0,0,1-.45.33s0,0,0,0A2.59,2.59,0,0,1,45,12.35Z"/><path class="cls-9" d="M44.34,11.59l.46-.25a1.81,1.81,0,0,1,.49-.18,0,0,0,0,1,0,0l-.88.52a4.5,4.5,0,0,0-.71.61s0,0,0,0A1.68,1.68,0,0,1,44.34,11.59Z"/><path class="cls-9" d="M43.41,11.23a3,3,0,0,1,.94-.4s0,0,0,0a3.34,3.34,0,0,0-.87.47,4.54,4.54,0,0,0-.73.66s0,0,0,0A2.19,2.19,0,0,1,43.41,11.23Z"/><path class="cls-9" d="M42.07,11.61a.86.86,0,0,1,.14-.18,2.5,2.5,0,0,1,.34-.31,4.87,4.87,0,0,1,.81-.44s0,0,0,0a3.38,3.38,0,0,0-.77.47,3.11,3.11,0,0,0-.33.29,2.09,2.09,0,0,0-.14.17s-.08.12-.14.16,0,0,0,0A.46.46,0,0,1,42.07,11.61Z"/><path class="cls-9" d="M41.29,11.55l.28-.25a1.61,1.61,0,0,1,.3-.21l.33-.2s0,0,0,0a2.18,2.18,0,0,0-.31.22l-.28.23-.28.23a2.17,2.17,0,0,1-.29.24s0,0,0,0A1.62,1.62,0,0,1,41.29,11.55Z"/></g></g></g></svg>