<svg xmlns="http://www.w3.org/2000/svg" viewBox="0 0 320.73 271.31"><defs><style>.cls-1,.cls-2{fill:#606060;}.cls-1{opacity:0.8;}.cls-3{fill:#e0e0e0;}.cls-4{fill:#fff;}.cls-5{fill:#fafafa;}.cls-6{fill:#a09f9f;}.cls-7{fill:none;stroke:#606060;stroke-miterlimit:10;stroke-width:0.5px;}</style></defs><g id="Capa_2" data-name="Capa 2"><g id="Especificaciones"><path class="cls-1" d="M0,24.25V.34H7.57A7.79,7.79,0,0,1,13,2.19a6.35,6.35,0,0,1,2,4.95A6.59,6.59,0,0,1,14,10.83a5.91,5.91,0,0,1-2.85,2.34,14.66,14.66,0,0,1-5.2.72H3.43V24.25ZM7,3.38H3.43v7.47H7.18a4.76,4.76,0,0,0,3.21-1,3.54,3.54,0,0,0,1.13-2.81Q11.52,3.39,7,3.38Z"/><path class="cls-1" d="M27.48,14.8v6.68c0,.54.18.81.55.81a3.79,3.79,0,0,0,1.76-.84v1.89a10.85,10.85,0,0,1-1.7.94,3.83,3.83,0,0,1-1.34.24c-1.34,0-2.12-.52-2.36-1.57a6.74,6.74,0,0,1-4.22,1.54,3.71,3.71,0,0,1-2.74-1.09,3.66,3.66,0,0,1-1.09-2.72A3.81,3.81,0,0,1,17.41,18a7.14,7.14,0,0,1,3-1.85l4-1.37V14a2.5,2.5,0,0,0-2.84-2.83c-1.69,0-3.35.87-4.95,2.63v-3.4a6.43,6.43,0,0,1,5.21-2.14,6,6,0,0,1,4.08,1.33,4.5,4.5,0,0,1,1.45,2.56A21.82,21.82,0,0,1,27.48,14.8Zm-3.06,6.34V16.47l-2.08.81a7,7,0,0,0-2.25,1.27,2.31,2.31,0,0,0,0,3.19,2.22,2.22,0,0,0,1.62.61A3.9,3.9,0,0,0,24.42,21.14ZM26.69,0,22.83,5.13H20.92L23.22,0Z"/><path class="cls-1" d="M31.74,14a4.81,4.81,0,0,1,1.83-4,7.89,7.89,0,0,1,5-1.46h6.48V11H41.89a6.74,6.74,0,0,1,1.28,1.71,4.13,4.13,0,0,1,.36,1.76,4.78,4.78,0,0,1-.7,2.42A4.94,4.94,0,0,1,41,18.66a11,11,0,0,1-3.61,1c-1.17.17-1.76.58-1.76,1.21a1,1,0,0,0,.66.9,10.5,10.5,0,0,0,2.38.73,25.36,25.36,0,0,1,3.72,1,4.83,4.83,0,0,1,1.49,1A3.84,3.84,0,0,1,45,27.36a4.1,4.1,0,0,1-2,3.57,9.42,9.42,0,0,1-5.32,1.34,9.5,9.5,0,0,1-5.38-1.35,4.12,4.12,0,0,1-2-3.59c0-2.13,1.32-3.51,4-4.12-1.05-.67-1.57-1.34-1.57-2a1.82,1.82,0,0,1,.67-1.37,4.14,4.14,0,0,1,1.83-.9A5.17,5.17,0,0,1,31.74,14Zm5.11,11a4.62,4.62,0,0,0-2.58.66,2,2,0,0,0-1,1.71q0,2.43,4.38,2.43a6.94,6.94,0,0,0,3.2-.61A1.88,1.88,0,0,0,42,27.46c0-.73-.48-1.32-1.44-1.78A8.54,8.54,0,0,0,36.85,25Zm.73-13.76a3,3,0,0,0-2.15.85,2.73,2.73,0,0,0-.89,2.05,2.61,2.61,0,0,0,.87,2,3.15,3.15,0,0,0,2.2.8,3.09,3.09,0,0,0,2.2-.82,2.62,2.62,0,0,0,.88-2,2.69,2.69,0,0,0-.89-2A3.13,3.13,0,0,0,37.58,11.23Z"/><path class="cls-1" d="M49.08,1.91a1.86,1.86,0,0,1,1.32.53,1.77,1.77,0,0,1,.54,1.3,1.86,1.86,0,0,1-1.86,1.85A1.71,1.71,0,0,1,47.82,5a1.76,1.76,0,0,1-.55-1.29,1.74,1.74,0,0,1,.55-1.27A1.71,1.71,0,0,1,49.08,1.91ZM47.54,8.53h3.11V24.25H47.54Z"/><path class="cls-1" d="M58.26,8.53v2A6.25,6.25,0,0,1,63,8.22,5.22,5.22,0,0,1,65.73,9a5,5,0,0,1,1.92,2.09,9.92,9.92,0,0,1,.66,4.19v9H65.2V15.3a6.13,6.13,0,0,0-.74-3.45,2.81,2.81,0,0,0-2.46-1A4.48,4.48,0,0,0,58.26,13V24.25H55.08V8.53Z"/><path class="cls-1" d="M82.53,14.8v6.68q0,.81.54.81a3.71,3.71,0,0,0,1.76-.84v1.89a10,10,0,0,1-1.7.94,3.75,3.75,0,0,1-1.34.24c-1.33,0-2.12-.52-2.36-1.57a6.72,6.72,0,0,1-4.22,1.54,3.74,3.74,0,0,1-3.83-3.81A3.85,3.85,0,0,1,72.45,18a7.18,7.18,0,0,1,3-1.85l4-1.37V14a2.51,2.51,0,0,0-2.84-2.83c-1.7,0-3.35.87-5,2.63v-3.4a6.45,6.45,0,0,1,5.22-2.14A6,6,0,0,1,81,9.55a4.29,4.29,0,0,1,.92,1.14,4.12,4.12,0,0,1,.53,1.42A21.82,21.82,0,0,1,82.53,14.8Zm-3.06,6.34V16.47l-2.09.81a6.81,6.81,0,0,0-2.24,1.27,2.31,2.31,0,0,0,0,3.19,2.22,2.22,0,0,0,1.62.61A3.91,3.91,0,0,0,79.47,21.14Z"/><path class="cls-1" d="M110.71,16.66H99.65a5.16,5.16,0,0,0,1.51,3.59,5,5,0,0,0,3.6,1.33,9.37,9.37,0,0,0,5.68-1.91v3a10.3,10.3,0,0,1-2.85,1.37,12,12,0,0,1-3.31.41,7.39,7.39,0,0,1-4.2-1.08,7.75,7.75,0,0,1-2.57-2.89,8.82,8.82,0,0,1-1-4.22,8.34,8.34,0,0,1,2-5.83,6.77,6.77,0,0,1,5.28-2.25,6.24,6.24,0,0,1,5,2.19,8.74,8.74,0,0,1,1.86,5.86Zm-11-1.86h7.91a4.34,4.34,0,0,0-1.11-2.87,3.57,3.57,0,0,0-2.66-1,3.85,3.85,0,0,0-2.75,1A5,5,0,0,0,99.72,14.8Z"/><path class="cls-1" d="M117.19,8.53v2a6.24,6.24,0,0,1,4.73-2.31,5.16,5.16,0,0,1,2.73.76,4.93,4.93,0,0,1,1.93,2.09,9.92,9.92,0,0,1,.66,4.19v9h-3.12V15.3a6.14,6.14,0,0,0-.73-3.45,2.81,2.81,0,0,0-2.46-1,4.46,4.46,0,0,0-3.74,2.2V24.25H114V8.53Z"/><path class="cls-1" d="M153.09,20.58v3.07a13.11,13.11,0,0,1-4.58.87,8,8,0,0,1-5.89-2.18,7.94,7.94,0,0,1-2.19-5.87,8.36,8.36,0,0,1,2.14-6,7.35,7.35,0,0,1,5.62-2.27,9.66,9.66,0,0,1,2.18.23,14.21,14.21,0,0,1,2.38.86v3.32a8.27,8.27,0,0,0-4.37-1.5,4.48,4.48,0,0,0-3.46,1.47,5.4,5.4,0,0,0-1.35,3.77A5.11,5.11,0,0,0,145,20.2,5.41,5.41,0,0,0,149,21.62,10.35,10.35,0,0,0,153.09,20.58Z"/><path class="cls-1" d="M164.15,8.49a8.21,8.21,0,0,1,6,2.32,7.76,7.76,0,0,1,2.38,5.82,7.39,7.39,0,0,1-2.41,5.65A8.59,8.59,0,0,1,164,24.52a8.2,8.2,0,0,1-5.91-2.28,7.59,7.59,0,0,1-2.38-5.7,7.64,7.64,0,0,1,2.41-5.75A8.36,8.36,0,0,1,164.15,8.49ZM164,11.3a4.93,4.93,0,0,0-3.68,1.47,5.15,5.15,0,0,0-1.43,3.74,4.9,4.9,0,0,0,1.47,3.68,5.21,5.21,0,0,0,3.78,1.43,5.1,5.1,0,0,0,3.75-1.45,5,5,0,0,0,1.46-3.7,4.94,4.94,0,0,0-1.52-3.7A5.3,5.3,0,0,0,164,11.3Z"/><path class="cls-1" d="M179.05,8.53v2a6.25,6.25,0,0,1,4.74-2.31,5.16,5.16,0,0,1,2.73.76,5,5,0,0,1,1.92,2.09,9.92,9.92,0,0,1,.66,4.19v9H186V15.3a6.14,6.14,0,0,0-.73-3.45,2.81,2.81,0,0,0-2.47-1,4.49,4.49,0,0,0-3.74,2.2V24.25h-3.18V8.53Z"/><path class="cls-1" d="M192.67,23.12V19.77a14.14,14.14,0,0,0,2.69,1.5,6.32,6.32,0,0,0,2.32.57,2.91,2.91,0,0,0,1.68-.48,1.39,1.39,0,0,0,.7-1.14,1.55,1.55,0,0,0-.46-1.14,10.5,10.5,0,0,0-1.95-1.31,13.7,13.7,0,0,1-3.94-2.86,4.1,4.1,0,0,1-.93-2.59,3.61,3.61,0,0,1,1.41-3,5.52,5.52,0,0,1,3.63-1.15,9.94,9.94,0,0,1,4.73,1.3V12.6A9.41,9.41,0,0,0,198,10.92a2.5,2.5,0,0,0-1.46.39,1.16,1.16,0,0,0-.55,1,1.45,1.45,0,0,0,.5,1,8.1,8.1,0,0,0,1.77,1.19l1.11.64q3.93,2.22,3.93,4.92a3.93,3.93,0,0,1-1.51,3.17,6,6,0,0,1-3.89,1.23,10,10,0,0,1-2.5-.29A17.08,17.08,0,0,1,192.67,23.12Z"/><path class="cls-1" d="M204.7,11l5.85-5.74V8.53h5v2.8h-5V19c0,1.79.74,2.69,2.24,2.69a7,7,0,0,0,3.54-1.11v2.91a7.91,7.91,0,0,1-3.92,1,5.17,5.17,0,0,1-3.55-1.24,3.71,3.71,0,0,1-.74-.85,4.83,4.83,0,0,1-.49-1.23,14.05,14.05,0,0,1-.19-2.9v-7H204.7Z"/><path class="cls-1" d="M221.9,8.53v3.6l.17-.27c1.5-2.43,3-3.64,4.51-3.64A5.53,5.53,0,0,1,230.25,10l-1.64,2.73a4.62,4.62,0,0,0-3-1.54A3.21,3.21,0,0,0,223,12.63a5.39,5.39,0,0,0-1.1,3.4v8.22h-3.13V8.53Z"/><path class="cls-1" d="M242.44,24.25v-2a7.13,7.13,0,0,1-2.27,1.69,5.86,5.86,0,0,1-2.53.6,5.28,5.28,0,0,1-2.75-.74,4.84,4.84,0,0,1-1.89-2,10,10,0,0,1-.64-4.23v-9h3.11v9a6.07,6.07,0,0,0,.71,3.45,2.84,2.84,0,0,0,2.48,1,4.58,4.58,0,0,0,3.78-2.17V8.53h3.11V24.25Z"/><path class="cls-1" d="M261.72,20.58v3.07a13.11,13.11,0,0,1-4.58.87,8,8,0,0,1-5.89-2.18,7.94,7.94,0,0,1-2.2-5.87,8.36,8.36,0,0,1,2.14-6,7.37,7.37,0,0,1,5.62-2.27,9.6,9.6,0,0,1,2.18.23,14.27,14.27,0,0,1,2.39.86v3.32a8.33,8.33,0,0,0-4.38-1.5,4.48,4.48,0,0,0-3.45,1.47,5.4,5.4,0,0,0-1.35,3.77,5.07,5.07,0,0,0,1.46,3.83,5.4,5.4,0,0,0,3.94,1.42A10.39,10.39,0,0,0,261.72,20.58Z"/><path class="cls-1" d="M277.05,20.58v3.07a13.11,13.11,0,0,1-4.58.87,8,8,0,0,1-5.89-2.18,7.94,7.94,0,0,1-2.2-5.87,8.36,8.36,0,0,1,2.14-6,7.37,7.37,0,0,1,5.62-2.27,9.6,9.6,0,0,1,2.18.23,14.27,14.27,0,0,1,2.39.86v3.32a8.33,8.33,0,0,0-4.38-1.5,4.48,4.48,0,0,0-3.45,1.47,5.4,5.4,0,0,0-1.35,3.77A5.07,5.07,0,0,0,269,20.2a5.4,5.4,0,0,0,3.94,1.42A10.39,10.39,0,0,0,277.05,20.58Z"/><path class="cls-1" d="M282.19,1.91a1.86,1.86,0,0,1,1.32.53,1.77,1.77,0,0,1,.54,1.3,1.86,1.86,0,0,1-1.86,1.85A1.71,1.71,0,0,1,280.93,5a1.76,1.76,0,0,1-.55-1.29,1.74,1.74,0,0,1,.55-1.27A1.71,1.71,0,0,1,282.19,1.91Zm-1.54,6.62h3.11V24.25h-3.11Z"/><path class="cls-1" d="M295.78,8.49a8.21,8.21,0,0,1,6,2.32,7.76,7.76,0,0,1,2.38,5.82,7.42,7.42,0,0,1-2.41,5.65,8.59,8.59,0,0,1-6.07,2.24,8.19,8.19,0,0,1-5.91-2.28,7.56,7.56,0,0,1-2.38-5.7,7.63,7.63,0,0,1,2.4-5.75A8.38,8.38,0,0,1,295.78,8.49Zm-.17,2.81a4.92,4.92,0,0,0-3.68,1.47,5.15,5.15,0,0,0-1.43,3.74A4.9,4.9,0,0,0,292,20.19a5.2,5.2,0,0,0,3.77,1.43,5.11,5.11,0,0,0,3.76-1.45,5,5,0,0,0,1.46-3.7,4.94,4.94,0,0,0-1.52-3.7A5.3,5.3,0,0,0,295.61,11.3ZM299.25,0l-3.87,5.13h-1.91L295.78,0Z"/><path class="cls-1" d="M310.68,8.53v2a6.25,6.25,0,0,1,4.73-2.31,5.2,5.2,0,0,1,2.74.76,5,5,0,0,1,1.92,2.09,9.92,9.92,0,0,1,.66,4.19v9h-3.11V15.3a6.13,6.13,0,0,0-.74-3.45,2.81,2.81,0,0,0-2.46-1,4.48,4.48,0,0,0-3.74,2.2V24.25H307.5V8.53Z"/><polygon class="cls-2" points="152.31 271.16 146.64 271.16 146.86 120.75 152.53 120.75 152.31 271.16"/><circle class="cls-3" cx="149.7" cy="93.24" r="32.97"/><path class="cls-4" d="M179.38,92.84a3,3,0,0,1-.06-.48c0-.34,0-.81-.1-1.41,0-.31,0-.66-.06-1s-.13-.79-.19-1.23a23.22,23.22,0,0,0-.63-3.06,28.3,28.3,0,0,0-3.3-7.86,29.63,29.63,0,0,0-19.91-13.84,29.52,29.52,0,0,0-15.45,1.29,30.91,30.91,0,0,0-3.84,1.69c-.62.33-1.21.73-1.83,1.09a14.34,14.34,0,0,0-1.77,1.23,32.91,32.91,0,0,0-3.34,2.83A33.7,33.7,0,0,0,126,75.46a28.34,28.34,0,0,0-4.2,8.1,29.06,29.06,0,0,0,0,18.55,28.34,28.34,0,0,0,4.2,8.1,31.63,31.63,0,0,0,2.88,3.41,32,32,0,0,0,3.34,2.84,14.26,14.26,0,0,0,1.77,1.22c.61.37,1.21.76,1.83,1.1a32.47,32.47,0,0,0,3.84,1.69,29.53,29.53,0,0,0,35.37-12.56,28.5,28.5,0,0,0,3.29-7.85A22,22,0,0,0,179,97c.06-.45.15-.86.19-1.24s0-.72.06-1c.05-.6.08-1.07.1-1.41a3,3,0,0,1,.06-.48,2.89,2.89,0,0,1,0,.48c0,.34,0,.81,0,1.41,0,.32,0,.66,0,1s-.11.79-.17,1.24a20.14,20.14,0,0,1-.57,3.09,28.35,28.35,0,0,1-3.24,8A29.78,29.78,0,0,1,139.5,121a31.31,31.31,0,0,1-3.91-1.71c-.63-.34-1.24-.74-1.87-1.11a17,17,0,0,1-1.81-1.24,34.2,34.2,0,0,1-3.4-2.89,32.83,32.83,0,0,1-2.94-3.47,28.65,28.65,0,0,1-4.29-8.25,29.61,29.61,0,0,1,0-18.91,29.16,29.16,0,0,1,4.29-8.25,27.3,27.3,0,0,1,6.34-6.35,14.51,14.51,0,0,1,1.81-1.24c.63-.38,1.24-.77,1.87-1.11a28.61,28.61,0,0,1,3.91-1.71,30,30,0,0,1,15.72-1.27,29.89,29.89,0,0,1,20.1,14.15,28.35,28.35,0,0,1,3.24,8,20.14,20.14,0,0,1,.57,3.09c.06.45.14.87.17,1.25s0,.73,0,1c0,.6,0,1.07,0,1.42A2.89,2.89,0,0,1,179.38,92.84Z"/><rect class="cls-5" x="132.53" y="89.12" width="34.34" height="7.16"/><rect class="cls-3" x="90.28" y="166.78" width="5.63" height="103.43"/><path class="cls-3" d="M98.78,163.24a5.67,5.67,0,1,1-5.67-5.67A5.67,5.67,0,0,1,98.78,163.24Z"/><rect class="cls-3" x="202.08" y="166.78" width="5.63" height="103.43"/><path class="cls-3" d="M210.58,163.24a5.67,5.67,0,1,1-5.67-5.67A5.67,5.67,0,0,1,210.58,163.24Z"/><rect class="cls-3" x="74.22" y="176.76" width="144.14" height="25.79"/><polygon class="cls-6" points="90.53 176.76 90.28 177.19 75.47 202.55 74.22 202.55 74.22 176.76 90.53 176.76"/><polygon class="cls-6" points="126.96 176.76 111.89 202.55 92.19 202.55 98.18 192.3 107.27 176.76 126.96 176.76"/><polygon class="cls-6" points="163.38 176.76 148.31 202.55 128.61 202.55 143.69 176.76 163.38 176.76"/><polygon class="cls-6" points="199.8 176.76 184.72 202.55 165.03 202.55 180.1 176.76 199.8 176.76"/><polygon class="cls-6" points="218.36 176.76 218.36 202.55 201.44 202.55 216.52 176.76 218.36 176.76"/><rect class="cls-3" x="74.22" y="216.6" width="144.14" height="25.79"/><polygon class="cls-6" points="90.53 216.6 90.28 217.03 75.47 242.39 74.22 242.39 74.22 216.6 90.53 216.6"/><polygon class="cls-6" points="126.96 216.6 111.89 242.39 92.19 242.39 98.18 232.15 107.27 216.6 126.96 216.6"/><polygon class="cls-6" points="163.38 216.6 148.31 242.39 128.61 242.39 143.69 216.6 163.38 216.6"/><polygon class="cls-6" points="199.8 216.61 184.72 242.39 165.03 242.39 180.1 216.61 199.8 216.61"/><polygon class="cls-6" points="218.36 216.61 218.36 242.39 201.44 242.39 216.52 216.61 218.36 216.61"/><line class="cls-7" x1="41.93" y1="271.06" x2="273.6" y2="271.06"/></g></g></svg>