<svg xmlns="http://www.w3.org/2000/svg" viewBox="0 0 660.04 519"><defs><style>.cls-1{fill:#fff;}.cls-2{fill:#5045b3;}.cls-3{fill:#0069b3;}.cls-4{fill:#037559;}.cls-5{fill:#038d71;}.cls-6{fill:#3595e0;}.cls-7{fill:#0a2849;}.cls-10,.cls-8{fill:none;stroke-miterlimit:10;}.cls-8{stroke:#5a50bd;}.cls-9{fill:#5a50bd;}.cls-10{stroke:#eb6654;}</style></defs><g id="Capa_2" data-name="Capa 2"><g id="Arte"><rect class="cls-1" width="660.04" height="519" rx="5"/><path class="cls-2" d="M0,5H0A5,5,0,0,1,5,0H655a5,5,0,0,1,5,5H0Z"/><path class="cls-3" d="M45.38,67.32H47V79.6H45.25V70.05L41.48,74.8h-.33l-3.81-4.75V79.6H35.58V67.32h1.66l4.08,5.05Z"/><path class="cls-3" d="M54.49,79.6v-1a3.51,3.51,0,0,1-1.17.87,3,3,0,0,1-1.3.31,2.67,2.67,0,0,1-1.41-.38,2.46,2.46,0,0,1-1-1,5.15,5.15,0,0,1-.33-2.17V71.52h1.6v4.61a3.08,3.08,0,0,0,.37,1.77,1.47,1.47,0,0,0,1.28.51,2.32,2.32,0,0,0,1.94-1.12V71.52h1.6V79.6Z"/><path class="cls-3" d="M59.83,71.52v1a3.2,3.2,0,0,1,2.43-1.19,2.67,2.67,0,0,1,1.41.39,2.62,2.62,0,0,1,1,1.07A5.06,5.06,0,0,1,65,75V79.6H63.4V75A3.2,3.2,0,0,0,63,73.22a1.44,1.44,0,0,0-1.26-.53,2.31,2.31,0,0,0-1.93,1.14V79.6H58.2V71.52Z"/><path class="cls-3" d="M68,68.12a1,1,0,0,1,.68.27.91.91,0,0,1,.28.66,1,1,0,0,1-1,1,.88.88,0,0,1-.65-.28.91.91,0,0,1-.28-.67.9.9,0,0,1,.28-.65A.88.88,0,0,1,68,68.12Zm-.79,3.4h1.6V79.6h-1.6Z"/><path class="cls-3" d="M77,77.71V79.3a7,7,0,0,1-2.36.44,3.88,3.88,0,0,1-4.16-4.14,4.31,4.31,0,0,1,1.1-3.07,3.78,3.78,0,0,1,2.89-1.17,4.75,4.75,0,0,1,1.12.12,6.44,6.44,0,0,1,1.23.44v1.71a4.23,4.23,0,0,0-2.25-.78,2.34,2.34,0,0,0-1.78.76,2.79,2.79,0,0,0-.69,1.94,2.62,2.62,0,0,0,.75,2,2.78,2.78,0,0,0,2,.73A5.29,5.29,0,0,0,77,77.71Z"/><path class="cls-3" d="M79.56,68.12a.94.94,0,0,1,.68.27.87.87,0,0,1,.28.66.89.89,0,0,1-.28.67.91.91,0,0,1-.68.28.9.9,0,0,1-.65-.28.91.91,0,0,1-.28-.67,1,1,0,0,1,.93-.93Zm-.79,3.4h1.6V79.6h-1.6Z"/><path class="cls-3" d="M82.47,83.72V71.52h2.8a4.83,4.83,0,0,1,3.35,1.07,3.8,3.8,0,0,1,1.2,3,4.11,4.11,0,0,1-1.13,3,3.82,3.82,0,0,1-2.88,1.17,5,5,0,0,1-1.71-.34v4.32ZM85.23,73H84.1v5a3.26,3.26,0,0,0,1.55.38,2.35,2.35,0,0,0,1.83-.78,2.85,2.85,0,0,0,.72-2,2.77,2.77,0,0,0-.34-1.4,2,2,0,0,0-.92-.88A4,4,0,0,0,85.23,73Z"/><path class="cls-3" d="M92.29,68.12a.94.94,0,0,1,.68.27.87.87,0,0,1,.28.66.89.89,0,0,1-.28.67.91.91,0,0,1-.68.28.9.9,0,0,1-.65-.28,1,1,0,0,1-.28-.67.94.94,0,0,1,.28-.65A.9.9,0,0,1,92.29,68.12Zm-.79,3.4h1.6V79.6H91.5Z"/><path class="cls-3" d="M99.17,71.5a4.23,4.23,0,0,1,3.07,1.19,4,4,0,0,1,1.22,3,3.8,3.8,0,0,1-1.24,2.91,4.37,4.37,0,0,1-3.12,1.15,4.24,4.24,0,0,1-3-1.17,4.15,4.15,0,0,1,0-5.89A4.31,4.31,0,0,1,99.17,71.5Zm-.09,1.44a2.53,2.53,0,0,0-1.89.76,2.62,2.62,0,0,0-.73,1.92,2.52,2.52,0,0,0,.75,1.89,2.68,2.68,0,0,0,1.94.74,2.64,2.64,0,0,0,1.93-.74,2.73,2.73,0,0,0,0-3.81A2.68,2.68,0,0,0,99.08,72.94Z"/><path class="cls-3" d="M104.73,79V77.3a7.36,7.36,0,0,0,1.39.77,3.14,3.14,0,0,0,1.19.29,1.52,1.52,0,0,0,.86-.24.71.71,0,0,0,.36-.59.82.82,0,0,0-.23-.59,5.64,5.64,0,0,0-1-.67,7.07,7.07,0,0,1-2-1.47,2.16,2.16,0,0,1-.47-1.33,1.87,1.87,0,0,1,.72-1.52,2.85,2.85,0,0,1,1.87-.59,5.07,5.07,0,0,1,2.43.67v1.58a4.79,4.79,0,0,0-2.33-.86,1.23,1.23,0,0,0-.75.2.59.59,0,0,0-.28.52.75.75,0,0,0,.26.54,4.22,4.22,0,0,0,.91.61l.57.33c1.35.76,2,1.6,2,2.53a2,2,0,0,1-.78,1.63,3.07,3.07,0,0,1-2,.63,4.94,4.94,0,0,1-1.28-.15A8,8,0,0,1,104.73,79Z"/><path class="cls-3" d="M120.66,71.52h3v12.2h-1.6V79.46a6.94,6.94,0,0,1-1.77.28,3.78,3.78,0,0,1-2.85-1.16,4.42,4.42,0,0,1,0-6A4.39,4.39,0,0,1,120.66,71.52Zm1.43,6.55V73h-1a6.68,6.68,0,0,0-1.38.09,2,2,0,0,0-.61.26,2.17,2.17,0,0,0-.46.4A2.66,2.66,0,0,0,118,75.6a2.8,2.8,0,0,0,.74,2,2.56,2.56,0,0,0,1.92.79,2.48,2.48,0,0,0,.45,0,7.74,7.74,0,0,0,.78-.23l.12,0Z"/><path class="cls-3" d="M130.88,79.6v-1a3.58,3.58,0,0,1-1.16.87,3,3,0,0,1-1.31.31,2.67,2.67,0,0,1-1.41-.38,2.43,2.43,0,0,1-1-1,5.15,5.15,0,0,1-.33-2.17V71.52h1.6v4.61a3.18,3.18,0,0,0,.36,1.77,1.47,1.47,0,0,0,1.28.51,2.32,2.32,0,0,0,1.94-1.12V71.52h1.6V79.6Z"/><path class="cls-3" d="M141.51,75.7h-5.68a2.69,2.69,0,0,0,.77,1.85,2.61,2.61,0,0,0,1.86.68,4.84,4.84,0,0,0,2.91-1v1.56a5.25,5.25,0,0,1-1.46.7,6.12,6.12,0,0,1-1.7.21,3.8,3.8,0,0,1-2.16-.55,4.08,4.08,0,0,1-1.33-1.49,4.53,4.53,0,0,1-.49-2.16,4.37,4.37,0,0,1,1-3A3.51,3.51,0,0,1,138,71.36a3.21,3.21,0,0,1,2.57,1.12,4.55,4.55,0,0,1,.95,3Zm-5.65-1h4.07a2.19,2.19,0,0,0-.57-1.47,1.82,1.82,0,0,0-1.37-.52,2,2,0,0,0-1.41.52A2.5,2.5,0,0,0,135.86,74.74Z"/><path class="cls-3" d="M148,67.32h1.59v5.26a3.11,3.11,0,0,1,2.49-1.22,2.66,2.66,0,0,1,1.45.4,2.45,2.45,0,0,1,1,1.12A5.67,5.67,0,0,1,154.8,75v4.6h-1.6v-5a2.22,2.22,0,0,0-.44-1.43,1.39,1.39,0,0,0-1.14-.54,2,2,0,0,0-1,.27,5,5,0,0,0-1,.91V79.6H148Z"/><path class="cls-3" d="M157.75,68.12a1,1,0,0,1,.68.27.91.91,0,0,1,.28.66,1,1,0,0,1-1,1,.88.88,0,0,1-.65-.28.91.91,0,0,1-.28-.67.9.9,0,0,1,.28-.65A.88.88,0,0,1,157.75,68.12Zm-.79,3.4h1.6V79.6H157Z"/><path class="cls-3" d="M166.83,77.71V79.3a7,7,0,0,1-2.36.44,3.88,3.88,0,0,1-4.16-4.14,4.31,4.31,0,0,1,1.1-3.07,3.78,3.78,0,0,1,2.89-1.17,4.75,4.75,0,0,1,1.12.12,6.44,6.44,0,0,1,1.23.44v1.71a4.23,4.23,0,0,0-2.25-.78,2.34,2.34,0,0,0-1.78.76,2.79,2.79,0,0,0-.69,1.94,2.62,2.62,0,0,0,.75,2,2.78,2.78,0,0,0,2,.73A5.29,5.29,0,0,0,166.83,77.71Z"/><path class="cls-3" d="M169.36,68.12a.94.94,0,0,1,.68.27.87.87,0,0,1,.28.66.89.89,0,0,1-.28.67.91.91,0,0,1-.68.28.9.9,0,0,1-.65-.28.91.91,0,0,1-.28-.67,1,1,0,0,1,.93-.93Zm-.79,3.4h1.6V79.6h-1.6Z"/><path class="cls-3" d="M179.27,75.7h-5.69a2.65,2.65,0,0,0,.78,1.85,2.57,2.57,0,0,0,1.85.68,4.89,4.89,0,0,0,2.92-1v1.56a5.31,5.31,0,0,1-1.47.7,6.12,6.12,0,0,1-1.7.21,3.8,3.8,0,0,1-2.16-.55,4.06,4.06,0,0,1-1.32-1.49,4.42,4.42,0,0,1-.5-2.16,4.33,4.33,0,0,1,1.05-3,3.47,3.47,0,0,1,2.71-1.15,3.21,3.21,0,0,1,2.57,1.12,4.5,4.5,0,0,1,1,3Zm-5.66-1h4.07a2.19,2.19,0,0,0-.57-1.47,1.81,1.81,0,0,0-1.37-.52,2,2,0,0,0-1.41.52A2.56,2.56,0,0,0,173.61,74.74Z"/><path class="cls-3" d="M182.6,71.52v1.85l.09-.14c.77-1.25,1.55-1.87,2.32-1.87a2.87,2.87,0,0,1,1.89.91l-.84,1.41a2.38,2.38,0,0,0-1.55-.79,1.64,1.64,0,0,0-1.34.74,2.76,2.76,0,0,0-.57,1.75V79.6H181V71.52Z"/><path class="cls-3" d="M191.33,71.5a4.25,4.25,0,0,1,3.07,1.19,4,4,0,0,1,1.22,3,3.83,3.83,0,0,1-1.24,2.91,4.41,4.41,0,0,1-3.12,1.15,4.22,4.22,0,0,1-3-1.17A3.87,3.87,0,0,1,187,75.64a4,4,0,0,1,1.23-3A4.3,4.3,0,0,1,191.33,71.5Zm-.09,1.44a2.5,2.5,0,0,0-1.89.76,2.63,2.63,0,0,0-.74,1.92,2.49,2.49,0,0,0,.76,1.89,2.9,2.9,0,0,0,3.87,0A2.58,2.58,0,0,0,194,75.6a2.53,2.53,0,0,0-.78-1.9A2.7,2.7,0,0,0,191.24,72.94Z"/><path class="cls-3" d="M198.88,71.52v1a3.21,3.21,0,0,1,2.44-1.19,2.67,2.67,0,0,1,1.4.39,2.49,2.49,0,0,1,1,1.07,5.06,5.06,0,0,1,.34,2.16V79.6h-1.6V75a3.12,3.12,0,0,0-.38-1.78,1.44,1.44,0,0,0-1.26-.53,2.31,2.31,0,0,0-1.93,1.14V79.6h-1.63V71.52Z"/><path class="cls-3" d="M211,83.72V71.52h2.8a4.82,4.82,0,0,1,3.35,1.07,3.8,3.8,0,0,1,1.2,3,4.07,4.07,0,0,1-1.13,3,3.81,3.81,0,0,1-2.87,1.17,5,5,0,0,1-1.71-.34v4.32ZM213.73,73H212.6v5a3.22,3.22,0,0,0,1.54.38,2.39,2.39,0,0,0,1.84-.78,3.17,3.17,0,0,0,.38-3.41,2.1,2.1,0,0,0-.92-.88A4,4,0,0,0,213.73,73Z"/><path class="cls-3" d="M221.68,71.52v1.85l.08-.14c.78-1.25,1.55-1.87,2.32-1.87a2.83,2.83,0,0,1,1.89.91l-.84,1.41a2.36,2.36,0,0,0-1.55-.79,1.65,1.65,0,0,0-1.34.74,2.76,2.76,0,0,0-.56,1.75V79.6h-1.61V71.52Z"/><path class="cls-3" d="M230.4,71.5a4.25,4.25,0,0,1,3.07,1.19,4,4,0,0,1,1.22,3,3.8,3.8,0,0,1-1.24,2.91,4.41,4.41,0,0,1-3.12,1.15,4.22,4.22,0,0,1-3-1.17,3.87,3.87,0,0,1-1.22-2.93,4,4,0,0,1,1.23-3A4.31,4.31,0,0,1,230.4,71.5Zm-.09,1.44a2.53,2.53,0,0,0-1.89.76,2.63,2.63,0,0,0-.74,1.92,2.52,2.52,0,0,0,.76,1.89,2.9,2.9,0,0,0,3.87,0,2.58,2.58,0,0,0,.75-1.91,2.53,2.53,0,0,0-.78-1.9A2.7,2.7,0,0,0,230.31,72.94Z"/><path class="cls-3" d="M242.42,77.71V79.3a6.91,6.91,0,0,1-2.35.44,4.09,4.09,0,0,1-3-1.12,4.05,4.05,0,0,1-1.13-3,4.27,4.27,0,0,1,1.1-3.07,3.77,3.77,0,0,1,2.89-1.17,4.81,4.81,0,0,1,1.12.12,6.44,6.44,0,0,1,1.23.44v1.71a4.23,4.23,0,0,0-2.25-.78,2.31,2.31,0,0,0-1.78.76,2.79,2.79,0,0,0-.69,1.94,2.62,2.62,0,0,0,.75,2,2.75,2.75,0,0,0,2,.73A5.26,5.26,0,0,0,242.42,77.71Z"/><path class="cls-3" d="M251,75.7h-5.68a2.69,2.69,0,0,0,.77,1.85,2.61,2.61,0,0,0,1.85.68,4.84,4.84,0,0,0,2.92-1v1.56a5.25,5.25,0,0,1-1.46.7,6.12,6.12,0,0,1-1.7.21,3.8,3.8,0,0,1-2.16-.55,4.08,4.08,0,0,1-1.33-1.49,4.53,4.53,0,0,1-.49-2.16,4.37,4.37,0,0,1,1-3,3.51,3.51,0,0,1,2.72-1.15,3.17,3.17,0,0,1,2.56,1.12,4.5,4.5,0,0,1,1,3Zm-5.65-1h4.07a2.19,2.19,0,0,0-.57-1.47,1.82,1.82,0,0,0-1.37-.52,1.93,1.93,0,0,0-1.41.52A2.5,2.5,0,0,0,245.37,74.74Z"/><path class="cls-3" d="M252.25,79V77.3a7.06,7.06,0,0,0,1.39.77,3.09,3.09,0,0,0,1.19.29,1.52,1.52,0,0,0,.86-.24.71.71,0,0,0,.36-.59.82.82,0,0,0-.23-.59,6.06,6.06,0,0,0-1-.67,7.07,7.07,0,0,1-2-1.47,2.11,2.11,0,0,1-.48-1.33A1.88,1.88,0,0,1,253,72a2.83,2.83,0,0,1,1.87-.59,5.07,5.07,0,0,1,2.43.67v1.58a4.79,4.79,0,0,0-2.33-.86,1.23,1.23,0,0,0-.75.2.59.59,0,0,0-.28.52.77.77,0,0,0,.25.54,4.81,4.81,0,0,0,.91.61l.57.33c1.35.76,2,1.6,2,2.53a2,2,0,0,1-.78,1.63,3.09,3.09,0,0,1-2,.63,4.94,4.94,0,0,1-1.28-.15A8,8,0,0,1,252.25,79Z"/><path class="cls-3" d="M263.33,71.5a4.25,4.25,0,0,1,3.07,1.19,4,4,0,0,1,1.22,3,3.8,3.8,0,0,1-1.24,2.91,4.41,4.41,0,0,1-3.12,1.15,4.22,4.22,0,0,1-3-1.17,4.15,4.15,0,0,1,0-5.89A4.31,4.31,0,0,1,263.33,71.5Zm-.09,1.44a2.53,2.53,0,0,0-1.89.76,2.62,2.62,0,0,0-.73,1.92,2.52,2.52,0,0,0,.75,1.89,2.68,2.68,0,0,0,1.94.74,2.64,2.64,0,0,0,1.93-.74A2.58,2.58,0,0,0,266,75.6a2.53,2.53,0,0,0-.78-1.9A2.7,2.7,0,0,0,263.24,72.94Z"/><path class="cls-3" d="M40.79,86.32H42.4V98.6H39a3.75,3.75,0,0,1-2.86-1.13,4.27,4.27,0,0,1-1.07-3,4,4,0,0,1,1.12-2.94A3.81,3.81,0,0,1,39,90.34a5.41,5.41,0,0,1,1.76.34Zm0,10.91V92.11a3.34,3.34,0,0,0-1.51-.38,2.47,2.47,0,0,0-1.91.78,3,3,0,0,0-.7,2.11,2.79,2.79,0,0,0,.61,1.93,2,2,0,0,0,.78.54,5.52,5.52,0,0,0,1.49.14Z"/><path class="cls-3" d="M51.35,94.7H45.66a2.69,2.69,0,0,0,.78,1.85,2.61,2.61,0,0,0,1.85.68,4.84,4.84,0,0,0,2.92-1v1.56a5.25,5.25,0,0,1-1.46.7,6.17,6.17,0,0,1-1.7.21,3.84,3.84,0,0,1-2.17-.55,4.06,4.06,0,0,1-1.32-1.49,4.53,4.53,0,0,1-.5-2.16,4.33,4.33,0,0,1,1-3,3.49,3.49,0,0,1,2.72-1.15,3.19,3.19,0,0,1,2.56,1.12,4.5,4.5,0,0,1,1,3Zm-5.65-1h4.07a2.19,2.19,0,0,0-.57-1.47,1.82,1.82,0,0,0-1.37-.52,1.93,1.93,0,0,0-1.41.52A2.5,2.5,0,0,0,45.7,93.74Z"/><path class="cls-3" d="M59.58,90.52v1.85l.09-.14c.77-1.25,1.55-1.87,2.32-1.87a2.87,2.87,0,0,1,1.89.91L63,92.68a2.38,2.38,0,0,0-1.55-.79,1.64,1.64,0,0,0-1.34.74,2.76,2.76,0,0,0-.57,1.75V98.6H58V90.52Z"/><path class="cls-3" d="M71.42,94.7H65.73a2.65,2.65,0,0,0,.78,1.85,2.59,2.59,0,0,0,1.85.68,4.86,4.86,0,0,0,2.92-1v1.56a5.18,5.18,0,0,1-1.47.7,6.12,6.12,0,0,1-1.7.21A3.8,3.8,0,0,1,66,98.17a4.06,4.06,0,0,1-1.32-1.49,4.53,4.53,0,0,1-.5-2.16,4.33,4.33,0,0,1,1.05-3,3.49,3.49,0,0,1,2.71-1.15,3.19,3.19,0,0,1,2.57,1.12,4.5,4.5,0,0,1,1,3Zm-5.65-1h4.07a2.2,2.2,0,0,0-.58-1.47,1.79,1.79,0,0,0-1.37-.52,2,2,0,0,0-1.41.52A2.55,2.55,0,0,0,65.77,93.74Z"/><path class="cls-3" d="M77.72,90.52h1.74l-3.57,8.22h-.55l-3.65-8.22h1.75l2.18,5Z"/><path class="cls-3" d="M81.37,87.12a1,1,0,0,1,.68.27.91.91,0,0,1,.28.66,1,1,0,0,1-1,1,.88.88,0,0,1-.65-.28.91.91,0,0,1-.28-.67.9.9,0,0,1,.28-.65A.88.88,0,0,1,81.37,87.12Zm-.79,3.4h1.6V98.6h-1.6Z"/><path class="cls-3" d="M84,98V96.3a7.29,7.29,0,0,0,1.38.77,3.14,3.14,0,0,0,1.19.29,1.5,1.5,0,0,0,.86-.24.71.71,0,0,0,.36-.59.78.78,0,0,0-.23-.59,5.45,5.45,0,0,0-1-.67,6.92,6.92,0,0,1-2-1.47A2.11,2.11,0,0,1,84,92.47,1.87,1.87,0,0,1,84.76,91a2.85,2.85,0,0,1,1.87-.59,5.11,5.11,0,0,1,2.44.67v1.58a4.82,4.82,0,0,0-2.33-.86A1.23,1.23,0,0,0,86,92a.6.6,0,0,0-.29.52A.79.79,0,0,0,86,93a4.49,4.49,0,0,0,.91.61l.57.33c1.35.76,2,1.6,2,2.53a2,2,0,0,1-.78,1.63,3,3,0,0,1-2,.63,5.08,5.08,0,0,1-1.29-.15A8.27,8.27,0,0,1,84,98Z"/><path class="cls-3" d="M92,87.12a.92.92,0,0,1,.67.27.87.87,0,0,1,.28.66,1,1,0,0,1-1,1,.86.86,0,0,1-.65-.28.92.92,0,0,1-.29-.67.91.91,0,0,1,.29-.65A.86.86,0,0,1,92,87.12Zm-.79,3.4h1.6V98.6h-1.6Z"/><path class="cls-3" d="M98.91,90.5A4.21,4.21,0,0,1,102,91.69a4,4,0,0,1,1.23,3A3.83,3.83,0,0,1,102,97.59a4.41,4.41,0,0,1-3.12,1.15,4.2,4.2,0,0,1-3-1.17,4.13,4.13,0,0,1,0-5.89A4.28,4.28,0,0,1,98.91,90.5Zm-.09,1.44a2.5,2.5,0,0,0-1.89.76,2.63,2.63,0,0,0-.74,1.92A2.49,2.49,0,0,0,97,96.51a2.9,2.9,0,0,0,3.87,0,2.58,2.58,0,0,0,.75-1.91,2.53,2.53,0,0,0-.78-1.9A2.7,2.7,0,0,0,98.82,91.94Zm1.87-5.81-2,2.64h-1l1.19-2.64Z"/><path class="cls-3" d="M106.46,90.52v1a3.21,3.21,0,0,1,2.44-1.19,2.67,2.67,0,0,1,1.4.39,2.49,2.49,0,0,1,1,1.07,5.06,5.06,0,0,1,.34,2.16V98.6H110V94a3.2,3.2,0,0,0-.38-1.78,1.44,1.44,0,0,0-1.26-.53,2.31,2.31,0,0,0-1.93,1.14V98.6h-1.63V90.52Z"/><path class="cls-3" d="M122.51,90.5a4.22,4.22,0,0,1,3.07,1.19,4,4,0,0,1,1.22,3,3.8,3.8,0,0,1-1.24,2.91,4.37,4.37,0,0,1-3.12,1.15,4.24,4.24,0,0,1-3-1.17,4.14,4.14,0,0,1,0-5.89A4.27,4.27,0,0,1,122.51,90.5Zm-.08,1.44a2.5,2.5,0,0,0-1.89.76,2.63,2.63,0,0,0-.74,1.92,2.52,2.52,0,0,0,.75,1.89,2.7,2.7,0,0,0,2,.74,2.66,2.66,0,0,0,1.93-.74,2.58,2.58,0,0,0,.75-1.91,2.53,2.53,0,0,0-.78-1.9A2.72,2.72,0,0,0,122.43,91.94Z"/><path class="cls-3" d="M130.18,90.52v1.85l.09-.14c.78-1.25,1.55-1.87,2.32-1.87a2.83,2.83,0,0,1,1.89.91l-.84,1.41a2.36,2.36,0,0,0-1.55-.79,1.65,1.65,0,0,0-1.34.74,2.76,2.76,0,0,0-.57,1.75V98.6h-1.6V90.52Z"/><path class="cls-3" d="M140.62,86.32h1.6V98.6H138.8a3.78,3.78,0,0,1-2.86-1.13,4.27,4.27,0,0,1-1.06-3A4,4,0,0,1,136,91.49a3.8,3.8,0,0,1,2.86-1.15,5.45,5.45,0,0,1,1.76.34Zm0,10.91V92.11a3.38,3.38,0,0,0-1.52-.38,2.44,2.44,0,0,0-1.9.78,3,3,0,0,0-.71,2.11,2.8,2.8,0,0,0,.62,1.93,1.94,1.94,0,0,0,.78.54,5.47,5.47,0,0,0,1.49.14Z"/><path class="cls-3" d="M145.11,87.12a.94.94,0,0,1,.68.27.87.87,0,0,1,.28.66.89.89,0,0,1-.28.67.91.91,0,0,1-.68.28.9.9,0,0,1-.65-.28.91.91,0,0,1-.28-.67,1,1,0,0,1,.93-.93Zm-.79,3.4h1.6V98.6h-1.6Z"/><path class="cls-3" d="M149.72,90.52v1a3.21,3.21,0,0,1,2.44-1.19,2.73,2.73,0,0,1,1.41.39,2.53,2.53,0,0,1,1,1.07,5.06,5.06,0,0,1,.34,2.16V98.6h-1.6V94a3.21,3.21,0,0,0-.37-1.78,1.48,1.48,0,0,0-1.27-.53,2.31,2.31,0,0,0-1.93,1.14V98.6h-1.63V90.52Z"/><path class="cls-3" d="M162.1,93.74v3.44c0,.27.09.41.28.41a1.91,1.91,0,0,0,.9-.43v1a5.88,5.88,0,0,1-.87.48,2,2,0,0,1-.69.12c-.69,0-1.09-.27-1.21-.81a3.48,3.48,0,0,1-2.17.79,1.91,1.91,0,0,1-1.41-.55,1.87,1.87,0,0,1-.56-1.4,2,2,0,0,1,.55-1.37,3.61,3.61,0,0,1,1.56-1l2-.71v-.43a1.29,1.29,0,0,0-1.46-1.46,3.47,3.47,0,0,0-2.54,1.36V91.46a3.29,3.29,0,0,1,2.68-1.1,3.14,3.14,0,0,1,2.1.68,2.22,2.22,0,0,1,.47.59,2.17,2.17,0,0,1,.27.73A10.17,10.17,0,0,1,162.1,93.74ZM160.52,97V94.6l-1.07.42a3.45,3.45,0,0,0-1.15.65,1.18,1.18,0,0,0,0,1.64,1.13,1.13,0,0,0,.83.32A2,2,0,0,0,160.52,97Z"/><path class="cls-3" d="M166.3,90.52v1.85l.09-.14c.78-1.25,1.55-1.87,2.32-1.87a2.83,2.83,0,0,1,1.89.91l-.84,1.41a2.36,2.36,0,0,0-1.55-.79,1.65,1.65,0,0,0-1.34.74,2.76,2.76,0,0,0-.57,1.75V98.6h-1.6V90.52Z"/><path class="cls-3" d="M172.44,87.12a.92.92,0,0,1,.67.27.87.87,0,0,1,.28.66,1,1,0,0,1-.95,1,.86.86,0,0,1-.65-.28.91.91,0,0,1-.28-.67.9.9,0,0,1,.28-.65A.86.86,0,0,1,172.44,87.12Zm-.79,3.4h1.6V98.6h-1.6Z"/><path class="cls-3" d="M179.32,90.5a4.21,4.21,0,0,1,3.06,1.19,4,4,0,0,1,1.22,3,3.82,3.82,0,0,1-1.23,2.91,4.41,4.41,0,0,1-3.12,1.15,4.24,4.24,0,0,1-3.05-1.17,4.14,4.14,0,0,1,0-5.89A4.28,4.28,0,0,1,179.32,90.5Zm-.09,1.44a2.5,2.5,0,0,0-1.89.76,2.63,2.63,0,0,0-.74,1.92,2.49,2.49,0,0,0,.76,1.89,2.9,2.9,0,0,0,3.87,0A2.58,2.58,0,0,0,182,94.6a2.53,2.53,0,0,0-.78-1.9A2.7,2.7,0,0,0,179.23,91.94Z"/><path class="cls-3" d="M194,90.5a4.23,4.23,0,0,1,3.07,1.19,4,4,0,0,1,1.22,3,3.8,3.8,0,0,1-1.24,2.91A4.37,4.37,0,0,1,194,98.74a4.24,4.24,0,0,1-3-1.17,4.15,4.15,0,0,1,0-5.89A4.31,4.31,0,0,1,194,90.5Zm-.09,1.44a2.53,2.53,0,0,0-1.89.76,2.62,2.62,0,0,0-.73,1.92,2.52,2.52,0,0,0,.75,1.89,2.68,2.68,0,0,0,1.94.74,2.64,2.64,0,0,0,1.93-.74,2.73,2.73,0,0,0,0-3.81A2.68,2.68,0,0,0,193.94,91.94Z"/><path class="cls-3" d="M42,111.73v5.87H40.41v-4.5a3.58,3.58,0,0,0-.36-1.88,1.42,1.42,0,0,0-1.26-.53,1.86,1.86,0,0,0-.91.23,4,4,0,0,0-1,.81v5.87h-1.6v-8.08h1.6v1.06a3.5,3.5,0,0,1,2.39-1.22,2.6,2.6,0,0,1,2.38,1.46,3.61,3.61,0,0,1,2.69-1.48,2.46,2.46,0,0,1,1.93.86,3.88,3.88,0,0,1,.76,2.63v4.77h-1.6v-4.79a2.44,2.44,0,0,0-.41-1.54,1.4,1.4,0,0,0-1.19-.54A2.43,2.43,0,0,0,42,111.73Z"/><path class="cls-3" d="M53,109.5a4.25,4.25,0,0,1,3.07,1.19,4,4,0,0,1,1.22,3,3.8,3.8,0,0,1-1.24,2.91A4.41,4.41,0,0,1,53,117.74a4.22,4.22,0,0,1-3-1.17,3.87,3.87,0,0,1-1.22-2.93,4,4,0,0,1,1.23-3A4.3,4.3,0,0,1,53,109.5Zm-.09,1.44a2.5,2.5,0,0,0-1.89.76,2.63,2.63,0,0,0-.74,1.92,2.52,2.52,0,0,0,.76,1.89,2.9,2.9,0,0,0,3.87,0,2.58,2.58,0,0,0,.75-1.91,2.53,2.53,0,0,0-.78-1.9A2.7,2.7,0,0,0,52.94,110.94Z"/><path class="cls-3" d="M64.38,105.32H66V117.6H62.57a3.77,3.77,0,0,1-2.86-1.13,4.27,4.27,0,0,1-1.07-3,4.08,4.08,0,0,1,1.12-2.94,3.84,3.84,0,0,1,2.87-1.15,5.4,5.4,0,0,1,1.75.34Zm0,10.91v-5.12a3.31,3.31,0,0,0-1.51-.38,2.43,2.43,0,0,0-1.9.78,3,3,0,0,0-.71,2.11,2.8,2.8,0,0,0,.62,1.93,1.87,1.87,0,0,0,.78.54,5.38,5.38,0,0,0,1.48.14Z"/><path class="cls-3" d="M68.88,106.12a1,1,0,0,1,.68.27.91.91,0,0,1,.28.66,1,1,0,0,1-1,1,.88.88,0,0,1-.65-.28.91.91,0,0,1-.28-.67.9.9,0,0,1,.28-.65A.88.88,0,0,1,68.88,106.12Zm-.79,3.4h1.6v8.08h-1.6Z"/><path class="cls-3" d="M72.08,109.52V109a4.32,4.32,0,0,1,.83-2.91,2.54,2.54,0,0,1,2-1,5.75,5.75,0,0,1,1.19.15v1.57a2.29,2.29,0,0,0-.74-.14,1.5,1.5,0,0,0-1.31.5,3.2,3.2,0,0,0-.36,1.78v.49h1.44V111H73.68v6.64h-1.6V111H70.92v-1.44Z"/><path class="cls-3" d="M77.11,106.12a1,1,0,0,1,.68.27.91.91,0,0,1,.28.66,1,1,0,0,1-1,1,.88.88,0,0,1-.65-.28.91.91,0,0,1-.28-.67.9.9,0,0,1,.28-.65A.88.88,0,0,1,77.11,106.12Zm-.79,3.4h1.6v8.08h-1.6Z"/><path class="cls-3" d="M86.19,115.71v1.59a7,7,0,0,1-2.36.44,3.88,3.88,0,0,1-4.16-4.14,4.31,4.31,0,0,1,1.1-3.07,3.8,3.8,0,0,1,2.89-1.17,4.9,4.9,0,0,1,1.13.12,6.39,6.39,0,0,1,1.22.44v1.71a4.23,4.23,0,0,0-2.25-.78,2.31,2.31,0,0,0-1.77.76,2.75,2.75,0,0,0-.7,1.94,2.62,2.62,0,0,0,.75,2,2.78,2.78,0,0,0,2,.73A5.29,5.29,0,0,0,86.19,115.71Z"/><path class="cls-3" d="M93,112.74v3.44c0,.27.09.41.28.41a1.93,1.93,0,0,0,.91-.43v1a6.42,6.42,0,0,1-.88.48,2,2,0,0,1-.69.12c-.68,0-1.09-.27-1.21-.81a3.48,3.48,0,0,1-2.17.79,1.9,1.9,0,0,1-2-2,2,2,0,0,1,.55-1.37,3.61,3.61,0,0,1,1.56-1l2-.71v-.43A1.29,1.29,0,0,0,90,110.85a3.48,3.48,0,0,0-2.55,1.36v-1.75a3.29,3.29,0,0,1,2.68-1.1,3.14,3.14,0,0,1,2.1.68,2.22,2.22,0,0,1,.47.59,2.17,2.17,0,0,1,.27.73A10.17,10.17,0,0,1,93,112.74ZM91.41,116v-2.4l-1.08.42a3.45,3.45,0,0,0-1.15.65,1.08,1.08,0,0,0-.34.82,1.11,1.11,0,0,0,.32.82,1.13,1.13,0,0,0,.83.32A2,2,0,0,0,91.41,116Z"/><path class="cls-3" d="M101.54,115.71v1.59a7,7,0,0,1-2.36.44A3.88,3.88,0,0,1,95,113.6a4.31,4.31,0,0,1,1.1-3.07A3.78,3.78,0,0,1,99,109.36a4.9,4.9,0,0,1,1.13.12,6.39,6.39,0,0,1,1.22.44v1.71a4.23,4.23,0,0,0-2.25-.78,2.31,2.31,0,0,0-1.77.76,2.75,2.75,0,0,0-.7,1.94,2.62,2.62,0,0,0,.75,2,2.78,2.78,0,0,0,2,.73A5.29,5.29,0,0,0,101.54,115.71Z"/><path class="cls-3" d="M104.07,106.12a.94.94,0,0,1,.68.27.87.87,0,0,1,.28.66.89.89,0,0,1-.28.67.91.91,0,0,1-.68.28.9.9,0,0,1-.65-.28,1,1,0,0,1-.28-.67.94.94,0,0,1,.28-.65A.9.9,0,0,1,104.07,106.12Zm-.79,3.4h1.6v8.08h-1.6Z"/><path class="cls-3" d="M111,109.5a4.23,4.23,0,0,1,3.07,1.19,4,4,0,0,1,1.22,3,3.8,3.8,0,0,1-1.24,2.91,4.37,4.37,0,0,1-3.12,1.15,4.24,4.24,0,0,1-3-1.17,4.15,4.15,0,0,1,0-5.89A4.31,4.31,0,0,1,111,109.5Zm-.08,1.44a2.5,2.5,0,0,0-1.89.76,2.59,2.59,0,0,0-.74,1.92,2.52,2.52,0,0,0,.75,1.89,2.69,2.69,0,0,0,2,.74,2.63,2.63,0,0,0,1.92-.74,2.55,2.55,0,0,0,.76-1.91,2.51,2.51,0,0,0-.79-1.9A2.68,2.68,0,0,0,110.87,110.94Zm1.87-5.81-2,2.64h-1l1.18-2.64Z"/><path class="cls-3" d="M118.51,109.52v1a3.19,3.19,0,0,1,2.43-1.19,2.67,2.67,0,0,1,1.41.39,2.62,2.62,0,0,1,1,1.07,5.23,5.23,0,0,1,.34,2.16v4.62h-1.6V113a3.2,3.2,0,0,0-.38-1.78,1.45,1.45,0,0,0-1.27-.53,2.31,2.31,0,0,0-1.92,1.14v5.77h-1.64v-8.08Z"/><path class="cls-3" d="M137.59,113.7H131.9a2.65,2.65,0,0,0,.78,1.85,2.57,2.57,0,0,0,1.85.68,4.84,4.84,0,0,0,2.91-1v1.56a5.13,5.13,0,0,1-1.46.7,6.12,6.12,0,0,1-1.7.21,3.8,3.8,0,0,1-2.16-.55,4.06,4.06,0,0,1-1.32-1.49,4.42,4.42,0,0,1-.5-2.16,4.37,4.37,0,0,1,1-3,3.51,3.51,0,0,1,2.72-1.15,3.21,3.21,0,0,1,2.57,1.12,4.5,4.5,0,0,1,1,3Zm-5.66-1H136a2.19,2.19,0,0,0-.57-1.47,1.81,1.81,0,0,0-1.37-.52,2,2,0,0,0-1.41.52A2.56,2.56,0,0,0,131.93,112.74Z"/><path class="cls-3" d="M144.79,109.52h2.05l-3.33,4,3.57,4.1H145l-2.53-2.9-2.4,2.9h-2l3.4-4.1-3.4-4h2l2.4,2.77Z"/><path class="cls-3" d="M154.17,115.71v1.59a7,7,0,0,1-2.36.44,3.88,3.88,0,0,1-4.16-4.14,4.31,4.31,0,0,1,1.1-3.07,3.78,3.78,0,0,1,2.89-1.17,4.75,4.75,0,0,1,1.12.12,6.44,6.44,0,0,1,1.23.44v1.71a4.23,4.23,0,0,0-2.25-.78,2.34,2.34,0,0,0-1.78.76,2.79,2.79,0,0,0-.69,1.94,2.62,2.62,0,0,0,.75,2,2.78,2.78,0,0,0,2,.73A5.29,5.29,0,0,0,154.17,115.71Z"/><path class="cls-3" d="M162.77,113.7h-5.69a2.65,2.65,0,0,0,.78,1.85,2.59,2.59,0,0,0,1.85.68,4.86,4.86,0,0,0,2.92-1v1.56a5.18,5.18,0,0,1-1.47.7,6.12,6.12,0,0,1-1.7.21,3.8,3.8,0,0,1-2.16-.55,4.06,4.06,0,0,1-1.32-1.49,4.53,4.53,0,0,1-.5-2.16,4.33,4.33,0,0,1,1.05-3,3.47,3.47,0,0,1,2.71-1.15,3.19,3.19,0,0,1,2.57,1.12,4.5,4.5,0,0,1,1,3Zm-5.65-1h4.07a2.25,2.25,0,0,0-.58-1.47,1.81,1.81,0,0,0-1.37-.52,2,2,0,0,0-1.41.52A2.55,2.55,0,0,0,157.12,112.74Z"/><path class="cls-3" d="M164.29,121.72v-12.2h2.8a4.79,4.79,0,0,1,3.34,1.07,3.8,3.8,0,0,1,1.2,3,4.1,4.1,0,0,1-1.12,3,3.84,3.84,0,0,1-2.88,1.17,5,5,0,0,1-1.71-.34v4.32ZM167.05,111h-1.13v5a3.25,3.25,0,0,0,1.54.38,2.39,2.39,0,0,0,1.84-.78,3.12,3.12,0,0,0,.38-3.41,2.05,2.05,0,0,0-.92-.88A4,4,0,0,0,167.05,111Z"/><path class="cls-3" d="M179.35,115.71v1.59a7,7,0,0,1-2.36.44,3.88,3.88,0,0,1-4.16-4.14,4.31,4.31,0,0,1,1.1-3.07,3.8,3.8,0,0,1,2.89-1.17,4.9,4.9,0,0,1,1.13.12,6.39,6.39,0,0,1,1.22.44v1.71a4.23,4.23,0,0,0-2.25-.78,2.31,2.31,0,0,0-1.77.76,2.75,2.75,0,0,0-.7,1.94,2.62,2.62,0,0,0,.75,2,2.78,2.78,0,0,0,2,.73A5.29,5.29,0,0,0,179.35,115.71Z"/><path class="cls-3" d="M181.89,106.12a.94.94,0,0,1,.67.27.87.87,0,0,1,.28.66.89.89,0,0,1-.28.67.93.93,0,0,1-1.33,0,1,1,0,0,1-.28-.67.94.94,0,0,1,.28-.65A.9.9,0,0,1,181.89,106.12Zm-.8,3.4h1.6v8.08h-1.6Z"/><path class="cls-3" d="M188.76,109.5a4.23,4.23,0,0,1,3.07,1.19,4,4,0,0,1,1.22,3,3.8,3.8,0,0,1-1.24,2.91,4.37,4.37,0,0,1-3.12,1.15,4.24,4.24,0,0,1-3-1.17,4.14,4.14,0,0,1,0-5.89A4.27,4.27,0,0,1,188.76,109.5Zm-.08,1.44a2.5,2.5,0,0,0-1.89.76,2.59,2.59,0,0,0-.74,1.92,2.52,2.52,0,0,0,.75,1.89,2.7,2.7,0,0,0,1.95.74,2.66,2.66,0,0,0,1.93-.74,2.58,2.58,0,0,0,.75-1.91,2.51,2.51,0,0,0-.79-1.9A2.68,2.68,0,0,0,188.68,110.94Z"/><path class="cls-3" d="M196.32,109.52v1a3.21,3.21,0,0,1,2.44-1.19,2.67,2.67,0,0,1,1.4.39,2.62,2.62,0,0,1,1,1.07,5.06,5.06,0,0,1,.34,2.16v4.62h-1.6V113a3.2,3.2,0,0,0-.38-1.78,1.44,1.44,0,0,0-1.26-.53,2.31,2.31,0,0,0-1.93,1.14v5.77h-1.63v-8.08Z"/><path class="cls-3" d="M208.69,112.74v3.44c0,.27.1.41.28.41a1.89,1.89,0,0,0,.91-.43v1a5.89,5.89,0,0,1-.88.48,2,2,0,0,1-.69.12c-.68,0-1.09-.27-1.21-.81a3.46,3.46,0,0,1-2.17.79,1.94,1.94,0,0,1-1.41-.55,1.91,1.91,0,0,1-.56-1.4,2,2,0,0,1,.55-1.37,3.73,3.73,0,0,1,1.56-1l2.05-.71v-.43a1.29,1.29,0,0,0-1.46-1.46,3.51,3.51,0,0,0-2.55,1.36v-1.75a3.3,3.3,0,0,1,2.68-1.1,3.1,3.1,0,0,1,2.1.68,2.06,2.06,0,0,1,.48.59,2.17,2.17,0,0,1,.27.73A13.07,13.07,0,0,1,208.69,112.74ZM207.12,116v-2.4l-1.07.42a3.52,3.52,0,0,0-1.16.65,1.18,1.18,0,0,0,0,1.64,1.15,1.15,0,0,0,.83.32A2,2,0,0,0,207.12,116Z"/><path class="cls-3" d="M211.22,105.32h1.6V117.6h-1.6Z"/><path class="cls-3" d="M40.36,35.7a4,4,0,0,1,2.8,1,3.61,3.61,0,0,1,0,5.15,4.13,4.13,0,0,1-2.87,1H38V48H35.61V35.7ZM39.77,41a2.27,2.27,0,0,0,1.48-.44,1.58,1.58,0,0,0,.53-1.29c0-1.13-.72-1.69-2.18-1.69H38V41Z"/><path class="cls-3" d="M52.31,35.55a7.43,7.43,0,0,1,3.43.78,6,6,0,0,1,2.43,2.27,6.21,6.21,0,0,1,0,6.44,6.07,6.07,0,0,1-2.42,2.29,7.77,7.77,0,0,1-7,0,6.07,6.07,0,0,1-3.3-5.46,6.19,6.19,0,0,1,.87-3.18,6,6,0,0,1,2.4-2.3A7.29,7.29,0,0,1,52.31,35.55ZM48,41.85A4.34,4.34,0,0,0,48.53,44a3.79,3.79,0,0,0,1.54,1.51,4.61,4.61,0,0,0,2.24.54,4.25,4.25,0,0,0,3.11-1.19,4.08,4.08,0,0,0,1.21-3,4.42,4.42,0,0,0-.55-2.21,3.8,3.8,0,0,0-1.54-1.51,4.68,4.68,0,0,0-2.25-.54,4.61,4.61,0,0,0-2.24.54,3.8,3.8,0,0,0-1.54,1.51A4.49,4.49,0,0,0,48,41.85Z"/><path class="cls-3" d="M70.66,35.7v1.86H66.3V48H63.93V37.56H59.57V35.7Z"/><path class="cls-3" d="M82.39,35.7,87.81,48H85.3L84,45H78.57l-1.18,3H74.9L80,35.7Zm-3.1,7.49h4l-2.08-4.86Z"/><path class="cls-3" d="M95.05,35.55a8.77,8.77,0,0,1,2,.23,10.59,10.59,0,0,1,2.16.81v2.23a11,11,0,0,0-2.1-.94,7,7,0,0,0-2-.29,5.09,5.09,0,0,0-2.36.54,4,4,0,0,0-1.64,1.53,4.44,4.44,0,0,0,0,4.39,3.84,3.84,0,0,0,1.63,1.51,5.26,5.26,0,0,0,2.37.53,6.44,6.44,0,0,0,1.93-.29,13.63,13.63,0,0,0,2.32-1V47a11.4,11.4,0,0,1-2.2.89,9.5,9.5,0,0,1-2.34.26,7.67,7.67,0,0,1-3.47-.77A5.8,5.8,0,0,1,89,45.14,6.1,6.1,0,0,1,88.11,42a6.3,6.3,0,0,1,.9-3.33,6.2,6.2,0,0,1,2.48-2.28A7.83,7.83,0,0,1,95.05,35.55Z"/><path class="cls-3" d="M111.74,35.7v1.86h-4.36V48H105V37.56h-4.36V35.7Z"/><path class="cls-3" d="M115.72,35.7v7.15a3.93,3.93,0,0,0,.33,1.75,2.51,2.51,0,0,0,1.07,1.07,3.5,3.5,0,0,0,1.74.42,3.86,3.86,0,0,0,1.85-.4,2.44,2.44,0,0,0,1.11-1.09,4.19,4.19,0,0,0,.36-1.91v-7h2.37V43a4.86,4.86,0,0,1-1.49,3.81,6.07,6.07,0,0,1-4.2,1.33,6.61,6.61,0,0,1-3-.61A4.3,4.3,0,0,1,114,45.78a5.31,5.31,0,0,1-.66-2.69V35.7Z"/><path class="cls-3" d="M133.11,35.7,138.53,48H136l-1.27-3h-5.46l-1.18,3h-2.49l5.06-12.28ZM130,43.19h4l-2.08-4.86Z"/><path class="cls-3" d="M142.24,35.7V46.13h6V48h-8.34V35.7Z"/><path class="cls-3" d="M152.14,35.7V48h-2.37V35.7Z"/><path class="cls-3" d="M164.89,35.7l-7.16,10.43h7.19V48H153.66l7.14-10.42h-6.71V35.7Z"/><path class="cls-3" d="M172.84,35.7,178.26,48h-2.5l-1.28-3H169l-1.19,3h-2.49l5.07-12.28Zm-3.09,7.49h4l-2.07-4.86Z"/><path class="cls-3" d="M184.74,35.7a7.26,7.26,0,0,1,3.41.78,5.79,5.79,0,0,1,2.32,2.2,6.23,6.23,0,0,1,.83,3.18,6.09,6.09,0,0,1-.84,3.2,5.56,5.56,0,0,1-2.36,2.16,7.67,7.67,0,0,1-3.5.76h-5V35.7Zm-.25,10.43a4.28,4.28,0,0,0,3.16-1.19,4.66,4.66,0,0,0,0-6.23,4.45,4.45,0,0,0-3.23-1.15H182v8.57Z"/><path class="cls-3" d="M199.7,35.55a7.43,7.43,0,0,1,3.43.78,6.17,6.17,0,0,1,3.33,5.52,6.17,6.17,0,0,1-3.31,5.48,7.75,7.75,0,0,1-6.94,0,6.07,6.07,0,0,1-3.3-5.46,6.19,6.19,0,0,1,.87-3.18,6,6,0,0,1,2.4-2.3A7.29,7.29,0,0,1,199.7,35.55Zm-4.34,6.3a4.35,4.35,0,0,0,.56,2.19,3.79,3.79,0,0,0,1.54,1.51,4.58,4.58,0,0,0,2.24.54,4.21,4.21,0,0,0,3.1-1.19,4.08,4.08,0,0,0,1.22-3,4.42,4.42,0,0,0-.55-2.21,3.82,3.82,0,0,0-1.55-1.51,4.61,4.61,0,0,0-2.24-.54,4.68,4.68,0,0,0-2.25.54,3.83,3.83,0,0,0-1.53,1.51A4.49,4.49,0,0,0,195.36,41.85Z"/><path class="cls-3" d="M218.22,35.7a4,4,0,0,1,2.8,1,3.37,3.37,0,0,1,1.07,2.57A3.31,3.31,0,0,1,221,41.85a4.13,4.13,0,0,1-2.87,1h-2.29V48h-2.37V35.7ZM217.63,41a2.27,2.27,0,0,0,1.48-.44,1.58,1.58,0,0,0,.53-1.29c0-1.13-.72-1.69-2.18-1.69h-1.62V41Z"/><path class="cls-3" d="M230.17,35.55a7.43,7.43,0,0,1,3.43.78A6,6,0,0,1,236,38.6a6.21,6.21,0,0,1-2.4,8.73,7.77,7.77,0,0,1-6.95,0,6.07,6.07,0,0,1-3.3-5.46,6.19,6.19,0,0,1,.87-3.18,6,6,0,0,1,2.4-2.3A7.29,7.29,0,0,1,230.17,35.55Zm-4.33,6.3a4.34,4.34,0,0,0,.55,2.19,3.79,3.79,0,0,0,1.54,1.51,4.61,4.61,0,0,0,2.24.54,4.25,4.25,0,0,0,3.11-1.19,4.08,4.08,0,0,0,1.21-3,4.42,4.42,0,0,0-.55-2.21,3.8,3.8,0,0,0-1.54-1.51,5,5,0,0,0-4.5,0,3.83,3.83,0,0,0-1.53,1.51A4.49,4.49,0,0,0,225.84,41.85Z"/><path class="cls-3" d="M243.47,35.7a4.09,4.09,0,0,1,2.82,1,3.16,3.16,0,0,1,1.09,2.5,3.13,3.13,0,0,1-.54,1.82,3.56,3.56,0,0,1-1.6,1.23,3.54,3.54,0,0,1,1,.86,10.36,10.36,0,0,1,1.14,1.83c.75,1.49,1.3,2.52,1.67,3.08h-2.65c-.18-.27-.43-.7-.74-1.29a26.61,26.61,0,0,0-1.49-2.64,3.6,3.6,0,0,0-.91-1,1.83,1.83,0,0,0-1-.28h-.87V48h-2.37V35.7Zm-.53,5.24a2.1,2.1,0,0,0,1.46-.47,1.61,1.61,0,0,0,.53-1.27,1.49,1.49,0,0,0-.53-1.26,2.35,2.35,0,0,0-1.5-.42h-1.48v3.42Z"/><path class="cls-3" d="M260.57,35.7,266,48h-2.5l-1.28-3h-5.45l-1.19,3h-2.49l5.06-12.28Zm-3.09,7.49h4l-2.07-4.86Z"/><path class="cls-3" d="M269.41,35.7l7.3,8.57V35.7H279V48h-2l-7.34-8.71V48h-2.32V35.7Zm2.65-3.38a2.33,2.33,0,0,1,.78.15l.81.34.75.33a1.64,1.64,0,0,0,.59.16.55.55,0,0,0,.46-.25,1.32,1.32,0,0,0,.24-.71h1.14a3.08,3.08,0,0,1-.6,1.81,1.71,1.71,0,0,1-1.4.67,2.75,2.75,0,0,1-.88-.13,6.55,6.55,0,0,1-1-.45l-.43-.19-.3-.12-.23-.06a.62.62,0,0,0-.19,0,.52.52,0,0,0-.47.24,1.69,1.69,0,0,0-.23.73H270a3,3,0,0,1,.62-1.84A1.86,1.86,0,0,1,272.06,32.32Z"/><path class="cls-3" d="M287.91,35.55a7.43,7.43,0,0,1,3.43.78,6,6,0,0,1,2.43,2.27,6.21,6.21,0,0,1-2.4,8.73,7.77,7.77,0,0,1-6.95,0,6.07,6.07,0,0,1-3.3-5.46,6.19,6.19,0,0,1,.87-3.18,6,6,0,0,1,2.4-2.3A7.29,7.29,0,0,1,287.91,35.55Zm-4.33,6.3a4.34,4.34,0,0,0,.55,2.19,3.79,3.79,0,0,0,1.54,1.51,4.61,4.61,0,0,0,2.24.54A4.25,4.25,0,0,0,291,44.9a4.08,4.08,0,0,0,1.21-3,4.42,4.42,0,0,0-.55-2.21,3.8,3.8,0,0,0-1.54-1.51,5,5,0,0,0-4.5,0,3.83,3.83,0,0,0-1.53,1.51A4.49,4.49,0,0,0,283.58,41.85Z"/><rect class="cls-4" x="281.47" y="63.79" width="42.98" height="25.63" rx="5"/><rect class="cls-5" x="281.47" y="61.79" width="42.98" height="25.63" rx="5"/><path class="cls-1" d="M292.06,68.3a3.86,3.86,0,0,1,2.78,1,3.54,3.54,0,0,1,1,2.66,6.05,6.05,0,0,1-.77,2.75,27,27,0,0,1-2.7,3.91h4.21v2.12h-8v-.25c.93-1.14,1.73-2.17,2.39-3.08s1.18-1.67,1.54-2.27a9.24,9.24,0,0,0,.78-1.53,3.88,3.88,0,0,0,.23-1.31,2,2,0,0,0-.54-1.42,1.74,1.74,0,0,0-1.32-.58,4.14,4.14,0,0,0-2.88,1.58v-2.4A5.34,5.34,0,0,1,292.06,68.3Z"/><path class="cls-1" d="M301.45,68.3a3.86,3.86,0,0,1,2.78,1,3.54,3.54,0,0,1,1,2.66,5.93,5.93,0,0,1-.77,2.75,27,27,0,0,1-2.7,3.91H306v2.12h-7.95v-.25c.92-1.14,1.72-2.17,2.38-3.08s1.18-1.67,1.55-2.27a9.07,9.07,0,0,0,.77-1.53,3.88,3.88,0,0,0,.23-1.31,2,2,0,0,0-.54-1.42,1.72,1.72,0,0,0-1.32-.58,4.18,4.18,0,0,0-2.88,1.58v-2.4A5.34,5.34,0,0,1,301.45,68.3Z"/><path class="cls-1" d="M310.7,68.3a4.19,4.19,0,0,1,2.75.85,2.73,2.73,0,0,1,1.05,2.24,3,3,0,0,1-1.72,2.81,2.82,2.82,0,0,1,1.49,1.15,3.51,3.51,0,0,1,.5,1.89,3.37,3.37,0,0,1-1.14,2.65,4.39,4.39,0,0,1-3,1,6.12,6.12,0,0,1-2.82-.69V78a6.78,6.78,0,0,0,1.37.72,3.75,3.75,0,0,0,1.28.22,2.08,2.08,0,0,0,1.41-.48,1.65,1.65,0,0,0,.55-1.27,1.72,1.72,0,0,0-.61-1.38,2.5,2.5,0,0,0-1.66-.51H310V73.43h.1a2.49,2.49,0,0,0,1.54-.43,1.53,1.53,0,0,0,0-2.35,2.07,2.07,0,0,0-1.37-.45,5,5,0,0,0-2.18.56V68.83A6.18,6.18,0,0,1,310.7,68.3Z"/><rect class="cls-6" x="73.31" y="486.1" width="10.02" height="10.02"/><path d="M92.19,485.54h1.64a3.41,3.41,0,0,1,2.28.68,2.5,2.5,0,0,1,.81,2,2.8,2.8,0,0,1-.8,2,2.92,2.92,0,0,1-2.25.85H92.72l-.56,4H90.84Zm1.14,1.13-.45,3.25h.93a1.79,1.79,0,0,0,1.34-.5,1.7,1.7,0,0,0,.48-1.23,1.42,1.42,0,0,0-.45-1.1,1.82,1.82,0,0,0-1.29-.42Z"/><path d="M102.09,485.41a3,3,0,0,1,2.44,1.11,4.33,4.33,0,0,1,.93,2.9,6.27,6.27,0,0,1-1.36,4.14,4.08,4.08,0,0,1-3.24,1.65,3.07,3.07,0,0,1-2.45-1.13,4.32,4.32,0,0,1-1-2.9,6.6,6.6,0,0,1,1.31-4A4,4,0,0,1,102.09,485.41Zm-1.21,8.65a2.77,2.77,0,0,0,2.31-1.43,5.93,5.93,0,0,0,1-3.44,3,3,0,0,0-.57-1.93,1.84,1.84,0,0,0-1.53-.7,2.76,2.76,0,0,0-2.4,1.47,6.12,6.12,0,0,0-.93,3.33,3.09,3.09,0,0,0,.59,2A1.88,1.88,0,0,0,100.88,494.06Z"/><path d="M112.6,485.54l-.17,1.18h-2.69l-1.17,8.37h-1.32l1.17-8.37h-2.68l.17-1.18Z"/><path d="M122.07,488.8l-.89,6.29H120l.11-.73,0,0a2.37,2.37,0,0,1-1.69.88,1.85,1.85,0,0,1-1.47-.73,2.66,2.66,0,0,1-.6-1.76,4.06,4.06,0,0,1,1.12-3,4.16,4.16,0,0,1,3.15-1.17A5.25,5.25,0,0,1,122.07,488.8Zm-1.81,4.47.51-3.63-.37,0a2.61,2.61,0,0,0-2.13.89,3.07,3.07,0,0,0-.73,2,2,2,0,0,0,.35,1.24,1.06,1.06,0,0,0,.89.48,1.51,1.51,0,0,0,1-.43C120.07,493.52,120.25,493.34,120.26,493.27Z"/><path d="M127.39,493.68l-.13,1.15a3.59,3.59,0,0,1-1.75.45,2.64,2.64,0,0,1-2-.79,2.89,2.89,0,0,1-.76-2.11,3.54,3.54,0,0,1,1.15-2.68,4.06,4.06,0,0,1,2.93-1.1,6.79,6.79,0,0,1,1.08.11l-.16,1.06a4,4,0,0,0-.91-.11,2.8,2.8,0,0,0-2,.8,2.48,2.48,0,0,0-.82,1.85,2,2,0,0,0,.46,1.4,1.62,1.62,0,0,0,1.26.51A3.24,3.24,0,0,0,127.39,493.68Z"/><path d="M131.78,488.8l-.13.93H130.4l-.62,3.43a2.64,2.64,0,0,0,0,.44c0,.41.22.62.66.62a2.42,2.42,0,0,0,1.15-.38l-.07,1.16a3.24,3.24,0,0,1-1.3.28,1.77,1.77,0,0,1-1.22-.39,1.31,1.31,0,0,1-.45-1,1.82,1.82,0,0,1,0-.32l.66-3.8h-1.11l.15-.93h1.15l.23-1.29h1.17l-.23,1.29Z"/><path d="M137.85,488.8l-.89,6.29h-1.18l.11-1.07a3,3,0,0,1-2.07,1.16,1.47,1.47,0,0,1-1.08-.45,1.83,1.83,0,0,1-.44-1.3,2.59,2.59,0,0,1,0-.48l.58-4.15h1.19l-.59,4.15c0,.13,0,.26,0,.38,0,.63.23.94.69.94s1.12-.46,1.9-1.39l.57-4.08Z"/><path d="M144.53,488.8l-.89,6.29h-1.19l.12-.73,0,0a2.39,2.39,0,0,1-1.69.88,1.83,1.83,0,0,1-1.47-.73,2.66,2.66,0,0,1-.6-1.76,4.06,4.06,0,0,1,1.12-3A4.16,4.16,0,0,1,143,488.6,5.32,5.32,0,0,1,144.53,488.8Zm-1.82,4.47.52-3.63-.37,0a2.62,2.62,0,0,0-2.14.89,3.12,3.12,0,0,0-.73,2,2.09,2.09,0,0,0,.35,1.24,1.09,1.09,0,0,0,.9.48,1.49,1.49,0,0,0,.94-.43C142.53,493.52,142.7,493.34,142.71,493.27Z"/><path d="M147.71,485.54l-1.35,9.55h-1.19l1.35-9.55Z"/><path d="M149.88,488.8l-.89,6.29h-1.18l.88-6.29Zm-1.06-2a.68.68,0,0,1,.2-.49.68.68,0,0,1,1,0,.64.64,0,0,1,.2.49.63.63,0,0,1-.2.48.68.68,0,0,1-1,0A.67.67,0,0,1,148.82,486.83Z"/><path d="M156.37,488.8,152.2,494h3.66l-.23,1.06h-5.7l4.11-5.24h-3.18l.14-1.05Z"/><path d="M162.77,488.8l-.88,6.29H160.7l.11-.73,0,0a2.41,2.41,0,0,1-1.7.88,1.82,1.82,0,0,1-1.46-.73,2.62,2.62,0,0,1-.61-1.76,4.07,4.07,0,0,1,1.13-3,4.14,4.14,0,0,1,3.14-1.17A5.25,5.25,0,0,1,162.77,488.8ZM161,493.27l.51-3.63-.37,0a2.61,2.61,0,0,0-2.13.89,3.07,3.07,0,0,0-.73,2,2,2,0,0,0,.35,1.24,1.07,1.07,0,0,0,.89.48,1.51,1.51,0,0,0,1-.43C160.77,493.52,161,493.34,161,493.27Z"/><path d="M169.79,485.54l-1.35,9.55a5.9,5.9,0,0,1-1.6.19,3.56,3.56,0,0,1-2.45-.76,2.68,2.68,0,0,1-.86-2.15,3.74,3.74,0,0,1,1.11-2.57,4,4,0,0,1,3-1.2h.5l.43-3.06Zm-2.41,8.73.66-4.67h-.31a3,3,0,0,0-2.16.81,2.64,2.64,0,0,0-.82,1.93,1.89,1.89,0,0,0,.54,1.45,2.18,2.18,0,0,0,1.55.51A3.57,3.57,0,0,0,167.38,494.27Z"/><path d="M173.18,488.6a2.12,2.12,0,0,1,1.7.75,3,3,0,0,1,.64,2,4.52,4.52,0,0,1-.86,2.83,2.62,2.62,0,0,1-2.12,1.1,2.14,2.14,0,0,1-1.74-.74,3.12,3.12,0,0,1-.63-2.07,4.34,4.34,0,0,1,.87-2.76A2.62,2.62,0,0,1,173.18,488.6Zm0,.94a1.49,1.49,0,0,0-1.26.91,4.17,4.17,0,0,0-.53,2.14,2.1,2.1,0,0,0,.32,1.2.93.93,0,0,0,.79.47,1.5,1.5,0,0,0,1.27-.85,3.91,3.91,0,0,0,.53-2.13A2.28,2.28,0,0,0,174,490,.93.93,0,0,0,173.18,489.54Z"/><path d="M180.47,489.26v1.25a3.3,3.3,0,0,0-1.9-.83.92.92,0,0,0-.6.19.58.58,0,0,0-.25.47.64.64,0,0,0,.15.38,6.26,6.26,0,0,0,1,.75,3.55,3.55,0,0,1,1.1,1,1.82,1.82,0,0,1-.26,2.29,1.94,1.94,0,0,1-1.4.52,3.73,3.73,0,0,1-2.18-.82l.2-1.15a3.49,3.49,0,0,0,1.94.93.85.85,0,0,0,.58-.19.62.62,0,0,0,.23-.5.78.78,0,0,0-.16-.46,4.82,4.82,0,0,0-1-.8,3.75,3.75,0,0,1-1.07-1,1.71,1.71,0,0,1-.25-.88,1.66,1.66,0,0,1,.54-1.31,2,2,0,0,1,1.43-.5A3.37,3.37,0,0,1,180.47,489.26Z"/><rect class="cls-6" x="50.51" y="412.61" width="9.58" height="12.29"/><rect class="cls-6" x="77.29" y="385.35" width="9.58" height="39.55"/><rect class="cls-6" x="104.02" y="405.12" width="9.58" height="19.77"/><rect class="cls-6" x="131.24" y="362.01" width="9.58" height="62.88"/><rect class="cls-6" x="158.07" y="405.26" width="9.58" height="19.63"/><rect class="cls-6" x="185.09" y="330.35" width="9.58" height="94.55"/><rect class="cls-6" x="212.22" y="404.04" width="9.58" height="20.86"/><rect class="cls-6" x="239.13" y="291.94" width="9.58" height="132.96"/><rect class="cls-6" x="266.04" y="383.76" width="9.58" height="41.13"/><rect class="cls-6" x="293.38" y="207.21" width="9.58" height="217.69"/><path class="cls-7" d="M45.14,442.56h3.64v1.32h-6v-.09l.57-.68c.9-1.11,1.61-2.06,2.14-2.83a9.7,9.7,0,0,0,1-1.76,2.94,2.94,0,0,0,.25-1.17,1.86,1.86,0,0,0-.46-1.3,1.62,1.62,0,0,0-1.22-.49,2.21,2.21,0,0,0-1.13.34,3.45,3.45,0,0,0-1,1v-1.73a3.58,3.58,0,0,1,2.3-.91,2.77,2.77,0,0,1,2.06.83,2.94,2.94,0,0,1,.81,2.12,4.32,4.32,0,0,1-.2,1.23,7.16,7.16,0,0,1-.72,1.5,20.63,20.63,0,0,1-1.74,2.33Z"/><path class="cls-7" d="M52.81,434.21A2.51,2.51,0,0,1,55,435.59a7.61,7.61,0,0,1,0,7,2.51,2.51,0,0,1-4.45,0,7.74,7.74,0,0,1,0-7.07A2.59,2.59,0,0,1,52.81,434.21Zm0,1.3h-.07a1.4,1.4,0,0,0-1.25,1,6.09,6.09,0,0,0-.46,2.62,6.44,6.44,0,0,0,.45,2.66,1.39,1.39,0,0,0,1.25,1,1.41,1.41,0,0,0,1.25-1,6.33,6.33,0,0,0,.45-2.62,6.5,6.5,0,0,0-.44-2.65C53.72,435.84,53.32,435.51,52.83,435.51Z"/><path class="cls-7" d="M59.81,434.21A2.51,2.51,0,0,1,62,435.59a7.61,7.61,0,0,1,0,7,2.51,2.51,0,0,1-4.45,0,7.74,7.74,0,0,1,0-7.07A2.59,2.59,0,0,1,59.81,434.21Zm0,1.3h-.07a1.4,1.4,0,0,0-1.25,1,6.09,6.09,0,0,0-.46,2.62,6.44,6.44,0,0,0,.45,2.66,1.39,1.39,0,0,0,1.25,1,1.41,1.41,0,0,0,1.25-1,6.33,6.33,0,0,0,.45-2.62,6.5,6.5,0,0,0-.44-2.65C60.72,435.84,60.32,435.51,59.83,435.51Z"/><path class="cls-7" d="M66.81,434.21A2.51,2.51,0,0,1,69,435.59a7.61,7.61,0,0,1,0,7,2.51,2.51,0,0,1-4.45,0,7.74,7.74,0,0,1,0-7.07A2.59,2.59,0,0,1,66.81,434.21Zm0,1.3h-.07a1.4,1.4,0,0,0-1.25,1,6.09,6.09,0,0,0-.46,2.62,6.44,6.44,0,0,0,.45,2.66,1.39,1.39,0,0,0,1.25,1,1.41,1.41,0,0,0,1.25-1,6.33,6.33,0,0,0,.45-2.62,6.5,6.5,0,0,0-.44-2.65C67.72,435.84,67.32,435.51,66.83,435.51Z"/><path class="cls-7" d="M99,442.56h3.64v1.32h-6v-.09l.57-.68c.9-1.11,1.61-2.06,2.14-2.83a10.35,10.35,0,0,0,1-1.76,3.12,3.12,0,0,0,.25-1.17,1.86,1.86,0,0,0-.46-1.3,1.62,1.62,0,0,0-1.22-.49,2.21,2.21,0,0,0-1.13.34,3.45,3.45,0,0,0-1,1v-1.73a3.58,3.58,0,0,1,2.29-.91,2.78,2.78,0,0,1,2.07.83,2.94,2.94,0,0,1,.81,2.12,4,4,0,0,1-.21,1.23,6.6,6.6,0,0,1-.71,1.5,20.63,20.63,0,0,1-1.74,2.33Z"/><path class="cls-7" d="M106.7,434.21a2.51,2.51,0,0,1,2.17,1.38,7.61,7.61,0,0,1,0,7,2.51,2.51,0,0,1-4.45,0,7.74,7.74,0,0,1,0-7.07A2.59,2.59,0,0,1,106.7,434.21Zm0,1.3h-.07a1.4,1.4,0,0,0-1.25,1,6.09,6.09,0,0,0-.46,2.62,6.44,6.44,0,0,0,.45,2.66,1.39,1.39,0,0,0,1.24,1,1.41,1.41,0,0,0,1.26-1,6.33,6.33,0,0,0,.45-2.62,6.5,6.5,0,0,0-.44-2.65C107.61,435.84,107.21,435.51,106.72,435.51Z"/><path class="cls-7" d="M113.7,434.21a2.51,2.51,0,0,1,2.17,1.38,7.61,7.61,0,0,1,0,7,2.51,2.51,0,0,1-4.45,0,7.74,7.74,0,0,1,0-7.07A2.59,2.59,0,0,1,113.7,434.21Zm0,1.3h-.07a1.4,1.4,0,0,0-1.25,1,6.09,6.09,0,0,0-.46,2.62,6.44,6.44,0,0,0,.45,2.66,1.39,1.39,0,0,0,1.24,1,1.41,1.41,0,0,0,1.26-1,6.33,6.33,0,0,0,.45-2.62,6.5,6.5,0,0,0-.44-2.65C114.61,435.84,114.21,435.51,113.72,435.51Z"/><path class="cls-7" d="M120,442.56h3.64v1.32h-6v-.09l.57-.68c.9-1.11,1.61-2.06,2.14-2.83a10.35,10.35,0,0,0,1-1.76,3.12,3.12,0,0,0,.25-1.17,1.86,1.86,0,0,0-.46-1.3,1.62,1.62,0,0,0-1.22-.49,2.21,2.21,0,0,0-1.13.34,3.45,3.45,0,0,0-1,1v-1.73a3.58,3.58,0,0,1,2.29-.91,2.78,2.78,0,0,1,2.07.83,2.94,2.94,0,0,1,.81,2.12,4,4,0,0,1-.21,1.23,6.6,6.6,0,0,1-.71,1.5,20.63,20.63,0,0,1-1.74,2.33Z"/><path class="cls-7" d="M153.68,442.56h3.64v1.32h-6v-.09l.58-.68c.9-1.11,1.61-2.06,2.14-2.83a10.35,10.35,0,0,0,1-1.76,3.1,3.1,0,0,0,.24-1.17,1.85,1.85,0,0,0-.45-1.3,1.63,1.63,0,0,0-1.22-.49,2.21,2.21,0,0,0-1.13.34,3.45,3.45,0,0,0-1,1v-1.73a3.56,3.56,0,0,1,2.29-.91,2.76,2.76,0,0,1,2.06.83,2.94,2.94,0,0,1,.81,2.12,4,4,0,0,1-.2,1.23,6.6,6.6,0,0,1-.71,1.5,20.63,20.63,0,0,1-1.74,2.33Z"/><path class="cls-7" d="M161.35,434.21a2.51,2.51,0,0,1,2.17,1.38,7.61,7.61,0,0,1,0,7,2.51,2.51,0,0,1-4.45,0,7.78,7.78,0,0,1,0-7.07A2.6,2.6,0,0,1,161.35,434.21Zm0,1.3h-.06a1.4,1.4,0,0,0-1.25,1,6.09,6.09,0,0,0-.46,2.62,6.44,6.44,0,0,0,.45,2.66,1.29,1.29,0,0,0,2.49,0,6.16,6.16,0,0,0,.46-2.62,6.67,6.67,0,0,0-.44-2.65C162.26,435.84,161.86,435.51,161.36,435.51Z"/><path class="cls-7" d="M168.35,434.21a2.51,2.51,0,0,1,2.17,1.38,7.61,7.61,0,0,1,0,7,2.51,2.51,0,0,1-4.45,0,7.78,7.78,0,0,1,0-7.07A2.6,2.6,0,0,1,168.35,434.21Zm0,1.3h-.06a1.4,1.4,0,0,0-1.25,1,6.09,6.09,0,0,0-.46,2.62,6.44,6.44,0,0,0,.45,2.66,1.29,1.29,0,0,0,2.49,0,6.16,6.16,0,0,0,.46-2.62,6.67,6.67,0,0,0-.44-2.65C169.26,435.84,168.86,435.51,168.36,435.51Z"/><path class="cls-7" d="M176.77,434.21h.56v5.36h1.06v1.16h-1.06v3.15H176v-3.15h-4v-.59Zm-.78,5.36V436.8l-2.21,2.77Z"/><path class="cls-7" d="M207.94,442.56h3.64v1.32h-6.05v-.09l.58-.68c.89-1.11,1.61-2.06,2.14-2.83a10.35,10.35,0,0,0,1-1.76,3.1,3.1,0,0,0,.24-1.17,1.81,1.81,0,0,0-.46-1.3,1.6,1.6,0,0,0-1.21-.49,2.18,2.18,0,0,0-1.13.34,3.48,3.48,0,0,0-1,1v-1.73a3.6,3.6,0,0,1,2.3-.91,2.77,2.77,0,0,1,2.06.83,2.94,2.94,0,0,1,.81,2.12,4.32,4.32,0,0,1-.2,1.23,6.6,6.6,0,0,1-.71,1.5,22.35,22.35,0,0,1-1.75,2.33Z"/><path class="cls-7" d="M215.61,434.21a2.52,2.52,0,0,1,2.17,1.38,7.61,7.61,0,0,1,0,7,2.57,2.57,0,0,1-2.23,1.36,2.54,2.54,0,0,1-2.22-1.34,7.7,7.7,0,0,1,0-7.07A2.59,2.59,0,0,1,215.61,434.21Zm0,1.3h-.07a1.38,1.38,0,0,0-1.24,1,6.08,6.08,0,0,0-.47,2.62,6.42,6.42,0,0,0,.46,2.66,1.29,1.29,0,0,0,2.49,0,6.16,6.16,0,0,0,.46-2.62,6.67,6.67,0,0,0-.44-2.65C216.51,435.84,216.12,435.51,215.62,435.51Z"/><path class="cls-7" d="M222.61,434.21a2.52,2.52,0,0,1,2.17,1.38,7.61,7.61,0,0,1,0,7,2.57,2.57,0,0,1-2.23,1.36,2.54,2.54,0,0,1-2.22-1.34,7.7,7.7,0,0,1,0-7.07A2.59,2.59,0,0,1,222.61,434.21Zm0,1.3h-.07a1.38,1.38,0,0,0-1.24,1,6.08,6.08,0,0,0-.47,2.62,6.42,6.42,0,0,0,.46,2.66,1.29,1.29,0,0,0,2.49,0,6.16,6.16,0,0,0,.46-2.62,6.67,6.67,0,0,0-.44-2.65C223.51,435.84,223.12,435.51,222.62,435.51Z"/><path class="cls-7" d="M230.35,434.3l.14-.09.83,1a8.26,8.26,0,0,0-1.82,1.54,5.93,5.93,0,0,0-1.11,2,3.3,3.3,0,0,1,1.51-.39,2.51,2.51,0,0,1,1.9.8,2.68,2.68,0,0,1,.78,2,2.73,2.73,0,0,1-.85,2,2.81,2.81,0,0,1-2,.83,2.74,2.74,0,0,1-2.18-.95,3.62,3.62,0,0,1-.83-2.47,6.58,6.58,0,0,1,.43-2.29,7.38,7.38,0,0,1,1.23-2.13A10,10,0,0,1,230.35,434.3Zm-2.25,5.87a3.88,3.88,0,0,0-.06.72,1.89,1.89,0,0,0,.47,1.32,1.53,1.53,0,0,0,1.2.52,1.4,1.4,0,0,0,1.08-.44,1.54,1.54,0,0,0,.43-1.12,1.48,1.48,0,0,0-.45-1.12,1.73,1.73,0,0,0-1.2-.43,1.94,1.94,0,0,0-.7.12A4.26,4.26,0,0,0,228.1,440.17Z"/><path class="cls-7" d="M261.24,442.56h3.64v1.32h-6v-.09l.57-.68c.9-1.11,1.61-2.06,2.14-2.83a9.7,9.7,0,0,0,1-1.76,2.94,2.94,0,0,0,.25-1.17,1.86,1.86,0,0,0-.46-1.3,1.62,1.62,0,0,0-1.22-.49,2.21,2.21,0,0,0-1.13.34,3.45,3.45,0,0,0-1,1v-1.73a3.58,3.58,0,0,1,2.3-.91,2.77,2.77,0,0,1,2.06.83,2.94,2.94,0,0,1,.81,2.12,4.32,4.32,0,0,1-.2,1.23,7.16,7.16,0,0,1-.72,1.5,20.63,20.63,0,0,1-1.74,2.33Z"/><path class="cls-7" d="M268.91,434.21a2.51,2.51,0,0,1,2.17,1.38,7.61,7.61,0,0,1,0,7,2.51,2.51,0,0,1-4.45,0,7.74,7.74,0,0,1,0-7.07A2.59,2.59,0,0,1,268.91,434.21Zm0,1.3h-.07a1.4,1.4,0,0,0-1.25,1,6.09,6.09,0,0,0-.46,2.62,6.44,6.44,0,0,0,.45,2.66,1.39,1.39,0,0,0,1.24,1,1.41,1.41,0,0,0,1.26-1,6.33,6.33,0,0,0,.45-2.62,6.5,6.5,0,0,0-.44-2.65C269.82,435.84,269.42,435.51,268.93,435.51Z"/><path class="cls-7" d="M275.91,434.21a2.51,2.51,0,0,1,2.17,1.38,7.61,7.61,0,0,1,0,7,2.51,2.51,0,0,1-4.45,0,7.74,7.74,0,0,1,0-7.07A2.59,2.59,0,0,1,275.91,434.21Zm0,1.3h-.07a1.4,1.4,0,0,0-1.25,1,6.09,6.09,0,0,0-.46,2.62,6.44,6.44,0,0,0,.45,2.66,1.39,1.39,0,0,0,1.24,1,1.41,1.41,0,0,0,1.26-1,6.33,6.33,0,0,0,.45-2.62,6.5,6.5,0,0,0-.44-2.65C276.82,435.84,276.42,435.51,275.93,435.51Z"/><path class="cls-7" d="M280,436.89a2.51,2.51,0,0,1,.84-1.9,2.92,2.92,0,0,1,2.06-.78,2.88,2.88,0,0,1,2,.77,2.55,2.55,0,0,1-.37,4,2.44,2.44,0,0,1,1.33,2.25,2.54,2.54,0,0,1-.86,2,3.44,3.44,0,0,1-4.36,0,2.5,2.5,0,0,1-.88-1.95,2.46,2.46,0,0,1,1.35-2.24,3.51,3.51,0,0,1-.87-1A2.39,2.39,0,0,1,280,436.89Zm4.5,4.43v-.14a1.37,1.37,0,0,0-.47-1.07,1.8,1.8,0,0,0-1.22-.41,1.71,1.71,0,0,0-1.19.42,1.36,1.36,0,0,0-.46,1.08,1.39,1.39,0,0,0,.47,1.08,2,2,0,0,0,2.41,0A1.26,1.26,0,0,0,284.53,441.32Zm-.12-4.38a1.34,1.34,0,0,0-.43-1,1.49,1.49,0,0,0-1.08-.4,1.55,1.55,0,0,0-1.09.39,1.36,1.36,0,0,0-.42,1,1.34,1.34,0,0,0,.45,1,1.51,1.51,0,0,0,1.07.43,1.43,1.43,0,0,0,1.06-.43A1.33,1.33,0,0,0,284.41,436.94Z"/><path class="cls-7" d="M316.62,442.56h3.64v1.32h-6v-.09l.57-.68c.9-1.11,1.61-2.06,2.14-2.83a10.35,10.35,0,0,0,1-1.76,3.08,3.08,0,0,0,.25-1.17,1.86,1.86,0,0,0-.46-1.3,1.62,1.62,0,0,0-1.22-.49,2.21,2.21,0,0,0-1.13.34,3.49,3.49,0,0,0-1,1v-1.74a3.58,3.58,0,0,1,2.29-.91,2.74,2.74,0,0,1,2.06.83,2.9,2.9,0,0,1,.82,2.12,4,4,0,0,1-.21,1.23,6.6,6.6,0,0,1-.71,1.5,19.76,19.76,0,0,1-1.74,2.33Z"/><path class="cls-7" d="M324.29,434.21a2.51,2.51,0,0,1,2.17,1.38,7.61,7.61,0,0,1,0,7,2.51,2.51,0,0,1-4.45,0,6.58,6.58,0,0,1-.84-3.54,6.49,6.49,0,0,1,.87-3.54A2.59,2.59,0,0,1,324.29,434.21Zm0,1.3h-.07a1.4,1.4,0,0,0-1.25,1,6.12,6.12,0,0,0-.46,2.62,6.44,6.44,0,0,0,.45,2.66,1.29,1.29,0,0,0,2.49,0,6.16,6.16,0,0,0,.46-2.62,6.5,6.5,0,0,0-.44-2.65C325.2,435.84,324.8,435.51,324.31,435.51Z"/><path class="cls-7" d="M330.57,434.33h1.36v9.55h-1.36Z"/><path class="cls-7" d="M338.29,434.21a2.51,2.51,0,0,1,2.17,1.38,7.61,7.61,0,0,1,0,7,2.51,2.51,0,0,1-4.45,0,6.58,6.58,0,0,1-.84-3.54,6.49,6.49,0,0,1,.87-3.54A2.59,2.59,0,0,1,338.29,434.21Zm0,1.3h-.07a1.4,1.4,0,0,0-1.25,1,6.12,6.12,0,0,0-.46,2.62,6.44,6.44,0,0,0,.45,2.66,1.29,1.29,0,0,0,2.49,0,6.16,6.16,0,0,0,.46-2.62,6.5,6.5,0,0,0-.44-2.65C339.2,435.84,338.8,435.51,338.31,435.51Z"/><line class="cls-8" x1="55.28" y1="409.81" x2="55.28" y2="386.33"/><circle class="cls-8" cx="55.3" cy="377.56" r="8.81" transform="translate(-140.28 49.9) rotate(-22.5)"/><circle class="cls-8" cx="82.08" cy="349.44" r="8.81" transform="translate(-127.48 58.01) rotate(-22.5)"/><circle class="cls-8" cx="108.44" cy="369.35" r="8.81" transform="translate(-133.09 69.61) rotate(-22.5)"/><circle class="cls-8" cx="136.03" cy="326.1" r="8.81" transform="translate(-114.44 76.88) rotate(-22.5)"/><circle class="cls-8" cx="162.86" cy="369.35" r="8.81" transform="translate(-128.95 90.44) rotate(-22.5)"/><circle class="cls-8" cx="189.89" cy="294.44" r="8.81" transform="translate(-98.22 95.08) rotate(-22.5)"/><circle class="cls-8" cx="243.92" cy="256.03" r="8.81" transform="translate(-79.41 112.83) rotate(-22.5)"/><circle class="cls-8" cx="298.17" cy="171.75" r="8.81" transform="translate(-43.03 127.18) rotate(-22.5)"/><circle class="cls-8" cx="324.93" cy="171.75" r="8.81" transform="translate(-40.99 137.42) rotate(-22.5)"/><circle class="cls-8" cx="354.43" cy="112.46" r="8.81" transform="translate(-16.06 144.19) rotate(-22.5)"/><circle class="cls-8" cx="411.64" cy="160.35" r="8.81" transform="translate(-30.03 169.74) rotate(-22.5)"/><circle class="cls-8" cx="437.65" cy="112.46" r="8.81" transform="translate(-9.72 176.04) rotate(-22.5)"/><circle class="cls-8" cx="464.42" cy="83.41" r="8.81" transform="translate(3.43 184.07) rotate(-22.5)"/><circle class="cls-8" cx="493.91" cy="198.8" r="8.81" transform="translate(-38.48 204.14) rotate(-22.5)"/><circle class="cls-8" cx="524.07" cy="190.12" r="8.81" transform="translate(-32.86 215.02) rotate(-22.5)"/><circle class="cls-8" cx="551.13" cy="239.53" r="8.81" transform="translate(-49.71 229.14) rotate(-22.5)"/><circle class="cls-8" cx="579.37" cy="293.34" r="8.81" transform="translate(-68.15 244.04) rotate(-22.5)"/><circle class="cls-8" cx="606.43" cy="377.07" r="8.81" transform="translate(-98.14 260.77) rotate(-22.5)"/><circle class="cls-8" cx="384.85" cy="256.03" r="8.81" transform="translate(-68.68 166.76) rotate(-22.5)"/><circle class="cls-8" cx="217.01" cy="368.02" r="8.81" transform="translate(-124.31 111.06) rotate(-22.5)"/><circle class="cls-8" cx="270.83" cy="347.85" r="8.81" transform="translate(-112.5 130.12) rotate(-22.5)"/><path class="cls-9" d="M54.66,373H56v9.55H54.66Z"/><line class="cls-8" x1="82.08" y1="382.55" x2="82.08" y2="358.25"/><path class="cls-9" d="M81.52,348.54h.08a2.12,2.12,0,0,0,1.36-.37,1.26,1.26,0,0,0,.47-1.07,1.33,1.33,0,0,0-.45-1,1.79,1.79,0,0,0-1.2-.39,3.69,3.69,0,0,0-1.65.46v-1.3a4,4,0,0,1,1.82-.42,3,3,0,0,1,2.08.69,2.72,2.72,0,0,1,.47,3.11,2.45,2.45,0,0,1-.94.85,1.85,1.85,0,0,1,.82.53,2.45,2.45,0,0,1,.41.77,3.32,3.32,0,0,1,.14,1,2.78,2.78,0,0,1-.84,2.07,2.88,2.88,0,0,1-2.1.82,4.51,4.51,0,0,1-2.1-.53v-1.49a4,4,0,0,0,2.1.68,1.53,1.53,0,0,0,1.11-.41,1.47,1.47,0,0,0,.42-1.09,1.52,1.52,0,0,0-.35-1,1.23,1.23,0,0,0-.45-.35,4.45,4.45,0,0,0-1.08-.22h-.12Z"/><line class="cls-8" x1="108.81" y1="402.32" x2="108.81" y2="378.02"/><path class="cls-9" d="M108.19,372.69h3.64V374h-6v-.1l.57-.68c.9-1.11,1.61-2.05,2.14-2.83a9.71,9.71,0,0,0,1-1.75,3,3,0,0,0,.25-1.18,1.82,1.82,0,0,0-.46-1.29,1.58,1.58,0,0,0-1.22-.49A2.12,2.12,0,0,0,107,366a3.32,3.32,0,0,0-1,1v-1.74a3.64,3.64,0,0,1,2.3-.91,2.74,2.74,0,0,1,2.06.84,2.9,2.9,0,0,1,.81,2.12,4.37,4.37,0,0,1-.2,1.23,7.66,7.66,0,0,1-.72,1.5,19.83,19.83,0,0,1-1.74,2.32Z"/><line class="cls-8" x1="136.03" y1="359.21" x2="136.03" y2="334.91"/><path class="cls-9" d="M134.24,320.8h4.24V322h-3v2.42l.29,0a3.18,3.18,0,0,1,2.28.85,2.82,2.82,0,0,1,.9,2.15,2.85,2.85,0,0,1-.89,2.19,3.18,3.18,0,0,1-2.29.84,4.81,4.81,0,0,1-2.25-.56v-1.41a3.65,3.65,0,0,0,2,.67,2.12,2.12,0,0,0,1.45-.5,1.54,1.54,0,0,0,.58-1.23,1.57,1.57,0,0,0-.63-1.27,2.48,2.48,0,0,0-1.59-.51,3,3,0,0,0-1.11.14Z"/><line class="cls-8" x1="162.86" y1="402.46" x2="162.86" y2="378.16"/><path class="cls-9" d="M162.75,372.69h3.64V374h-6v-.1l.58-.67c.9-1.12,1.61-2.06,2.14-2.83a10.75,10.75,0,0,0,1-1.76,3.15,3.15,0,0,0,.24-1.18,1.81,1.81,0,0,0-.45-1.29,1.6,1.6,0,0,0-1.22-.49,2.12,2.12,0,0,0-1.13.34,3.32,3.32,0,0,0-1,1v-1.74a3.6,3.6,0,0,1,2.29-.9,2.72,2.72,0,0,1,2.06.83,2.92,2.92,0,0,1,.81,2.12,4,4,0,0,1-.2,1.23,7,7,0,0,1-.71,1.5,19.83,19.83,0,0,1-1.74,2.32Z"/><line class="cls-8" x1="189.89" y1="327.55" x2="189.89" y2="303.24"/><path class="cls-9" d="M187,292.25a2.47,2.47,0,0,1,.85-1.9,2.86,2.86,0,0,1,2-.79,2.82,2.82,0,0,1,2,.78,2.53,2.53,0,0,1-.36,4,2.61,2.61,0,0,1,.46,4.21,3.11,3.11,0,0,1-2.17.78,3.17,3.17,0,0,1-2.18-.79,2.52,2.52,0,0,1-.88-2,2.46,2.46,0,0,1,1.35-2.24,3.31,3.31,0,0,1-.87-1A2.3,2.3,0,0,1,187,292.25Zm4.5,4.42v-.13a1.33,1.33,0,0,0-.47-1.07,1.73,1.73,0,0,0-1.21-.42,1.7,1.7,0,0,0-1.19.42,1.39,1.39,0,0,0-.46,1.08,1.36,1.36,0,0,0,.47,1.08,2,2,0,0,0,2.4,0A1.2,1.2,0,0,0,191.49,296.67Zm-.11-4.38a1.35,1.35,0,0,0-.43-1,1.53,1.53,0,0,0-1.08-.41,1.5,1.5,0,0,0-1.09.4,1.33,1.33,0,0,0-.43,1,1.37,1.37,0,0,0,.45,1,1.53,1.53,0,0,0,1.08.42,1.48,1.48,0,0,0,1.06-.42A1.36,1.36,0,0,0,191.38,292.29Z"/><line class="cls-8" x1="217.01" y1="401.24" x2="217.01" y2="376.93"/><path class="cls-9" d="M216.6,371.23h3.63v1.32h-6v-.09l.57-.68c.9-1.11,1.62-2.06,2.15-2.83a10.13,10.13,0,0,0,1-1.76,2.94,2.94,0,0,0,.25-1.17,1.81,1.81,0,0,0-.46-1.3,1.62,1.62,0,0,0-1.22-.49,2.12,2.12,0,0,0-1.13.34,3.58,3.58,0,0,0-1,.95v-1.73a3.58,3.58,0,0,1,2.3-.91,2.77,2.77,0,0,1,2.06.83,2.94,2.94,0,0,1,.81,2.12,4.32,4.32,0,0,1-.2,1.23,7.16,7.16,0,0,1-.72,1.5,19.83,19.83,0,0,1-1.74,2.32Z"/><line class="cls-8" x1="243.92" y1="289.14" x2="243.92" y2="264.83"/><path class="cls-9" d="M240.16,251.36h1.37v9.55h-1.37Z"/><path class="cls-9" d="M246.21,251.23a2.52,2.52,0,0,1,2.17,1.38,7.61,7.61,0,0,1,0,7,2.51,2.51,0,0,1-4.45,0,6.56,6.56,0,0,1-.84-3.53,6.49,6.49,0,0,1,.86-3.54A2.6,2.6,0,0,1,246.21,251.23Zm0,1.3h-.07a1.41,1.41,0,0,0-1.24,1,6.16,6.16,0,0,0-.46,2.62,6.41,6.41,0,0,0,.45,2.66,1.28,1.28,0,0,0,2.49,0,6.09,6.09,0,0,0,.46-2.62,6.62,6.62,0,0,0-.44-2.64C247.12,252.86,246.72,252.53,246.22,252.53Z"/><line class="cls-8" x1="270.83" y1="380.96" x2="270.83" y2="356.66"/><path class="cls-9" d="M270.64,347.19h.08a2.2,2.2,0,0,0,1.36-.37,1.31,1.31,0,0,0,.47-1.08,1.3,1.3,0,0,0-.46-1,1.76,1.76,0,0,0-1.19-.39,3.63,3.63,0,0,0-1.65.46v-1.31a4.09,4.09,0,0,1,1.82-.41,3,3,0,0,1,2.08.69,2.71,2.71,0,0,1,.47,3.1,2.38,2.38,0,0,1-.94.85,2,2,0,0,1,.82.54,2.25,2.25,0,0,1,.4.77,3,3,0,0,1,.15,1,2.78,2.78,0,0,1-.84,2.07,2.89,2.89,0,0,1-2.1.81,4.47,4.47,0,0,1-2.1-.52v-1.49a4,4,0,0,0,2.1.67,1.49,1.49,0,0,0,1.11-.41,1.43,1.43,0,0,0,.42-1.08,1.52,1.52,0,0,0-.35-1,1.49,1.49,0,0,0-.45-.36,5.22,5.22,0,0,0-1.08-.21l-.12,0Z"/><line class="cls-8" x1="298.17" y1="204.4" x2="298.17" y2="180.1"/><path class="cls-9" d="M294.74,167.22h1.36v9.55h-1.36Z"/><path class="cls-9" d="M297.91,167.22h6.18l-4.32,9.66-1.22-.52,3.49-7.84h-4.13Z"/><line class="cls-8" x1="324.93" y1="204.4" x2="324.93" y2="180.1"/><path class="cls-9" d="M321.5,167.22h1.37v9.55H321.5Z"/><path class="cls-9" d="M324.68,167.22h6.18l-4.32,9.66-1.23-.52,3.49-7.84h-4.12Z"/><rect class="cls-6" x="349.64" y="148.37" width="9.58" height="276.53"/><line class="cls-8" x1="354.43" y1="145.57" x2="354.43" y2="121.27"/><path class="cls-9" d="M351.21,115.61h3.63v1.32h-6v-.09l.57-.68c.9-1.11,1.62-2.06,2.15-2.83a11.08,11.08,0,0,0,1-1.76,3.06,3.06,0,0,0,.24-1.17,1.81,1.81,0,0,0-.46-1.3,1.6,1.6,0,0,0-1.22-.49A2.21,2.21,0,0,0,350,109a3.62,3.62,0,0,0-1,1v-1.74a3.58,3.58,0,0,1,2.3-.91,2.77,2.77,0,0,1,2.06.83,2.94,2.94,0,0,1,.81,2.12,4.26,4.26,0,0,1-.2,1.23,6.69,6.69,0,0,1-.72,1.5,19.76,19.76,0,0,1-1.74,2.33Z"/><path class="cls-9" d="M357.28,111.38h.09a2.2,2.2,0,0,0,1.36-.37,1.31,1.31,0,0,0,.47-1.08,1.3,1.3,0,0,0-.46-1,1.76,1.76,0,0,0-1.19-.4,3.65,3.65,0,0,0-1.65.47v-1.31a4,4,0,0,1,1.82-.41,3,3,0,0,1,2.08.69,2.43,2.43,0,0,1,.76,1.88,2.32,2.32,0,0,1-.3,1.22,2.35,2.35,0,0,1-.93.85,2,2,0,0,1,.82.54,2.25,2.25,0,0,1,.4.77,3,3,0,0,1,.15,1,2.74,2.74,0,0,1-.84,2.06,2.86,2.86,0,0,1-2.1.82,4.47,4.47,0,0,1-2.1-.52V115a4,4,0,0,0,2.1.67,1.49,1.49,0,0,0,1.11-.41,1.43,1.43,0,0,0,.42-1.08,1.56,1.56,0,0,0-.35-1,1.37,1.37,0,0,0-.46-.35,4.93,4.93,0,0,0-1.07-.21l-.13,0Z"/><rect class="cls-6" x="379.79" y="291.94" width="9.58" height="132.96"/><path class="cls-7" d="M375.15,443.12h3.64v1.32h-6v-.09l.57-.68c.9-1.11,1.61-2.06,2.14-2.83a10.35,10.35,0,0,0,1-1.76,3.06,3.06,0,0,0,.24-1.17,1.85,1.85,0,0,0-.45-1.3,1.62,1.62,0,0,0-1.22-.49,2.21,2.21,0,0,0-1.13.34,3.49,3.49,0,0,0-1,1v-1.74a3.58,3.58,0,0,1,2.29-.91,2.74,2.74,0,0,1,2.06.83,2.9,2.9,0,0,1,.81,2.12,4,4,0,0,1-.2,1.23,6.6,6.6,0,0,1-.71,1.5,19.76,19.76,0,0,1-1.74,2.33Z"/><path class="cls-7" d="M382.82,434.77a2.51,2.51,0,0,1,2.17,1.38,7.61,7.61,0,0,1,0,7,2.51,2.51,0,0,1-4.45,0,6.58,6.58,0,0,1-.84-3.54,6.49,6.49,0,0,1,.87-3.54A2.58,2.58,0,0,1,382.82,434.77Zm0,1.3h-.07a1.4,1.4,0,0,0-1.25,1,6.09,6.09,0,0,0-.46,2.62,6.44,6.44,0,0,0,.45,2.66,1.29,1.29,0,0,0,2.49,0,6.16,6.16,0,0,0,.46-2.62,6.5,6.5,0,0,0-.44-2.65C383.73,436.4,383.33,436.07,382.84,436.07Z"/><path class="cls-7" d="M389.1,434.89h1.36v9.55H389.1Z"/><path class="cls-7" d="M396.15,443.12h3.64v1.32h-6v-.09l.57-.68c.9-1.11,1.61-2.06,2.14-2.83a10.35,10.35,0,0,0,1-1.76,3.06,3.06,0,0,0,.24-1.17,1.85,1.85,0,0,0-.45-1.3,1.62,1.62,0,0,0-1.22-.49,2.21,2.21,0,0,0-1.13.34,3.49,3.49,0,0,0-1,1v-1.74a3.58,3.58,0,0,1,2.29-.91,2.74,2.74,0,0,1,2.06.83,2.9,2.9,0,0,1,.81,2.12,4,4,0,0,1-.2,1.23,6.6,6.6,0,0,1-.71,1.5,19.76,19.76,0,0,1-1.74,2.33Z"/><rect class="cls-6" x="320.43" y="207.21" width="9.58" height="217.69"/><line class="cls-8" x1="384.85" y1="289.14" x2="384.85" y2="264.83"/><path class="cls-9" d="M380.88,250.94h1.37v9.55h-1.37Z"/><path class="cls-9" d="M387.77,250.81a2.53,2.53,0,0,1,2.17,1.38,7.69,7.69,0,0,1,0,7,2.57,2.57,0,0,1-2.23,1.36,2.54,2.54,0,0,1-2.23-1.33,6.56,6.56,0,0,1-.84-3.53,6.49,6.49,0,0,1,.87-3.54A2.6,2.6,0,0,1,387.77,250.81Zm0,1.3h-.07a1.42,1.42,0,0,0-1.25,1,6.31,6.31,0,0,0-.46,2.62,6.41,6.41,0,0,0,.45,2.66,1.29,1.29,0,0,0,2.5,0,6.25,6.25,0,0,0,.46-2.62,6.62,6.62,0,0,0-.44-2.64C388.67,252.44,388.28,252.11,387.78,252.11Z"/><rect class="cls-6" x="406.85" y="196.26" width="9.58" height="228.63"/><line class="cls-8" x1="411.64" y1="193.46" x2="411.64" y2="169.16"/><path class="cls-9" d="M408.08,156h1.37v9.55h-1.37Z"/><path class="cls-9" d="M413.19,165.63l-.84-1A7.36,7.36,0,0,0,414.2,163a5.05,5.05,0,0,0,1.06-2,2.81,2.81,0,0,1-1.52.41,2.55,2.55,0,0,1-1.88-.82,2.71,2.71,0,0,1-.78-2,2.75,2.75,0,0,1,.83-2,2.81,2.81,0,0,1,2-.83,2.85,2.85,0,0,1,2.22,1,3.68,3.68,0,0,1,.86,2.51,6.7,6.7,0,0,1-1.08,3.51A8.07,8.07,0,0,1,413.19,165.63Zm2.34-5.93a5,5,0,0,0,.08-.71,2,2,0,0,0-.46-1.35,1.51,1.51,0,0,0-1.18-.53,1.45,1.45,0,0,0-1.1.45,1.55,1.55,0,0,0-.44,1.12,1.43,1.43,0,0,0,.48,1.08,1.56,1.56,0,0,0,1.12.45A2.61,2.61,0,0,0,415.53,159.7Z"/><rect class="cls-6" x="432.86" y="148.37" width="9.58" height="276.53"/><rect class="cls-6" x="459.63" y="119.38" width="9.58" height="305.51"/><path class="cls-7" d="M427.36,442.56H431v1.32h-6v-.09l.57-.68c.9-1.11,1.62-2.06,2.15-2.83a10.13,10.13,0,0,0,1-1.76,2.94,2.94,0,0,0,.25-1.17,1.81,1.81,0,0,0-.46-1.3,1.62,1.62,0,0,0-1.22-.49,2.21,2.21,0,0,0-1.13.34,3.58,3.58,0,0,0-1,1v-1.73a3.58,3.58,0,0,1,2.3-.91,2.77,2.77,0,0,1,2.06.83,2.94,2.94,0,0,1,.81,2.12,4.32,4.32,0,0,1-.2,1.23,7.16,7.16,0,0,1-.72,1.5,20.63,20.63,0,0,1-1.74,2.33Z"/><path class="cls-7" d="M435,434.21a2.51,2.51,0,0,1,2.17,1.38,7.61,7.61,0,0,1,0,7,2.51,2.51,0,0,1-4.45,0,7.74,7.74,0,0,1,0-7.07A2.59,2.59,0,0,1,435,434.21Zm0,1.3H435a1.41,1.41,0,0,0-1.25,1,6.25,6.25,0,0,0-.46,2.62,6.44,6.44,0,0,0,.45,2.66,1.39,1.39,0,0,0,1.25,1,1.41,1.41,0,0,0,1.25-1,6.31,6.31,0,0,0,.46-2.62,6.48,6.48,0,0,0-.45-2.65C435.93,435.84,435.54,435.51,435,435.51Z"/><path class="cls-7" d="M441.3,434.33h1.37v9.55H441.3Z"/><path class="cls-7" d="M450.44,434.21H451v5.36h1.07v1.16H451v3.15h-1.33v-3.15h-4v-.59Zm-.77,5.36V436.8l-2.21,2.77Z"/><line class="cls-8" x1="437.65" y1="145.57" x2="437.65" y2="121.27"/><path class="cls-9" d="M434.28,115.61h3.63v1.32h-6v-.09l.57-.68c.9-1.11,1.62-2.06,2.15-2.83a10.35,10.35,0,0,0,1-1.76,3.06,3.06,0,0,0,.24-1.17,1.81,1.81,0,0,0-.46-1.3,1.6,1.6,0,0,0-1.22-.49,2.21,2.21,0,0,0-1.13.34,3.62,3.62,0,0,0-1,1v-1.74a3.58,3.58,0,0,1,2.3-.91,2.77,2.77,0,0,1,2.06.83,2.94,2.94,0,0,1,.81,2.12,4.26,4.26,0,0,1-.2,1.23,6.69,6.69,0,0,1-.72,1.5,19.76,19.76,0,0,1-1.74,2.33Z"/><path class="cls-9" d="M440.35,111.38h.09a2.2,2.2,0,0,0,1.36-.37,1.31,1.31,0,0,0,.47-1.08,1.3,1.3,0,0,0-.46-1,1.76,1.76,0,0,0-1.19-.4A3.65,3.65,0,0,0,439,109v-1.31a4,4,0,0,1,1.82-.41,3,3,0,0,1,2.08.69,2.39,2.39,0,0,1,.76,1.88,2.42,2.42,0,0,1-.29,1.22,2.45,2.45,0,0,1-.94.85,2,2,0,0,1,.82.54,2.25,2.25,0,0,1,.4.77,3,3,0,0,1,.15,1,2.74,2.74,0,0,1-.84,2.06,2.86,2.86,0,0,1-2.1.82,4.47,4.47,0,0,1-2.1-.52V115a4,4,0,0,0,2.1.67,1.49,1.49,0,0,0,1.11-.41,1.43,1.43,0,0,0,.42-1.08,1.56,1.56,0,0,0-.35-1,1.37,1.37,0,0,0-.46-.35,4.93,4.93,0,0,0-1.07-.21l-.13,0Z"/><line class="cls-8" x1="464.42" y1="116.58" x2="464.42" y2="92.28"/><path class="cls-9" d="M460.73,86.92h3.63v1.32h-6v-.1l.57-.68c.9-1.11,1.62-2,2.15-2.83a10.53,10.53,0,0,0,1-1.75,3,3,0,0,0,.25-1.18,1.77,1.77,0,0,0-.46-1.29,1.58,1.58,0,0,0-1.22-.49,2.12,2.12,0,0,0-1.13.34,3.44,3.44,0,0,0-1,.95V79.47a3.64,3.64,0,0,1,2.3-.91,2.74,2.74,0,0,1,2.06.84,2.9,2.9,0,0,1,.81,2.12,4.25,4.25,0,0,1-.2,1.22,7.45,7.45,0,0,1-.72,1.51A19.83,19.83,0,0,1,461,86.57Z"/><path class="cls-9" d="M465,78.69h6.18l-4.32,9.66-1.22-.52L469.09,80H465Z"/><rect class="cls-6" x="489.12" y="235.25" width="9.58" height="189.65"/><path class="cls-7" d="M485,442.56h3.64v1.32h-6.05v-.09l.58-.68c.89-1.11,1.61-2.06,2.14-2.83a10.35,10.35,0,0,0,1-1.76,3.06,3.06,0,0,0,.24-1.17,1.81,1.81,0,0,0-.46-1.3,1.6,1.6,0,0,0-1.21-.49,2.18,2.18,0,0,0-1.13.34,3.52,3.52,0,0,0-1,1v-1.74a3.6,3.6,0,0,1,2.3-.91,2.77,2.77,0,0,1,2.06.83,2.94,2.94,0,0,1,.81,2.12,4.26,4.26,0,0,1-.2,1.23,6.6,6.6,0,0,1-.71,1.5,21.33,21.33,0,0,1-1.75,2.33Z"/><path class="cls-7" d="M492.71,434.21a2.52,2.52,0,0,1,2.17,1.38,7.61,7.61,0,0,1,0,7,2.51,2.51,0,0,1-4.45,0,7.72,7.72,0,0,1,0-7.08A2.59,2.59,0,0,1,492.71,434.21Zm0,1.3h-.07a1.38,1.38,0,0,0-1.24,1,6.11,6.11,0,0,0-.47,2.62,6.26,6.26,0,0,0,.46,2.66,1.29,1.29,0,0,0,2.49,0,6.16,6.16,0,0,0,.46-2.62,6.67,6.67,0,0,0-.44-2.65C493.61,435.84,493.22,435.51,492.72,435.51Z"/><path class="cls-7" d="M499,434.33h1.37v9.55H499Z"/><path class="cls-7" d="M507.45,434.31l.14-.1.83,1a8.26,8.26,0,0,0-1.82,1.54,5.93,5.93,0,0,0-1.11,2,3.3,3.3,0,0,1,1.51-.39,2.51,2.51,0,0,1,1.9.8,2.68,2.68,0,0,1,.78,2,2.76,2.76,0,0,1-.85,2,2.81,2.81,0,0,1-2,.83,2.77,2.77,0,0,1-2.18-.94,3.66,3.66,0,0,1-.83-2.48,6.58,6.58,0,0,1,.43-2.29,7.38,7.38,0,0,1,1.23-2.13A9.68,9.68,0,0,1,507.45,434.31Zm-2.25,5.86a3.88,3.88,0,0,0-.06.72,1.93,1.93,0,0,0,.47,1.33,1.55,1.55,0,0,0,1.2.51,1.4,1.4,0,0,0,1.08-.44,1.54,1.54,0,0,0,.43-1.12,1.48,1.48,0,0,0-.45-1.12,1.73,1.73,0,0,0-1.2-.43,1.94,1.94,0,0,0-.7.12A4.26,4.26,0,0,0,505.2,440.17Z"/><line class="cls-8" x1="493.91" y1="232.45" x2="493.91" y2="208.14"/><path class="cls-9" d="M490.1,194.26h1.37v9.55H490.1Z"/><path class="cls-9" d="M494.57,194.26h4.23v1.22h-3v2.41h.29a3.22,3.22,0,0,1,2.29.84,2.84,2.84,0,0,1,.89,2.15,2.88,2.88,0,0,1-.88,2.19,3.21,3.21,0,0,1-2.3.84,4.81,4.81,0,0,1-2.25-.56v-1.4a3.76,3.76,0,0,0,2,.67,2.11,2.11,0,0,0,1.44-.51,1.55,1.55,0,0,0,.59-1.23,1.58,1.58,0,0,0-.64-1.27,2.45,2.45,0,0,0-1.59-.51,2.94,2.94,0,0,0-1.1.14Z"/><rect class="cls-6" x="519.28" y="225.9" width="9.58" height="198.99"/><line class="cls-8" x1="524.07" y1="223.1" x2="524.07" y2="198.8"/><path class="cls-9" d="M519.79,184.91h1.37v9.55h-1.37Z"/><path class="cls-9" d="M527.42,184.89l.14-.1.83,1a8.26,8.26,0,0,0-1.82,1.54,5.93,5.93,0,0,0-1.11,2A3.3,3.3,0,0,1,527,189a2.51,2.51,0,0,1,1.9.8,2.68,2.68,0,0,1,.78,2,2.73,2.73,0,0,1-.85,2,2.81,2.81,0,0,1-2,.83,2.77,2.77,0,0,1-2.18-.94,3.66,3.66,0,0,1-.83-2.48,6.58,6.58,0,0,1,.43-2.29,7.87,7.87,0,0,1,1.23-2.13A9.68,9.68,0,0,1,527.42,184.89Zm-2.25,5.86a4,4,0,0,0-.06.72,1.93,1.93,0,0,0,.47,1.33,1.55,1.55,0,0,0,1.2.51,1.4,1.4,0,0,0,1.08-.44,1.54,1.54,0,0,0,.43-1.12,1.48,1.48,0,0,0-.45-1.12,1.71,1.71,0,0,0-1.2-.43,1.94,1.94,0,0,0-.7.12A4.26,4.26,0,0,0,525.17,190.75Z"/><rect class="cls-6" x="546.34" y="275.44" width="9.58" height="149.46"/><path class="cls-7" d="M542.26,443.12h3.63v1.32h-6v-.09l.57-.68c.9-1.11,1.62-2.06,2.15-2.83a10.13,10.13,0,0,0,1-1.76,2.9,2.9,0,0,0,.25-1.17,1.81,1.81,0,0,0-.46-1.3,1.62,1.62,0,0,0-1.22-.49,2.21,2.21,0,0,0-1.13.34,3.62,3.62,0,0,0-1,1v-1.74a3.58,3.58,0,0,1,2.3-.91,2.77,2.77,0,0,1,2.06.83,2.94,2.94,0,0,1,.81,2.12A4.32,4.32,0,0,1,545,439a7.16,7.16,0,0,1-.72,1.5,19.76,19.76,0,0,1-1.74,2.33Z"/><path class="cls-7" d="M549.93,434.77a2.5,2.5,0,0,1,2.16,1.38,7.61,7.61,0,0,1,0,7,2.51,2.51,0,0,1-4.45,0,6.58,6.58,0,0,1-.84-3.54,6.49,6.49,0,0,1,.87-3.54A2.59,2.59,0,0,1,549.93,434.77Zm0,1.3h-.07a1.41,1.41,0,0,0-1.25,1,6.25,6.25,0,0,0-.46,2.62,6.44,6.44,0,0,0,.45,2.66,1.29,1.29,0,0,0,2.5,0,6.31,6.31,0,0,0,.46-2.62,6.48,6.48,0,0,0-.45-2.65C550.83,436.4,550.44,436.07,549.94,436.07Z"/><path class="cls-7" d="M556.2,434.89h1.37v9.55H556.2Z"/><path class="cls-7" d="M561,437.45a2.51,2.51,0,0,1,.84-1.9,2.92,2.92,0,0,1,2.06-.78,2.82,2.82,0,0,1,2,.78,2.54,2.54,0,0,1-.37,4,2.44,2.44,0,0,1,1.33,2.25,2.54,2.54,0,0,1-.86,2,3.44,3.44,0,0,1-4.36,0,2.53,2.53,0,0,1-.88-1.95,2.45,2.45,0,0,1,1.36-2.24,3.52,3.52,0,0,1-.88-1A2.46,2.46,0,0,1,561,437.45Zm4.5,4.43v-.14a1.37,1.37,0,0,0-.47-1.07,1.79,1.79,0,0,0-1.21-.41,1.72,1.72,0,0,0-1.2.42,1.49,1.49,0,0,0,0,2.16,1.84,1.84,0,0,0,1.23.41,1.76,1.76,0,0,0,1.18-.38A1.25,1.25,0,0,0,565.54,441.88Zm-.12-4.38a1.36,1.36,0,0,0-.42-1,1.69,1.69,0,0,0-2.18,0,1.32,1.32,0,0,0-.42,1,1.34,1.34,0,0,0,.45,1,1.54,1.54,0,0,0,1.08.43,1.46,1.46,0,0,0,1.05-.42A1.33,1.33,0,0,0,565.42,437.5Z"/><line class="cls-8" x1="551.13" y1="272.64" x2="551.13" y2="248.34"/><path class="cls-9" d="M547.85,235.45h1.37V245h-1.37Z"/><path class="cls-9" d="M553.17,235.45h1.37V245h-1.37Z"/><rect class="cls-6" x="574.58" y="329.25" width="9.58" height="95.65"/><line class="cls-8" x1="579.37" y1="326.45" x2="579.37" y2="302.14"/><path class="cls-9" d="M576.19,289.26h6.18l-4.32,9.66-1.23-.51,3.5-7.84h-4.13Z"/><rect class="cls-6" x="601.64" y="412.61" width="9.58" height="12.29"/><path class="cls-7" d="M597.56,443.12h3.63v1.32h-6v-.09l.57-.68c.9-1.11,1.62-2.06,2.15-2.83a11.08,11.08,0,0,0,1-1.76,3.06,3.06,0,0,0,.24-1.17,1.81,1.81,0,0,0-.46-1.3,1.6,1.6,0,0,0-1.22-.49,2.21,2.21,0,0,0-1.13.34,3.62,3.62,0,0,0-1,1v-1.74a3.58,3.58,0,0,1,2.3-.91,2.77,2.77,0,0,1,2.06.83,2.94,2.94,0,0,1,.81,2.12,4.32,4.32,0,0,1-.2,1.23,7.16,7.16,0,0,1-.72,1.5,19.76,19.76,0,0,1-1.74,2.33Z"/><path class="cls-7" d="M605.23,434.77a2.53,2.53,0,0,1,2.17,1.38,7.69,7.69,0,0,1,0,7,2.52,2.52,0,0,1-4.46,0,6.58,6.58,0,0,1-.84-3.54,6.49,6.49,0,0,1,.87-3.54A2.59,2.59,0,0,1,605.23,434.77Zm0,1.3h-.07a1.41,1.41,0,0,0-1.25,1,6.25,6.25,0,0,0-.46,2.62,6.44,6.44,0,0,0,.45,2.66,1.29,1.29,0,0,0,2.5,0,6.31,6.31,0,0,0,.46-2.62,6.67,6.67,0,0,0-.44-2.65C606.13,436.4,605.74,436.07,605.24,436.07Z"/><path class="cls-7" d="M611.56,443.12h3.63v1.32h-6v-.09l.57-.68c.9-1.11,1.62-2.06,2.15-2.83a11.08,11.08,0,0,0,1-1.76,3.06,3.06,0,0,0,.24-1.17,1.81,1.81,0,0,0-.46-1.3,1.6,1.6,0,0,0-1.22-.49,2.21,2.21,0,0,0-1.13.34,3.62,3.62,0,0,0-1,1v-1.74a3.58,3.58,0,0,1,2.3-.91,2.77,2.77,0,0,1,2.06.83,2.94,2.94,0,0,1,.81,2.12,4.32,4.32,0,0,1-.2,1.23,7.16,7.16,0,0,1-.72,1.5,19.76,19.76,0,0,1-1.74,2.33Z"/><path class="cls-7" d="M619.23,434.77a2.53,2.53,0,0,1,2.17,1.38,7.69,7.69,0,0,1,0,7,2.52,2.52,0,0,1-4.46,0,6.58,6.58,0,0,1-.84-3.54,6.49,6.49,0,0,1,.87-3.54A2.59,2.59,0,0,1,619.23,434.77Zm0,1.3h-.07a1.41,1.41,0,0,0-1.25,1,6.25,6.25,0,0,0-.46,2.62,6.44,6.44,0,0,0,.45,2.66,1.29,1.29,0,0,0,2.5,0,6.31,6.31,0,0,0,.46-2.62,6.67,6.67,0,0,0-.44-2.65C620.13,436.4,619.74,436.07,619.24,436.07Z"/><line class="cls-8" x1="606.43" y1="409.81" x2="606.43" y2="385.51"/><path class="cls-9" d="M605.39,372.62h1.37v9.55h-1.37Z"/><line class="cls-10" x1="43.97" y1="430.28" x2="617.05" y2="430.28"/></g></g></svg>