<svg xmlns="http://www.w3.org/2000/svg" viewBox="0 0 696.03 327.93"><defs><style>.cls-1{opacity:0.6;}.cls-2{fill:#0e243f;}.cls-3{fill:#5045b3;}.cls-4{fill:none;stroke:#5045b3;stroke-miterlimit:10;stroke-width:0.25px;}.cls-5{fill:#0069b3;}.cls-6{fill:#57bd8d;}.cls-7{fill:#3595e0;}.cls-8{fill:#b2dec9;}.cls-9{fill:#03aed7;}</style></defs><g id="Capa_2" data-name="Capa 2"><g id="Capa_1-2" data-name="Capa 1"><g class="cls-1"><path class="cls-2" d="M9.26,70.31h1.39V80.55H9.39L2.55,72.67v7.88H1.17V70.31H2.36l6.9,8Z"/><path class="cls-2" d="M16.89,76.5v2.86c0,.23.08.35.23.35a1.58,1.58,0,0,0,.76-.36v.81a4.76,4.76,0,0,1-.73.4,1.56,1.56,0,0,1-.57.1c-.58,0-.91-.22-1-.67a2.89,2.89,0,0,1-1.81.66,1.62,1.62,0,0,1-1.17-.47A1.58,1.58,0,0,1,12.11,79a1.65,1.65,0,0,1,.46-1.14,3.14,3.14,0,0,1,1.3-.8l1.71-.58v-.36a1.08,1.08,0,0,0-1.22-1.22,3,3,0,0,0-2.12,1.13V74.59a2.76,2.76,0,0,1,2.23-.91,2.58,2.58,0,0,1,1.75.57,1.67,1.67,0,0,1,.4.49,1.62,1.62,0,0,1,.22.6A9.36,9.36,0,0,1,16.89,76.5Zm-1.31,2.71v-2l-.89.34a3.07,3.07,0,0,0-1,.54.94.94,0,0,0-.28.69.9.9,0,0,0,.27.68.93.93,0,0,0,.69.26A1.67,1.67,0,0,0,15.58,79.21Z"/><path class="cls-2" d="M24.11,79v1.32a5.56,5.56,0,0,1-2,.37,3.24,3.24,0,0,1-3.47-3.44,3.61,3.61,0,0,1,.92-2.57,3.14,3.14,0,0,1,2.41-1,3.73,3.73,0,0,1,.93.1,5.41,5.41,0,0,1,1,.37v1.42a3.52,3.52,0,0,0-1.87-.65,1.9,1.9,0,0,0-1.48.64A2.27,2.27,0,0,0,20,77.17a2.16,2.16,0,0,0,.63,1.64,2.31,2.31,0,0,0,1.69.61A4.35,4.35,0,0,0,24.11,79Z"/><path class="cls-2" d="M26.32,71a.79.79,0,0,1,.56.23.78.78,0,0,1,0,1.11.76.76,0,0,1-1.11,0,.77.77,0,0,1,0-1.1A.75.75,0,0,1,26.32,71Zm-.66,2.84H27v6.74H25.66Z"/><path class="cls-2" d="M32.14,73.79a3.55,3.55,0,0,1,2.56,1,3.35,3.35,0,0,1,1,2.49,3.16,3.16,0,0,1-1,2.42,3.68,3.68,0,0,1-2.6,1,3.49,3.49,0,0,1-2.53-1,3.45,3.45,0,0,1,0-4.91A3.55,3.55,0,0,1,32.14,73.79ZM32.07,75a2.12,2.12,0,0,0-1.58.63,2.19,2.19,0,0,0-.61,1.6,2.12,2.12,0,0,0,.63,1.58,2.41,2.41,0,0,0,3.22,0,2.28,2.28,0,0,0,0-3.17A2.29,2.29,0,0,0,32.07,75Zm1.56-4.85L32,72.35h-.82l1-2.2Z"/><path class="cls-2" d="M38.53,73.81v.86a2.66,2.66,0,0,1,2-1,2.32,2.32,0,0,1,1.18.32,2.16,2.16,0,0,1,.82.9,4.18,4.18,0,0,1,.28,1.79v3.86H41.5V76.71a2.64,2.64,0,0,0-.32-1.48,1.21,1.21,0,0,0-1-.44,1.92,1.92,0,0,0-1.6.94v4.82H37.16V73.81Z"/><path class="cls-2" d="M1.17,133.81V123.58H3.74a3.66,3.66,0,0,1,2.46.77,2.56,2.56,0,0,1,.91,2.08A2.71,2.71,0,0,1,6.67,128a2.69,2.69,0,0,1-1.29,1,4.25,4.25,0,0,1,1,.87,17.61,17.61,0,0,1,1.32,2c.36.58.64,1,.86,1.31l.54.73H7.32l-.45-.67a.5.5,0,0,0-.09-.13l-.28-.4L6,131.86l-.49-.8a8,8,0,0,0-.83-1,3.18,3.18,0,0,0-.68-.54,2.28,2.28,0,0,0-1-.16H2.64v4.45Zm1.91-9H2.64v3.23h.55a4.07,4.07,0,0,0,1.53-.19,1.5,1.5,0,0,0,.65-.57,1.72,1.72,0,0,0,.23-.88,1.56,1.56,0,0,0-.26-.87,1.35,1.35,0,0,0-.72-.56A5.5,5.5,0,0,0,3.08,124.82Z"/><path class="cls-2" d="M15.75,130.56H11a2.21,2.21,0,0,0,.65,1.54,2.12,2.12,0,0,0,1.54.57,4,4,0,0,0,2.43-.82v1.3a4.7,4.7,0,0,1-1.22.59,5.36,5.36,0,0,1-1.42.17,3.16,3.16,0,0,1-1.8-.46,3.39,3.39,0,0,1-1.1-1.24,3.75,3.75,0,0,1-.41-1.81,3.59,3.59,0,0,1,.87-2.5,2.9,2.9,0,0,1,2.26-1,2.66,2.66,0,0,1,2.14.94,3.74,3.74,0,0,1,.8,2.51Zm-4.71-.8h3.39a1.87,1.87,0,0,0-.48-1.23,1.51,1.51,0,0,0-1.14-.43,1.65,1.65,0,0,0-1.18.43A2.16,2.16,0,0,0,11,129.76Z"/><path class="cls-2" d="M16.85,129.4a2,2,0,0,1,.78-1.7,3.37,3.37,0,0,1,2.15-.63h2.78v1H21.2a3.09,3.09,0,0,1,.55.73,1.81,1.81,0,0,1,.15.76,2,2,0,0,1-.3,1,2.13,2.13,0,0,1-.77.78,4.55,4.55,0,0,1-1.55.44c-.51.07-.76.24-.76.52a.45.45,0,0,0,.28.38,4.64,4.64,0,0,0,1,.31,10.06,10.06,0,0,1,1.59.43,2,2,0,0,1,.64.44,1.64,1.64,0,0,1,.48,1.21,1.75,1.75,0,0,1-.85,1.53,4.05,4.05,0,0,1-2.28.57,4.1,4.1,0,0,1-2.3-.57,1.76,1.76,0,0,1-.86-1.54c0-.92.56-1.5,1.69-1.77-.45-.29-.68-.57-.68-.85a.8.8,0,0,1,.29-.59,1.79,1.79,0,0,1,.78-.39A2.21,2.21,0,0,1,16.85,129.4ZM19,134.12a2,2,0,0,0-1.11.29.86.86,0,0,0-.43.73c0,.7.63,1,1.88,1a2.85,2.85,0,0,0,1.37-.26.8.8,0,0,0,.49-.73c0-.32-.2-.57-.62-.77A3.59,3.59,0,0,0,19,134.12Zm.31-5.89a1.28,1.28,0,0,0-.92.36,1.17,1.17,0,0,0-.38.88,1.09,1.09,0,0,0,.37.86,1.33,1.33,0,0,0,.95.34,1.36,1.36,0,0,0,.94-.34,1.14,1.14,0,0,0,.37-.87,1.12,1.12,0,0,0-.38-.88A1.36,1.36,0,0,0,19.35,128.23Z"/><path class="cls-2" d="M24.28,124.24a.76.76,0,0,1,.56.22.74.74,0,0,1,.24.56.8.8,0,0,1-.8.79.73.73,0,0,1-.54-.24.78.78,0,0,1,.54-1.33Zm-.66,2.83H25v6.74H23.62Z"/><path class="cls-2" d="M30.1,127.06a3.52,3.52,0,0,1,2.56,1,3.32,3.32,0,0,1,1,2.49,3.17,3.17,0,0,1-1,2.42,3.65,3.65,0,0,1-2.6,1,3.52,3.52,0,0,1-2.53-1,3.45,3.45,0,0,1,0-4.91A3.58,3.58,0,0,1,30.1,127.06Zm-.07,1.2a2.09,2.09,0,0,0-1.57.63,2.16,2.16,0,0,0-.62,1.6,2.1,2.1,0,0,0,.63,1.58,2.43,2.43,0,0,0,3.23,0,2.3,2.3,0,0,0,0-3.17A2.26,2.26,0,0,0,30,128.26Z"/><path class="cls-2" d="M36.49,127.07v.86a2.67,2.67,0,0,1,2-1,2.29,2.29,0,0,1,1.17.32,2.1,2.1,0,0,1,.82.9,4.23,4.23,0,0,1,.29,1.8v3.85H39.46V130a2.59,2.59,0,0,0-.31-1.47,1.2,1.2,0,0,0-1.06-.45,1.92,1.92,0,0,0-1.6.95v4.81H35.13v-6.74Z"/><path class="cls-2" d="M48.4,130.56H43.66a2.21,2.21,0,0,0,.65,1.54,2.14,2.14,0,0,0,1.54.57,4,4,0,0,0,2.43-.82v1.3a4.7,4.7,0,0,1-1.22.59,5.36,5.36,0,0,1-1.42.17,3.16,3.16,0,0,1-1.8-.46,3.39,3.39,0,0,1-1.1-1.24,3.75,3.75,0,0,1-.41-1.81,3.59,3.59,0,0,1,.87-2.5,2.9,2.9,0,0,1,2.26-1,2.64,2.64,0,0,1,2.14.94,3.74,3.74,0,0,1,.8,2.51Zm-4.71-.8h3.39a1.82,1.82,0,0,0-.48-1.23,1.51,1.51,0,0,0-1.14-.43,1.61,1.61,0,0,0-1.17.43A2.11,2.11,0,0,0,43.69,129.76Z"/><path class="cls-2" d="M49.51,133.33v-1.44a6,6,0,0,0,1.16.64,2.75,2.75,0,0,0,1,.25,1.22,1.22,0,0,0,.72-.21.59.59,0,0,0,.3-.49.68.68,0,0,0-.2-.49,4.84,4.84,0,0,0-.84-.56A5.62,5.62,0,0,1,50,129.81a1.74,1.74,0,0,1-.4-1.11,1.57,1.57,0,0,1,.6-1.27,2.37,2.37,0,0,1,1.56-.49,4.21,4.21,0,0,1,2,.56v1.31a4.16,4.16,0,0,0-2-.71,1.08,1.08,0,0,0-.62.16.51.51,0,0,0-.24.44.6.6,0,0,0,.22.44,3.21,3.21,0,0,0,.75.52l.48.27c1.12.63,1.69,1.34,1.69,2.11a1.67,1.67,0,0,1-.65,1.35,2.54,2.54,0,0,1-1.67.54,4.29,4.29,0,0,1-1.07-.13A7.9,7.9,0,0,1,49.51,133.33Z"/><path class="cls-2" d="M1.14,187.05V176.84H4.59a7.45,7.45,0,0,1,3.31.62,4.7,4.7,0,0,1,1.93,1.85,5.1,5.1,0,0,1,.72,2.65,4.91,4.91,0,0,1-.4,2A5,5,0,0,1,9,185.57a4.82,4.82,0,0,1-1.73,1.1,5.32,5.32,0,0,1-1.06.31,15,15,0,0,1-1.85.07Zm3.3-8.91H2.61v7.61H4.48a7.58,7.58,0,0,0,1.71-.15,4.19,4.19,0,0,0,1-.38,3.38,3.38,0,0,0,.75-.57A3.79,3.79,0,0,0,9,181.88a3.51,3.51,0,0,0-1.11-2.69,3.81,3.81,0,0,0-.94-.64,4.09,4.09,0,0,0-1-.33A10.85,10.85,0,0,0,4.44,178.14Z"/><path class="cls-2" d="M17.94,183.82H13.2a2.16,2.16,0,0,0,.65,1.53,2.09,2.09,0,0,0,1.54.58,4,4,0,0,0,2.43-.82v1.3a4.7,4.7,0,0,1-1.22.59,5.36,5.36,0,0,1-1.42.17,3.16,3.16,0,0,1-1.8-.46,3.31,3.31,0,0,1-1.1-1.24,3.75,3.75,0,0,1-.41-1.81,3.59,3.59,0,0,1,.87-2.5,2.9,2.9,0,0,1,2.26-1,2.66,2.66,0,0,1,2.14.94,3.74,3.74,0,0,1,.8,2.51Zm-4.71-.8h3.39a1.87,1.87,0,0,0-.48-1.23,1.51,1.51,0,0,0-1.14-.43,1.65,1.65,0,0,0-1.18.43A2.16,2.16,0,0,0,13.23,183Z"/><path class="cls-2" d="M19.29,190.5V180.33h2.34a4.08,4.08,0,0,1,2.79.89,3.21,3.21,0,0,1,1,2.5,3.47,3.47,0,0,1-.94,2.49,3.2,3.2,0,0,1-2.4,1,4.28,4.28,0,0,1-1.43-.29v3.6Zm2.31-8.92h-1v4.14a2.8,2.8,0,0,0,1.29.32,2,2,0,0,0,1.53-.66,2.36,2.36,0,0,0,.6-1.67,2.47,2.47,0,0,0-.28-1.17,1.75,1.75,0,0,0-.77-.73A3.35,3.35,0,0,0,21.6,181.58Z"/><path class="cls-2" d="M31.11,183v2.86c0,.23.08.35.24.35a1.6,1.6,0,0,0,.75-.36v.81a3.71,3.71,0,0,1-.73.4,1.56,1.56,0,0,1-.57.11c-.57,0-.91-.23-1-.68a2.91,2.91,0,0,1-1.81.66,1.58,1.58,0,0,1-1.17-.46,1.55,1.55,0,0,1-.47-1.17,1.61,1.61,0,0,1,.46-1.14,3,3,0,0,1,1.3-.8l1.7-.58v-.36a1.07,1.07,0,0,0-1.21-1.22,3,3,0,0,0-2.13,1.13v-1.46a2.77,2.77,0,0,1,2.24-.91,2.6,2.6,0,0,1,1.75.57,1.65,1.65,0,0,1,.39.49,1.85,1.85,0,0,1,.23.6A10,10,0,0,1,31.11,183Zm-1.31,2.72v-2l-.89.34a2.81,2.81,0,0,0-1,.55.91.91,0,0,0-.29.68.9.9,0,0,0,.27.68.93.93,0,0,0,.69.27A1.69,1.69,0,0,0,29.8,185.74Z"/><path class="cls-2" d="M34.71,180.33v1.55l.07-.12c.65-1,1.29-1.56,1.94-1.56a2.37,2.37,0,0,1,1.57.76l-.7,1.17a2,2,0,0,0-1.29-.66,1.4,1.4,0,0,0-1.12.62,2.34,2.34,0,0,0-.47,1.46v3.52H33.37v-6.74Z"/><path class="cls-2" d="M38.58,181.4l2.5-2.46v1.39h2.13v1.2H41.08v3.3c0,.77.32,1.15,1,1.15a2.94,2.94,0,0,0,1.52-.47v1.24a3.37,3.37,0,0,1-1.68.44,2.19,2.19,0,0,1-1.52-.54,1.53,1.53,0,0,1-.32-.36,2.25,2.25,0,0,1-.21-.53,6.5,6.5,0,0,1-.08-1.24v-3H38.58Z"/><path class="cls-2" d="M48.75,183v2.86c0,.23.08.35.23.35a1.58,1.58,0,0,0,.76-.36v.81a4,4,0,0,1-.73.4,1.56,1.56,0,0,1-.57.11c-.58,0-.91-.23-1-.68a2.88,2.88,0,0,1-1.8.66,1.62,1.62,0,0,1-1.18-.46,1.59,1.59,0,0,1-.47-1.17,1.65,1.65,0,0,1,.46-1.14,3.14,3.14,0,0,1,1.3-.8l1.71-.58v-.36a1.08,1.08,0,0,0-1.22-1.22,3,3,0,0,0-2.12,1.13v-1.46a2.76,2.76,0,0,1,2.23-.91,2.58,2.58,0,0,1,1.75.57,1.67,1.67,0,0,1,.4.49,1.62,1.62,0,0,1,.22.6A9.36,9.36,0,0,1,48.75,183Zm-1.31,2.72v-2l-.89.34a2.88,2.88,0,0,0-1,.55,1,1,0,0,0,0,1.36.93.93,0,0,0,.69.27A1.71,1.71,0,0,0,47.44,185.74Z"/><path class="cls-2" d="M56.44,182.18v4.89H55.1v-3.75a2.91,2.91,0,0,0-.3-1.56,1.17,1.17,0,0,0-1-.45,1.61,1.61,0,0,0-.76.19,3.21,3.21,0,0,0-.8.68v4.89H50.86v-6.74h1.33v.89a2.91,2.91,0,0,1,2-1,2.19,2.19,0,0,1,2,1.21,3,3,0,0,1,2.23-1.23,2.05,2.05,0,0,1,1.62.72,3.25,3.25,0,0,1,.63,2.19v4H59.32v-4a2.09,2.09,0,0,0-.35-1.29,1.14,1.14,0,0,0-1-.45A2,2,0,0,0,56.44,182.18Z"/><path class="cls-2" d="M68.23,183.82H63.49a2.2,2.2,0,0,0,.64,1.53,2.13,2.13,0,0,0,1.55.58,4,4,0,0,0,2.43-.82v1.3a4.7,4.7,0,0,1-1.22.59,5.42,5.42,0,0,1-1.42.17,3.16,3.16,0,0,1-1.8-.46,3.31,3.31,0,0,1-1.1-1.24,3.75,3.75,0,0,1-.42-1.81,3.55,3.55,0,0,1,.88-2.5,2.9,2.9,0,0,1,2.26-1,2.67,2.67,0,0,1,2.14.94,3.74,3.74,0,0,1,.8,2.51Zm-4.71-.8h3.39a1.92,1.92,0,0,0-.48-1.23,1.51,1.51,0,0,0-1.14-.43,1.65,1.65,0,0,0-1.18.43A2.16,2.16,0,0,0,63.52,183Z"/><path class="cls-2" d="M71,180.33v.86a2.68,2.68,0,0,1,2-1,2.29,2.29,0,0,1,1.17.32,2.18,2.18,0,0,1,.83.9,4.43,4.43,0,0,1,.28,1.8v3.85H74v-3.84a2.59,2.59,0,0,0-.31-1.47,1.19,1.19,0,0,0-1-.45,1.94,1.94,0,0,0-1.61.95v4.81H69.64v-6.74Z"/><path class="cls-2" d="M76.22,181.4l2.51-2.46v1.39h2.13v1.2H78.73v3.3c0,.77.32,1.15,1,1.15a2.91,2.91,0,0,0,1.51-.47v1.24a3.33,3.33,0,0,1-1.67.44,2.24,2.24,0,0,1-1.53-.54,1.74,1.74,0,0,1-.31-.36,2.25,2.25,0,0,1-.21-.53,5.75,5.75,0,0,1-.08-1.24v-3H76.22Z"/><path class="cls-2" d="M85.39,180.32a3.52,3.52,0,0,1,2.55,1,3.32,3.32,0,0,1,1,2.49,3.16,3.16,0,0,1-1,2.42,3.69,3.69,0,0,1-2.6,1,3.54,3.54,0,0,1-2.54-1,3.24,3.24,0,0,1-1-2.44,3.3,3.3,0,0,1,1-2.47A3.59,3.59,0,0,1,85.39,180.32Zm-.08,1.2a2.09,2.09,0,0,0-1.57.63,2.19,2.19,0,0,0-.62,1.6,2.12,2.12,0,0,0,.63,1.58,2.43,2.43,0,0,0,3.23,0,2.27,2.27,0,0,0,0-3.17A2.26,2.26,0,0,0,85.31,181.52Z"/><path class="cls-2" d="M90.11,186.59v-1.44a6.27,6.27,0,0,0,1.15.64,2.85,2.85,0,0,0,1,.25,1.21,1.21,0,0,0,.71-.21.59.59,0,0,0,.3-.49.66.66,0,0,0-.19-.49,4.84,4.84,0,0,0-.84-.56,6,6,0,0,1-1.69-1.22,1.8,1.8,0,0,1-.4-1.11,1.58,1.58,0,0,1,.61-1.27,2.36,2.36,0,0,1,1.55-.49,4.18,4.18,0,0,1,2,.56v1.31a4.09,4.09,0,0,0-1.94-.71,1,1,0,0,0-.62.16.51.51,0,0,0-.24.44.63.63,0,0,0,.21.44,3.57,3.57,0,0,0,.76.52l.48.27c1.12.63,1.68,1.34,1.68,2.11a1.66,1.66,0,0,1-.64,1.35,2.54,2.54,0,0,1-1.67.54,4.29,4.29,0,0,1-1.07-.13A8.63,8.63,0,0,1,90.11,186.59Z"/><path class="cls-2" d="M1.13,230.1h5.8v1.3H2.59v3.12H6.78v1.31H2.59V239H7.07v1.31H1.13Z"/><path class="cls-2" d="M12.68,236.28v2.86c0,.23.08.35.23.35a1.62,1.62,0,0,0,.76-.36v.81a4.38,4.38,0,0,1-.73.4,1.66,1.66,0,0,1-.58.11.9.9,0,0,1-1-.68,2.89,2.89,0,0,1-1.81.66A1.59,1.59,0,0,1,7.9,238.8a1.69,1.69,0,0,1,.46-1.14,3.12,3.12,0,0,1,1.3-.79l1.71-.59v-.36a1.07,1.07,0,0,0-1.22-1.21A2.91,2.91,0,0,0,8,235.83v-1.45a2.75,2.75,0,0,1,2.23-.92A2.58,2.58,0,0,1,12,234a1.82,1.82,0,0,1,.4.49,1.8,1.8,0,0,1,.22.61A9,9,0,0,1,12.68,236.28ZM11.37,239v-2l-.9.34a2.92,2.92,0,0,0-1,.55,1,1,0,0,0,0,1.36.92.92,0,0,0,.69.27A1.71,1.71,0,0,0,11.37,239Z"/><path class="cls-2" d="M13.9,234.66l2.51-2.46v1.39h2.13v1.2H16.41v3.3c0,.77.32,1.16,1,1.16a3,3,0,0,0,1.51-.48V240a3.43,3.43,0,0,1-1.67.43,2.22,2.22,0,0,1-1.53-.54,1.32,1.32,0,0,1-.31-.36,1.54,1.54,0,0,1-.21-.53,5.49,5.49,0,0,1-.09-1.24v-3H13.9Z"/><path class="cls-2" d="M29.53,235.44v4.89H28.19v-3.75a2.91,2.91,0,0,0-.3-1.56,1.17,1.17,0,0,0-1.05-.45,1.65,1.65,0,0,0-.76.19,3.66,3.66,0,0,0-.8.68v4.89H24v-6.74h1.33v.89a2.92,2.92,0,0,1,2-1,2.19,2.19,0,0,1,2,1.22,3,3,0,0,1,2.23-1.23,2,2,0,0,1,1.62.71,3.25,3.25,0,0,1,.63,2.19v4H32.41v-4a2.15,2.15,0,0,0-.34-1.29,1.17,1.17,0,0,0-1-.45A2.06,2.06,0,0,0,29.53,235.44Z"/><path class="cls-2" d="M39.72,240.33v-.86a3.07,3.07,0,0,1-1,.72,2.6,2.6,0,0,1-1.09.26,2.26,2.26,0,0,1-1.17-.32,2.08,2.08,0,0,1-.82-.87,4.35,4.35,0,0,1-.27-1.81v-3.86h1.33v3.84a2.56,2.56,0,0,0,.31,1.48,1.21,1.21,0,0,0,1.06.42,1.94,1.94,0,0,0,1.62-.93v-4.81h1.33v6.74Z"/><path class="cls-2" d="M44.26,233.59v.86a2.68,2.68,0,0,1,2-1,2.2,2.2,0,0,1,1.17.33,2.1,2.1,0,0,1,.83.89,4.43,4.43,0,0,1,.28,1.8v3.85H47.23v-3.84a2.59,2.59,0,0,0-.31-1.47,1.2,1.2,0,0,0-1.06-.45,1.92,1.92,0,0,0-1.6,1v4.81H42.9v-6.74Z"/><path class="cls-2" d="M51.12,230.76a.78.78,0,0,1,.56.22.8.8,0,0,1,0,1.12.79.79,0,0,1-.56.23.75.75,0,0,1-.55-.24.76.76,0,0,1,0-1.09A.75.75,0,0,1,51.12,230.76Zm-.66,2.83h1.33v6.74H50.46Z"/><path class="cls-2" d="M58.77,238.76v1.31a5.58,5.58,0,0,1-2,.38A3.24,3.24,0,0,1,53.34,237a3.61,3.61,0,0,1,.92-2.57,3.18,3.18,0,0,1,2.41-1,3.79,3.79,0,0,1,.93.1,6.22,6.22,0,0,1,1,.37v1.42a3.52,3.52,0,0,0-1.87-.64,1.91,1.91,0,0,0-1.48.63,2.27,2.27,0,0,0-.58,1.61,2.16,2.16,0,0,0,.63,1.64,2.28,2.28,0,0,0,1.68.61A4.49,4.49,0,0,0,58.77,238.76Z"/><path class="cls-2" d="M61,230.76a.8.8,0,0,1,.57.22.8.8,0,0,1,0,1.12.81.81,0,0,1-.57.23.75.75,0,0,1-.54-.24.76.76,0,0,1,0-1.09A.75.75,0,0,1,61,230.76Zm-.65,2.83h1.33v6.74H60.32Z"/><path class="cls-2" d="M63.49,243.77V233.59h2.33a4,4,0,0,1,2.79.9,3.14,3.14,0,0,1,1,2.49,3.43,3.43,0,0,1-.94,2.49,3.18,3.18,0,0,1-2.39,1,4.23,4.23,0,0,1-1.43-.29v3.61Zm2.3-8.93h-.94V239a2.79,2.79,0,0,0,1.28.32,2,2,0,0,0,1.54-.65,2.44,2.44,0,0,0,.59-1.68A2.36,2.36,0,0,0,68,235.8a1.7,1.7,0,0,0-.77-.73A3.29,3.29,0,0,0,65.79,234.84Z"/><path class="cls-2" d="M75.31,236.28v2.86c0,.23.08.35.23.35a1.62,1.62,0,0,0,.76-.36v.81a4.38,4.38,0,0,1-.73.4,1.66,1.66,0,0,1-.58.11c-.57,0-.91-.23-1-.68a2.89,2.89,0,0,1-1.81.66,1.59,1.59,0,0,1-1.64-1.63,1.65,1.65,0,0,1,.46-1.14,3.06,3.06,0,0,1,1.3-.79l1.71-.59v-.36a1.07,1.07,0,0,0-1.22-1.21,2.91,2.91,0,0,0-2.12,1.12v-1.45a2.75,2.75,0,0,1,2.23-.92,2.58,2.58,0,0,1,1.75.57,1.82,1.82,0,0,1,.4.49,1.8,1.8,0,0,1,.22.61A9,9,0,0,1,75.31,236.28ZM74,239v-2l-.9.34a2.92,2.92,0,0,0-1,.55.95.95,0,0,0,.68,1.63A1.71,1.71,0,0,0,74,239Z"/><path class="cls-2" d="M77.5,230.1h1.34v10.23H77.5Z"/><path class="cls-2" d="M86.51,237.08H81.77a2.19,2.19,0,0,0,.65,1.54,2.12,2.12,0,0,0,1.54.57,4,4,0,0,0,2.43-.82v1.3a4.7,4.7,0,0,1-1.22.59,5.42,5.42,0,0,1-1.42.17A3.16,3.16,0,0,1,82,240a3.31,3.31,0,0,1-1.1-1.24,3.75,3.75,0,0,1-.42-1.81,3.61,3.61,0,0,1,.88-2.5,2.9,2.9,0,0,1,2.26-1,2.66,2.66,0,0,1,2.14.94,3.74,3.74,0,0,1,.8,2.51Zm-4.71-.8h3.39a1.87,1.87,0,0,0-.48-1.23,1.51,1.51,0,0,0-1.14-.43,1.65,1.65,0,0,0-1.18.43A2.16,2.16,0,0,0,81.8,236.28Z"/><path class="cls-2" d="M87.62,239.85v-1.44a5.73,5.73,0,0,0,1.15.64,2.64,2.64,0,0,0,1,.25,1.21,1.21,0,0,0,.71-.21.58.58,0,0,0,.3-.49.67.67,0,0,0-.19-.49,5,5,0,0,0-.84-.55,6,6,0,0,1-1.69-1.23,1.8,1.8,0,0,1-.4-1.11,1.58,1.58,0,0,1,.61-1.27,2.36,2.36,0,0,1,1.55-.49,4.3,4.3,0,0,1,2,.56v1.32a4,4,0,0,0-1.94-.72,1,1,0,0,0-.62.16.51.51,0,0,0-.24.44.65.65,0,0,0,.21.45,4,4,0,0,0,.76.51l.48.27c1.12.63,1.68,1.34,1.68,2.11a1.69,1.69,0,0,1-.64,1.36,2.59,2.59,0,0,1-1.67.53,4.29,4.29,0,0,1-1.07-.13A7.5,7.5,0,0,1,87.62,239.85Z"/><path class="cls-2" d="M102.12,236.28v2.86c0,.23.08.35.24.35a1.6,1.6,0,0,0,.75-.36v.81a4,4,0,0,1-.73.4,1.56,1.56,0,0,1-.57.11c-.57,0-.91-.23-1-.68a2.91,2.91,0,0,1-1.81.66,1.58,1.58,0,0,1-1.17-.46,1.55,1.55,0,0,1-.47-1.17,1.68,1.68,0,0,1,.45-1.14,3.12,3.12,0,0,1,1.3-.79l1.71-.59v-.36a1.07,1.07,0,0,0-1.22-1.21,2.93,2.93,0,0,0-2.12,1.12v-1.45a2.77,2.77,0,0,1,2.24-.92,2.6,2.6,0,0,1,1.75.57,2,2,0,0,1,.39.49,1.61,1.61,0,0,1,.22.61A7.44,7.44,0,0,1,102.12,236.28ZM100.81,239v-2l-.89.34a2.88,2.88,0,0,0-1,.55.94.94,0,0,0-.28.68.9.9,0,0,0,.27.68.93.93,0,0,0,.69.27A1.69,1.69,0,0,0,100.81,239Zm1-9.06-1.66,2.2h-.82l1-2.2Z"/><path class="cls-2" d="M105.72,233.59v1.55l.07-.12c.65-1,1.29-1.56,1.93-1.56a2.37,2.37,0,0,1,1.58.76l-.7,1.17a2,2,0,0,0-1.29-.66,1.39,1.39,0,0,0-1.12.62,2.36,2.36,0,0,0-.47,1.46v3.52h-1.34v-6.74Z"/><path class="cls-2" d="M115.67,237.08h-4.74a2.23,2.23,0,0,0,.65,1.54,2.14,2.14,0,0,0,1.54.57,4,4,0,0,0,2.43-.82v1.3a4.55,4.55,0,0,1-1.22.59,5.34,5.34,0,0,1-1.41.17,3.16,3.16,0,0,1-1.8-.46,3.42,3.42,0,0,1-1.11-1.24,3.87,3.87,0,0,1-.41-1.81,3.61,3.61,0,0,1,.87-2.5,2.92,2.92,0,0,1,2.26-1,2.64,2.64,0,0,1,2.14.94,3.69,3.69,0,0,1,.8,2.51Zm-4.71-.8h3.39a1.86,1.86,0,0,0-.47-1.23,1.55,1.55,0,0,0-1.15-.43,1.63,1.63,0,0,0-1.17.43A2.11,2.11,0,0,0,111,236.28Z"/><path class="cls-2" d="M121.35,236.28v2.86c0,.23.08.35.23.35a1.62,1.62,0,0,0,.76-.36v.81a4.38,4.38,0,0,1-.73.4,1.66,1.66,0,0,1-.58.11c-.57,0-.91-.23-1-.68a2.89,2.89,0,0,1-1.81.66,1.59,1.59,0,0,1-1.64-1.63,1.65,1.65,0,0,1,.46-1.14,3.06,3.06,0,0,1,1.3-.79l1.71-.59v-.36a1.07,1.07,0,0,0-1.22-1.21,2.91,2.91,0,0,0-2.12,1.12v-1.45a2.75,2.75,0,0,1,2.23-.92,2.58,2.58,0,0,1,1.75.57,1.82,1.82,0,0,1,.4.49,1.8,1.8,0,0,1,.22.61A9,9,0,0,1,121.35,236.28ZM120,239v-2l-.9.34a2.92,2.92,0,0,0-1,.55.95.95,0,0,0,.68,1.63A1.71,1.71,0,0,0,120,239Z"/><path class="cls-2" d="M123.19,239.85v-1.44a5.47,5.47,0,0,0,1.15.64,2.56,2.56,0,0,0,1,.25,1.22,1.22,0,0,0,.72-.21.58.58,0,0,0,.3-.49.67.67,0,0,0-.19-.49,5,5,0,0,0-.84-.55,6,6,0,0,1-1.69-1.23,1.74,1.74,0,0,1-.4-1.11,1.57,1.57,0,0,1,.6-1.27,2.41,2.41,0,0,1,1.56-.49,4.3,4.3,0,0,1,2,.56v1.32a4.05,4.05,0,0,0-1.94-.72,1.09,1.09,0,0,0-.63.16.51.51,0,0,0-.24.44.66.66,0,0,0,.22.45,3.73,3.73,0,0,0,.76.51l.47.27c1.13.63,1.69,1.34,1.69,2.11a1.7,1.7,0,0,1-.65,1.36,2.57,2.57,0,0,1-1.67.53,4.21,4.21,0,0,1-1.06-.13A7.14,7.14,0,0,1,123.19,239.85Z"/><path class="cls-2" d="M6.47,253.44v4.89H5.13v-3.75a2.91,2.91,0,0,0-.3-1.56,1.17,1.17,0,0,0-1.05-.45,1.69,1.69,0,0,0-.77.19,3.38,3.38,0,0,0-.79.68v4.89H.89v-6.74H2.22v.89a2.9,2.9,0,0,1,2-1,2.18,2.18,0,0,1,2,1.22,3,3,0,0,1,2.23-1.24,2,2,0,0,1,1.61.72,3.2,3.2,0,0,1,.64,2.19v4H9.35v-4A2.09,2.09,0,0,0,9,253.05a1.17,1.17,0,0,0-1-.45A2,2,0,0,0,6.47,253.44Z"/><path class="cls-2" d="M18.25,255.08H13.51a2.25,2.25,0,0,0,.65,1.54,2.14,2.14,0,0,0,1.54.57,4,4,0,0,0,2.43-.82v1.3a4.65,4.65,0,0,1-1.21.59,5.47,5.47,0,0,1-1.42.17,3.16,3.16,0,0,1-1.8-.46,3.42,3.42,0,0,1-1.11-1.24,3.87,3.87,0,0,1-.41-1.81,3.59,3.59,0,0,1,.87-2.5,2.92,2.92,0,0,1,2.27-1,2.64,2.64,0,0,1,2.13.94,3.69,3.69,0,0,1,.8,2.51Zm-4.71-.8h3.39a1.86,1.86,0,0,0-.47-1.23,1.54,1.54,0,0,0-1.14-.43,1.63,1.63,0,0,0-1.18.43A2.17,2.17,0,0,0,13.54,254.28Z"/><path class="cls-2" d="M18.75,252.66l2.5-2.46v1.39h2.14v1.2H21.25v3.3c0,.77.33,1.16,1,1.16a3,3,0,0,0,1.52-.48V258a3.34,3.34,0,0,1-1.68.44,2.21,2.21,0,0,1-1.52-.54,1.56,1.56,0,0,1-.32-.36A1.78,1.78,0,0,1,20,257a5.49,5.49,0,0,1-.09-1.24v-3H18.75Z"/><path class="cls-2" d="M26.12,251.59v1.55l.07-.12c.65-1,1.29-1.56,1.93-1.56a2.37,2.37,0,0,1,1.58.76l-.7,1.17a2,2,0,0,0-1.29-.66,1.4,1.4,0,0,0-1.12.62,2.36,2.36,0,0,0-.47,1.46v3.52H24.78v-6.74Z"/><path class="cls-2" d="M33.48,251.58a3.54,3.54,0,0,1,2.56,1,3.35,3.35,0,0,1,1,2.49,3.16,3.16,0,0,1-1,2.42,3.63,3.63,0,0,1-2.6,1,3.52,3.52,0,0,1-2.53-1,3.45,3.45,0,0,1,0-4.91A3.55,3.55,0,0,1,33.48,251.58Zm-.07,1.2a2.12,2.12,0,0,0-1.58.63,2.19,2.19,0,0,0-.61,1.6,2.1,2.1,0,0,0,.63,1.58,2.21,2.21,0,0,0,1.61.61,2.16,2.16,0,0,0,1.61-.62,2.28,2.28,0,0,0,0-3.17A2.27,2.27,0,0,0,33.41,252.78Z"/><path class="cls-2" d="M38.45,261.76V251.59h2.33a4.08,4.08,0,0,1,2.79.89,3.18,3.18,0,0,1,1,2.5,3.47,3.47,0,0,1-.94,2.49,3.2,3.2,0,0,1-2.4,1,4.18,4.18,0,0,1-1.42-.29v3.6Zm2.3-8.92h-.94V257a2.79,2.79,0,0,0,1.28.32,2,2,0,0,0,1.53-.66,2.61,2.61,0,0,0,.32-2.84,1.7,1.7,0,0,0-.77-.73A3.32,3.32,0,0,0,40.75,252.84Z"/><path class="cls-2" d="M49.26,251.58a3.52,3.52,0,0,1,2.55,1,3.32,3.32,0,0,1,1,2.49,3.16,3.16,0,0,1-1,2.42,3.64,3.64,0,0,1-2.6,1,3.54,3.54,0,0,1-2.54-1,3.25,3.25,0,0,1-1-2.44,3.3,3.3,0,0,1,1-2.47A3.59,3.59,0,0,1,49.26,251.58Zm-.08,1.2a2.09,2.09,0,0,0-1.57.63A2.19,2.19,0,0,0,47,255a2.1,2.1,0,0,0,.63,1.58,2.22,2.22,0,0,0,1.62.61,2.16,2.16,0,0,0,1.61-.62,2.3,2.3,0,0,0,0-3.17A2.26,2.26,0,0,0,49.18,252.78Z"/><path class="cls-2" d="M54.34,248.1h1.33v10.23H54.34Z"/><path class="cls-2" d="M58.29,248.76a.78.78,0,0,1,.56.22.8.8,0,0,1,0,1.12.79.79,0,0,1-.56.23.75.75,0,0,1-.55-.24.78.78,0,0,1-.23-.55.8.8,0,0,1,.78-.78Zm-.66,2.83H59v6.74H57.63Z"/><path class="cls-2" d="M59.94,252.66l2.51-2.46v1.39h2.13v1.2H62.45v3.3c0,.77.32,1.16,1,1.16a3,3,0,0,0,1.51-.48V258a3.33,3.33,0,0,1-1.67.44,2.22,2.22,0,0,1-1.53-.54,1.32,1.32,0,0,1-.31-.36,1.54,1.54,0,0,1-.21-.53,5.49,5.49,0,0,1-.09-1.24v-3H59.94Z"/><path class="cls-2" d="M70.12,254.28v2.86c0,.23.07.35.23.35a1.6,1.6,0,0,0,.75-.36v.81a4,4,0,0,1-.72.4,1.66,1.66,0,0,1-.58.11c-.57,0-.91-.23-1-.68a2.91,2.91,0,0,1-1.81.66,1.59,1.59,0,0,1-1.64-1.63,1.61,1.61,0,0,1,.46-1.14,3.17,3.17,0,0,1,1.3-.8l1.7-.58v-.36a1.07,1.07,0,0,0-1.21-1.22,3,3,0,0,0-2.13,1.13v-1.46a2.78,2.78,0,0,1,2.24-.91,2.58,2.58,0,0,1,1.75.57,1.65,1.65,0,0,1,.39.49,1.63,1.63,0,0,1,.23.61A9,9,0,0,1,70.12,254.28ZM68.8,257v-2l-.89.34a2.81,2.81,0,0,0-1,.55,1,1,0,0,0,0,1.36.93.93,0,0,0,.69.27A1.69,1.69,0,0,0,68.8,257Z"/><path class="cls-2" d="M73.62,251.59v.86a2.66,2.66,0,0,1,2-1,2.24,2.24,0,0,1,1.18.33,2.08,2.08,0,0,1,.82.89,4.26,4.26,0,0,1,.28,1.8v3.85H76.59v-3.84a2.58,2.58,0,0,0-.32-1.47,1.19,1.19,0,0,0-1-.45,1.92,1.92,0,0,0-1.6,1v4.81H72.25v-6.74Z"/><path class="cls-2" d="M84,254.28v2.86c0,.23.07.35.23.35a1.6,1.6,0,0,0,.75-.36v.81a4,4,0,0,1-.72.4,1.66,1.66,0,0,1-.58.11c-.57,0-.91-.23-1-.68a2.91,2.91,0,0,1-1.81.66,1.59,1.59,0,0,1-1.64-1.63,1.61,1.61,0,0,1,.46-1.14,3.17,3.17,0,0,1,1.3-.8l1.71-.58v-.36a1.08,1.08,0,0,0-1.22-1.22,2.91,2.91,0,0,0-2.12,1.13v-1.46a2.75,2.75,0,0,1,2.23-.91,2.58,2.58,0,0,1,1.75.57,1.67,1.67,0,0,1,.4.49,1.8,1.8,0,0,1,.22.61A9,9,0,0,1,84,254.28ZM82.71,257v-2l-.9.34a2.92,2.92,0,0,0-1,.55.9.9,0,0,0-.28.68.93.93,0,0,0,.26.68.94.94,0,0,0,.7.27A1.73,1.73,0,0,0,82.71,257Z"/><path class="cls-2" d="M85.85,257.85v-1.44a6.35,6.35,0,0,0,1.16.64,2.56,2.56,0,0,0,1,.25,1.22,1.22,0,0,0,.72-.21.58.58,0,0,0,.3-.49.68.68,0,0,0-.2-.49,4.27,4.27,0,0,0-.83-.56,5.7,5.7,0,0,1-1.69-1.22,1.74,1.74,0,0,1-.4-1.11,1.57,1.57,0,0,1,.6-1.27,2.39,2.39,0,0,1,1.56-.49,4.21,4.21,0,0,1,2,.56v1.31a4.13,4.13,0,0,0-1.94-.71,1.09,1.09,0,0,0-.63.16.51.51,0,0,0-.24.44.64.64,0,0,0,.22.45,3.46,3.46,0,0,0,.76.51l.47.27c1.13.63,1.69,1.34,1.69,2.11a1.7,1.7,0,0,1-.65,1.36,2.57,2.57,0,0,1-1.67.53,4.35,4.35,0,0,1-1.07-.13A7.9,7.9,0,0,1,85.85,257.85Z"/><path class="cls-2" d="M9.27,301.36h1.36v10.23H9.16v-8L6,307.58H5.75l-3.19-3.95v8H1.1V301.36H2.49l3.4,4.2Z"/><path class="cls-2" d="M17,311.59v-.86a3.07,3.07,0,0,1-1,.72,2.6,2.6,0,0,1-1.09.26,2.32,2.32,0,0,1-1.18-.32,2.06,2.06,0,0,1-.81-.87,4.35,4.35,0,0,1-.27-1.81v-3.86H14v3.84a2.66,2.66,0,0,0,.3,1.48,1.24,1.24,0,0,0,1.07.42,2,2,0,0,0,1.62-.93v-4.81h1.33v6.74Z"/><path class="cls-2" d="M21.49,304.85v.86a2.67,2.67,0,0,1,2-1,2.2,2.2,0,0,1,1.17.33,2,2,0,0,1,.82.89,4.23,4.23,0,0,1,.29,1.8v3.85H24.46v-3.84a2.59,2.59,0,0,0-.31-1.47,1.2,1.2,0,0,0-1.06-.45,1.92,1.92,0,0,0-1.6.95v4.81H20.13v-6.74Z"/><path class="cls-2" d="M28.34,302a.8.8,0,0,1,.57.22.8.8,0,0,1,0,1.12.81.81,0,0,1-.57.23.75.75,0,0,1-.54-.24.76.76,0,0,1,0-1.09A.75.75,0,0,1,28.34,302Zm-.65,2.83H29v6.74H27.69Z"/><path class="cls-2" d="M36,310v1.31a5.58,5.58,0,0,1-2,.38,3.45,3.45,0,0,1-2.53-.94,3.38,3.38,0,0,1-.94-2.51,3.61,3.61,0,0,1,.92-2.57,3.18,3.18,0,0,1,2.41-1,3.84,3.84,0,0,1,.93.1,6.22,6.22,0,0,1,1,.37v1.42A3.52,3.52,0,0,0,34,306a1.91,1.91,0,0,0-1.48.63,2.27,2.27,0,0,0-.58,1.61,2.19,2.19,0,0,0,.62,1.64,2.32,2.32,0,0,0,1.69.61A4.53,4.53,0,0,0,36,310Z"/><path class="cls-2" d="M38.2,302a.8.8,0,0,1,.57.22.8.8,0,0,1,0,1.12.81.81,0,0,1-.57.23.75.75,0,0,1-.54-.24.76.76,0,0,1,0-1.09A.75.75,0,0,1,38.2,302Zm-.66,2.83h1.34v6.74H37.54Z"/><path class="cls-2" d="M40.72,315V304.85h2.33a4,4,0,0,1,2.79.9,3.14,3.14,0,0,1,1,2.49,3.43,3.43,0,0,1-.94,2.49,3.2,3.2,0,0,1-2.4,1,4.22,4.22,0,0,1-1.42-.29V315ZM43,306.1h-.94v4.14a2.79,2.79,0,0,0,1.28.32,2,2,0,0,0,1.54-.65,2.44,2.44,0,0,0,.59-1.68,2.36,2.36,0,0,0-.28-1.17,1.7,1.7,0,0,0-.77-.73A3.32,3.32,0,0,0,43,306.1Z"/><path class="cls-2" d="M49,302a.8.8,0,0,1,.57.22.8.8,0,0,1,0,1.12.81.81,0,0,1-.57.23.75.75,0,0,1-.54-.24.76.76,0,0,1,0-1.09A.75.75,0,0,1,49,302Zm-.66,2.83h1.34v6.74H48.33Z"/><path class="cls-2" d="M54.81,304.84a3.52,3.52,0,0,1,2.56,1,3.32,3.32,0,0,1,1,2.49,3.18,3.18,0,0,1-1,2.42,3.64,3.64,0,0,1-2.6,1,3.54,3.54,0,0,1-2.54-1,3.25,3.25,0,0,1-1-2.44,3.3,3.3,0,0,1,1-2.47A3.62,3.62,0,0,1,54.81,304.84Zm-.07,1.2a2.09,2.09,0,0,0-1.57.63,2.19,2.19,0,0,0-.62,1.6,2.1,2.1,0,0,0,.63,1.58,2.22,2.22,0,0,0,1.62.61,2.18,2.18,0,0,0,1.61-.62,2.3,2.3,0,0,0,0-3.17A2.26,2.26,0,0,0,54.74,306Z"/><path class="cls-2" d="M59.54,311.11v-1.44a6.27,6.27,0,0,0,1.15.64,2.6,2.6,0,0,0,1,.25,1.22,1.22,0,0,0,.72-.21.58.58,0,0,0,.3-.49.67.67,0,0,0-.19-.49,5.51,5.51,0,0,0-.84-.56A5.84,5.84,0,0,1,60,307.59a1.8,1.8,0,0,1-.4-1.11,1.55,1.55,0,0,1,.61-1.27,2.36,2.36,0,0,1,1.55-.49,4.3,4.3,0,0,1,2,.56v1.32a4.05,4.05,0,0,0-1.94-.72,1,1,0,0,0-.62.16.51.51,0,0,0-.24.44.65.65,0,0,0,.21.45,4,4,0,0,0,.76.51l.48.27c1.12.63,1.68,1.34,1.68,2.11a1.67,1.67,0,0,1-.65,1.36,2.54,2.54,0,0,1-1.66.53,4.29,4.29,0,0,1-1.07-.13A7.5,7.5,0,0,1,59.54,311.11Z"/></g><g class="cls-1"><path class="cls-2" d="M161.34,80.55V70.3h3.25a3.32,3.32,0,0,1,2.33.79,2.74,2.74,0,0,1,.87,2.13,2.83,2.83,0,0,1-.44,1.58,2.58,2.58,0,0,1-1.23,1,6.09,6.09,0,0,1-2.22.31h-1.09v4.44Zm3-9h-1.52v3.21h1.61a2.07,2.07,0,0,0,1.38-.43,1.51,1.51,0,0,0,.48-1.2C166.28,72.13,165.63,71.6,164.33,71.6Z"/><path class="cls-2" d="M174.6,75.51H178v4.33a9.31,9.31,0,0,1-3.75.82,5.57,5.57,0,0,1-4.06-1.48,4.93,4.93,0,0,1-1.52-3.66,5.07,5.07,0,0,1,1.58-3.81,5.43,5.43,0,0,1,3.95-1.53,7.29,7.29,0,0,1,1.64.19,12.4,12.4,0,0,1,2,.69v1.49a7.17,7.17,0,0,0-3.63-1.06,3.87,3.87,0,0,0-2.83,1.14,3.79,3.79,0,0,0-1.15,2.8,3.74,3.74,0,0,0,1.15,2.85,4.09,4.09,0,0,0,3,1.11,6.83,6.83,0,0,0,2.1-.4l.14,0V76.81h-2Z"/><path class="cls-2" d="M185.19,70.17a5.51,5.51,0,0,1,3.95,1.5,5,5,0,0,1,1.58,3.76,4.91,4.91,0,0,1-1.59,3.75,5.65,5.65,0,0,1-4,1.48,5.33,5.33,0,0,1-3.85-1.48,4.94,4.94,0,0,1-1.54-3.72,5.07,5.07,0,0,1,1.55-3.79A5.4,5.4,0,0,1,185.19,70.17Zm.06,1.39a4,4,0,0,0-2.88,1.1,3.72,3.72,0,0,0-1.13,2.8,3.66,3.66,0,0,0,1.13,2.76,3.92,3.92,0,0,0,2.84,1.1,4,4,0,0,0,2.86-1.12,3.76,3.76,0,0,0,1.14-2.79,3.67,3.67,0,0,0-1.14-2.74A3.92,3.92,0,0,0,185.25,71.56Z"/><path class="cls-2" d="M190.68,70.3h8.54v1.3h-3.56v9h-1.48v-9h-3.5Z"/><path class="cls-2" d="M161.34,133.81V123.56h3.25a3.37,3.37,0,0,1,2.33.79,2.74,2.74,0,0,1,.87,2.13,2.83,2.83,0,0,1-.44,1.58,2.58,2.58,0,0,1-1.23,1,6.09,6.09,0,0,1-2.22.31h-1.09v4.44Zm3-8.94h-1.52v3.2h1.61a2.07,2.07,0,0,0,1.38-.42,1.55,1.55,0,0,0,.48-1.21C166.28,125.39,165.63,124.87,164.33,124.87Z"/><path class="cls-2" d="M169.07,123.58h5.8v1.3h-4.34V128h4.19v1.31h-4.19v3.18H175v1.3h-5.94Z"/><path class="cls-2" d="M175.7,123.56h8.55v1.31h-3.57v8.94h-1.47v-8.94H175.7Z"/><path class="cls-2" d="M192.51,123.45h.82a15,15,0,0,0-1.33,2.32,10.21,10.21,0,0,0-.62,2.22,14.55,14.55,0,0,0-.21,2.41,11,11,0,0,0,2.16,6.84h-.82l-.22-.27a17.31,17.31,0,0,1-1.23-1.63,9.62,9.62,0,0,1-.79-1.66,9,9,0,0,1,0-6.66A13.94,13.94,0,0,1,192.51,123.45Z"/><path class="cls-2" d="M200,128.92v4.89h-1.35v-3.75a2.91,2.91,0,0,0-.3-1.56,1.16,1.16,0,0,0-1-.45,1.66,1.66,0,0,0-.77.19,3.38,3.38,0,0,0-.79.68v4.89H194.4v-6.74h1.34V128a2.9,2.9,0,0,1,2-1,2.17,2.17,0,0,1,2,1.21,3,3,0,0,1,2.24-1.23,2,2,0,0,1,1.61.72,3.2,3.2,0,0,1,.64,2.19v4h-1.34v-4a2.09,2.09,0,0,0-.34-1.29,1.17,1.17,0,0,0-1-.45A2,2,0,0,0,200,128.92Z"/><path class="cls-2" d="M209.25,127.06a3.52,3.52,0,0,1,2.56,1,3.32,3.32,0,0,1,1,2.49,3.16,3.16,0,0,1-1,2.42,3.67,3.67,0,0,1-2.6,1,3.52,3.52,0,0,1-2.53-1,3.45,3.45,0,0,1,0-4.91A3.55,3.55,0,0,1,209.25,127.06Zm-.07,1.2a2.12,2.12,0,0,0-1.58.63,2.19,2.19,0,0,0-.61,1.6,2.1,2.1,0,0,0,.63,1.58,2.22,2.22,0,0,0,1.62.61,2.18,2.18,0,0,0,1.6-.62,2.28,2.28,0,0,0,0-3.17A2.27,2.27,0,0,0,209.18,128.26Z"/><path class="cls-2" d="M213.36,128.14l2.5-2.46v1.39H218v1.2h-2.14v3.3c0,.77.32,1.15,1,1.15a2.94,2.94,0,0,0,1.52-.47v1.24a3.34,3.34,0,0,1-1.68.44,2.19,2.19,0,0,1-1.52-.54,1.8,1.8,0,0,1-.32-.36,1.9,1.9,0,0,1-.2-.53,5.55,5.55,0,0,1-.09-1.24v-3h-1.17Z"/><path class="cls-2" d="M220.73,127.07v1.55l.07-.12c.65-1,1.29-1.56,1.93-1.56a2.37,2.37,0,0,1,1.58.76l-.7,1.17a2,2,0,0,0-1.29-.66,1.39,1.39,0,0,0-1.12.62,2.28,2.28,0,0,0-.47,1.46v3.52h-1.34v-6.74Z"/><path class="cls-2" d="M225.3,137.24h-.82a14.65,14.65,0,0,0,1.35-2.43,10.26,10.26,0,0,0,.6-2.2,14.31,14.31,0,0,0,.2-2.3,13.24,13.24,0,0,0-.23-2.46,10.67,10.67,0,0,0-.69-2.27,10.09,10.09,0,0,0-1.23-2.13h.82l.22.27a13.63,13.63,0,0,1,1.22,1.61,10.13,10.13,0,0,1,1.44,5,9.06,9.06,0,0,1-.58,3.19,10.45,10.45,0,0,1-.72,1.52A22.67,22.67,0,0,1,225.3,137.24Z"/><path class="cls-2" d="M161.34,187.07V176.82h3.25a3.37,3.37,0,0,1,2.33.79,2.74,2.74,0,0,1,.87,2.13,2.83,2.83,0,0,1-.44,1.58,2.58,2.58,0,0,1-1.23,1,6.09,6.09,0,0,1-2.22.31h-1.09v4.44Zm3-8.94h-1.52v3.2h1.61a2.07,2.07,0,0,0,1.38-.42,1.55,1.55,0,0,0,.48-1.21C166.28,178.65,165.63,178.13,164.33,178.13Z"/><path class="cls-2" d="M174.09,176.69a5.51,5.51,0,0,1,3.95,1.5,5,5,0,0,1,1.58,3.77,4.86,4.86,0,0,1-1.6,3.74,5.65,5.65,0,0,1-4,1.49,5.32,5.32,0,0,1-3.85-1.49,4.93,4.93,0,0,1-1.54-3.71,5,5,0,0,1,1.55-3.8A5.4,5.4,0,0,1,174.09,176.69Zm.06,1.39a4,4,0,0,0-2.89,1.1,3.76,3.76,0,0,0-1.13,2.81,3.66,3.66,0,0,0,1.14,2.75,4.2,4.2,0,0,0,5.69,0,3.73,3.73,0,0,0,1.15-2.79,3.64,3.64,0,0,0-1.15-2.74A3.88,3.88,0,0,0,174.15,178.08Z"/><path class="cls-2" d="M181.43,187.05V176.84h3.45a7.42,7.42,0,0,1,3.31.62,4.7,4.7,0,0,1,1.93,1.85,5.1,5.1,0,0,1,.72,2.65,4.91,4.91,0,0,1-.4,2,5,5,0,0,1-1.13,1.65,4.82,4.82,0,0,1-1.73,1.1,5.32,5.32,0,0,1-1.06.31,15,15,0,0,1-1.85.07Zm3.3-8.91H182.9v7.61h1.87a7.58,7.58,0,0,0,1.71-.15,4.19,4.19,0,0,0,1-.38,3.38,3.38,0,0,0,.75-.57,3.79,3.79,0,0,0,1.08-2.77,3.51,3.51,0,0,0-1.11-2.69,3.81,3.81,0,0,0-.94-.64,4.09,4.09,0,0,0-1-.33A10.85,10.85,0,0,0,184.73,178.14Z"/><path class="cls-2" d="M161.34,240.33V230.08h3.25a3.33,3.33,0,0,1,2.33.8,2.71,2.71,0,0,1,.87,2.12,2.81,2.81,0,0,1-.44,1.58,2.58,2.58,0,0,1-1.23,1,6.09,6.09,0,0,1-2.22.31h-1.09v4.44Zm3-8.94h-1.52v3.2h1.61a2.07,2.07,0,0,0,1.38-.42,1.53,1.53,0,0,0,.48-1.21C166.28,231.91,165.63,231.39,164.33,231.39Z"/><path class="cls-2" d="M168.92,230.1h1.33v10.23h-1.33Z"/><path class="cls-2" d="M176.41,236.28v2.86c0,.23.08.35.23.35a1.62,1.62,0,0,0,.76-.36v.81a4.38,4.38,0,0,1-.73.4,1.62,1.62,0,0,1-.58.11.9.9,0,0,1-1-.68,2.89,2.89,0,0,1-1.81.66,1.59,1.59,0,0,1-1.64-1.63,1.69,1.69,0,0,1,.46-1.14,3.12,3.12,0,0,1,1.3-.79l1.71-.59v-.36a1.07,1.07,0,0,0-1.22-1.21,2.91,2.91,0,0,0-2.12,1.12v-1.45a2.77,2.77,0,0,1,2.23-.92,2.58,2.58,0,0,1,1.75.57,1.82,1.82,0,0,1,.4.49,1.8,1.8,0,0,1,.22.61A9,9,0,0,1,176.41,236.28ZM175.1,239v-2l-.9.34a2.92,2.92,0,0,0-1,.55.95.95,0,0,0,.68,1.63A1.71,1.71,0,0,0,175.1,239Z"/><path class="cls-2" d="M179.91,233.59v.86a2.67,2.67,0,0,1,2-1,2.2,2.2,0,0,1,1.17.33,2,2,0,0,1,.82.89,4.23,4.23,0,0,1,.29,1.8v3.85h-1.34v-3.84a2.59,2.59,0,0,0-.31-1.47,1.2,1.2,0,0,0-1.06-.45,1.92,1.92,0,0,0-1.6,1v4.81h-1.36v-6.74Z"/><path class="cls-2" d="M196,237.08h-4.74a2.19,2.19,0,0,0,.65,1.54,2.12,2.12,0,0,0,1.54.57,4,4,0,0,0,2.43-.82v1.3a4.7,4.7,0,0,1-1.22.59,5.42,5.42,0,0,1-1.42.17,3.16,3.16,0,0,1-1.8-.46,3.31,3.31,0,0,1-1.1-1.24,3.75,3.75,0,0,1-.42-1.81,3.61,3.61,0,0,1,.88-2.5,2.9,2.9,0,0,1,2.26-1,2.66,2.66,0,0,1,2.14.94,3.74,3.74,0,0,1,.8,2.51Zm-4.71-.8h3.39a1.92,1.92,0,0,0-.48-1.23,1.51,1.51,0,0,0-1.14-.43,1.65,1.65,0,0,0-1.18.43A2.16,2.16,0,0,0,191.28,236.28Z"/><path class="cls-2" d="M197.1,239.85v-1.44a5.73,5.73,0,0,0,1.15.64,2.64,2.64,0,0,0,1,.25,1.21,1.21,0,0,0,.71-.21.58.58,0,0,0,.3-.49.67.67,0,0,0-.19-.49,5,5,0,0,0-.84-.55,6,6,0,0,1-1.69-1.23,1.8,1.8,0,0,1-.4-1.11,1.55,1.55,0,0,1,.61-1.27,2.36,2.36,0,0,1,1.55-.49,4.3,4.3,0,0,1,2,.56v1.32a4.05,4.05,0,0,0-1.94-.72,1,1,0,0,0-.62.16.51.51,0,0,0-.24.44.65.65,0,0,0,.21.45,4,4,0,0,0,.76.51l.48.27c1.12.63,1.68,1.34,1.68,2.11a1.67,1.67,0,0,1-.65,1.36,2.54,2.54,0,0,1-1.66.53,4.29,4.29,0,0,1-1.07-.13A7.5,7.5,0,0,1,197.1,239.85Z"/><path class="cls-2" d="M202.26,234.66l2.5-2.46v1.39h2.13v1.2h-2.13v3.3c0,.77.32,1.16,1,1.16a3,3,0,0,0,1.52-.48V240a3.5,3.5,0,0,1-1.68.43,2.19,2.19,0,0,1-1.52-.54,1.36,1.36,0,0,1-.32-.36,2.08,2.08,0,0,1-.21-.53,6.43,6.43,0,0,1-.08-1.24v-3h-1.17Z"/><path class="cls-2" d="M209.62,233.59v1.55l.08-.12c.64-1,1.29-1.56,1.93-1.56a2.39,2.39,0,0,1,1.58.76l-.71,1.17a2,2,0,0,0-1.29-.66,1.37,1.37,0,0,0-1.11.62,2.31,2.31,0,0,0-.48,1.46v3.52h-1.34v-6.74Z"/><path class="cls-2" d="M218.37,236.28v2.86c0,.23.08.35.23.35a1.62,1.62,0,0,0,.76-.36v.81a4.38,4.38,0,0,1-.73.4,1.62,1.62,0,0,1-.58.11.9.9,0,0,1-1-.68,2.89,2.89,0,0,1-1.81.66,1.61,1.61,0,0,1-1.17-.46,1.59,1.59,0,0,1-.47-1.17,1.69,1.69,0,0,1,.46-1.14,3.12,3.12,0,0,1,1.3-.79l1.71-.59v-.36a1.07,1.07,0,0,0-1.22-1.21,2.91,2.91,0,0,0-2.12,1.12v-1.45a2.77,2.77,0,0,1,2.23-.92,2.58,2.58,0,0,1,1.75.57,1.82,1.82,0,0,1,.4.49,1.8,1.8,0,0,1,.22.61A9,9,0,0,1,218.37,236.28ZM217.06,239v-2l-.9.34a2.92,2.92,0,0,0-1,.55,1,1,0,0,0,0,1.36.92.92,0,0,0,.69.27A1.71,1.71,0,0,0,217.06,239Z"/><path class="cls-2" d="M219.59,234.66l2.51-2.46v1.39h2.13v1.2H222.1v3.3c0,.77.32,1.16,1,1.16a2.93,2.93,0,0,0,1.51-.48V240a3.43,3.43,0,0,1-1.67.43,2.24,2.24,0,0,1-1.53-.54,1.52,1.52,0,0,1-.31-.36,1.54,1.54,0,0,1-.21-.53,5.49,5.49,0,0,1-.09-1.24v-3h-1.17Z"/><path class="cls-2" d="M231.27,237.08h-4.73a2.22,2.22,0,0,0,.64,1.54,2.16,2.16,0,0,0,1.55.57,4.07,4.07,0,0,0,2.43-.82v1.3a4.7,4.7,0,0,1-1.22.59,5.47,5.47,0,0,1-1.42.17,3.16,3.16,0,0,1-1.8-.46,3.31,3.31,0,0,1-1.1-1.24,3.75,3.75,0,0,1-.42-1.81,3.61,3.61,0,0,1,.87-2.5,2.94,2.94,0,0,1,2.27-1,2.67,2.67,0,0,1,2.14.94,3.74,3.74,0,0,1,.79,2.51Zm-4.71-.8H230a1.92,1.92,0,0,0-.48-1.23,1.51,1.51,0,0,0-1.14-.43,1.65,1.65,0,0,0-1.18.43A2.23,2.23,0,0,0,226.56,236.28Zm3.26-6.34-1.65,2.2h-.82l1-2.2Z"/><path class="cls-2" d="M232.37,235.92a2,2,0,0,1,.79-1.7,3.34,3.34,0,0,1,2.15-.63h2.78v1h-1.37a2.62,2.62,0,0,1,.55.73,1.7,1.7,0,0,1,.16.76,2,2,0,0,1-.3,1,2.16,2.16,0,0,1-.78.78,4.76,4.76,0,0,1-1.55.43c-.5.07-.75.24-.75.52a.44.44,0,0,0,.28.38,4.18,4.18,0,0,0,1,.31,11.21,11.21,0,0,1,1.6.43,2.09,2.09,0,0,1,.64.44,1.65,1.65,0,0,1,.48,1.21,1.75,1.75,0,0,1-.85,1.53,4.05,4.05,0,0,1-2.28.58,4.13,4.13,0,0,1-2.31-.58,1.78,1.78,0,0,1-.86-1.54c0-.91.57-1.5,1.69-1.77-.45-.28-.67-.57-.67-.85a.8.8,0,0,1,.29-.59,1.79,1.79,0,0,1,.78-.39A2.22,2.22,0,0,1,232.37,235.92Zm2.19,4.72a2,2,0,0,0-1.1.29.85.85,0,0,0-.43.73c0,.7.63,1,1.88,1a2.85,2.85,0,0,0,1.37-.26.81.81,0,0,0,.49-.73c0-.32-.21-.57-.62-.77A3.64,3.64,0,0,0,234.56,240.64Zm.32-5.89a1.25,1.25,0,0,0-.92.37,1.14,1.14,0,0,0-.39.87,1.1,1.1,0,0,0,.38.86,1.44,1.44,0,0,0,1.88,0,1.14,1.14,0,0,0,.38-.87,1.17,1.17,0,0,0-.38-.88A1.36,1.36,0,0,0,234.88,234.75Z"/><path class="cls-2" d="M239.81,230.76a.78.78,0,0,1,.56.22.77.77,0,0,1,0,1.12.79.79,0,0,1-.56.23.75.75,0,0,1-.55-.24.76.76,0,0,1,0-1.09A.75.75,0,0,1,239.81,230.76Zm-.66,2.83h1.33v6.74h-1.33Z"/><path class="cls-2" d="M247.46,238.76v1.31a5.58,5.58,0,0,1-2,.38A3.24,3.24,0,0,1,242,237a3.61,3.61,0,0,1,.92-2.57,3.18,3.18,0,0,1,2.41-1,3.73,3.73,0,0,1,.93.1,6.22,6.22,0,0,1,1,.37v1.42a3.49,3.49,0,0,0-1.87-.64,1.93,1.93,0,0,0-1.48.63,2.27,2.27,0,0,0-.58,1.61,2.16,2.16,0,0,0,.63,1.64,2.29,2.29,0,0,0,1.69.61A4.49,4.49,0,0,0,247.46,238.76Z"/><path class="cls-2" d="M252.2,233.58a3.54,3.54,0,0,1,2.56,1,3.35,3.35,0,0,1,1,2.49,3.15,3.15,0,0,1-1,2.42,3.63,3.63,0,0,1-2.6,1,3.52,3.52,0,0,1-2.53-1,3.45,3.45,0,0,1,0-4.91A3.59,3.59,0,0,1,252.2,233.58Zm-.07,1.2a2.12,2.12,0,0,0-1.58.63,2.19,2.19,0,0,0-.61,1.6,2.1,2.1,0,0,0,.63,1.58,2.21,2.21,0,0,0,1.61.61,2.15,2.15,0,0,0,1.61-.62,2.28,2.28,0,0,0,0-3.17A2.27,2.27,0,0,0,252.13,234.78Z"/><path class="cls-2" d="M260.51,240.46,263.46,230h1.05l-2.93,10.51Z"/><path class="cls-2" d="M161.15,261.76V251.59h2.34a4.08,4.08,0,0,1,2.79.89,3.21,3.21,0,0,1,1,2.5,3.43,3.43,0,0,1-.95,2.49,3.17,3.17,0,0,1-2.39,1,4.28,4.28,0,0,1-1.43-.29v3.6Zm2.31-8.92h-1V257a2.8,2.8,0,0,0,1.29.32,2,2,0,0,0,1.53-.66,2.36,2.36,0,0,0,.6-1.67,2.47,2.47,0,0,0-.28-1.17,1.75,1.75,0,0,0-.77-.73A3.35,3.35,0,0,0,163.46,252.84Z"/><path class="cls-2" d="M174.48,255.08h-4.74a2.25,2.25,0,0,0,.65,1.54,2.14,2.14,0,0,0,1.54.57,4.09,4.09,0,0,0,2.44-.82v1.3a4.7,4.7,0,0,1-1.22.59,5.47,5.47,0,0,1-1.42.17,3.16,3.16,0,0,1-1.8-.46,3.42,3.42,0,0,1-1.11-1.24,3.87,3.87,0,0,1-.41-1.81,3.59,3.59,0,0,1,.87-2.5,2.92,2.92,0,0,1,2.26-1,2.64,2.64,0,0,1,2.14.94,3.69,3.69,0,0,1,.8,2.51Zm-4.71-.8h3.39a1.86,1.86,0,0,0-.47-1.23,1.55,1.55,0,0,0-1.15-.43,1.63,1.63,0,0,0-1.17.43A2.17,2.17,0,0,0,169.77,254.28Z"/><path class="cls-2" d="M181.45,253.44v4.89h-1.34v-3.75a2.91,2.91,0,0,0-.3-1.56,1.17,1.17,0,0,0-1.05-.45,1.69,1.69,0,0,0-.77.19,3.38,3.38,0,0,0-.79.68v4.89h-1.33v-6.74h1.33v.89a2.9,2.9,0,0,1,2-1,2.18,2.18,0,0,1,2,1.22,3,3,0,0,1,2.23-1.24,2.08,2.08,0,0,1,1.62.72,3.25,3.25,0,0,1,.63,2.19v4h-1.33v-4a2.09,2.09,0,0,0-.35-1.29,1.17,1.17,0,0,0-1-.45A2,2,0,0,0,181.45,253.44Z"/><path class="cls-2" d="M190.71,251.58a3.52,3.52,0,0,1,2.56,1,3.32,3.32,0,0,1,1,2.49,3.17,3.17,0,0,1-1,2.42,3.61,3.61,0,0,1-2.6,1,3.52,3.52,0,0,1-2.53-1,3.45,3.45,0,0,1,0-4.91A3.58,3.58,0,0,1,190.71,251.58Zm-.07,1.2a2.12,2.12,0,0,0-1.58.63,2.19,2.19,0,0,0-.61,1.6,2.1,2.1,0,0,0,.63,1.58,2.22,2.22,0,0,0,1.62.61,2.18,2.18,0,0,0,1.61-.62,2.3,2.3,0,0,0,0-3.17A2.26,2.26,0,0,0,190.64,252.78Z"/><path class="cls-2" d="M194.82,252.66l2.51-2.46v1.39h2.13v1.2h-2.13v3.3c0,.77.32,1.16,1,1.16a3,3,0,0,0,1.51-.48V258a3.34,3.34,0,0,1-1.68.44,2.21,2.21,0,0,1-1.52-.54,1.32,1.32,0,0,1-.31-.36,1.54,1.54,0,0,1-.21-.53,5.49,5.49,0,0,1-.09-1.24v-3h-1.17Z"/><path class="cls-2" d="M169.56,301.36h1.37v10.23h-1.47v-8l-3.15,3.95H166l-3.18-3.95v8h-1.47V301.36h1.39l3.4,4.2Z"/><path class="cls-2" d="M177.24,311.59v-.86a3,3,0,0,1-1,.72,2.52,2.52,0,0,1-1.08.26,2.3,2.3,0,0,1-1.18-.32,2,2,0,0,1-.81-.87,4.16,4.16,0,0,1-.28-1.81v-3.86h1.33v3.84a2.65,2.65,0,0,0,.31,1.48,1.22,1.22,0,0,0,1.06.42,1.94,1.94,0,0,0,1.62-.93v-4.81h1.34v6.74Z"/><path class="cls-2" d="M181.78,304.85v.86a2.7,2.7,0,0,1,2-1,2.26,2.26,0,0,1,1.18.33,2.08,2.08,0,0,1,.82.89,4.26,4.26,0,0,1,.28,1.8v3.85h-1.33v-3.84a2.58,2.58,0,0,0-.32-1.47,1.19,1.19,0,0,0-1.05-.45,1.94,1.94,0,0,0-1.61.95v4.81h-1.36v-6.74Z"/><path class="cls-2" d="M188.64,302a.78.78,0,0,1,.56,1.34.77.77,0,0,1-.56.23.71.71,0,0,1-.54-.24.74.74,0,0,1,0-1.09A.71.71,0,0,1,188.64,302Zm-.66,2.83h1.33v6.74H188Z"/><path class="cls-2" d="M196.29,310v1.31a5.58,5.58,0,0,1-2,.38,3.43,3.43,0,0,1-2.52-.94,3.38,3.38,0,0,1-.94-2.51,3.61,3.61,0,0,1,.91-2.57,3.19,3.19,0,0,1,2.41-1,3.73,3.73,0,0,1,.93.1,6.63,6.63,0,0,1,1,.37v1.42a3.55,3.55,0,0,0-1.88-.64,1.93,1.93,0,0,0-1.48.63,2.32,2.32,0,0,0-.58,1.61,2.16,2.16,0,0,0,.63,1.64,2.31,2.31,0,0,0,1.69.61A4.49,4.49,0,0,0,196.29,310Z"/><path class="cls-2" d="M198.5,302a.78.78,0,0,1,.56,1.34.77.77,0,0,1-.56.23.71.71,0,0,1-.54-.24.74.74,0,0,1,0-1.09A.71.71,0,0,1,198.5,302Zm-.66,2.83h1.33v6.74h-1.33Z"/><path class="cls-2" d="M201,315V304.85h2.33a4,4,0,0,1,2.79.9,3.14,3.14,0,0,1,1,2.49,3.43,3.43,0,0,1-.94,2.49,3.17,3.17,0,0,1-2.39,1,4.23,4.23,0,0,1-1.43-.29V315Zm2.31-8.93h-.95v4.14a2.8,2.8,0,0,0,1.29.32,2,2,0,0,0,1.53-.65,2.4,2.4,0,0,0,.6-1.68,2.36,2.36,0,0,0-.29-1.17,1.67,1.67,0,0,0-.76-.73A3.35,3.35,0,0,0,203.32,306.1Z"/><path class="cls-2" d="M209.29,302a.78.78,0,0,1,.56.22.8.8,0,0,1,0,1.12.79.79,0,0,1-.56.23.71.71,0,0,1-.54-.24.74.74,0,0,1,0-1.09A.71.71,0,0,1,209.29,302Zm-.66,2.83H210v6.74h-1.33Z"/><path class="cls-2" d="M215.11,304.84a3.54,3.54,0,0,1,2.56,1,3.35,3.35,0,0,1,1,2.49,3.15,3.15,0,0,1-1,2.42,3.63,3.63,0,0,1-2.6,1,3.52,3.52,0,0,1-2.53-1,3.45,3.45,0,0,1,0-4.91A3.59,3.59,0,0,1,215.11,304.84ZM215,306a2.12,2.12,0,0,0-1.58.63,2.19,2.19,0,0,0-.61,1.6,2.1,2.1,0,0,0,.63,1.58,2.21,2.21,0,0,0,1.61.61,2.15,2.15,0,0,0,1.61-.62,2.28,2.28,0,0,0,0-3.17A2.27,2.27,0,0,0,215,306Z"/><path class="cls-2" d="M219.83,311.11v-1.44a6,6,0,0,0,1.16.64,2.56,2.56,0,0,0,1,.25,1.22,1.22,0,0,0,.72-.21.58.58,0,0,0,.3-.49.68.68,0,0,0-.2-.49,5.51,5.51,0,0,0-.84-.56,5.76,5.76,0,0,1-1.68-1.22,1.74,1.74,0,0,1-.4-1.11,1.57,1.57,0,0,1,.6-1.27,2.37,2.37,0,0,1,1.56-.49,4.33,4.33,0,0,1,2,.56v1.32a4.05,4.05,0,0,0-1.94-.72,1.09,1.09,0,0,0-.63.16.51.51,0,0,0-.24.44.62.62,0,0,0,.22.45,3.46,3.46,0,0,0,.76.51l.47.27c1.12.63,1.69,1.34,1.69,2.11a1.7,1.7,0,0,1-.65,1.36,2.57,2.57,0,0,1-1.67.53,4.35,4.35,0,0,1-1.07-.13A7.9,7.9,0,0,1,219.83,311.11Z"/></g><g class="cls-1"><path class="cls-2" d="M337.46,78.17v1.62a7.69,7.69,0,0,1-3.72.87,5.79,5.79,0,0,1-2.9-.68,5,5,0,0,1-1.89-1.9,5.12,5.12,0,0,1-.7-2.62,5,5,0,0,1,1.59-3.75,5.48,5.48,0,0,1,3.93-1.53,9,9,0,0,1,3.58.85V72.6a7.06,7.06,0,0,0-3.5-1,4,4,0,0,0-2.92,1.11,3.92,3.92,0,0,0,0,5.55,4,4,0,0,0,2.92,1.09A6.56,6.56,0,0,0,337.46,78.17Z"/><path class="cls-2" d="M344.29,70.17a5.52,5.52,0,0,1,3.95,1.5,5,5,0,0,1,1.57,3.76,4.91,4.91,0,0,1-1.59,3.75,5.65,5.65,0,0,1-4,1.48,5.35,5.35,0,0,1-3.86-1.48,5,5,0,0,1-1.54-3.72,5.07,5.07,0,0,1,1.55-3.79A5.44,5.44,0,0,1,344.29,70.17Zm.06,1.39a4,4,0,0,0-2.89,1.1,3.75,3.75,0,0,0-1.13,2.8,3.69,3.69,0,0,0,1.13,2.76,4.21,4.21,0,0,0,5.7,0,3.76,3.76,0,0,0,1.14-2.79,3.67,3.67,0,0,0-1.14-2.74A3.88,3.88,0,0,0,344.35,71.56Z"/><path class="cls-2" d="M349.77,70.3h8.55v1.3h-3.57v9h-1.47v-9h-3.51Z"/><path class="cls-2" d="M337.46,131.44v1.61a7.69,7.69,0,0,1-3.72.88,5.68,5.68,0,0,1-2.9-.69,5,5,0,0,1-1.89-1.9,5.08,5.08,0,0,1-.7-2.61,5,5,0,0,1,1.59-3.76,5.47,5.47,0,0,1,3.93-1.52,9.2,9.2,0,0,1,3.58.84v1.57a7,7,0,0,0-3.5-1,4,4,0,0,0-2.92,1.11,3.91,3.91,0,0,0,0,5.54,4,4,0,0,0,2.92,1.09A6.63,6.63,0,0,0,337.46,131.44Z"/><path class="cls-2" d="M342.31,127.06a3.52,3.52,0,0,1,2.55,1,3.32,3.32,0,0,1,1,2.49,3.16,3.16,0,0,1-1,2.42,3.69,3.69,0,0,1-2.6,1,3.54,3.54,0,0,1-2.54-1,3.24,3.24,0,0,1-1-2.44,3.3,3.3,0,0,1,1-2.47A3.59,3.59,0,0,1,342.31,127.06Zm-.08,1.2a2.09,2.09,0,0,0-1.57.63,2.19,2.19,0,0,0-.62,1.6,2.1,2.1,0,0,0,.63,1.58,2.43,2.43,0,0,0,3.23,0,2.27,2.27,0,0,0,0-3.17A2.26,2.26,0,0,0,342.23,128.26Z"/><path class="cls-2" d="M352.88,128.92v4.89h-1.34v-3.75a2.91,2.91,0,0,0-.3-1.56,1.17,1.17,0,0,0-1.05-.45,1.65,1.65,0,0,0-.76.19,3.39,3.39,0,0,0-.8.68v4.89H347.3v-6.74h1.33V128a2.92,2.92,0,0,1,2-1,2.18,2.18,0,0,1,2,1.21,3,3,0,0,1,2.24-1.23,2,2,0,0,1,1.61.72,3.25,3.25,0,0,1,.63,2.19v4h-1.33v-4a2.09,2.09,0,0,0-.34-1.29,1.17,1.17,0,0,0-1-.45A2.06,2.06,0,0,0,352.88,128.92Z"/><path class="cls-2" d="M359.61,124.24a.8.8,0,0,1,.57.22.77.77,0,0,1,.23.56.79.79,0,0,1-.8.79.75.75,0,0,1-.54-.24.78.78,0,0,1,.54-1.33Zm-.66,2.83h1.34v6.74H359Z"/><path class="cls-2" d="M361.27,128.14l2.5-2.46v1.39h2.13v1.2h-2.13v3.3c0,.77.32,1.15,1,1.15a2.94,2.94,0,0,0,1.52-.47v1.24a3.34,3.34,0,0,1-1.68.44,2.19,2.19,0,0,1-1.52-.54,1.8,1.8,0,0,1-.32-.36,2.25,2.25,0,0,1-.21-.53,6.5,6.5,0,0,1-.08-1.24v-3h-1.17Z"/><path class="cls-2" d="M373,130.56h-4.74a2.25,2.25,0,0,0,.65,1.54,2.14,2.14,0,0,0,1.54.57,4,4,0,0,0,2.43-.82v1.3a4.55,4.55,0,0,1-1.22.59,5.34,5.34,0,0,1-1.41.17,3.12,3.12,0,0,1-1.8-.46,3.42,3.42,0,0,1-1.11-1.24,3.87,3.87,0,0,1-.41-1.81,3.59,3.59,0,0,1,.87-2.5,2.92,2.92,0,0,1,2.26-1,2.64,2.64,0,0,1,2.14.94,3.74,3.74,0,0,1,.8,2.51Zm-4.71-.8h3.39a1.86,1.86,0,0,0-.47-1.23,1.55,1.55,0,0,0-1.15-.43,1.63,1.63,0,0,0-1.17.43A2.11,2.11,0,0,0,368.24,129.76Zm3.26-6.34-1.65,2.19H369l1-2.19Z"/><path class="cls-2" d="M382.79,129.76v2.86c0,.23.08.35.24.35a1.6,1.6,0,0,0,.75-.36v.81a3.71,3.71,0,0,1-.73.4,1.56,1.56,0,0,1-.57.11c-.57,0-.91-.23-1-.68a2.91,2.91,0,0,1-1.81.66,1.59,1.59,0,0,1-1.64-1.63,1.61,1.61,0,0,1,.46-1.14,3.17,3.17,0,0,1,1.3-.8l1.7-.58v-.36a1.07,1.07,0,0,0-1.21-1.22,3,3,0,0,0-2.13,1.13v-1.46a2.78,2.78,0,0,1,2.24-.91,2.6,2.6,0,0,1,1.75.57,1.65,1.65,0,0,1,.39.49,1.85,1.85,0,0,1,.23.6A10,10,0,0,1,382.79,129.76Zm-1.31,2.72v-2l-.89.34a2.81,2.81,0,0,0-1,.55.91.91,0,0,0-.29.68.9.9,0,0,0,.27.68.93.93,0,0,0,.69.27A1.69,1.69,0,0,0,381.48,132.48Z"/><path class="cls-2" d="M384.63,133.33v-1.44a6,6,0,0,0,1.16.64,2.75,2.75,0,0,0,1,.25,1.22,1.22,0,0,0,.72-.21.59.59,0,0,0,.3-.49.68.68,0,0,0-.2-.49,4.84,4.84,0,0,0-.84-.56,5.62,5.62,0,0,1-1.68-1.22,1.74,1.74,0,0,1-.4-1.11,1.57,1.57,0,0,1,.6-1.27,2.37,2.37,0,0,1,1.56-.49,4.21,4.21,0,0,1,2,.56v1.31a4.13,4.13,0,0,0-1.94-.71,1.09,1.09,0,0,0-.63.16.51.51,0,0,0-.24.44.6.6,0,0,0,.22.44,3.21,3.21,0,0,0,.75.52l.48.27c1.12.63,1.69,1.34,1.69,2.11a1.67,1.67,0,0,1-.65,1.35,2.52,2.52,0,0,1-1.67.54,4.29,4.29,0,0,1-1.07-.13A7.9,7.9,0,0,1,384.63,133.33Z"/><path class="cls-2" d="M396.48,130.56h-4.74a2.21,2.21,0,0,0,.65,1.54,2.12,2.12,0,0,0,1.54.57,4,4,0,0,0,2.43-.82v1.3a4.7,4.7,0,0,1-1.22.59,5.42,5.42,0,0,1-1.42.17,3.16,3.16,0,0,1-1.8-.46,3.31,3.31,0,0,1-1.1-1.24,3.75,3.75,0,0,1-.42-1.81,3.55,3.55,0,0,1,.88-2.5,2.9,2.9,0,0,1,2.26-1,2.66,2.66,0,0,1,2.14.94,3.74,3.74,0,0,1,.8,2.51Zm-4.71-.8h3.39a1.92,1.92,0,0,0-.48-1.23,1.51,1.51,0,0,0-1.14-.43,1.65,1.65,0,0,0-1.18.43A2.16,2.16,0,0,0,391.77,129.76Z"/><path class="cls-2" d="M397.59,133.33v-1.44a6.27,6.27,0,0,0,1.15.64,2.85,2.85,0,0,0,1,.25,1.21,1.21,0,0,0,.71-.21.59.59,0,0,0,.3-.49.67.67,0,0,0-.19-.49,4.84,4.84,0,0,0-.84-.56,5.84,5.84,0,0,1-1.69-1.22,1.8,1.8,0,0,1-.4-1.11,1.55,1.55,0,0,1,.61-1.27,2.36,2.36,0,0,1,1.55-.49,4.18,4.18,0,0,1,2,.56v1.31a4.13,4.13,0,0,0-1.94-.71,1,1,0,0,0-.62.16.51.51,0,0,0-.24.44.63.63,0,0,0,.21.44,3.57,3.57,0,0,0,.76.52l.48.27c1.12.63,1.68,1.34,1.68,2.11a1.64,1.64,0,0,1-.65,1.35,2.49,2.49,0,0,1-1.66.54,4.29,4.29,0,0,1-1.07-.13A7.5,7.5,0,0,1,397.59,133.33Z"/><path class="cls-2" d="M406.91,127.06a3.52,3.52,0,0,1,2.56,1,3.32,3.32,0,0,1,1,2.49,3.17,3.17,0,0,1-1,2.42,3.65,3.65,0,0,1-2.6,1,3.52,3.52,0,0,1-2.53-1,3.25,3.25,0,0,1-1-2.44,3.3,3.3,0,0,1,1-2.47A3.58,3.58,0,0,1,406.91,127.06Zm-.07,1.2a2.09,2.09,0,0,0-1.57.63,2.16,2.16,0,0,0-.62,1.6,2.1,2.1,0,0,0,.63,1.58,2.43,2.43,0,0,0,3.23,0,2.15,2.15,0,0,0,.62-1.58,2.1,2.1,0,0,0-.65-1.59A2.26,2.26,0,0,0,406.84,128.26Z"/><path class="cls-2" d="M413.4,127.07v1.55l.07-.12c.64-1,1.29-1.56,1.93-1.56a2.39,2.39,0,0,1,1.58.76l-.71,1.17a2,2,0,0,0-1.29-.66,1.37,1.37,0,0,0-1.11.62,2.28,2.28,0,0,0-.47,1.46v3.52h-1.35v-6.74Z"/><path class="cls-2" d="M426.57,123.58h1.34v10.23h-2.85a3.12,3.12,0,0,1-2.38-.95,3.55,3.55,0,0,1-.89-2.53,3.38,3.38,0,0,1,.93-2.45,3.2,3.2,0,0,1,2.39-1,4.34,4.34,0,0,1,1.46.29Zm0,9.09V128.4a2.74,2.74,0,0,0-1.26-.32,2,2,0,0,0-1.58.65,2.5,2.5,0,0,0-.59,1.76,2.34,2.34,0,0,0,.51,1.61,1.6,1.6,0,0,0,.65.45,4.3,4.3,0,0,0,1.24.12Z"/><path class="cls-2" d="M435.46,130.56h-4.74a2.25,2.25,0,0,0,.65,1.54,2.14,2.14,0,0,0,1.54.57,4.09,4.09,0,0,0,2.44-.82v1.3a4.7,4.7,0,0,1-1.22.59,5.47,5.47,0,0,1-1.42.17,3.16,3.16,0,0,1-1.8-.46,3.31,3.31,0,0,1-1.1-1.24,3.75,3.75,0,0,1-.42-1.81,3.59,3.59,0,0,1,.87-2.5,2.92,2.92,0,0,1,2.27-1,2.64,2.64,0,0,1,2.13.94,3.69,3.69,0,0,1,.8,2.51Zm-4.71-.8h3.39a1.86,1.86,0,0,0-.47-1.23,1.52,1.52,0,0,0-1.14-.43,1.65,1.65,0,0,0-1.18.43A2.17,2.17,0,0,0,430.75,129.76Z"/><path class="cls-2" d="M442.5,127.07v1.55l.07-.12c.65-1,1.29-1.56,1.94-1.56a2.35,2.35,0,0,1,1.57.76l-.7,1.17a2,2,0,0,0-1.29-.66,1.4,1.4,0,0,0-1.12.62,2.34,2.34,0,0,0-.47,1.46v3.52h-1.34v-6.74Z"/><path class="cls-2" d="M451.25,129.76v2.86c0,.23.07.35.23.35a1.66,1.66,0,0,0,.76-.36v.81a4.38,4.38,0,0,1-.73.4,1.66,1.66,0,0,1-.58.11c-.57,0-.91-.23-1-.68a2.91,2.91,0,0,1-1.81.66,1.59,1.59,0,0,1-1.64-1.63,1.61,1.61,0,0,1,.46-1.14,3.17,3.17,0,0,1,1.3-.8l1.71-.58v-.36a1.08,1.08,0,0,0-1.22-1.22,2.91,2.91,0,0,0-2.12,1.13v-1.46a2.75,2.75,0,0,1,2.23-.91,2.58,2.58,0,0,1,1.75.57,1.67,1.67,0,0,1,.4.49,1.82,1.82,0,0,1,.22.6A9.36,9.36,0,0,1,451.25,129.76Zm-1.31,2.72v-2l-.9.34a2.92,2.92,0,0,0-1,.55.9.9,0,0,0-.28.68.93.93,0,0,0,.26.68.94.94,0,0,0,.7.27A1.73,1.73,0,0,0,449.94,132.48Z"/><path class="cls-2" d="M453.18,137.24V127.07h2.33a4,4,0,0,1,2.79.89,3.18,3.18,0,0,1,1,2.5,3.43,3.43,0,0,1-.94,2.49,3.17,3.17,0,0,1-2.39,1,4.23,4.23,0,0,1-1.43-.29v3.6Zm2.31-8.92h-.95v4.14a2.8,2.8,0,0,0,1.29.32,2,2,0,0,0,1.53-.66,2.58,2.58,0,0,0,.31-2.84,1.67,1.67,0,0,0-.76-.73A3.35,3.35,0,0,0,455.49,128.32Z"/><path class="cls-2" d="M463.08,125.74h0a.34.34,0,0,1,.27.15l1.26-1.2a1.07,1.07,0,0,1,.69-.37.45.45,0,0,1,.34.15.53.53,0,0,1,.14.37c0,.33-.19.54-.57.64l-.17,0-1.6.58a.67.67,0,0,1,0,.18.47.47,0,0,1,0,.17l1.69.63.33.16a.61.61,0,0,1,.22.23.48.48,0,0,1,.1.27.52.52,0,0,1-.15.34.42.42,0,0,1-.33.17,1.4,1.4,0,0,1-.86-.49l-1.09-1.1a.47.47,0,0,1-.3.15l.3,1.55a3.26,3.26,0,0,1,.06.67c0,.43-.16.65-.5.65s-.51-.24-.51-.71a2.33,2.33,0,0,1,0-.38l.39-1.78a.51.51,0,0,1-.29-.15l-1.17,1.08a1.55,1.55,0,0,1-.83.49.48.48,0,0,1-.34-.14.49.49,0,0,1-.15-.35q0-.48.9-.78l1.48-.51a.82.82,0,0,1,0-.18l0-.17-1.69-.63q-.66-.23-.66-.63a.55.55,0,0,1,.15-.38.49.49,0,0,1,.36-.17,1,1,0,0,1,.48.24l.2.15,1.27,1.2a.43.43,0,0,1,.29-.15l-.29-1.5-.07-.32a1.24,1.24,0,0,1,0-.33c0-.45.17-.67.51-.67s.5.2.5.6a4.28,4.28,0,0,1-.09.69Z"/><path class="cls-2" d="M337.46,184.7v1.61a7.69,7.69,0,0,1-3.72.88,5.68,5.68,0,0,1-2.9-.69,5,5,0,0,1-1.89-1.9,5.08,5.08,0,0,1-.7-2.61,5,5,0,0,1,1.59-3.76,5.47,5.47,0,0,1,3.93-1.52,9.2,9.2,0,0,1,3.58.84v1.57a7,7,0,0,0-3.5-1,4,4,0,0,0-2.92,1.11,3.91,3.91,0,0,0,0,5.54,4,4,0,0,0,2.92,1.09A6.63,6.63,0,0,0,337.46,184.7Z"/><path class="cls-2" d="M339.31,187.07V176.84h2.56a3.67,3.67,0,0,1,2.47.77,2.56,2.56,0,0,1,.91,2.08,2.58,2.58,0,0,1-1.73,2.52,4.25,4.25,0,0,1,1,.87A19.16,19.16,0,0,1,345.8,185c.36.58.64,1,.86,1.31l.54.73h-1.74l-.45-.68-.09-.12-.28-.4-.46-.75-.49-.8a8,8,0,0,0-.83-1,3.18,3.18,0,0,0-.68-.54,2.28,2.28,0,0,0-1-.16h-.38v4.45Zm1.9-9h-.43v3.23h.55a4.11,4.11,0,0,0,1.53-.19,1.48,1.48,0,0,0,.64-.57,1.63,1.63,0,0,0,.23-.88,1.55,1.55,0,0,0-.25-.87,1.35,1.35,0,0,0-.72-.56A5.54,5.54,0,0,0,341.21,178.08Z"/><path class="cls-2" d="M352.45,176.69a5.52,5.52,0,0,1,3.95,1.5A5,5,0,0,1,358,182a4.89,4.89,0,0,1-1.59,3.74,5.65,5.65,0,0,1-4,1.49,5.34,5.34,0,0,1-3.86-1.49A5,5,0,0,1,347,182a5.08,5.08,0,0,1,1.55-3.8A5.44,5.44,0,0,1,352.45,176.69Zm.05,1.39a4,4,0,0,0-2.88,1.1,4,4,0,0,0,0,5.56,4.21,4.21,0,0,0,5.7,0,3.76,3.76,0,0,0,1.14-2.79,3.67,3.67,0,0,0-1.14-2.74A3.88,3.88,0,0,0,352.5,178.08Z"/><path class="cls-2" d="M357.93,176.82h8.55v1.31h-3.57v8.94h-1.47v-8.94h-3.51Z"/><path class="cls-2" d="M328.65,230.1h5.8v1.3h-4.34v3.12h4.19v1.31h-4.19V239h4.48v1.31h-5.94Z"/><path class="cls-2" d="M339.41,230h1L345,240.33h-1.5l-1.36-3H337.8l-1.28,3H335Zm2.16,6-1.65-3.7-1.54,3.7Z"/><path class="cls-2" d="M343.78,230.08h8.55v1.31h-3.57v8.94h-1.47v-8.94h-3.51Z"/><path class="cls-2" d="M360.59,230h.83a13.57,13.57,0,0,0-1.33,2.33,9.44,9.44,0,0,0-.63,2.21,14.55,14.55,0,0,0-.21,2.41,11,11,0,0,0,2.17,6.85h-.83l-.22-.28a16.1,16.1,0,0,1-1.23-1.63,9.48,9.48,0,0,1-.79-1.65,9,9,0,0,1,0-6.67A13.94,13.94,0,0,1,360.59,230Z"/><path class="cls-2" d="M367.6,238.76v1.31a5.64,5.64,0,0,1-2,.38,3.4,3.4,0,0,1-2.52-.94,3.36,3.36,0,0,1-.94-2.51,3.61,3.61,0,0,1,.91-2.57,3.21,3.21,0,0,1,2.41-1,3.87,3.87,0,0,1,.94.1,7,7,0,0,1,1,.37v1.42a3.52,3.52,0,0,0-1.87-.64,1.9,1.9,0,0,0-1.48.63,2.27,2.27,0,0,0-.58,1.61,2.19,2.19,0,0,0,.62,1.64,2.31,2.31,0,0,0,1.69.61A4.57,4.57,0,0,0,367.6,238.76Z"/><path class="cls-2" d="M372.34,233.58a3.52,3.52,0,0,1,2.55,1,3.32,3.32,0,0,1,1,2.49,3.15,3.15,0,0,1-1,2.42,3.64,3.64,0,0,1-2.6,1,3.54,3.54,0,0,1-2.54-1,3.25,3.25,0,0,1-1-2.44,3.3,3.3,0,0,1,1-2.47A3.63,3.63,0,0,1,372.34,233.58Zm-.08,1.2a2.09,2.09,0,0,0-1.57.63,2.19,2.19,0,0,0-.62,1.6,2.1,2.1,0,0,0,.63,1.58,2.22,2.22,0,0,0,1.62.61,2.16,2.16,0,0,0,1.61-.62,2.3,2.3,0,0,0,0-3.17A2.26,2.26,0,0,0,372.26,234.78Z"/><path class="cls-2" d="M380.61,233.58a3.52,3.52,0,0,1,2.56,1,3.32,3.32,0,0,1,1,2.49,3.15,3.15,0,0,1-1,2.42,3.63,3.63,0,0,1-2.6,1,3.52,3.52,0,0,1-2.53-1,3.45,3.45,0,0,1,0-4.91A3.62,3.62,0,0,1,380.61,233.58Zm-.07,1.2a2.12,2.12,0,0,0-1.58.63,2.19,2.19,0,0,0-.61,1.6,2.1,2.1,0,0,0,.63,1.58,2.22,2.22,0,0,0,1.62.61,2.18,2.18,0,0,0,1.61-.62,2.3,2.3,0,0,0,0-3.17A2.27,2.27,0,0,0,380.54,234.78Z"/><path class="cls-2" d="M387.09,233.59v1.55l.08-.12c.64-1,1.29-1.56,1.93-1.56a2.39,2.39,0,0,1,1.58.76l-.71,1.17a2,2,0,0,0-1.29-.66,1.37,1.37,0,0,0-1.11.62,2.31,2.31,0,0,0-.48,1.46v3.52h-1.34v-6.74Z"/><path class="cls-2" d="M395.88,230.1h1.34v10.23h-2.85a3.13,3.13,0,0,1-2.39-.94,3.57,3.57,0,0,1-.89-2.54,3.36,3.36,0,0,1,.94-2.45,3.19,3.19,0,0,1,2.38-1,4.37,4.37,0,0,1,1.47.28Zm0,9.09v-4.27a2.8,2.8,0,0,0-1.26-.32,2,2,0,0,0-1.59.65,2.56,2.56,0,0,0-.59,1.76,2.32,2.32,0,0,0,.51,1.61,1.74,1.74,0,0,0,.65.45,4.35,4.35,0,0,0,1.24.12Z"/><path class="cls-2" d="M399.71,230.76a.8.8,0,0,1,.57.22.8.8,0,0,1,0,1.12.81.81,0,0,1-.57.23.75.75,0,0,1-.54-.24.76.76,0,0,1,0-1.09A.75.75,0,0,1,399.71,230.76Zm-.66,2.83h1.34v6.74h-1.34Z"/><path class="cls-2" d="M403.65,233.59v.86a2.67,2.67,0,0,1,2-1,2.2,2.2,0,0,1,1.17.33,2.08,2.08,0,0,1,.82.89,4.26,4.26,0,0,1,.28,1.8v3.85h-1.33v-3.84a2.59,2.59,0,0,0-.31-1.47,1.21,1.21,0,0,0-1.06-.45,1.92,1.92,0,0,0-1.6,1v4.81h-1.37v-6.74Z"/><path class="cls-2" d="M414.05,236.28v2.86c0,.23.07.35.23.35a1.66,1.66,0,0,0,.76-.36v.81a4.38,4.38,0,0,1-.73.4,1.66,1.66,0,0,1-.58.11c-.57,0-.91-.23-1-.68a2.91,2.91,0,0,1-1.81.66,1.59,1.59,0,0,1-1.64-1.63,1.65,1.65,0,0,1,.46-1.14,3.06,3.06,0,0,1,1.3-.79l1.71-.59v-.36a1.07,1.07,0,0,0-1.22-1.21,2.9,2.9,0,0,0-2.12,1.12v-1.45a2.75,2.75,0,0,1,2.23-.92,2.58,2.58,0,0,1,1.75.57,1.82,1.82,0,0,1,.4.49,1.8,1.8,0,0,1,.22.61A9,9,0,0,1,414.05,236.28ZM412.74,239v-2l-.9.34a2.92,2.92,0,0,0-1,.55.9.9,0,0,0-.28.68.93.93,0,0,0,.26.68.94.94,0,0,0,.7.27A1.73,1.73,0,0,0,412.74,239Z"/><path class="cls-2" d="M421.27,238.76v1.31a5.58,5.58,0,0,1-2,.38,3.41,3.41,0,0,1-2.53-.94,3.36,3.36,0,0,1-.94-2.51,3.61,3.61,0,0,1,.92-2.57,3.18,3.18,0,0,1,2.41-1,3.84,3.84,0,0,1,.93.1,6.22,6.22,0,0,1,1,.37v1.42a3.52,3.52,0,0,0-1.87-.64,1.91,1.91,0,0,0-1.48.63,2.27,2.27,0,0,0-.58,1.61,2.19,2.19,0,0,0,.62,1.64,2.32,2.32,0,0,0,1.69.61A4.53,4.53,0,0,0,421.27,238.76Z"/><path class="cls-2" d="M423.47,230.76a.8.8,0,0,1,.57.22.8.8,0,0,1,0,1.12.81.81,0,0,1-.57.23.75.75,0,0,1-.54-.24.76.76,0,0,1,0-1.09A.75.75,0,0,1,423.47,230.76Zm-.66,2.83h1.34v6.74h-1.34Z"/><path class="cls-2" d="M429.3,233.58a3.52,3.52,0,0,1,2.55,1,3.32,3.32,0,0,1,1,2.49,3.15,3.15,0,0,1-1,2.42,3.64,3.64,0,0,1-2.6,1,3.54,3.54,0,0,1-2.54-1,3.24,3.24,0,0,1-1-2.44,3.3,3.3,0,0,1,1-2.47A3.63,3.63,0,0,1,429.3,233.58Zm-.08,1.2a2.09,2.09,0,0,0-1.57.63A2.19,2.19,0,0,0,427,237a2.1,2.1,0,0,0,.63,1.58,2.22,2.22,0,0,0,1.62.61,2.16,2.16,0,0,0,1.61-.62,2.27,2.27,0,0,0,0-3.17A2.26,2.26,0,0,0,429.22,234.78Zm1.56-4.84-1.65,2.2h-.82l1-2.2Z"/><path class="cls-2" d="M435.68,233.59v.86a2.68,2.68,0,0,1,2-1,2.2,2.2,0,0,1,1.17.33,2.1,2.1,0,0,1,.83.89,4.26,4.26,0,0,1,.28,1.8v3.85h-1.33v-3.84a2.58,2.58,0,0,0-.32-1.47,1.19,1.19,0,0,0-1-.45,1.94,1.94,0,0,0-1.61,1v4.81h-1.36v-6.74Z"/><path class="cls-2" d="M441.91,243.77h-.82a14.68,14.68,0,0,0,1.35-2.44,10.26,10.26,0,0,0,.6-2.2,13.3,13.3,0,0,0,0-4.76,10.59,10.59,0,0,0-1.92-4.4h.82l.23.27a14.53,14.53,0,0,1,1.21,1.61,10.12,10.12,0,0,1,1.44,5,9,9,0,0,1-.58,3.18,10.45,10.45,0,0,1-.72,1.52A22,22,0,0,1,441.91,243.77Z"/><path class="cls-2" d="M337.46,309.22v1.61a7.69,7.69,0,0,1-3.72.88,5.68,5.68,0,0,1-2.9-.69,5,5,0,0,1-1.89-1.9,5.08,5.08,0,0,1-.7-2.61,5,5,0,0,1,1.59-3.76,5.47,5.47,0,0,1,3.93-1.52,9.2,9.2,0,0,1,3.58.84v1.57a7,7,0,0,0-3.5-1,4,4,0,0,0-2.92,1.11,3.92,3.92,0,0,0,0,5.55,4.08,4.08,0,0,0,2.92,1.08A6.63,6.63,0,0,0,337.46,309.22Z"/><path class="cls-2" d="M339.31,311.59V301.36h2.56a3.67,3.67,0,0,1,2.47.77,2.56,2.56,0,0,1,.91,2.08,2.58,2.58,0,0,1-1.73,2.52,4.08,4.08,0,0,1,1,.88,17.67,17.67,0,0,1,1.32,1.94c.36.58.64,1,.86,1.31l.54.73h-1.74l-.45-.67a1.06,1.06,0,0,0-.09-.13l-.28-.4-.46-.75-.49-.8a8,8,0,0,0-.83-1,3.18,3.18,0,0,0-.68-.54,2.28,2.28,0,0,0-1-.16h-.38v4.45Zm1.9-9h-.43v3.23h.55a4.11,4.11,0,0,0,1.53-.19,1.42,1.42,0,0,0,.64-.57,1.63,1.63,0,0,0,.23-.88,1.55,1.55,0,0,0-.25-.87,1.4,1.4,0,0,0-.72-.56A5.54,5.54,0,0,0,341.21,302.6Z"/><path class="cls-2" d="M352.45,301.21a5.52,5.52,0,0,1,3.95,1.5,5,5,0,0,1,1.57,3.77,4.88,4.88,0,0,1-1.59,3.74,5.65,5.65,0,0,1-4,1.49,5.34,5.34,0,0,1-3.86-1.49,4.94,4.94,0,0,1-1.54-3.71,5.08,5.08,0,0,1,1.55-3.8A5.44,5.44,0,0,1,352.45,301.21Zm.05,1.39a4,4,0,0,0-2.88,1.1,4,4,0,0,0,0,5.56,4.21,4.21,0,0,0,5.7,0,3.76,3.76,0,0,0,1.14-2.79,3.67,3.67,0,0,0-1.14-2.74A3.88,3.88,0,0,0,352.5,302.6Z"/><path class="cls-2" d="M357.93,301.34h8.55v1.31h-3.57v8.94h-1.47v-8.94h-3.51Z"/><path class="cls-2" d="M370.93,311.72l2.95-10.51h1.06L372,311.72Z"/><path class="cls-2" d="M389.23,309.22v1.61a7.76,7.76,0,0,1-3.73.88,5.68,5.68,0,0,1-2.9-.69,5,5,0,0,1-1.89-1.9,5.08,5.08,0,0,1-.7-2.61,5,5,0,0,1,1.59-3.76,5.47,5.47,0,0,1,3.93-1.52,9.28,9.28,0,0,1,3.59.84v1.57a7.1,7.1,0,0,0-3.51-1,4.05,4.05,0,0,0-2.92,1.11,3.92,3.92,0,0,0,0,5.55,4.08,4.08,0,0,0,2.92,1.08A6.68,6.68,0,0,0,389.23,309.22Z"/><path class="cls-2" d="M390.16,301.34h8.54v1.31h-3.56v8.94h-1.48v-8.94h-3.5Z"/><path class="cls-2" d="M400,311.59V301.34h3.24a3.34,3.34,0,0,1,2.34.8,2.71,2.71,0,0,1,.87,2.12,2.84,2.84,0,0,1-.45,1.58,2.55,2.55,0,0,1-1.22,1,6.19,6.19,0,0,1-2.23.31h-1.08v4.44Zm3-8.94h-1.51v3.2h1.6a2,2,0,0,0,1.38-.42,1.53,1.53,0,0,0,.48-1.21C404.94,303.17,404.29,302.65,403,302.65Z"/></g><rect class="cls-3" y="99.18" width="645.12" height="0.89"/><rect class="cls-3" y="157.83" width="620.54" height="0.89"/><line class="cls-4" y1="158.28" x2="620.54" y2="158.28"/><rect class="cls-3" y="205.44" width="639.12" height="0.89"/><rect class="cls-3" y="283.88" width="645.12" height="0.89"/><path class="cls-2" d="M163,4.67v8.87h-1.71V4.67Z"/><path class="cls-2" d="M166.52,4.67l5.27,6.19V4.67h1.68v8.87H172l-5.3-6.29v6.29H165V4.67Z"/><path class="cls-2" d="M178,4.56a5.2,5.2,0,0,1,2.49.65V6.73A4.92,4.92,0,0,0,178,5.9a1.77,1.77,0,0,0-1,.25.78.78,0,0,0-.36.67c0,.33.23.64.68.93.12.08.61.32,1.46.71a4.16,4.16,0,0,1,1.58,1.14,2.41,2.41,0,0,1,.48,1.51A2.28,2.28,0,0,1,180,13a3.17,3.17,0,0,1-2.13.71,5.12,5.12,0,0,1-1.46-.19,6.43,6.43,0,0,1-1.38-.65V11.14a4.35,4.35,0,0,0,2.68,1.18,1.76,1.76,0,0,0,1-.28.85.85,0,0,0,.38-.72,1.13,1.13,0,0,0-.67-1c-.37-.21-.85-.45-1.44-.73a4.23,4.23,0,0,1-1.56-1.11A2.27,2.27,0,0,1,175,7a2.19,2.19,0,0,1,.83-1.78A3.43,3.43,0,0,1,178,4.56Z"/><path class="cls-2" d="M189.46,4.67V6h-3.15v7.53h-1.72V6h-3.14V4.67Z"/><path class="cls-2" d="M194,4.67a3,3,0,0,1,2,.7,2.29,2.29,0,0,1,.78,1.8,2.28,2.28,0,0,1-.39,1.32,2.62,2.62,0,0,1-1.15.88A2.59,2.59,0,0,1,196,10a8.79,8.79,0,0,1,.82,1.33A24.36,24.36,0,0,0,198,13.54H196.1a8.76,8.76,0,0,1-.54-.93,19.31,19.31,0,0,0-1.08-1.91,2.65,2.65,0,0,0-.66-.7,1.27,1.27,0,0,0-.73-.2h-.62v3.74h-1.71V4.67Zm-.39,3.79a1.54,1.54,0,0,0,1.06-.34A1.14,1.14,0,0,0,195,7.2a1.07,1.07,0,0,0-.38-.91,1.69,1.69,0,0,0-1.08-.3h-1.07V8.46Z"/><path class="cls-2" d="M200.52,4.67V9.83a2.85,2.85,0,0,0,.24,1.27,1.87,1.87,0,0,0,.78.77,2.52,2.52,0,0,0,1.25.31,2.88,2.88,0,0,0,1.34-.29,1.85,1.85,0,0,0,.8-.79,3.05,3.05,0,0,0,.26-1.38V4.67h1.71V9.94a3.5,3.5,0,0,1-1.07,2.75,4.37,4.37,0,0,1-3,1,4.85,4.85,0,0,1-2.13-.44A3,3,0,0,1,199.28,12,3.8,3.8,0,0,1,198.8,10V4.67Z"/><path class="cls-2" d="M210.33,4.67l2.92,3.5,2.91-3.5h1.53v8.87H216V7.31h0l-2.57,3.13h-.24l-2.56-3.13h-.06v6.23h-1.71V4.67Z"/><path class="cls-2" d="M225.38,4.67V6h-4V8.34h3.85V9.68h-3.85V12.2h4.11v1.34h-5.82V4.67Z"/><path class="cls-2" d="M228.57,4.67l5.27,6.19V4.67h1.67v8.87H234l-5.3-6.29v6.29h-1.67V4.67Z"/><path class="cls-2" d="M244.82,4.67V6h-3.15v7.53H240V6h-3.15V4.67Z"/><path class="cls-2" d="M250.15,4.56a5.29,5.29,0,0,1,2.47.57,4.42,4.42,0,0,1,2.41,4,4.46,4.46,0,0,1-.63,2.31,4.37,4.37,0,0,1-1.76,1.65,5.31,5.31,0,0,1-2.51.59,5.22,5.22,0,0,1-2.5-.6,4.49,4.49,0,0,1-1.76-6.24,4.37,4.37,0,0,1,1.74-1.67A5.32,5.32,0,0,1,250.15,4.56ZM247,9.11a3.13,3.13,0,0,0,.4,1.59,2.71,2.71,0,0,0,1.11,1.09,3.32,3.32,0,0,0,1.62.39,3.09,3.09,0,0,0,2.24-.86,2.94,2.94,0,0,0,.88-2.21,3.13,3.13,0,0,0-.4-1.59,2.62,2.62,0,0,0-1.12-1.09,3.56,3.56,0,0,0-3.24,0,2.71,2.71,0,0,0-1.11,1.09A3.34,3.34,0,0,0,247,9.11Z"/><path class="cls-2" d="M259.21,4.56a5.24,5.24,0,0,1,2.5.65V6.73a5,5,0,0,0-2.45-.83,1.73,1.73,0,0,0-1,.25.77.77,0,0,0-.37.67c0,.33.23.64.68.93.13.08.62.32,1.47.71A4.11,4.11,0,0,1,261.6,9.6a2.42,2.42,0,0,1,.49,1.51,2.29,2.29,0,0,1-.83,1.84,3.13,3.13,0,0,1-2.13.71,5.22,5.22,0,0,1-1.46-.19,6.16,6.16,0,0,1-1.37-.65V11.14A4.33,4.33,0,0,0,259,12.32a1.75,1.75,0,0,0,1-.28.84.84,0,0,0,.39-.72,1.14,1.14,0,0,0-.67-1c-.38-.21-.86-.45-1.45-.73a4.32,4.32,0,0,1-1.56-1.11A2.27,2.27,0,0,1,256.18,7,2.19,2.19,0,0,1,257,5.22,3.45,3.45,0,0,1,259.21,4.56Z"/><path class="cls-2" d="M165,20.27a5.19,5.19,0,0,1,2.46.57,4,4,0,0,1,1.67,1.59,4.71,4.71,0,0,1,0,4.6,4.08,4.08,0,0,1-1.7,1.56,5.58,5.58,0,0,1-2.54.55h-3.61V20.27Zm-.18,7.53a3.08,3.08,0,0,0,2.28-.85,3,3,0,0,0,.86-2.24,3,3,0,0,0-.87-2.27,3.22,3.22,0,0,0-2.33-.83H163V27.8Z"/><path class="cls-2" d="M177.05,20.27v1.34h-4v2.33h3.85v1.34H173V27.8h4.11v1.34h-5.82V20.27Z"/><path class="cls-2" d="M186.9,20.16a5.33,5.33,0,0,1,2.48.57,4.36,4.36,0,0,1,1.75,1.63,4.42,4.42,0,0,1,.66,2.35,4.47,4.47,0,0,1-.64,2.31,4.41,4.41,0,0,1-1.75,1.65,5.35,5.35,0,0,1-2.52.59,5.25,5.25,0,0,1-2.5-.6,4.47,4.47,0,0,1-1.75-6.24,4.28,4.28,0,0,1,1.73-1.67A5.32,5.32,0,0,1,186.9,20.16Zm-3.13,4.55a3.13,3.13,0,0,0,.4,1.59,2.77,2.77,0,0,0,1.11,1.09,3.35,3.35,0,0,0,1.62.39,3.07,3.07,0,0,0,2.24-.86,2.94,2.94,0,0,0,.88-2.21,3.13,3.13,0,0,0-.4-1.59A2.65,2.65,0,0,0,188.51,22a3.58,3.58,0,0,0-3.25,0,2.63,2.63,0,0,0-1.1,1.09A3.23,3.23,0,0,0,183.77,24.71Z"/><path class="cls-2" d="M196.58,20.27a2.92,2.92,0,0,1,2,.7,2.44,2.44,0,0,1,.4,3.12,2.65,2.65,0,0,1-1.16.88,2.63,2.63,0,0,1,.76.62,7.72,7.72,0,0,1,.81,1.33c.55,1.07.95,1.81,1.21,2.22h-1.91a9.11,9.11,0,0,1-.53-.93,19.31,19.31,0,0,0-1.08-1.91,2.65,2.65,0,0,0-.66-.7,1.29,1.29,0,0,0-.73-.2h-.62v3.74h-1.72V20.27Zm-.38,3.79a1.54,1.54,0,0,0,1.05-.34,1.14,1.14,0,0,0,.39-.92,1.09,1.09,0,0,0-.38-.91,1.74,1.74,0,0,0-1.09-.3h-1.06v2.47Z"/><path class="cls-2" d="M205.48,20.27a5.19,5.19,0,0,1,2.46.57,4.09,4.09,0,0,1,1.68,1.59,4.51,4.51,0,0,1,.59,2.29,4.42,4.42,0,0,1-.6,2.31,4.08,4.08,0,0,1-1.7,1.56,5.57,5.57,0,0,1-2.53.55h-3.62V20.27Zm-.18,7.53a3.08,3.08,0,0,0,2.28-.85,3,3,0,0,0,.86-2.24,3,3,0,0,0-.86-2.27,3.26,3.26,0,0,0-2.34-.83h-1.76V27.8Z"/><path class="cls-2" d="M217.54,20.27v1.34h-4v2.33h3.84v1.34h-3.84V27.8h4.1v1.34h-5.82V20.27Z"/><path class="cls-2" d="M220.74,20.27,226,26.46V20.27h1.67v8.87h-1.47l-5.3-6.29v6.29h-1.68V20.27Z"/><path class="cls-2" d="M234.12,20.27,238,29.14h-1.81L235.31,27h-3.94l-.86,2.16h-1.79l3.65-8.87Zm-2.23,5.41h2.86l-1.5-3.51Z"/><path class="cls-2" d="M240.62,20.27l2.92,3.5,2.91-3.5H248v8.87h-1.71V22.91h-.05L243.65,26h-.24l-2.56-3.13h0v6.23h-1.72V20.27Z"/><path class="cls-2" d="M251.69,20.27v8.87H250V20.27Z"/><path class="cls-2" d="M259.41,20.27v1.34h-4v2.33h3.84v1.34H255.4V27.8h4.1v1.34h-5.82V20.27Z"/><path class="cls-2" d="M262.61,20.27l5.27,6.19V20.27h1.67v8.87h-1.47l-5.3-6.29v6.29H261.1V20.27Z"/><path class="cls-2" d="M278.86,20.27v1.34h-3.15v7.53H274V21.61h-3.14V20.27Z"/><path class="cls-2" d="M284.18,20.16a5.3,5.3,0,0,1,2.48.57,4.45,4.45,0,0,1,1.76,1.63,4.5,4.5,0,0,1,.65,2.35,4.46,4.46,0,0,1-2.39,4,5.31,5.31,0,0,1-2.51.59,5.22,5.22,0,0,1-2.5-.6,4.49,4.49,0,0,1,0-7.91A5.38,5.38,0,0,1,284.18,20.16Zm-3.13,4.55a3.23,3.23,0,0,0,.4,1.59,2.8,2.8,0,0,0,1.12,1.09,3.28,3.28,0,0,0,1.61.39,3.11,3.11,0,0,0,2.25-.86,3,3,0,0,0,.87-2.21,3.23,3.23,0,0,0-.39-1.59A2.73,2.73,0,0,0,285.79,22a3.56,3.56,0,0,0-3.24,0,2.71,2.71,0,0,0-1.11,1.09A3.23,3.23,0,0,0,281.05,24.71Z"/><path class="cls-2" d="M2.63,4.67V9.83a2.85,2.85,0,0,0,.24,1.27,1.79,1.79,0,0,0,.77.77,2.56,2.56,0,0,0,1.26.31,2.91,2.91,0,0,0,1.34-.29A1.85,1.85,0,0,0,7,11.1a3.07,3.07,0,0,0,.25-1.38V4.67H9V9.94a3.48,3.48,0,0,1-1.08,2.75,4.33,4.33,0,0,1-3,1,4.92,4.92,0,0,1-2.14-.44A3.15,3.15,0,0,1,1.38,12,3.9,3.9,0,0,1,.91,10V4.67Z"/><path class="cls-2" d="M12.4,4.67l5.27,6.19V4.67h1.68v8.87H17.87l-5.3-6.29v6.29H10.9V4.67Z"/><path class="cls-2" d="M23.05,4.67v8.87H21.33V4.67Z"/><path class="cls-2" d="M28.75,4.67a5.2,5.2,0,0,1,2.47.57,4.06,4.06,0,0,1,1.67,1.59,4.42,4.42,0,0,1,.6,2.29,4.42,4.42,0,0,1-.6,2.31A4,4,0,0,1,31.18,13a5.54,5.54,0,0,1-2.53.55H25V4.67Zm-.17,7.53a3.11,3.11,0,0,0,2.28-.85,3,3,0,0,0,.86-2.24,3,3,0,0,0-.87-2.27A3.24,3.24,0,0,0,28.52,6H26.75V12.2Z"/><path class="cls-2" d="M39.32,4.67l3.92,8.87H41.43l-.92-2.16H36.57l-.86,2.16h-1.8l3.66-8.87Zm-2.23,5.41H40l-1.5-3.51Z"/><path class="cls-2" d="M48,4.67a5.2,5.2,0,0,1,2.47.57,4.06,4.06,0,0,1,1.67,1.59,4.42,4.42,0,0,1,.6,2.29,4.42,4.42,0,0,1-.6,2.31A4,4,0,0,1,50.42,13a5.54,5.54,0,0,1-2.53.55H44.28V4.67Zm-.17,7.53a3.11,3.11,0,0,0,2.28-.85A3,3,0,0,0,51,9.11a3,3,0,0,0-.87-2.27A3.24,3.24,0,0,0,47.76,6H46V12.2Z"/><path class="cls-2" d="M5.63,20.16a7.79,7.79,0,0,1,3.25.73v1.57a6.93,6.93,0,0,0-3.17-.82A3.71,3.71,0,0,0,4,22a2.67,2.67,0,0,0-1.17,1.11,3.16,3.16,0,0,0-.42,1.62A2.8,2.8,0,0,0,3.3,27a3.38,3.38,0,0,0,2.38.83,4.92,4.92,0,0,0,.78-.07,5.6,5.6,0,0,0,.88-.27V26H5.88V24.63H9.06v3.65A5,5,0,0,1,7.49,29a7.16,7.16,0,0,1-1.91.26A5.58,5.58,0,0,1,3,28.68,4.33,4.33,0,0,1,.62,24.74a4.43,4.43,0,0,1,.65-2.36,4.31,4.31,0,0,1,1.79-1.64A5.61,5.61,0,0,1,5.63,20.16Z"/><path class="cls-2" d="M16.62,20.27v1.34h-4v2.33h3.85v1.34H12.6V27.8h4.11v1.34H10.88V20.27Z"/><path class="cls-2" d="M22.85,20.16a5.33,5.33,0,0,1,2.48.57,4.36,4.36,0,0,1,1.75,1.63,4.48,4.48,0,0,1-1.73,6.31,5.31,5.31,0,0,1-2.51.59,5.26,5.26,0,0,1-2.51-.6A4.47,4.47,0,0,1,18.58,27a4.52,4.52,0,0,1,1.73-6.27A5.35,5.35,0,0,1,22.85,20.16Zm-3.13,4.55a3.13,3.13,0,0,0,.4,1.59,2.8,2.8,0,0,0,1.12,1.09,3.28,3.28,0,0,0,1.61.39,3.07,3.07,0,0,0,2.24-.86A2.94,2.94,0,0,0,26,24.71a3.23,3.23,0,0,0-.39-1.59A2.73,2.73,0,0,0,24.46,22a3.56,3.56,0,0,0-3.24,0,2.71,2.71,0,0,0-1.11,1.09A3.23,3.23,0,0,0,19.72,24.71Z"/><path class="cls-2" d="M34,20.16a7.79,7.79,0,0,1,3.25.73v1.57a7,7,0,0,0-3.18-.82,3.69,3.69,0,0,0-1.72.39,2.69,2.69,0,0,0-1.18,1.11,3.25,3.25,0,0,0-.41,1.62,2.83,2.83,0,0,0,.9,2.19,3.42,3.42,0,0,0,2.39.83,4.92,4.92,0,0,0,.78-.07,5.94,5.94,0,0,0,.88-.27V26H34.24V24.63h3.18v3.65a4.94,4.94,0,0,1-1.57.72,7,7,0,0,1-1.9.26,5.63,5.63,0,0,1-2.55-.58A4.34,4.34,0,0,1,29,24.74a4.36,4.36,0,0,1,2.44-4A5.58,5.58,0,0,1,34,20.16Z"/><path class="cls-2" d="M42.45,20.27a2.91,2.91,0,0,1,2,.7,2.44,2.44,0,0,1,.4,3.12,2.65,2.65,0,0,1-1.16.88,2.63,2.63,0,0,1,.76.62,8.3,8.3,0,0,1,.82,1.33q.81,1.6,1.2,2.22H44.59a9.11,9.11,0,0,1-.53-.93A19.31,19.31,0,0,0,43,26.3a2.65,2.65,0,0,0-.66-.7,1.29,1.29,0,0,0-.73-.2H41v3.74H39.25V20.27Zm-.39,3.79a1.59,1.59,0,0,0,1.06-.34,1.17,1.17,0,0,0,.38-.92,1.09,1.09,0,0,0-.38-.91,1.74,1.74,0,0,0-1.09-.3H41v2.47Z"/><path class="cls-2" d="M52.12,20.27,56,29.14H54.23L53.31,27h-4l-.85,2.16h-1.8l3.66-8.87Zm-2.24,5.41h2.87l-1.5-3.51Zm3.62-8.2-2.4,2.18h-1l1.2-2.18Z"/><path class="cls-2" d="M62.49,20.27v1.34h-3.7V23.9h3.7v1.36h-3.7v3.88H57.08V20.27Z"/><path class="cls-2" d="M65.8,20.27v8.87H64.08V20.27Z"/><path class="cls-2" d="M72.44,20.16a6.58,6.58,0,0,1,1.48.17,7.42,7.42,0,0,1,1.57.58v1.62A7.23,7.23,0,0,0,74,21.85a5,5,0,0,0-1.45-.21,3.71,3.71,0,0,0-1.71.39,2.91,2.91,0,0,0-1.18,1.1,3.2,3.2,0,0,0,0,3.17,2.77,2.77,0,0,0,1.18,1.09,3.68,3.68,0,0,0,1.71.39,4.54,4.54,0,0,0,1.39-.21,9.75,9.75,0,0,0,1.68-.76v1.61a7.54,7.54,0,0,1-1.59.64,6.53,6.53,0,0,1-1.69.2,5.55,5.55,0,0,1-2.51-.56,4.26,4.26,0,0,1-1.73-1.61,4.4,4.4,0,0,1-.63-2.3,4.47,4.47,0,0,1,.65-2.41,4.3,4.3,0,0,1,1.79-1.64A5.51,5.51,0,0,1,72.44,20.16Z"/><path class="cls-2" d="M81.71,20.27l3.92,8.87H83.82L82.9,27H79l-.86,2.16H76.3L80,20.27Zm-2.23,5.41h2.86l-1.5-3.51Z"/><path class="cls-2" d="M330.25,19.3v8.86h-1.71V19.3Z"/><path class="cls-2" d="M333.75,19.3,339,25.48V19.3h1.67v8.86h-1.47l-5.3-6.29v6.29h-1.68V19.3Z"/><path class="cls-2" d="M345.21,19.18a5.24,5.24,0,0,1,2.5.65v1.52a5,5,0,0,0-2.45-.83,1.73,1.73,0,0,0-1,.25.79.79,0,0,0-.37.67c0,.34.23.64.68.93.13.08.62.32,1.47.71a4.11,4.11,0,0,1,1.57,1.14,2.36,2.36,0,0,1,.49,1.51,2.32,2.32,0,0,1-.83,1.85,3.18,3.18,0,0,1-2.13.7,4.88,4.88,0,0,1-1.46-.19,6.08,6.08,0,0,1-1.37-.64V25.76A4.33,4.33,0,0,0,345,26.94a1.75,1.75,0,0,0,1-.27.86.86,0,0,0,.39-.73,1.15,1.15,0,0,0-.67-1c-.38-.2-.86-.45-1.45-.73a4.32,4.32,0,0,1-1.56-1.11,2.24,2.24,0,0,1-.52-1.47,2.16,2.16,0,0,1,.83-1.78A3.4,3.4,0,0,1,345.21,19.18Z"/><path class="cls-2" d="M356.68,19.3v1.34h-3.15v7.52h-1.71V20.64h-3.15V19.3Z"/><path class="cls-2" d="M361.44,19.3l3.91,8.86h-1.81L362.62,26h-3.94l-.86,2.15H356l3.65-8.86Zm-2.24,5.4h2.86l-1.49-3.51Z"/><path class="cls-2" d="M367.9,19.3l5.27,6.18V19.3h1.67v8.86h-1.47l-5.3-6.29v6.29h-1.68V19.3Z"/><path class="cls-2" d="M381.44,19.18a6.58,6.58,0,0,1,1.48.17,7.64,7.64,0,0,1,1.56.59v1.61a7.48,7.48,0,0,0-1.51-.68,5,5,0,0,0-1.45-.21,3.71,3.71,0,0,0-1.71.39,2.85,2.85,0,0,0-1.18,1.1,3.06,3.06,0,0,0-.42,1.58,3.15,3.15,0,0,0,.41,1.6,2.77,2.77,0,0,0,1.19,1.08,3.65,3.65,0,0,0,1.71.39,4.54,4.54,0,0,0,1.39-.21,9.71,9.71,0,0,0,1.67-.76v1.62a7.82,7.82,0,0,1-1.58.64,7,7,0,0,1-1.69.19,5.52,5.52,0,0,1-2.51-.56,4.2,4.2,0,0,1-1.73-1.61,4.41,4.41,0,0,1-.64-2.3,4.58,4.58,0,0,1,.65-2.41,4.39,4.39,0,0,1,1.8-1.64A5.48,5.48,0,0,1,381.44,19.18Z"/><path class="cls-2" d="M388,19.3v8.86h-1.72V19.3Z"/><path class="cls-2" d="M394.46,19.3l3.91,8.86h-1.81L395.64,26H391.7l-.86,2.15h-1.79l3.65-8.86Zm-2.24,5.4h2.86l-1.49-3.51Z"/><path class="cls-5" d="M638.49,20.11a68.65,68.65,0,1,0-97.09,97.08"/><path class="cls-6" d="M541.4,117.19a68.65,68.65,0,0,0,97.09-97.08"/><polygon class="cls-7" points="592.5 79.52 495.77 284.32 689.23 284.32 592.5 79.52"/><path class="cls-5" d="M592.25,79.5c3.78,14.66,7.82,30.05,6.43,45.32-.64,7-2.59,14.37-7.1,19.93-4.73,5.82-12.66,7.95-17.11,14.05-3.85,5.27-4,12.32-6.4,18.4-4.62,11.77-17.8,18.36-30.08,17.73Z"/><path class="cls-8" d="M567.67,216.33h-5V199.85h5Z"/><path class="cls-8" d="M587.38,215.17l-.91.33-.73.24-1,.27a19.66,19.66,0,0,1-2.25.4,19.92,19.92,0,0,1-2.38.14,11.65,11.65,0,0,1-4.64-.92,7.6,7.6,0,0,1-3.4-2.84,8.33,8.33,0,0,1-1.28-4.74,10,10,0,0,1,.66-3.55,6.26,6.26,0,0,1,2-2.79,9.15,9.15,0,0,1,2.27-1.32,9.77,9.77,0,0,1,2.24-.62,18,18,0,0,1,2.42-.15A16.18,16.18,0,0,1,584,200c.94.22,2,.5,3.1.86v3.9a13.7,13.7,0,0,0-2.36-1.09,9.38,9.38,0,0,0-3.12-.44,6.39,6.39,0,0,0-3.44.81,4.51,4.51,0,0,0-1.8,1.95,5.29,5.29,0,0,0-.51,2.19,4.69,4.69,0,0,0,.59,2.3,4.29,4.29,0,0,0,1.76,1.69,5.93,5.93,0,0,0,2.84.63,8.71,8.71,0,0,0,2-.25v-1.94h-2.23v-3.31h6.57Z"/><path class="cls-8" d="M609.06,216.33H604L602.62,213h-7.16l-1.37,3.34H589l7.29-16.48h5.5Zm-7.58-6.21-2.41-6-2.44,6Z"/><path class="cls-8" d="M625.66,215.1a12.06,12.06,0,0,1-2.09.85,12.4,12.4,0,0,1-2.16.46,18.12,18.12,0,0,1-2.25.14,11.59,11.59,0,0,1-3.86-.6,8.22,8.22,0,0,1-3-1.75,7.41,7.41,0,0,1-1.88-2.71,9,9,0,0,1-.63-3.41,8.87,8.87,0,0,1,.74-3.73,7.23,7.23,0,0,1,2.06-2.66,8.77,8.77,0,0,1,3-1.56,12.39,12.39,0,0,1,3.58-.51,19.53,19.53,0,0,1,6.36,1.25v4.38a17.08,17.08,0,0,0-2.42-1.27,7.09,7.09,0,0,0-2.81-.51,6.25,6.25,0,0,0-2.69.58,5,5,0,0,0-2,1.62,4.34,4.34,0,0,0-.09,4.77,4.72,4.72,0,0,0,1.85,1.65,5.65,5.65,0,0,0,2.67.62,8.41,8.41,0,0,0,2.27-.3,10,10,0,0,0,1.8-.65,12.72,12.72,0,0,0,1.5-.84Z"/><path class="cls-8" d="M640.42,70.05a14.77,14.77,0,0,0-2.55,8.32V93.89h-1.16l-9.64-5a12.79,12.79,0,0,0,0,16l9.64-5h1.16v15.51a14.87,14.87,0,0,0,2.54,8.33l1.57,2a15.52,15.52,0,0,0,2.56,2.15l1.57.91a14.68,14.68,0,0,0,2.51,1l1.57.36a14.76,14.76,0,0,0,2.59.23V98.86l9-.22a2.25,2.25,0,0,0-2.07-2.24A3.81,3.81,0,0,0,656,93.63h-3.25V63.46a14.76,14.76,0,0,0-2.59.23l-1.57.37a14.68,14.68,0,0,0-2.51,1l-1.57.91A15,15,0,0,0,642,68.1Z"/><path class="cls-8" d="M494.32,249.39h87.34s-.64-10.57-16.82-10.57c0,0-4.1-13.16-20.7-13.16-7.8,0-12.73,1.3-18.77,6.47C525.37,232.13,494.32,228.42,494.32,249.39Z"/><path class="cls-9" d="M495.79,284.21c5.87,0,7.67-1.19,12.15-5.75s8.32-2,10.22.06c2.07,2.21,4.41,5.7,10.28,5.74s7.39-1.05,11.86-5.61,8.33-2,10.22.06c2.07,2.21,4.16,5.55,10,5.55,3.92,0,7.2-.85,11.67-5.41s8.33-2,10.22.06c2.07,2.21,4.79,5.31,10.66,5.35s7-.67,11.49-5.23,8.33-2,10.22.06c2.07,2.22,4.13,5.17,10,5.17,4,0,7.31-.48,11.78-5s8.33-2,10.22.06c2.07,2.22,5,5,10.84,5.05s6.83-.36,11.31-4.92,8.33-2,10.22.06c2.07,2.21,4.18,4.82,10.05,4.86v39.45l-193.46.05Z"/><path class="cls-8" d="M545.06,294.35l2.71-1.51,19.58,1L579.24,300s57.82,11.65,63.92,11.51C643.16,311.54,575.6,337.11,545.06,294.35Z"/><path class="cls-5" d="M548.05,292.87c0-1.1.5-2.41,3.4-2.41h97.34s22.91.65,26-13.1H671.2a8.46,8.46,0,0,1-2.33-.33c-5.66-.21-10.17-4.28-10.17-9.28h15.46a3.23,3.23,0,0,0,6.41,0H696c0,5-4.6,9.15-10.33,9.29a8.76,8.76,0,0,1-2.31.32H679.7c-1.09,3.08-10.23,26.91-36.26,34.21l-31.72-.06c4.67,7.84,10.38,16.36,10.38,16.36-18.76,1-24.74-11.52-26.63-20.47L550.12,296Z"/></g></g></svg>