<svg xmlns="http://www.w3.org/2000/svg" viewBox="0 0 28.75 25"><defs><style>.cls-1{fill:#e94258;}.cls-2{fill:none;stroke:#fff;stroke-miterlimit:10;}.cls-3{fill:#fff;}</style></defs><g id="Capa_2" data-name="Capa 2"><g id="Arte"><polygon class="cls-1" points="21.56 0 7.19 0 0 12.5 7.19 25 21.56 25 28.75 12.5 21.56 0"/><polygon class="cls-2" points="8.35 23 2.31 12.5 8.35 2 20.41 2 26.44 12.5 20.41 23 8.35 23"/><path class="cls-3" d="M14.37,15.3a1,1,0,0,1,.73.32,1,1,0,0,1,.32.73,1,1,0,0,1-.31.73,1,1,0,0,1-.74.32,1,1,0,0,1-1-1,1,1,0,0,1,.31-.74A1,1,0,0,1,14.37,15.3Zm0-7.7c.66,0,1,.59,1,1.78a20.39,20.39,0,0,1-.26,2.71,10.92,10.92,0,0,1-.42,2.09c-.08.16-.17.24-.3.24a.34.34,0,0,1-.31-.21,9.73,9.73,0,0,1-.42-2,20.21,20.21,0,0,1-.28-2.87C13.38,8.19,13.72,7.6,14.39,7.6Z"/></g></g></svg>