<svg xmlns="http://www.w3.org/2000/svg" viewBox="0 0 55 55"><defs><style>.cls-1{fill:#6593f1;}.cls-2{fill:#f1c44e;}</style></defs><g id="Capa_2" data-name="Capa 2"><g id="Arte"><rect class="cls-1" width="55" height="55" rx="5"/><path class="cls-2" d="M42.14,28.62a13.69,13.69,0,0,1-1.6,7.06A15.15,15.15,0,0,1,36.77,40c-2.05,1.61-4.91,2.41-8.6,2.41H12.74V13.81H24.62a31.67,31.67,0,0,1,4.59.28,19.63,19.63,0,0,1,3.44.78A14.16,14.16,0,0,1,35.25,16a12.74,12.74,0,0,1,1.91,1.36,12.84,12.84,0,0,1,2.57,2.82A14,14,0,0,1,41.49,24,16.1,16.1,0,0,1,42.14,28.62Zm-8.77-.37A9.53,9.53,0,0,0,32,22.81a6.55,6.55,0,0,0-3.2-2.61A11.31,11.31,0,0,0,25,19.54H21.36V36.48H25a10.53,10.53,0,0,0,5.86-1.61Q33.36,33.27,33.37,28.25Z"/></g></g></svg>