<svg xmlns="http://www.w3.org/2000/svg" viewBox="0 0 55 55"><defs><style>.cls-1{fill:#7a397d;}.cls-2{fill:#f1c44e;}</style></defs><g id="Capa_2" data-name="Capa 2"><g id="Capa_1-2" data-name="Capa 1"><rect class="cls-1" width="55" height="55" rx="5"/><path class="cls-2" d="M15.69,20.2a12.22,12.22,0,0,1,4.84-5,14.37,14.37,0,0,1,7.22-1.79,13.68,13.68,0,0,1,8.72,2.77A12.56,12.56,0,0,1,41,23.71H32.74a5.4,5.4,0,0,0-5.1-3.22,5.27,5.27,0,0,0-4.26,1.91,7.67,7.67,0,0,0-1.59,5.08,7.72,7.72,0,0,0,1.59,5.12,5.27,5.27,0,0,0,4.26,1.91,5.4,5.4,0,0,0,5.1-3.22H41a12.56,12.56,0,0,1-4.55,7.51,13.68,13.68,0,0,1-8.72,2.77,14.37,14.37,0,0,1-7.22-1.79,12.22,12.22,0,0,1-4.84-5A15.27,15.27,0,0,1,14,27.48,15.2,15.2,0,0,1,15.69,20.2Z"/></g></g></svg>