<svg xmlns="http://www.w3.org/2000/svg" xmlns:xlink="http://www.w3.org/1999/xlink" viewBox="0 0 368.55 193.1"><defs><style>.cls-1,.cls-10,.cls-12,.cls-9{fill:none;}.cls-2{fill:#4a82c3;}.cls-3{fill:#ec6755;}.cls-4{fill:#002735;}.cls-5{fill:#f9bb15;}.cls-11,.cls-6{fill:#f5f7d4;}.cls-7{fill:#05223e;}.cls-8{fill:#f2943e;}.cls-9{stroke:#05223e;stroke-width:0.44px;}.cls-10,.cls-11,.cls-12,.cls-9{stroke-miterlimit:10;}.cls-10,.cls-11{stroke:#002735;}.cls-12{stroke:#f5f7d4;}.cls-13{clip-path:url(#clip-path);}.cls-14{fill:#fcc49d;}.cls-15{fill:#1e3966;}.cls-16{fill:#d24c3d;}.cls-17{fill:#fbbd91;}.cls-18{fill:#f79250;}.cls-19{fill:#93b1dd;}</style><clipPath id="clip-path"><path class="cls-1" d="M184.72,67.42a4.8,4.8,0,0,0-1.25-2.55c1.11,2.14.74,4.47.87,6.78a3.7,3.7,0,0,0-3.05,2.53c-.49,1.16-1.33,2.17-1.41,3.49a2.31,2.31,0,0,1-.32.7c-.4.76-.83,1.5-1.19,2.27a8.75,8.75,0,0,0-.87,5.73A8.41,8.41,0,0,0,180,90.7a2.59,2.59,0,0,1,.83,2.38c0,.1,0,.2,0,.3,0,2-.09,4,.09,6a17.78,17.78,0,0,0,4.31,10.26,23.49,23.49,0,0,0,6.36,4.76,20.77,20.77,0,0,1,4.87,3.62c2.24,2.38,2.66,5.55.95,8a7.81,7.81,0,0,1-5.56,3.23,16.53,16.53,0,0,1-7.59-1.09c-3.62-1.19-7.19-2.54-10.86-3.55-5.21-1.45-10.37-1.35-15.29,1.27a19.1,19.1,0,0,0-10.19,12.76,21.26,21.26,0,0,0,13.34,24.79,23.52,23.52,0,0,0,18.43-.72c2.21-1,4.44-1.94,6.71-2.77a12.56,12.56,0,0,1,8.36-.29,6.77,6.77,0,0,1,5,7.88,10,10,0,0,1-2.67,5,11.8,11.8,0,0,1-6.64,3.36,30.17,30.17,0,0,1-8.85.13,53.81,53.81,0,0,0-10.46-.37c-5.21.5-9.39,2.65-12,7.36a14.6,14.6,0,0,0-1.57,9.87h10.46a4.58,4.58,0,0,1,.76-3.66A7.51,7.51,0,0,1,175,186a24.89,24.89,0,0,1,6.7,1c6.39,1.56,12.69,1.36,18.72-1.41,8-3.68,12.76-9.88,13.42-18.82A18.49,18.49,0,0,0,203.6,149a24.92,24.92,0,0,0-14.36-2.37,49.27,49.27,0,0,0-8.78,2.2,39.82,39.82,0,0,1-8.42,1.91,15.26,15.26,0,0,1-7.59-1c-3.16-1.39-4.62-4.42-3.52-7.44a8,8,0,0,1,4.94-4.93,12.7,12.7,0,0,1,7.74,0,50.35,50.35,0,0,1,8.37,3.42,23.66,23.66,0,0,0,7.86,2.44,19.93,19.93,0,0,0,16.49-6.22,17.94,17.94,0,0,0,3.62-20.1A21.87,21.87,0,0,0,198,105.5c-2-.85-4.09-1.55-6-2.52a6.92,6.92,0,0,1-4.18-6.08c-.08-1.51-.08-3-.11-4.53a1.35,1.35,0,0,1,.55-1.12,10.06,10.06,0,0,0,2.58-3.31,7,7,0,0,0,.39-5.34,16.4,16.4,0,0,0-1.38-3.35c-.8-1.39-.93-3-1.68-4.41s-1.38-2.77-3.14-3.18a14,14,0,0,1,1.3-7.07l-.21-.07c-.47,1-.93,1.93-1.41,2.9"/></clipPath></defs><g id="Capa_2" data-name="Capa 2"><g id="Layer_1" data-name="Layer 1"><path class="cls-2" d="M230.41,44.55c-1.23-2.23,9.19,34.54-23.88,63.86-29.66,11.71-32-27.87-32-27.87s-.13-24.38,23.4-32.15,32.5-3.84,32.5-3.84"/><path class="cls-3" d="M176.66,46.28s-12.22-11.87-3.78-24,33.32-5.15,33.32-5.15,29.5,7.64,24.7,44.41c-19-16.51-33-13.25-33-13.25s4.94-2.3,3.52-10.49-10.15-7.07-10.15-7.07-10.41-2.07-14.64,2,0,13.52,0,13.52"/><path class="cls-4" d="M201.57,37.87c1.41,8.18-3.52,10.49-3.52,10.49-7.1,1.2-11-.61-16.43-4.92,0,0,11.75-3.17,9.8-12.65,0,0,8.73-1.1,10.15,7.08"/><path class="cls-2" d="M191.63,32.65a10.39,10.39,0,0,0-.21-1.86s8.73-1.1,10.15,7.08-3.52,10.49-3.52,10.49c-.85.14-1.65.24-2.42.3.19-8.17-2-13.17-4-16"/><path class="cls-5" d="M198,28.61c2.06.41,6.17-2.45,6.17-2.45s-2.7-4.21-4.75-4.63A3.62,3.62,0,1,0,198,28.61"/><path d="M196.63,25.42a2.43,2.43,0,1,0,1.9-2.85,2.43,2.43,0,0,0-1.9,2.85"/><path class="cls-4" d="M184.79,18.2a21.19,21.19,0,0,1,2.54-1c.48,9.41,5.52,12.87,8.14,14a11.87,11.87,0,0,0-4.18-.36s-10.41-2.06-14.64,2c-3.72,3.57-.88,11.32-.14,13.13-4.15-5.22-11.43-18.18,8.28-27.76"/><path class="cls-6" d="M172.89,22.39c3.2-4.58,8.74-6.42,14.4-7,0,.6,0,1.17,0,1.73a21.19,21.19,0,0,0-2.54,1c-19.71,9.59-12.43,22.54-8.28,27.76l.16.39s-12.22-11.87-3.78-24"/><path class="cls-6" d="M175.38,42.74a3.38,3.38,0,1,0,2.66-4,3.4,3.4,0,0,0-2.66,4"/><path class="cls-7" d="M215.35,138.09s-3,5-3.19,8.86,2.7,4.57,4.24,5c-.75-5.54,1.27-10.93,2-11.6a2.09,2.09,0,0,1,1.91-.23s.87.17,1,1.83c-1.29,5.27-1.84,9.12.19,10.7s6.67,0,6.67,0a24.55,24.55,0,0,1-3.55-9s-.19-1.82,1-1.85a1.62,1.62,0,0,1,1.52,1.07s.66,5.59,2.71,7.63,4.52.1,4.52.1L230,141.06s-.13-1.73.76-2.09,1.92.61,1.92.61.63,11.39,5.12,9.88,9.31-7.5,9.31-7.5-25.82-10-32-12.23c-1.32,3-1.75,2.74-3,2.3s-6.45-4.17-8.48,1.06,4.92,13.25,4.92,13.25l3.69-10.22a2.13,2.13,0,0,1,2.19-.12,1.59,1.59,0,0,1,.92,2.09m20.94,2.11a3.06,3.06,0,1,1-1.67,3.59,2.82,2.82,0,0,1,1.67-3.59"/><path class="cls-7" d="M220.84,122.89s.94-5.77,3.2-8.86,5-1.79,6.44-1.11c-4.12,3.78-6,9.22-5.89,10.18s1.32,1.39,1.32,1.39.77.43,2-.74c2.37-4.88,4.41-8.2,7-8.11s5.1,4.29,5.1,4.29a24.33,24.33,0,0,0-8.48,4.66s-1.31,1.28-.44,2a1.62,1.62,0,0,0,1.86.15s4.08-3.88,7-4.14,3.54,2.81,3.54,2.81L234,129.93s-1.21,1.24-.75,2.09,1.87.76,1.87.76,7.75-8.37,10.25-4.33,2.37,11.71,2.37,11.71-26.26-8.79-32.42-11c.92-3.18.4-3.22-.82-3.66s-7.62-.92-5.85-6.24,12.25-7,12.25-7l-3.68,10.22s.11,1,1.6,1.49a1.6,1.6,0,0,0,2.05-1m17.46,11.75a3.07,3.07,0,0,0,4.95-3.47,3.06,3.06,0,0,0-4.95,3.47"/><path class="cls-7" d="M160.16,113.56a9.39,9.39,0,0,0-9.67-4l1.38,4.12-4.92-4-7,1.85,5.16,7.13a29.35,29.35,0,0,0-10.21-5.06l-4.3,2.65,6,6.77c-3.8-2.39-7.33-3.88-10.47-4l-4.69,5.73,4,6.55a15.14,15.14,0,0,0-6.43-3.27l-6.25,14.69Z"/><path class="cls-7" d="M160.45,114a9.4,9.4,0,0,1-.8,10.43l-3.06-3.08,1.36,6.19-4.8,5.4-4-7.83a29.42,29.42,0,0,1-.08,11.4l-4.3,2.65-3.36-8.38c.43,4.46.17,8.29-1.13,11.15L133,143.57,129,137a15,15,0,0,1,0,7.21l-15.92-1Z"/><path class="cls-7" d="M133.14,139.6s9.43,2.83,15.75-3.11l-15.75,3.11"/><path class="cls-7" d="M131.16,143.89s9.42,2.83,15.74-3.12l-15.74,3.12"/><path class="cls-7" d="M128.88,148.82s9.42,2.82,15.74-3.12l-15.74,3.12"/><path class="cls-7" d="M126.52,153.92s9.42,2.83,15.74-3.12l-15.74,3.12"/><path class="cls-7" d="M124.25,158.81s9.42,2.83,15.74-3.12l-15.74,3.12"/><path class="cls-7" d="M122.26,163.1s9.43,2.83,15.75-3.12l-15.75,3.12"/><path class="cls-7" d="M120,168s9.43,2.82,15.75-3.12L120,168"/><path class="cls-7" d="M156.65,150.61s-8.25-5.35-7.81-14l7.81,14"/><path class="cls-7" d="M154.66,154.9s-8.25-5.36-7.8-14l7.8,14"/><path class="cls-7" d="M152.38,159.83s-8.25-5.36-7.8-14l7.8,14"/><path class="cls-7" d="M150,164.93s-8.25-5.36-7.81-14l7.81,14"/><path class="cls-7" d="M147.75,169.82s-8.25-5.36-7.8-14l7.8,14"/><path class="cls-7" d="M145.76,174.11s-8.25-5.36-7.8-14l7.8,14"/><path class="cls-7" d="M143.48,179s-8.25-5.35-7.8-14l7.8,14"/><line class="cls-8" x1="153.36" y1="126.83" x2="135.52" y2="165.36"/><line class="cls-9" x1="153.36" y1="126.83" x2="135.52" y2="165.36"/><path class="cls-7" d="M135.73,164.91s-4.79,4.91-6.89,14.87"/><path class="cls-7" d="M135.73,164.91s-.65,6.83-6.89,14.87"/><path class="cls-6" d="M221,97.34a35.55,35.55,0,1,1-35.55-35.56A35.55,35.55,0,0,1,221,97.34"/><path class="cls-5" d="M210.45,97.34a9,9,0,0,1-6.21,2.5c-2.78,0-5.56,0-8.34,0a1.07,1.07,0,0,1-.26-.08,8.28,8.28,0,0,1,1.83-4.89,8.61,8.61,0,0,1,6.35-3.41,1.47,1.47,0,0,1,1,.36c1.87,1.8,3.7,3.64,5.61,5.53"/><path class="cls-5" d="M195.65,81.72c3.22,0,6.36-.07,9.5,0a8.37,8.37,0,0,1,5.28,2.35L206,88.39a2.62,2.62,0,0,0-.44.44c-.89,1.37-2.08,1.37-3.51,1a8.94,8.94,0,0,1-6.44-8.07"/><path class="cls-5" d="M219.86,59.8l9.74,9.74a21.73,21.73,0,0,0-9.74,5Z"/><path class="cls-5" d="M211.79,82.43V69.86s0,0,0,0l6.29,6.32-6.31,6.27"/><path class="cls-5" d="M237.63,69.19h-6.24v-6.3c2.13,2.15,4.26,4.29,6.24,6.3"/><path class="cls-3" d="M250.29,94l2.86-2.8v5.74L250.29,94"/><path class="cls-3" d="M246.6,102.39l2.49-2.51v2.51Z"/><path class="cls-7" d="M240.52,102.06c4.32-4.32,8.6-8.67,13-12.93a2.52,2.52,0,0,0,.78-2.82c-2-7.66-6.69-12.91-14.25-15.14s-14.28-.4-19.93,5.1c-4.31,4.19-8.51,8.5-12.78,12.74-.54.54-1.17,1-1.77,1.51.37.4.53.58.7.74l14,14a21.22,21.22,0,0,0,1.9,1.67,18.67,18.67,0,0,0,16.58,3.78l0,0h0l.05,0a22.42,22.42,0,0,0,3.61-1.27l.74-.34h0l.38-.19,0,0h0a21.12,21.12,0,0,0,6.28-5h-1c-2.64,0-5.27,0-7.91,0a4.72,4.72,0,0,1-1.25-.42l.59-1.12a1.07,1.07,0,0,1,.18-.19"/><path class="cls-5" d="M232.48,90.12s-13,4.73-9.24,11c4.28,6.16,9.24-1.81,9.24-1.81Z"/><path class="cls-5" d="M232.48,91.92s-13-3.91-9.24-11c4.56-6.32,9.24,1.81,9.24,1.81Z"/><path class="cls-2" d="M232.48,86.22h-9.67S216.66,88,219,94.49c2.84,5.72,9.13,1.73,9.13,1.73l4.32-4.86Z"/><path class="cls-2" d="M232.48,85.22V75.12s-5.68-.26-5.68,5,5.68,5,5.68,5"/><path class="cls-2" d="M232.48,107.29V97.19s-5.68-.25-5.68,5,5.68,5.05,5.68,5.05"/><path class="cls-3" d="M161.23,163.39a23.52,23.52,0,0,0,18.43-.72c2.21-1,4.44-1.94,6.71-2.77a12.56,12.56,0,0,1,8.36-.29,6.77,6.77,0,0,1,5,7.88,10,10,0,0,1-2.67,5,11.8,11.8,0,0,1-6.64,3.36,30.17,30.17,0,0,1-8.85.13,53.81,53.81,0,0,0-10.46-.37c-5.21.5-9.39,2.65-12,7.36a14.61,14.61,0,0,0-1.55,10H168a4.52,4.52,0,0,1,.72-3.79A7.51,7.51,0,0,1,175,186a24.89,24.89,0,0,1,6.7,1c6.39,1.56,12.69,1.36,18.72-1.41,8-3.68,12.76-9.88,13.42-18.82A18.5,18.5,0,0,0,203.6,149a24.92,24.92,0,0,0-14.36-2.37,49.27,49.27,0,0,0-8.78,2.2,39.82,39.82,0,0,1-8.42,1.91,15.26,15.26,0,0,1-7.59-1c-3.16-1.39-4.62-4.42-3.52-7.44a8,8,0,0,1,4.94-4.93,12.7,12.7,0,0,1,7.74,0,49.51,49.51,0,0,1,8.37,3.42,23.66,23.66,0,0,0,7.86,2.44,19.93,19.93,0,0,0,16.49-6.22,17.94,17.94,0,0,0,3.62-20.1A21.87,21.87,0,0,0,198,105.5c-2-.85-4.09-1.55-6-2.52a6.92,6.92,0,0,1-4.18-6.08c-.08-1.51-.08-3-.11-4.53a1.35,1.35,0,0,1,.55-1.12,10.06,10.06,0,0,0,2.58-3.31,7,7,0,0,0,.39-5.34,16.4,16.4,0,0,0-1.38-3.35c-.8-1.39-.93-3-1.68-4.41s-1.38-2.77-3.14-3.18a14,14,0,0,1,1.3-7.07l-.21-.07c-.47,1-.93,1.93-1.41,2.9a4.8,4.8,0,0,0-1.25-2.55c1.11,2.14.74,4.46.87,6.78a3.7,3.7,0,0,0-3.05,2.53c-.49,1.16-1.33,2.17-1.41,3.49a2.31,2.31,0,0,1-.32.7c-.4.76-.83,1.5-1.19,2.27a8.75,8.75,0,0,0-.87,5.73A8.41,8.41,0,0,0,180,90.7a2.59,2.59,0,0,1,.83,2.38c0,.1,0,.2,0,.3,0,2-.09,4,.09,5.94a17.78,17.78,0,0,0,4.31,10.27,23.49,23.49,0,0,0,6.36,4.76,21,21,0,0,1,4.87,3.61c2.24,2.39,2.66,5.56.95,8a7.81,7.81,0,0,1-5.56,3.23,16.53,16.53,0,0,1-7.59-1.09c-3.62-1.19-7.19-2.54-10.86-3.55-5.21-1.45-10.37-1.35-15.29,1.27a19.1,19.1,0,0,0-10.19,12.76,21.26,21.26,0,0,0,13.34,24.79"/><path class="cls-4" d="M136.69,76.12s18.5-5,18.88,15.89C149.73,82.91,136.69,76.12,136.69,76.12Z"/><path class="cls-4" d="M132.08,83.89S148.08,73.37,155,93C146.6,86.23,132.08,83.89,132.08,83.89Z"/><path class="cls-4" d="M129.79,90.12s13.62-13.47,24.27,4.46C144.48,89.56,129.79,90.12,129.79,90.12Z"/><path class="cls-4" d="M129.12,97.05s10.16-16.23,24.64-1.22C143.28,93.14,129.12,97.05,129.12,97.05Z"/><path class="cls-4" d="M129.57,103.92s6.42-18,23.79-6.51C142.56,97.05,129.57,103.92,129.57,103.92Z"/><path class="cls-4" d="M136.47,115.34s-3.82-18.77,17-17.88C144,102.74,136.47,115.34,136.47,115.34Z"/><path class="cls-4" d="M145.85,121.43S134.45,106,153.71,98C149.86,100.41,150.27,120.71,145.85,121.43Z"/><path class="cls-10" d="M158.61,88.51c-.27.39-6.08,5.55-5.13,9.91"/><path class="cls-4" d="M124.71,82.43h58.65c0-25.9-29.32-41.07-29.32-41.07S124.71,59.68,124.71,82.43Z"/><path class="cls-6" d="M168.65,82.43h11.61C180.26,67,168.65,58,168.65,58Z"/><path class="cls-6" d="M140.12,82.43H128.51C128.51,67,140.12,58,140.12,58Z"/><rect class="cls-6" x="147.81" y="27.49" width="13.53" height="42.73"/><path class="cls-11" d="M142.77,81.86H166c0-15.4-11.61-24.42-11.61-24.42S142.77,68.33,142.77,81.86Z"/><path class="cls-12" d="M148.13,27.49H161c0-7.7-6.37-12.21-6.37-12.21S148.13,20.72,148.13,27.49Z"/><path class="cls-4" d="M152.5,35.63h3.77a10.16,10.16,0,0,0-1.86-6.11A11.82,11.82,0,0,0,152.5,35.63Z"/><rect class="cls-4" x="132.11" y="70.22" width="6.66" height="12.21"/><rect class="cls-4" x="169.91" y="70.22" width="6.66" height="12.21"/><rect class="cls-4" x="149.53" y="70.22" width="10.1" height="12.21"/><circle class="cls-5" cx="154.38" cy="42.75" r="3.06"/><rect class="cls-6" x="154.38" y="10.93" width="0.51" height="4.35"/><rect class="cls-6" x="154.38" y="11.21" width="0.51" height="2.58" transform="translate(167.14 -142.14) rotate(90)"/><g class="cls-13"><path class="cls-7" d="M204.15,148.83c-1.88,2.09-1.51,4,.54,5s10.5,4.74,12.51,1.82-5.78-6.82-7.22-7.16-3.94-1.81-5.83.29"/><path class="cls-7" d="M171.27,169c8.93,3.66,11.5-4.73,11.5-4.73s1.32-3.8-7.5-3.15-11,2.95-9.92,5,5.92,2.84,5.92,2.84"/><path class="cls-7" d="M202.13,177.2c-5.35,1.44-7.56,5.46-7.24,7.86a4.9,4.9,0,0,0,5.54,4.35c3.27-.3,13.79-5.77,10.95-9.87s-9.25-2.34-9.25-2.34"/><path class="cls-7" d="M205,101.22c-5.35,1.43-7.56,5.45-7.24,7.86a4.91,4.91,0,0,0,5.54,4.35c3.26-.31,13.78-5.78,10.94-9.88s-9.24-2.33-9.24-2.33"/><path class="cls-7" d="M178.57,133.3c-5.31-1.61-9.31.63-10.31,2.84a4.9,4.9,0,0,0,2.39,6.62c2.94,1.47,14.76,2.4,14.52-2.58s-6.6-6.88-6.6-6.88"/><path class="cls-7" d="M164.42,117.18c-5.17,2.67-5.74,6.38-4.61,9.35s6,4,11.72,1.5,10.25-8,8.73-11.49-11-1.89-15.84.64"/><path class="cls-7" d="M208.36,119.74c-2.52,8.33-1.92,13.16,1.53,14.61s6.94-2.16,7.39-6.39-.24-11.86-3.58-11.81-5.34,3.59-5.34,3.59"/><path class="cls-7" d="M209.11,166.17a5.62,5.62,0,0,0,5.13,6.88c2,0,3.21-1.79,3.3-4.32s-.52-6.49-2.7-6.82a5.43,5.43,0,0,0-5.73,4.26"/><path class="cls-7" d="M159.88,145.67a4.49,4.49,0,0,0,.3,6.35c1,1,2.57,1.93,4.44.43a5.14,5.14,0,0,0,1.42-6.21c-1-2-3.83-3.6-6.16-.57"/><path class="cls-7" d="M182.86,109.71a4.5,4.5,0,0,0,.3,6.35c1,1,2.57,1.93,4.45.44a5.13,5.13,0,0,0,1.41-6.22c-1.05-2-3.82-3.59-6.16-.57"/><path class="cls-7" d="M153.36,184c5.56,7.91,9,4,9.89,1.5s1.75-6.48-1.35-8.17-7.56-2.23-8.83.42a6.5,6.5,0,0,0,.29,6.25"/><path class="cls-7" d="M186.21,155.23c-2.46,3.28-1.46,7.3,1,10s6,3.28,8.21.58,2-9.48-.52-11-6.29-2.83-8.72.41"/><path class="cls-7" d="M203.42,138.15c-2.08-2.33-6.22-2.27-9-1.32s-5.09,3.73-4.79,6.45,6.08,3.36,9,2.58,7.8-4.36,4.8-7.71"/><path class="cls-7" d="M142.85,139.8c-.23,4.85,3.15,7.3,6.5,7.46s5.73-4.37,5.23-8-2-9.34-6.32-9.55-5.2,5.56-5.41,10.1"/></g><path class="cls-14" d="M120.66,138.24a.89.89,0,0,1,.16,1h0a6.05,6.05,0,0,1-1.91,2.1l-.3.25-.07.06-.05,0c-.84.77-.53,1-2,2.52-1.72,1.79-2.9,1.82-3.24,1.66s.29-1.09.93-2.16l.1-.15.25-.43c.75-1.28.56-1.88.38-3.79-.14-1.55-2.41-8.66-2.41-8.66l3.29-.57s1,5.66,2.08,6.53c.59.47,1.24.47,1.8.82l.12.07A4.18,4.18,0,0,1,120.66,138.24Z"/><path class="cls-15" d="M120.66,138.24a.89.89,0,0,1,.16,1h0a7,7,0,0,1-1.91,2.09l-.3.26-.07.06-.05,0c-.84.77-.53,1-2,2.52-1.72,1.79-2.9,1.82-3.24,1.66s.29-1.09.93-2.16a7.29,7.29,0,0,0,3.07-2.25c1-1.27,1.67-2.9,2.35-3.89l.19,0A4.18,4.18,0,0,1,120.66,138.24Z"/><path class="cls-14" d="M94.12,136.19c-.2,1-1.65.85-3.27.45s-1.23.08-3.54-.18-3-1.11-3.07-1.45,1.08-.41,2.3-.55l.46-.06c1.38-.17,2.39-1.06,3.64-1.79s3-3.51,3-3.51l3.16.25s-1.66,2.51-2.3,3.61a3.84,3.84,0,0,0-.31,2.15A3.91,3.91,0,0,1,94.12,136.19Z"/><path class="cls-15" d="M90.85,136.64c-1.62-.39-1.23.08-3.54-.18s-3-1.11-3.07-1.45,1.08-.41,2.3-.55v0a6.45,6.45,0,0,0,3.3,1c1.56,0,3.21-.41,4.29-.39a3.91,3.91,0,0,1,0,1.08C93.92,137.21,92.47,137,90.85,136.64Z"/><path class="cls-16" d="M106.21,116l3,8L113,134.31a6.19,6.19,0,0,0,2-.19,8.74,8.74,0,0,0,2-1S116,122,114,115.62a11.2,11.2,0,0,0-1.72-3.71C109.17,108.25,106.21,116,106.21,116Z"/><path class="cls-4" d="M123.43,86.24c4.26,2.34,12.91,7.2,12.95,7.17s3.18,1.2,5,0c3-2,4.62-7.37-.88-12-2.74-2.3-4.69-2.86-5-6.54-.17-2-2.92-8.64-7.49-8a6.7,6.7,0,0,1-1.1.07,4.2,4.2,0,0,0-2.29.59C122.06,69.1,117,85.33,123.43,86.24Z"/><path class="cls-17" d="M127,84.24a5.64,5.64,0,0,0,3.51.1c1.33-.59,2.34-2.78,2.32-2.78-.61,0-1.27-.55-1.78-4l-.26.1-4.34,1.56s.32,1.39.52,2.71C127.14,83,127.24,84.08,127,84.24Z"/><path class="cls-18" d="M126.45,79.19s.18.75.43,2.15a4.9,4.9,0,0,0,3.91-3.71Z"/><path class="cls-14" d="M125.81,80.57s5.93-.8,5.38-4.49-.17-6.27-4-5.91-4.33,1.87-4.44,3.14S124.25,80.68,125.81,80.57Z"/><path class="cls-4" d="M123,71.29s3.8,3.27,6.38,3.54,3.56-.57,3.56-.57a10.09,10.09,0,0,1-2.44-3.3A1.8,1.8,0,0,0,129,69.89C127.14,69.73,123.65,69.66,123,71.29Z"/><path class="cls-3" d="M109.21,103.38c1.68-.55,6.07,0,10.82.84a3.22,3.22,0,0,0,3.33-1.5h0l12-.94s3.95,8.76,1.79,14.34a2.09,2.09,0,0,1-2.09,1.35h-9.54c-6,0-12.6-4.09-13.46-4.26-1.41-.28-2,2.54-3.38,5.49S95.43,131.8,95.43,131.8a10.37,10.37,0,0,1-2.56-.26,2.52,2.52,0,0,1-1.11-.7S104.85,104.78,109.21,103.38Z"/><path class="cls-2" d="M122,93c.18,12,0,9.5,1.36,10.64a5.05,5.05,0,0,0,2.38.51c3.68.25,10.15-.36,10.4-1,.85-2.36.25-3.09,1-6.69.07-.38.16-.8.27-1.25.59-2.48,1.16-3.32-.93-7.29-1.91-3.61-3.88-6.53-4.06-6.42-5,3-5.42.47-5.42.47S121.92,87.12,122,93Z"/><path class="cls-19" d="M125.75,104.12c3.68.25,10.15-.36,10.4-1,.85-2.36.25-3.09,1-6.69l-1.78-5s.29,5.57-1.35,7-6.72,2.83-7.52,4.06A4.6,4.6,0,0,0,125.75,104.12Z"/><path class="cls-2" d="M137.36,96.47a15.81,15.81,0,0,1,5.53-2.8c-1.14-4-2.8-8-3.93-9.59-1.69-2.36-6.57-2.66-6.57-2.66s1.57,8,1.57,9.1C134,91.23,136,94.24,137.36,96.47Z"/><path class="cls-14" d="M138.34,95.94,140,99.3l-13.52,4.32-5.73.56s4.56.64,6.5.1,15.17-1.79,16.9-3-1.83-7.45-1.83-7.45S138.59,95,138.34,95.94Z"/><rect class="cls-1" width="368.55" height="193.1"/></g></g></svg>