<svg xmlns="http://www.w3.org/2000/svg" viewBox="0 0 270.74 141.85"><defs><style>.cls-1{fill:#fcc49d;}.cls-2{fill:#fbd636;}.cls-3{fill:#f37559;}.cls-4{fill:#f5f7d4;}.cls-5{fill:#0a3a5d;}.cls-6{fill:#002735;}.cls-7{fill:#f8a592;}.cls-8{fill:#f9bb15;}.cls-9{fill:#0b0d0d;}.cls-10{fill:#059370;}.cls-11,.cls-14{fill:none;}.cls-11{stroke:#f5f7d4;stroke-miterlimit:10;stroke-width:2.17px;}.cls-12{fill:#ec6755;}.cls-13{fill:#333416;}</style></defs><g id="Capa_2" data-name="Capa 2"><g id="Layer_1" data-name="Layer 1"><path class="cls-1" d="M189.49,23.25l-1.36-1.2a1.78,1.78,0,0,0,.17-.31,17.78,17.78,0,0,1,0-2c0-.16.18-.6.32-.57a.23.23,0,0,1,.2.25l0,.36c0,.11,0,.45.12.52s.88-1.47.88-1.47.19-.45.25-.61.15-.54.15-.54.23-.66.4-.59-.43,2.29-.33,2.35.56-.78.56-.78A3.14,3.14,0,0,1,191,18c0-.28.26-.75.47-.66a4.17,4.17,0,0,1-.09.72s-.12.41-.16.62a9.39,9.39,0,0,1-.43,1c-.06.2,0,.16,0,.18a5.17,5.17,0,0,0,.3-.57,3.55,3.55,0,0,0,.29-.55,4.3,4.3,0,0,1,.27-.61c.23-.43.47-.21.32.23l-.18.53a14.33,14.33,0,0,0-.56,1.35c.08.07.7-1.05.7-1.05s.51-.51.3.14a4.09,4.09,0,0,1-.69,1.26,5.61,5.61,0,0,1-.83,1.21A14.91,14.91,0,0,0,189.49,23.25Z"/><path class="cls-1" d="M171.29,46.74s-.21-.42-.27-.57-.24-.71-.24-.71a8.28,8.28,0,0,1-.36-1.9c.14,0,.42.25.49.35s.17.22.24.33a.27.27,0,0,0,.36.06c.14-.08-.06-.56-.16-.72a19.85,19.85,0,0,0-1.55-1.7c-.14-.15-.4-3.57-.58-4.74h0c-.24-1.92-.39-3.9-.42-4.1l1.45-8.17-2.88-1.66s-1.74,9-1.77,9.5c0,.22.9,4.62.9,4.62.59,2.14,1.12,4,1.21,4.38,0,0,0,1.17-.09,1.91a5.72,5.72,0,0,0,.2,1.65,4.51,4.51,0,0,0,.36,1.58c.3.71.35-.1.35-.1s-.31-1.42-.19-1.43.21.78.54,1.57c.08.21.16.41.24.59.21.48.57.49.44,0a4.4,4.4,0,0,0-.22-.71,4.07,4.07,0,0,1-.17-.69,4.63,4.63,0,0,1-.17-.71s.07-.09.16.12.24.86.43,1.22.33.65.33.65a5.7,5.7,0,0,0,.46.67c.25-.08.1-.65-.09-.91a3.73,3.73,0,0,0-.27-.69s-.25-1-.1-1.08,1.23,2.34,1.47,2.24S171.29,46.74,171.29,46.74Z"/><path class="cls-2" d="M170.5,29.53a16.45,16.45,0,0,1-2.3-.14,17.7,17.7,0,0,1-1.82-.39,45.1,45.1,0,0,1,1.13-7.88c.36-1.26.84-1.93,1.63-2.2a4.36,4.36,0,0,1,2.34,3.43C171.58,23,170.5,29.53,170.5,29.53Z"/><path class="cls-1" d="M174.49,44.91l1.89,16.89a24.8,24.8,0,0,0-.81,4.58c.11,1,2.06,14.32,2.06,14.32l-.08.75v2.21h7.24a32.9,32.9,0,0,1-3.68-2,1.48,1.48,0,0,1-.62-1.06c-.57-4.1.56-17.78.56-17.78l.9-17.81Z"/><path class="cls-1" d="M168.68,48.47c-.41.1-1,14.62-1.38,15.26-2.15,4.08-2.65,16.48-2.65,16.48L164,82l-.65,2.14s2.14.55,3.26-.07L166.49,82,166.38,80l5.41-15.46,3-15.76Z"/><path class="cls-2" d="M179.44,20.34c-.88-1.18-4.48-4.63-4.88-4.62-1.16,0-5,0-5.74.4l0,6.56c.12.55,2.76,9.12,2.61,11h0a5.3,5.3,0,0,0,7.73-.37h0a43.23,43.23,0,0,1,.3-5C180,24.63,181.6,23.3,179.44,20.34Z"/><path class="cls-2" d="M182.61,55.9l.26-10a19.31,19.31,0,0,0-1.7-8.21l-1.95-4.35a12,12,0,0,1-2.37.56,24.2,24.2,0,0,1-5.38-.2l0,.17c-.32,1.48-2.14,4.77-2.91,9.26a80.48,80.48,0,0,0-1,12.78A32.34,32.34,0,0,0,182.61,55.9Z"/><path class="cls-1" d="M173.39,12a19,19,0,0,1-.12,3.33c-.22.92-.51,1,1.36,1.27.74.11,1.45.27,1.45.27s-.19-1.34-.22-1.91c-.05-.94.21-3.83.21-3.83Z"/><path class="cls-3" d="M174.81,13.23a3.34,3.34,0,0,0,1.08.38c.06-1.14.18-2.45.18-2.45l-2.56.83A3.38,3.38,0,0,0,174.81,13.23Z"/><path class="cls-4" d="M166.49,82A3.56,3.56,0,0,1,164,82l-.15.38-.54,1.81s2.17.54,3.29-.08Z"/><path class="cls-4" d="M177.47,84.2H185c.28,0,.35-.25.25-.39a8.88,8.88,0,0,0-2.06-1c-1.73.18-5.36-1-5.63-1.41A8.44,8.44,0,0,0,177.47,84.2Z"/><path class="cls-5" d="M174.42,42.56v3.15a3,3,0,0,0,3.07,3h3.15V41.33h-4.95a1.26,1.26,0,0,0-.87.34A1.18,1.18,0,0,0,174.42,42.56Z"/><path class="cls-5" d="M174.44,42.67h.93L174.84,18a2.65,2.65,0,0,1,2.09,1.83l6.51,22.27.9-.25-6.51-22.26a3.61,3.61,0,0,0-3.46-2.54h-.48Z"/><path class="cls-1" d="M174.62,22.65l4-.7,2.46,5.5c1.56-1.5,7.22-5.68,7.25-5.71l1.25,1.42s-6.65,8.61-9.68,8.22C177.28,31,174.57,22.62,174.62,22.65Z"/><path class="cls-2" d="M173,18.92c-.54,2.23,2.35,7.18,2.35,7.18s4.12-1.93,4.84-2.77c0,0-2.8-4.81-3-5.1A2.55,2.55,0,0,0,174.49,17C173.9,17.06,173,18.92,173,18.92Z"/><path class="cls-6" d="M172.91,19.6a6.65,6.65,0,0,0,1.38-7.48c.86-1.12,1.41-.92,1.22-2.31-.38-2.75,3.46-4.4.59-5.13-2.89-.58-5.3,1.19-6.62,3a6.89,6.89,0,0,1-2.23,2,4.45,4.45,0,0,0-1.74,5.64,4,4,0,0,0-1.69,4.93c.22.45.67,1,.68,1.11,0-.16-1.3,4,3.47,5.46S173.84,23.52,172.91,19.6Z"/><path class="cls-7" d="M175.72,9.71c0,.6-.23,1.09-.51,1.09s-.5-.49-.5-1.09.22-1.1.5-1.1S175.72,9.1,175.72,9.71Z"/><path class="cls-6" d="M174.82,41.67h0A1.16,1.16,0,0,1,176,42.81v2.32a3.61,3.61,0,0,0,3.66,3.55h1.92a3.61,3.61,0,0,0,3.67-3.55V42.82a1.52,1.52,0,0,0-1.54-1.49h-8A1.26,1.26,0,0,0,174.82,41.67Z"/><path class="cls-6" d="M171.51,7.56c-.56,2.32,2.49,4,4.91,4.06,1.57,0,2.29-.12,2.54-1.76.41-2.68-.69-4.31-2.24-5C174.72,4,172,5.65,171.51,7.56Z"/><path class="cls-1" d="M175.06,6a3.16,3.16,0,0,0-1.63,1.42c-.56,1.07-.28,4.49,2.07,5.62s3.44-1.43,3.27-3.33S177.92,5.36,175.06,6Z"/><path class="cls-6" d="M172.6,10c-.35-1.77-.22-3.11,1.05-3.76S176,5,177.11,6.14l.26.14s-2.13.59-2.25,1.72-1.25,2.46-1.08,3,.38,1.65.38,1.65l-.47-.38A3.13,3.13,0,0,1,172.6,10Z"/><path class="cls-1" d="M174.79,9.34c.18.49,0,1-.3,1.1s-.75-.19-.93-.67,0-1,.3-1.1S174.62,8.86,174.79,9.34Z"/><ellipse class="cls-4" cx="83.27" cy="51.57" rx="36.02" ry="18.04"/><path class="cls-8" d="M61.72,51.57l3.92-23.43h38l3.68,23.43Q84.51,65,61.72,51.57Z"/><path class="cls-9" d="M62.21,48.66l-.49,2.91q22.78,13.4,45.57,0l-.46-2.93Q84.53,61.51,62.21,48.66Z"/><ellipse class="cls-6" cx="84.63" cy="28.14" rx="18.98" ry="4.53"/><circle class="cls-6" cx="191.49" cy="89.95" r="5.08"/><circle class="cls-8" cx="191.49" cy="89.95" r="2.78"/><polygon class="cls-6" points="167.44 84.21 198.9 84.21 207.22 62.96 162.74 62.94 167.44 84.21"/><rect class="cls-10" x="144.94" y="61.19" width="63.96" height="3.49"/><path class="cls-6" d="M169.13,81.8h2.53a0,0,0,0,1,0,0V92a0,0,0,0,1,0,0h-1.21a1.33,1.33,0,0,1-1.33-1.33V81.8A0,0,0,0,1,169.13,81.8Z"/><path class="cls-6" d="M190.22,79.75h2.53a0,0,0,0,1,0,0V90a0,0,0,0,1,0,0h-.94a1.59,1.59,0,0,1-1.59-1.59V79.75A0,0,0,0,1,190.22,79.75Z"/><polyline class="cls-11" points="170.92 50.45 169.77 44.48 173.57 44.48 172.36 50.45"/><polyline class="cls-11" points="172.8 52.45 177.83 55.86 175.15 58.54 171.68 53.27"/><polyline class="cls-11" points="170.52 52.45 165.49 55.86 168.17 58.54 171.68 53.27"/><polyline class="cls-11" points="172.78 50.75 177.49 46.9 179.29 50.24 173 52.17"/><polyline class="cls-11" points="170.54 50.8 165.84 46.95 164.04 50.29 170.33 52.22"/><circle class="cls-10" cx="171.68" cy="51.75" r="2.55"/><path class="cls-12" d="M208.26,47.94a.64.64,0,0,1-.13.1,2.36,2.36,0,0,0-1.29,1.79,3.32,3.32,0,0,1-1.32,2.08,2.15,2.15,0,0,1-2.55.22,1.33,1.33,0,0,0-.86-.09.56.56,0,0,0-.41.69.7.7,0,0,0,.56.66,1.36,1.36,0,0,0,.17,0c1.7,0,2.42,1.89,2.15,3.31a2.11,2.11,0,0,1-.15.56,2.75,2.75,0,0,0-.08,2.68,1.18,1.18,0,0,1-.18-.13,2.41,2.41,0,0,0-1.85-.67,5.35,5.35,0,0,1-1.79-.18,2.36,2.36,0,0,1-1.78-2.94.77.77,0,0,0-.5-.88.64.64,0,0,0-.83.3.83.83,0,0,0-.12.58,2.68,2.68,0,0,1-2.79,3.14h-.44a2.53,2.53,0,0,0-2.37.78s0,0,0-.06a2.69,2.69,0,0,0,0-2.5,3.19,3.19,0,0,1,.05-2.7,2,2,0,0,1,1.71-1.27c.34,0,.69-.08.84-.46a.64.64,0,0,0-.08-.78.74.74,0,0,0-.88-.21l-.12,0a2.45,2.45,0,0,1-3.42-.93,3.34,3.34,0,0,1-.47-1,3,3,0,0,0-1.49-2.24.71.71,0,0,1,.14,0,2.54,2.54,0,0,0,2.18-.73,3.23,3.23,0,0,1,2.91-.79,1.88,1.88,0,0,1,1.39,1,3.13,3.13,0,0,0,.3.54.78.78,0,0,0,1,.14.81.81,0,0,0,.12-1,1.43,1.43,0,0,0-.2-.23,2.14,2.14,0,0,1-.45-2.88,3.51,3.51,0,0,1,1-1.24c.81-.59,1.67-1.09,1.79-2.23a2.29,2.29,0,0,1,.09.28,2.21,2.21,0,0,0,1.19,1.61,3.46,3.46,0,0,1,1.56,1.69,2.18,2.18,0,0,1-.49,2.74,1.11,1.11,0,0,0-.35.49.73.73,0,0,0,.36.87.75.75,0,0,0,1-.27l.09-.15a2.47,2.47,0,0,1,3.4-1.22,3.35,3.35,0,0,1,.95.56A2.91,2.91,0,0,0,208.26,47.94Zm-12.77,3.3A2.54,2.54,0,1,0,198,48.7,2.53,2.53,0,0,0,195.49,51.24Z"/><path class="cls-8" d="M195.48,51.19A2.54,2.54,0,1,1,198,53.73,2.53,2.53,0,0,1,195.48,51.19Z"/><path class="cls-4" d="M182.94,44.41l-3.43-5.36s.9-2.69,3.43-2.72h0c2.53,0,3.43,2.72,3.43,2.72L183,44.41v.07l0,0,0,0Z"/><path class="cls-4" d="M183.13,34.63V25a16.73,16.73,0,0,1,1.48,5.25A9.68,9.68,0,0,1,183.13,34.63Z"/><path class="cls-4" d="M182.79,25v9.59a9.68,9.68,0,0,1-1.48-4.34A16.73,16.73,0,0,1,182.79,25Z"/><path class="cls-4" d="M180.94,35.4l-5.19-8.06a16.66,16.66,0,0,1,4.1,3.61A9.7,9.7,0,0,1,180.94,35.4Z"/><path class="cls-4" d="M175.47,27.52l5.19,8.06a9.66,9.66,0,0,1-3.6-2.84A16.74,16.74,0,0,1,175.47,27.52Z"/><path class="cls-4" d="M185.56,35.75l4.81-8.29A16.84,16.84,0,0,1,189,32.75,9.64,9.64,0,0,1,185.56,35.75Z"/><path class="cls-4" d="M190.08,27.29l-4.81,8.29a9.58,9.58,0,0,1,.89-4.49A16.54,16.54,0,0,1,190.08,27.29Z"/><path class="cls-4" d="M186.41,36.61c.17-.07,5.13-4.08,7.37,2.23S186.41,36.61,186.41,36.61Z"/><path class="cls-4" d="M179.72,36.61c-.17-.07-5.13-4.08-7.37,2.23S179.72,36.61,179.72,36.61Z"/><rect class="cls-12" x="105.83" y="17.47" width="16.75" height="70.82"/><rect class="cls-6" x="105.83" y="17.31" width="16.75" height="2.03"/><rect class="cls-12" x="122.59" y="40.95" width="22.47" height="47.34"/><rect class="cls-12" x="145.05" y="17.47" width="16.75" height="70.82"/><polygon class="cls-12" points="133.82 37.14 122.59 40.95 145.05 40.95 133.82 37.14"/><polygon class="cls-12" points="105.83 58.59 101.9 58.59 98.09 62.4 98.09 88.29 105.83 88.29 105.83 58.59"/><polygon class="cls-12" points="161.81 58.59 165.74 58.59 169.55 62.4 169.55 88.29 161.81 88.29 161.81 58.59"/><rect class="cls-6" x="145.05" y="17.31" width="16.75" height="2.03"/><rect class="cls-6" x="82.09" y="61.62" width="50.41" height="2.93" transform="translate(170.38 -44.21) rotate(90)"/><rect class="cls-6" x="108.07" y="72.71" width="52.26" height="1.47" transform="translate(268.41 146.88) rotate(180)"/><rect class="cls-6" x="107.3" y="49.64" width="52.26" height="1.47" transform="translate(266.86 100.74) rotate(180)"/><rect class="cls-6" x="108.88" y="80.99" width="10.66" height="3.94" transform="translate(197.17 -31.25) rotate(90)"/><rect class="cls-6" x="148.1" y="80.99" width="10.66" height="3.94" transform="translate(236.39 -70.47) rotate(90)"/><rect class="cls-6" x="125.31" y="80.99" width="10.66" height="3.94" transform="translate(213.61 -47.69) rotate(90)"/><rect class="cls-6" x="131.91" y="80.99" width="10.66" height="3.94" transform="translate(220.21 -54.29) rotate(90)"/><rect class="cls-6" x="105.58" y="26.64" width="10.66" height="3.94" transform="translate(139.52 -82.3) rotate(90)"/><rect class="cls-6" x="112.18" y="26.64" width="10.66" height="3.94" transform="translate(146.12 -88.9) rotate(90)"/><rect class="cls-6" x="144.8" y="26.64" width="10.66" height="3.94" transform="translate(178.74 -121.52) rotate(90)"/><rect class="cls-6" x="151.4" y="26.64" width="10.66" height="3.94" transform="translate(185.34 -128.12) rotate(90)"/><rect class="cls-6" x="95.91" y="61.62" width="50.41" height="2.93" transform="translate(184.2 -58.03) rotate(90)"/><rect class="cls-6" x="121.31" y="61.62" width="50.41" height="2.93" transform="translate(209.6 -83.43) rotate(90)"/><rect class="cls-6" x="135.13" y="61.62" width="50.41" height="2.93" transform="translate(223.42 -97.25) rotate(90)"/><polygon class="cls-6" points="107.3 17.31 114.21 9.98 121.12 17.31 107.3 17.31"/><polygon class="cls-6" points="146.52 17.31 153.43 9.98 160.34 17.31 146.52 17.31"/><circle class="cls-6" cx="133.95" cy="42.79" r="2.6"/><path class="cls-6" d="M142.74,73.44H124.47a9.14,9.14,0,0,1,18.27,0Z"/><rect class="cls-6" x="160.14" y="91.61" width="50.06" height="4.78" transform="translate(370.34 188) rotate(180)"/><rect class="cls-6" x="210.51" y="93.84" width="1.83" height="5.1" transform="translate(307.82 -115.03) rotate(90)"/><rect class="cls-6" x="184.62" y="63.28" width="1.83" height="48.95" transform="translate(273.29 -97.78) rotate(90)"/><rect class="cls-6" x="206.54" y="88.67" width="1.83" height="4.25" transform="translate(414.91 181.59) rotate(180)"/><rect class="cls-6" x="162.94" y="88.67" width="1.83" height="4.25" transform="translate(327.7 181.59) rotate(180)"/><rect class="cls-8" x="196.69" y="106.53" width="13.51" height="17.88" transform="translate(406.89 230.93) rotate(180)"/><path class="cls-8" d="M209.54,106.53h13.51a0,0,0,0,1,0,0V124.4a0,0,0,0,1,0,0H218.3a8.76,8.76,0,0,1-8.76-8.76v-9.12A0,0,0,0,1,209.54,106.53Z" transform="translate(432.59 230.93) rotate(180)"/><rect class="cls-8" x="184.26" y="105.12" width="7.42" height="17.88" transform="translate(375.93 228.11) rotate(180)"/><rect class="cls-8" x="172.44" y="105.12" width="7.42" height="17.88" transform="translate(352.29 228.11) rotate(180)"/><rect class="cls-8" x="160.14" y="105.12" width="7.42" height="17.88" transform="translate(327.7 228.11) rotate(180)"/><path class="cls-12" d="M160.14,118.56h63.34a0,0,0,0,1,0,0v5.84a0,0,0,0,1,0,0H164a3.89,3.89,0,0,1-3.89-3.89v-1.95A0,0,0,0,1,160.14,118.56Z" transform="translate(383.63 242.97) rotate(180)"/><rect class="cls-6" x="208.37" y="91.61" width="1.83" height="32.79" transform="translate(418.57 216.01) rotate(180)"/><rect class="cls-6" x="213.06" y="95.46" width="1.83" height="7.13" transform="translate(427.95 198.04) rotate(180)"/><rect class="cls-6" x="196.69" y="91.61" width="1.83" height="32.79" transform="translate(395.21 216.01) rotate(180)"/><rect class="cls-6" x="184.26" y="91.61" width="1.83" height="32.79" transform="translate(370.34 216.01) rotate(180)"/><rect class="cls-6" x="172.44" y="91.61" width="1.83" height="32.79" transform="translate(346.71 216.01) rotate(180)"/><rect class="cls-6" x="160.14" y="91.61" width="1.83" height="32.79" transform="translate(322.12 216.01) rotate(180)"/><rect class="cls-6" x="184.62" y="94.09" width="1.83" height="48.95" transform="translate(304.1 -66.97) rotate(90)"/><circle class="cls-6" cx="214.39" cy="123.34" r="6.33"/><circle class="cls-6" cx="169.81" cy="123.34" r="6.33"/><path class="cls-12" d="M104.72,86.65v15.53a29.49,29.49,0,0,0,59,0V86.65Z"/><path class="cls-6" d="M163.69,86.16h-59v18.63H131s-4.29,15.68-4.29,18.48,5.85,14,7.54,14,7.55-10.89,7.55-14-4.29-18.48-4.29-18.48h26.23Z"/><rect class="cls-10" x="126.66" y="104.79" width="15.1" height="6.93"/><rect class="cls-10" x="104.72" y="86.16" width="58.97" height="3.46"/><rect class="cls-13" x="104.72" y="89.62" width="58.97" height="3.46"/><rect class="cls-8" x="104.72" y="93.08" width="58.97" height="3.46"/><path class="cls-4" d="M128.57,97.23C130,96.33,117.34,56,90,72.28c-9.3,7.61-10.85,21.7-1,32.2,4.67,4.57,16,18.33,4,22.34-16.06,5.36.27,7.46.27,7.46,8.53-2.5,15.14-6.43,14.67-15.63-1.72-12.06-4.79-19.87,2.11-25.79C115.74,89.62,122.56,91.47,128.57,97.23Z"/><path class="cls-4" d="M77.73,95.35a9.34,9.34,0,0,1-4.36,4.43,9.36,9.36,0,0,1-.24-6.22,9.36,9.36,0,0,1,4.37-4.42A9.35,9.35,0,0,1,77.73,95.35Z"/><path class="cls-6" d="M97.38,126.9a16.56,16.56,0,0,1-.09,1.73,13,13,0,0,0,1.76-6.46A13.18,13.18,0,0,0,85.87,109a13,13,0,0,0-4.29.78A17.2,17.2,0,0,1,97.38,126.9Z"/><path class="cls-12" d="M72.69,122.17a13.14,13.14,0,0,0,24.6,6.46,16.56,16.56,0,0,0,.09-1.73,17.2,17.2,0,0,0-15.8-17.13A13.13,13.13,0,0,0,72.69,122.17Z"/><path class="cls-12" d="M67.68,136.69s1.27-4.79,5.92-5.64,20.08,1.68,20.08,1.68S91.5,137.39,67.68,136.69Z"/><path class="cls-6" d="M80.1,98.12c-3.08-3.4-9-2.35-13.83,2.54-3.81,3.87-3.41,11.14-3.16,13.55.34-3.6,1.38-7.65,4.06-10.37C71.35,99.6,76.19,97.6,80.1,98.12Z"/><path class="cls-12" d="M77.81,113.41C82.69,109,83.35,103.1,80.87,99a5.78,5.78,0,0,0-.77-.92c-3.91-.52-8.75,1.48-12.93,5.72-2.68,2.72-3.72,6.77-4.06,10.37,0,.51.1.81.1.81S72.93,117.82,77.81,113.41Z"/><path class="cls-4" d="M80.48,96.36a9.34,9.34,0,0,1-4.36,4.43,9.32,9.32,0,0,1-.24-6.21,9.35,9.35,0,0,1,4.37-4.43A9.35,9.35,0,0,1,80.48,96.36Z"/><rect class="cls-14" width="270.74" height="141.85"/></g></g></svg>