<svg xmlns="http://www.w3.org/2000/svg" xmlns:xlink="http://www.w3.org/1999/xlink" viewBox="0 0 292.03 153.01"><defs><style>.cls-1{fill:none;}.cls-2{fill:#059370;}.cls-3{fill:#f5f7d4;}.cls-4{fill:#f9bb15;}.cls-5{fill:#ea6755;}.cls-6{fill:#3a80c3;}.cls-7{fill:#0b0a0d;}.cls-8{fill:#4a82c3;}.cls-9{fill:#f9d445;}.cls-10{fill:#04223e;}.cls-11{fill:#f16e5b;}.cls-12{clip-path:url(#clip-path);}.cls-13{opacity:0.3;}.cls-14{clip-path:url(#clip-path-2);}</style><clipPath id="clip-path"><path class="cls-1" d="M154.26,142.18c-6.92,2.89-15.32,3.15-15.32,3.15H80.73s-9-.52-13.39-1.75-12.69-4.11-12.78-5.25,4.81-3.77,9.71-3.94,6.13.61,12.43,1.92,25.13,1.32,42.28,1.23a129.21,129.21,0,0,0,23.45-2.33,49.36,49.36,0,0,0,11.47-3.74,62.51,62.51,0,0,1,5.79-2.51l.12,0c1.69,0,1.2,10.42-5.55,13.24"/></clipPath><clipPath id="clip-path-2"><rect class="cls-1" x="58.71" y="134.09" width="101.53" height="11.24"/></clipPath></defs><g id="Capa_2" data-name="Capa 2"><g id="Layer_1" data-name="Layer 1"><rect class="cls-1" width="292.03" height="153.01"/><polygon class="cls-2" points="46.15 127.32 82.57 3.19 93.32 18.44 101.22 18.44 192.7 127.51 46.15 127.32"/><polygon class="cls-3" points="82.57 3.19 63.69 67.52 75.53 53.53 93.32 67.52 96.68 60.74 118.07 65.3 129.88 52.61 101.22 18.44 93.32 18.44 82.57 3.19"/><path class="cls-4" d="M80.18,101.7c.38.57,5.44,13.17,6.32,18.13s-7.56,4.35-7.56,7.68H91.77s-1.32-20.19,1.1-20.44S80.18,101.7,80.18,101.7Z"/><path class="cls-4" d="M100,101.1c.38.57,5.44,13.18,6.32,18.14s-7.56,4.34-7.56,7.67h12.83c8-9.31,18.91-43.6,1.1-20.44C111.2,108.39,100,101.1,100,101.1Z"/><path class="cls-4" d="M63.17,73.81c1.19-3.2,5.55-4.52,5.55-4.52s2.42,3.86,1.23,7-3.68,5.22-5.55,4.52S62,77,63.17,73.81Z"/><path class="cls-5" d="M105.13,80.73A42.34,42.34,0,0,0,91.8,82.82h0c-6.37,2.18-11.75-.76-16.6-6.43,0,0-16.65,1.22-19.55,3.7-3.88,3.33-1.1,13.65,0,13.37,3.7,2.86,8.71,3.18,14.28,2.4a53.32,53.32,0,0,0,10.49,13.2,25.62,25.62,0,0,0,7.81,5.41,26.11,26.11,0,0,0,6.86,2.35h0a43.18,43.18,0,0,0,10,1.15c16,0,29-8.33,29-18.62S121.12,80.73,105.13,80.73Z"/><path class="cls-5" d="M71.94,75.16c1.82-2.88,6.36-3.28,6.36-3.28s1.58,4.27-.24,7.16-4.67,4.35-6.36,3.28S70.12,78,71.94,75.16Z"/><path class="cls-5" d="M76,101.7c.38.57,5.44,13.17,6.32,18.13s-7.56,4.35-7.56,7.68H87.55s-1.32-20.19,1.1-20.44S76,101.7,76,101.7Z"/><path class="cls-5" d="M111.77,101.1c.38.57,5.44,13.18,6.32,18.14s-7.56,4.34-7.57,7.67h12.84c8-9.31,18.9-43.6,1.1-20.44C123,108.39,111.77,101.1,111.77,101.1Z"/><path class="cls-5" d="M172.38,68.83h53.35s-4.19-26.15-26.68-24.06S172.38,68.83,172.38,68.83Z"/><polygon class="cls-5" points="190.01 128.73 206.45 128.73 200.62 86.74 195.09 86.74 190.01 128.73"/><polygon class="cls-5" points="207.65 97.35 200.62 98.25 200.62 94.96 205.1 94.96 210.34 77.78 212.73 77.78 211.08 86.74 215.72 86.74 218.1 77.78 219.6 77.78 218.55 82.11 222.74 82.41 225.28 77.78 227.07 77.78 223.19 84.35 218.25 84.05 217.06 88.83 210.04 88.98 207.65 97.35"/><polygon class="cls-5" points="175.97 77.78 188.07 98.25 195.84 98.25 194.94 101.53 185.9 101.53 178.81 88.01 173.58 88.01 166.4 78.67 168.2 77.78 174.32 85.84 178.36 85.84 173.88 77.78 175.97 77.78"/><polygon class="cls-5" points="180.45 77.78 187.03 84.35 184.93 77.18 187.92 77.18 192.55 90.63 195.84 90.63 195.84 94.06 190.61 94.06 188.15 86.74 184.63 85.62 179.55 79.27 180.45 77.78"/><polygon class="cls-5" points="192.55 77.18 195.84 88.83 200.91 88.83 202.12 85.62 204.96 85.62 207.5 79.12 205.55 78.52 203.91 83.6 200.62 83.75 198.83 87.04 195.24 77.18 192.55 77.18"/><path class="cls-4" d="M157.14,80h53.34S206.3,53.87,183.81,56,157.14,80,157.14,80Z"/><path class="cls-6" d="M191.06,80.91H244.4s-4.18-26.15-26.67-24S191.06,80.91,191.06,80.91Z"/><rect class="cls-5" x="136.75" y="42.02" width="19.04" height="85.25"/><polygon class="cls-7" points="155.79 68.04 164.47 72.58 164.47 81.49 183.32 86.45 183.32 127.27 155.79 127.27 155.79 68.04"/><polygon class="cls-7" points="136.75 68.04 128.08 72.58 128.08 81.49 109.22 86.45 109.22 127.27 136.75 127.27 136.75 68.04"/><polygon class="cls-7" points="146.27 33.41 136.75 42.02 155.79 42.02 146.27 33.41"/><polygon class="cls-7" points="183.32 93.73 196.7 98.55 196.7 127.27 183.32 127.27 183.32 93.73"/><polygon class="cls-7" points="109.84 93.73 96.47 98.55 96.47 127.27 109.84 127.27 109.84 93.73"/><path class="cls-3" d="M153.93,113.27h0v-.35h0a7.65,7.65,0,0,0-15.29,0h0v14.35h15.31v-14Z"/><path class="cls-3" d="M153.93,86.17h0v-.35h0a7.65,7.65,0,0,0-15.29,0h0v14.35h15.31v-14Z"/><path class="cls-4" d="M145.59,88.34h0V88h0c-.06-3.43-1.1-6.16-2.38-6.16s-2.32,2.73-2.37,6.16h0v12.15h4.76V88.34Z"/><path class="cls-4" d="M151.72,88.34h0V88h0c-.06-3.43-1.1-6.16-2.37-6.16S147,84.61,147,88h0v12.15h4.76V88.34Z"/><path class="cls-3" d="M177.44,115.78h0v-.29h0a6.28,6.28,0,0,0-12.55,0h0v11.78h12.55V115.78Z"/><path class="cls-3" d="M126.85,115.78h0v-.29h0a6.28,6.28,0,0,0-12.55,0h0v11.78h12.56V115.78Z"/><rect class="cls-4" x="139.65" y="43.91" width="13.54" height="11.87"/><rect class="cls-4" x="139.65" y="56.98" width="5.88" height="11.87"/><rect class="cls-4" x="147.31" y="56.98" width="5.88" height="11.87"/><rect class="cls-8" x="136.75" y="100.17" width="19.04" height="2.52"/><rect class="cls-8" x="136.9" y="72.43" width="19.04" height="2.52"/><rect class="cls-8" x="155.86" y="93.73" width="27.38" height="2.52"/><rect class="cls-8" x="109.3" y="93.73" width="27.38" height="2.52"/><rect class="cls-8" x="88.51" y="104.94" width="42.41" height="2.25" transform="translate(215.78 -3.66) rotate(90)"/><rect class="cls-8" x="161.28" y="104.94" width="42.41" height="2.25" transform="translate(288.54 -76.42) rotate(90)"/><path class="cls-3" d="M66.41,26.86a1.93,1.93,0,0,0-1.77-1.14h0a2.19,2.19,0,0,1-1.69-.66,2.71,2.71,0,0,0-2.06-.94l-.3,0a2.49,2.49,0,0,1-2.09-.73,3.64,3.64,0,0,0-2.63-1.12,5.58,5.58,0,0,0-5.75,4.57Z"/><path class="cls-3" d="M77.86,52a3.36,3.36,0,0,0-3.06-2h0a3.79,3.79,0,0,1-2.93-1.15,4.77,4.77,0,0,0-3.59-1.63,4.36,4.36,0,0,0-.51,0,4.32,4.32,0,0,1-3.64-1.25,6.34,6.34,0,0,0-4.57-2c-3.39,0-8.92,1.71-10,7.93Z"/><path class="cls-3" d="M131.14,26.86a1.92,1.92,0,0,0-1.76-1.14h0a2.19,2.19,0,0,1-1.69-.66,2.71,2.71,0,0,0-2.06-.94l-.3,0a2.49,2.49,0,0,1-2.09-.73,3.62,3.62,0,0,0-2.63-1.12,5.58,5.58,0,0,0-5.75,4.57Z"/><path class="cls-6" d="M222.52,127.27l4.7.24H46.15v4.84c0,3.46,3.23,6.26,7.22,6.26H71.18c3,0,5.43,2.11,5.43,4.71h0c0,2.67,2.51,4.84,5.59,4.84h82.5c6,0,10.78-4.18,10.78-9.34v-1.11h40.15c6.18,0,11.27-4.21,11.56-9.56l0-.64"/><path class="cls-4" d="M232.75,108.34c.89,3.06-.22,6.38-2.69,9.88l1.35,6.8h-3l-1.86-12.74Z"/><path class="cls-4" d="M215.06,108.34c.89,3.06-.23,6.38-2.69,9.88l1.34,6.8h-3l-1.87-12.74Z"/><path class="cls-2" d="M236.69,98.1a53.93,53.93,0,0,1-18.34,3.52c-6-.75-10.63-.18-13.47,2.28-2.76,3.38-1.94,7.84,0,12.64v9.12H209l-.73-6.7a8.32,8.32,0,0,0,3.84-4.49,15.94,15.94,0,0,0,9.43,1.14c0,2.64.8,4.09,1.86,5.07l.52,5h3l-1-4.66a6.14,6.14,0,0,0,2-4.25C236.1,112.55,236.61,105.4,236.69,98.1Z"/><ellipse class="cls-4" cx="236.8" cy="101.72" rx="6.01" ry="7.36"/><rect class="cls-5" x="231.1" y="105.11" width="11.19" height="5.7" rx="2.55" transform="translate(473.38 215.91) rotate(-180)"/><path class="cls-4" d="M241.68,90.3a7.38,7.38,0,0,1-.48,6.82c-2.11,3.75-3-1.72-3-1.72S241,94.8,241.68,90.3Z"/><path class="cls-4" d="M232.34,90.3a7.42,7.42,0,0,0,.48,6.82c2.12,3.75,3-1.72,3-1.72S233,94.8,232.34,90.3Z"/><rect class="cls-4" x="228.55" y="125.02" width="2.65" height="2.65" transform="translate(459.76 252.69) rotate(-180)"/><rect class="cls-4" x="224.02" y="125.66" width="2.65" height="2.65" transform="translate(450.69 253.96) rotate(-180)"/><rect class="cls-4" x="205.51" y="125.66" width="2.65" height="2.65" transform="translate(413.66 253.96) rotate(-180)"/><rect class="cls-4" x="210.78" y="125.02" width="2.65" height="2.65" transform="translate(424.21 252.69) rotate(-180)"/><path class="cls-4" d="M243.87,97.15c-1.65-1.13-3.44-1.39-4-.59s.35,2.37,2,3.5a5.73,5.73,0,0,0,4,.58A5.66,5.66,0,0,0,243.87,97.15Z"/><path class="cls-4" d="M229.72,97.15c1.65-1.13,3.44-1.39,4-.59s-.35,2.37-2,3.5a5.73,5.73,0,0,1-4,.58A5.66,5.66,0,0,1,229.72,97.15Z"/><path class="cls-9" d="M125.28,119.23a8.35,8.35,0,0,1,.5,1.41c-.13-.11-1.17.47-1.17.47s-.08,1.51-.57,1.71a3.88,3.88,0,0,1-1.73-.24s-.65,1.08-.79,1.07-1.73-.94-1.73-.94l.57-1.75a4.55,4.55,0,0,1-1.16-1.47,1.34,1.34,0,0,1,.15-1.17,5.12,5.12,0,0,1,2.93-1.23c2-.26,2.59.78,2.59.78Z"/><path class="cls-10" d="M119.2,119.49a1.34,1.34,0,0,1,.15-1.17,5.16,5.16,0,0,1,2.86-1.22l.24.24.18.68-.15.74s.07.86-.19.65-.88-1.44-1.31-.77a1.38,1.38,0,0,0,0,1.7,1.09,1.09,0,0,0,.5.23,2.57,2.57,0,0,1-1.27.87l.15-.48a4.55,4.55,0,0,1-1.16-1.47"/><path class="cls-10" d="M120.21,121.57a.15.15,0,0,1-.1,0,.16.16,0,0,1,0-.13l.13-.4a4.42,4.42,0,0,1-1.13-1.47,1.46,1.46,0,0,1,.17-1.3,5.22,5.22,0,0,1,3-1.25.1.1,0,0,1,.1,0l.25.24,0,.06.18.68v.06l-.15.72c0,.31,0,.69-.16.78a.23.23,0,0,1-.25,0,2.2,2.2,0,0,1-.28-.33c-.18-.24-.46-.61-.65-.61h0c-.06,0-.12.05-.18.14a1.29,1.29,0,0,0,0,1.53,1.16,1.16,0,0,0,.44.21.12.12,0,0,1,.11.07.12.12,0,0,1,0,.13,2.62,2.62,0,0,1-1.35.92h0m1-.93a2.07,2.07,0,0,1-.34-.19,1.5,1.5,0,0,1,0-1.88.49.49,0,0,1,.38-.26c.34,0,.64.39.88.71a2.13,2.13,0,0,0,.21.26,2,2,0,0,0,0-.51v0l.15-.72-.16-.61-.17-.17a5.1,5.1,0,0,0-2.72,1.16,1.18,1.18,0,0,0-.12,1,4.5,4.5,0,0,0,1.11,1.41.11.11,0,0,1,0,.14l-.08.25a2.55,2.55,0,0,0,.85-.61"/><path class="cls-9" d="M131.38,131.45s2.82-2.09,3.34-2,6.74,9,6.74,9l-1.35.41s-4.15-3.74-5-4.66l-1-1.17-2.33,1.85L130.68,132Z"/><path class="cls-10" d="M122.84,139.56a4.32,4.32,0,0,1-1.21-.16,3.69,3.69,0,0,1-2.89-2.93c-.2-1.21,6.13-2.66,7.45-2.95l5.19-2.88a.11.11,0,0,1,.11,0,.11.11,0,0,1,.07.08l1.91,5.69a.14.14,0,0,1-.08.16s-2.27.77-4.62,1.52q-.56.16-1.11.36a16.77,16.77,0,0,1-4.82,1.12m8.53-8.62-5.07,2.81h0c-3.09.68-7.39,2-7.27,2.66a3.38,3.38,0,0,0,2.7,2.73c1.57.48,3.76-.25,5.88-1l1.11-.37c2-.64,4-1.3,4.49-1.47Z"/><path class="cls-11" d="M153.9,131.47a49.36,49.36,0,0,1-11.47,3.74A129.21,129.21,0,0,1,119,137.54c-17.15.09-36,.09-42.28-1.23s-7.52-2.1-12.43-1.92-9.8,2.8-9.71,3.94,8.4,4,12.78,5.25,13.39,1.75,13.39,1.75h58.21s8.4-.26,15.32-3.15,7.27-13.74,5.43-13.22a62.51,62.51,0,0,0-5.79,2.51"/><g class="cls-12"><g class="cls-13"><g class="cls-14"><path class="cls-10" d="M76.7,141.46c6.31,1.32,25.13,1.32,42.28,1.23a130.12,130.12,0,0,0,23.45-2.33,49.36,49.36,0,0,0,11.47-3.74,62.51,62.51,0,0,1,5.79-2.51.49.49,0,0,1,.55.26c-.74,3-2.55,6.38-6,7.81-6.92,2.89-15.32,3.15-15.32,3.15H80.73s-9-.52-13.39-1.75c-2.37-.66-5.89-1.81-8.63-2.91a18.5,18.5,0,0,1,5.56-1.13c4.91-.18,6.13.61,12.43,1.92"/></g></g></g><rect class="cls-10" x="116.92" y="131.44" width="24.98" height="0.53" transform="matrix(0.39, -0.92, 0.92, 0.39, -42.28, 199.62)"/><path class="cls-4" d="M125.17,140.63l.42.17a.65.65,0,0,1,.35.86,58.7,58.7,0,0,0-2.27,5.74,8.22,8.22,0,0,1-.91,2.42l-3.31-.26s1.5-2.38,2.82-4.66c.91-1.58,1.68-3.15,2.07-4a.63.63,0,0,1,.83-.32"/><path class="cls-9" d="M119.91,133.74c-1.25-.35-2.25-.64-2.42-.72-.5-.23-1.71-.51-1.76-1a56.67,56.67,0,0,1,2.44-6.76,1.69,1.69,0,0,1,1-.82s1.86,1.62,1.79,2.42a29.14,29.14,0,0,1-1.67,4.26l1.61.84-1,1.77"/><path class="cls-9" d="M125.28,128.12c1.55.46,3.77,1.1,3.83,1.11s1.35-1.21,1.63-1.22,1.27,1,1.25,1.21a2.64,2.64,0,0,1-.82,1.18,1,1,0,0,1-.56,0s-.36-.69-.47-.52a3.22,3.22,0,0,0-.25.43,2.06,2.06,0,0,1-.57-.22l-.26-.16-3.13-.23c-.18-.49-.41-1-.65-1.57"/><path class="cls-11" d="M119.79,122.71l-.79,2-.67,8.23.46,3.74,7-2.31,1.71-.79-2.5-6.07a8.24,8.24,0,0,0-3.49-3.88C119,122.32,119.79,122.71,119.79,122.71Z"/><path class="cls-10" d="M126.24,133.64l5.2-2.89,1.9,5.69s-2.23.76-4.61,1.51-5.17,1.9-7.06,1.32a3.5,3.5,0,0,1-2.8-2.83c-.19-1.15,7.37-2.8,7.37-2.8"/><path class="cls-9" d="M119.13,124.45s1.86,1.62,1.79,2.42a29.14,29.14,0,0,1-1.67,4.26l6.76,3.53a13,13,0,0,1,2.34-.85,4.36,4.36,0,0,1,1.08,1.88c0,.29-.31.36-.55.38s-.36-.21-.64-.33-.33,0-.76.08a3,3,0,0,1-1.66-.47s-7.83-2.1-8.33-2.33-1.71-.52-1.76-1a56.67,56.67,0,0,1,2.44-6.76,1.69,1.69,0,0,1,1-.82"/><path class="cls-10" d="M122.68,117.68a2.15,2.15,0,0,1,2.19.19,2.3,2.3,0,0,1,.41.51,3.65,3.65,0,0,0-.44-.9s0-.56.44,0a2.76,2.76,0,0,0-2.6-1.68,6.82,6.82,0,0,0-3.17.89,4.92,4.92,0,0,0-.51,2.56c.19,1.19,1.92-1.18,1.92-1.18Z"/><path class="cls-10" d="M119.55,117s-1.61-.65-2.27-.09-2.1,3.71-2.69,5.27a1.79,1.79,0,0,0,1.34,2.66c1.11.28,2.14.51,2.39-1.5s.27-4.48.42-5.17,1-1,1-1Z"/><path class="cls-10" d="M117,125.16a4.52,4.52,0,0,1-1.09-.18,1.92,1.92,0,0,1-1.43-2.84c.61-1.59,2-4.74,2.73-5.32s2.33,0,2.39.07l0,0,.23.16a.17.17,0,0,1,.05.12.12.12,0,0,1-.09.1s-.81.3-.94.91a18,18,0,0,0-.16,1.89c0,1-.12,2.2-.26,3.27a2.15,2.15,0,0,1-.72,1.6,1.29,1.29,0,0,1-.74.2m2.49-8c-.43-.18-1.63-.52-2.11-.11-.64.54-2.08,3.69-2.66,5.22a1.91,1.91,0,0,0,0,1.6,1.94,1.94,0,0,0,1.29.89,2.11,2.11,0,0,0,1.62,0,2,2,0,0,0,.62-1.42c.13-1.07.2-2.28.26-3.25a13.86,13.86,0,0,1,.16-1.93,1.6,1.6,0,0,1,.89-1Z"/></g></g></svg>