<svg xmlns="http://www.w3.org/2000/svg" viewBox="0 0 335.82 175.95"><defs><style>.cls-1,.cls-13,.cls-17,.cls-23,.cls-7{fill:none;}.cls-1{stroke:#163140;stroke-width:1.98px;}.cls-1,.cls-13,.cls-17,.cls-7{stroke-miterlimit:10;}.cls-2{fill:#ec6755;}.cls-3{fill:#f9bb15;}.cls-4{fill:#524429;}.cls-5{fill:#0b0a0d;}.cls-6{fill:#059370;}.cls-7{stroke:#059370;stroke-width:8.5px;}.cls-17,.cls-7{stroke-linecap:round;}.cls-8{fill:#1d180e;}.cls-9{fill:#f5f7d4;}.cls-10{fill:#002735;}.cls-11{fill:#4a82c3;}.cls-12{fill:#ed705c;}.cls-13{stroke:#f2f4d3;stroke-width:0.44px;}.cls-14{fill:#f6cf44;}.cls-15{fill:#f1695b;}.cls-16{fill:#605c91;}.cls-17{stroke:#f6cf44;stroke-width:0.39px;}.cls-18{fill:#43342b;}.cls-19{fill:#fcc49d;}.cls-20{fill:#023c4c;}.cls-21{fill:#282322;}.cls-22{fill:#1a1818;}</style></defs><g id="Capa_2" data-name="Capa 2"><g id="Layer_1" data-name="Layer 1"><line class="cls-1" x1="221.09" y1="26.18" x2="221.19" y2="113.66"/><path class="cls-2" d="M222.09,30.28s5.13,8.43,3.93,16.61c0,0-.77,2.28-1.66,4.27,0,0,9.07-3.48,7.19-12.16a12.57,12.57,0,0,0-6.1-8.34s7.36,1.23,8.32,11.66a24.92,24.92,0,0,1,.85,5s5.85-6,2.63-13.35c0,0-1.66-4.74-11.11-6,0,0,10.62-1.17,18.22,6.32,0,0,2.1-6.58-6-10.57,0,0-5.5-1.21-9.33.22,0,0,6.36-3.72,11.3-1.68,0,0-4.48-9.8-13-3.64A46.13,46.13,0,0,1,222.39,25s4.39-13.37,14.46-13.41a9.1,9.1,0,0,0-10.13-1s-4.73,3.15-6.11,14.18c0,0-1.05-10.81-8.82-11.85,0,0-7.12-1.84-9.33,4.43,0,0,9.44-3.48,14.87,5.33,0,0-12.77-12.58-22.42,2.6l-1,4.06s14.7-7.72,24.49-.74c0,0-18.42-5.54-17.6,9.15a11,11,0,0,0,1.57,6.46s5.27-13.67,14.94-13.12c0,0-12.28,2.7-2.56,18,0,0,3.44-14.21,5.63-18Z"/><polygon class="cls-3" points="156.3 58.13 182.39 30.94 208.48 58.13 156.3 58.13"/><rect class="cls-4" x="160.33" y="58.41" width="44.12" height="21.3"/><rect class="cls-3" x="160.33" y="71.06" width="44.12" height="8.61"/><rect class="cls-5" x="163.7" y="61.41" width="6.4" height="9.62"/><rect class="cls-5" x="171.85" y="61.41" width="6.4" height="9.62"/><rect class="cls-5" x="186.53" y="61.57" width="6.4" height="9.62"/><rect class="cls-5" x="194.68" y="61.57" width="6.4" height="9.62"/><polygon class="cls-6" points="109.38 120.99 152.93 75.78 208.48 75.78 255.4 120.99 109.38 120.99"/><path class="cls-6" d="M134.54,95s-2.14-15.57,9.77-26.12-9.36-17-9.36-17S123.21,76.36,132.15,95Z"/><path class="cls-6" d="M93.86,96.46c.54-2.95,7.23-15.12,7.23-15.12L94.66,65.68l10.18-5s4.14,17.8,4,20.34S104.57,93.65,95.74,97.8Z"/><path class="cls-6" d="M106.34,95.79c.53-3,7.22-15.12,7.22-15.12L107.14,65l10.17-5s4.15,17.8,4,20.34S117,93,108.21,97.13Z"/><path class="cls-6" d="M152.21,47.34c-.58-.31-18.17-11-57.55,18.34,9.77,29.84,42.83-4,42.83-4Z"/><path class="cls-2" d="M97.59,47.44c2.81,0,4.66,5,4.66,5s1.86-5,4.67-5,11.13,10,11.13,10a15.8,15.8,0,0,1-31.6,0S94.78,47.44,97.59,47.44Z"/><path class="cls-3" d="M102.25,41.68a15.8,15.8,0,0,1,15.8,15.8s-8.33-10-11.13-10-4.67,5-4.67,5-1.85-5-4.66-5-11.14,10-11.14,10A15.81,15.81,0,0,1,102.25,41.68Z"/><path class="cls-6" d="M151.41,94.32,138.69,75.66s-7.22-31.37,3.75-32.06c9.77,1,9.77,7.74,9.77,7.74.27,6-1.06,14.49-4.42,26.1l7.76,16.88Z"/><path class="cls-7" d="M144.32,51.87s14.31-7.1,14.31-16.33-33.45-3.35-33.45-12.71S142.35,9,142.35,9"/><path class="cls-6" d="M157.7,98.33s.53-4.68-3.89-4.68-9.1,2-9.1,4.68Z"/><path class="cls-6" d="M138.34,98.33s.54-4.68-3.88-4.68-9.1,2-9.1,4.68Z"/><path class="cls-6" d="M109.7,98.33s.54-4.68-3.88-4.68-9.1,2-9.1,4.68Z"/><path class="cls-6" d="M99.44,98.33s.53-4.68-3.89-4.68-9.1,2-9.1,4.68Z"/><path class="cls-2" d="M113.54,54.79s3.66-8.33,7-4.62c6.13,6.76-3.45,18.88-7,14.73Z"/><path class="cls-2" d="M91,54.79s-3.66-8.33-7-4.62c-6.13,6.76,3.45,18.88,7,14.73Z"/><path class="cls-3" d="M95.09,66.63a5.6,5.6,0,0,1,5-5.9s0,2.2,1,2.2,1.17-.39,1.17-.39.16.39,1.18.39,1-2.2,1-2.2a5.61,5.61,0,0,1,5,5.9,5.33,5.33,0,0,1-.17,1.31h-14A5.33,5.33,0,0,1,95.09,66.63Z"/><path class="cls-6" d="M102.25,72.08s-5.93,0-7-4.14h14C108.19,72.07,102.25,72.08,102.25,72.08Z"/><circle class="cls-8" cx="106.92" cy="55.25" r="2.81"/><circle class="cls-8" cx="97.54" cy="55.25" r="2.81"/><polygon class="cls-9" points="185.7 6.2 160.84 20.43 169.02 168.62 174.51 168.62 185.7 6.2"/><polygon class="cls-3" points="178.03 117.57 187.66 12.33 185.7 6.2 178.03 117.57"/><polygon class="cls-2" points="134.53 168.62 171.54 168.62 170.43 23.74 160.84 20.43 127.9 9.07 134.53 168.62"/><polygon class="cls-10" points="146.78 29.54 145.78 57.65 165.26 57.65 165.26 43.12 165.26 29.54 146.78 29.54"/><polygon class="cls-6" points="146.78 29.54 154.61 45.94 165.26 43.12 165.26 29.54 146.78 29.54"/><polygon class="cls-3" points="154.61 45.94 154.61 57.65 145.78 57.65 146.78 29.54 154.61 45.94"/><polyline class="cls-6" points="170.43 23.74 171.54 128.19 173.27 29 170.43 23.74"/><rect class="cls-3" x="66.27" y="112.97" width="31.33" height="45.4" rx="8.93"/><rect class="cls-3" x="127.15" y="112.97" width="31.33" height="45.4" rx="8.93"/><rect class="cls-11" x="84.7" y="98.33" width="55.36" height="70.96" rx="11.24"/><circle class="cls-3" cx="99.06" cy="120.88" r="8.55"/><circle class="cls-10" cx="99.06" cy="120.88" r="4.96"/><circle class="cls-3" cx="126.1" cy="120.88" r="8.55"/><circle class="cls-10" cx="126.1" cy="120.88" r="4.96"/><path class="cls-3" d="M85.71,139.86h53.53a0,0,0,0,1,0,0v0A23.65,23.65,0,0,1,115.6,163.5h-6.24a23.65,23.65,0,0,1-23.65-23.65v0A0,0,0,0,1,85.71,139.86Z"/><path class="cls-10" d="M90.19,142.95h44.57a0,0,0,0,1,0,0v0a17.47,17.47,0,0,1-17.47,17.47h-9.64a17.47,17.47,0,0,1-17.47-17.47v0A0,0,0,0,1,90.19,142.95Z"/><rect class="cls-2" x="108.17" y="109.76" width="9.38" height="46.62" rx="4.69"/><path class="cls-12" d="M224.33,106.91s-1.47-7.85.35-9.46a37.64,37.64,0,0,1,6.14-3.72Z"/><path class="cls-9" d="M224.32,106.89s7-3.48,7.21-5.94a38.79,38.79,0,0,0-.74-7.25Z"/><path class="cls-12" d="M223,107.66s-5.94-5.4-8.29-4.73a37.7,37.7,0,0,0-6.44,3.17Z"/><path class="cls-9" d="M223,107.64s-6.71,4-8.91,2.9a40,40,0,0,1-5.82-4.48Z"/><path class="cls-9" d="M224.33,106.91s8.38-4.59,10,5.25c-3,3.35-5.93,1.5-6.14,1.12Z"/><path class="cls-9" d="M222.76,107.77s-8.38,4.59-.83,11.2c4.48-.77,4.43-4.18,4.22-4.55Z"/><line class="cls-13" x1="221.01" y1="103.57" x2="217.01" y2="101.24"/><line class="cls-13" x1="221.59" y1="103.25" x2="222.04" y2="98.59"/><path class="cls-9" d="M226.61,112.83h0a.89.89,0,0,1-1.21-.35L220.66,104a.88.88,0,0,1,.35-1.2h0a.9.9,0,0,1,1.22.35l4.73,8.47A.87.87,0,0,1,226.61,112.83Z"/><path class="cls-14" d="M226.63,148.12l-2.3,4a4.55,4.55,0,0,1-8.38-1.26"/><path class="cls-15" d="M216,150.83a4.56,4.56,0,0,1,6.72-5l.36.17,3.6,2.08"/><path class="cls-14" d="M229.42,149.73l-2,4.13a4.55,4.55,0,0,0,5.73,6.24"/><path class="cls-16" d="M233.15,160.1a4.55,4.55,0,0,0,.35-8.34l-.33-.21-3.75-1.82"/><polyline class="cls-17" points="228.36 147.16 234.37 136.76 232.69 131.88"/><polyline class="cls-17" points="229.38 147.75 235.39 137.35 240.45 136.37"/><path class="cls-16" d="M229.79,140.88a41.21,41.21,0,0,0-3.2,7.23,29.35,29.35,0,0,0-1.14,5.51,25.44,25.44,0,0,0,4-3.89,50.6,50.6,0,0,0,4.21-6.61Z"/><path class="cls-14" d="M220,123.54l6.58,24.61s-10.18-3.75-11.8-9.79S220.12,123.61,220,123.54Z"/><path class="cls-16" d="M226.61,148.16,220,123.55s10.19,3.75,11.8,9.79S226.5,148.1,226.61,148.16Z"/><path class="cls-14" d="M254,143.18l-24.61,6.58s8.34,7,14.38,5.34S253.9,143.12,254,143.18Z"/><path class="cls-15" d="M229.39,149.76l24.6-6.58s-8.33-7-14.37-5.34S229.49,149.83,229.39,149.76Z"/><path class="cls-18" d="M190.48,103.31c-.58-.47-5,1.48-5,2.16s-3.1,7.29-3.1,7.29L177,108.39h0c-.05-.16-.56-1.85-.59-2.16s-1-.87-1.38-.79.37.62.42.72c.14.27-.4.37-.4.37s-1.58-.87-1.61-1.38-.36-1.58-.7-1.35c-.18.11-.18.87-.12,1.23-.1-.41-.25-.87-.39-.92s-.38.25-.33.41.46,1.89.58,2.09,2.67,2.24,3,2.69c0,0,7.05,8.09,7.55,8.31s2-2.61,3.5-4.46S192.27,104.77,190.48,103.31Z"/><path class="cls-19" d="M204.71,162.81s1,.95,1,1.29.09,4.08-.31,4.43-1.55.6-1.18,1,2.45.23,3.89.15c.43,0,1-3.39,1.12-3.88.24-.72.83-2.34.61-2.84a4.32,4.32,0,0,0-1.34-1.21,6.6,6.6,0,0,1-1.49-1.59Z"/><path class="cls-19" d="M194.67,165l.87,2.46c.06.39.32,1.35.32,1.71,0,1.33-6-1.13-4.64-1.72a1.42,1.42,0,0,0,.54-.93,3.18,3.18,0,0,0-.5-1.58Z"/><path class="cls-20" d="M185.29,119.23s-.44,4.4-.44,4.47c0,7.13-1.41,21.06-1.14,22.4.66,3.27,7.69,20,7.69,20l3.8-.45-4.95-20,1.82-8,2.58-15.89Z"/><path class="cls-10" d="M198.05,123.13l.72,4.17,1.95,17.2,7.44,16.81s-1,2.44-2.59,2.78l-11.83-17.25-7.35-22.08.26-4.9Z"/><path class="cls-2" d="M186.36,102.42c-.11.77-2.13,21.57-2.13,21.57,9.59,4.65,14.89.83,14.89.83s-.31-14.61.06-16.6c.25-1.31.56-10-.29-10.3a21.43,21.43,0,0,0-3.7-.79,35.63,35.63,0,0,0-6.49.08A10.38,10.38,0,0,0,186.36,102.42Z"/><path class="cls-9" d="M208.44,161.72s-2.23,6.31-3.11,6.61c-.23.08-1.34.29-1.56.78a2.29,2.29,0,0,0,0,.65h4.66s.59-2.78.82-4a18,18,0,0,0,1.1-3.26A7.19,7.19,0,0,0,208.44,161.72Z"/><path class="cls-9" d="M196.2,169.63l-.69-2.17a6,6,0,0,1-2.15.51c-.72-.11-2.13-.51-2.13-.51-2.87.95-5.22,1.41-4.79,2.17h9.76Z"/><path class="cls-18" d="M183,117.61l-.14-.11c.17-2,.14-4-.5-4.68,0,0,.15-.33.3-.64.74.57,1.09,2.1.95,4.57,0,.17-.06.3-.09.51C183.33,117.5,183.14,117.65,183,117.61Z"/><path class="cls-18" d="M208.63,124.21a.57.57,0,0,0,0-.13c-.14-1.44-1.33-13.54-1.53-14.06s-5.53-8.13-5.53-8.13l-2.63,3.59,5.14,6.88c.12.44,2,8.61,2,8.61s.38,1.48.55,2.38c-.07.21-.15.41-.22.58a5.09,5.09,0,0,1-.55.89,6.41,6.41,0,0,0-.66,1.17l-.21.91c-.05.26-.13.57-.14.71a1.54,1.54,0,0,1-.17.39.23.23,0,0,0,.27.33c.19-.06.34-.31.43-.46.25-.43.38-1.2.45-1.16s.28,1.36.32,1.51a15.31,15.31,0,0,0,.45,2c.15.29.35.24.4.06s-.17-2.3-.17-2.3,0-.27.1-.18.31,2,.39,2.32.28.43.44.2a8.85,8.85,0,0,0-.14-2.34s0-.26.07-.24.25,1.69.34,1.83a.21.21,0,0,0,.4,0,9.76,9.76,0,0,0-.19-2.13s0-.15.08-.1.29,1.46.43,1.59a.15.15,0,0,0,.22,0c.27-.18-.14-1.52-.13-2.18a16.27,16.27,0,0,1-.21-2.21S208.62,124.29,208.63,124.21Z"/><path class="cls-18" d="M194.86,92.63l.68,4.52s-2.5,5.38-4,4.91c-1.24-.39-.48-5.15-.48-5.15a13.15,13.15,0,0,0,.48-3.83C191.35,91.8,194.86,92.63,194.86,92.63Z"/><path class="cls-21" d="M191.55,93.08c-.2-1.28,3.31-.45,3.31-.45l0,.38a2.16,2.16,0,0,1-.38.63A4.64,4.64,0,0,1,191.46,95,7,7,0,0,0,191.55,93.08Z"/><path class="cls-18" d="M195.43,86.24c.1,0,.8,5.15-.52,6.57s-3.9,1.9-4.82.77-1-6.81,1.08-8.27S195.43,86.24,195.43,86.24Z"/><path class="cls-22" d="M192,82.53a5.72,5.72,0,0,1,3,1.72c.72.08,1.7.48,2.71,2.16a4.23,4.23,0,0,1-1.12,5.48,3.27,3.27,0,0,0-1.43,2.42l-.23-.67a3.7,3.7,0,0,1-.18-1.58,3,3,0,0,1,.23-1c.35-.75-.75-1.25-1.05-1.88s-.25-1.57-.62-2.37l-.45-.61a2.82,2.82,0,0,0-2-.57C189.77,85.91,189.92,82.12,192,82.53Z"/><path class="cls-18" d="M194,90.16c0,.63.27,1.15.64,1.15s.66-.5.67-1.13S195,89,194.62,89,194,89.52,194,90.16Z"/><path class="cls-3" d="M184.23,124l-2.52,23.41L182.92,169s27.32,0,32.91-4.95L201.46,144l-2.34-19.21A16.55,16.55,0,0,1,184.23,124Z"/><path class="cls-3" d="M189.71,88l2.38-2.19,1.79,3.38,2.66,2.66s5.33-4,2.91-7.72-7.61-4.62-7.61-4.62S188.34,79.16,189.71,88Z"/><path class="cls-6" d="M190.52,98.15s-7.06-.7-12.61,7.95c0,0,4,0,4.49,2s2.88,1.23,4.17.44,2.79-.88,5.34,1.59,3.14.79,4.44-.71a3.72,3.72,0,0,1,5-1.06c2.28,1.06,4.43,1.09,3.7-.44s.12-2.3,1.72-1.77c1.08.35-3.67-8.8-10.63-7.65C196.14,98.45,189.66,107.28,190.52,98.15Z"/><path class="cls-2" d="M190.65,96.79s-7.07-.71-12.62,7.94c0,0,4,0,4.5,2s2.87,1.23,4.17.44,2.79-.88,5.34,1.58,3.14.8,4.43-.7a3.72,3.72,0,0,1,5-1.06c2.28,1.06,4.43,1.08,3.7-.45s.12-2.29,1.71-1.77c1.08.35-3.67-8.79-10.62-7.64C196.27,97.09,189.78,105.91,190.65,96.79Z"/><polygon class="cls-16" points="249.33 123.99 258.66 117.61 269.54 126.3 267.06 129.55 250.73 129.55 245.76 129.55 249.33 123.99"/><polygon class="cls-3" points="236.07 128.19 244.2 123.55 252.91 126.3 252.91 129.55 236.07 129.55 236.07 128.19"/><rect class="cls-23" width="335.82" height="175.95"/></g></g></svg>