<svg xmlns="http://www.w3.org/2000/svg" viewBox="0 0 333.73 174.86"><defs><style>.cls-1{isolation:isolate;}.cls-2{fill:none;}.cls-3{fill:#f9bb15;}.cls-4{fill:#f5f7d4;}.cls-5{fill:#00b1d6;}.cls-6{fill:#059370;}.cls-7{fill:#231f20;}.cls-8{fill:#ec6755;}.cls-9{fill:#002735;}.cls-10{fill:#ea6755;}.cls-11{fill:#fcc39c;}.cls-12{fill:#f8a79f;}.cls-13,.cls-14{fill:#4a82c3;}.cls-14{opacity:0.2;mix-blend-mode:multiply;}.cls-15{fill:#f1695b;}</style></defs><g class="cls-1"><g id="Capa_2" data-name="Capa 2"><g id="Layer_1" data-name="Layer 1"><rect class="cls-2" width="333.73" height="174.86"/><polygon class="cls-3" points="235.04 24.14 232.84 24.14 230.64 24.14 226.74 126.32 232.84 126.32 238.94 126.32 235.04 24.14"/><path class="cls-3" d="M260.27,26c-10.54-6.38-23.09-6-28.08.74l38.23,23.15C275.34,43.09,270.8,32.41,260.27,26Z"/><path class="cls-3" d="M257.9,14.08c-12.51-1.68-23.71,3.49-25.06,11.57l45.4,6.1C279.5,23.66,270.41,15.76,257.9,14.08Z"/><path class="cls-3" d="M247.47,4.2c-11.71,4.36-18.46,14-15.12,21.6L274.84,10C271.41,2.43,259.18-.16,247.47,4.2Z"/><path class="cls-3" d="M205,26.15c10.53-6.38,23.08-6,28.08.73L194.8,50C189.89,43.2,194.42,32.52,205,26.15Z"/><path class="cls-3" d="M207.32,14.19c12.51-1.68,23.71,3.5,25.06,11.57L187,31.86C185.72,23.77,194.81,15.87,207.32,14.19Z"/><path class="cls-3" d="M217.75,4.32c11.71,4.36,18.46,14,15.12,21.59L190.38,10.08C193.81,2.54,206.05,0,217.75,4.32Z"/><polygon class="cls-4" points="67.83 58.63 98 55.14 98 52.9 111.47 50.4 119.7 36.19 123.18 36.19 123.18 28.95 127.79 28.95 127.79 35.6 143.4 35.6 145.16 29.77 148.29 23.93 148.29 20.02 153.72 20.02 153.72 25.36 156.84 32.35 187.92 32.35 187.92 36.83 195.66 36.83 200.41 46.6 223.33 46.6 229.7 64.2 243.59 70.69 258.28 153.69 70.51 152.35 67.83 58.63"/><rect class="cls-5" x="192.05" y="58.62" width="24.85" height="19.49"/><polygon class="cls-5" points="200.24 25.01 195.3 53.96 213.66 53.96 206.46 25.01 200.24 25.01"/><path class="cls-6" d="M195.72,47.75c-.42.28-4.23,10.87-4.23,10.87h25.7L212,46.9l-3.39,6.49-4.66-6.49-3.53,5.86Z"/><path class="cls-4" d="M209.07,68.78h0v-.21h0a4.6,4.6,0,0,0-9.18,0h0v8.61h9.18v-8.4Z"/><polygon class="cls-6" points="225.88 77.23 225.88 104.88 182.82 104.88 182.82 77.23 194.41 77.23 204.34 70.69 214.22 77.23 225.88 77.23"/><circle class="cls-4" cx="204.18" cy="91.06" r="8.29"/><rect class="cls-7" x="182.38" y="77.23" width="12.04" height="25.25"/><rect class="cls-7" x="214.22" y="77.23" width="12.04" height="25.25"/><path class="cls-4" d="M192.87,87.34h0v-.21h0a4.59,4.59,0,0,0-9.17,0h0v8.61h9.19v-8.4Z"/><path class="cls-4" d="M224.83,87.62h0v-.21h0a4.6,4.6,0,0,0-9.18,0h0V96h9.19v-8.4Z"/><rect class="cls-5" x="164.59" y="124.11" width="79.78" height="19.38"/><rect class="cls-5" x="174.3" y="116.22" width="60.37" height="27.27"/><rect class="cls-5" x="178.77" y="102.48" width="51.42" height="16.44"/><rect class="cls-6" x="168.64" y="116.22" width="71.03" height="2.71"/><rect class="cls-5" x="202.79" y="19.48" width="1.45" height="6.73"/><circle class="cls-5" cx="203.51" cy="19.19" r="1.76"/><rect class="cls-6" x="198.81" y="24.19" width="8.9" height="3.08"/><path class="cls-4" d="M191.59,128.33h0V128h0a7,7,0,0,0-14,0h0v13.11h14V128.33Z"/><path class="cls-4" d="M231.36,128.33h0V128h0a7,7,0,0,0-14,0h0v13.11h14V128.33Z"/><path class="cls-4" d="M211.47,128.33h0V128h0a7,7,0,0,0-14,0h0v13.11h14V128.33Z"/><path class="cls-8" d="M219.83,101.06h8.74a11.86,11.86,0,0,1,11.86,11.86v0a0,0,0,0,1,0,0H208a0,0,0,0,1,0,0v0A11.86,11.86,0,0,1,219.83,101.06Z"/><rect class="cls-8" x="220.74" y="98.91" width="6.93" height="3.64"/><rect class="cls-8" x="223.33" y="95.99" width="1.75" height="4.04"/><circle class="cls-8" cx="224.2" cy="94.92" r="1.78"/><polygon class="cls-3" points="208.43 139 150.68 139 150.68 153.69 258.28 153.69 258.28 137.67 247.69 137.67 247.69 133.86 239.98 133.86 239.98 139.66 208.43 139"/><rect class="cls-3" x="208.43" y="114.84" width="31.55" height="35.4"/><rect class="cls-7" x="222.39" y="120.12" width="10.23" height="27.47"/><rect class="cls-9" x="204.38" y="112.04" width="38.38" height="2.81" rx="1.4"/><rect class="cls-7" x="91.27" y="74.87" width="69.02" height="70.44"/><rect class="cls-10" x="75.94" y="50.45" width="5.05" height="3.99"/><polygon class="cls-3" points="75.94 50.45 78.22 47.86 80.98 50.45 75.94 50.45"/><rect class="cls-3" x="75.18" y="50.12" width="6.56" height="1.1"/><rect class="cls-10" x="65.43" y="61.95" width="26.06" height="83.36"/><path class="cls-3" d="M73.82,53.7H83.1a8.39,8.39,0,0,1,8.39,8.39v.52a0,0,0,0,1,0,0H65.43a0,0,0,0,1,0,0v-.52A8.39,8.39,0,0,1,73.82,53.7Z"/><path class="cls-4" d="M74.84,67.86h0v-.12h0a2.6,2.6,0,0,0-5.2,0h0v4.89h5.22V67.86Z"/><path class="cls-4" d="M86.19,67.86h0v-.12h0a2.6,2.6,0,0,0-5.2,0h0v4.89h5.21V67.86Z"/><rect class="cls-3" x="62.8" y="72.22" width="31.68" height="2.65"/><rect class="cls-4" x="75.59" y="80.92" width="5.75" height="11.02"/><circle class="cls-4" cx="78.46" cy="120.69" r="4.32"/><circle class="cls-4" cx="78.46" cy="101.66" r="4.32"/><rect class="cls-4" x="75.59" y="128.54" width="5.75" height="11.02"/><rect class="cls-3" x="62.8" y="109.84" width="31.68" height="2.65"/><path class="cls-4" d="M132.08,131.81h0v-.34h0a7.39,7.39,0,0,0-14.76,0h0v13.84h14.78v-13.5Z"/><rect class="cls-3" x="106.19" y="62.61" width="39.18" height="12.27"/><rect class="cls-3" x="115.31" y="55.82" width="20.94" height="12.27"/><circle class="cls-4" cx="125.78" cy="68.95" r="4.32"/><path class="cls-4" d="M120.37,59.71h0v-.07h0a1.56,1.56,0,0,0-3.12,0h0v2.93h3.13V59.71Z"/><path class="cls-4" d="M127.34,59.71h0v-.07h0a1.57,1.57,0,0,0-3.13,0h0v2.93h3.13V59.71Z"/><path class="cls-4" d="M134.32,59.71h0v-.07h0a1.56,1.56,0,0,0-3.12,0h0v2.93h3.13V59.71Z"/><rect class="cls-10" x="170.22" y="50.45" width="5.05" height="3.99"/><polygon class="cls-3" points="170.22 50.45 172.5 47.86 175.26 50.45 170.22 50.45"/><rect class="cls-3" x="169.46" y="50.12" width="6.56" height="1.1"/><rect class="cls-10" x="159.71" y="61.95" width="26.06" height="83.36"/><path class="cls-3" d="M168.1,53.7h9.29a8.39,8.39,0,0,1,8.39,8.39v.52a0,0,0,0,1,0,0H159.71a0,0,0,0,1,0,0v-.52A8.39,8.39,0,0,1,168.1,53.7Z"/><path class="cls-4" d="M169.12,67.86h0v-.12h0a2.61,2.61,0,0,0-5.21,0h0v4.89h5.21V67.86Z"/><path class="cls-4" d="M180.48,67.86h0v-.12h0a2.6,2.6,0,0,0-5.2,0h0v4.89h5.21V67.86Z"/><rect class="cls-3" x="157.08" y="72.22" width="31.68" height="2.65"/><rect class="cls-4" x="169.87" y="80.92" width="5.75" height="11.02"/><circle class="cls-4" cx="172.74" cy="120.69" r="4.32"/><circle class="cls-4" cx="172.74" cy="101.66" r="4.32"/><rect class="cls-4" x="169.87" y="128.54" width="5.75" height="11.02"/><rect class="cls-3" x="157.08" y="109.84" width="31.68" height="2.65"/><rect class="cls-3" x="59.36" y="143.09" width="132.83" height="5.52"/><rect class="cls-3" x="55.37" y="147.86" width="140.82" height="5.52"/><circle class="cls-4" cx="124.69" cy="89.94" r="9.14"/><rect class="cls-3" x="90.27" y="103.63" width="72.06" height="1.77"/><path class="cls-3" d="M55.37,153.38v.32c0,4.39,3.86,8,8.62,8H91.15a6.34,6.34,0,0,1,6.57,6.07h0a5.28,5.28,0,0,0,5.47,5.06H238.08c11.16,0,20.2-8.36,20.2-18.66v-5.35Z"/><path class="cls-3" d="M253.3,106.24c.79,2,2.84,2.22,4.93,3.08,1.4.58,1.87,2.92,1.39,4.55-1.2,4.13,2.58,2.87,5.15,5.1,6.19,5.36-4,10.41-5.51,11.26a43.5,43.5,0,0,1-7.94,2.58,10.64,10.64,0,0,1-9.18-4.1c-2.43-3.07-.32-5.27-.7-7.27s-3.12-1.89-3-5.86c.17-4.3,1.64-7.79,3.76-9.58,3.52-3,8.52-2.36,10.12-1A3.29,3.29,0,0,1,253.3,106.24Z"/><path class="cls-11" d="M246.72,117.24s1.88,2.71,1.67,5.28,5.93-.13,5.93-.13-1.32-1.93-1.92-7.34S246.72,117.24,246.72,117.24Z"/><path class="cls-11" d="M252.48,116.9a16.63,16.63,0,0,1-2.53,3.83,12,12,0,0,1-1.54,1.41,10.09,10.09,0,0,0-1.69-4.9s5.07-7.59,5.68-2.19c.06.57.13,1.09.21,1.58C252.56,116.72,252.52,116.81,252.48,116.9Z"/><path class="cls-11" d="M249.93,106.14c-.68-.43-5.59-.94-7.12,2.09-2.08,4.13.62,10.45,2.12,11.42s7.73-1,8.44-5.61A7.36,7.36,0,0,0,249.93,106.14Z"/><path class="cls-12" d="M240.89,125.63l.23-.21c3.35-3.09,6.53-4.36,8-3,3.09,2.7.51,5.21.51,5.21a85.56,85.56,0,0,1-8.58,6.23C241,131.09,240.91,128.36,240.89,125.63Z"/><path class="cls-11" d="M221,120.4s-4.12-7.15.84-.65c0,0-4.18-7.85,1-.58,0,0-3.8-7.34,1.87,1.35,0,0,.32-5.72,1.28,1.29l7.6,8.69a36.07,36.07,0,0,0,7.53-5.08c.34-.32.68-.61,1-.89a37.19,37.19,0,0,0,.78,4.93c.27.87.58,1.73.93,2.56-4,2.77-8.95,5.65-11.23,4.72C228.5,135.07,214.73,112.22,221,120.4Z"/><path class="cls-11" d="M232.82,150.33s.51-10,3-13.54c.7-1.41,6.49-12.76,14.09-15.17,0,0,5.88-6.36,7.21,1.8,1.07,6.57-1.59,10.13-9.23,17.55,0,0,1.2,7-.51,10.64-1.46,3.06-3.14,12.11-12.79,10.3S232.82,150.33,232.82,150.33Z"/><path class="cls-11" d="M231.51,154.22a9.49,9.49,0,0,0,4.88-1.5,21.57,21.57,0,0,0,4.18-3.86,12.76,12.76,0,0,0,3.17-7.59,19.11,19.11,0,0,0,0-2.51c-.05-.84-.23-1.66-.28-2.5-.06-1.25.65-1.8,1.66-2.32a9.84,9.84,0,0,0,1.76-1.07c4.07-3.28,6.34-8.42,7-13.59,1.39-.15,2.75.72,3.31,4.14,1.07,6.57-1.59,10.13-9.23,17.55,0,0,1.2,7-.51,10.64-1.46,3.06-3.14,12.11-12.79,10.3-5.55-1-5.32-4.7-4.11-7.64C230.84,154.26,231.18,154.25,231.51,154.22Z"/><path class="cls-13" d="M238.29,132.3h-.07c-.93-4.08,2.9-6.3,5.14-7.87a13.62,13.62,0,0,1,5-2.67l.05.23a8.25,8.25,0,0,0-4.05,2.35c-1.64,2-.61,3.24-.61,3.24a9.84,9.84,0,0,0,5.24-3.7,9.42,9.42,0,0,1,3.48-4.22,3.55,3.55,0,0,1,2.48-.32l-.5.13s-1.69-1-4.35,4.51c-1.1,4.52,4.55,9.87,4.55,9.87l-2.79,3.3a38.77,38.77,0,0,0-14.29-3.64Z"/><path class="cls-14" d="M238.22,132.3a5.12,5.12,0,0,1-.13-1.38,13.53,13.53,0,0,0,3.79,1.36,10,10,0,0,0,8.33-1.92,11.13,11.13,0,0,0,1-1,20.85,20.85,0,0,0,3.46,4.52l-2.79,3.3a38.77,38.77,0,0,0-14.29-3.64l.67-1.21Z"/><path class="cls-11" d="M250.33,123.29s1.54-4.76,5.14-3.86,4,15.71,5.8,20.73,5.28,13.9,6.69,18.41c0,0,18.28,3.09,5,1.8,0,0,10.43,2.57,0,.64,0,0,5.28,1.93-2.44-.13,0,0,5.4,2.58-4.12.9,0,0-6.95-12-9.27-17.63C257.15,144.15,248.52,128.7,250.33,123.29Z"/><path class="cls-13" d="M233.68,142.69s8.92-.6,14.84,4c0,0,1.81,12-9,14.81-9.91-.13-9.94-4.5-9.78-9.14C229.9,147.24,233.68,142.69,233.68,142.69Z"/><path class="cls-13" d="M233.68,142.69s8.92-.6,14.84,4c0,0,1.81,12-9,14.81-9.91-.13-9.94-4.5-9.78-9.14C229.9,147.24,233.68,142.69,233.68,142.69Z"/><path class="cls-14" d="M234.67,155.14a11.88,11.88,0,0,1,4.24-1.85c.1,0,.1-.2,0-.25a28,28,0,0,0,2.84-5.75,11.24,11.24,0,0,0,.34-3.65,18.15,18.15,0,0,1,6.39,3.08s1.81,12-9,14.81c-6.23-.08-8.56-1.84-9.38-4.29A34.56,34.56,0,0,0,234.67,155.14Z"/><path class="cls-11" d="M221.23,156.25s12.23,5.15,11.59-8.76c0,0-17.64-16.09-22.92-16.09s-4.89,3.86-11.84,12.49a119.71,119.71,0,0,1-13,13.9l3.73.39s19.57-7.85,20.73-18.54C209.52,139.64,214.28,150.46,221.23,156.25Z"/><path class="cls-11" d="M167.93,154.72s-1.13-.66-.94-1.11c.1-.25.4-.17.65-.05-.73-.56-.69-1.41-.07-1.34s3.24,2.23,5.91,4a8.54,8.54,0,0,0,4.74,1.8c6-.63,17.3-2.07,26-4.76,0,0,1.54-1.8,6.43-1.29,0,0,17.13-5.41,22.28-6.18,0,0,9.3-3.37,13,2.06,6.05,8.88-5.54,17.25-16.35,13,0,0-14.42.78-22.27-1a48.5,48.5,0,0,1-20.21,2.71c-4.73-.31-8-.64-10.11-1a2.5,2.5,0,0,1-1.64,1.19c-2,.19-6.88-5.58-6.88-5.58s-1.09-.64-1.16-1.44c0-.26,0-.37.14-.41a1.47,1.47,0,0,1-.4-.68C167.09,154.46,167.93,154.72,167.93,154.72Z"/><path class="cls-11" d="M175.65,160.84a55.36,55.36,0,0,0,6-.07c2.08-.07,4.17-.13,6.25-.23s4.19-.22,6.28-.41a29.34,29.34,0,0,0,5.83-.89c1-.29,1.93-.62,2.91-.89.82-.22,1.68-.29,2.48-.56,1.62-.55,3.1-1.66,4.84-1.78s3.58.73,5.35,1.22a22,22,0,0,0,5.07,1,19.59,19.59,0,0,0,5.1-.74c1.69-.4,3.38-.83,5-1.35a33.1,33.1,0,0,0,4.9-1.9,15,15,0,0,0,3.78-2.45c1.6-1.57,3.27-3.91,3.49-6.26a6.58,6.58,0,0,1,2.95,2.37c6.05,8.88-5.54,17.25-16.35,13,0,0-14.42.78-22.27-1a48.5,48.5,0,0,1-20.21,2.71c-4.73-.31-8-.64-10.11-1a2.5,2.5,0,0,1-1.64,1.19c-1.13.1-3.15-1.67-4.72-3.24A14,14,0,0,0,175.65,160.84Z"/><path class="cls-3" d="M244.68,105.81a17.42,17.42,0,0,0,9.29,5.74c6,1.42.35-2.57.35-2.57L251,105.25h-5.83Z"/><path class="cls-13" d="M104.37,33.32a4.23,4.23,0,0,0,8.45,0"/><path class="cls-9" d="M115.71,33.41a5.13,5.13,0,0,0-10.25,0"/><path class="cls-3" d="M111.73,46.63H112a5.35,5.35,0,0,0,.88.39c.41.14.83.25,1.24.4l.35.13h0a5.68,5.68,0,0,1,2.21,4.56V77.5a5.27,5.27,0,0,1-5,5.49h0a5.26,5.26,0,0,1-5-5.49V52.12A5.26,5.26,0,0,1,111.73,46.63Z"/><path class="cls-13" d="M107.09,116.59h0a3.45,3.45,0,0,0,3.44-3.44V88.76a3.45,3.45,0,0,0-3.44-3.45h0a3.45,3.45,0,0,0-3.44,3.45v24.39A3.45,3.45,0,0,0,107.09,116.59Z"/><path class="cls-13" d="M100.17,116.59h0a3.45,3.45,0,0,0,3.44-3.44V88.76a3.45,3.45,0,0,0-3.44-3.45h0a3.45,3.45,0,0,0-3.44,3.45v24.39A3.45,3.45,0,0,0,100.17,116.59Z"/><path class="cls-15" d="M103.74,124.27h0a2.82,2.82,0,0,0,2.81-2.81V87.84a2.82,2.82,0,0,0-2.81-2.8h0a2.81,2.81,0,0,0-2.8,2.8v33.62A2.81,2.81,0,0,0,103.74,124.27Z"/><path class="cls-13" d="M107.09,97.72h0a3.45,3.45,0,0,0,3.44-3.44V69.88a3.45,3.45,0,0,0-3.44-3.44h0a3.45,3.45,0,0,0-3.44,3.44v24.4A3.45,3.45,0,0,0,107.09,97.72Z"/><path class="cls-13" d="M100.21,97.72h0a3.45,3.45,0,0,0,3.44-3.44V69.88a3.45,3.45,0,0,0-3.44-3.44h0a3.45,3.45,0,0,0-3.45,3.44v24.4A3.45,3.45,0,0,0,100.21,97.72Z"/><path class="cls-3" d="M103.65,102.23h0a3.45,3.45,0,0,0,3.44-3.44V69.25a3.45,3.45,0,0,0-3.44-3.44h0a3.45,3.45,0,0,0-3.44,3.44V98.79A3.45,3.45,0,0,0,103.65,102.23Z"/><path class="cls-4" d="M98.2,57.43c0,8.21.89,16.6,8.17,16.6,4.57,0,8.36-8.39,8.36-16.6s-3.7-14.87-8.27-14.87S98.2,49.22,98.2,57.43Z"/><path class="cls-15" d="M103.22,25.48h.23A6.57,6.57,0,0,1,110,32V44a10.54,10.54,0,0,1,2.19,2.73,4.51,4.51,0,0,0,.67.29c.41.14.83.25,1.24.4l.35.13h0a5.68,5.68,0,0,1,2.21,4.56v4.53a22,22,0,0,1-2.13-2.08,26.52,26.52,0,0,1,.16,2.86,23.17,23.17,0,0,1-1.81,9.27c-.56-.32-16.25-8.82-16.25-12.43V32A6.57,6.57,0,0,1,103.22,25.48Z"/><path class="cls-13" d="M95.87,82.59h0a5.27,5.27,0,0,0,5.5-5V51.19a5.27,5.27,0,0,0-5.5-5h0a5.27,5.27,0,0,0-5.5,5V77.62A5.27,5.27,0,0,0,95.87,82.59Z"/><path class="cls-4" d="M100.51,49.9a3,3,0,0,1,.39-.71,5.58,5.58,0,0,0-5-3,5.27,5.27,0,0,0-5.5,5v9.72C94.87,58.38,98.7,54.64,100.51,49.9Z"/><path class="cls-4" d="M100.62,31.28a3.32,3.32,0,1,1,3.57,3l-.29,0-3,.24-.27-3.44"/><path class="cls-4" d="M86.42,75h31.84a1.7,1.7,0,0,0,1.7-1.7h0a1.71,1.71,0,0,0-1.7-1.7H88.1"/><rect class="cls-9" x="96.84" y="72.3" width="4.88" height="2.35" rx="0.53" transform="matrix(0, 1, -1, 0, 172.86, -25.73)"/><rect class="cls-9" x="111.85" y="72.3" width="4.88" height="2.35" rx="0.53" transform="translate(187.89 -40.75) rotate(90.06)"/><rect class="cls-9" x="108.97" y="72.3" width="4.88" height="2.35" rx="0.53" transform="matrix(0, 1, -1, 0, 185, -37.86)"/><rect class="cls-9" x="106.06" y="72.3" width="4.88" height="2.35" rx="0.53" transform="translate(182.09 -34.95) rotate(90.06)"/><rect class="cls-9" x="93.96" y="72.3" width="4.88" height="2.35" rx="0.53" transform="translate(169.97 -22.85) rotate(90.06)"/><rect class="cls-9" x="91.05" y="72.3" width="4.88" height="2.35" rx="0.53" transform="translate(167.06 -19.94) rotate(90.06)"/></g></g></g></svg>