<svg xmlns="http://www.w3.org/2000/svg" xmlns:xlink="http://www.w3.org/1999/xlink" viewBox="0 0 268.07 141.37"><defs><style>.cls-1{fill:#f5f7d4;}.cls-2{fill:none;}.cls-3{fill:#f5904f;}.cls-4{fill:#3d5da9;}.cls-5{fill:#002735;}.cls-6{fill:#3a80c3;}.cls-7{fill:#ec6755;}.cls-8{fill:#faad74;}.cls-9{fill:#b83534;}.cls-10{fill:#055943;}.cls-11{fill:#059370;}.cls-12{fill:#7694cc;}.cls-13{fill:#f9bb15;}.cls-14{fill:#4a82c3;}.cls-15{fill:#f7bb17;}.cls-16{fill:#0e253f;}.cls-17{clip-path:url(#clip-path);}</style><clipPath id="clip-path"><path class="cls-1" d="M96.71,84.37S105.83,109,83.9,119.59s-23.11,12.69-23.11,12.69-3.75,4.06-7.38,2S51,129.86,51.59,128c.87-2.69,16.12-14.31,26.87-17.22C95,106.29,97,84,96.71,84.37Z"/></clipPath></defs><g id="Capa_2" data-name="Capa 2"><g id="Layer_1" data-name="Layer 1"><rect class="cls-2" width="268.07" height="140.46"/><path class="cls-3" d="M176,97l-1.69-.31s4-15,3.49-16.24c-.45-1-5.12-1.77-7.4-3.56a3.47,3.47,0,0,1-1.07-1.29,4.55,4.55,0,0,1,.77-4.85,56.33,56.33,0,0,1,7.91,2.4c2.68,1.07,5.16,2.47,5.85,4.1C185.52,81.16,176,97,176,97Z"/><path class="cls-4" d="M180.61,99.3a.5.5,0,0,0-.3-.38,4.94,4.94,0,0,1-1.84-1.28c-.35-.43-1.78-1.72-1.78-1.72h0s-.22,0-1.13.34c-.47.18-1-.64-1-.64a.83.83,0,0,0-.29.19.74.74,0,0,0-.23.5,3,3,0,0,1-.64,1.17l-.28.36s-.1.18.7.46l1,.23c.33,0,.59,0,.93.06a1,1,0,0,1,.73.34h0l4.07,1C180.67,99.83,180.65,99.53,180.61,99.3Z"/><path class="cls-5" d="M188.58,99.9a.73.73,0,0,1-.75-.71c0-8.78,7.62-15.93,17-15.93a17.92,17.92,0,0,1,6.26,1.12.68.68,0,0,1,.42.92.76.76,0,0,1-1,.39,16.37,16.37,0,0,0-5.7-1c-8.54,0-15.48,6.51-15.48,14.51A.74.74,0,0,1,188.58,99.9Z"/><path class="cls-5" d="M202.25,99.19a2.53,2.53,0,1,1,2.52,2.36A2.45,2.45,0,0,1,202.25,99.19Z"/><polygon class="cls-5" points="204.5 99.08 200.23 87.94 200.55 87.83 204.82 98.97 204.5 99.08"/><polygon class="cls-5" points="192.73 104.21 192.59 103.92 204.66 99.06 212.59 88.44 212.87 88.62 204.88 99.32 204.84 99.34 192.73 104.21"/><path class="cls-5" d="M200,111.47l-.33-.1c.09-.24,4.75-11.75,5-12.24l.12-.3L212.25,110l-.29.17-7.15-10.6C203.1,103.76,200.05,111.29,200,111.47Z"/><polygon class="cls-5" points="204.74 98.55 191.35 96.39 191.41 96.07 204.8 98.23 204.74 98.55"/><polygon class="cls-5" points="205.79 98.36 205.46 98.26 209.39 87.22 209.71 87.33 205.79 98.36"/><polygon class="cls-5" points="204.74 99.36 204.69 99.33 192.41 93.5 192.56 93.21 204.8 99.02 217.96 96.95 218.02 97.27 204.74 99.36"/><path class="cls-5" d="M209.73,111.07c-.08-.2-3.23-7.47-5-11.53l-6.82,10-.29-.17,7.17-10.58.13.29c.2.47,5,11.6,5.12,11.84Z"/><polygon class="cls-5" points="191.57 101.19 191.53 100.87 204.75 99.03 204.8 99.35 191.57 101.19"/><polygon class="cls-5" points="203.96 97.53 196.62 89.62 196.88 89.41 204.22 97.33 203.96 97.53"/><polygon class="cls-5" points="204.34 111.68 204 111.65 205.03 100.06 205.37 100.08 204.34 111.68"/><polygon class="cls-5" points="215.76 106.28 204.08 98.68 204.27 98.42 215.96 106.01 215.76 106.28"/><polygon class="cls-5" points="195.08 107.78 194.84 107.55 204.6 98.32 204.6 86.32 204.94 86.32 204.94 98.46 195.08 107.78"/><path class="cls-5" d="M204.77,113c-8.14,0-14.76-6.2-14.76-13.83s6.62-13.83,14.76-13.83,14.76,6.2,14.76,13.83a13.14,13.14,0,0,1-2,7,14.39,14.39,0,0,1-5.29,5A15.45,15.45,0,0,1,204.77,113Zm0-25.74c-7,0-12.71,5.34-12.71,11.91s5.7,11.91,12.71,11.91a13.33,13.33,0,0,0,6.43-1.63,12.4,12.4,0,0,0,4.56-4.3,11.26,11.26,0,0,0,1.72-6C217.48,92.62,211.78,87.28,204.77,87.28Z"/><polygon class="cls-6" points="176.26 101.33 167.59 75.9 169.05 75.46 177.72 100.89 176.26 101.33"/><polygon class="cls-6" points="175.53 101.4 155.06 99.73 193.03 75.67 190.85 79.84 159.51 98.65 175.67 99.97 175.53 101.4"/><polygon class="cls-6" points="178.29 100.27 177 99.49 192.75 75.84 194.59 77.62 178.29 100.27"/><path class="cls-4" d="M203.55,98.56,194.78,81l1.17-.44a1.52,1.52,0,0,1,1.94.78L205,98Z"/><path class="cls-4" d="M194.78,81c-1.27-3.09-3.39-7.94-3.36-7.89l1.28-.8c.06.09.1.15,3.43,8.24Z"/><path class="cls-4" d="M187.41,74.76a1.41,1.41,0,0,1,.36-2,1.63,1.63,0,0,1,2.17.33,1.4,1.4,0,0,1-.35,2A1.64,1.64,0,0,1,187.41,74.76Z"/><path class="cls-4" d="M193.31,70.93a1.4,1.4,0,0,1,.35-2,1.63,1.63,0,0,1,2.18.33,1.41,1.41,0,0,1-.36,2A1.62,1.62,0,0,1,193.31,70.93Z"/><polygon class="cls-4" points="194.83 71.45 188.88 75 188.06 73.48 194 69.93 194.83 71.45"/><path class="cls-4" d="M185,104.79h-3.33a.69.69,0,0,1-.71-.67h0a.69.69,0,0,1,.71-.67H185a.69.69,0,0,1,.71.67h0A.69.69,0,0,1,185,104.79Z"/><polygon class="cls-4" points="183.41 103.97 176.67 101.1 176.92 100.59 183.66 103.47 183.41 103.97"/><path class="cls-5" d="M154.77,99.19a2.53,2.53,0,1,1,2.52,2.36A2.45,2.45,0,0,1,154.77,99.19Z"/><polygon class="cls-5" points="157.01 99.08 152.75 87.94 153.07 87.83 157.34 98.97 157.01 99.08"/><polygon class="cls-5" points="145.24 104.21 145.11 103.92 157.18 99.06 165.11 88.44 165.39 88.62 157.4 99.32 157.36 99.34 145.24 104.21"/><path class="cls-5" d="M152.5,111.47l-.32-.1c.09-.24,4.75-11.75,4.95-12.24l.12-.3L164.77,110l-.29.17-7.15-10.6C155.62,103.76,152.57,111.29,152.5,111.47Z"/><polygon class="cls-5" points="157.26 98.55 143.87 96.39 143.93 96.07 157.32 98.23 157.26 98.55"/><polygon class="cls-5" points="158.3 98.36 157.98 98.26 161.9 87.22 162.23 87.33 158.3 98.36"/><polygon class="cls-5" points="157.26 99.36 157.21 99.33 144.93 93.5 145.08 93.21 157.32 99.02 170.48 96.95 170.54 97.27 157.26 99.36"/><path class="cls-5" d="M162.25,111.07c-.08-.2-3.23-7.47-5-11.53l-6.82,10-.29-.17,7.17-10.58.13.29c.2.47,5,11.6,5.12,11.84Z"/><polygon class="cls-5" points="144.09 101.19 144.04 100.87 157.26 99.03 157.31 99.35 144.09 101.19"/><polygon class="cls-5" points="156.48 97.53 149.14 89.62 149.4 89.41 156.74 97.33 156.48 97.53"/><polygon class="cls-5" points="156.86 111.68 156.52 111.65 157.54 100.06 157.88 100.08 156.86 111.68"/><polygon class="cls-5" points="168.28 106.28 156.59 98.68 156.79 98.42 168.47 106.01 168.28 106.28"/><polygon class="cls-5" points="147.6 107.78 147.36 107.55 157.12 98.32 157.12 86.32 157.46 86.32 157.46 98.46 147.6 107.78"/><path class="cls-5" d="M157.29,113c-8.14,0-14.76-6.2-14.76-13.83s6.62-13.83,14.76-13.83,14.76,6.2,14.76,13.83a13.14,13.14,0,0,1-2,7,14.42,14.42,0,0,1-5.3,5A15.38,15.38,0,0,1,157.29,113Zm0-25.74c-7,0-12.71,5.34-12.71,11.91s5.7,11.91,12.71,11.91a13.35,13.35,0,0,0,6.43-1.63,12.48,12.48,0,0,0,4.56-4.3,11.35,11.35,0,0,0,1.72-6C170,92.62,164.3,87.28,157.29,87.28Z"/><path class="cls-7" d="M169.31,85a.82.82,0,0,1-.65-.07h0c-6.9-3.91-16.45-2.44-19.22-1.89h0a.25.25,0,0,1-.3-.23v-.5a.8.8,0,0,1,.71-.78c1.5-.2,5-.65,6.94-.66H157a26.53,26.53,0,0,1,11.25,2.18,2.74,2.74,0,0,0,2,.12l.85-.28a1,1,0,0,1,1.19.53h0a.55.55,0,0,1-.37.72Z"/><path class="cls-4" d="M162.9,75.14s-.28-1.18.51-1.26,3.67.5,4.43.42,4.78-.7,5.48-.06.41,1.2-1,1.32-3.28.34-3.81.76S164.11,78,162.9,75.14Z"/><path class="cls-5" d="M173.15,101.11a3.85,3.85,0,1,1,3.84,3.6A3.73,3.73,0,0,1,173.15,101.11Z"/><path class="cls-3" d="M190.37,70.61s1.26-1.49,1.94-1.31a1.56,1.56,0,0,1,1.26,1.55c0,.2,0,1-.54,1.2a1.5,1.5,0,0,1-1.32-.24C191.47,71.62,190.37,70.61,190.37,70.61Z"/><path class="cls-3" d="M192.5,69.4a1.75,1.75,0,0,1-1.38,1.24c-1.2.3-8.63-2.63-10.4-3.45-.95-.45-2.33-2.92-3.38-5.09-.26-.53-.49-1-.7-1.5-.53-1.15-.88-2-.88-2,0-1.14,1.35-.69,2.56-.17.37.16,2.31-.61,2.82.32.24.43.55.38.79.87.94,1.94,1.8,4.13,2,4.65C184.24,65.22,192.5,69.4,192.5,69.4Z"/><path class="cls-8" d="M189.44,71.48s1.25-1.47,1.94-1.31c1.64.39,1.42,1.49,1.39,1.7s-.15.87-.67,1a1.53,1.53,0,0,1-1.32-.23C190.54,72.49,189.44,71.48,189.44,71.48Z"/><path class="cls-8" d="M175.07,56.75l4.24,1.46a9.57,9.57,0,0,0,1.52-2c.54-.89.92-1.68.92-1.68l-3-1.94-.93-.62C177.79,53.76,175.07,56.75,175.07,56.75Z"/><path class="cls-3" d="M177.63,52.94a5.7,5.7,0,0,0,3.2,3.28c.54-.89.92-1.68.92-1.68l-3-1.94Z"/><path class="cls-8" d="M183.09,54.48s-5.25.77-5.71-2.3-1.45-5,1.88-5.66,4.16.47,4.58,1.46S184.44,54.2,183.09,54.48Z"/><path class="cls-5" d="M176.2,46a1,1,0,0,1,.43.24h0a2.37,2.37,0,0,1,.7-1.33,1.65,1.65,0,0,0-.22,1.12c1-1.58,5.8-.34,6.25-.23s.77-.53.77-.53a2.41,2.41,0,0,1,.39,2.92c-.59.92-2.51,2.28-3.06,2s-.55.28-.52,1-1.36,2-2.34,2.2c-.79.14-.85-.36-1.06-.68a1,1,0,0,0-.2-.22A5.19,5.19,0,0,1,175.93,48a4.33,4.33,0,0,1,.59-1.6A2.59,2.59,0,0,0,176.2,46Z"/><path class="cls-9" d="M178,73.14a3.81,3.81,0,0,1-2.14,2.52,25.58,25.58,0,0,1-5.47,1.22,3.47,3.47,0,0,1-1.07-1.29,4.55,4.55,0,0,1,.77-4.85A56.33,56.33,0,0,1,178,73.14Z"/><path class="cls-8" d="M166.1,66.68s-4.24,4.58-.34,9.74,10.25,9.32,10.6,11.16c.68,3.56,4.73,10.92,6.65,14.55l1.65-.59s-3.09-17.24-4.19-19.3-6.81-11.73-6.81-11.73Z"/><path class="cls-10" d="M182,59.41a3.59,3.59,0,0,0-1.66.89c-.28.42-3.19-.76-3.53-1.86.83-.85,2.26-1.59,3.09-1.34C180.37,57.24,181.16,58.22,182,59.41Z"/><path class="cls-7" d="M165.25,68.09s5.52,3.68,9.2,3.47c0,0,2.43,3.87,3,5.15,0,0-6.27,2.94-9.53,2.4,0,0-4.26-3.87-4-6.58A10.54,10.54,0,0,1,165.25,68.09Z"/><path class="cls-11" d="M180.38,61.16l-1.32,1.76-.1.22L176.21,69l-1.4,3a8.45,8.45,0,0,1-3.46-.2,13.09,13.09,0,0,1-6.11-3.73,39.57,39.57,0,0,1,6.6-10.93c1.21-1.23,4.4-2.25,4.4-2.25a23.76,23.76,0,0,0,4,2.32C180.91,57.73,180.38,61.16,180.38,61.16Z"/><path class="cls-10" d="M179,63.14,176.21,69c-2.09-4-.77-9.69-.77-9.69s3.36,2.73,3.48,2.94A6.63,6.63,0,0,1,179,63.14Z"/><path class="cls-8" d="M191.57,70.27a1.74,1.74,0,0,1-1.37,1.24c-1.21.3-8.64-2.63-10.41-3.45-.95-.45-2.33-2.92-3.38-5.09-.25-.53-.49-1-.7-1.5-.53-1.15-.88-2-.88-2,0-1.14,2.87-2.69,4.09-2.16a4.57,4.57,0,0,1,1.37,1.79c.24.43.48.9.71,1.39.94,1.94,1.8,4.13,2,4.65C183.32,66.09,191.57,70.27,191.57,70.27Z"/><path class="cls-11" d="M181,60.51A25.11,25.11,0,0,0,176.41,63c-.25-.53-.49-1-.7-1.5-.53-1.15-.88-2-.88-2,0-1.14,2.87-2.69,4.09-2.16a4.57,4.57,0,0,1,1.37,1.79C180.53,59.55,180.77,60,181,60.51Z"/><path class="cls-12" d="M182.36,103.55h1c.33,0,.58-.13.92-.16a1,1,0,0,1,.8.16h4.2c.11-.12,0-.41-.09-.62a.57.57,0,0,0-.4-.3,5,5,0,0,1-2.12-.81c-.45-.34-2.18-1.24-2.18-1.24h0s-.22,0-1,.59c-.41.29-1.1-.4-1.1-.4a.89.89,0,0,0-.23.26.74.74,0,0,0-.09.53,3,3,0,0,1-.3,1.29c-.1.24-.18.41-.18.41S181.51,103.46,182.36,103.55Z"/><path class="cls-4" d="M182.13,101a3.3,3.3,0,0,0,1.07.44c.44,0,1.28-.89,1.28-.89h0s-.22,0-1,.59c-.41.29-1.1-.4-1.1-.4A.89.89,0,0,0,182.13,101Z"/><path class="cls-4" d="M182.36,103.55h1c.33,0,.58-.13.92-.16a1,1,0,0,1,.8.16h4.2c.11-.12,0-.41-.09-.62s-.17.4-.24.48a23.22,23.22,0,0,1-3.61-.08,2.39,2.39,0,0,0-1.59-.16,4.43,4.43,0,0,1-2-.32c-.1.24-.18.41-.18.41S181.51,103.46,182.36,103.55Z"/><path class="cls-5" d="M178.45,39.56a23.91,23.91,0,0,0-13.52,10.73c-1.88,1.46-3.82,2.79-3.82,2.79s-2.85-27.55-33.22-27.55c6.85-1,25.28-3,25.28-3l25.28,8.19Z"/><path class="cls-5" d="M77.32,39.56A23.91,23.91,0,0,1,90.84,50.29c1.88,1.46,3.82,2.79,3.82,2.79s2.85-27.55,33.23-27.55c-6.85-1-25.28-3-25.28-3L77.32,30.71Z"/><rect class="cls-11" x="69.81" y="22.58" width="7.52" height="16.25"/><rect class="cls-13" x="68.63" y="19.37" width="9.88" height="3.22"/><polygon class="cls-14" points="68.63 19.37 73.57 16.58 78.51 19.37 68.63 19.37"/><rect class="cls-13" x="68.63" y="38.83" width="9.88" height="3.22"/><rect class="cls-11" x="178.43" y="22.52" width="7.52" height="16.25"/><rect class="cls-13" x="177.25" y="19.31" width="9.88" height="3.22"/><polygon class="cls-14" points="177.25 19.31 182.19 16.52 187.13 19.31 177.25 19.31"/><rect class="cls-13" x="177.25" y="38.77" width="9.88" height="3.22"/><polygon class="cls-13" points="77.33 25.92 124.13 13.25 124.13 28.47 77.33 41.68 77.33 25.92"/><polygon class="cls-13" points="178.45 25.92 131.65 13.25 131.65 28.47 178.45 41.68 178.45 25.92"/><polygon class="cls-5" points="77.33 25.92 124.13 13.25 124.13 11.61 77.33 24.22 77.33 25.92"/><polygon class="cls-5" points="178.45 25.92 131.65 13.25 131.65 11.61 178.45 24.22 178.45 25.92"/><path class="cls-11" d="M100.73,50.72s5.33-19.1,27.16-19.1,28.9,20.6,28.9,20.6l5.18-5.5s-7.41-21.19-34.52-21.63-32.6,22.23-32.6,22.23Z"/><rect class="cls-13" x="88.4" y="46.07" width="12.31" height="12.31"/><rect class="cls-13" x="156.12" y="46.07" width="12.31" height="12.31"/><rect class="cls-11" x="124.13" y="7.67" width="7.52" height="16.25"/><rect class="cls-13" x="122.95" y="4.45" width="9.88" height="3.22"/><polygon class="cls-14" points="122.95 4.45 127.89 1.67 132.83 4.45 122.95 4.45"/><rect class="cls-13" x="122.95" y="23.92" width="9.88" height="3.22"/><path class="cls-1" d="M122.35,89.12c-2.11-1.93-3.53-2.44-6-2s-4.66,5.17-4.66,5.17l0,0c-.18,0-5.17.85-6.24,3s-1.47,3.5.27,6.3c2,2.63,15.47,9,15.47,9l1.79-3.31,0,0,3.66-.78S124.31,91.82,122.35,89.12Z"/><path class="cls-1" d="M147.26,101.8c1.28-2.56,1.37-4.07.29-6.3s-6.25-3.06-6.25-3.06l0,0c-.08-.17-2.24-4.74-4.64-5.17s-3.77-.45-6,2c-2,2.69-4.37,17.34-4.37,17.34l3.68.81,0,0,1.77,3.3S145.2,104.42,147.26,101.8Z"/><path class="cls-1" d="M103.53,108.84c-2.52,1.36-3.46,2.54-3.86,5s3.36,6.09,3.36,6.09l.06,0c0,.18-.9,5.17.83,6.9s2.82,2.53,6,1.8c3.16-1.07,13.52-11.69,13.52-11.69l-2.54-2.77-.06,0,.45-3.72S106.72,107.87,103.53,108.84Z"/><path class="cls-1" d="M149.52,108.49c2.55,1.3,3.52,2.46,4,4.9s-3.22,6.17-3.22,6.17l-.06,0c0,.18,1,5.14-.67,6.91s-2.77,2.6-6,1.94c-3.18-1-13.78-11.39-13.78-11.39l2.48-2.82,0,0-.53-3.71S146.31,107.59,149.52,108.49Z"/><path class="cls-1" d="M138.25,132.36c-.34,2.84-1.09,4.14-3.23,5.41s-6.9-.89-6.9-.89v-.06c-.16.1-4.48,2.72-6.72,1.75s-3.39-1.7-3.89-5c-.16-3.33,5.92-16.87,5.92-16.87l3.51,1.36v.06l3.3-1.78S138,129,138.25,132.36Z"/><circle class="cls-5" cx="126.26" cy="112.47" r="6.34"/><ellipse class="cls-14" cx="127.14" cy="70.93" rx="32.61" ry="27.69"/><path class="cls-5" d="M147.76,54.37l5.9,17s21.57.32,16.19-15.14S147.76,54.37,147.76,54.37Z"/><path class="cls-5" d="M100.13,70.93,108,54.75s-15-15.47-22.15-.74S100.13,70.93,100.13,70.93Z"/><path class="cls-13" d="M148.73,57.31l3.65,10.5s13.34.2,10-9.37S148.73,57.31,148.73,57.31Z"/><path class="cls-13" d="M101.56,68l4.85-10s-9.3-9.58-13.71-.46S101.56,68,101.56,68Z"/><circle class="cls-5" cx="116.53" cy="69.38" r="5.48"/><circle class="cls-5" cx="137.75" cy="69.38" r="5.48"/><ellipse class="cls-5" cx="127.14" cy="90.43" rx="6.82" ry="5.24"/><path class="cls-13" d="M132.13,76.27c-2.16,0-3.1,2.41-5,2.3s-2.82-2.3-5-2.3-6.89,4-6.89,9.57,5,8.25,7.17,8.25,2.17-1.84,4.7-1.84,2.54,1.84,4.7,1.84S139,91.43,139,85.84,134.3,76.27,132.13,76.27Z"/><path class="cls-5" d="M127.14,78.94s-4.91,2.4-4.91,4.51,2.53-.36,3.1,1.13S123.78,88,123.78,88l3.36-.75,3.35.75s-2.1-1.89-1.54-3.37,3.09,1,3.09-1.13S127.14,78.94,127.14,78.94Z"/><polygon class="cls-13" points="55.05 63.12 51.59 106.78 55.89 106.78 73.49 61.96 55.05 63.12"/><circle class="cls-13" cx="75.31" cy="89.07" r="21.9"/><path class="cls-13" d="M81,56C79.75,48.46,74.8,42.2,67.2,42.2S53.92,48.38,53.42,56a18.53,18.53,0,0,0,1.63,7.15h5.28a6.19,6.19,0,0,1,6.2,6.19v14c.38.5.63.77.67.74S81.05,64.43,81,56Z"/><circle class="cls-15" cx="53.41" cy="50.38" r="3.63"/><circle class="cls-15" cx="80.27" cy="50.38" r="3.63"/><circle class="cls-16" cx="53.41" cy="50.38" r="1.82"/><circle class="cls-16" cx="80.27" cy="50.38" r="1.82"/><path class="cls-11" d="M60.33,63.12H55.05c3,7.73,9.41,17.44,11.48,20.17v-14A6.19,6.19,0,0,0,60.33,63.12Z"/><path class="cls-11" d="M74,63.12h5.28c-3,7.73-9.41,17.44-11.48,20.17v-14A6.19,6.19,0,0,1,74,63.12Z"/><circle class="cls-16" cx="63.24" cy="68.49" r="1.32"/><circle class="cls-16" cx="70.86" cy="68.49" r="1.32"/><circle class="cls-16" cx="67.19" cy="81.54" r="2.49"/><rect class="cls-16" x="48.54" y="104.32" width="9.73" height="6.85" rx="3.23"/><path class="cls-1" d="M96.71,84.37S105.83,109,83.9,119.59s-23.11,12.69-23.11,12.69-3.75,4.06-7.38,2S51,129.86,51.59,128c.87-2.69,16.12-14.31,26.87-17.22C95,106.29,97,84,96.71,84.37Z"/><g class="cls-17"><rect class="cls-16" x="53.45" y="119.05" width="8.27" height="22.72" transform="translate(-75.35 78.92) rotate(-45)"/><rect class="cls-16" x="63.61" y="109.62" width="8.27" height="22.72" transform="translate(-61.98 72.04) rotate(-40.08)"/><rect class="cls-16" x="76.14" y="102.49" width="8.27" height="22.72" transform="translate(-51.32 68.15) rotate(-35.66)"/><rect class="cls-16" x="87.94" y="94.46" width="8.27" height="22.72" transform="translate(-44.43 73.52) rotate(-35.66)"/><rect class="cls-16" x="94.45" y="80.61" width="8.27" height="22.72" transform="translate(-36.16 96.65) rotate(-45)"/></g></g></g></svg>