<svg xmlns="http://www.w3.org/2000/svg" viewBox="0 0 335.82 175.95"><defs><style>.cls-1{fill:#002735;}.cls-2{fill:#f5f7d4;}.cls-15,.cls-3{fill:none;}.cls-3{stroke:#002735;stroke-miterlimit:10;stroke-width:6px;}.cls-4{fill:#059370;}.cls-5{fill:#f9bb15;}.cls-6{fill:#4a82c3;}.cls-7{fill:#ec6755;}.cls-8{fill:#b7c8e3;}.cls-9{fill:#231f20;}.cls-10{fill:#8aacd6;}.cls-11{fill:#7fa5d3;}.cls-12{fill:#fffefc;}.cls-13{fill:#669acb;}.cls-14{fill:#112f39;}</style></defs><g id="Capa_2" data-name="Capa 2"><g id="Layer_1" data-name="Layer 1"><polygon class="cls-1" points="69.85 137.93 109.73 1.98 125.58 45.26 132.9 18.67 179.21 139.24 69.85 137.93"/><polygon class="cls-2" points="105.01 24.13 108.11 40.68 113.28 28.27 117.42 38.61 120.12 30.78 109.73 2.42 102.28 27.82 105.01 24.13"/><polygon class="cls-2" points="131.9 49.47 135.52 40.68 140.17 52.57 143.97 47.93 132.9 19.11 127.73 37.89 131.9 49.47"/><ellipse class="cls-3" cx="193.76" cy="52.52" rx="9.71" ry="9.64"/><path class="cls-4" d="M225,37.64h0c19.65.74,32.9-2.74,32.9-2.74S240.76,75.52,236.94,77c-3.48,1.35-10.75,1.64-12,1.68h-.09v-41Z"/><path class="cls-1" d="M224.79,78.67c-1.21,0-8.48-.33-12-1.68-3.81-1.47-20.93-42.08-20.93-42.08s13.26,3.48,32.9,2.74h.09v41Z"/><path class="cls-1" d="M257.87,34.91s-29.17-17.92-66,0C224.88,45.27,257.87,34.91,257.87,34.91Z"/><path class="cls-5" d="M222.77,1a10,10,0,0,1,1.55.12c1,5.28,1.68,12.61-1.55,16.27-3.58,4.05-1.35,13.28.56,19l-.56,0c-7.41,0-13.41-7.94-13.41-17.72S215.36,1,222.77,1Z"/><path class="cls-5" d="M225.15,17.34c3.23-3.66,2.58-11,1.54-16.27,6.68,1,11.87,8.5,11.87,17.6,0,9.54-5.71,17.31-12.86,17.7C223.8,30.62,221.57,21.39,225.15,17.34Z"/><rect class="cls-4" x="230.24" y="94.36" width="25.07" height="41.32" transform="translate(485.55 230.05) rotate(-180)"/><polygon class="cls-6" points="248.32 78.05 265.97 94.36 230.05 94.36 248.32 78.05"/><polygon class="cls-5" points="195.75 94.36 230.24 94.36 248.41 78.05 215.02 78.05 195.75 94.36"/><rect class="cls-1" x="195.75" y="94.36" width="34.48" height="41.32"/><rect class="cls-1" x="263.92" y="94.36" width="2.05" height="41.32" transform="translate(529.89 230.05) rotate(-180)"/><rect class="cls-1" x="238.98" y="106.85" width="2.05" height="19.7" transform="translate(356.7 -123.31) rotate(90)"/><rect class="cls-1" x="230.05" y="94.36" width="2.05" height="41.32" transform="translate(462.14 230.05) rotate(-180)"/><rect class="cls-1" x="248.83" y="94.36" width="2.05" height="41.32" transform="translate(499.71 230.05) rotate(-180)"/><rect class="cls-1" x="245.17" y="116.38" width="1.65" height="19.35" transform="translate(491.99 252.11) rotate(-180)"/><rect class="cls-1" x="241.73" y="116.38" width="1.65" height="19.35" transform="translate(485.11 252.11) rotate(-180)"/><rect class="cls-1" x="238.14" y="116.38" width="1.65" height="19.35" transform="translate(477.93 252.11) rotate(-180)"/><rect class="cls-1" x="234.41" y="116.38" width="1.65" height="19.35" transform="translate(470.47 252.11) rotate(-180)"/><path class="cls-1" d="M80.4,118.82s8.34,21.47,18.13,18.87,6.94-14.87,6.94-14.87l-8.45-4Z"/><path class="cls-4" d="M190.42,127.66c-1-.92-2.07-1.78-3.12-2.6-21.55,7.09-92.81-24.56-92.81-24.56-1.23-.37-5.59-1.41-11.61,1.23-8.53,3.74-8.5,5.69-8.5,5.69,4.75.42,6.76.54,10.51,2-4.21.12-3,0-10.19,1.08,5.28,9.85,28.7,10.91,28.4,8,0,0,73.6,22.26,92.65,12.42A18.15,18.15,0,0,1,190.42,127.66Z"/><path class="cls-5" d="M101.64,116s-9.16,38.1,63.81,21.3C158.17,111.52,101.64,116,101.64,116Z"/><path class="cls-7" d="M156.09,135a41.14,41.14,0,0,0,5.37,5.43c2.07,1.45,14.18,1.4,12.43,2-1.28.46-3.88,3.16-6,6.86,2.39-2.29,4.74-4.46,6.39-4.27a6.32,6.32,0,0,0-.71,5.83,7.6,7.6,0,0,1,3.66-6.14,8.51,8.51,0,0,1,4.63,5.26c0-2.61-.61-4.87-2.59-6.43,1.95-.68,3.72.41,5.46,1.82-1.54-2.28-3.47-3.91-6.4-3.88,0,0-6.64-9.69-15.87-10.23S156.09,135,156.09,135Z"/><path class="cls-5" d="M106.2,133s8.93,6.52,7.9,8.07-6.5,5.23-6.5,5.23a38.47,38.47,0,0,0-13.77,2.42c2.67-.24,5.39-.52,6.54.74-4.44,1-6.35,3-7.08,5.54,3.94-3,6.5-4.27,9.55-4.13-1.72,2.28-1.54,3.41-1.17,6.36,1.23-3.46,2.82-6.49,5.88-7.81-1.4,2.39-1.21,4.82-.67,7.26-.33-.34,1.55-7.53,3.94-8.08,2.08-.48,15-3,15.07-13.8s-18.64-1.91-18.64-1.91Z"/><path class="cls-5" d="M74.7,110.5S85.37,132.13,100,124.71c10.17-10.29-4.45-13.78-4.45-13.78C94.4,122.16,85.31,117.82,74.7,110.5Z"/><path class="cls-1" d="M124.09,141s-1.14-9.14-9.43-12.82c2.41-1,39.16-.64,44.79,10.44C138.24,144.64,124.09,141,124.09,141Z"/><polygon class="cls-5" points="92.35 99.27 95.78 100.1 94.75 96.84 92.35 99.27"/><polygon class="cls-5" points="96.43 100.55 99.72 101.8 99.11 98.44 96.43 100.55"/><polygon class="cls-5" points="100.4 101.98 103.68 103.28 103.12 99.91 100.4 101.98"/><polygon class="cls-5" points="104.53 103.55 107.78 104.91 107.29 101.53 104.53 103.55"/><polygon class="cls-5" points="108.63 105.43 111.96 106.57 111.24 103.23 108.63 105.43"/><polygon class="cls-5" points="112.81 107.02 116.1 108.27 115.49 104.91 112.81 107.02"/><polygon class="cls-5" points="116.94 108.69 120.26 109.86 119.58 106.52 116.94 108.69"/><polygon class="cls-5" points="121.01 110.32 124.36 111.42 123.59 108.09 121.01 110.32"/><polygon class="cls-5" points="125.42 111.81 128.73 113.01 128.07 109.66 125.42 111.81"/><polygon class="cls-5" points="129.68 113.35 132.97 114.63 132.39 111.27 129.68 113.35"/><polygon class="cls-5" points="133.7 114.99 137.06 116.03 136.25 112.72 133.7 114.99"/><polygon class="cls-5" points="137.77 116.26 141.14 117.3 140.32 113.99 137.77 116.26"/><polygon class="cls-5" points="141.77 117.46 145.18 118.34 144.2 115.07 141.77 117.46"/><polygon class="cls-5" points="146.01 118.64 149.4 119.59 148.49 116.3 146.01 118.64"/><polygon class="cls-5" points="150.18 119.8 153.6 120.61 152.56 117.36 150.18 119.8"/><polygon class="cls-5" points="154.37 120.89 157.75 121.86 156.87 118.57 154.37 120.89"/><polygon class="cls-5" points="158.42 122.1 161.88 122.74 160.68 119.55 158.42 122.1"/><polygon class="cls-5" points="162.59 122.9 166.05 123.55 164.85 120.35 162.59 122.9"/><rect class="cls-8" x="162.76" y="50.76" width="18.04" height="27.24"/><rect class="cls-4" x="130.65" y="73.79" width="82.27" height="34.21"/><rect class="cls-9" x="130.65" y="107.73" width="82.36" height="27.39"/><rect class="cls-9" x="155.05" y="73.52" width="33.46" height="34.21"/><rect class="cls-9" x="130.65" y="73.52" width="17.86" height="34.21"/><rect class="cls-9" x="195.09" y="73.79" width="17.86" height="34.21"/><polygon class="cls-9" points="171.78 58.07 155.05 73.52 188.51 73.52 171.78 58.07"/><polygon class="cls-8" points="171.78 50.76 171.78 5.53 167.11 50.76 171.78 50.76"/><polygon class="cls-10" points="162.76 50.76 171.78 5.53 167.11 50.76 162.76 50.76"/><polygon class="cls-11" points="171.78 50.76 171.78 5.53 176.45 50.76 171.78 50.76"/><polygon class="cls-10" points="180.8 50.76 171.78 5.53 176.45 50.76 180.8 50.76"/><rect class="cls-8" x="130.56" y="67.06" width="18.04" height="7.1"/><polygon class="cls-8" points="139.58 67.06 139.58 21.83 134.91 67.06 139.58 67.06"/><polygon class="cls-10" points="130.56 67.06 139.58 21.83 134.91 67.06 130.56 67.06"/><polygon class="cls-11" points="139.58 67.06 139.58 21.83 144.24 67.06 139.58 67.06"/><polygon class="cls-10" points="148.6 67.06 139.58 21.83 144.24 67.06 148.6 67.06"/><rect class="cls-8" x="194.96" y="67.33" width="18.04" height="6.67"/><polygon class="cls-8" points="203.98 67.33 203.98 22.1 199.31 67.33 203.98 67.33"/><polygon class="cls-10" points="194.96 67.33 203.98 22.1 199.31 67.33 194.96 67.33"/><polygon class="cls-11" points="203.98 67.33 203.98 22.1 208.65 67.33 203.98 67.33"/><polygon class="cls-10" points="213 67.33 203.98 22.1 208.65 67.33 213 67.33"/><rect class="cls-8" x="168.8" y="12.57" width="5.97" height="2.56"/><path class="cls-8" d="M166,115h13a2.88,2.88,0,0,1,2.88,2.88v17.26a0,0,0,0,1,0,0H163.09a0,0,0,0,1,0,0V117.85A2.88,2.88,0,0,1,166,115Z"/><rect class="cls-8" x="135.07" y="121.96" width="7.3" height="13.15"/><rect class="cls-8" x="147.75" y="121.96" width="7.3" height="13.15"/><rect class="cls-8" x="155.14" y="96.63" width="33.46" height="8.25"/><rect class="cls-8" x="130.65" y="94.08" width="24.49" height="10.8"/><rect class="cls-8" x="188.45" y="94.08" width="24.49" height="10.8"/><rect class="cls-8" x="188.45" y="121.96" width="7.3" height="13.15"/><rect class="cls-8" x="201.13" y="121.96" width="7.3" height="13.15"/><path class="cls-12" d="M171.87,65.05c-8.16,6.19-12,15-13.9,25a52.87,52.87,0,0,0,13.9,2.32A52.87,52.87,0,0,0,185.77,90C183.87,80,180,71.24,171.87,65.05Z"/><circle class="cls-13" cx="171.87" cy="81.56" r="9.75"/><path class="cls-5" d="M162.65,134.64c.7-.3-7.5-14.3-7.5-14.3-6.08-.84-9.66.61-11.59,3.56l9.54,8.73a29,29,0,0,0-15.73-4.88c-4.36-.34-7.35,2-10.05,4.88a42.25,42.25,0,0,1,6.42,6.61c-6.76-1.43-11,1-12.6,7.74a10.93,10.93,0,0,0,1,6.18c4.75-3.16,9-4.07,12.6-2.09-8.62,2.07-10.34,6.46-11.68,11-1.66,5.56-.94,9.72,1.45,12.91,0,0,11.47-29.16,38.14-40.32"/><path class="cls-5" d="M189.93,134.64c-.7-.3,7.5-14.3,7.5-14.3,6.08-.84,9.66.61,11.59,3.56l-9.54,8.73a29,29,0,0,1,15.73-4.88c4.36-.34,7.35,2,10,4.88a42.25,42.25,0,0,0-6.42,6.61c6.76-1.43,11,1,12.6,7.74a10.93,10.93,0,0,1-1,6.18c-4.75-3.16-9-4.07-12.6-2.09,8.62,2.07,10.34,6.46,11.68,11,1.66,5.56.94,9.72-1.45,12.91,0,0-11.47-29.16-38.14-40.32"/><path class="cls-10" d="M175,143.68c1.27-7.4,4.22-13.42,12.09-15.46,1.61.27,3.09.62,3.76,1.49.4-.61,1.14-.67,2.28-.1a6.1,6.1,0,0,1,3,3.36c5.32.26,8.43,2.53,9.61,6.54-.71,5.19-3.59,7.9-7.13,9.84l-6.24,2.15A29,29,0,0,1,175,143.68"/><path class="cls-10" d="M175.09,143.68c-1.26-7.4-4.21-13.42-12.08-15.46a14.58,14.58,0,0,0-3.77,1.49s-1.32-.88-2.28-.1a6.1,6.1,0,0,0-3,3.36c-5.32.26-8.42,2.53-9.61,6.54.72,5.19,3.59,7.9,7.13,9.84l6.25,2.15a29,29,0,0,0,17.33-7.82"/><path class="cls-10" d="M175,143.39a12.76,12.76,0,0,1,8.33,3.46l4.55,4.86a11.94,11.94,0,0,1,5.65,1.88c6.93,6.16,7.47,10.92,3.86,14.76a43.1,43.1,0,0,1-13.67-9.9A135.11,135.11,0,0,1,175,143.39"/><path class="cls-10" d="M175.09,143.39a12.76,12.76,0,0,0-8.32,3.46l-4.56,4.86a11.9,11.9,0,0,0-5.64,1.88c-6.93,6.16-7.47,10.92-3.87,14.76a43,43,0,0,0,13.68-9.9,135,135,0,0,0,8.71-15.06"/><polygon class="cls-14" points="174.99 143.39 167.91 154.61 182.08 154.61 174.99 143.39"/><path class="cls-4" d="M180.63,157.18c0,4.53-2.52,8.19-5.64,8.19s-5.63-3.66-5.63-8.19S171.88,149,175,149s5.64,3.66,5.64,8.18"/><path class="cls-1" d="M169.24,149.58c-1,.62-1.2,2.14-1,4.07-2.17.84-3.47,2.43-3.47,4.35a2.48,2.48,0,0,0,2.87,2.48l1.29,5.75c.73,1.93,2.2,1.7,3.67,1.48-.26,2.78.88,3.57,2.37,3.87v-8.92c-3.88-3.81-4.3-8.12,0-13.08.28-1.77-5.32-1.67-5.74,0"/><path class="cls-1" d="M181.74,153.65c.2-1.93,0-3.45-1-4.07-.42-1.67-6-1.78-5.75,0,4.31,5,3.89,9.27,0,13.08v8.92c1.5-.3,2.64-1.09,2.38-3.87,1.47.22,2.94.45,3.67-1.48l1.28-5.75a2.48,2.48,0,0,0,2.88-2.48c0-1.92-1.3-3.51-3.47-4.35"/><path class="cls-2" d="M101.44,17.4a1.93,1.93,0,0,0-1.76-1.14h0A2.16,2.16,0,0,1,98,15.6a2.74,2.74,0,0,0-2.06-.93h-.29a2.47,2.47,0,0,1-2.1-.72,3.62,3.62,0,0,0-2.63-1.12,5.59,5.59,0,0,0-5.75,4.56Z"/><path class="cls-2" d="M103.34,49.21a3.37,3.37,0,0,0-3.07-2h0a3.79,3.79,0,0,1-2.94-1.14,4.73,4.73,0,0,0-3.58-1.63,4.53,4.53,0,0,0-.52,0,4.35,4.35,0,0,1-3.64-1.26A6.29,6.29,0,0,0,85,41.28c-3.39,0-8.92,1.71-10,7.93Z"/><path class="cls-2" d="M152.12,14.85a1.92,1.92,0,0,0-1.76-1.14h0a2.19,2.19,0,0,1-1.69-.66,2.7,2.7,0,0,0-2.06-.94,1.37,1.37,0,0,0-.29,0,2.51,2.51,0,0,1-2.1-.73,3.62,3.62,0,0,0-2.62-1.12,5.6,5.6,0,0,0-5.76,4.57Z"/><rect class="cls-15" width="335.82" height="175.95"/></g></g></svg>