<svg xmlns="http://www.w3.org/2000/svg" viewBox="0 0 264.17 138.42"><defs><style>.cls-1{fill:#5e6092;}.cls-2{fill:#f5f7d4;}.cls-3{fill:#00b1d6;}.cls-4{fill:#4dbea2;}.cls-5{fill:#93d2c0;}.cls-6{fill:#f9bb15;}.cls-7{fill:#ea6755;}.cls-8{fill:#0b0a0d;}.cls-9{fill:#4a82c3;}.cls-10{fill:#464324;}.cls-11{fill:#1d180e;}.cls-12,.cls-15{fill:none;}.cls-12{stroke:#464324;stroke-linecap:round;stroke-linejoin:round;stroke-width:3.77px;}.cls-13{fill:#7a883e;}.cls-14{fill:#3a80c3;}</style></defs><g id="Capa_2" data-name="Capa 2"><g id="Layer_1" data-name="Layer 1"><path class="cls-1" d="M81.43,28.71S75.05,30.29,75.05,24l6.09,0Z"/><path class="cls-1" d="M94.92,2.67c8.87-.6,11.93,8,11.93,8L107,77.85s-24.61,8.34-24.41-7,.52-59.46.52-59.46S83.78,3.41,94.92,2.67Z"/><path class="cls-2" d="M83.9,8.77s1.93-.14,6.67,0c17.82,1.1,4.61,44.59,3.37,56.92-.51,5.07-11.39.77-11.39.77S78,11.47,83.9,8.77Z"/><circle class="cls-3" cx="86.62" cy="14.33" r="2.03"/><path class="cls-4" d="M81.43,16.36S70.58,13.79,70.58,24l10.36.06Z"/><rect class="cls-4" x="81.57" y="52.7" width="9.83" height="36.54" rx="4.01"/><rect class="cls-1" x="89.24" y="60.39" width="9.83" height="36.54" rx="4.01"/><rect class="cls-5" x="97.13" y="63.66" width="9.83" height="36.54" rx="4.01"/><path class="cls-1" d="M107,76.35C92.43,76.35,80.65,64,80.65,48.73S92.43,21.11,107,21.11Z"/><path class="cls-5" d="M106.91,69.09C96.45,69.09,88,60.18,88,49.2s8.48-19.89,18.94-19.89Z"/><polygon class="cls-6" points="156.34 23.6 154.14 23.6 151.94 23.6 148.04 125.78 154.14 125.78 160.24 125.78 156.34 23.6"/><path class="cls-6" d="M181.56,25.49c-10.53-6.38-23.08-6-28.07.73l38.23,23.16C196.63,42.55,192.1,31.87,181.56,25.49Z"/><path class="cls-6" d="M179.2,13.53c-12.51-1.68-23.71,3.5-25.06,11.57l45.4,6.1C200.8,23.12,191.71,15.21,179.2,13.53Z"/><path class="cls-6" d="M168.77,3.66c-11.71,4.36-18.46,14-15.12,21.59L196.14,9.43C192.71,1.88,180.47-.7,168.77,3.66Z"/><path class="cls-6" d="M126.25,25.6c10.54-6.38,23.09-6,28.08.74L116.1,49.49C111.19,42.66,115.72,32,126.25,25.6Z"/><path class="cls-6" d="M128.62,13.65c12.51-1.69,23.71,3.49,25.06,11.56l-45.4,6.11C107,23.23,116.11,15.33,128.62,13.65Z"/><path class="cls-6" d="M139.05,3.77c11.71,4.36,18.46,14,15.12,21.6L111.68,9.54C115.11,2,127.35-.59,139.05,3.77Z"/><rect class="cls-7" x="105.15" y="29.57" width="19.04" height="85.25"/><polygon class="cls-8" points="124.19 55.59 132.86 60.13 132.86 69.04 151.72 74.01 151.72 114.82 124.19 114.82 124.19 55.59"/><polygon class="cls-8" points="105.15 55.59 96.47 60.13 96.47 69.04 77.61 74.01 77.61 114.82 105.15 114.82 105.15 55.59"/><polygon class="cls-8" points="114.67 20.97 105.15 29.57 124.19 29.57 114.67 20.97"/><polygon class="cls-8" points="151.72 81.28 165.09 86.11 165.09 114.82 151.72 114.82 151.72 81.28"/><polygon class="cls-8" points="78.23 81.28 64.86 86.11 64.86 114.82 78.23 114.82 78.23 81.28"/><path class="cls-2" d="M122.32,100.82h0v-.35h0a7.65,7.65,0,0,0-15.29,0h0v14.35h15.31v-14Z"/><rect class="cls-6" x="108.05" y="31.46" width="13.54" height="11.87"/><rect class="cls-6" x="108.05" y="44.53" width="5.88" height="11.87"/><rect class="cls-6" x="115.7" y="44.53" width="5.88" height="11.87"/><rect class="cls-9" x="105.15" y="87.72" width="19.04" height="2.52"/><rect class="cls-9" x="105.29" y="59.99" width="19.04" height="2.52"/><rect class="cls-9" x="124.25" y="81.28" width="27.38" height="2.52"/><rect class="cls-9" x="77.69" y="81.28" width="27.38" height="2.52"/><rect class="cls-9" x="56.9" y="92.49" width="42.41" height="2.25" transform="translate(171.72 15.5) rotate(90)"/><rect class="cls-9" x="129.67" y="92.49" width="42.41" height="2.25" transform="translate(244.49 -57.26) rotate(90)"/><rect class="cls-2" x="106.92" y="68.32" width="15.49" height="15.49" rx="7.74"/><rect class="cls-6" x="108.64" y="70.03" width="12.06" height="12.06" rx="6.03"/><path class="cls-2" d="M86.81,97.08h0a4.13,4.13,0,0,1,4.13,4.13v13.61a0,0,0,0,1,0,0H82.68a0,0,0,0,1,0,0V101.21A4.13,4.13,0,0,1,86.81,97.08Z"/><rect class="cls-7" x="95.24" y="51.42" width="5.66" height="63.72"/><polygon class="cls-8" points="98.07 44.99 95.24 51.42 100.9 51.42 98.07 44.99"/><rect class="cls-7" x="130.45" y="51.1" width="5.66" height="63.72"/><polygon class="cls-8" points="133.28 44.67 130.45 51.1 136.11 51.1 133.28 44.67"/><path class="cls-2" d="M143.08,96.08h0a4.13,4.13,0,0,1,4.13,4.13v13.61a0,0,0,0,1,0,0H139a0,0,0,0,1,0,0V100.21A4.13,4.13,0,0,1,143.08,96.08Z"/><path class="cls-10" d="M47.72,113.47S49.15,103.05,41.18,96s6.27-11.37,6.27-11.37,7.86,16.41,1.87,28.86Z"/><path class="cls-6" d="M75,114.48c-.35-2-4.84-10.13-4.84-10.13l4.31-10.49-6.81-3.31s-2.78,11.92-2.69,13.62,2.86,8.43,8.78,11.2Z"/><path class="cls-6" d="M66.61,114c-.36-2-4.84-10.13-4.84-10.13l4.3-10.48L59.26,90.1S56.48,102,56.57,103.72s2.87,8.43,8.78,11.21Z"/><path class="cls-6" d="M35.89,81.59c.39-.22,12.17-7.37,38.54,12.27-6.55,20-28.68-2.68-28.68-2.68Z"/><path class="cls-10" d="M72.47,81.65c-1.88,0-3.13,3.36-3.13,3.36s-1.24-3.36-3.12-3.36-7.46,6.73-7.46,6.73a10.58,10.58,0,1,0,21.16,0S74.35,81.65,72.47,81.65Z"/><path class="cls-11" d="M69.34,77.79A10.59,10.59,0,0,0,58.76,88.38s5.58-6.73,7.46-6.73S69.34,85,69.34,85s1.25-3.36,3.13-3.36,7.45,6.73,7.45,6.73A10.58,10.58,0,0,0,69.34,77.79Z"/><path class="cls-10" d="M36.43,113l8.51-12.49s4.84-21-2.51-21.47c-6.54.65-6.54,5.18-6.54,5.18-.18,4,.71,9.7,3,17.48L33.65,113Z"/><path class="cls-12" d="M41.17,84.61s-9.58-4.74-9.58-10.93S54,71.44,54,65.17s-11.49-9.3-11.49-9.3"/><path class="cls-10" d="M32.22,115.73s-.36-3.13,2.59-3.13,6.1,1.34,6.1,3.13Z"/><path class="cls-10" d="M45.18,115.73s-.36-3.13,2.59-3.13,6.1,1.34,6.1,3.13Z"/><path class="cls-10" d="M64.35,115.73S64,112.6,67,112.6s6.1,1.34,6.1,3.13Z"/><path class="cls-10" d="M71.23,115.73s-.36-3.13,2.6-3.13,6.09,1.34,6.09,3.13Z"/><path class="cls-13" d="M61.79,86.57S59.33,81,57.08,83.48C53,88,59.39,96.12,61.79,93.35Z"/><path class="cls-13" d="M76.9,86.57s2.45-5.57,4.71-3.09C85.72,88,79.3,96.12,76.9,93.35Z"/><path class="cls-13" d="M74.14,94.5a3.75,3.75,0,0,0-3.33-4s0,1.48-.68,1.48-.79-.26-.79-.26-.1.26-.78.26-.68-1.48-.68-1.48a3.76,3.76,0,0,0-3.34,4,3.4,3.4,0,0,0,.12.88H74A3.42,3.42,0,0,0,74.14,94.5Z"/><path class="cls-11" d="M69.34,98.15s4,0,4.69-2.77H64.66C65.37,98.14,69.34,98.15,69.34,98.15Z"/><circle class="cls-11" cx="66.22" cy="86.88" r="1.88"/><circle class="cls-11" cx="72.5" cy="86.88" r="1.88"/><path class="cls-14" d="M210.68,114.16l4.7.27H34.31v5.26a7,7,0,0,0,7.22,6.8H59.34a5.29,5.29,0,0,1,5.44,5.12h0a5.42,5.42,0,0,0,5.58,5.26h82.5c6,0,10.78-4.54,10.78-10.15v-1.2h40.15c6.18,0,11.27-4.58,11.56-10.4l0-.69"/><rect class="cls-4" x="157.8" y="112.14" width="9.31" height="12.14" rx="3.63"/><rect class="cls-4" x="192.06" y="112.14" width="9.31" height="12.14" rx="3.63"/><path class="cls-7" d="M182.8,85.61a28.9,28.9,0,0,0-28.89,28.9h57.78A28.89,28.89,0,0,0,182.8,85.61Z"/><path class="cls-4" d="M182.8,118.21c16,0,28.89-1.66,28.89-3.7H153.91C153.91,116.55,166.85,118.21,182.8,118.21Z"/><path class="cls-4" d="M205.39,115.57s5.71-20.28,16.24-22.1,11,11,11,11c-2.49,5-13.6,7.7-22.14,11.07Z"/><rect class="cls-15" width="264.17" height="138.42"/></g></g></svg>