<svg xmlns="http://www.w3.org/2000/svg" viewBox="0 0 333.73 174.86"><defs><style>.cls-1,.cls-10{fill:none;}.cls-2{fill:#002735;}.cls-3{fill:#4a82c3;}.cls-4{fill:#f5f7d4;}.cls-5{fill:#059370;}.cls-6{fill:#e26160;}.cls-7{fill:#ec6755;}.cls-8{fill:#f9bb15;}.cls-9{fill:#3a80c3;}.cls-10{stroke:#002735;stroke-miterlimit:10;}.cls-11{fill:#c2cad4;}.cls-12{fill:#8d9872;}</style></defs><g id="Capa_2" data-name="Capa 2"><g id="Layer_1" data-name="Layer 1"><rect class="cls-1" width="333.73" height="174.86"/><path class="cls-2" d="M91.15,78.13c-2.08,7.12,3.61,24.74,3.61,24.74L94.28,117h7l4.34-29.68Z"/><path class="cls-2" d="M132.35,78.13c-2.07,7.12.53,14.86,6.28,23L135.49,117h7l4.34-29.68Z"/><path class="cls-3" d="M107.07,107.6l-2.41,10.86h7l1.2-11.58c2.47-2.29,4.26-5.68,4.34-11.82,8,1.18,15.37.52,22-2.66,1.91,4.13,4.09,8.09,8.93,10.46l-1.69,15.6h9.65V97.23c4.51-11.18,6.43-21.57,0-29.44-6.61-5.72-17.48-7.06-31.37-5.3-18.31-.64-31.59-3.87-42.7-8.21C81,68.9,91.36,87.35,107.07,107.6Z"/><ellipse class="cls-3" cx="81.74" cy="62.73" rx="13.99" ry="17.13"/><rect class="cls-4" x="68.95" y="70.6" width="26.06" height="13.27" rx="4.1"/><rect class="cls-4" x="94.76" y="116.98" width="6.17" height="6.17"/><rect class="cls-4" x="105.32" y="118.46" width="6.17" height="6.17"/><rect class="cls-4" x="148.43" y="118.46" width="6.17" height="6.17"/><rect class="cls-4" x="136.15" y="116.98" width="6.17" height="6.17"/><path class="cls-5" d="M65.25,52.06c3.86-2.62,8-3.23,9.29-1.35s-.82,5.52-4.67,8.14-9.29,1.35-9.29,1.35S61.4,54.68,65.25,52.06Z"/><path class="cls-5" d="M98.22,52.06c-3.85-2.62-8-3.23-9.28-1.35s.82,5.52,4.67,8.14,9.29,1.35,9.29,1.35S102.08,54.68,98.22,52.06Z"/><path class="cls-4" d="M70.36,36.13S66.54,43.28,71.47,52s7-4,7-4S72,46.6,70.36,36.13Z"/><path class="cls-4" d="M92.1,36.13S95.92,43.28,91,52s-7-4-7-4S90.51,46.6,92.1,36.13Z"/><path class="cls-5" d="M175.71,151.94s9.1-44.36-39.66-38.48c0,0,32.27,6.59,37.94,40.09Z"/><path class="cls-5" d="M176.38,153.55l11.69-33.5,21.64-16.66s-28.51,1.12-35,28.9L174,153.55Z"/><path class="cls-5" d="M170.72,129.67l-3.43-31.09L148.91,75.91s33.31,9.18,29.11,47.36l-1.64,12.24Z"/><path class="cls-5" d="M175,105.71S174.33,93.77,197.18,86s0,.86,0,.86l-16,15.63-3.88,25.94Z"/><path class="cls-5" d="M169.57,95.58S165.45,59.46,188,5.4c0,0-22.31,55.76-16,91.88Z"/><path class="cls-5" d="M172.72,105.71s1.7-35.34,27.16-63.71c0,0-22.81,29.72-24.86,63.71Z"/><path class="cls-6" d="M171.26,67.68s7.07-12.3,6.53-5.13S171.26,67.68,171.26,67.68Z"/><path class="cls-6" d="M171.26,67.53s-3.56-13.74-4.93-6.67S171.26,67.53,171.26,67.53Z"/><path class="cls-6" d="M172.9,56.92s7.07-12.31,6.52-5.13S172.9,56.92,172.9,56.92Z"/><path class="cls-6" d="M172.9,56.77S169.34,43,168,50.09,172.9,56.77,172.9,56.77Z"/><path class="cls-6" d="M175,46.67s7.07-12.31,6.52-5.13S175,46.67,175,46.67Z"/><path class="cls-6" d="M175,46.52s-3.56-13.74-4.94-6.68S175,46.52,175,46.52Z"/><path class="cls-6" d="M177.56,36s7.07-12.31,6.53-5.13S177.56,36,177.56,36Z"/><path class="cls-6" d="M177.56,35.85s-3.55-13.74-4.93-6.67S177.56,35.85,177.56,35.85Z"/><path class="cls-6" d="M180.84,25.25s7.07-12.3,6.53-5.12S180.84,25.25,180.84,25.25Z"/><path class="cls-6" d="M180.84,25.11s-3.56-13.74-4.93-6.68S180.84,25.11,180.84,25.11Z"/><path class="cls-6" d="M185,13.36s7.07-12.3,6.53-5.12S185,13.36,185,13.36Z"/><path class="cls-6" d="M185,13.21s-3.55-13.73-4.93-6.67S185,13.21,185,13.21Z"/><path class="cls-6" d="M184.31,67.51s9.88-10.18,7.59-3.36S184.31,67.51,184.31,67.51Z"/><path class="cls-6" d="M184.35,67.37s-.07-14.19-3.14-7.68S184.35,67.37,184.35,67.37Z"/><path class="cls-6" d="M189.18,57.69s9.88-10.18,7.59-3.36S189.18,57.69,189.18,57.69Z"/><path class="cls-6" d="M189.22,57.55s-.07-14.19-3.14-7.68S189.22,57.55,189.22,57.55Z"/><path class="cls-6" d="M194.33,48.82s9.88-10.18,7.59-3.36S194.33,48.82,194.33,48.82Z"/><path class="cls-6" d="M194.37,48.68s-.07-14.19-3.14-7.68S194.37,48.68,194.37,48.68Z"/><rect class="cls-2" x="130.84" y="98.5" width="26.87" height="44.28" transform="translate(288.55 241.29) rotate(-180)"/><polygon class="cls-3" points="150.21 81.03 169.13 98.5 130.63 98.5 150.21 81.03"/><polygon class="cls-7" points="93.88 98.5 130.84 98.5 150.31 81.03 114.52 81.03 93.88 98.5"/><rect class="cls-7" x="93.88" y="98.5" width="36.96" height="44.28"/><rect class="cls-2" x="166.93" y="98.5" width="2.19" height="44.28" transform="translate(336.06 241.29) rotate(-180)"/><rect class="cls-8" x="140.21" y="111.88" width="2.19" height="21.11" transform="translate(263.74 -18.87) rotate(90)"/><rect class="cls-8" x="130.63" y="98.5" width="2.19" height="44.28" transform="translate(263.46 241.29) rotate(-180)"/><rect class="cls-8" x="150.76" y="98.5" width="2.19" height="44.28" transform="translate(303.72 241.29) rotate(-180)"/><rect class="cls-8" x="146.84" y="122.1" width="1.77" height="20.74" transform="translate(295.45 264.93) rotate(-180)"/><rect class="cls-8" x="143.16" y="122.1" width="1.77" height="20.74" transform="translate(288.08 264.93) rotate(-180)"/><rect class="cls-8" x="139.31" y="122.1" width="1.77" height="20.74" transform="translate(280.38 264.93) rotate(-180)"/><rect class="cls-8" x="135.31" y="122.1" width="1.77" height="20.74" transform="translate(272.39 264.93) rotate(-180)"/><path class="cls-9" d="M248,142.57l4.7.27H71.63v5.26a7,7,0,0,0,7.22,6.8h17.8a5.28,5.28,0,0,1,5.44,5.12h0a5.43,5.43,0,0,0,5.59,5.26h82.5c5.95,0,10.78-4.54,10.78-10.15v-1.2H241.1c6.19,0,11.28-4.58,11.56-10.4l0-.69"/><ellipse class="cls-7" cx="200.63" cy="136.6" rx="27.46" ry="33.74"/><path class="cls-7" d="M159.9,144.33s10.54-.35,19.3,13.38V116.32s-10.13,14.59-19.3,13.77Z"/><circle class="cls-2" cx="184.82" cy="136.98" r="8.08"/><rect class="cls-2" x="142.04" y="99.07" width="9.59" height="76.95" transform="translate(282.31 -11.2) rotate(89.2)"/><rect class="cls-4" x="203.38" y="135" width="18.52" height="3.19" transform="translate(346.24 -77.94) rotate(89.2)"/><rect class="cls-2" x="105.12" y="114.95" width="13" height="45.8" transform="translate(247.89 24.31) rotate(89.2)"/><circle class="cls-4" cx="106.14" cy="144.91" r="2"/><circle class="cls-4" cx="99.37" cy="145" r="2"/><circle class="cls-4" cx="92.61" cy="145.1" r="2"/><circle class="cls-4" cx="106" cy="131.42" r="2"/><circle class="cls-4" cx="99.24" cy="131.52" r="2"/><circle class="cls-4" cx="92.47" cy="131.61" r="2"/><circle class="cls-4" cx="119.8" cy="144.67" r="2"/><circle class="cls-4" cx="113.04" cy="144.76" r="2"/><circle class="cls-4" cx="119.67" cy="131.18" r="2"/><circle class="cls-4" cx="112.9" cy="131.27" r="2"/><path class="cls-5" d="M224.15,58.68s0,0,0-.08a6.17,6.17,0,0,0-.18-1.44,4,4,0,0,0-.16-.55,6.18,6.18,0,1,0-9,7.3c-5.39,6.49-6.74,12.45-5.24,18,2.21-1,6-3.08,7.87-5.9,2.83-4.15,1,.17,1.66,1,.25.31,1,.08,1.87-.33a1.86,1.86,0,0,0,0-.33C220.32,73.26,224.26,64.08,224.15,58.68Z"/><polyline class="cls-10" points="239.93 101.77 242.59 119.56 215.28 131.19 215.28 136.02"/><path class="cls-5" d="M210,83.45c4.56,10.76,12.66,18.07,24.7,21.51a25.35,25.35,0,0,0,4.66,7.32h4.16v-4.49l25.77,5.65L225.48,75.57l-10.52.8Z"/><path class="cls-11" d="M273.15,115.61s-66.34-20.79-51-37.58S273.15,115.61,273.15,115.61Z"/><path class="cls-6" d="M221,76.7c-.86.41-1.62.64-1.87.33-.66-.83,1.17-5.15-1.66-1-1.91,2.82-5.66,4.87-7.87,5.9a21.37,21.37,0,0,0,2.88,6.24S221.29,80.92,221,76.7Z"/><path class="cls-12" d="M213.63,58.74l4.49,6.15S194.84,85,193.51,83.35,213.63,58.74,213.63,58.74Z"/><polyline class="cls-10" points="230.24 103.42 230.24 148.94 225.93 148.94"/><path class="cls-5" d="M237.79,101.77c-2.63.85-5.42,9.57-5.42,9.57l-4.29-.09.72-9.27Z"/></g></g></svg>