<svg xmlns="http://www.w3.org/2000/svg" viewBox="0 0 293.06 153.55"><defs><style>.cls-1{fill:#002735;}.cls-2{fill:#f9bb15;}.cls-3{fill:#4a82c3;}.cls-4{fill:#f5f7d4;}.cls-5{fill:#04223e;}.cls-6{fill:#059370;}.cls-7{fill:#ed705c;}.cls-8{fill:none;}</style></defs><g id="Capa_2" data-name="Capa 2"><g id="Layer_1" data-name="Layer 1"><path class="cls-1" d="M125.4,12.77c10.72-9.55,22.34-9.41,34.71-1.26L158.82,41H127.2Z"/><path class="cls-2" d="M222.81,104.45l-62.7-92.94a21.68,21.68,0,0,1-9.33,6.68c1,9.53.2,18.77-4.74,23.71C127,61,109.87,45.71,103.93,68.71S73.26,90.39,73.06,90.38l-9.5,14.07Z"/><path class="cls-3" d="M103.93,68.71c5.94-23,23-7.73,42.11-26.81,4.94-4.94,5.7-14.18,4.74-23.71a24.33,24.33,0,0,1-8.57,1.54,23.08,23.08,0,0,1-16.81-7L73.06,90.38c.2,0,25,1.24,30.87-21.67"/><polygon class="cls-1" points="71.21 23.73 53.4 41.46 88.69 41.46 71.21 23.73"/><rect class="cls-4" x="44.82" y="41.46" width="42.1" height="44.11"/><rect class="cls-5" x="71.98" y="63.75" width="4.1" height="9.29"/><polygon class="cls-3" points="71.21 23.73 59.96 23.73 42.12 41.46 55.69 41.46 71.21 23.73"/><rect class="cls-5" x="66.25" y="61.12" width="1.75" height="5.26"/><rect class="cls-5" x="79.33" y="61.12" width="1.75" height="5.26"/><rect class="cls-5" x="66.25" y="45.09" width="1.75" height="5.26"/><rect class="cls-5" x="51.44" y="61.12" width="1.75" height="5.26"/><rect class="cls-5" x="51.44" y="45.09" width="1.75" height="5.26"/><rect class="cls-5" x="79.33" y="45.09" width="1.75" height="5.26"/><rect class="cls-5" x="42.12" y="41.46" width="0.76" height="17.61"/><rect class="cls-5" x="87.93" y="41.46" width="0.76" height="17.61"/><rect class="cls-5" x="85.25" y="51.79" width="0.76" height="7.19"/><rect class="cls-5" x="82.59" y="51.79" width="0.76" height="7.19"/><rect class="cls-5" x="79.83" y="51.79" width="0.76" height="7.19"/><rect class="cls-5" x="76.93" y="51.79" width="0.76" height="7.19"/><rect class="cls-5" x="74.26" y="51.79" width="0.76" height="7.19"/><rect class="cls-5" x="71.51" y="51.79" width="0.76" height="7.19"/><rect class="cls-5" x="68.58" y="51.79" width="0.76" height="7.19"/><rect class="cls-5" x="65.92" y="51.79" width="0.76" height="7.19"/><rect class="cls-5" x="63.16" y="51.79" width="0.76" height="7.19"/><rect class="cls-5" x="60.29" y="51.79" width="0.76" height="7.19"/><rect class="cls-5" x="57.63" y="51.79" width="0.76" height="7.19"/><rect class="cls-5" x="54.88" y="51.79" width="0.76" height="7.19"/><rect class="cls-5" x="52.04" y="51.41" width="0.76" height="7.19"/><rect class="cls-5" x="49.38" y="51.41" width="0.76" height="7.19"/><rect class="cls-5" x="46.62" y="51.41" width="0.76" height="7.19"/><rect class="cls-5" x="44.44" y="51.41" width="0.76" height="7.19"/><rect class="cls-5" x="65.2" y="34.44" width="0.76" height="48.49" transform="translate(124.26 -6.89) rotate(90)"/><rect class="cls-5" x="65.02" y="28.88" width="0.76" height="45.8" transform="translate(117.19 -13.62) rotate(90)"/><rect class="cls-4" x="187.33" y="32.49" width="59.97" height="114.59"/><rect class="cls-3" x="184.23" y="65.51" width="67.5" height="3.1"/><rect class="cls-3" x="184.23" y="27.15" width="65.35" height="5.34"/><rect class="cls-5" x="205.41" y="89.78" width="5.42" height="8.71"/><rect class="cls-5" x="223.44" y="89.78" width="5.42" height="8.71"/><path class="cls-5" d="M206.88,46.74h0a5,5,0,0,1,5,5V65.51a0,0,0,0,1,0,0h-10a0,0,0,0,1,0,0V51.73a5,5,0,0,1,5-5Z"/><path class="cls-5" d="M228.87,46.74h0a5,5,0,0,1,5,5V65.51a0,0,0,0,1,0,0h-10a0,0,0,0,1,0,0V51.73A5,5,0,0,1,228.87,46.74Z"/><circle class="cls-3" cx="217.76" cy="58.19" r="3.21"/><rect class="cls-4" x="61.81" y="74.32" width="125.51" height="72.76"/><polygon class="cls-4" points="141.35 147.08 102.78 147.08 102.78 67.06 122.06 61.4 141.35 67.06 141.35 147.08"/><path class="cls-5" d="M71.25,86h0a5,5,0,0,1,5,5v13.78a0,0,0,0,1,0,0h-10a0,0,0,0,1,0,0V91A5,5,0,0,1,71.25,86Z"/><path class="cls-5" d="M93.24,86h0a5,5,0,0,1,5,5v13.78a0,0,0,0,1,0,0h-10a0,0,0,0,1,0,0V91A5,5,0,0,1,93.24,86Z"/><path class="cls-5" d="M152.74,86h0a5,5,0,0,1,5,5v13.78a0,0,0,0,1,0,0h-10a0,0,0,0,1,0,0V91a5,5,0,0,1,5-5Z"/><path class="cls-5" d="M174.73,86h0a5,5,0,0,1,5,5v13.78a0,0,0,0,1,0,0h-10a0,0,0,0,1,0,0V91A5,5,0,0,1,174.73,86Z"/><path class="cls-3" d="M123.19,123h0a10.43,10.43,0,0,1,10.43,10.43v13.77a0,0,0,0,1,0,0H112.76a0,0,0,0,1,0,0V133.4A10.43,10.43,0,0,1,123.19,123Z"/><rect class="cls-5" x="118.1" y="85.98" width="10.2" height="13.66"/><rect class="cls-3" x="59.44" y="113.41" width="127.89" height="3.98"/><rect class="cls-4" x="66.27" y="71.39" width="26.97" height="6.82"/><rect class="cls-4" x="150.47" y="71.39" width="28.94" height="6.82"/><polygon class="cls-6" points="213.63 148.06 161.03 148.06 157.59 88.57 217.07 88.57 213.63 148.06"/><path class="cls-1" d="M155.29,100.05s.08-6.66,6.66-6.66,8,6.66,8,6.66l1.38,24.81H181v10.56s-23.22,1.84-25.74-1.83S155.29,100.05,155.29,100.05Z"/><path class="cls-1" d="M219.37,99.14s-.08-6.67-6.66-6.67-8,6.67-8,6.67l-1.38,24.8h-9.67v10.57s23.22,1.83,25.75-1.84S219.37,99.14,219.37,99.14Z"/><path class="cls-7" d="M187.23,131.24c0,7.84-2.78,5.72-6.2,5.72s-6.19,2.12-6.19-5.72,2.77-14.19,6.19-14.19S187.23,123.4,187.23,131.24Z"/><path class="cls-7" d="M199.82,131.24c0,7.84-2.78,5.72-6.2,5.72s-6.19,2.12-6.19-5.72,2.77-14.19,6.19-14.19S199.82,123.4,199.82,131.24Z"/><path class="cls-2" d="M157.11,59.69h60.43a0,0,0,0,1,0,0V92a12.39,12.39,0,0,1-12.39,12.39H169.5A12.39,12.39,0,0,1,157.11,92V59.69A0,0,0,0,1,157.11,59.69Z"/><path class="cls-3" d="M151.51,62.52h5.6a0,0,0,0,1,0,0V82a0,0,0,0,1,0,0h-5.6a3.57,3.57,0,0,1-3.57-3.57V66.09A3.57,3.57,0,0,1,151.51,62.52Z"/><path class="cls-3" d="M221.11,62.52h5.6a0,0,0,0,1,0,0V82a0,0,0,0,1,0,0h-5.6a3.57,3.57,0,0,1-3.57-3.57V66.09a3.57,3.57,0,0,1,3.57-3.57Z" transform="translate(444.26 144.56) rotate(180)"/><path class="cls-1" d="M180.21,74.28h15a0,0,0,0,1,0,0V87.7a5.59,5.59,0,0,1-5.59,5.59H185.8a5.59,5.59,0,0,1-5.59-5.59V74.28A0,0,0,0,1,180.21,74.28Z"/><rect class="cls-1" x="175.09" y="82.04" width="25.71" height="8.48" rx="3.3"/><circle class="cls-1" cx="171.5" cy="73.55" r="3.77"/><circle class="cls-1" cx="203.15" cy="74.28" r="3.77"/><path class="cls-3" d="M165.2,44.38h44.26a11.91,11.91,0,0,1,11.91,11.91v3.4a0,0,0,0,1,0,0H153.29a0,0,0,0,1,0,0v-3.4A11.91,11.91,0,0,1,165.2,44.38Z"/><rect class="cls-6" x="147.21" y="51.72" width="80.23" height="7.97"/><path class="cls-4" d="M117.74,17.63a1.79,1.79,0,0,0-1.63-1.06h0a2,2,0,0,1-1.56-.61,2.5,2.5,0,0,0-1.9-.86h-.28a2.29,2.29,0,0,1-1.93-.66,3.38,3.38,0,0,0-2.43-1,5.16,5.16,0,0,0-5.32,4.22Z"/><path class="cls-4" d="M128.32,40.89a3.09,3.09,0,0,0-2.83-1.83h0A3.5,3.5,0,0,1,122.76,38a4.4,4.4,0,0,0-3.31-1.51,3.87,3.87,0,0,0-.48,0,4,4,0,0,1-3.36-1.16,5.84,5.84,0,0,0-4.22-1.8c-3.13,0-8.24,1.58-9.24,7.33Z"/><path class="cls-4" d="M177.54,17.63a1.8,1.8,0,0,0-1.63-1.06h0a2,2,0,0,1-1.56-.61,2.5,2.5,0,0,0-1.9-.86h-.27a2.3,2.3,0,0,1-1.94-.66,3.34,3.34,0,0,0-2.42-1,5.16,5.16,0,0,0-5.32,4.22Z"/><rect class="cls-8" width="293.06" height="153.55"/></g></g></svg>