<svg xmlns="http://www.w3.org/2000/svg" viewBox="0 0 332.05 173.98"><defs><style>.cls-1{fill:#eff4cd;}.cls-2{fill:#f16e5b;}.cls-3{fill:#04223e;}.cls-4{fill:#f9d445;}.cls-5{fill:#3882c4;}.cls-6{opacity:0.3;}.cls-7{fill:#f5f7d4;}.cls-8{fill:#f9bb15;}.cls-9{fill:#ed705c;}.cls-10{fill:#002735;}.cls-11{fill:#059370;}.cls-12{fill:none;}</style></defs><g id="Capa_2" data-name="Capa 2"><g id="Layer_1" data-name="Layer 1"><rect class="cls-1" x="130.47" y="68.62" width="60.47" height="51.43"/><rect class="cls-2" x="130.47" y="68.62" width="16.42" height="51.43"/><polygon class="cls-1" points="160.71 28.74 111.18 75.51 210.24 75.51 160.71 28.74"/><polygon class="cls-2" points="151.58 75.64 111.18 75.51 160.71 28.74 151.58 75.64"/><rect class="cls-3" x="176.34" y="86.37" width="8.1" height="33.36"/><rect class="cls-3" x="111.37" y="75.33" width="2.36" height="44.96"/><rect class="cls-3" x="124.35" y="75.35" width="2.36" height="44.96"/><rect class="cls-3" x="137.95" y="75.35" width="2.36" height="44.96"/><rect class="cls-3" x="149.62" y="75.34" width="2.36" height="44.96"/><rect class="cls-3" x="162.6" y="75.35" width="2.36" height="44.96"/><rect class="cls-3" x="196.18" y="75.35" width="2.36" height="44.96"/><rect class="cls-3" x="207.88" y="75.35" width="2.36" height="44.96"/><path class="cls-2" d="M157.51,6.68,149.9,11l-1.43-2.55,7.6-4.29A1.46,1.46,0,0,1,157.51,6.68Z"/><path class="cls-2" d="M154.19,5.2l-7.61,4.29-1.43-2.55,7.6-4.29A1.46,1.46,0,0,1,154.19,5.2Z"/><path class="cls-2" d="M161.25,7.92l-7.61,4.29-1.43-2.54,7.6-4.29A1.46,1.46,0,0,1,161.25,7.92Z"/><path class="cls-4" d="M133.19,23.75c-2.61-4.63.53-11.33,7-15S154,5.91,156.63,10.53h0L133.2,23.75Z"/><path class="cls-2" d="M136.69,21.78c-1.83-3.25.37-8,4.91-10.51s9.71-2,11.53,1.23h0l-16.45,9.27Z"/><ellipse class="cls-5" cx="148.68" cy="16.35" rx="3.31" ry="3.17" transform="translate(31.99 109.92) rotate(-45)"/><path class="cls-3" d="M149.21,21a1.91,1.91,0,0,0,.39-1.14s-.46.16-1.65-.4a5.62,5.62,0,0,1,1.55-1.74l1.16,1.47-.22.91-.28.51Z"/><path class="cls-6" d="M149.21,21a1.91,1.91,0,0,0,.39-1.14s-.46.16-1.65-.4a5.62,5.62,0,0,1,1.55-1.74l1.16,1.47-.22.91-.28.51Z"/><rect class="cls-4" x="135.36" y="27.63" width="1.49" height="6.09" transform="translate(18.18 105.23) rotate(-45)"/><path class="cls-4" d="M138.79,32.3l3.66.91-1.67,3.19-.12-2.23L138.74,34s-1.69,0-1.57,2.75a3.44,3.44,0,0,1-.35-4.31Z"/><ellipse class="cls-3" cx="135.12" cy="29.5" rx="3.04" ry="2.88" transform="translate(18.72 104.18) rotate(-45)"/><path class="cls-3" d="M133.12,18.36s-15.13,3.21-21.35.31c0,0,.22,5,18,3.06Z"/><path class="cls-3" d="M129.63,16.27s-15.13,3.2-21.34.3c0,0,.22,5,18,3.06Z"/><path class="cls-7" d="M139.26,23.8a6.76,6.76,0,0,1-2.84,4.95l-.79-1.32s.64.68-1.93,1.92l.18-1.1a5.82,5.82,0,0,1-5.52.9l1.45-1.46a4.23,4.23,0,0,1-4.22-1.32l1-1.05a6,6,0,0,1-4.32-1l1.63-1.7a8.53,8.53,0,0,0-3.42,1.55s.17-2.82,1.82-4.07l-5.07.33A6.55,6.55,0,0,1,123.17,17a11,11,0,0,1,9.29,0Z"/><path class="cls-7" d="M149.46,13.17a23.65,23.65,0,0,0-15.61,2.24L138,25.05s6.09-6,9.29-6.6Z"/><path class="cls-3" d="M151.87,16.83A3.1,3.1,0,0,1,149.21,21s1-.63.89-1.41a1.66,1.66,0,0,1-.6-1.87A3.61,3.61,0,0,1,151.87,16.83Z"/><path class="cls-2" d="M108.5,34.27l7.56-4.38-1.47-2.52L107,31.75A1.46,1.46,0,1,0,108.5,34.27Z"/><path class="cls-2" d="M108.91,30.66l7.55-4.38L115,23.75l-7.55,4.39A1.46,1.46,0,1,0,108.91,30.66Z"/><path class="cls-2" d="M107.68,38.13l7.55-4.38-1.46-2.53-7.55,4.38A1.46,1.46,0,0,0,107.68,38.13Z"/><path class="cls-4" d="M135.54,22c-2.66-4.59-10-5.28-16.46-1.56s-9.48,10.48-6.81,15.07h0L135.54,22Z"/><path class="cls-2" d="M132.07,24c-1.87-3.22-7-3.71-11.55-1.09s-6.65,7.35-4.78,10.57h0L132.07,24Z"/><polyline class="cls-5" points="133.85 15.41 130.79 17.76 139.26 23.8"/><path class="cls-4" d="M102.72,113h0a1.93,1.93,0,0,1-2.3-1.47L91.23,69.38l3.82-.83,9.15,42.17A1.94,1.94,0,0,1,102.72,113Z"/><path class="cls-4" d="M100.87,54.46c1.59,7.34-2,14.35-8.08,15.67S80.52,66.56,78.93,59.22,81,44.87,87,43.55,99.28,47.12,100.87,54.46Z"/><path class="cls-2" d="M86.2,62.32l-3.83-4.27L80.2,62.9a17.1,17.1,0,0,1-1.35-4l2.64-5.94,4.06,4.52,3.24-5.73L94,55.6l1.89-5.79,4.88,4.39a15,15,0,0,1,.43,4.16l-4-3.55-1.8,5.51-5.69-4.23Z"/><path class="cls-4" d="M93.7,120.82l0,0a1.94,1.94,0,0,1-1.09-2.51l15.85-40.12,3.63,1.43L96.2,119.73A1.93,1.93,0,0,1,93.7,120.82Z"/><ellipse class="cls-4" cx="115.41" cy="66.9" rx="13.6" ry="11.23" transform="translate(10.79 149.68) rotate(-68.45)"/><path class="cls-2" d="M109.29,69.4l-.81-5.68L104,66.54a17.48,17.48,0,0,1,1.13-4.11l5.5-3.46.85,6,5.89-3,2.19,6.16,4.8-3.76L126,70.78a14.91,14.91,0,0,1-2,3.7l-1.36-5.19-4.56,3.57-2.38-6.68Z"/><path class="cls-8" d="M81.27,119.73H99.11a5.13,5.13,0,0,1,5.13,5.13v6.52a5.2,5.2,0,0,1-5.2,5.2H81.27a0,0,0,0,1,0,0V119.73A0,0,0,0,1,81.27,119.73Z"/><path class="cls-3" d="M94,124.14h8a2.29,2.29,0,0,1,2.29,2.29v2.91a2.32,2.32,0,0,1-2.32,2.32H94a0,0,0,0,1,0,0v-7.52A0,0,0,0,1,94,124.14Z" transform="translate(198.24 255.8) rotate(180)"/><rect class="cls-3" x="103.8" y="116.8" width="14.74" height="21.11"/><rect class="cls-3" x="225.78" y="116.8" width="14.74" height="21.11"/><rect class="cls-9" x="118.72" y="118.55" width="14.74" height="17.61"/><rect class="cls-8" x="132.53" y="118.55" width="93.26" height="17.61"/><path class="cls-3" d="M245.18,116.63c-1.08,3-2.57,5.43-5.26,6v8.9c2.69.56,4.18,3,5.26,6h8.32V116.63Z"/><circle class="cls-3" cx="141.69" cy="127.61" r="3.75"/><circle class="cls-3" cx="154.73" cy="127.61" r="3.75"/><circle class="cls-3" cx="167.74" cy="127.64" r="3.75"/><circle class="cls-3" cx="180.78" cy="127.64" r="3.75"/><circle class="cls-3" cx="194.16" cy="127.52" r="3.75"/><circle class="cls-3" cx="207.19" cy="127.52" r="3.75"/><path class="cls-10" d="M190.34,32.25s-9.85-5.58-8.6-7.15S190.34,32.25,190.34,32.25Z"/><path class="cls-10" d="M190.19,32.23s-3.44-9.71-1.32-10.23S190.19,32.23,190.19,32.23Z"/><path class="cls-10" d="M190.38,31.61s3.78-9.61,5.86-9S190.38,31.61,190.38,31.61Z"/><path class="cls-10" d="M190.22,32.28s-7.46-7.85-5.73-9S190.22,32.28,190.22,32.28Z"/><path class="cls-10" d="M190.12,32.12s.39-10.14,2.59-10S190.12,32.12,190.12,32.12Z"/><path class="cls-8" d="M199.12,38.46s1.7-8.26-7.8-8.81c-13.72-.7-14.69,15-14.15,19.23,1.18,11.72,6.64,15.26,9.89,17.84s27.51,4.84,27.51,4.84,4.62-10.85-3.55-18.38c-5.59-4.3-20.66-3.22-20.66-3.22s-4.1.43-4.1-5.27,3.34-5.8,3.34-5.8Z"/><path class="cls-11" d="M199.4,61.35l.36,63.19s2.44,10.32,8.13,15.37A27.29,27.29,0,0,0,220.25,146V68.34L208.52,53.08Z"/><path class="cls-7" d="M192.5,49.74s6.73,25.47,28.22,20C221.48,43,192.5,49.74,192.5,49.74Z"/><path class="cls-7" d="M204,76.61h6.69V83.7S205.31,83.92,204,76.61Z"/><path class="cls-7" d="M207.36,76.6h3.35v3.55S208,80.26,207.36,76.6Z"/><path class="cls-7" d="M204,88.08h6.69v7.09S205.31,95.38,204,88.08Z"/><path class="cls-7" d="M207.36,88.07h3.35v3.55S208,91.72,207.36,88.07Z"/><path class="cls-7" d="M204,99.54h6.69v7.09S205.31,106.85,204,99.54Z"/><path class="cls-7" d="M207.36,99.53h3.35v3.55S208,103.19,207.36,99.53Z"/><path class="cls-7" d="M205,110.43h5.67v6S206.13,116.63,205,110.43Z"/><path class="cls-7" d="M207.87,110.43h2.84v3S208.42,113.52,207.87,110.43Z"/><path class="cls-7" d="M206.12,119.87h4.78V125S207,125.1,206.12,119.87Z"/><path class="cls-7" d="M208.51,119.87h2.39v2.53S209,122.48,208.51,119.87Z"/><path class="cls-7" d="M207.19,128.37h3.69v3.91S207.9,132.4,207.19,128.37Z"/><path class="cls-7" d="M209,128.37h1.84v1.95S209.39,130.38,209,128.37Z"/><path class="cls-7" d="M213.5,76.42h6.69v7.1S214.79,83.73,213.5,76.42Z"/><path class="cls-7" d="M216.85,76.42h3.34V80S217.49,80.07,216.85,76.42Z"/><path class="cls-7" d="M213.5,87.89h6.69V95S214.79,95.2,213.5,87.89Z"/><path class="cls-7" d="M216.85,87.88h3.34v3.55S217.49,91.54,216.85,87.88Z"/><path class="cls-7" d="M213.5,99.35h6.69v7.1S214.79,106.66,213.5,99.35Z"/><path class="cls-7" d="M216.85,99.35h3.34v3.54S217.49,103,216.85,99.35Z"/><path class="cls-7" d="M214.52,110.24h5.67v6S215.61,116.44,214.52,110.24Z"/><path class="cls-7" d="M217.36,110.24h2.83v3S217.9,113.34,217.36,110.24Z"/><path class="cls-7" d="M215.6,119.68h4.79v5.08S216.52,124.91,215.6,119.68Z"/><path class="cls-7" d="M218,119.68h2.4v2.54S218.45,122.29,218,119.68Z"/><path class="cls-7" d="M216.68,128.18h3.68v3.91S217.39,132.21,216.68,128.18Z"/><path class="cls-7" d="M218.52,128.18h1.84v1.95S218.88,130.19,218.52,128.18Z"/><path class="cls-10" d="M195.75,38.61s4.08,0,6.44,1.35-4.29-7.36-4.29-7.36l-.11,3.17S195.64,37,195.75,38.61Z"/><circle class="cls-10" cx="192.68" cy="33.12" r="1.02"/><path class="cls-7" d="M169.57,156.51c1.23-7.88-10.3-20-11.06-20.76L164,166.63C166.46,163.93,169,160.36,169.57,156.51Z"/><path class="cls-7" d="M147.37,156.51c.64,4.12,3.47,7.91,6.11,10.66l4.82-31.27C156.81,137.46,146.19,148.93,147.37,156.51Z"/><path class="cls-9" d="M158.3,135.9l-4.82,31.27a38,38,0,0,0,5,4.38,38.52,38.52,0,0,0,5.51-4.92l-5.47-30.88,0,0Z"/><path class="cls-7" d="M136.34,161.58c7.07-3.69,10-20.14,10.16-21.21l-21.63,22.7C128.51,163.48,132.88,163.38,136.34,161.58Z"/><path class="cls-7" d="M123.17,143.7c-2.93,3-4.31,7.48-5,11.24l28-14.66C144.12,140,128.59,138.26,123.17,143.7Z"/><path class="cls-9" d="M146.25,140.28l-28,14.66a38.1,38.1,0,0,0-.56,6.61,38.1,38.1,0,0,0,7.22,1.52l21.63-22.7v-.06Z"/><path class="cls-7" d="M193.57,144.14c-5.21-6-21.89-5.1-23-5L197.65,155C197.21,151.32,196.12,147.09,193.57,144.14Z"/><path class="cls-7" d="M179.18,161c3.55,2.19,8.27,2.5,12.07,2.27l-20.68-23.95C170.79,141.5,172.64,157,179.18,161Z"/><path class="cls-9" d="M170.57,139.36l20.68,23.95a38.23,38.23,0,0,0,6.57-1,38.09,38.09,0,0,0-.17-7.38L170.6,139.1h-.06Z"/><rect class="cls-12" width="332.05" height="173.98"/></g></g></svg>