<svg xmlns="http://www.w3.org/2000/svg" viewBox="0 0 286.45 150.09"><defs><style>.cls-1{fill:#4a82c3;}.cls-2{fill:#f5f7d4;}.cls-3{fill:#002735;}.cls-4,.cls-6{fill:#f9bb15;}.cls-4{stroke:#4982c3;stroke-miterlimit:10;}.cls-5{fill:#059370;}.cls-7{fill:#112f39;}.cls-8{fill:none;}</style></defs><g id="Capa_2" data-name="Capa 2"><g id="Layer_1" data-name="Layer 1"><path class="cls-1" d="M115.56,18.13a28.7,28.7,0,0,0-7.1-7.28c1.91,11.22-3.47,14.53-7.19,16.69,1.14-5.7,7-14.68,4.85-18.44-2.14-2-4.33-3.41-6.66-3.79,0,0,2.36,12.9-5.85,15.18C96,16.81,99.46,5.31,96.8,4.11a27.57,27.57,0,0,0-5.46-1.73s4.21,13.08-3.1,12.38c2.37-5.11,1.8-9.19.38-13.17C85.91.8,84.76.79,81,1.29c1.43,1.39,2,9.1,2,9.1s-3.38-8.57-3.59-9-7.45,1.34-7.45,1.34L113,56l4.89-3.72c-1.37.61-17-12.17-16.21-12.62,9.37,7.6,17.59,5.94,19.64-1,2.46-6.82,1-13-4.56-18.46-3.38,11.94-7.39,14.57-11.74,12.27A24.17,24.17,0,0,0,115.56,18.13ZM83.4,11.65a1.74,1.74,0,1,1,3.43.33,1.74,1.74,0,1,1-3.43-.33ZM96.59,28.22c-1.41-.6-1.9-2.66-1.08-4.6s2.62-3,4-2.45,1.9,2.65,1.08,4.6S98,28.81,96.59,28.22Z"/><path class="cls-1" d="M74.51,49.17a28.43,28.43,0,0,1-5.12-8.79c10.31,4.84,14.93.55,18-2.47-5.79-.41-16,2.85-19.06-.25a13.49,13.49,0,0,1-1.87-7.43S78.26,36,82.65,28.65c-4.17,1.29-16.19,1.58-16.63-1.3a27.77,27.77,0,0,1-.22-5.73s11.49,7.56,12.77.33c-5.56.92-9.34-.72-12.8-3.15,0-2.83.27-3.94,1.74-7.4,1,1.75,8.25,4.31,8.25,4.31s-7.35-5.55-7.67-5.85S71.37,3,71.37,3l40.35,53.8-4.89,3.72c1-1.16-7.19-19.58-7.82-19,4.82,11.06,1,18.53-6.26,18.65-7.23.54-12.79-2.49-16.57-9.34,12.42-.06,16-3.23,15-8A24.13,24.13,0,0,1,74.51,49.17Zm2.35-32.72a1.84,1.84,0,0,0-2.22,1.36,2,2,0,0,0,3.84.67A1.84,1.84,0,0,0,76.86,16.45ZM89.3,33.59c-.19-1.52-2-2.54-4.14-2.27S81.53,33,81.72,34.55s2,2.55,4.14,2.28S89.49,35.11,89.3,33.59Z"/><ellipse class="cls-2" cx="109.11" cy="91.88" rx="19.48" ry="25.23" transform="translate(-33.11 102.82) rotate(-44.5)"/><ellipse class="cls-3" cx="101.53" cy="111.32" rx="2.89" ry="2.55" transform="translate(-48.91 103.08) rotate(-44.5)"/><ellipse class="cls-3" cx="90.58" cy="100.15" rx="2.89" ry="2.55" transform="translate(-44.22 92.21) rotate(-44.5)"/><path class="cls-2" d="M67.18,87.62c-4.39.94-8.27,5.09-9.45,10.68-1.33,6.25,1.16,12.22,5.69,14.42.92-6.59,6.18-13.4,6.18-13.4l2.26,13a14.28,14.28,0,0,0,6.71-9.64c1-4.88-.26-9.59-3-12.47L78,77.47l15.08,1.64,1.3-3s-15.69-4.73-19.37-2.4C72.24,75.47,68.71,83.77,67.18,87.62Z"/><path class="cls-2" d="M89.34,72.29l2.78-2.08-6-5.56L88,59l-.84-.68s-4.35,7.07-4.27,7.43S89.34,72.29,89.34,72.29Z"/><path class="cls-2" d="M94.61,69.3l2.78-2.08-6-5.56L93.26,56l-.84-.68s-4.35,7.07-4.27,7.43S94.61,69.3,94.61,69.3Z"/><path class="cls-2" d="M100.05,67.55l2.78-2.08-6-5.57,1.82-5.68-.84-.68S93.52,60.61,93.59,61,100.05,67.55,100.05,67.55Z"/><path class="cls-2" d="M112.87,133.66c-1,4.38-5.23,8.18-10.84,9.27-6.27,1.21-12.2-1.38-14.32-5.94,6.61-.81,13.51-6,13.51-6l-13-2.49A14.28,14.28,0,0,1,98,122c4.9-1,9.59.43,12.41,3.24L123.21,123l-1.38-15.11,3-1.24s4.46,15.77,2.07,19.41C125.11,128.82,116.75,132.2,112.87,133.66Z"/><path class="cls-2" d="M128.58,111.78l2.13-2.74,5.46,6,5.71-1.72.67.85s-7.15,4.22-7.5,4.14S128.58,111.78,128.58,111.78Z"/><path class="cls-2" d="M131.67,106.56l2.13-2.74,5.46,6.05,5.71-1.73.67.85s-7.15,4.22-7.51,4.15S131.67,106.56,131.67,106.56Z"/><path class="cls-2" d="M133.52,101.15l2.13-2.74,5.45,6,5.71-1.73.67.85s-7.14,4.22-7.5,4.14S133.52,101.15,133.52,101.15Z"/><path class="cls-1" d="M225.9,40.47c1.23-3.66-27.11-23.94-49.9,12.13l31.13,13.34S205.53,46.65,225.9,40.47Z"/><circle class="cls-4" cx="204.44" cy="33.25" r="4.64"/><path class="cls-1" d="M209.08,55c-3.67,11.83-1.52,17.89,1.26,23.32H201S192,60.59,194.09,55Z"/><path class="cls-5" d="M190.61,66.3c-5.06,6.41-13.45,8.21-18.75,4-4.17-3.29-5.17-9.31-2.94-14.85a17.5,17.5,0,0,1,2.52-4.33c5.06-6.41,13.46-8.21,18.75-4S195.68,59.89,190.61,66.3Z"/><path class="cls-5" d="M160.72,75.33c.92-1.62,8.2-19.85,8.2-19.85L190.61,66.3l-21.19,9a14,14,0,0,1,13.05,4.18l-23.58.21Z"/><path class="cls-6" d="M198.13,148l.05.05v0l.11,0-.13-.13c-.31-1.58-3.2-15.77-8.83-22.41-6-7-19-7.19-19-7.19l26.12,27.86-27-26.94s-.25,13.06,6.59,19.25C182.46,144.35,196.54,147.67,198.13,148Z"/><path class="cls-6" d="M160.61,147.79v.07l0,0,.07.09,0-.19c.74-1.43,7.28-14.35,7-23-.32-9.22-10.47-17.45-10.47-17.45l3.2,38.05L156,107.4s-8.3,10.1-6.78,19.2C150.61,135.17,159.59,146.52,160.61,147.79Z"/><path class="cls-6" d="M135.41,133.34l0,.07,0,0,0,.11,0-.19c1.12-1.15,11.15-11.6,13.39-20,2.38-8.92-4.92-19.75-4.92-19.75l-8,37.33,6.78-37.52s-10.89,7.24-12.08,16.38C129.52,118.36,134.8,131.83,135.41,133.34Z"/><rect class="cls-6" x="150.61" y="73.1" width="1.28" height="53.87" transform="translate(329.25 65.38) rotate(135.5)"/><path class="cls-6" d="M198.37,110.68h.08l0,0,.08.07-.18,0c-1.44.71-14.48,7-23.17,6.57-9.21-.48-17.27-10.77-17.27-10.77l38,3.87-37.79-5.12s10.24-8.12,19.31-6.44C185.94,100.46,197.12,109.64,198.37,110.68Z"/><path class="cls-6" d="M184.37,85.22h.07l0,0,.1.05-.18,0c-1.17,1.1-11.8,10.94-20.25,13-9,2.22-19.66-5.27-19.66-5.27l37.47-7.38-37.64,6.12s7.43-10.75,16.6-11.78C169.49,79.07,182.87,84.59,184.37,85.22Z"/><path class="cls-2" d="M214.16,79.65l-2-1.15-14.81.79-9,4.65S144.58,92.75,140,92.65C140,92.65,191.06,112,214.16,79.65Z"/><path class="cls-7" d="M211.9,78.53c0-.83-.38-1.83-2.58-1.83H135.7s-17.32.49-19.64-9.91h2.7a6.39,6.39,0,0,0,1.76-.24c4.28-.16,7.69-3.24,7.69-7h-11.7a2.29,2.29,0,0,0-2.42,2.12,2.28,2.28,0,0,0-2.42-2.12H100c0,3.81,3.47,6.92,7.81,7a6.27,6.27,0,0,0,1.75.24h2.79c.82,2.34,7.74,20.36,27.42,25.88l24,0c-3.53,5.94-7.85,12.38-7.85,12.38,14.19.78,18.71-8.71,20.14-15.48l34.3-8.66Z"/><rect class="cls-5" x="109.75" y="18.68" width="13.58" height="59.95"/><rect class="cls-5" x="159.43" y="18.68" width="13.58" height="59.95"/><rect class="cls-5" x="122.91" y="32.48" width="36.52" height="46.15"/><polygon class="cls-5" points="141.17 22.17 122.91 32.48 159.43 32.48 141.17 22.17"/><polygon class="cls-2" points="109.75 18.68 116.54 1.01 123.33 18.68 109.75 18.68"/><polygon class="cls-2" points="159.43 18.68 166.22 1.01 173.01 18.68 159.43 18.68"/><rect class="cls-3" x="108.32" y="17.52" width="16.44" height="3.74"/><rect class="cls-3" x="158" y="32.01" width="16.44" height="3.74"/><rect class="cls-3" x="108.32" y="31.63" width="16.44" height="3.74"/><rect class="cls-3" x="123.33" y="40.65" width="36.1" height="1.87"/><rect class="cls-3" x="123.12" y="31.8" width="36.1" height="1.87"/><rect class="cls-3" x="99.43" y="53.69" width="46.93" height="3.74" transform="translate(178.45 -67.33) rotate(90)"/><rect class="cls-3" x="128.19" y="34.97" width="9.49" height="3.74" transform="translate(169.77 -96.1) rotate(90)"/><rect class="cls-3" x="136.41" y="17.74" width="9.49" height="1.87" transform="translate(159.84 -122.48) rotate(90)"/><rect class="cls-3" x="138.07" y="17.29" width="6.61" height="1.87" transform="translate(282.76 36.44) rotate(180)"/><rect class="cls-3" x="144.66" y="34.97" width="9.49" height="3.74" transform="translate(186.24 -112.56) rotate(90)"/><rect class="cls-3" x="136.4" y="53.69" width="46.93" height="3.74" transform="translate(215.42 -104.31) rotate(90)"/><rect class="cls-3" x="158" y="17.52" width="16.44" height="3.74"/><path class="cls-3" d="M141.17,45.93c-7.12,0-9.62,7.51-9.62,7.51V78.63h19.23V53.44S148.28,45.93,141.17,45.93Z"/><circle class="cls-2" cx="115.65" cy="44.22" r="3.35"/><circle class="cls-2" cx="167.84" cy="44.22" r="3.35"/><path class="cls-7" d="M120.75,63.44c-4.49-3.94-9.63-3.81-14.09-4.94-.25,2.92-2.62,5.12-17.25,5.12-18.71,0,.58-28.38,9.41-32.75v0c-2.75.41-24.32,8.19-22.49,31.32S99.85,89.59,99.85,89.59s-1.35,4.06,0,5.49c1-3.17,1.27-4.53,10.49-4.85-.87.79,0,4.61,0,4.61s1.34-4.61,5.76-4.61,8.71-.08,8.71-.08L104.54,122.1h23.37a3.81,3.81,0,0,0,3-1.59,4.19,4.19,0,0,0,1.19-3.33l0-27S135.54,75.52,120.75,63.44Z"/><path class="cls-6" d="M101.28,55.89c-1.58-1.41-2.38-4.15-2.74-7.31a5.13,5.13,0,0,1-4.41-.2c-2.83-1.63-3.31-6.08-1.09-10a9.17,9.17,0,0,1,5.66-4.5,14.71,14.71,0,0,0,0-3.06c-8.83,4.37-28.11,32.75-9.4,32.75,14.63,0,17-2.2,17.24-5.12A12.16,12.16,0,0,1,101.28,55.89Z"/><path class="cls-1" d="M91.4,38.43c-2.88,3.87-2.25,8.32,1.4,10a8.37,8.37,0,0,0,5.69.2c-.74-5-.09-11,.21-14.65A11.78,11.78,0,0,0,91.4,38.43Z"/><path class="cls-7" d="M123.73,37.41c1,2.67,2,6,1,6.65-1.52,1-18.86-.9-23.45-1.41v2.29a4.07,4.07,0,0,0,1.35,2.7c1.27,1,1.91,1.51,4.77,1.59s22.74,0,22.74,0a5.92,5.92,0,0,1,5.08,2.46C136.35,53.43,133.38,43.41,123.73,37.41Z"/><path class="cls-6" d="M124.73,44.06c1-.65,0-4-1-6.65-5.32-3.3-12.65-5.38-22.45-3.6v8.84C105.87,43.16,123.21,45,124.73,44.06Z"/><circle class="cls-2" cx="95.53" cy="39.56" r="1.39"/><path class="cls-2" d="M120.75,63.44c-4.06-3.56-8.65-3.8-12.79-4.65.15,5.91,2.2,28.06,24.19,32.28v-.92S135.54,75.52,120.75,63.44Z"/><rect class="cls-8" width="286.45" height="150.09"/></g></g></svg>