<svg xmlns="http://www.w3.org/2000/svg" viewBox="0 0 278.2 145.77"><defs><style>.cls-1{isolation:isolate;}.cls-16,.cls-2{fill:none;}.cls-3{fill:#f5f7d4;}.cls-4{fill:#002735;}.cls-13,.cls-19,.cls-5{fill:#4a82c3;}.cls-6{fill:#ec6755;}.cls-7{fill:#f9bb15;}.cls-8{fill:#f6cf44;}.cls-9{fill:#c2d841;}.cls-10{fill:#163140;}.cls-11{fill:#aed037;}.cls-12{fill:#f09433;}.cls-13{opacity:0.98;}.cls-14{fill:#5c588b;}.cls-15{fill:#1c323b;}.cls-16{stroke:#163140;stroke-miterlimit:10;stroke-width:1.98px;}.cls-17{fill:#fcc39c;}.cls-18{fill:#f8a79f;}.cls-19{opacity:0.2;mix-blend-mode:multiply;}</style></defs><g class="cls-1"><g id="Capa_2" data-name="Capa 2"><g id="Layer_1" data-name="Layer 1"><rect class="cls-2" width="278.2" height="145.77"/><path class="cls-3" d="M198.17,71.12A4.63,4.63,0,0,0,194,68.4h0a5.2,5.2,0,0,1-4-1.57A6.49,6.49,0,0,0,185,64.59c-.24,0-.48,0-.71,0a5.92,5.92,0,0,1-5-1.72A8.64,8.64,0,0,0,173,60.24c-4.65,0-12.24,2.35-13.73,10.88Z"/><path class="cls-4" d="M185.79,80.28c5.52-4.92,11.51-4.84,17.88-.65L203,94.84H186.72Z"/><path class="cls-4" d="M236,127.49,203.67,79.63a11.2,11.2,0,0,1-4.81,3.44c.49,4.91.1,9.67-2.44,12.21-9.83,9.83-18.62,2-21.68,13.81s-15.79,11.16-15.9,11.15L154,127.49Z"/><path class="cls-5" d="M174.74,109.09c3.06-11.85,11.85-4,21.68-13.81,2.54-2.54,2.93-7.3,2.44-12.21a12.51,12.51,0,0,1-4.41.79,11.91,11.91,0,0,1-8.66-3.58l-26.95,40c.11,0,12.86.64,15.9-11.15"/><path class="cls-4" d="M66.55,80.28c5.52-4.92,11.51-4.84,17.88-.65l-.67,15.21H67.48Z"/><path class="cls-4" d="M116.71,127.49,84.43,79.63a11.2,11.2,0,0,1-4.81,3.44c.49,4.91.1,9.67-2.44,12.21-9.83,9.83-18.62,2-21.68,13.81s-15.79,11.16-15.9,11.15l-4.89,7.25Z"/><path class="cls-5" d="M55.5,109.09c3.06-11.85,11.85-4,21.68-13.81,2.54-2.54,2.93-7.3,2.44-12.21a12.51,12.51,0,0,1-4.41.79,11.91,11.91,0,0,1-8.66-3.58l-26.95,40c.11,0,12.86.64,15.9-11.15"/><path class="cls-3" d="M127.65,68.7A8,8,0,0,0,120.33,64h-.06a9,9,0,0,1-7-2.74,11.31,11.31,0,0,0-8.54-3.89c-.42,0-.83,0-1.24.07a10.31,10.31,0,0,1-8.69-3A15.06,15.06,0,0,0,83.9,49.78c-8.09,0-21.28,4.08-23.88,18.92Z"/><path class="cls-6" d="M178.15,40.09a2.23,2.23,0,0,0-3.12.1c-.15.15-.32.36-.51.4A7.23,7.23,0,0,1,170,40.5a18.33,18.33,0,0,1-2.93-1.9c-.74-.53-.73-.92,0-1.49,1.43-1.13,2.9-2.21,4.32-3.37a1.08,1.08,0,0,1,1.3-.23,2.13,2.13,0,0,0,2.84-1.68,2.17,2.17,0,0,0-2.08-2.61,2.22,2.22,0,0,0-2.28,2.38.85.85,0,0,1-.35.6c-1,.55-2,1.09-3.08,1.55a12.52,12.52,0,0,1-2.25.71c-.89.21-1.26-.08-1.43-1a2.17,2.17,0,0,1,0-.67c.26-1.6.53-3.2.79-4.8a.79.79,0,0,1,.78-.73,2.18,2.18,0,1,0-1.76-3.87,2.07,2.07,0,0,0-.46,3,.66.66,0,0,1,0,.89c-.62.92-1.19,1.87-1.83,2.77-1,1.43-2,2.85-3.14,4.23-.56.72-1,.79-1.69.27-1-.71-1.91-1.56-2.87-2.33a1.07,1.07,0,0,1-.41-1.37,2.1,2.1,0,0,0-1.69-2.69A2.24,2.24,0,0,0,149.1,30,2.31,2.31,0,0,0,151,32.56a7.65,7.65,0,0,0,1.34-.08c.42,1,.92,2,1.27,3.09a19.33,19.33,0,0,0,2.41,5A1.2,1.2,0,0,1,156,42a28.61,28.61,0,0,0-2.6,6.94c-.11.58-.31,1.14-.47,1.73-3.57-3.19-6.92-6.62-11.63-8.1a.58.58,0,0,1,0-.14c.05-.1.12-.19.18-.29a8.43,8.43,0,0,0,1.81-4.87,40.39,40.39,0,0,0-.57-5.23,1.1,1.1,0,0,1,.24-1,6.23,6.23,0,0,0,1.55-3.89,6.43,6.43,0,0,0-5.43-6.52,1,1,0,0,1-.82-.56,13,13,0,0,0-3.73-4.57c-3.33-2.45-6.55-2.66-9.9.09a23.64,23.64,0,0,0-4.15,4.88,1.45,1.45,0,0,1-.75.59,6.42,6.42,0,0,0-4,9.22.9.9,0,0,1,.09.53c-.2.93-.45,1.85-.63,2.77a10.26,10.26,0,0,0,.34,6.32c.51,1.12,1.17,2.17,1.76,3.26-4.31,1.65-7.83,4.61-11.42,7.53-.5-1.95-.93-3.81-1.45-5.65-.32-1.08-.78-2.13-1.23-3.36.22-.69.48-1.65.83-2.57a6.74,6.74,0,0,0,.39-3,.91.91,0,0,1,.24-.54c.67-.82,1.38-1.61,2-2.45a1.38,1.38,0,0,1,1.27-.57,2.21,2.21,0,0,0,1.27-4,2.11,2.11,0,0,0-2.37-.08,2.17,2.17,0,0,0-1.09,2.23.82.82,0,0,1-.19.64c-1,.88-2,1.76-3.15,2.55-.87.63-1.07.63-1.74-.23-1.48-1.9-2.9-3.85-4.27-5.83a2,2,0,0,1-.36-2.21,1.21,1.21,0,0,0,0-.73,2.2,2.2,0,0,0-2.43-1.79,2.24,2.24,0,0,0-2,2.08,2.18,2.18,0,0,0,1.95,2.28c.18,0,.44.19.48.34a40.76,40.76,0,0,1,1.19,4.29c.28,1.46-.38,2-1.81,1.65s-2.72-.93-4.09-1.38c-.78-.26-1.31-.54-1.39-1.56a2,2,0,0,0-2.54-1.51,2.14,2.14,0,0,0-1.7,2.58,2.25,2.25,0,0,0,2.59,1.74,1.05,1.05,0,0,1,.75,0c1.15.88,2.31,1.74,3.36,2.72s.91,1.8-.39,2.49a18.33,18.33,0,0,1-5.22,1.58.87.87,0,0,1-.63-.27A2.2,2.2,0,1,0,83,43.87,2.22,2.22,0,0,0,84.88,42c1-.12,2-.17,3-.35s1.92-.48,2.88-.72c1.6-.39,2.51.21,2.67,1.86.1.94.07,1.89.08,2.84A66.49,66.49,0,0,0,94.27,57a14.53,14.53,0,0,0,1.58,5,3,3,0,0,0,2.76,1.72,28.94,28.94,0,0,0,8.7-1.54c1-.32,2.08-.7,3.28-1.11a34.41,34.41,0,0,0,2.8,17.58l-1.34.86a49,49,0,0,0-11.35,9.45,2.29,2.29,0,0,0-.44.67,7.89,7.89,0,0,0,.07,5.68,45,45,0,0,0,4,8.33c.45.72.87,1.46,1.34,2.26a7.22,7.22,0,0,1-.81,0c-1.62-.19-3.23-.46-4.85-.57a13.49,13.49,0,0,1-5-1.51c-.78-.39-1.59-.71-2.39-1.07s-1.31-.83-2-1.22a3,3,0,0,1-1.5-1.36,1.67,1.67,0,0,0-1-.74,1.48,1.48,0,0,0-1.72.74,1.61,1.61,0,0,0,.11,1.95,1.5,1.5,0,0,0,1.82.48c.61-.29,1,0,1.44.26s1.19.68,1.78,1a1.9,1.9,0,0,0,.29.38c.82.57,1.65,1.12,2.48,1.68-1.43.14-2.84.13-4.24.14a6.39,6.39,0,0,0-.85.11c-.5,0-1-.09-1.52-.11a2.55,2.55,0,0,1-2-.53,1.52,1.52,0,0,0-2,.26,1.65,1.65,0,0,0-.3,2,1.59,1.59,0,0,0,1.57.85,1.7,1.7,0,0,0,1.56-1.25l1.29.15a2.41,2.41,0,0,0,.52.4c1.2.46,2.41.9,3.61,1.35l1.6.61a.53.53,0,0,1-.38.21c-1.51.14-3,.29-4.52.41a3.44,3.44,0,0,1-2.36-.17,1.27,1.27,0,0,0-1,.1,1.69,1.69,0,0,0-1,1.61,1.79,1.79,0,0,0,1.13,1.48,1.57,1.57,0,0,0,1.88-.52,1,1,0,0,1,1-.45l10.57.4a5.57,5.57,0,0,1,1.06.17c3,.64,5.9,1.31,8.85,1.93a2.13,2.13,0,0,0,1.76-.24A4.83,4.83,0,0,0,112.8,110c-.35-2.91-.65-5.83-1.1-8.73a11.83,11.83,0,0,0-2-5.47c-.29-.38.09-1.11.55-1.19,2.81-.45,5.63-.81,8.41-1.39A15.34,15.34,0,0,0,125,90.51a5,5,0,0,1,3.64-1.1,24.69,24.69,0,0,0,3-.21,1.44,1.44,0,0,1,.83.13c1.55,1,3,2.06,4.61,3a19.7,19.7,0,0,0,7.57,2.59c1.09.12,2.19.15,3.34.22-.23,1-.41,2-.68,3a26.45,26.45,0,0,0-.95,9.45,1,1,0,0,1-.15.62,4.29,4.29,0,0,0-.44,4.25c.58,1.64,2.16,2.87,3.58,2.61,2.26-.4,4.51-.89,6.76-1.38a23.18,23.18,0,0,1,4.92-.8c2.91,0,5.82-.19,8.73-.32.51,0,.92,0,1.27.5a1.66,1.66,0,0,0,2.2.27,1.53,1.53,0,0,0,.44-2.08,1.57,1.57,0,0,0-2.2-.8,1.7,1.7,0,0,1-.89.16q-2.78-.24-5.53-.53a4.48,4.48,0,0,1-.63-.15c1.45-.54,2.71-1,4-1.48.59-.23,1.14-.53,1.71-.79l-1.5-1.51c-.72,0-1.44-.09-2.15-.11s-1.69,0-2.53,0a21.15,21.15,0,0,1,2.27-1.69c.77-.51,1.55-1,2.31-1.54a1.33,1.33,0,0,1,1.46-.24,1.53,1.53,0,0,0,2.05-1,1.66,1.66,0,1,0-3.15-1.07,1,1,0,0,1-.41.46c-1.88,1-3.75,2.08-5.66,3a10.51,10.51,0,0,1-4.19,1.25c-.94,0-1.88.23-2.82.34s-1.9.21-2.9.32a1.47,1.47,0,0,1,.07-.29l.22-.35a49.63,49.63,0,0,0,5-8.81,6.46,6.46,0,0,0,.6-3.63,14.12,14.12,0,0,0-3.06-6.3,29.42,29.42,0,0,0-8.49-7c-.75-.44-1.51-.85-2.26-1.27.45-.84.91-1.6,1.26-2.4A23.86,23.86,0,0,0,148,64.94c-.05-1.11-.18-2.21-.22-3.31a3.15,3.15,0,0,1,.31-1,4.06,4.06,0,0,1,.77.33,19.55,19.55,0,0,0,7.67,3.21,5.66,5.66,0,0,0,4.41-.76,6.88,6.88,0,0,0,2.39-3.37,22.85,22.85,0,0,0,1.2-7.65c0-2.21,0-4.43.14-6.64.15-2.8,1.24-3.75,4.06-3.68,1.62,0,3.25.11,4.87.11a1.1,1.1,0,0,1,1.21.64,2.16,2.16,0,0,0,3.36.48,2.28,2.28,0,0,0,0-3.22"/><path class="cls-7" d="M142.22,42.5s3.22-1.29,3.22-6.52-1.61-6-1.61-6a6.72,6.72,0,0,0,.1-6.66,6.87,6.87,0,0,0-5.22-3.85s-3-6.54-9.12-7v0h-.43v0c-6.13.42-9.12,7-9.12,7a6.87,6.87,0,0,0-5.22,3.85,6.69,6.69,0,0,0,.1,6.66s-1.61.79-1.61,6,3.22,6.52,3.22,6.52a34.63,34.63,0,0,0-7.09,27.1C112,85.16,119.73,89.69,128.79,90v0H130v0c9.07-.34,16.83-4.87,19.36-20.43a34.63,34.63,0,0,0-7.09-27.1"/><path class="cls-3" d="M138.71,19.45a6.82,6.82,0,0,1,5.22,3.85c1.73,3.58.71,5.58-.1,6.66s-5.12-10.51-5.12-10.51"/><path class="cls-3" d="M120,19.45a6.82,6.82,0,0,0-5.22,3.85c-1.73,3.58-.72,5.58.1,6.66S120,19.45,120,19.45"/><path class="cls-4" d="M115.2,54.54c8.55-7.63,17.83-7.51,27.71-1l-1,23.58H116.63Z"/><path class="cls-3" d="M193,127.74,142.91,53.53a17.28,17.28,0,0,1-7.45,5.33c.76,7.62.15,15-3.79,18.94-15.24,15.23-28.88,3-33.62,21.4S73.56,116.51,73.4,116.5l-7.58,11.24Z"/><path class="cls-5" d="M98.05,99.2c4.74-18.36,18.38-6.17,33.62-21.4,3.94-4,4.55-11.32,3.79-18.94a19.25,19.25,0,0,1-6.85,1.24,18.41,18.41,0,0,1-13.41-5.56l-41.8,62c.16,0,19.94,1,24.65-17.3"/><path class="cls-8" d="M102.21,62.93s-2.3,4.06.18,7.43c-2-2.34-6.08-3.77-9.11-1.29C93.43,68.89,98.16,63.33,102.21,62.93Z"/><path class="cls-8" d="M113.85,80c-1.62.06-5.37,0-8.24-1.55a15.23,15.23,0,0,0,1.92-3.68c.07-.46-1.3-2-2-2.88a15.79,15.79,0,0,1,7-1.58A5.9,5.9,0,0,0,113.85,80Z"/><path class="cls-8" d="M105.57,71.91a7.92,7.92,0,0,0-1.47,1c1.17,1.65,1.81,1.89,1.81,1.89h0s0,0,0,0a0,0,0,0,1,0,0,19.77,19.77,0,0,1-1.75,2.57l.18.15a7.56,7.56,0,0,0,1.3.87,15.23,15.23,0,0,0,1.92-3.68C107.6,74.33,106.23,72.83,105.57,71.91Z"/><path class="cls-8" d="M104.13,77.45l.18.15a25.73,25.73,0,0,1-3.49,4.56,2.74,2.74,0,0,0-.35,3.71c-3.82-.8-9.54-7.23-9.7-7.4C94,81.11,99.28,83.4,104.13,77.45Z"/><path class="cls-9" d="M105.91,74.83h0l0,0a0,0,0,0,1,0,0,19.77,19.77,0,0,1-1.75,2.57c-4.85,6-10.11,3.66-13.36,1h0a15.14,15.14,0,0,1-3.06-3.24c-.14-.23,5.11-5.77,5.57-6.15h0c3-2.48,7.12-1,9.11,1.29l0,0,.23.28q.19.27.36.54a20,20,0,0,0,1.1,1.73C105.27,74.59,105.91,74.83,105.91,74.83Zm-2.34.64c.29-.84-2.67-5.6-6.66-5.6-2.53,0-3.75,2-5.29,2.93-3,1.84.15,6.72,5.73,6.89A6.14,6.14,0,0,0,103.57,75.47Z"/><path class="cls-10" d="M105.91,74.83h0l0,0a0,0,0,0,1,0,0,19.77,19.77,0,0,1-1.75,2.57c-4.85,6-10.11,3.66-13.36,1h0a15.14,15.14,0,0,1-3.06-3.24c-.14-.23,5.11-5.77,5.57-6.15h0c3-2.48,7.12-1,9.11,1.29l0,0,.23.28q.19.27.36.54a20,20,0,0,0,1.1,1.73C105.27,74.59,105.91,74.83,105.91,74.83Z"/><path class="cls-11" d="M102.41,70.39l.23.28Z"/><path class="cls-12" d="M105.89,74.86a0,0,0,0,1,0,0,19.77,19.77,0,0,1-1.75,2.57c-4.85,6-10.11,3.66-13.36,1h0a15.14,15.14,0,0,1-3.06-3.24l18.2-.39h0Z"/><polygon class="cls-6" points="37.16 135.35 98.72 135.35 119.04 122.78 33.89 122.78 37.16 135.35"/><polygon class="cls-13" points="32.08 115.82 33.89 122.78 119.04 122.78 130.51 115.69 32.08 115.82"/><polygon class="cls-7" points="32.08 115.82 33.89 122.78 119.04 122.78 130.51 115.69 32.08 115.82"/><path class="cls-6" d="M83.38,112.34H56.75l1-9.56H39l-3.82,12.9H86C85.57,115.71,84.55,114.27,83.38,112.34Z"/><path class="cls-7" d="M83.38,112.34c-2.34-3.82-5.27-9.56-5.27-9.56H57.75l-1,9.56Z"/><path class="cls-12" d="M145.19,92.61c-9-5.42,15-5.46,15-5.46s-30.91-6.54-52.27,4.71L145,95.28Z"/><path class="cls-12" d="M145.19,98.64c-9,5.43,15,5.47,15,5.47s-31.23,7.74-52.6-3.51L145,96Z"/><path class="cls-14" d="M143.47,93.43c7.37-4.13,18.46-1.38,18.46-1.38s-6.21,2.51-7.59,3.78a31.84,31.84,0,0,0,7.59,3.83s-10.56,2.16-18.46-1.63Z"/><path class="cls-15" d="M148.79,95.73s-29.57-15.5-49.71,1.43C99.08,97.16,119.08,109.86,148.79,95.73Z"/><path class="cls-14" d="M99.08,97.16l49.71-1.43C119.08,109.86,99.08,97.16,99.08,97.16Z"/><path class="cls-3" d="M187.44,18.35a4.63,4.63,0,0,0-4.21-2.72h0a5.2,5.2,0,0,1-4-1.57,6.49,6.49,0,0,0-4.91-2.24c-.24,0-.48,0-.71,0a6,6,0,0,1-5-1.72,8.64,8.64,0,0,0-6.27-2.67c-4.65,0-12.24,2.35-13.73,10.88Z"/><line class="cls-16" x1="208.2" y1="41.6" x2="208.29" y2="129.07"/><path class="cls-6" d="M209.2,45.7s5.13,8.43,3.92,16.61c0,0-.77,2.27-1.66,4.26,0,0,9.07-3.48,7.2-12.16a12.64,12.64,0,0,0-6.1-8.34s7.35,1.23,8.31,11.66a24.91,24.91,0,0,1,.85,5s5.86-6,2.64-13.35c0,0-1.66-4.74-11.12-6,0,0,10.63-1.17,18.23,6.32,0,0,2.09-6.58-6.05-10.58,0,0-5.49-1.2-9.32.23,0,0,6.36-3.72,11.29-1.68,0,0-4.48-9.81-13-3.65a46,46,0,0,1-4.94,6.38S213.88,27.07,224,27a9.12,9.12,0,0,0-10.14-1s-4.73,3.14-6.11,14.18c0,0-1.05-10.81-8.82-11.85,0,0-7.12-1.84-9.33,4.43,0,0,9.45-3.48,14.88,5.33,0,0-12.78-12.58-22.42,2.6l-1,4.05s14.7-7.71,24.49-.74c0,0-18.42-5.54-17.6,9.16a11,11,0,0,0,1.58,6.46S194.76,46,204.43,46.53c0,0-12.27,2.7-2.55,17.94,0,0,3.43-14.21,5.62-18Z"/><path class="cls-7" d="M218.89,75.48c.87,2.17,3.16,2.47,5.48,3.43,1.56.64,2.07,3.24,1.54,5-1.33,4.6,2.87,3.2,5.73,5.67,6.88,6-4.5,11.57-6.13,12.51a48.66,48.66,0,0,1-8.83,2.88,11.83,11.83,0,0,1-10.2-4.57c-2.7-3.4-.35-5.85-.78-8.07s-3.46-2.1-3.29-6.52c.19-4.78,1.82-8.65,4.18-10.64,3.91-3.3,9.47-2.63,11.25-1.13A3.53,3.53,0,0,1,218.89,75.48Z"/><path class="cls-17" d="M211.57,87.71s2.09,3,1.86,5.87,6.59-.14,6.59-.14-1.46-2.15-2.14-8.16S211.57,87.71,211.57,87.71Z"/><path class="cls-17" d="M218,87.33a18.29,18.29,0,0,1-2.81,4.26,13.86,13.86,0,0,1-1.71,1.56,11.13,11.13,0,0,0-1.88-5.44s5.64-8.44,6.31-2.43c.07.63.15,1.21.24,1.75Z"/><path class="cls-17" d="M215.14,75.37c-.75-.48-6.21-1-7.91,2.33-2.32,4.59.69,11.61,2.36,12.69s8.59-1.14,9.37-6.23A8.19,8.19,0,0,0,215.14,75.37Z"/><path class="cls-18" d="M205.09,97l.26-.23c3.72-3.44,7.25-4.84,8.94-3.36,3.44,3,.57,5.79.57,5.79a96.12,96.12,0,0,1-9.53,6.92C205.18,103.11,205.12,100.07,205.09,97Z"/><path class="cls-17" d="M183,91.22s-4.58-7.94.93-.72c0,0-4.65-8.73,1.14-.64,0,0-4.22-8.16,2.08,1.5,0,0,.35-6.37,1.43,1.43l8.44,9.66a40.31,40.31,0,0,0,8.37-5.65c.38-.35.76-.68,1.13-1a41.69,41.69,0,0,0,.87,5.48,24.63,24.63,0,0,0,1,2.84c-4.44,3.08-10,6.29-12.48,5.26C191.33,107.53,176,82.13,183,91.22Z"/><path class="cls-17" d="M196.12,124.49s.57-11.07,3.37-15c.77-1.57,7.21-14.18,15.66-16.86,0,0,6.53-7.07,8,2,1.2,7.3-1.76,11.26-10.25,19.51,0,0,1.33,7.82-.57,11.83-1.62,3.4-3.49,13.45-14.22,11.44S196.12,124.49,196.12,124.49Z"/><path class="cls-17" d="M194.67,128.82a10.54,10.54,0,0,0,5.42-1.68,23.61,23.61,0,0,0,4.64-4.29,14.15,14.15,0,0,0,3.53-8.43,21.65,21.65,0,0,0,0-2.79c-.05-.93-.26-1.85-.31-2.78-.07-1.39.73-2,1.85-2.58a10.49,10.49,0,0,0,1.95-1.19c4.53-3.65,7.05-9.36,7.73-15.11,1.54-.16,3,.8,3.67,4.61,1.2,7.3-1.76,11.26-10.25,19.51,0,0,1.33,7.82-.57,11.83-1.62,3.4-3.49,13.45-14.22,11.44-6.16-1.15-5.9-5.23-4.57-8.49Z"/><path class="cls-5" d="M202.2,104.45h-.07c-1-4.53,3.22-7,5.71-8.74a15.07,15.07,0,0,1,5.61-3l.06.25A9.27,9.27,0,0,0,209,95.6c-1.81,2.27-.67,3.61-.67,3.61a11,11,0,0,0,5.82-4.12c1.39-2.76,2.79-4.08,3.87-4.69a4,4,0,0,1,2.76-.35l-.56.14s-1.87-1.09-4.83,5c-1.23,5,5.06,11,5.06,11l-3.1,3.67a43.25,43.25,0,0,0-15.89-4Z"/><path class="cls-19" d="M202.13,104.45a5.92,5.92,0,0,1-.15-1.53,15.47,15.47,0,0,0,4.21,1.51c3.15.59,6.81,0,9.26-2.13a13.87,13.87,0,0,0,1.15-1.15,22.7,22.7,0,0,0,3.85,5l-3.1,3.67a43.25,43.25,0,0,0-15.89-4l.74-1.34Z"/><path class="cls-17" d="M215.58,94.44s1.72-5.3,5.72-4.3,4.44,17.46,6.44,23,5.87,15.46,7.44,20.46c0,0,20.32,3.44,5.58,2,0,0,11.59,2.86,0,.71,0,0,5.87,2.15-2.71-.14,0,0,6,2.86-4.58,1,0,0-7.73-13.31-10.31-19.6C223.16,117.62,213.58,100.45,215.58,94.44Z"/><path class="cls-5" d="M197.07,116s9.92-.67,16.51,4.48c0,0,2,13.31-10,16.45-11-.14-11.05-5-10.87-10.15C192.88,121.05,197.07,116,197.07,116Z"/><path class="cls-5" d="M197.07,116s9.92-.67,16.51,4.48c0,0,2,13.31-10,16.45-11-.14-11.05-5-10.87-10.15C192.88,121.05,197.07,116,197.07,116Z"/><path class="cls-19" d="M198.18,129.83a13.33,13.33,0,0,1,4.72-2.05c.1,0,.11-.22,0-.27a32,32,0,0,0,3.15-6.4,12.34,12.34,0,0,0,.38-4,20.2,20.2,0,0,1,7.11,3.42s2,13.31-10,16.45c-6.93-.09-9.51-2-10.43-4.76A37.86,37.86,0,0,0,198.18,129.83Z"/><path class="cls-17" d="M183.24,131.07s13.6,5.72,12.88-9.73c0,0-19.6-17.89-25.47-17.89s-5.44,4.29-13.16,13.88A134,134,0,0,1,143,132.79l4.15.42s21.75-8.72,23-20.6C170.22,112.61,175.51,124.63,183.24,131.07Z"/><path class="cls-17" d="M124,129.37s-1.26-.73-1-1.23c.11-.28.44-.19.72-.06-.81-.62-.76-1.57-.08-1.49s3.61,2.48,6.57,4.48c2.67,1.81,4.49,2,5.27,2,6.7-.7,19.24-2.3,28.92-5.29,0,0,1.72-2,7.16-1.43,0,0,19-6,24.75-6.87,0,0,10.35-3.74,14.46,2.29,6.72,9.87-6.16,19.17-18.18,14.45,0,0-16,.86-24.75-1.15,0,0-9.16,3.87-22.47,3-5.25-.34-8.83-.71-11.23-1.11a2.73,2.73,0,0,1-1.83,1.32c-2.22.21-7.64-6.19-7.64-6.19s-1.21-.72-1.29-1.6c0-.3,0-.42.16-.46a1.66,1.66,0,0,1-.45-.76C123.06,129.08,124,129.37,124,129.37Z"/><path class="cls-17" d="M132.57,136.17a62.78,62.78,0,0,0,6.72-.07c2.32-.09,4.63-.15,7-.26s4.66-.24,7-.45a33.72,33.72,0,0,0,6.48-1c1.08-.32,2.15-.7,3.24-1,.9-.25,1.87-.33,2.75-.63,1.8-.61,3.44-1.84,5.38-2,2.1-.14,4,.81,6,1.36a23.55,23.55,0,0,0,5.63,1.08,21.35,21.35,0,0,0,5.67-.82c1.88-.44,3.76-.92,5.6-1.49a38.29,38.29,0,0,0,5.44-2.12,16.19,16.19,0,0,0,4.2-2.72c1.78-1.74,3.63-4.34,3.88-7a7.35,7.35,0,0,1,3.28,2.64c6.72,9.87-6.16,19.17-18.18,14.45,0,0-16,.86-24.75-1.15,0,0-9.16,3.87-22.47,3-5.25-.34-8.83-.71-11.23-1.11a2.73,2.73,0,0,1-1.83,1.32c-1.24.12-3.5-1.85-5.24-3.59A15.52,15.52,0,0,0,132.57,136.17Z"/><path class="cls-7" d="M209.3,75a19.41,19.41,0,0,0,10.33,6.38c6.72,1.57.39-2.86.39-2.86l-3.71-4.15h-6.48Z"/></g></g></g></svg>