<svg xmlns="http://www.w3.org/2000/svg" viewBox="0 0 235.25 123.26"><defs><style>.cls-1,.cls-11{fill:none;}.cls-2{fill:#002735;}.cls-3{fill:#059370;}.cls-4{fill:#f5f7d4;}.cls-5{fill:#ec6755;}.cls-6{fill:#fff;}.cls-7{fill:#3a80c3;}.cls-8{fill:#04223e;}.cls-9{fill:#fbd636;stroke:#0a3656;stroke-width:1.27px;}.cls-11,.cls-9{stroke-miterlimit:10;}.cls-10{fill:#4a82c3;}.cls-11{stroke:#cfe2c7;stroke-width:1.03px;}</style></defs><g id="Capa_2" data-name="Capa 2"><g id="Layer_1" data-name="Layer 1"><rect class="cls-1" width="235.25" height="123.26"/><path class="cls-2" d="M194.62,54.81l-.77,29.11a1.23,1.23,0,0,0,.45,1l2.32,1.92a1.22,1.22,0,0,0,.78.28h2.38A1.22,1.22,0,0,1,201,88.32v.44A1.23,1.23,0,0,1,199.78,90h-7.69a1.24,1.24,0,0,1-.87-.36L184,82.36a1.39,1.39,0,0,1-.27-.41l-2.23-5.47a1.27,1.27,0,0,1-.09-.47c0-1.8.07-12.94,0-12.94s7.51-6.17,11.27-9.24A1.22,1.22,0,0,1,194.62,54.81Z"/><path class="cls-2" d="M143.12,76.66l1.29,12.23a1.22,1.22,0,0,0,1.21,1.1h10.53a1.22,1.22,0,0,0,1.22-1.23v-.43a1.22,1.22,0,0,0-1.22-1.23h-1.53a1.22,1.22,0,0,1-1.22-1.34L154.79,72A1.23,1.23,0,0,0,153,70.79l-9.23,4.65A1.24,1.24,0,0,0,143.12,76.66Z"/><path class="cls-3" d="M217.53,49.85l-.68,1.52-.4.91a.63.63,0,0,1-.47.36s-20.63,2.93-20.79,3.44c0,0-4.11,12.85-4.21,13l-7.84,10.46-2.83,4a1.22,1.22,0,0,0,.14,1.57l1.66,1.67a1.23,1.23,0,0,0,.87.36H185a1.23,1.23,0,0,1,1.23,1.23v.44A1.22,1.22,0,0,1,185,90h-7.3a1.25,1.25,0,0,1-.93-.42l-2.68-3.12a1.22,1.22,0,0,1-.3-.84l.59-18.09a1.23,1.23,0,0,0-1.55-1.22l-17.93,4.9-.15,0-.12.06-11.36,6.37-2.55,1.43-8.1,4.61a1.27,1.27,0,0,0-.57.7l-.94,3.07a1.23,1.23,0,0,0,1.17,1.59h1a1.21,1.21,0,0,1,1.22,1.22v.44A1.22,1.22,0,0,1,133.33,92h-6a1.23,1.23,0,0,1-1.15-.8l-3.76-10.24a1.24,1.24,0,0,1,.07-1l7.28-14.06a1.28,1.28,0,0,0,.11-.31L133.4,49.2a20.09,20.09,0,0,1,20.08-19.42l.93,0c.53,0,1.05.07,1.57.14l.06-.13h0a20.91,20.91,0,0,1,2.25.23h0l.32,0,14.56,2.35c2.27.35,30.26.69,34.89,5.79.11.12.24.23.35.35l.17.19h0c.16.18.31.37.46.56h0l2.27,2.81a.61.61,0,0,1,.13.32l.13,1.17a1.41,1.41,0,0,0,.48.91l4.28,3.73,1,.88A.62.62,0,0,1,217.53,49.85Z"/><path class="cls-2" d="M217.53,49.85l-.68,1.52-.66-.77a1.31,1.31,0,0,1-.22-1.34c.12-.31.26-.66.4-1l1,.88A.62.62,0,0,1,217.53,49.85Z"/><path class="cls-2" d="M200.22,40.7a.84.84,0,0,1-1.19,0l-.35-.35h0c-1.22-1.22-1.52-2.91-.66-3.76s2.54-.57,3.76.65l.36.36a.86.86,0,0,1,0,1.19Z"/><path class="cls-2" d="M202.59,44.49a5.91,5.91,0,0,0,11.54,1.82l-2-1.78a1.41,1.41,0,0,1-.48-.91l-.13-1.17a.61.61,0,0,0-.13-.32l-2.27-2.81h0c-.15-.19-.3-.38-.46-.56h0l-.17-.18A5.91,5.91,0,0,0,202.59,44.49Z"/><polygon class="cls-4" points="70.96 51.14 77.91 44.19 86.85 44.19 86.85 51.76 92 51.76 96.11 47.64 109.01 47.64 113.02 51.65 113.02 67.87 117.29 67.87 117.29 46.34 122.6 41.03 127.41 45.84 127.41 73.99 130.54 73.99 130.54 51.98 141.74 51.98 141.74 61.4 151.74 61.4 151.74 68.9 160.9 68.9 160.9 78.58 165.78 78.58 165.78 82.08 172.31 82.08 172.31 92.11 56.43 92.11 56.43 79.41 67.04 79.41 67.04 82.08 70.96 82.08 70.96 51.14"/><path class="cls-2" d="M131.82,33.31C132.63,27.4,124.29,22.54,118,22c-3-.24-6.1.21-8.93-.77C103,19.13,100.52,11.2,94.53,8.68c-4.47-1.89-9.63-.21-14,2s-8.63,4.94-13.48,5.25c-4.21.27-8.79-1.3-12.48.76-2.75,1.54-4.19,4.7-6.72,6.57s-5.71,2.22-8.79,2.38-6.26.2-9.06,1.48-5.11,4.25-4.53,7.27Z"/><rect class="cls-3" x="60.62" y="10.16" width="12.75" height="82.73"/><rect class="cls-5" x="45.79" y="10.16" width="15.03" height="82.73"/><rect class="cls-6" x="62.29" y="13.2" width="1.16" height="76.92"/><rect class="cls-6" x="64.97" y="13.2" width="1.16" height="76.92"/><rect class="cls-6" x="67.65" y="13.2" width="1.16" height="76.92"/><rect class="cls-6" x="70.33" y="13.2" width="1.16" height="76.92"/><rect class="cls-7" x="154" y="28.42" width="10.41" height="8.71" transform="translate(318.41 65.54) rotate(180)"/><rect class="cls-7" x="155.92" y="20.93" width="0.69" height="7.49" transform="translate(312.54 49.34) rotate(180)"/><path class="cls-7" d="M162,25.49a.61.61,0,0,0,.35.17l.3.3v2.46h-.69v-3Z"/><polygon class="cls-7" points="155.96 20.9 156.26 20.55 162.6 25.91 162.15 26.44 155.96 21.21 155.96 20.9"/><path class="cls-7" d="M159.58,23.61l.51.51-3.78,2.53-.39-.58Z"/><rect class="cls-8" x="153.56" y="28.14" width="11.24" height="0.77" transform="translate(318.36 57.06) rotate(180)"/><rect class="cls-8" x="153.56" y="36.74" width="11.24" height="0.77" transform="translate(318.36 74.26) rotate(180)"/><rect class="cls-7" x="136.2" y="47.27" width="10.41" height="8.71" transform="translate(282.81 103.24) rotate(180)"/><rect class="cls-7" x="138.12" y="39.78" width="0.69" height="7.49" transform="translate(276.94 87.04) rotate(180)"/><path class="cls-7" d="M144.16,44.34a.74.74,0,0,0,.35.18l.3.29v2.46h-.69v-3Z"/><polygon class="cls-7" points="138.16 39.75 138.46 39.4 144.8 44.76 144.35 45.3 138.16 40.06 138.16 39.75"/><path class="cls-7" d="M141.78,42.46l.51.51-3.78,2.53-.39-.58Z"/><rect class="cls-8" x="135.76" y="46.99" width="11.24" height="0.77" transform="translate(282.76 94.76) rotate(180)"/><rect class="cls-8" x="135.76" y="55.59" width="11.24" height="0.77" transform="translate(282.76 111.96) rotate(180)"/><rect class="cls-7" x="117.3" y="65.22" width="10.41" height="8.71" transform="translate(245.01 139.16) rotate(180)"/><rect class="cls-7" x="119.23" y="57.73" width="0.69" height="7.49" transform="translate(239.14 122.96) rotate(180)"/><path class="cls-7" d="M125.27,62.29a.62.62,0,0,0,.35.18l.29.3v2.45h-.69v-3Z"/><polygon class="cls-7" points="119.26 57.71 119.56 57.35 125.91 62.72 125.45 63.25 119.26 58.02 119.26 57.71"/><path class="cls-7" d="M122.89,60.42l.5.51-3.77,2.53-.39-.58Z"/><rect class="cls-8" x="116.86" y="64.95" width="11.24" height="0.77" transform="translate(244.97 130.68) rotate(180)"/><rect class="cls-8" x="116.86" y="73.55" width="11.24" height="0.77" transform="translate(244.97 147.87) rotate(180)"/><rect class="cls-7" x="100.06" y="83.46" width="10.41" height="8.71" transform="translate(210.54 175.63) rotate(180)"/><rect class="cls-7" x="101.99" y="75.97" width="0.69" height="7.49" transform="translate(204.67 159.43) rotate(180)"/><path class="cls-7" d="M108,80.53a.62.62,0,0,0,.35.18l.29.29v2.46H108v-3Z"/><polygon class="cls-7" points="102.02 75.94 102.32 75.59 108.67 80.95 108.22 81.48 102.02 76.25 102.02 75.94"/><path class="cls-7" d="M105.65,78.66l.5.5-3.77,2.53-.39-.58Z"/><rect class="cls-8" x="99.63" y="83.19" width="11.24" height="0.77" transform="translate(210.49 167.14) rotate(180)"/><rect class="cls-8" x="99.63" y="91.78" width="11.24" height="0.77" transform="translate(210.49 184.34) rotate(180)"/><line class="cls-9" x1="64.4" y1="111.7" x2="160.81" y2="16.34"/><path class="cls-10" d="M28.09,53.12v6.94s-8.5-1.24-9.24,2.72C18.85,62.78,12.81,52.38,28.09,53.12Z"/><path class="cls-5" d="M35.24,50.54l-10.1,5.8s-9.45-6.44,0-12.24C35.24,40.66,35.24,50.54,35.24,50.54Z"/><path class="cls-4" d="M40.15,56.1,28.51,62.78s-10.9-7.43,0-14.11C40.15,44.7,40.15,56.1,40.15,56.1Z"/><path class="cls-4" d="M23.66,70.46s6.58,37.9,45.22,30.22C71.11,89,67.64,81.86,67.64,81.86s-3.22-7.19-5-9.42-27.45-9.66-27.45-9.66Z"/><path class="cls-2" d="M22.88,72.94c-4-6.44,15.47-25.11,21.48-15C49.16,64.88,26.91,79.38,22.88,72.94Z"/><polygon class="cls-4" points="65.66 101.71 74.08 113.06 82.75 111.08 73.39 92.35 65.66 101.71"/><polyline class="cls-11" points="65.66 101.71 69.63 114.3 62.44 114.3"/><polyline class="cls-11" points="56 101.71 59.97 114.3 52.78 114.3"/><path class="cls-4" d="M38.35,87.31S51.69,112.06,60,109.22L56.7,94Z"/><path class="cls-2" d="M62.63,72.13s-27-1.67-28.73,1.8,6,34.43,46.57,32.2C64.25,74.43,62.63,72.13,62.63,72.13Z"/><circle class="cls-2" cx="29.2" cy="54.2" r="1.11"/><rect class="cls-2" x="60.86" y="109.44" width="115.95" height="1.95"/><rect class="cls-5" x="49.48" y="115.02" width="38.78" height="1.68"/><rect class="cls-5" x="63.02" y="101.95" width="25.61" height="11.59"/><rect class="cls-7" x="66.38" y="105.62" width="8.78" height="4.51"/><rect class="cls-7" x="76.39" y="105.62" width="8.78" height="4.51"/><path class="cls-5" d="M62.28,102.91v11.6H48.78S49.64,102.91,62.28,102.91Z"/><path class="cls-7" d="M58.75,106.57V111H53.63A4.84,4.84,0,0,1,58.75,106.57Z"/><rect class="cls-2" x="48.25" y="112.81" width="41.24" height="2.68"/><path class="cls-7" d="M56.62,117.23a3.21,3.21,0,1,1-3.2-3.21A3.21,3.21,0,0,1,56.62,117.23Z"/><path class="cls-7" d="M66.6,117.23A3.21,3.21,0,1,1,63.39,114,3.21,3.21,0,0,1,66.6,117.23Z"/><path class="cls-7" d="M76.58,117.23A3.21,3.21,0,1,1,73.37,114,3.21,3.21,0,0,1,76.58,117.23Z"/><path class="cls-7" d="M86.56,117.23A3.21,3.21,0,1,1,83.35,114,3.21,3.21,0,0,1,86.56,117.23Z"/><rect class="cls-5" x="149.81" y="115.02" width="38.78" height="1.68"/><rect class="cls-5" x="149.45" y="101.95" width="25.61" height="11.59"/><rect class="cls-7" x="162.92" y="105.62" width="8.78" height="4.51"/><rect class="cls-7" x="152.91" y="105.62" width="8.78" height="4.51"/><path class="cls-5" d="M175.79,102.91v11.6H189.3S188.43,102.91,175.79,102.91Z"/><path class="cls-7" d="M179.33,106.57V111h5.12A4.85,4.85,0,0,0,179.33,106.57Z"/><rect class="cls-2" x="148.59" y="112.81" width="41.24" height="2.68"/><path class="cls-7" d="M181.45,117.23a3.21,3.21,0,1,0,3.21-3.21A3.21,3.21,0,0,0,181.45,117.23Z"/><path class="cls-7" d="M171.48,117.23a3.21,3.21,0,1,0,3.2-3.21A3.21,3.21,0,0,0,171.48,117.23Z"/><path class="cls-7" d="M161.5,117.23a3.21,3.21,0,1,0,3.21-3.21A3.21,3.21,0,0,0,161.5,117.23Z"/><path class="cls-7" d="M151.52,117.23a3.21,3.21,0,1,0,3.21-3.21A3.21,3.21,0,0,0,151.52,117.23Z"/><rect class="cls-5" x="91.92" y="115.02" width="25.12" height="1.68"/><rect class="cls-5" x="91.8" y="101.95" width="25.61" height="11.59"/><rect class="cls-7" x="95.16" y="105.62" width="8.78" height="4.51"/><rect class="cls-7" x="105.18" y="105.62" width="8.78" height="4.51"/><rect class="cls-2" x="90.69" y="112.81" width="27.58" height="2.68"/><path class="cls-7" d="M99,117.23A3.21,3.21,0,1,1,95.82,114,3.21,3.21,0,0,1,99,117.23Z"/><path class="cls-7" d="M107.8,117.23a3.21,3.21,0,1,1-3.21-3.21A3.21,3.21,0,0,1,107.8,117.23Z"/><path class="cls-7" d="M116.59,117.23a3.21,3.21,0,1,1-3.2-3.21A3.21,3.21,0,0,1,116.59,117.23Z"/><rect class="cls-5" x="120.82" y="115.02" width="25.12" height="1.68"/><rect class="cls-5" x="120.7" y="101.95" width="25.61" height="11.59"/><rect class="cls-7" x="124.06" y="105.62" width="8.78" height="4.51"/><rect class="cls-7" x="134.07" y="105.62" width="8.78" height="4.51"/><rect class="cls-2" x="119.59" y="112.81" width="27.58" height="2.68"/><path class="cls-7" d="M127.93,117.23a3.21,3.21,0,1,1-3.21-3.21A3.21,3.21,0,0,1,127.93,117.23Z"/><path class="cls-7" d="M136.7,117.23a3.21,3.21,0,1,1-3.21-3.21A3.21,3.21,0,0,1,136.7,117.23Z"/><path class="cls-7" d="M145.49,117.23a3.21,3.21,0,1,1-3.21-3.21A3.21,3.21,0,0,1,145.49,117.23Z"/><path class="cls-2" d="M143.07,16.9s1-4.35,4.08-5.8,5.15-.42,8.87-1.87S160,4,162.64,3s11,2.71,13.26,2.09A20,20,0,0,1,189.37,7c5.39,2.91,5,4.15,9.74,5.6s6.22,4.35,6.22,4.35Z"/></g></g></svg>