<svg xmlns="http://www.w3.org/2000/svg" viewBox="0 0 256.05 135.79"><defs><style>.cls-1{fill:#f9bb15;}.cls-2{fill:#ec6755;}.cls-3{fill:#f5f7d4;}.cls-4{fill:#002735;}.cls-5{fill:#07233c;stroke:#f7cf45;stroke-miterlimit:10;stroke-width:0.11px;}.cls-6{fill:#059370;}.cls-7{fill:#4a82c3;}.cls-8{fill:#f1695b;}.cls-9{fill:none;}</style></defs><g id="Capa_2" data-name="Capa 2"><g id="Layer_1" data-name="Layer 1"><polygon class="cls-1" points="169.26 39.44 168.13 39.44 167.01 39.44 165.01 96.82 168.13 96.82 171.26 96.82 169.26 39.44"/><path class="cls-1" d="M182.18,40.5c-5.39-3.59-11.82-3.4-14.38.41l19.58,13C189.9,50.08,187.58,44.08,182.18,40.5Z"/><path class="cls-1" d="M181,33.78c-6.41-.94-12.14,2-12.84,6.5l23.26,3.43C192,39.16,187.38,34.73,181,33.78Z"/><path class="cls-1" d="M175.63,28.24c-6,2.45-9.46,7.87-7.75,12.13l21.76-8.89C187.89,27.24,181.62,25.79,175.63,28.24Z"/><path class="cls-1" d="M153.85,40.56c5.4-3.58,11.83-3.39,14.38.41L148.65,54C146.14,50.14,148.46,44.14,153.85,40.56Z"/><path class="cls-1" d="M155.06,33.85c6.41-1,12.15,2,12.84,6.49l-23.25,3.43C144,39.23,148.66,34.79,155.06,33.85Z"/><path class="cls-1" d="M160.41,28.3c6,2.45,9.45,7.87,7.74,12.13l-21.76-8.89C148.15,27.3,154.41,25.85,160.41,28.3Z"/><path class="cls-2" d="M73.31,93.29,71.82,104c0,2.59.08,3.39.13,4.74a1.1,1.1,0,0,0,1.1,1h4.66a1.1,1.1,0,0,0,1.06-1.17c-.15-2.23-.79-5.47-.71-6l2.55-8.47A9.81,9.81,0,0,0,80.4,90l-2.74-9.84L70.37,90.27Z"/><path class="cls-2" d="M111.49,93.12l-7,5.88a1.29,1.29,0,0,0-.45,1l.55,8.83a.89.89,0,0,1-.87.9H92.16c-.35,0-1.6-2.11-1.56-2.3h0a1.42,1.42,0,0,1,1-1.14l3.86-1.48a.88.88,0,0,0,.65-.94s-1-5.84-1-6.16l.52-6.6a.88.88,0,0,1,.37-.66l8.31-5.89a.9.9,0,0,1,1.05,0l5.75,4.18a.91.91,0,0,1,.37.65l.27,3A.88.88,0,0,1,111.49,93.12Z"/><path class="cls-3" d="M117,104.28h0c-.54,1-3.66,2.42-3.66,2.42a1.16,1.16,0,0,0-.81.93l0,.12c0,.3.62,2.1,1.71,2l12.23,0a.57.57,0,0,0,.52-.62l-10.28-26c-2.09-3.41-1.06-7.05-19.08-14.51C94.65,67.4,70.07,62,70.07,62a11.27,11.27,0,0,0-4,.22h0a4.88,4.88,0,0,0-3.59,3.47l-.07.25c-1.07,3.94.47,15.67,1.09,20.85.07.61-1.45,5-3.23,9.91-2.37,6.54-3.6,9-5.41,9-2,0-2,4-1.22,4h6.62a1.09,1.09,0,0,0,1.09-1.16l.37-.59c2.48-3.75,8.26-11.77,10.41-14.67,1.58-2.14,4.08-9.84,4.08-9.84a18.29,18.29,0,0,0,12.2,7.17c11.28,1.54,15.91-.83,15.91-.83S117.19,103.85,117,104.28Z"/><path class="cls-1" d="M47,61c1.21,2.72,3.9,4.16,6,3.22s2.84-3.91,1.63-6.63-3.9-4.15-6-3.21S45.74,58.3,47,61Z"/><path class="cls-4" d="M51.84,62.78c-1.25.23-2.73-.8-3.44-2.4-.81-1.81-.4-3.82.89-4.4a2.25,2.25,0,0,1,.42-.13c1.26-.22,2.74.81,3.45,2.41a4.29,4.29,0,0,1,.31,2.79,2.25,2.25,0,0,1-1.21,1.6,1.47,1.47,0,0,1-.42.13Z"/><ellipse class="cls-1" cx="72.28" cy="59.32" rx="5.38" ry="4.19" transform="translate(-11.31 101.23) rotate(-66)"/><path class="cls-5" d="M71.22,62.78c1.25.23,2.73-.8,3.44-2.4.81-1.81.4-3.82-.9-4.4a1.87,1.87,0,0,0-.42-.13c-1.25-.22-2.73.81-3.44,2.41a4.36,4.36,0,0,0-.32,2.79,2.25,2.25,0,0,0,1.21,1.6,1.64,1.64,0,0,0,.43.13Z"/><path class="cls-1" d="M52.52,55.83a11,11,0,0,1,20,6.36,11.2,11.2,0,0,1-.41,3,12.13,12.13,0,0,1-.54,1.46l-.14.31a10.88,10.88,0,0,1-1.19,1.93h0q-.33.42-.69.81l-2.31,2.69h0a7.17,7.17,0,0,1-11.67-.29h0l-1.66-2a10.83,10.83,0,0,1-1.52-1.79l0,0h0A10.54,10.54,0,0,1,51.6,67l-.15-.31a10.59,10.59,0,0,1-.53-1.46,11.2,11.2,0,0,1-.42-3A11,11,0,0,1,52.52,55.83Z"/><path class="cls-3" d="M57.36,63.23A6.08,6.08,0,0,1,60,58.65a2.65,2.65,0,0,1,3,0,6.11,6.11,0,0,1,2.66,4.58,6.12,6.12,0,0,1-4,10.74h-.33a6.11,6.11,0,0,1-6.11-6.12,6.46,6.46,0,0,1,.12-1.25A6.16,6.16,0,0,1,57.36,63.23Z"/><path class="cls-3" d="M64.12,64.26h2.31a3.63,3.63,0,0,0,3.63-3.64v-.56a3.63,3.63,0,0,0-3.63-3.64H64.12a3.53,3.53,0,0,0-1.42.29,3.64,3.64,0,0,0-2.22,3.35v.56A3.64,3.64,0,0,0,64.12,64.26Z"/><path class="cls-3" d="M56.63,64.26h2.31a3.64,3.64,0,0,0,3.64-3.64v-.56a3.64,3.64,0,0,0-3.64-3.64H56.63A3.64,3.64,0,0,0,53,60.06v.56A3.64,3.64,0,0,0,56.63,64.26Z"/><path class="cls-2" d="M175.47,63.66a23.33,23.33,0,0,0-5.21.63c26.66,6.7,38.18,65.33,38.18,65.33h10.21S205.7,63.66,175.47,63.66Z"/><path class="cls-6" d="M170.26,64.29c-28.76,6.7-58.78,65.33-58.78,65.33h97S196.92,71,170.26,64.29Z"/><ellipse class="cls-3" cx="115.5" cy="24.19" rx="2.31" ry="24.19"/><ellipse class="cls-3" cx="129.89" cy="28.8" rx="24.19" ry="2.31" transform="translate(30.02 116.7) rotate(-53.85)"/><ellipse class="cls-3" cx="136.48" cy="36.45" rx="24.19" ry="2.31" transform="translate(0.06 73.12) rotate(-30)"/><ellipse class="cls-3" cx="139.39" cy="44.41" rx="24.19" ry="2.31" transform="translate(-5.26 22.56) rotate(-9.08)"/><ellipse class="cls-3" cx="102.31" cy="28.56" rx="2.31" ry="24.19" transform="translate(2.85 65.85) rotate(-36.15)"/><ellipse class="cls-3" cx="95.72" cy="36.21" rx="2.31" ry="24.19" transform="translate(16.5 101) rotate(-60)"/><ellipse class="cls-3" cx="92.81" cy="44.17" rx="2.31" ry="24.19" transform="translate(34.54 128.84) rotate(-80.92)"/><ellipse class="cls-3" cx="122.47" cy="31.4" rx="18.79" ry="2.31" transform="translate(43.44 130.08) rotate(-65.69)"/><ellipse class="cls-3" cx="128.48" cy="36.21" rx="18.79" ry="2.31" transform="translate(9.78 97.27) rotate(-42.96)"/><ellipse class="cls-3" cx="107.48" cy="31.11" rx="2.31" ry="18.79" transform="translate(-3.28 47) rotate(-24.31)"/><ellipse class="cls-3" cx="101.47" cy="35.92" rx="2.31" ry="18.79" transform="translate(6.03 85.69) rotate(-47.04)"/><ellipse class="cls-3" cx="115.5" cy="38.46" rx="2.31" ry="11.18"/><path class="cls-6" d="M117.5,69.32l16.91-16.43s-6.66-1.78-8.19-8.1,3-16.38,3-16.38H103s4.53,10.06,3,16.38-8.2,8.1-8.2,8.1L114.7,69.32V72l1.4-1.36L117.5,72Z"/><path class="cls-2" d="M115.9,82.36l0,4.32a95.63,95.63,0,0,0,10.5-.5c8-5.42,27.37-24,7.68-33.24-3.41,2.66-10.25,4.47-18.14,4.47s-14.83-1.84-18.21-4.52c-19.53,9-1.17,27.2,7.13,33a80.87,80.87,0,0,0,10.94.8Z"/><polygon class="cls-3" points="114.22 87.55 114.22 87.46 114.13 87.51 114.04 87.46 114.04 87.55 50.99 117.65 50.99 129.5 114.04 129.5 114.22 129.5 177.27 129.5 177.27 117.65 114.22 87.55"/><rect class="cls-2" x="50.99" y="117.65" width="126.27" height="12.06"/><polygon class="cls-4" points="59.04 121.4 57.47 120.07 59.04 118.74 60.61 120.07 59.04 121.4"/><polygon class="cls-4" points="59.04 128.62 57.47 127.3 59.04 125.97 60.61 127.3 59.04 128.62"/><polygon class="cls-4" points="59.04 126.02 56.31 123.71 59.04 121.4 61.76 123.71 59.04 126.02"/><polygon class="cls-4" points="67.25 121.4 65.68 120.07 67.25 118.74 68.82 120.07 67.25 121.4"/><polygon class="cls-4" points="67.25 128.62 65.68 127.3 67.25 125.97 68.82 127.3 67.25 128.62"/><polygon class="cls-4" points="67.25 126.02 64.52 123.71 67.25 121.4 69.97 123.71 67.25 126.02"/><polygon class="cls-4" points="75.55 121.4 73.98 120.07 75.55 118.74 77.12 120.07 75.55 121.4"/><polygon class="cls-4" points="75.55 128.62 73.98 127.3 75.55 125.97 77.12 127.3 75.55 128.62"/><polygon class="cls-4" points="75.55 126.02 72.82 123.71 75.55 121.4 78.27 123.71 75.55 126.02"/><polygon class="cls-4" points="85.07 121.42 83.5 120.09 85.07 118.77 86.64 120.09 85.07 121.42"/><polygon class="cls-4" points="85.07 128.65 83.5 127.32 85.07 125.99 86.64 127.32 85.07 128.65"/><polygon class="cls-4" points="85.07 126.04 82.35 123.73 85.07 121.42 87.8 123.73 85.07 126.04"/><polygon class="cls-4" points="145.23 121.44 143.66 120.11 145.23 118.78 146.8 120.11 145.23 121.44"/><polygon class="cls-4" points="145.23 128.66 143.66 127.33 145.23 126 146.8 127.33 145.23 128.66"/><polygon class="cls-4" points="145.23 126.05 142.5 123.74 145.23 121.44 147.96 123.74 145.23 126.05"/><polygon class="cls-4" points="153.44 121.44 151.87 120.11 153.44 118.78 155.01 120.11 153.44 121.44"/><polygon class="cls-4" points="153.44 128.66 151.87 127.33 153.44 126 155.01 127.33 153.44 128.66"/><polygon class="cls-4" points="153.44 126.05 150.72 123.74 153.44 121.44 156.17 123.74 153.44 126.05"/><polygon class="cls-4" points="161.74 121.44 160.17 120.11 161.74 118.78 163.31 120.11 161.74 121.44"/><polygon class="cls-4" points="161.74 128.66 160.17 127.33 161.74 126 163.31 127.33 161.74 128.66"/><polygon class="cls-4" points="161.74 126.05 159.01 123.74 161.74 121.44 164.47 123.74 161.74 126.05"/><polygon class="cls-4" points="170.74 121.46 169.17 120.13 170.74 118.8 172.31 120.13 170.74 121.46"/><polygon class="cls-4" points="170.74 128.68 169.17 127.36 170.74 126.03 172.31 127.36 170.74 128.68"/><polygon class="cls-4" points="170.74 126.08 168.02 123.77 170.74 121.46 173.47 123.77 170.74 126.08"/><rect class="cls-4" x="105.14" y="113.86" width="14.97" height="15.92"/><polygon class="cls-4" points="114.13 87.51 114.13 80.22 190.77 117.65 177.27 117.65 114.13 87.51"/><polygon class="cls-1" points="114.04 87.51 114.04 80.22 37.4 117.65 50.9 117.65 114.04 87.51"/><path class="cls-7" d="M143.68,44.84a4.23,4.23,0,1,0,8.46,0"/><path class="cls-4" d="M155,44.93a5.13,5.13,0,0,0-10.25,0"/><path class="cls-1" d="M151,58.15h.27a6.18,6.18,0,0,0,.87.38l1.25.4.34.13h0a5.7,5.7,0,0,1,2.2,4.56V89a5.27,5.27,0,0,1-5,5.49h0a5.27,5.27,0,0,1-5-5.49V63.64A5.27,5.27,0,0,1,151,58.15Z"/><path class="cls-7" d="M146.4,128.11h0a3.45,3.45,0,0,0,3.44-3.44V100.28a3.44,3.44,0,0,0-3.44-3.44h0a3.45,3.45,0,0,0-3.44,3.44v24.39A3.45,3.45,0,0,0,146.4,128.11Z"/><path class="cls-7" d="M139.48,128.11h0a3.45,3.45,0,0,0,3.44-3.44V100.28a3.45,3.45,0,0,0-3.44-3.44h0a3.45,3.45,0,0,0-3.44,3.44v24.39A3.45,3.45,0,0,0,139.48,128.11Z"/><path class="cls-8" d="M143.06,135.79h0a2.81,2.81,0,0,0,2.8-2.8V99.37a2.81,2.81,0,0,0-2.8-2.81h0a2.81,2.81,0,0,0-2.81,2.81V133A2.81,2.81,0,0,0,143.06,135.79Z"/><path class="cls-7" d="M146.4,109.24h0a3.45,3.45,0,0,0,3.44-3.44V81.41A3.45,3.45,0,0,0,146.4,78h0A3.45,3.45,0,0,0,143,81.41V105.8A3.45,3.45,0,0,0,146.4,109.24Z"/><path class="cls-7" d="M139.52,109.24h0A3.45,3.45,0,0,0,143,105.8V81.41A3.45,3.45,0,0,0,139.52,78h0a3.45,3.45,0,0,0-3.44,3.44V105.8A3.45,3.45,0,0,0,139.52,109.24Z"/><path class="cls-1" d="M143,113.75h0a3.45,3.45,0,0,0,3.44-3.44V80.77A3.45,3.45,0,0,0,143,77.33h0a3.45,3.45,0,0,0-3.44,3.44v29.54A3.45,3.45,0,0,0,143,113.75Z"/><path class="cls-3" d="M137.51,69c0,8.21.89,16.6,8.17,16.6,4.57,0,8.36-8.39,8.36-16.6s-3.7-14.86-8.26-14.86S137.51,60.74,137.51,69Z"/><path class="cls-8" d="M142.54,37h.23a6.57,6.57,0,0,1,6.55,6.55v12a10.71,10.71,0,0,1,2.19,2.73,5.65,5.65,0,0,0,.67.29l1.25.4.34.13h0a5.7,5.7,0,0,1,2.2,4.56v4.53a22,22,0,0,1-2.13-2.08A26.52,26.52,0,0,1,154,69a23.13,23.13,0,0,1-1.8,9.27C151.67,77.9,136,69.4,136,65.8V43.55A6.57,6.57,0,0,1,142.54,37Z"/><path class="cls-7" d="M135.18,94.11h0a5.28,5.28,0,0,0,5.51-5V62.72a5.27,5.27,0,0,0-5.51-5h0a5.27,5.27,0,0,0-5.5,5V89.14A5.28,5.28,0,0,0,135.18,94.11Z"/><path class="cls-3" d="M139.82,61.42a3,3,0,0,1,.4-.71,5.58,5.58,0,0,0-5-3,5.27,5.27,0,0,0-5.5,5v9.71C134.18,69.9,138,66.17,139.82,61.42Z"/><path class="cls-3" d="M139.93,42.8a3.32,3.32,0,1,1,3.57,3.05l-.28,0-3,.24-.27-3.44"/><path class="cls-3" d="M125.74,86.56h31.83a1.7,1.7,0,0,0,1.7-1.7h0a1.71,1.71,0,0,0-1.7-1.7H127.41"/><rect class="cls-4" x="136.16" y="83.82" width="4.88" height="2.35" rx="0.53" transform="translate(223.74 -53.51) rotate(90.06)"/><rect class="cls-4" x="151.17" y="83.82" width="4.88" height="2.35" rx="0.53" transform="translate(238.77 -68.53) rotate(90.06)"/><rect class="cls-4" x="148.28" y="83.82" width="4.88" height="2.35" rx="0.53" transform="matrix(0, 1, -1, 0, 235.87, -65.64)"/><rect class="cls-4" x="145.37" y="83.82" width="4.88" height="2.35" rx="0.53" transform="translate(232.97 -62.73) rotate(90.06)"/><rect class="cls-4" x="133.27" y="83.82" width="4.88" height="2.35" rx="0.53" transform="translate(220.85 -50.63) rotate(90.06)"/><rect class="cls-4" x="130.36" y="83.82" width="4.88" height="2.35" rx="0.53" transform="translate(217.94 -47.72) rotate(90.06)"/><rect class="cls-9" y="0.81" width="256.05" height="134.16"/></g></g></svg>