<svg xmlns="http://www.w3.org/2000/svg" viewBox="0 0 288.7 151.27"><defs><style>.cls-1{fill:none;}.cls-10,.cls-2{fill:#002735;}.cls-3{fill:#4a82c3;}.cls-4{fill:#f5f7d4;}.cls-5{fill:#ec6755;}.cls-6{fill:#bcbc3e;}.cls-7,.cls-8{fill:#059370;}.cls-10,.cls-8,.cls-9{fill-rule:evenodd;}.cls-9{fill:#04223e;}</style></defs><g id="Capa_2" data-name="Capa 2"><g id="Layer_1" data-name="Layer 1"><rect class="cls-1" width="288.7" height="151.27"/><polygon class="cls-2" points="95.06 36.77 102.16 6.69 109.22 36.77 95.06 36.77"/><polygon class="cls-3" points="90.96 36.11 85.67 10.44 104.95 38.36 90.96 36.11"/><polygon class="cls-3" points="113.33 36.11 118.61 10.44 99.33 38.36 113.33 36.11"/><path class="cls-4" d="M84.13,62.8l-3.53,0a30.56,30.56,0,0,0-.83,5.22l4.84-4.84Z"/><path class="cls-2" d="M81.33,60.35c-.28.81-.52,1.65-.73,2.49l3.53,0Z"/><path class="cls-5" d="M85.05,62.79l8.34-8.33L88,49.78a26.62,26.62,0,0,0-6.69,10.57l2.8,2.45Z"/><polygon class="cls-5" points="84.13 62.8 84.61 63.22 85.05 62.79 84.13 62.8"/><path class="cls-4" d="M102.16,45.69H94a22.3,22.3,0,0,0-6,4.09l5.37,4.68Z"/><path class="cls-2" d="M100.18,44A20,20,0,0,0,94,45.69h8.16Z"/><path class="cls-5" d="M103.93,43.92c-.53,0-1.07-.07-1.61-.07a18.92,18.92,0,0,0-2.14.12l2,1.72Z"/><path class="cls-2" d="M80.2,75.79a29.25,29.25,0,0,0,1,3.92l3.42,0Z"/><path class="cls-4" d="M84.64,79.66l-3.42,0a27.12,27.12,0,0,0,1.24,3.15l2.72-2.72Z"/><polygon class="cls-5" points="84.64 79.66 85.18 80.14 85.67 79.64 84.64 79.66"/><path class="cls-5" d="M85.68,79.64,94,71.37l-9.35-8.15-4.84,4.84c0,.71-.08,1.43-.08,2.15a30.88,30.88,0,0,0,.51,5.58l4.44,3.87Z"/><polygon class="cls-4" points="102.67 62.56 85.05 62.79 84.61 63.22 93.95 71.37 102.73 62.61 102.67 62.56"/><polygon class="cls-2" points="93.39 54.45 85.05 62.79 102.67 62.56 93.39 54.45"/><polygon class="cls-5" points="102.77 62.56 111.5 53.84 102.16 45.69 93.39 54.45 102.67 62.56 102.77 62.56"/><polygon class="cls-6" points="102.73 62.61 102.77 62.56 102.67 62.56 102.73 62.61"/><path class="cls-4" d="M111.5,53.84l4.57-4.56a21.89,21.89,0,0,0-5.45-3.59h-8.46Z"/><path class="cls-2" d="M110.62,45.69a19.84,19.84,0,0,0-6.69-1.77l-1.77,1.77Z"/><path class="cls-5" d="M85.18,80.14l-2.72,2.72a25.29,25.29,0,0,0,7.82,9.67l4.25-4.24Z"/><polygon class="cls-2" points="93.95 71.37 85.67 79.64 103.12 79.37 93.95 71.37"/><polygon class="cls-4" points="103.12 79.37 85.67 79.64 85.18 80.14 94.53 88.29 103.3 79.53 103.12 79.37"/><polygon class="cls-5" points="93.95 71.37 103.12 79.37 103.45 79.37 112.07 70.76 102.73 62.61 93.95 71.37"/><polygon class="cls-5" points="103.45 79.37 103.12 79.37 103.3 79.53 103.45 79.37"/><polygon class="cls-4" points="102.73 62.61 112.07 70.76 120.5 62.34 102.77 62.56 102.73 62.61"/><polygon class="cls-2" points="111.5 53.84 102.77 62.56 120.5 62.34 120.84 62 111.5 53.84"/><path class="cls-5" d="M120.84,62l2.25-2.25a26.41,26.41,0,0,0-7-10.47l-4.57,4.56Z"/><path class="cls-2" d="M94.53,88.29l-4.25,4.24a20.24,20.24,0,0,0,12,4c.49,0,1,0,1.47-.06l.08-.08Zm.13,6.17,0-4.78.05,4.78Z"/><path class="cls-2" d="M94.66,94.46h.1l-.05-4.78Z"/><polygon class="cls-5" points="94.53 88.29 103.87 96.44 112.64 87.68 103.3 79.53 94.53 88.29"/><polygon class="cls-2" points="121.23 79.09 121.41 78.92 112.07 70.76 103.45 79.37 121.23 79.09"/><polygon class="cls-4" points="103.3 79.53 112.64 87.68 121.23 79.09 103.45 79.37 103.3 79.53"/><path class="cls-5" d="M121.22,62.33h-.72l-8.43,8.42,9.34,8.16,3-3a30.51,30.51,0,0,0,.13-10.7Z"/><polygon class="cls-5" points="120.5 62.34 121.22 62.33 120.84 62 120.5 62.34"/><path class="cls-4" d="M124.53,65.22c-.16-1-.38-2-.63-2.93l-2.68,0Z"/><path class="cls-2" d="M121.22,62.33l2.68,0c-.24-.86-.51-1.71-.81-2.54L120.84,62Z"/><path class="cls-6" d="M103.79,96.52l.15,0-.07-.06Z"/><path class="cls-2" d="M103.87,96.44l.07.06a20.75,20.75,0,0,0,12.39-5.6l-3.69-3.22Z"/><polygon class="cls-5" points="121.6 79.08 121.41 78.92 121.23 79.09 121.6 79.08"/><path class="cls-5" d="M121.23,79.09l-8.59,8.59,3.69,3.22a26.37,26.37,0,0,0,6.84-10.45l-1.57-1.36Z"/><path class="cls-4" d="M123.17,80.45c.17-.46.32-.92.46-1.4l-2,0Z"/><path class="cls-2" d="M121.6,79.09l2,0a28.61,28.61,0,0,0,.77-3.13l-3,3Z"/><polygon class="cls-2" points="102.16 35.02 76.51 21.05 87.71 41.24 101.87 41.24 102.45 41.24 116.6 41.24 127.8 21.05 102.16 35.02"/><path class="cls-2" d="M95.65,102.45c-1.88,6.46,3.28,22.43,3.28,22.43l-.43,12.79h6.34l3.94-26.91Z"/><path class="cls-2" d="M133,102.45c-1.88,6.46.47,13.47,5.69,20.86l-2.85,14.36h6.35l3.94-26.91Z"/><path class="cls-7" d="M110.09,129.17,107.9,139h6.35l1.09-10.5c2.24-2.07,3.87-5.14,3.94-10.72,7.23,1.08,13.94.48,19.91-2.4,1.73,3.74,3.71,7.34,8.09,9.48L145.75,139h8.75V119.76c4.1-10.14,5.84-19.56,0-26.69-6-5.19-15.84-6.41-28.44-4.81-16.6-.58-28.65-3.5-38.72-7.44C86.43,94.08,95.85,110.81,110.09,129.17Z"/><ellipse class="cls-7" cx="87.12" cy="88.48" rx="12.69" ry="15.53"/><rect class="cls-2" x="75.52" y="95.62" width="23.63" height="12.03" rx="3.72"/><rect class="cls-2" x="98.93" y="137.67" width="5.59" height="5.59"/><rect class="cls-2" x="108.5" y="139.01" width="5.59" height="5.59"/><rect class="cls-2" x="147.6" y="139.01" width="5.59" height="5.59"/><rect class="cls-2" x="136.47" y="137.67" width="5.59" height="5.59"/><path class="cls-7" d="M72.17,78.81c3.5-2.38,7.27-2.93,8.42-1.23s-.74,5-4.24,7.38-8.42,1.23-8.42,1.23S68.67,81.18,72.17,78.81Z"/><path class="cls-7" d="M102.07,78.81c-3.5-2.38-7.27-2.93-8.42-1.23s.74,5,4.24,7.38,8.42,1.23,8.42,1.23S105.57,81.18,102.07,78.81Z"/><path class="cls-2" d="M76.8,64.36s-3.46,6.49,1,14.4,6.35-3.64,6.35-3.64S78.24,73.85,76.8,64.36Z"/><path class="cls-2" d="M96.52,64.36s3.46,6.49-1,14.4-6.35-3.64-6.35-3.64S95.08,73.85,96.52,64.36Z"/><path class="cls-8" d="M144.93,15.11V133.8l17.75-8.49s56.13-81.52,46.52-95.18-33.27-2.4-33.27-2.4l-12.49,4.16Z"/><path class="cls-9" d="M161.71,26.75h0a1,1,0,0,1,1,1v99.8a1,1,0,0,1-1,1h0a1,1,0,0,1-1-1V27.73A1,1,0,0,1,161.71,26.75Z"/><path class="cls-9" d="M169.31,26.75h0a1,1,0,0,1,1,1v81.88a1,1,0,0,1-1,1h0a1,1,0,0,1-1-1V27.73A1,1,0,0,1,169.31,26.75Z"/><path class="cls-9" d="M176.9,26.75h0a1,1,0,0,1,1,1V98.41a1,1,0,0,1-1,1h0a1,1,0,0,1-1-1V27.73A1,1,0,0,1,176.9,26.75Z"/><path class="cls-9" d="M184.5,26.75h0a1,1,0,0,1,1,1V82.6a1,1,0,0,1-1,1h0a1,1,0,0,1-1-1V27.73A1,1,0,0,1,184.5,26.75Z"/><path class="cls-9" d="M192.1,26.75h0a1,1,0,0,1,1,1V76.4a1,1,0,0,1-1,1h0a1,1,0,0,1-1-1V27.73A1,1,0,0,1,192.1,26.75Z"/><path class="cls-9" d="M199.69,26.75h0a1,1,0,0,1,1,1V64a1,1,0,0,1-1,1h0a1,1,0,0,1-1-1V27.73A1,1,0,0,1,199.69,26.75Z"/><path class="cls-9" d="M154.11,26.75h0a1,1,0,0,1,1,1v99.8a1,1,0,0,1-1,1h0a1,1,0,0,1-1-1V27.73A1,1,0,0,1,154.11,26.75Z"/><path class="cls-10" d="M140.84,15a4.52,4.52,0,0,1,8.51-3.05c6.49,18.09,19.3,14.84,32.12,11.59l.19-.05c2.49-.63,5-1.26,7.88-1.84,5.94-1.21,10.61-1.23,14.23-.35,5,1.21,8.1,4,9.77,7.79,1.49,3.37,1.67,7.41,1,11.68-1.13,7-4.68,14.94-8.35,21.32-6.55,11.41-14.12,23.21-21.79,35.19-6.9,10.76-13.88,21.67-20.18,32.32a4.53,4.53,0,1,1-7.8-4.61c6.35-10.74,13.4-21.74,20.36-32.6,7.73-12.07,15.35-24,21.58-34.8,3.22-5.6,6.31-12.43,7.25-18.24a12.18,12.18,0,0,0-.34-6.61,4.85,4.85,0,0,0-3.6-2.65c-2.4-.58-5.77-.51-10.34.42-2.17.44-4.79,1.1-7.42,1.77l-.18,0C166.91,36.55,150.12,40.81,140.84,15Z"/><path class="cls-10" d="M131.75,15.11a5.3,5.3,0,0,1,0-10.59h6.52a11.34,11.34,0,0,1,11.32,11.32v117a5.3,5.3,0,1,1-10.59,0V15.84a.73.73,0,0,0-.22-.52.74.74,0,0,0-.51-.21Z"/><rect class="cls-2" x="134.36" y="122.46" width="36.55" height="22.69"/><rect class="cls-2" x="125" y="4.24" width="10.86" height="10.86"/><path class="cls-3" d="M151.27,67.13c.47-7,9.06-11.48,8.87-22.07-1.26-13.13-20-15.2-23.92-15.49v-.05l-.35,0-.36,0v.05c-3.87.29-22.66,2.36-23.92,15.49-.19,10.59,8.4,15.1,8.87,22.07s-3.24,7.41-4.08,13.82c.32,12.53,16.89,11,19.49,10.63,2.59.33,19.16,1.9,19.48-10.63C154.51,74.54,150.8,74.09,151.27,67.13Z"/><circle class="cls-5" cx="135.5" cy="67.52" r="6.52"/><rect class="cls-5" x="131.66" y="67.13" width="7.74" height="62.13"/><rect class="cls-4" x="128.03" y="43.77" width="14.95" height="2.57"/><rect class="cls-5" x="130.13" y="127.99" width="10.5" height="17.2"/><circle class="cls-4" cx="141.02" cy="131.13" r="1.62"/><circle class="cls-4" cx="141.02" cy="136.59" r="1.62"/><circle class="cls-4" cx="141.02" cy="142.06" r="1.62"/><circle class="cls-4" cx="130.13" cy="131.09" r="1.62"/><circle class="cls-4" cx="130.13" cy="136.55" r="1.62"/><circle class="cls-4" cx="130.13" cy="142.01" r="1.62"/><path class="cls-2" d="M220.66,96.68s-3.4-6.38-8.83-5.47-9.33,1.08-12-2.49-14.38,19.69-14.38,19.69Z"/><path class="cls-3" d="M220.66,96.68s1.11,7.14-3.78,9.66-8.11,4.75-8.09,9.2-23.32-7.13-23.32-7.13Z"/><path class="cls-2" d="M209.59,144.22s3.61-6.27,0-10.38-5.86-7.35-4.23-11.49S181,120.58,181,120.58Z"/><path class="cls-3" d="M209.59,144.22s-5.48,4.72-10.21,1.91-8.32-4.37-12.08-2-6.3-23.56-6.3-23.56Z"/></g></g></svg>