<svg xmlns="http://www.w3.org/2000/svg" xmlns:xlink="http://www.w3.org/1999/xlink" viewBox="0 0 288.7 151.27"><defs><style>.cls-1,.cls-11{fill:none;}.cls-2{fill:#002735;}.cls-3{fill:#f9bb15;}.cls-4{fill:#059370;}.cls-5{fill:#ed705c;}.cls-6{fill:#f5f7d4;}.cls-7{fill:#f16e5b;}.cls-8{fill:#04223e;}.cls-9{opacity:0.3;}.cls-10{clip-path:url(#clip-path);}.cls-11{stroke:#002735;stroke-miterlimit:10;stroke-width:7px;}.cls-12{fill:#ec6755;}</style><clipPath id="clip-path"><rect class="cls-1" x="96.9" y="45.08" width="46.19" height="28.15"/></clipPath></defs><g id="Capa_2" data-name="Capa 2"><g id="Layer_1" data-name="Layer 1"><rect class="cls-1" width="288.7" height="151.27"/><rect class="cls-2" x="134.12" y="55.27" width="10.72" height="9.75"/><rect class="cls-2" x="147.52" y="55.27" width="10.72" height="9.75"/><rect class="cls-3" x="128.76" y="17.28" width="33.4" height="12"/><path class="cls-4" d="M167.09,45.64c0,12.79-9.65,15-21.56,15S124,58.43,124,45.64s9.66-23.17,21.56-23.17S167.09,32.84,167.09,45.64Z"/><path class="cls-2" d="M130.1,21.06c-4.15-2-8.3-.35-9.74,3.82s-5,27.24-1.44,27.59S132.21,31,132.83,28.69,134,22.6,130.1,21.06Z"/><path class="cls-2" d="M160.31,21.06c4.15-2,8.31-.35,9.75,3.82s5.05,27.24,1.44,27.59S158.2,31,157.58,28.69,156.44,22.6,160.31,21.06Z"/><path class="cls-3" d="M162.9,15.16c0,6.28-16.94,14.12-16.94,14.12s-17.8-7.84-17.8-14.12S135.94,3.8,145.53,3.8,162.9,8.88,162.9,15.16Z"/><polygon class="cls-2" points="137.64 19.42 153.43 19.42 145.38 35.05 137.64 19.42"/><circle class="cls-2" cx="156.57" cy="17.36" r="2.2"/><circle class="cls-2" cx="134.12" cy="17.36" r="2.2"/><path class="cls-2" d="M145.53,63.83H133.42v5.74h2v-3a.53.53,0,0,1,1.06,0v3h1.29v-3a.53.53,0,0,1,1.06,0v3h1.22v-3a.53.53,0,0,1,1.06,0v3h1.31v-3a.53.53,0,1,1,1.05,0v3h2Z"/><path class="cls-2" d="M158.93,63.83H146.82v5.74h2v-3a.52.52,0,0,1,.53-.53.53.53,0,0,1,.53.53v3h1.28v-3a.53.53,0,0,1,.53-.53.52.52,0,0,1,.53.53v3h1.23v-3a.53.53,0,1,1,1.06,0v3h1.3v-3a.53.53,0,1,1,1.06,0v3h2Z"/><path class="cls-2" d="M133.42,7l4.22,10.35,15.23-.08,6.06-9.36S147.92-1.22,133.42,7Z"/><path class="cls-5" d="M141.91,1.4h7.31a2.27,2.27,0,0,1,2.27,2.27v9.66a0,0,0,0,1,0,0H139.56a0,0,0,0,1,0,0V3.75A2.35,2.35,0,0,1,141.91,1.4Z"/><polygon class="cls-6" points="119.37 86.16 82.7 86.16 80.3 44.69 121.77 44.69 119.37 86.16"/><path class="cls-2" d="M78.7,52.7s.06-4.65,4.65-4.65S89,52.7,89,52.7l1,17.29h6.74v7.37s-16.19,1.28-18-1.29S78.7,52.7,78.7,52.7Z"/><path class="cls-2" d="M123.37,52.06s-.05-4.65-4.64-4.65-5.6,4.65-5.6,4.65l-1,17.29h-6.74v7.36s16.18,1.29,17.94-1.28S123.37,52.06,123.37,52.06Z"/><path class="cls-5" d="M101,74.44c0,5.46-1.94,4-4.32,4s-4.32,1.47-4.32-4,1.93-9.89,4.32-9.89S101,69,101,74.44Z"/><path class="cls-5" d="M109.74,74.44c0,5.46-1.93,4-4.31,4s-4.32,1.47-4.32-4,1.93-9.89,4.32-9.89S109.74,69,109.74,74.44Z"/><path class="cls-2" d="M90.13,20.75S88,14.67,82.06,15.91s-6.56,34.71.65,34.71c4.57,0,5.22-4.65,5.22-4.65Z"/><path class="cls-2" d="M112.67,20.75s2.14-6.08,8.07-4.84,6.56,34.71-.64,34.71c-4.58,0-5.23-4.65-5.23-4.65Z"/><circle class="cls-5" cx="101.04" cy="35.49" r="18.33"/><path class="cls-2" d="M106,32.63s-1.09-2.46-.36-3.33,8.46,0,8.46,0S109,33.06,106,32.63Z"/><path class="cls-2" d="M96,32.63s1.08-2.46.36-3.33-8.47,0-8.47,0S93.07,33.06,96,32.63Z"/><path class="cls-2" d="M104.74,34.88c-.72-1.43,0-6,0-6h-7.4s.71,4.54,0,6-4.66-.34-5.37,5.28c2.23-1.39,3.26-3.1,5.69-2.4a1.67,1.67,0,0,1,1,2.4h4.78a1.67,1.67,0,0,1,1-2.4c2.43-.7,3.45,1,5.69,2.4C109.39,34.54,105.45,36.31,104.74,34.88Z"/><polygon class="cls-7" points="143.09 45.08 114.8 73.23 170.83 73.23 143.09 45.08"/><rect class="cls-6" x="101.18" y="73.23" width="66.83" height="49.99"/><rect class="cls-8" x="144.31" y="108.63" width="6.51" height="14.75"/><polygon class="cls-7" points="143.09 45.08 125.23 45.08 96.9 73.23 118.44 73.23 143.09 45.08"/><rect class="cls-8" x="135.21" y="104.46" width="2.78" height="8.35"/><rect class="cls-8" x="155.98" y="104.46" width="2.78" height="8.35"/><rect class="cls-8" x="135.21" y="79" width="2.78" height="8.35"/><rect class="cls-8" x="111.7" y="104.46" width="2.78" height="8.35"/><rect class="cls-8" x="111.7" y="79" width="2.78" height="8.35"/><rect class="cls-8" x="155.98" y="79" width="2.78" height="8.35"/><g class="cls-9"><g class="cls-10"><polygon points="143.09 45.08 125.23 45.08 96.9 73.23 118.44 73.23 143.09 45.08"/></g></g><rect class="cls-8" x="96.9" y="73.23" width="1.21" height="27.96"/><rect class="cls-8" x="169.62" y="73.23" width="1.21" height="27.96"/><rect class="cls-8" x="165.37" y="89.63" width="1.21" height="11.41"/><rect class="cls-8" x="161.15" y="89.63" width="1.21" height="11.41"/><rect class="cls-8" x="156.77" y="89.63" width="1.21" height="11.41"/><rect class="cls-8" x="152.16" y="89.63" width="1.21" height="11.41"/><rect class="cls-8" x="147.93" y="89.63" width="1.21" height="11.41"/><rect class="cls-8" x="143.56" y="89.63" width="1.21" height="11.41"/><rect class="cls-8" x="138.91" y="89.63" width="1.21" height="11.41"/><rect class="cls-8" x="134.68" y="89.63" width="1.21" height="11.41"/><rect class="cls-8" x="130.3" y="89.63" width="1.21" height="11.41"/><rect class="cls-8" x="125.75" y="89.63" width="1.21" height="11.41"/><rect class="cls-8" x="121.53" y="89.63" width="1.21" height="11.41"/><rect class="cls-8" x="117.15" y="89.63" width="1.21" height="11.41"/><rect class="cls-8" x="112.65" y="89.03" width="1.21" height="11.41"/><rect class="cls-8" x="108.43" y="89.03" width="1.21" height="11.41"/><rect class="cls-8" x="104.05" y="89.03" width="1.21" height="11.41"/><rect class="cls-8" x="100.58" y="89.03" width="1.21" height="11.41"/><rect class="cls-8" x="133.54" y="62.1" width="1.21" height="76.99" transform="translate(234.73 -33.55) rotate(90)"/><rect class="cls-8" x="133.26" y="53.27" width="1.21" height="72.72" transform="translate(223.5 -44.23) rotate(90)"/><ellipse class="cls-11" cx="220.25" cy="74.9" rx="11.33" ry="11.24"/><path class="cls-4" d="M183.86,57.55h0c-22.91.87-38.36-3.19-38.36-3.19s19.95,47.35,24.4,49.06c4.06,1.57,12.54,1.91,14,2h.1V57.56Z"/><path class="cls-2" d="M184.06,105.39c1.42,0,9.9-.39,14-2,4.45-1.71,24.4-49.06,24.4-49.06S207,58.43,184.06,57.56H184v47.83Z"/><path class="cls-2" d="M145.5,54.37s34-20.9,76.92,0C184,66.45,145.5,54.37,145.5,54.37Z"/><path class="cls-5" d="M186.42,14.82a11.92,11.92,0,0,0-1.8.14c-1.21,6.16-2,14.71,1.8,19,4.18,4.72,1.57,15.49-.64,22.18.21,0,.43,0,.64,0,8.64,0,15.64-9.25,15.64-20.66S195.06,14.82,186.42,14.82Z"/><path class="cls-5" d="M183.65,33.88c-3.77-4.27-3-12.82-1.8-19C174.06,16.09,168,24.82,168,35.43c0,11.12,6.65,20.19,15,20.64C185.22,49.37,187.83,38.6,183.65,33.88Z"/><path class="cls-6" d="M78.78,95.7a50.92,50.92,0,0,0,43.06,37,51,51,0,0,0,17.85-1c3.14-.72,1.81-5.54-1.33-4.82A46.13,46.13,0,0,1,83.6,94.37c-.87-3.1-5.69-1.78-4.82,1.33Z"/><path class="cls-12" d="M150.36,121.27l4.9-23.69c15.54,4.81,32.18,5,49.52,2.17l3.71,24.08Z"/><path class="cls-2" d="M188.53,126.34s-58-20.73-57.09-3S188.53,126.34,188.53,126.34Z"/><path class="cls-12" d="M171.44,120.5s60.9-9.4,56.62,7.88S171.44,120.5,171.44,120.5Z"/><path class="cls-3" d="M105.35,148c7-5,4.82-20,4.82-20L84.85,146.24S98.35,153,105.35,148Z"/><path class="cls-2" d="M89.67,126.24c-7,5-4.82,20-4.82,20L110.17,128S96.66,121.2,89.67,126.24Z"/><path class="cls-3" d="M76.66,126.68c8-3.28,9.32-18.35,9.32-18.35L57.13,120.21S68.69,130,76.66,126.68Z"/><path class="cls-2" d="M66.45,101.87c-8,3.28-9.32,18.34-9.32,18.34L86,108.33S74.41,98.59,66.45,101.87Z"/><path class="cls-3" d="M61,88c3.88,7.69,19,7.88,19,7.88L66,68S57.13,80.31,61,88Z"/><path class="cls-2" d="M85,75.91C81.08,68.22,66,68,66,68L80,95.88S88.85,83.6,85,75.91Z"/></g></g></svg>