<svg xmlns="http://www.w3.org/2000/svg" viewBox="0 0 293.59 154.69"><defs><style>.cls-1,.cls-7,.cls-8{fill:none;}.cls-2,.cls-9{fill:#4a82c3;}.cls-3{fill:#059370;}.cls-4{fill:#ec6755;}.cls-5{fill:#002735;}.cls-6{fill:#f9bb15;}.cls-7,.cls-8{stroke:#f9bb15;stroke-miterlimit:10;}.cls-7{stroke-width:1.18px;}.cls-8{stroke-width:2.17px;}.cls-9{opacity:0.98;}.cls-10{fill:#f5f7d4;}</style></defs><g id="Capa_2" data-name="Capa 2"><g id="Layer_1" data-name="Layer 1"><rect class="cls-1" y="0.43" width="293.59" height="153.83"/><polygon class="cls-2" points="123.7 18.48 121.72 18.48 119.75 18.48 115.92 95.62 121.72 95.62 127.52 95.62 123.7 18.48"/><path class="cls-2" d="M149.39,19.22h9.74s-4.51-8.77-18.7-8.77-18.71,8.77-18.71,8.77h5.69V17.8l.68,1.42h9.7l-.35-1.82,1.45,1.82h9.54l-.19-2.07Z"/><path class="cls-2" d="M146.46,7.5l8.71-4.36s-8-5.82-20.65.53-12.8,16.22-12.8,16.22l5.09-2.55-.64-1.27,1.25,1,8.67-4.35L135,11.22l2.12,1,8.52-4.27-1.09-1.77Z"/><path class="cls-2" d="M94.49,18.52H84.75s4.51-8.77,18.7-8.77,18.71,8.77,18.71,8.77h-5.69V17.1l-.68,1.42h-9.7l.35-1.83L105,18.52H95.45l.18-2.07Z"/><path class="cls-2" d="M97.41,6.8l-8.7-4.36s8-5.83,20.65.53,12.8,16.21,12.8,16.21l-5.09-2.54.64-1.27-1.25,1L107.79,12l1.13-1.48-2.12,1L98.28,7.23l1.09-1.77Z"/><rect class="cls-3" x="89.96" y="76.77" width="26.87" height="44.28"/><polygon class="cls-2" points="97.46 59.3 78.54 76.77 117.04 76.77 97.46 59.3"/><polygon class="cls-4" points="153.79 76.77 116.83 76.77 97.36 59.3 133.14 59.3 153.79 76.77"/><rect class="cls-4" x="116.83" y="76.77" width="36.96" height="44.28"/><rect class="cls-5" x="78.54" y="76.77" width="2.19" height="44.28"/><rect class="cls-5" x="105.27" y="90.15" width="2.19" height="21.11" transform="translate(207.07 -5.66) rotate(90)"/><rect class="cls-5" x="114.84" y="76.77" width="2.19" height="44.28"/><rect class="cls-5" x="94.71" y="76.77" width="2.19" height="44.28"/><rect class="cls-5" x="99.06" y="100.36" width="1.77" height="20.74"/><rect class="cls-5" x="102.75" y="100.36" width="1.77" height="20.74"/><rect class="cls-5" x="106.6" y="100.36" width="1.77" height="20.74"/><rect class="cls-5" x="110.59" y="100.36" width="1.77" height="20.74"/><path class="cls-3" d="M178.73,10.54A9.61,9.61,0,0,0,169,20V122.91h19.52V20A9.61,9.61,0,0,0,178.73,10.54Z"/><path class="cls-3" d="M225.17,21c-3.73,0-6.75,1.84-6.75,4.11V69.9h13.51V25.09C231.93,22.82,228.9,21,225.17,21Z"/><path class="cls-3" d="M229.69,62.6c0-4-1.75-7.29-3.91-7.29H183.14V69.9h42.64C227.94,69.9,229.69,66.63,229.69,62.6Z"/><path class="cls-3" d="M140.15,40.18c3.73,0,6.75,1.84,6.75,4.11V89.1H133.39V44.29C133.39,42,136.42,40.18,140.15,40.18Z"/><path class="cls-3" d="M135.63,81.81c0-4,1.75-7.3,3.91-7.3h42.64V89.1H139.54C137.38,89.1,135.63,85.83,135.63,81.81Z"/><path class="cls-4" d="M202.3,91.46S203.87,73,186.08,73s-17.79,18.48-17.79,18.48Z"/><path class="cls-5" d="M198.18,85.36S199.35,75,186.18,75,173,85.36,173,85.36Z"/><rect class="cls-4" x="185.65" y="86.15" width="5.19" height="10.03" rx="2.6" transform="translate(376.49 182.33) rotate(-180)"/><rect class="cls-4" x="181.5" y="86.45" width="5.19" height="10.03" rx="2.6" transform="translate(274.87 275.9) rotate(-142.62)"/><path class="cls-4" d="M208.49,82.22c-.54,10.26-10.71,9.24-10.71,9.24l.39-6.39c1.4,1.21,3.69.52,5-2.85,1.2-4.38-11.36-14.06-11.36-20.55-1-8.1,4.28-9.71,9.14-10.51l-.19,5.5c-1.45,1.35-2.75,2-3.54,4.82C195,65.93,209,73.25,208.49,82.22Z"/><circle class="cls-4" cx="202.23" cy="55.46" r="5.19"/><path class="cls-6" d="M210.1,58.3c-2.56.11-6.33.52-6.33.52l.89-5.6s5.16-.5,7.88.3l-4,2.85Z"/><path class="cls-5" d="M214,54.4c1.25,2,.95,6.24.95,6.24s-1.47-2-2.75-2.31a10.42,10.42,0,0,0-2.13,0l-1.59-1.93,4-2.85A2.56,2.56,0,0,1,214,54.4Z"/><polyline class="cls-7" points="188.24 96.18 188.24 125.08 190.84 125.08"/><polyline class="cls-7" points="181.05 95.44 170.94 106.79 196.5 106.79 196.5 109.74"/><path class="cls-6" d="M175.52,101V63.58H127v37.37s-.4,21.18,24.26,21.18h0C175.93,122.13,175.52,101,175.52,101Z"/><path class="cls-8" d="M151.21,19.89c-26.7,0-23.18,43.68-23.18,43.68h46.36S177.92,19.89,151.21,19.89Z"/><rect class="cls-5" x="126.96" y="68.94" width="48.51" height="3.26"/><rect class="cls-5" x="126.96" y="79.56" width="48.51" height="3.26"/><rect class="cls-5" x="127.01" y="90.17" width="48.51" height="8.51"/><polygon class="cls-6" points="128.64 99.25 138.74 99.25 133.69 91.12 128.64 99.25"/><polygon class="cls-5" points="131.33 98.69 136.05 98.69 133.69 94.88 131.33 98.69"/><polygon class="cls-6" points="140.47 99.25 150.56 99.25 145.51 91.12 140.47 99.25"/><polygon class="cls-6" points="151.97 99.25 162.07 99.25 157.02 91.12 151.97 99.25"/><polygon class="cls-6" points="163.8 99.25 173.9 99.25 168.85 91.12 163.8 99.25"/><polygon class="cls-6" points="175.52 88.1 169.55 88.1 174.6 96.23 175.52 94.75 175.52 88.1"/><polygon class="cls-6" points="167.82 88.1 157.73 88.1 162.78 96.23 167.82 88.1"/><polygon class="cls-6" points="156.32 88.1 146.22 88.1 151.27 96.23 156.32 88.1"/><polygon class="cls-6" points="144.49 88.1 134.39 88.1 139.44 96.23 144.49 88.1"/><polygon class="cls-6" points="127.02 90.14 131.77 90.14 127.02 97.81 127.02 90.14"/><polygon class="cls-5" points="143.15 98.69 147.88 98.69 145.51 94.88 143.15 98.69"/><polygon class="cls-5" points="129.17 77.64 133.89 77.64 131.53 73.84 129.17 77.64"/><polygon class="cls-5" points="137.03 77.64 141.75 77.64 139.39 73.84 137.03 77.64"/><polygon class="cls-5" points="145.02 77.64 149.74 77.64 147.38 73.84 145.02 77.64"/><polygon class="cls-5" points="152.88 77.64 157.6 77.64 155.24 73.84 152.88 77.64"/><polygon class="cls-5" points="160.67 77.64 165.4 77.64 163.03 73.84 160.67 77.64"/><polygon class="cls-5" points="168.53 77.64 173.26 77.64 170.9 73.84 168.53 77.64"/><polygon class="cls-5" points="154.66 98.5 159.38 98.5 157.02 94.69 154.66 98.5"/><polygon class="cls-5" points="166.48 98.5 171.21 98.5 168.85 94.69 166.48 98.5"/><path class="cls-5" d="M69.26,113s5.19,19.08,13.79,17.75,7.26-12.08,7.26-12.08l-6.85-4.19Z"/><path class="cls-3" d="M162.43,130.45c-.79-.87-1.6-1.7-2.43-2.5-19,4.12-77.06-29.33-77.06-29.33-1-.43-4.64-1.71-10,0-7.63,2.43-7.78,4.09-7.78,4.09,4,.79,5.73,1.08,8.8,2.66-3.6-.28-2.52-.24-8.8,0,3.63,8.89,23.53,11.91,23.53,9.41,0,0,60.87,25.64,78,18.95A15.67,15.67,0,0,1,162.43,130.45Z"/><path class="cls-4" d="M87.65,112.53s-11.25,31.72,52.58,23.94C136.34,113.76,87.65,112.53,87.65,112.53Z"/><path class="cls-4" d="M132.46,133.61a34.78,34.78,0,0,0,4.09,5.11c1.64,1.43,12,2.48,10.43,2.87-1.13.28-3.6,2.35-5.72,5.32,2.24-1.74,4.44-3.39,5.83-3.07a5.45,5.45,0,0,0-1.13,4.91,6.53,6.53,0,0,1,3.68-4.91,7.32,7.32,0,0,1,3.48,4.91c.26-2.23-.08-4.22-1.63-5.73,1.73-.4,3.14.69,4.5,2-1.11-2.08-2.62-3.64-5.12-3.88,0,0-4.8-8.88-12.63-10.17S132.46,133.61,132.46,133.61Z"/><path class="cls-4" d="M90,127.44s7,6.37,6,7.6-6,3.89-6,3.89a33,33,0,0,0-12,.82c2.31,0,4.66,0,5.53,1.22-3.88.44-5.7,2-6.55,4.09,3.64-2.21,5.94-3.05,8.53-2.66-1.67,1.79-1.62,2.77-1.57,5.32,1.36-2.84,3-5.28,5.73-6.13-1.42,1.91-1.47,4-1.23,6.13-.26-.31,2-6.29,4.09-6.54,1.82-.22,13.1-1.22,14.12-10.43s-15.76-3.31-15.76-3.31Z"/><path class="cls-6" d="M65.14,105.37s7.17,19.44,20.36,14.43c9.62-7.88-2.56-12.18-2.56-12.18C80.92,117.11,73.54,112.58,65.14,105.37Z"/><path class="cls-5" d="M104.58,135.89s-.15-7.91-6.9-11.8c2.14-.61,33.5,3,37.31,12.95C116.33,140.26,104.58,135.89,104.58,135.89Z"/><polygon class="cls-6" points="81.23 97.38 84.08 98.39 83.49 95.52 81.23 97.38"/><polygon class="cls-6" points="84.6 98.83 87.3 100.2 87.08 97.27 84.6 98.83"/><polygon class="cls-6" points="87.86 100.41 90.54 101.82 90.37 98.89 87.86 100.41"/><polygon class="cls-6" points="91.25 102.12 93.9 103.58 93.78 100.65 91.25 102.12"/><polygon class="cls-6" points="94.58 104.1 97.32 105.37 97 102.46 94.58 104.1"/><polygon class="cls-6" points="98 105.83 100.7 107.2 100.48 104.28 98 105.83"/><polygon class="cls-6" points="101.38 107.63 104.12 108.93 103.83 106.02 101.38 107.63"/><polygon class="cls-6" points="104.71 109.39 107.47 110.63 107.12 107.72 104.71 109.39"/><polygon class="cls-6" points="108.34 111.06 111.07 112.38 110.8 109.46 108.34 111.06"/><polygon class="cls-6" points="111.85 112.76 114.54 114.15 114.34 111.22 111.85 112.76"/><polygon class="cls-6" points="115.13 114.52 117.91 115.72 117.51 112.81 115.13 114.52"/><polygon class="cls-6" points="118.49 115.97 121.27 117.17 120.87 114.26 118.49 115.97"/><polygon class="cls-6" points="121.8 117.36 124.63 118.42 124.09 115.54 121.8 117.36"/><polygon class="cls-6" points="125.31 118.75 128.12 119.87 127.64 116.98 125.31 118.75"/><polygon class="cls-6" points="128.77 120.11 131.63 121.11 131.03 118.24 128.77 120.11"/><polygon class="cls-6" points="132.25 121.42 135.06 122.56 134.6 119.66 132.25 121.42"/><polygon class="cls-6" points="135.6 122.82 138.5 123.68 137.77 120.84 135.6 122.82"/><polygon class="cls-6" points="139.09 123.88 141.99 124.74 141.25 121.91 139.09 123.88"/><polygon class="cls-9" points="131.19 141.67 192.74 141.67 213.06 129.11 127.91 129.11 131.19 141.67"/><polygon class="cls-9" points="126.1 122.15 127.91 129.11 213.06 129.11 224.53 122.01 126.1 122.15"/><polygon class="cls-6" points="126.1 122.15 127.91 129.11 213.06 129.11 224.53 122.01 126.1 122.15"/><path class="cls-5" d="M177.4,118.67H150.77l1-9.57H133L129.15,122H180C179.6,122,178.57,120.59,177.4,118.67Z"/><path class="cls-3" d="M177.4,118.67c-2.34-3.83-5.26-9.57-5.26-9.57H151.77l-1,9.57Z"/><rect class="cls-10" x="126.52" y="141.67" width="83.4" height="13.02"/></g></g></svg>