<svg xmlns="http://www.w3.org/2000/svg" viewBox="0 0 232.78 121.97"><defs><style>.cls-1{fill:#f9d445;}.cls-2{fill:#eb9770;}.cls-3{fill:#04223e;}.cls-4{fill:#059370;}.cls-5{fill:#002735;}.cls-6{fill:#8aacd6;}.cls-7{fill:#f5f7d4;}.cls-8{fill:#ec6755;}.cls-9{fill:#f9bb15;}.cls-10,.cls-11,.cls-12,.cls-13,.cls-14,.cls-15,.cls-17{fill:none;}.cls-10,.cls-11,.cls-12,.cls-13,.cls-14,.cls-15{stroke:#163140;stroke-miterlimit:10;}.cls-10{stroke-width:1.19px;}.cls-11{stroke-width:0.84px;}.cls-12{stroke-width:0.39px;}.cls-13{stroke-width:0.23px;}.cls-14{stroke-width:0.42px;}.cls-15{stroke-width:0.29px;}.cls-16{fill:#fbd636;}</style></defs><g id="Capa_2" data-name="Capa 2"><g id="Layer_1" data-name="Layer 1"><path class="cls-1" d="M37.85,46.69a16,16,0,0,1-1.46-1.39A2.7,2.7,0,0,1,35.85,43a1.89,1.89,0,0,1,1.8-1.39c1.18.06,2,1.37,3.1,1.65.34.08.71.07,1,.17a.83.83,0,0,1,.64.75,1.14,1.14,0,0,1-.31.58c-.55.62-1.17,1.17-1.69,1.81-.7.88-.64,1.73-1,2.66C38.81,48.41,38.64,47.46,37.85,46.69Z"/><path class="cls-2" d="M37.54,45.75a3.6,3.6,0,0,1-1-1.44,1.13,1.13,0,0,1,.36-1.13.87.87,0,0,1,1.14.06,2.84,2.84,0,0,1,.37.81c.27.63,1,1,1.18,1.67a2.45,2.45,0,0,1,.09,1,10,10,0,0,1-.25,1.63.35.35,0,0,1-.19.3c-.4.13-.62-1-.71-1.29A5.67,5.67,0,0,0,37.54,45.75Z"/><path class="cls-1" d="M50.72,95.42c.18,2.62.76,9,1.12,11.73-1.06,2.95-1.46,5.57-2.44,6a9.58,9.58,0,0,1-2.78.32,1.31,1.31,0,0,1-1.25-1.06c-.08-1.08,1.46-1.44,2.07-2.34.51-.73,1.21-3.21.68-8.06-.35-3.13-1-6.17-1.37-9.3a58.37,58.37,0,0,0-1.68-7.83c-1.07-4.42-1-8-2.68-11.53A14.84,14.84,0,0,1,41.17,69c0-1.13-.3-3.42.54-4.17,1.08-.95.32,2.68,1.74,2.91A8.83,8.83,0,0,1,48.19,70c1.3,1.28,1.26,2.56,1.63,4.22a53.15,53.15,0,0,1,.84,13.39C50.6,90.24,50.53,92.83,50.72,95.42Z"/><path class="cls-1" d="M90.28,86.69A16.55,16.55,0,0,0,91.37,98c.79,1.64,1.89,3.41,1.3,5.13-.53,1.53-2.17,2.31-3.54,3.16a15.29,15.29,0,0,0-5.91,6.89,3.72,3.72,0,0,1-1.45,2.08,3.23,3.23,0,0,1-1.34.22c-1.28,0-2.94.42-4-.34-.17-.13,0-.78-.11-1-.23-.53.23-1.13.76-1.37s1.14-.25,1.67-.48c1.14-.51,7.65-8.16,8.06-9.56.8-2.74-1.86-7.54-3.14-10.09L74.8,74.87a11.32,11.32,0,0,1-1.63-5.23,6.87,6.87,0,0,1,2.92-5.17,11.46,11.46,0,0,1,5.73-2,15.74,15.74,0,0,1,9.73,2.1,13,13,0,0,1,5.9,7.92c.7,3-.33,4.4-2.34,6.24A16.63,16.63,0,0,0,90.28,86.69Z"/><path class="cls-1" d="M65.15,59.64c5.47-.3,10.68-2.32,16-3.72a23.92,23.92,0,0,1,7.21-1A10.28,10.28,0,0,1,95,57.54a6.63,6.63,0,0,1,1.84,6.67c-.77,2.24-2.89,3.74-5.07,4.66s-4.53,1.44-6.63,2.53a25,25,0,0,0-3.93,2.72A84.89,84.89,0,0,1,71.91,81,22.64,22.64,0,0,1,61,84.49c-6.15.13-12-3.28-16-7.94a17.46,17.46,0,0,1-3.41-5.64,9.7,9.7,0,0,1,0-6.49c1.48-3.86,6.78-7.73,10.68-8.8,2.08-.57,3.67.34,5.37,1.47C60.12,58.73,62.1,59.8,65.15,59.64Z"/><path class="cls-1" d="M104.86,63.65c2.41,4.41,2.64,9.64,4.07,14.46a23.48,23.48,0,0,0,5.63,9.9,16.28,16.28,0,0,0,10.15,4.88c1.89.14,3.86-.09,5.62.61A3.37,3.37,0,0,1,132.11,95a1.93,1.93,0,0,1-.23,2.19,2.8,2.8,0,0,1-1.39.62,20,20,0,0,1-7.2.09,24.74,24.74,0,0,1-12.65-5.36,28.67,28.67,0,0,1-7.41-11.1c-1.7-4.16-2.87-8.51-4.42-12.73a11.66,11.66,0,0,1-1.07-4.82c.12-1.54,1.54-3.83,3.3-3.8S104.17,62.38,104.86,63.65Z"/><path class="cls-2" d="M54.9,59a8.41,8.41,0,0,1-2.17,4.13,45.66,45.66,0,0,1-3.38,3.29c-2.54,2.37-2.69,7.17-1.77,9.85.42,1.24.25,2.35,1.21,3.41a66,66,0,0,1-5.32-5.12c-3.36-5.17-4.17-7.91-3.68-14.71.22-3.09,2.74-7.86,4-7.91a18.21,18.21,0,0,1,5.41.44C52.25,53.19,55.46,55.46,54.9,59Z"/><path class="cls-1" d="M56.29,46.25a16.11,16.11,0,0,0,1.38-1.48,2.66,2.66,0,0,0,.4-2.33,1.86,1.86,0,0,0-1.87-1.28c-1.18.12-1.86,1.48-3,1.82-.34.1-.71.1-1,.23a.8.8,0,0,0-.59.78,1,1,0,0,0,.34.56c.58.59,1.23,1.1,1.78,1.72.75.83.75,1.68,1.18,2.59C55.43,48,55.54,47.06,56.29,46.25Z"/><path class="cls-2" d="M56.55,45.29a3.63,3.63,0,0,0,.93-1.49,1.15,1.15,0,0,0-.42-1.12.87.87,0,0,0-1.14.13,3.18,3.18,0,0,0-.32.83c-.24.64-.89,1.08-1.09,1.74a2.45,2.45,0,0,0,0,1A10.94,10.94,0,0,0,54.82,48c0,.12.09.26.21.29.41.11.57-1.08.64-1.33A5.35,5.35,0,0,1,56.55,45.29Z"/><path class="cls-1" d="M38,49.88c.29-1,.73-1.86,1.09-2.79a17.42,17.42,0,0,0,.78-2.48,2.85,2.85,0,0,1,.46-1.17,2.54,2.54,0,0,1,1.65-.7,33.56,33.56,0,0,1,5-.47h0a33.56,33.56,0,0,1,5,.47,2.54,2.54,0,0,1,1.65.7,2.85,2.85,0,0,1,.46,1.17,17.42,17.42,0,0,0,.78,2.48c.36.93.8,1.83,1.09,2.79a5.3,5.3,0,0,1,.16,2.95,6,6,0,0,1-1.13,2,11.58,11.58,0,0,1-4.56,3.49,9.91,9.91,0,0,1-3.43.74h0a9.91,9.91,0,0,1-3.43-.74A11.58,11.58,0,0,1,39,54.84a6,6,0,0,1-1.13-2A5.3,5.3,0,0,1,38,49.88Z"/><path class="cls-2" d="M49.44,53.62a2.88,2.88,0,0,1,.83,1.14,1.25,1.25,0,0,0,.31.47,1.08,1.08,0,0,0,.7.22,6.1,6.1,0,0,0,4.28-1.4,16.47,16.47,0,0,1-1.79,2.21,11,11,0,0,1-4.51,2.85,8.36,8.36,0,0,1-5.3,0,11.77,11.77,0,0,1-3.23-1.88,6.81,6.81,0,0,1-2.64-3.81,5.67,5.67,0,0,0,3.66,2.3,1.75,1.75,0,0,0,1.56-.34,3.76,3.76,0,0,0,.48-.88,2.26,2.26,0,0,1,1.57-1.15c.77-.14,1.54.11,2.32,0A2.45,2.45,0,0,1,49.44,53.62Z"/><path class="cls-3" d="M45.61,52.84a1.81,1.81,0,0,1,.86-.23l.53,0c.19,0,.42,0,.53,0a1.81,1.81,0,0,1,.86.23.66.66,0,0,1,.29.77,1,1,0,0,1-.44.37l-1,.58a.67.67,0,0,1-.21.09h0l0,0h0l-.14-.07-1-.58a.92.92,0,0,1-.43-.37A.64.64,0,0,1,45.61,52.84Z"/><path class="cls-3" d="M47.25,54.08v.09a.15.15,0,0,1,0,.09.22.22,0,0,1,0,.08.14.14,0,0,1-.08,0,.12.12,0,0,1-.1,0h-.06a.41.41,0,0,1-.11-.07l0-.05a.27.27,0,0,1,0-.12v-.09a.15.15,0,0,1,0-.09.22.22,0,0,1,0-.08l.08,0a.15.15,0,0,1,.09,0h.07a.24.24,0,0,1,.11.06l0,.05a.27.27,0,0,1,0,.12Z"/><path class="cls-3" d="M47,56a3.6,3.6,0,0,0-.12-.64c-.06-.21-.17-.4-.22-.62a.72.72,0,0,1,.27-.83.2.2,0,0,1,.17,0,.67.67,0,0,1,.24.76,3.13,3.13,0,0,1-.16.52A2.75,2.75,0,0,0,47,56s0,0,0,0Z"/><path class="cls-2" d="M74.64,76c-5.56,3.61-12.51,4.62-19.09,3.91-4.66-.5-9.6-2.07-12.3-5.9a22.93,22.93,0,0,0,11,9.72,16.26,16.26,0,0,0,8.41,1.71,21.39,21.39,0,0,0,4.45-1.14,30.75,30.75,0,0,0,6.29-2.63,35,35,0,0,0,4.17-3.21c3-2.5,6.08-5,9.77-6.1,1.54-.48,2.09-2.16.39-3-1.18-.57-3.1.17-4.2.62C80.19,71.35,77.63,74,74.64,76Z"/><path class="cls-1" d="M86.21,55a27.54,27.54,0,0,1,10.61,1.53c3.33,1.33,6.3,3.89,7.33,7.25,1.33,4.38-.76,9-.88,13.57-.11,4.08,1.38,8.06,3.34,11.66a18.16,18.16,0,0,0,2.86,4.08c1.32,1.36,3,2.51,3.57,4.31a5.82,5.82,0,0,1-.81,4.33c-.73,1.33-1.69,2.53-2.33,3.91-.84,1.8-3.29,10.24-3.91,10.63-1.32.83-2.72.6-4.29.5a1.52,1.52,0,0,1,.18-1.74c.37-.51.9-.88,1.31-1.36a7.57,7.57,0,0,0,1.36-2.93c1-3.27,3.48-7.65,2.56-10.93-1.17-4.21-6.64-6.09-9.71-9.28-3.89-4-6.57-9-9.21-13.9a31.79,31.79,0,0,1-2.86-6.43,19.29,19.29,0,0,1-.64-5.34A12.77,12.77,0,0,1,85.93,59a6.67,6.67,0,0,1,4.74-3.58Z"/><path class="cls-1" d="M58,99.24c-.31,2.61-.93,9-1.08,11.74-1.59,2.7-2.46,5.2-3.5,5.41a9.34,9.34,0,0,1-2.79-.19,1.3,1.3,0,0,1-1-1.28c.11-1.08,1.7-1.15,2.47-1.91s1.78-2.93,2.15-7.8c.25-3.14.13-6.26.39-9.39a27.9,27.9,0,0,0-.19-8c-.79-3.81-2.95-7.22-4-11a8,8,0,0,1-.33-3.33,3.83,3.83,0,0,1,1.71-2.78,4.94,4.94,0,0,1,4.17,0,8.88,8.88,0,0,1,4.24,3.12c1,1.51.75,2.75.82,4.45A53.08,53.08,0,0,1,59.38,91.6C58.84,94.13,58.29,96.66,58,99.24Z"/><path class="cls-1" d="M42.17,58.14A13,13,0,0,0,44.9,59.4,11.32,11.32,0,0,0,50.8,59c-2,1-3.94,2-5.83,3.2a2.17,2.17,0,0,1-.9.38,2.14,2.14,0,0,1-1.4-.51,19,19,0,0,1-2.32-1.87,1.51,1.51,0,0,1-.4-.51,1.69,1.69,0,0,1,0-.92c.08-.36.19-.7.27-1.06a2,2,0,0,0,.13-.86c.25.17.51.42.76.61A10.66,10.66,0,0,0,42.17,58.14Z"/><path class="cls-3" d="M49.64,43.2a.66.66,0,0,1-.47.43,1.69,1.69,0,0,1-.49.13.61.61,0,0,1-.57-.44.6.6,0,0,1,.27-.66,1,1,0,0,1,.69-.12.65.65,0,0,1,.47.22.47.47,0,0,1,.1.44Z"/><path class="cls-3" d="M47.48,44a.61.61,0,0,1,.22.06.8.8,0,0,1,.22.29,1.83,1.83,0,0,1,.24.76.37.37,0,0,1-.19.32.35.35,0,0,1-.28,0,.41.41,0,0,1-.28-.36,5.6,5.6,0,0,0-.07-.59.63.63,0,0,1,0-.3.77.77,0,0,1,.06-.15.09.09,0,0,1,.12-.07Z"/><path class="cls-3" d="M47.2,43.42a.67.67,0,0,1-.28.1l-.08,0h0a.29.29,0,0,1-.13.05.39.39,0,0,1-.43-.18.39.39,0,0,1,.06-.46c.23-.18.73-.29.95,0a.3.3,0,0,1-.06.47Z"/><path class="cls-3" d="M46.34,45a1,1,0,0,1-.67-.16.42.42,0,0,1-.18-.46.41.41,0,0,1,.39-.3.67.67,0,0,1,.67.71.27.27,0,0,1-.21.21Z"/><path class="cls-3" d="M45.41,43.21a1.44,1.44,0,0,1-.53.38.42.42,0,0,1-.42,0l0,0,.19,0h-.05a.32.32,0,0,1-.31-.21.34.34,0,0,1,.07-.37l0,0-.11.26v0a.43.43,0,0,1,.3-.4,1,1,0,0,1,.6,0c.14,0,.35.19.25.37Z"/><path class="cls-3" d="M43.47,43.43a.56.56,0,0,1-.08.41l0-.06,0,.11-.08.1s0,0,0,0,0,0,0,0a.41.41,0,0,1-.19.18.46.46,0,0,1-.67-.51.61.61,0,0,1,.2-.29.83.83,0,0,1,.32-.17.43.43,0,0,1,.54.21Z"/><path class="cls-3" d="M50.59,44.56c-.08,0-.15,0-.24,0a1.14,1.14,0,0,1-.26-.09.26.26,0,0,1-.09-.35.26.26,0,0,1,.34-.09.66.66,0,0,1,.24.23,1,1,0,0,1,.08.24s0,.07-.07.07Z"/><path class="cls-3" d="M51.87,43.71a1.7,1.7,0,0,1-.39,0,1.06,1.06,0,0,1-.46-.13.29.29,0,0,1,0-.5.71.71,0,0,1,.84.19.39.39,0,0,1,.11.29c0,.06,0,.14-.1.15Z"/><path class="cls-3" d="M49.1,46.11a.55.55,0,0,1,0,.47,1.52,1.52,0,0,1-.31.44.4.4,0,0,1-.56,0h0l.25.1h-.07a.3.3,0,0,1-.29-.38.25.25,0,0,1,0-.07l0,.27h0a.4.4,0,0,1,.14-.53,2.39,2.39,0,0,1,.44-.29c.11,0,.31-.14.39,0Z"/><path class="cls-3" d="M46.94,45.9a3.17,3.17,0,0,1,.24.49,2.48,2.48,0,0,1,.08.66.5.5,0,0,1-.43.49.49.49,0,0,1-.54-.35,1.8,1.8,0,0,1,0-.8,1.23,1.23,0,0,1,.38-.52.14.14,0,0,1,.23,0Z"/><path class="cls-3" d="M45.21,46.15s.12,0,.17.07a1.71,1.71,0,0,1,.18.2c0,.06.1.11.14.18a1.18,1.18,0,0,1,.12.28c.13.31-.33.55-.55.32a1.41,1.41,0,0,1-.28-.51,1.09,1.09,0,0,1,0-.26c0-.07.06-.14.07-.2a.11.11,0,0,1,.19-.08Z"/><path class="cls-3" d="M48,48.46a.53.53,0,0,1,.05.52.72.72,0,0,1-.17.29.51.51,0,0,1-.28.15c-.23.07-.53-.18-.43-.42a.85.85,0,0,1,.31-.43l.11-.09.07-.06a.28.28,0,0,1,.34,0Z"/><path class="cls-3" d="M46.75,48.5a.69.69,0,0,0,0,.13s0,.08,0,.12l0,.11a.63.63,0,0,1,0,.24.28.28,0,0,1-.51.06.53.53,0,0,1,0-.43,1.2,1.2,0,0,1,.16-.32.17.17,0,0,1,.32.09Z"/><path class="cls-3" d="M45.72,49.62c.19.24.59.66.36,1a.2.2,0,0,1-.27.07c-.33-.15-.27-.68-.3-1,0-.11.14-.17.21-.09Z"/><path class="cls-3" d="M47.44,50.49a2.46,2.46,0,0,1,.12.6.37.37,0,1,1-.74,0,2.46,2.46,0,0,1,.12-.6.26.26,0,0,1,.5,0Z"/><path class="cls-3" d="M48.78,50.24c0,.1,0,.2,0,.3a.71.71,0,0,1-.19.4.29.29,0,0,1-.46-.36,1.1,1.1,0,0,1,.17-.25.67.67,0,0,0,.14-.19c.08-.18.37-.09.36.1Z"/><path class="cls-3" d="M47.12,52.14h0l0-.09v0a.79.79,0,0,1,0,.09,1.7,1.7,0,0,1-.1.14.59.59,0,0,1-.2.12.67.67,0,0,1-.2,0,.29.29,0,0,1-.25-.43l.11-.16a.41.41,0,0,1,.3-.11.42.42,0,0,1,.36.16l-.08-.08h0a.17.17,0,0,1,.09.32Z"/><path class="cls-3" d="M45.88,51.88l-.09-.05,0,0h0a.48.48,0,0,1-.16-.08.42.42,0,0,1-.08-.12.21.21,0,0,1,0-.24.23.23,0,0,1,.23-.08.37.37,0,0,1,.27.18.76.76,0,0,1,.12.19.17.17,0,0,1-.23.23Z"/><path class="cls-3" d="M54.66,48.88a1,1,0,0,1-.36-.27,1.59,1.59,0,0,1-.13-.13.5.5,0,0,1-.12-.47v.19a.41.41,0,0,1,.51-.5h0a.47.47,0,0,1,.4.23c.13.22.27.58.11.82a.3.3,0,0,1-.35.14Z"/><path class="cls-3" d="M54,46.39a.24.24,0,0,1-.23,0,.23.23,0,0,1-.14-.08l0,0s0,0,0,0a.18.18,0,0,1,0-.14.17.17,0,0,1,.11-.11.28.28,0,0,1,.3.07c.06.06.13.21,0,.28Z"/><path class="cls-3" d="M53.78,45.12a.35.35,0,0,1,.09.28c0,.2-.15.44-.37.41a.31.31,0,0,1-.31-.31.32.32,0,0,1,.21-.32h0l0,0,.1,0c.08,0,.18-.07.25,0Z"/><path class="cls-3" d="M40.74,45.62s0,0,0,0l0-.08c.08.12,0,.31-.11.4l-.07.1a.87.87,0,0,1-.21.17.26.26,0,0,1-.28,0,.26.26,0,0,1-.1-.27,1,1,0,0,1,.09-.18.8.8,0,0,1,.13-.13.84.84,0,0,1,.33-.16.2.2,0,0,1,.19.05h0l-.12,0h.08a.1.1,0,0,1,.1.13Z"/><path class="cls-3" d="M40,47.2c.17.07.28.26.39.41a.71.71,0,0,1,.19.53.18.18,0,0,1-.22.13c-.21-.06-.29-.25-.38-.42a1.17,1.17,0,0,1-.19-.54A.14.14,0,0,1,40,47.2Z"/><path class="cls-3" d="M39.83,48.05c0,.19,0,.47-.17.58a.29.29,0,0,1-.39-.1.4.4,0,0,1,0-.43,1,1,0,0,1,.23-.22.21.21,0,0,1,.19,0,.22.22,0,0,1,.09.17Z"/><path class="cls-3" d="M53.77,48.62a.55.55,0,0,1,0,.26.49.49,0,0,1-.22.25.2.2,0,0,1-.26-.06.19.19,0,0,1,0-.26,1.21,1.21,0,0,1,.2-.14,1,1,0,0,0,.18-.1s.13,0,.12,0Z"/><path class="cls-3" d="M76.7,61.85a1.18,1.18,0,0,1-.28.68,1.44,1.44,0,0,1-.61.35c-.22.09-.46.16-.69.23a1,1,0,0,1-.56-2,8.5,8.5,0,0,1,1-.16,1.07,1.07,0,0,1,.68.13,1,1,0,0,1,.47.79Z"/><path class="cls-3" d="M72.57,60.56a1.24,1.24,0,0,1-.75.53c.24-.09-.08.07-.08.07s.18-.11,0,0,.12-.18,0,0A1,1,0,1,1,70.19,60a1.9,1.9,0,0,1,1.35-.64c.64,0,1.41.56,1,1.25Z"/><path class="cls-3" d="M72.16,66.09c-.72.31-1.41-.14-2.14-.25a1,1,0,0,1-.73-1.28,1.07,1.07,0,0,1,1.29-.73c.79.15,2,.61,2,1.57a.78.78,0,0,1-.39.69Z"/><path class="cls-3" d="M67.33,62.61c-.4.42-1.06.39-1.56.61a.91.91,0,0,1-1.27-.42.89.89,0,0,1,.58-1.21c.68-.15,1.7-.38,2.25.18a.61.61,0,0,1,0,.84Z"/><path class="cls-3" d="M63.25,61.17c-.27.45-1.07.36-1.51.3a.72.72,0,0,1-.72-.83.73.73,0,0,1,.91-.61,4.12,4.12,0,0,1,1,.46c.19.14.48.42.32.68Z"/><path class="cls-3" d="M58.73,59.11a2.1,2.1,0,0,1-1.33,0c-.48-.11-.27-.9.21-.75s1,.23,1.17.6a.15.15,0,0,1-.05.2Z"/><path class="cls-3" d="M58.48,61.65a1.31,1.31,0,0,1,.25,1.12c-.07.27-.17.53-.23.81a1,1,0,1,1-1.92-.53,3.15,3.15,0,0,1,.58-1.19c.3-.3,1-.64,1.32-.21Z"/><path class="cls-3" d="M63.39,64.14c-.36-.4-.45-.52-.24-.35a.52.52,0,0,1,.17.19,1,1,0,0,1,.1.34,1.69,1.69,0,0,1-.05.67,3,3,0,0,1-.65,1.16,1,1,0,1,1-1.4-1.4,6.4,6.4,0,0,1,1.06-1,.7.7,0,0,1,1,.41Z"/><path class="cls-3" d="M67.62,68.2a.8.8,0,0,1,.11.37c0,.1,0,0,0-.06a2.67,2.67,0,0,1,0,.49,1.29,1.29,0,0,1-.6,1A1,1,0,0,1,66,69.81a1.18,1.18,0,0,1-.23-.41,1,1,0,0,1,.09-.7.86.86,0,0,1,.4-.4l-.07,0,.13-.1a1.72,1.72,0,0,1,.49-.29l-.32.19a.91.91,0,0,1,.4-.24.67.67,0,0,1,.72.29Z"/><path class="cls-3" d="M81.47,68a4.4,4.4,0,0,1-1.66.09,1.05,1.05,0,0,1-1-1.19A1.06,1.06,0,0,1,80.09,66a4.3,4.3,0,0,1,1.57.49A.82.82,0,0,1,81.47,68Z"/><path class="cls-3" d="M80.67,64.72a.68.68,0,0,1-.35.22c.15-.07.11,0-.11,0l-.09,0-.39.11a.92.92,0,0,1-1.12-.64.91.91,0,0,1,.64-1.12,1.68,1.68,0,0,1,1.06.11.79.79,0,0,1,.36,1.26Z"/><path class="cls-3" d="M81.29,60.6a5,5,0,0,1-1.77.56,1,1,0,0,1-1.18-.68A1,1,0,0,1,79,59.3a3.49,3.49,0,0,1,2.28.06.73.73,0,0,1,0,1.24Z"/><path class="cls-3" d="M87,60.23a1,1,0,0,1-.83.4H86a.91.91,0,0,1-.78-.28.86.86,0,0,1,.17-1.32,1.12,1.12,0,0,1,1.2.11c.34.21.66.67.4,1.07Z"/><path class="cls-3" d="M85.88,57.81c-.13.68-1.31,1-1.88.81a.82.82,0,0,1-.19-1.49c.61-.28,2.26-.42,2.07.68Z"/><path class="cls-3" d="M81.71,56.8a3.68,3.68,0,0,1-.75.48c-.25.11-.5.24-.75.12a.17.17,0,0,1-.07-.24c.12-.23.39-.29.61-.36a6.07,6.07,0,0,1,.84-.21c.11,0,.23.12.12.21Z"/><path class="cls-3" d="M77.32,58.1a1.32,1.32,0,0,1-.31.36,2.48,2.48,0,0,1-.6.26,1,1,0,0,1-1-.08.2.2,0,0,1-.06-.2,1,1,0,0,1,.78-.61,3.45,3.45,0,0,1,.54-.11,1.11,1.11,0,0,1,.57.12.18.18,0,0,1,.11.26Z"/><path class="cls-3" d="M93.55,59.32a1.63,1.63,0,0,1-1.3,0,8.66,8.66,0,0,1-1.44-.47A1,1,0,0,1,91.3,57a3.11,3.11,0,0,1,2,.82c.33.3.88,1.12.3,1.47Z"/><path class="cls-3" d="M89.56,56.33l-.39.1a.29.29,0,0,0-.1,0c.06,0,.05,0,0,0a1.06,1.06,0,0,1-.4.09.68.68,0,0,1-.64-.49.7.7,0,0,1,.31-.76,1.23,1.23,0,0,1,1.47.23.48.48,0,0,1-.21.79Z"/><path class="cls-3" d="M100.67,63.12h0a.41.41,0,0,1-.19,0l-.19-.13a2.92,2.92,0,0,1-.42-.44,3.05,3.05,0,0,1-.71-1,.81.81,0,0,1,1.18-.91,2.18,2.18,0,0,1,.79,1.33,2,2,0,0,1,0,.68.65.65,0,0,1-.08.31l-.07.1c-.13.08-.14.1,0,.06a.23.23,0,0,1-.38.1Z"/><path class="cls-3" d="M102.05,67.6a.72.72,0,0,1-.25-.27,1.31,1.31,0,0,0-.19-.27c.08.09-.18-.16,0,0a1.72,1.72,0,0,1-.49-.48.89.89,0,0,1,1.22-1.21,1.48,1.48,0,0,1,.58,1.55c-.08.36-.37,1-.84.71Z"/><path class="cls-3" d="M98.2,68.63a2,2,0,0,1-1.48.82,5.42,5.42,0,0,1-2.16,0,1,1,0,0,1-.7-1.07,1,1,0,0,1,1-.85,8.28,8.28,0,0,1,1.86.13,2.27,2.27,0,0,1,1.48.57.3.3,0,0,1,0,.36Z"/><path class="cls-3" d="M96.89,65.16a1.93,1.93,0,0,1-1.07.3,9.91,9.91,0,0,1-1.08.06,1,1,0,0,1-.27-2,2.22,2.22,0,0,1,2.69,1,.6.6,0,0,1-.27.67Z"/><path class="cls-3" d="M92.87,64.32a1.36,1.36,0,0,1-.22.73q.09-.24.06-.12l0,.07-.12.3c.06-.17.08-.2,0-.1a1,1,0,0,1-1.12.73,1,1,0,0,1-.88-1,1.46,1.46,0,0,1,1.31-1.58,1,1,0,0,1,1,1Z"/><path class="cls-3" d="M88,65.14a1,1,0,0,1,.81.57,4.93,4.93,0,0,1,.52.89,1,1,0,0,1-.56,1.13,1,1,0,0,1-1.19-.39,3,3,0,0,1-.25-1.28c0-.34.2-1,.67-.92Z"/><path class="cls-3" d="M97,60.87c-.2.4-.77.43-1.17.42-.06,0-.4,0-.26,0a1.1,1.1,0,0,1-.67,0h.38a.79.79,0,0,1-1-.76v-.1a.93.93,0,0,1,.66-.86c.66-.27,2.54.32,2,1.29Z"/><path class="cls-3" d="M88.94,62.94l-.07,0,.28-.49a.73.73,0,0,1-.27.53l.17-.3a1,1,0,0,1-.19.34s-.15.15,0,0l-.18.23a2.11,2.11,0,0,1-.23.19.79.79,0,0,1-1-.13.8.8,0,0,1-.13-1,1.2,1.2,0,0,1,.64-.47,1,1,0,0,1,.73.06l-.34-.09c.26,0,.56.07.67.34l-.34-.26.08,0a.54.54,0,0,1,.13,1Z"/><path class="cls-3" d="M101.37,73.27a2.34,2.34,0,0,1-.17,1.81,1.07,1.07,0,1,1-2-.82c.39-.54.91-1.21,1.61-1.28a.56.56,0,0,1,.51.29Z"/><path class="cls-3" d="M99.44,79.66c-.71.39-1.66,0-2.41-.16a1.08,1.08,0,0,1-.75-1.31,1.09,1.09,0,0,1,1.31-.75c.69.19,1.83.4,2.14,1.12a.82.82,0,0,1-.29,1.1Z"/><path class="cls-3" d="M96.56,75a3.3,3.3,0,0,1-1.32.25.87.87,0,1,1,.23-1.72,2.21,2.21,0,0,1,1.2.57.58.58,0,0,1-.11.9Z"/><path class="cls-3" d="M92.61,78.29l-.21-.09.24,0a.61.61,0,0,1-.47-.09l.22.06a1.47,1.47,0,0,1-.71-.29,1.3,1.3,0,0,1-.58-.68.71.71,0,0,1,1-.8,1.38,1.38,0,0,1,.49.66,2.27,2.27,0,0,1,.21.67l-.06-.22a.61.61,0,0,1,.09.47l0-.24.11.19c.14.23-.12.42-.33.33Z"/><path class="cls-3" d="M92.23,72a3.2,3.2,0,0,1-1.51.14.86.86,0,1,1,.23-1.7,2.22,2.22,0,0,1,1.46.88.5.5,0,0,1-.18.68Z"/><path class="cls-3" d="M103.83,89.51a3.61,3.61,0,0,1-.72-.29,2.24,2.24,0,0,1-.68-.69.56.56,0,0,1,.87-.68,5.39,5.39,0,0,1,.51.67,3.37,3.37,0,0,1,.19.32,1.25,1.25,0,0,0,.15.25.27.27,0,0,1-.32.42Z"/><path class="cls-3" d="M101.86,84.85s0,0,0,0a1,1,0,0,1-.16-.12l-.09-.09s-.11-.09,0,0a.82.82,0,0,1-.41-.84.57.57,0,0,1,.39-.38.76.76,0,0,1,.87.48,3.45,3.45,0,0,1,.14.34.83.83,0,0,1,0,.22l0,.13s0,0,0,0a.4.4,0,0,1-.68.28Z"/><path class="cls-3" d="M99.3,87.07c-.35-.19-.81-.19-1.13-.43a.65.65,0,0,1,.5-1.19c.49.1.85.58,1.16.93a.44.44,0,0,1-.53.69Z"/><path class="cls-3" d="M97.09,83.22c-.27,0-.69-.23-.58-.56a.29.29,0,0,1,.35-.2.32.32,0,0,1,.21.15l0,0s0,0,0,0l0,0s0,0,0,0l0,0h0a.27.27,0,0,1,.2.29.28.28,0,0,1-.27.24Z"/><path class="cls-3" d="M101.15,81.22c0-.23-.13-.49,0-.68l-.06.12,0-.07a.24.24,0,0,1,.46,0l0,.07-.07-.12c.18.19.08.45,0,.68a.24.24,0,0,1-.47,0Z"/><path class="cls-3" d="M74.91,68.91a1.58,1.58,0,0,1-.52,1.34,3.24,3.24,0,0,1-1.3,1.11A1,1,0,0,1,72,69.9a3.7,3.7,0,0,1,1.44-1.18c.43-.23,1.31-.49,1.51.19Z"/><path class="cls-3" d="M76.05,72.82a1.06,1.06,0,0,1-.39.69,1,1,0,0,1-1,.23.61.61,0,0,1-.36-.88,1,1,0,0,1,1.06-.52c.25,0,.73.15.68.48Z"/><path class="cls-3" d="M71.25,75.92a1.42,1.42,0,0,0-.42-.08,1.28,1.28,0,0,1-.46-.17.42.42,0,0,1,.21-.77,1,1,0,0,1,.63.24c.13.11.24.25.36.37s-.06.52-.32.41Z"/><path class="cls-3" d="M64.28,74.46c-.71,0-1.63.22-2.19-.35a.92.92,0,0,1,1.31-1.3c-.06,0-.36-.13-.17-.12l.2,0a2.49,2.49,0,0,1,.56.21,1.46,1.46,0,0,1,.71.78.5.5,0,0,1-.42.74Z"/><path class="cls-3" d="M63.21,69.49a1.79,1.79,0,0,1-.9.63c-.31.15-.62.32-.91.49a1,1,0,1,1-.8-1.88c.72-.3,1.88-.58,2.51,0a.62.62,0,0,1,.1.74Z"/><path class="cls-3" d="M56.56,67.19a1.82,1.82,0,0,1-.2,1,4.55,4.55,0,0,1-.63,1.19,1,1,0,0,1-1.12.14.94.94,0,0,1-.42-1A2.4,2.4,0,0,1,55,67.37a1.63,1.63,0,0,1,1.12-.55.5.5,0,0,1,.48.37Z"/><path class="cls-3" d="M51.76,71c.94.07,1.2,1.22,1.67,1.86.61.82-.58,2-1.39,1.39a2.3,2.3,0,0,1-.87-1.72C51.1,72.09,51,71,51.76,71Z"/><path class="cls-3" d="M58.84,73.13c.9.48.6,2.25,0,2.86s-1.67,0-1.47-.86a10.48,10.48,0,0,1,.48-1,2,2,0,0,1,.46-.92.41.41,0,0,1,.49-.06Z"/><path class="cls-3" d="M62.08,77.15a1.79,1.79,0,0,1,0,.23c0-.17,0,.09,0,.12a1.17,1.17,0,0,1-.18.41,4.17,4.17,0,0,1-.49.62.92.92,0,0,1-1.11.15,1.26,1.26,0,0,1-.32-.33.92.92,0,0,1,.14-1.11,4.24,4.24,0,0,1,.65-.46,1.68,1.68,0,0,1,.39-.16l.2,0h0a.33.33,0,0,1,.14,0,.59.59,0,0,1,.58.57Z"/><path class="cls-3" d="M59.58,82.28A3.18,3.18,0,0,1,59,84.42a1,1,0,1,1-1.67-1,3.17,3.17,0,0,1,1.49-1.59.61.61,0,0,1,.75.43Z"/><path class="cls-3" d="M56.77,80.51l-.08,0H57a1,1,0,0,1-.7-.13l.37.1a2.77,2.77,0,0,1-.88-.34L55.43,80c.19.09-.49-.2-.22-.09a1,1,0,0,1-.68-1.2,1,1,0,0,1,1.2-.68c.73.29,1.6.89,1.65,1.76l-.1-.37a.9.9,0,0,1,0,.87l.08-.28V80a.5.5,0,0,1-.61.47Z"/><path class="cls-3" d="M55.2,84.54a4.25,4.25,0,0,0-.64-.32,1.76,1.76,0,0,1-.72-.57.7.7,0,0,1,.95-1,1.64,1.64,0,0,1,.6.84c.11.24.11.51.22.76s-.25.37-.41.24Z"/><path class="cls-3" d="M57.44,90.23a3.75,3.75,0,0,1-.25-.49l.14.25a1.45,1.45,0,0,1-.23-1.23.77.77,0,0,1,1.28-.34.73.73,0,0,1,.19.74,3.39,3.39,0,0,1-.56,1l.1-.18a.84.84,0,0,0,0,.17.34.34,0,0,1-.62.08Z"/><path class="cls-3" d="M58.68,87.4c-.25-.07-.35-.27-.49-.47a.6.6,0,0,1,.36-.89.59.59,0,0,1,.47.06.64.64,0,0,1,.31.53.94.94,0,0,1,0,.41.51.51,0,0,1-.61.36Z"/><path class="cls-3" d="M56.55,96.64a1,1,0,0,1-.22-.34l.12.19a1.13,1.13,0,0,1-.24-.71.93.93,0,0,1,.2-.85.54.54,0,0,1,.76,0,1,1,0,0,1,.19,1,1,1,0,0,1-.52.72.24.24,0,0,1-.29,0Z"/><path class="cls-3" d="M55.58,89.09l-.18-.35a1,1,0,0,1-.11-.64.52.52,0,0,1,.87-.23,1,1,0,0,1,.21.61c0,.13,0,.27,0,.4a.42.42,0,0,1-.78.21Z"/><path class="cls-3" d="M56,93.93s0,0,0,0l0,0-.08,0h0l-.12,0,0,0a.39.39,0,0,1-.1-.08.43.43,0,0,1-.11-.4.42.42,0,0,1,.29-.3.62.62,0,0,1,.54.17.86.86,0,0,1,.2.26.38.38,0,0,1-.6.47Z"/><path class="cls-3" d="M56.41,100.76c0,.06,0,.07,0,0s0,0,0,.08,0,.07,0,.11a1.15,1.15,0,0,1,0,.37.55.55,0,1,1-1-.27.94.94,0,0,1,.19-.32l.09-.07.08-.07s0,0,0,0a.32.32,0,0,1,.58.15Z"/><path class="cls-3" d="M48.21,88.48c-.13-.06-.33-.07-.48-.13a3.71,3.71,0,0,1-1.4-1.55.91.91,0,0,1,.23-.86.87.87,0,0,1,.85-.23,1.41,1.41,0,0,1,.67.48,6.34,6.34,0,0,1,.41.6,3.3,3.3,0,0,1,.27.53,5.37,5.37,0,0,1,.09.67.44.44,0,0,1-.64.49Z"/><path class="cls-3" d="M48.45,84.9s0,0,0,0a.44.44,0,0,1-.16-.14,1,1,0,0,1-.21-.42,2.24,2.24,0,0,1-.15-.88.78.78,0,1,1,1.55,0,2.35,2.35,0,0,1-.11.83,2,2,0,0,1-.12.34c-.07.12-.19.18-.26.28a.31.31,0,0,1-.53,0Z"/><path class="cls-3" d="M46.89,82.76a1.48,1.48,0,0,1-.35-.25.85.85,0,0,1-.18-.32c0-.1,0-.2,0-.29a.49.49,0,0,1,.72-.42l.17.13a.74.74,0,0,1,.24.36,1.32,1.32,0,0,1,0,.44.41.41,0,0,1-.61.35Z"/><path class="cls-3" d="M45.61,80.07a3.7,3.7,0,0,0-.33-.36.35.35,0,0,1-.06-.42v0l0,.16v0a.3.3,0,0,1,.44-.25l0,0-.16,0h0a.38.38,0,0,1,.34.26,2.54,2.54,0,0,0,.14.47c.09.21-.25.41-.4.23Z"/><path class="cls-3" d="M49.46,95.72c-.14-.46-.42-.85-.52-1.33s0-.86.45-.91.62.41.63.76a9.88,9.88,0,0,1-.27,1.44.15.15,0,0,1-.29,0Z"/><path class="cls-3" d="M47.55,91.86a2.12,2.12,0,0,1-.47-1.11.45.45,0,0,1,.67-.38,2.26,2.26,0,0,1,.67,1.12.48.48,0,0,1-.28.57.47.47,0,0,1-.59-.2Z"/><path class="cls-3" d="M88.74,81.43l-.06.07.15-.26c-.15.53-.82.77-1.09,1.18s-.28.59-.59.77A.86.86,0,0,1,86,82.88c-.4-.68.24-1.49.74-1.91a2.47,2.47,0,0,1,.94-.51,1.67,1.67,0,0,1,.5,0,2.31,2.31,0,0,1,.48.17.54.54,0,0,1,.11.84Z"/><path class="cls-3" d="M84.9,79.14c-.41-.2-.66-.52-1-.71a4.93,4.93,0,0,0-.49-.18,1.21,1.21,0,0,1-.81-.79.92.92,0,0,1,.23-.88c1.1-1,3.17.74,3.12,2a.68.68,0,0,1-1,.58Z"/><path class="cls-3" d="M83.57,80.77c0-.16,0-.12,0,.11s0,.27,0,.12c0,.12,0,.25,0,.38a2.67,2.67,0,0,1-.21.66.91.91,0,0,1-1.16.38,1,1,0,0,1-.55-1.1,1.69,1.69,0,0,1,.45-.79,1.85,1.85,0,0,1,.32-.25l.17-.09a.45.45,0,0,1,.19,0c.13,0,.14,0,0,0a.67.67,0,0,1,.83.63Z"/><path class="cls-3" d="M85.42,84.86A2.82,2.82,0,0,1,86,86.8a.88.88,0,0,1-.44.76.9.9,0,0,1-.9,0,.88.88,0,0,1-.44-.76,2.82,2.82,0,0,1,.61-1.94.43.43,0,0,1,.56,0Z"/><path class="cls-3" d="M88.59,85.48a1.27,1.27,0,0,1,.25.82,2.13,2.13,0,0,1-.26,1.14.77.77,0,0,1-1,.32.8.8,0,0,1-.46-.92,2.19,2.19,0,0,1,.55-1,1.22,1.22,0,0,1,.74-.45.13.13,0,0,1,.15.06Z"/><path class="cls-3" d="M88.6,91.46a1.68,1.68,0,0,1,.3.6,1.16,1.16,0,0,1-.09.93.73.73,0,0,1-1.25,0,1.16,1.16,0,0,1-.09-.93,1.68,1.68,0,0,1,.3-.6.49.49,0,0,1,.83,0Z"/><path class="cls-3" d="M86.56,92.13c.13.17.28.3.4.48a1,1,0,0,1,.12.79.51.51,0,0,1-.74.3,1,1,0,0,1-.45-.72c0-.22,0-.44,0-.66a.38.38,0,0,1,.28-.36.39.39,0,0,1,.42.17Z"/><path class="cls-3" d="M89,97.64l0,.06.06.06a.86.86,0,0,1,.13.2.54.54,0,0,1,0,.51.47.47,0,0,1-.35.24.4.4,0,0,1-.26,0l.1,0-.11,0a.5.5,0,0,1-.24-.37.77.77,0,0,1,0-.3s0-.07,0,0a.34.34,0,0,0,0-.1.34.34,0,0,1,.57-.23Z"/><path class="cls-3" d="M87.1,76.7a.9.9,0,0,1-.36.08,1.23,1.23,0,0,1-.53-.21c-.3-.15-.61-.32-.9-.5A.81.81,0,0,1,85,75a.82.82,0,0,1,1.1-.29,3.34,3.34,0,0,1,.95,1,1,1,0,0,1,.23.64.5.5,0,0,1-.2.41Z"/><path class="cls-3" d="M80.71,79.82a2.8,2.8,0,0,1-.56,1.1.64.64,0,0,1-.74.1.63.63,0,0,1-.28-.36.59.59,0,0,1,.16-.59,1.64,1.64,0,0,1,.61-.36.82.82,0,0,0,.35-.24c.25-.25.58.06.46.35Z"/><path class="cls-3" d="M116.93,96.19a2.1,2.1,0,0,0,.31-.35,4.89,4.89,0,0,0,.7-2.33l.33-2.68a15.15,15.15,0,0,0,1.39.71,3.32,3.32,0,0,1,0,1.09c-.19,1.1-.77,2.11-1,3.21a3.09,3.09,0,0,0,0,1C118.08,96.62,117.5,96.41,116.93,96.19Z"/><path class="cls-3" d="M123.29,97.84l-.7-.11a4.07,4.07,0,0,0,1.11-2.61,5.41,5.41,0,0,0-.42-2.17l-.1-.29a13.35,13.35,0,0,0,1.53.2c1.89.14,3.86-.1,5.62.61a3.32,3.32,0,0,1,1.78,1.47,1.93,1.93,0,0,1-.23,2.19,2.8,2.8,0,0,1-1.39.62A20,20,0,0,1,123.29,97.84Z"/><path class="cls-3" d="M108.67,89.05a8.67,8.67,0,0,0,1.54-2.91,4.72,4.72,0,0,1,.66-1.64,1.44,1.44,0,0,1,.65-.46c.34.57.71,1.13,1.11,1.67a2.22,2.22,0,0,1-.18.8,8.12,8.12,0,0,1-1.65,2.63,5.5,5.5,0,0,0-1.22,1.47,2,2,0,0,0-.17.72c-.44-.45-.86-.92-1.26-1.4A2.26,2.26,0,0,1,108.67,89.05Z"/><path class="cls-3" d="M112.51,93.06a3.43,3.43,0,0,0,.94-1.63,19.85,19.85,0,0,0,.85-3.72l.26.27c.34.34.7.67,1.07,1-.13,1.13.26,2.33-.15,3.39-.35.89-1.23,1.61-1.46,2.47a21.43,21.43,0,0,1-2.22-1.42A1.73,1.73,0,0,0,112.51,93.06Z"/><path class="cls-3" d="M107.75,85.07a15.75,15.75,0,0,1-.08-1.7c-.09-.62.11-1.33.87-1.35,1.47,0,1.58,2.41,1,3.28a1,1,0,0,1-1.75-.23Z"/><path class="cls-3" d="M106.74,83.34a1.26,1.26,0,0,1-1.41-.39,2.53,2.53,0,0,1-.48-.61,1.89,1.89,0,0,1-.21-.93.83.83,0,0,1,1.53-.41c.19.34.4.7.6,1.12a1.53,1.53,0,0,1,.2.7c0,.16-.07.45-.23.52Z"/><path class="cls-3" d="M107.07,79.42a2.3,2.3,0,0,1-.26-.72,5,5,0,0,1,0-.87.68.68,0,0,1,.33-.56.67.67,0,0,1,.66,0,.66.66,0,0,1,.32.56,2.18,2.18,0,0,1-.37,1.59c-.15.2-.51.27-.64,0Z"/><path class="cls-3" d="M106.58,74.08a2.73,2.73,0,0,1-.73-1.26A1.22,1.22,0,0,1,106,71.5a.35.35,0,0,1,.39,0c.5.23.58.61.67,1.12A2.71,2.71,0,0,1,107,74a.23.23,0,0,1-.38.1Z"/><path class="cls-3" d="M105.55,74.8a6,6,0,0,1,.08,1.34,1.3,1.3,0,0,1-.44,1.12.33.33,0,0,1-.32,0c-.85-.53-.22-2,.34-2.55a.21.21,0,0,1,.34.09Z"/><path class="cls-3" d="M108.3,88.18a1.07,1.07,0,0,1-.89-.22,1.77,1.77,0,0,1-.77-.66.74.74,0,0,1,.83-1.07,1.83,1.83,0,0,1,1,.84,1,1,0,0,1,.21.56.53.53,0,0,1-.36.55Z"/><polygon class="cls-4" points="97.67 38.14 130.44 38.14 135.32 43.21 153.39 44.33 158.33 48.67 178.76 49.7 178.97 107.74 88.48 101.07 97.67 38.14"/><ellipse class="cls-5" cx="114.05" cy="38.14" rx="16.39" ry="1.42"/><ellipse class="cls-5" cx="137" cy="44.33" rx="16.39" ry="1.42"/><ellipse class="cls-5" cx="162.37" cy="49.71" rx="16.39" ry="1.42"/><polygon class="cls-6" points="50.67 110.11 78.23 16.17 89.18 46.07 94.24 27.7 126.24 111.02 50.67 110.11"/><polygon class="cls-7" points="74.97 31.48 77.11 42.91 80.68 34.33 83.54 41.48 85.41 36.07 78.23 16.47 73.08 34.02 74.97 31.48"/><polygon class="cls-7" points="93.55 48.98 96.05 42.91 99.26 51.13 101.89 47.92 94.24 28 90.67 40.98 93.55 48.98"/><rect class="cls-5" x="105.93" y="65.82" width="18.27" height="36.55"/><rect class="cls-8" x="124.2" y="65.82" width="12.47" height="36.55"/><rect class="cls-8" x="149.55" y="65.82" width="18.68" height="36.55"/><rect class="cls-5" x="167.72" y="65.82" width="16.79" height="36.55"/><rect class="cls-5" x="108.59" y="56.11" width="15.61" height="8.65"/><rect class="cls-5" x="166.9" y="56.11" width="15.61" height="8.65"/><rect class="cls-8" x="124.25" y="54.35" width="43.47" height="28.43"/><rect class="cls-9" x="136.46" y="79.69" width="4.7" height="22.68"/><rect class="cls-9" x="149.29" y="79.69" width="4.76" height="22.68"/><rect class="cls-9" x="136.46" y="72.02" width="17.58" height="11.02"/><rect class="cls-5" x="139.71" y="74.8" width="11.07" height="5.47"/><rect class="cls-9" x="103.44" y="62.33" width="84.08" height="3.32"/><rect class="cls-9" x="112.72" y="79.69" width="4.7" height="22.68"/><rect class="cls-9" x="174.27" y="79.69" width="4.7" height="22.68"/><circle class="cls-9" cx="114.91" cy="76.81" r="2.86"/><circle class="cls-9" cx="176.62" cy="76.81" r="2.86"/><rect class="cls-9" x="105.93" y="95.87" width="35.22" height="6.5"/><rect class="cls-9" x="149.29" y="95.87" width="35.22" height="6.5"/><rect class="cls-5" x="95.92" y="102.38" width="99.12" height="3.25"/><rect class="cls-5" x="92.19" y="104.49" width="106.57" height="3.25"/><path class="cls-8" d="M136.63,110.84c1,3.28,0,4.28-3.56,4.26q-46-.18-92.08.05c-3.48,0-5.32-1.17-6.38-4.19l22.67,0Z"/><path class="cls-5" d="M57.83,105.38c-3.22.82-5.79.15-7.18-3.17-.78-1.84-2.2-2.23-4.1-2.2-4.42.08-8.84-.09-13.26-.15-.57-3.15,1.46-3.43,3.76-3.43.79.06,1.59.06,2.37.18,2.82.44,4.17-.36,3.77-3.56a36.78,36.78,0,0,1,.24-6.45c-.75,4.41-.3,5.24,2.74,5.16,1.09,0,2.16-.07,2.18-1.5,0-2.08,1.73-1.69,2.92-2.08a6.9,6.9,0,0,0,5,0c1.51.39,1.77,1.44,1.74,2.86C57.88,95.83,57.87,100.61,57.83,105.38Z"/><path class="cls-3" d="M136.63,110.84l-79.35.1-22.67,0-.7-.89c1-.69,2.2-.52,3.34-.52q48.15,0,96.32,0a28.88,28.88,0,0,1,3.05.3C136.62,110.19,136.63,110.51,136.63,110.84Z"/><path class="cls-9" d="M56.25,88.2a6.9,6.9,0,0,1-5,0c-.1-1.89.11-3.11,2.69-3.1S56.12,86.71,56.25,88.2Z"/><path class="cls-8" d="M131.57,100.81c-2-.08-3.64.32-4.86,1.91a7.8,7.8,0,0,1-1.14,1.21H51.66a7.23,7.23,0,0,1-1-1.72c-.78-1.84-2.2-2.23-4.1-2.2-4.42.08-8.84-.09-13.26-.15-1.9.44-3.95-.31-6.13.58l6.75,9.63c1-.69,2.2-.52,3.34-.52q48.15,0,96.32,0a28.88,28.88,0,0,1,3.05.3c-.8-4.4,3.25-6,5.95-9C138.37,100.84,135,100.94,131.57,100.81Z"/><rect class="cls-5" x="37.2" y="84.58" width="6.73" height="12.83"/><rect class="cls-4" x="68.5" y="96.07" width="5.08" height="10.67" transform="translate(172.44 30.37) rotate(90)"/><rect class="cls-4" x="84.31" y="96.07" width="5.08" height="10.67" transform="translate(188.25 14.56) rotate(90)"/><rect class="cls-4" x="100.29" y="96.07" width="5.08" height="10.67" transform="translate(204.24 -1.43) rotate(90)"/><rect class="cls-4" x="116.38" y="96.07" width="5.08" height="10.67" transform="translate(220.32 -17.51) rotate(90)"/><line class="cls-10" x1="191.51" y1="55.57" x2="191.56" y2="108.07"/><path class="cls-9" d="M192.11,58s3.07,5.06,2.35,10c0,0-.46,1.36-1,2.56,0,0,5.44-2.09,4.31-7.3a7.56,7.56,0,0,0-3.66-5s4.42.73,5,7a14.91,14.91,0,0,1,.51,3s3.52-3.61,1.58-8c0,0-1-2.85-6.67-3.59,0,0,6.38-.7,10.94,3.8,0,0,1.26-4-3.63-6.35a12,12,0,0,0-5.59.13s3.81-2.23,6.77-1c0,0-2.68-5.89-7.77-2.19a27.75,27.75,0,0,1-3,3.82s2.64-8,8.68-8a5.46,5.46,0,0,0-6.08-.59s-2.84,1.89-3.67,8.51c0,0-.62-6.49-5.29-7.12,0,0-4.27-1.1-5.6,2.66,0,0,5.67-2.08,8.93,3.2,0,0-7.67-7.55-13.46,1.56l-.59,2.44S184,52.85,189.9,57c0,0-11.05-3.32-10.56,5.5a6.6,6.6,0,0,0,.94,3.87s3.16-8.2,9-7.87c0,0-7.37,1.62-1.54,10.77,0,0,2.07-8.53,3.38-10.82Z"/><path class="cls-6" d="M46.61,113a3.72,3.72,0,0,1-.27.48,2.27,2.27,0,0,1-.27-.48Z"/><path class="cls-6" d="M62.13,113a3.67,3.67,0,0,1-.36.6,3.08,3.08,0,0,1-.36-.6Z"/><path class="cls-6" d="M77.48,113a2.87,2.87,0,0,1-.28.48,2.27,2.27,0,0,1-.27-.48Z"/><path class="cls-6" d="M101.15,113a2.87,2.87,0,0,1-.28.48,2.27,2.27,0,0,1-.27-.48Z"/><path class="cls-6" d="M116.67,113a4.54,4.54,0,0,1-.36.6,3.08,3.08,0,0,1-.36-.6Z"/><path class="cls-6" d="M130.44,112.74v5.18H27.16a6.86,6.86,0,0,1,2-4.89,6.62,6.62,0,0,1,1.8-1.3,4.44,4.44,0,0,0,7.48-.73h.22a4.43,4.43,0,0,0,7.65.48A4.43,4.43,0,0,0,54,111h.22a4.43,4.43,0,0,0,7.56.6,4.43,4.43,0,0,0,7.56-.6h.22a4.43,4.43,0,0,0,7.65.48,4.44,4.44,0,0,0,7.66-.48h.21A4.43,4.43,0,0,0,93,111h.22a4.43,4.43,0,0,0,7.65.48,4.43,4.43,0,0,0,7.65-.48h.23a4.37,4.37,0,0,0,4,2.45,4.44,4.44,0,0,0,3.61-1.85,4.38,4.38,0,0,0,3.59,1.85,4.42,4.42,0,0,0,4-2.45h.22a4.41,4.41,0,0,0,6.35,1.74Z"/><line class="cls-11" x1="188.45" y1="75.94" x2="188.49" y2="112.81"/><path class="cls-4" d="M188.87,77.66s2.17,3.56,1.66,7c0,0-.32,1-.7,1.79,0,0,3.82-1.46,3-5.12a5.33,5.33,0,0,0-2.57-3.52s3.1.52,3.51,4.92a10.85,10.85,0,0,1,.36,2.11s2.46-2.54,1.1-5.63c0,0-.69-2-4.68-2.52a10.27,10.27,0,0,1,7.68,2.67s.89-2.78-2.55-4.46a8.39,8.39,0,0,0-3.93.09s2.68-1.56,4.76-.7c0,0-1.88-4.14-5.46-1.54A19.73,19.73,0,0,1,189,75.45s1.85-5.64,6.1-5.66a3.86,3.86,0,0,0-4.28-.42s-2,1.33-2.57,6c0,0-.44-4.56-3.72-5,0,0-3-.77-3.93,1.87a5.31,5.31,0,0,1,6.27,2.25s-5.39-5.3-9.45,1.09L177,77.27S183.2,74,187.32,77c0,0-7.76-2.33-7.41,3.86a4.62,4.62,0,0,0,.66,2.72s2.22-5.76,6.3-5.53c0,0-5.18,1.14-1.08,7.57,0,0,1.45-6,2.37-7.6Z"/><path class="cls-9" d="M198.76,105.93H139.9a11.43,11.43,0,0,0-9.67,4.92h0a3.28,3.28,0,0,1-2.75,1.5H116.56c-3.57,0-6.45,2.49-6.45,5.57h88.65Z"/><line class="cls-12" x1="106.29" y1="25.38" x2="106.31" y2="42.52"/><path class="cls-4" d="M106.49,26.19a5.64,5.64,0,0,1,.76,3.25s-.15.45-.32.84a2.19,2.19,0,0,0,1.41-2.39,2.49,2.49,0,0,0-1.2-1.63s1.44.24,1.63,2.28a5.27,5.27,0,0,1,.17,1,2.48,2.48,0,0,0,.51-2.61s-.32-.93-2.17-1.17A4.77,4.77,0,0,1,110.85,27a1.77,1.77,0,0,0-1.19-2.07,3.85,3.85,0,0,0-1.82,0,2.93,2.93,0,0,1,2.21-.33,1.62,1.62,0,0,0-2.54-.71,9.39,9.39,0,0,1-1,1.25s.86-2.62,2.84-2.63a1.78,1.78,0,0,0-2-.19s-.93.61-1.2,2.77c0,0-.2-2.12-1.72-2.32a1.52,1.52,0,0,0-1.83.87,2.46,2.46,0,0,1,2.91,1s-2.5-2.46-4.39.51L101,26s2.88-1.51,4.79-.15c0,0-3.6-1.08-3.44,1.79a2.15,2.15,0,0,0,.31,1.27s1-2.68,2.92-2.57c0,0-2.4.53-.5,3.51a23.64,23.64,0,0,1,1.1-3.53Z"/><line class="cls-12" x1="132.07" y1="25.06" x2="132.09" y2="42.19"/><path class="cls-4" d="M132.27,25.86a5.7,5.7,0,0,1,.77,3.25s-.15.45-.33.84a2.17,2.17,0,0,0,1.41-2.38,2.46,2.46,0,0,0-1.19-1.64s1.44.24,1.63,2.29a4.68,4.68,0,0,1,.16,1,2.52,2.52,0,0,0,.52-2.62s-.33-.93-2.18-1.17a4.77,4.77,0,0,1,3.57,1.24,1.77,1.77,0,0,0-1.18-2.07,3.89,3.89,0,0,0-1.83,0,3,3,0,0,1,2.21-.32,1.61,1.61,0,0,0-2.53-.72,8.77,8.77,0,0,1-1,1.25s.86-2.62,2.83-2.63a1.77,1.77,0,0,0-2-.19s-.93.61-1.2,2.77c0,0-.21-2.11-1.73-2.32a1.52,1.52,0,0,0-1.83.87,2.47,2.47,0,0,1,2.92,1s-2.5-2.46-4.39.51l-.2.8s2.88-1.51,4.8-.15c0,0-3.61-1.08-3.45,1.8a2.12,2.12,0,0,0,.31,1.26s1-2.68,2.93-2.57c0,0-2.41.53-.5,3.52a23.29,23.29,0,0,1,1.1-3.53Z"/><line class="cls-13" x1="137.79" y1="34.04" x2="137.8" y2="44.34"/><path class="cls-4" d="M137.91,34.52a3.45,3.45,0,0,1,.46,2,5.06,5.06,0,0,1-.2.5,1.31,1.31,0,0,0,.85-1.43,1.49,1.49,0,0,0-.72-1s.87.14,1,1.37a2.7,2.7,0,0,1,.1.59,1.51,1.51,0,0,0,.31-1.57s-.19-.56-1.31-.7a2.88,2.88,0,0,1,2.15.74,1.07,1.07,0,0,0-.71-1.25,2.35,2.35,0,0,0-1.1,0,1.77,1.77,0,0,1,1.33-.2,1,1,0,0,0-1.53-.43,5.08,5.08,0,0,1-.58.75s.52-1.57,1.7-1.58a1.07,1.07,0,0,0-1.19-.11,2.31,2.31,0,0,0-.72,1.67s-.12-1.28-1-1.4a.92.92,0,0,0-1.1.52,1.47,1.47,0,0,1,1.75.63,1.62,1.62,0,0,0-2.64.31l-.11.48s1.73-.91,2.88-.09c0,0-2.17-.65-2.07,1.08a1.29,1.29,0,0,0,.19.76s.62-1.61,1.75-1.55c0,0-1.44.32-.3,2.11a14.26,14.26,0,0,1,.67-2.12Z"/><line class="cls-14" x1="119.3" y1="29.78" x2="119.32" y2="48.12"/><path class="cls-4" d="M119.51,30.64a6.09,6.09,0,0,1,.82,3.48s-.16.48-.35.9a2.33,2.33,0,0,0,1.51-2.55,2.66,2.66,0,0,0-1.28-1.75s1.54.26,1.74,2.44a5,5,0,0,1,.18,1.05,2.69,2.69,0,0,0,.56-2.8s-.35-1-2.33-1.25a5.13,5.13,0,0,1,3.82,1.33,1.9,1.9,0,0,0-1.27-2.22,4.2,4.2,0,0,0-2,.05,3.15,3.15,0,0,1,2.37-.35,1.74,1.74,0,0,0-2.72-.77,10,10,0,0,1-1,1.34s.92-2.8,3-2.81a1.89,1.89,0,0,0-2.12-.21s-1,.66-1.28,3c0,0-.22-2.26-1.85-2.48a1.63,1.63,0,0,0-2,.93,2.64,2.64,0,0,1,3.12,1.11s-2.68-2.63-4.7.55l-.21.85s3.09-1.62,5.14-.16c0,0-3.86-1.16-3.69,1.92a2.27,2.27,0,0,0,.33,1.36s1.1-2.87,3.13-2.75c0,0-2.57.56-.54,3.76a25.32,25.32,0,0,1,1.18-3.78Z"/><line class="cls-15" x1="148.35" y1="30.74" x2="148.36" y2="43.66"/><path class="cls-4" d="M148.49,31.35a4.23,4.23,0,0,1,.58,2.45s-.11.33-.24.63a1.65,1.65,0,0,0,1.06-1.8,1.85,1.85,0,0,0-.9-1.23s1.09.18,1.23,1.72a3.75,3.75,0,0,1,.12.74,1.88,1.88,0,0,0,.39-2s-.24-.7-1.64-.88a3.61,3.61,0,0,1,2.69.93,1.33,1.33,0,0,0-.89-1.56,3,3,0,0,0-1.38,0,2.19,2.19,0,0,1,1.67-.24,1.22,1.22,0,0,0-1.91-.54,6.78,6.78,0,0,1-.73.94s.65-2,2.13-2a1.33,1.33,0,0,0-1.49-.15,2.93,2.93,0,0,0-.9,2.1s-.16-1.6-1.31-1.76a1.14,1.14,0,0,0-1.37.66,1.85,1.85,0,0,1,2.19.79,2,2,0,0,0-3.31.38l-.14.6s2.17-1.14,3.61-.11c0,0-2.72-.82-2.6,1.35a1.64,1.64,0,0,0,.24,1s.77-2,2.2-1.94c0,0-1.81.4-.38,2.65a18.16,18.16,0,0,1,.83-2.66Z"/><line class="cls-15" x1="160.5" y1="35.97" x2="160.51" y2="48.88"/><path class="cls-4" d="M160.64,36.57a4.26,4.26,0,0,1,.58,2.45s-.11.34-.24.63A1.63,1.63,0,0,0,162,37.86a1.85,1.85,0,0,0-.9-1.23s1.09.18,1.23,1.72a3.75,3.75,0,0,1,.12.74,1.88,1.88,0,0,0,.39-2s-.24-.7-1.64-.89a3.6,3.6,0,0,1,2.69.94,1.33,1.33,0,0,0-.89-1.56,3,3,0,0,0-1.38,0,2.23,2.23,0,0,1,1.67-.25,1.22,1.22,0,0,0-1.91-.54,6.78,6.78,0,0,1-.73.94s.65-2,2.13-2a1.33,1.33,0,0,0-1.49-.14,2.91,2.91,0,0,0-.91,2.09s-.15-1.6-1.3-1.75a1.15,1.15,0,0,0-1.38.65,1.86,1.86,0,0,1,2.2.79,2,2,0,0,0-3.31.39l-.15.59s2.17-1.13,3.62-.1c0,0-2.72-.82-2.6,1.35a1.64,1.64,0,0,0,.23,1s.78-2,2.21-1.94c0,0-1.81.4-.38,2.65a18.54,18.54,0,0,1,.83-2.66Z"/><circle class="cls-16" cx="178.5" cy="21.64" r="7.04"/><path class="cls-16" d="M174.42,12.55a1.25,1.25,0,0,1-1.65-.63L170.2,6.21a1.26,1.26,0,0,1,.63-1.66,1.25,1.25,0,0,1,1.65.63l2.57,5.71A1.26,1.26,0,0,1,174.42,12.55Z"/><path class="cls-16" d="M169.69,17.54a1.25,1.25,0,0,1-1.57.81l-6-1.87a1.25,1.25,0,0,1,.76-2.39l6,1.88A1.26,1.26,0,0,1,169.69,17.54Z"/><path class="cls-16" d="M186.31,39a1.26,1.26,0,0,1-1.66-.63l-2.56-5.71a1.25,1.25,0,1,1,2.28-1l2.57,5.71A1.26,1.26,0,0,1,186.31,39Z"/><path class="cls-16" d="M195.17,15.7l-5.71,2.56a1.25,1.25,0,1,1-1-2.28l5.71-2.57a1.26,1.26,0,0,1,1,2.29Z"/><path class="cls-16" d="M195.56,29.19a1.2,1.2,0,0,1-.95,0L188.75,27a1.25,1.25,0,0,1,.89-2.34l5.86,2.22a1.26,1.26,0,0,1,.72,1.62A1.23,1.23,0,0,1,195.56,29.19Z"/><path class="cls-16" d="M183.12,12.29a1.27,1.27,0,0,1-1,0,1.25,1.25,0,0,1-.72-1.61l2.22-5.86a1.25,1.25,0,0,1,2.34.89l-2.22,5.85A1.26,1.26,0,0,1,183.12,12.29Z"/><path class="cls-16" d="M163,30.16l5.71-2.57a1.25,1.25,0,0,0,.63-1.65,1.26,1.26,0,0,0-1.66-.63L162,27.87a1.26,1.26,0,1,0,1,2.29Z"/><path class="cls-16" d="M172.81,39.42a1.33,1.33,0,0,0,.66-.7l2.22-5.85a1.25,1.25,0,1,0-2.34-.89l-2.23,5.85a1.25,1.25,0,0,0,.73,1.61A1.23,1.23,0,0,0,172.81,39.42Z"/><rect class="cls-17" width="232.78" height="121.97"/></g></g></svg>