<svg xmlns="http://www.w3.org/2000/svg" xmlns:xlink="http://www.w3.org/1999/xlink" viewBox="0 0 295.52 154.84"><defs><style>.cls-1,.cls-20,.cls-5{fill:none;}.cls-2{fill:#3a80c3;}.cls-3{fill:#ec6755;}.cls-4{fill:#0a3656;}.cls-20,.cls-5{stroke:#04223e;stroke-miterlimit:10;}.cls-5{stroke-width:0.99px;}.cls-6{fill:#f9bb15;}.cls-7{fill:#002735;}.cls-8{fill:#04223e;}.cls-9{fill:#f9d445;}.cls-10{fill:#eb9770;}.cls-11{fill:#3882c4;}.cls-12{opacity:0.3;}.cls-13{clip-path:url(#clip-path);}.cls-14{fill:#d8d9d8;}.cls-15{opacity:0.6;}.cls-16{clip-path:url(#clip-path-2);}.cls-17{fill:#fff;}.cls-18{clip-path:url(#clip-path-3);}.cls-19{opacity:0.3;}.cls-20{stroke-width:0.12px;}.cls-21{fill:#eff4cd;}.cls-22{fill:#f5f7d4;}.cls-23{fill:#93d2c0;}.cls-24{fill:#059370;}.cls-25{fill:#4a82c3;}.cls-26{fill:#fbd636;}</style><clipPath id="clip-path"><rect class="cls-1" x="99.85" y="61.87" width="4.18" height="2.87"/></clipPath><clipPath id="clip-path-2"><rect class="cls-1" x="100.34" y="96.96" width="7.67" height="0.61"/></clipPath><clipPath id="clip-path-3"><rect class="cls-1" x="102.07" y="52.11" width="11.12" height="4.33"/></clipPath></defs><g id="Capa_2" data-name="Capa 2"><g id="Layer_1" data-name="Layer 1"><rect class="cls-2" x="122.74" y="34.66" width="30.16" height="52.33"/><rect class="cls-2" x="152.38" y="13.9" width="44.31" height="72.99"/><path class="cls-3" d="M200.08,19.14H149.92c-1.08,0-1.81-1.36-1.38-2.58l3.87-11.12a1.54,1.54,0,0,1,1.39-1.13h43.7A1.6,1.6,0,0,1,199,5.66l2.58,11.12A1.81,1.81,0,0,1,200.08,19.14Z"/><path class="cls-4" d="M164.93,43.27h-5.14V35.18c0-2,1.15-3.67,2.57-3.67h0c1.42,0,2.57,1.64,2.57,3.67Z"/><path class="cls-4" d="M173.2,43.27h-5.14V35.18c0-2,1.15-3.67,2.57-3.67h0c1.42,0,2.57,1.64,2.57,3.67Z"/><path class="cls-4" d="M181.47,43.27h-5.14V35.18c0-2,1.15-3.67,2.57-3.67h0c1.42,0,2.57,1.64,2.57,3.67Z"/><path class="cls-4" d="M189.75,43.27H184.6V35.18c0-2,1.15-3.67,2.58-3.67h0c1.42,0,2.57,1.64,2.57,3.67Z"/><rect class="cls-4" x="150.3" y="45.77" width="49.41" height="2.38"/><polygon class="cls-4" points="183.82 86.89 165.25 86.89 167.43 58.26 181.65 58.26 183.82 86.89"/><path class="cls-3" d="M155.11,47.35H117.27c-.82,0-1.37-1.36-1-2.59l2.93-11.12c.18-.68.59-1.12,1-1.12h33c.51,0,1,.55,1.09,1.35L156.2,45C156.41,46.17,155.87,47.35,155.11,47.35Z"/><path class="cls-5" d="M83.93,50.76S77.26,71.5,63.65,52.83"/><path class="cls-6" d="M75.43,79.16l-6.3,14,1,2.52,18.55,5V98.84L74.49,92.11,80.83,85Z"/><path class="cls-7" d="M123.59,63.68c1.38-1,2.57-2.28,3.93-3.33a10.83,10.83,0,0,1,7.7-2.51c4,.47,6.94,3.78,10.29,6a20.6,20.6,0,0,0,12.89,3.31c-2.05,1.71-5,1.77-7.62,1.74a18,18,0,0,0,4.57,1.18,16.18,16.18,0,0,1-8.68.12c-2.87-.61-5.64-1.62-8.51-2.24a7.38,7.38,0,0,0,2.65,3.8,18.08,18.08,0,0,0,7.72,3.84c-3.18.74-6.46-.47-9.51-1.66a4.22,4.22,0,0,1,1,1.62,13.24,13.24,0,0,1-8.36-5.7,9.65,9.65,0,0,0-2.27-2.92c-1.48-1-3.46-.74-5.17-.23s-3.44,1.24-5.22,1-.84-1.71.2-2.19C120.74,64.84,122.18,64.73,123.59,63.68Z"/><path class="cls-6" d="M68.65,37.45c0-.14-2.06-2.78-2.36-2.71S66.6,41,66.6,41l2.81-.69Z"/><path class="cls-6" d="M125.88,80.91a13.12,13.12,0,0,1-3.4,4.25c-2.55,2.34-5.35,4.47-7.39,7.23s-3.25,6.3-2.21,9.75a33.34,33.34,0,0,0-14.27,12.29c-1.41-.73-1.85.5-3.18-.19a54.1,54.1,0,0,1,10.44-12.54,6.23,6.23,0,0,0,1.92-2.51,6.59,6.59,0,0,0,.11-2.39c-.36-5.65,0-11.41,2.32-16.4A12.55,12.55,0,0,1,116.1,74C121.23,71.65,128.52,74.87,125.88,80.91Z"/><path class="cls-6" d="M75.19,41.54s-2.87-4.78-6-4C67.29,38,54.4,54,54.4,54a4.36,4.36,0,0,0,3.19,2.54c2.48.51,3.94-3,5.24-3.51,2.21-.84,3.79.67,9.8-1.69,5-2,3-9.38,3-9.38Z"/><path class="cls-6" d="M89.52,64.15c-.31-.09-6.88-3.11-9.44-8.29S75.67,42,75.67,42s-6.08,7.11-6.11,7.52c0,.18-2,6.32-1.24,12.21A57.11,57.11,0,0,0,73.05,77L89.52,64.15Z"/><path class="cls-6" d="M123.16,66.22s4.5,5.5,4.65,8.18-4.39,13.49-4.39,13.49-7.34-2.59-11.79-2S97.91,88.94,90,89.19a29.1,29.1,0,0,1-14.07-3.3s-2.37-1.47-2.71-6.21-.54-13.37-.54-13.37l6.54-5.47S85.12,64,95.63,65.1C109.17,66.57,113.08,60.16,123.16,66.22Z"/><path class="cls-7" d="M76.09,83.05a29.16,29.16,0,0,0,14.07,3.29c7.92-.24,17.2-2.77,21.64-3.33s11.79,2,11.79,2a109.54,109.54,0,0,0,4-11.15,3.71,3.71,0,0,1,.18.93c.15,2.67-4.39,13.49-4.39,13.49s-7.33-2.59-11.78-2S97.88,89.36,90,89.61a29.1,29.1,0,0,1-14.07-3.3Z"/><path class="cls-6" d="M71.48,38.93s-2.13-5.15-2.67-5.09-1.38,5.08-1.38,5.08l4.15.3Z"/><path class="cls-7" d="M110.91,85.62c0,.09-.18,0-.2-.12a8.85,8.85,0,0,1,1.35-6.81,7.11,7.11,0,0,1,4.54-3.41c-1.36,2.38-1.39,5.3-.93,8a2.36,2.36,0,0,1-.27,2.1,2.15,2.15,0,0,1-1.52.45,23,23,0,0,1-3.7-.23Z"/><path class="cls-6" d="M124.76,73.3c1.28,1.3,2.19-1.13,2.84.59,1.22,3.23,2,10.78,3.79,13.7S136,93,139.62,93.28a34.24,34.24,0,0,0,6.48,18c-1.2,1-.88.74-2,1.71a47.39,47.39,0,0,1-7.48-13.32A6.12,6.12,0,0,0,135,96.9a7,7,0,0,0-2.17-1c-5.38-1.77-10.59-4.24-14.36-8.26a12.5,12.5,0,0,1-3.75-7.84C114.44,74.16,120.15,68.6,124.76,73.3Z"/><path class="cls-7" d="M87.21,86.6a6.06,6.06,0,0,0-1.5-6.17,5.53,5.53,0,0,1-1.49,3.44c-.92,1-2.23,1.86-2.83,3a.64.64,0,0,0-.07.64,1.25,1.25,0,0,0,.55.41,7,7,0,0,0,3.71.81C86.7,88.48,87,87.3,87.21,86.6Z"/><path class="cls-6" d="M77.34,90.06c.88,3.37,2.77,6,3.19,9.46.67,5.38,2.84,13.25.24,16.91,1.49,0,1.4.15,2.89.17a10.51,10.51,0,0,0,1-4l1.17,1a46.17,46.17,0,0,1-1.57-8.2c-.29-2.79-.38-5.58-.46-8.38-.12-3.94-.23-8,1.28-11.67A11,11,0,0,0,86,82.59a6,6,0,0,0-.83-3.43,11.27,11.27,0,0,0-6.11-5.32c-1.84-.65-4.08-.74-5.37.77-1.08,1.25-.34,2.7.05,4.1C74.82,82.52,76.34,86.23,77.34,90.06Z"/><path class="cls-7" d="M70.38,39.17a26.6,26.6,0,0,0-1.49-3.5c-.21,0-.87,3.23-.87,3.23Z"/><path class="cls-7" d="M75.28,39.8a20.33,20.33,0,0,1,3.91,7.81c.92,3.67,1,7.88,3.55,10.64,1.11,1.18,2.6,2,3.71,3.14,2.56,2.69,2.7,6.94,1.66,10.5a9.63,9.63,0,0,0-2-7.44,8.46,8.46,0,0,1,.28,2.65,21.7,21.7,0,0,0-3.28-6.29,10.93,10.93,0,0,0,1.2,3.9A39.68,39.68,0,0,1,74.11,42.92a5.94,5.94,0,0,1-2,5.6,7.76,7.76,0,0,0,0-6.64,4.61,4.61,0,0,1-.37,1.86c-.21-1-1.09-6.77-1.09-6.77C71.71,35.73,74.73,39.12,75.28,39.8Z"/><path class="cls-7" d="M73.32,48.92a3.87,3.87,0,0,1-1.74,2.83,8.86,8.86,0,0,1-2.75.76c0,.15-.75,3.74-.68,4.1l.07.36s.92.73,2.92-2.08A12.82,12.82,0,0,0,73.32,48.92Z"/><polygon class="cls-8" points="145.37 110.17 146.76 111.93 144.46 114.46 143.1 111.69 145.37 110.17"/><path class="cls-8" d="M99.33,113.29c-.14.22-.77,1.81-.77,1.81H94.8l1.4-2.16Z"/><polygon class="cls-8" points="84.3 114.87 83.91 116.6 80.33 116.6 81.66 114.46 84.3 114.87"/><path class="cls-8" d="M87.69,98.39c.13.06,1.37.38,1.37.38v2.4l-1.6-.8Z"/><path class="cls-9" d="M108.69,31.43l.09,7.59c0,1.29-.22,3.19-2.27,3.13-1.76-.2-2.23-1.87-2.25-3.07,0-.58,0-1,0-1.11a2.3,2.3,0,0,1-2.1-2.07c-.08-.92-.09-2.84-.07-4.57a3.56,3.56,0,0,1,3.31-3.53h.18c2,0,3.14,1.65,3.12,3.64"/><path class="cls-10" d="M104.25,38a4.63,4.63,0,0,0,2.43-.92,2.39,2.39,0,0,1-2.42,1.41Z"/><path class="cls-9" d="M108.63,32.86s1.29-.48,1.34.83a1,1,0,0,1-1.28,1.05s-.06-1.88-.06-1.88"/><path class="cls-10" d="M109.07,34.23l.07,0a.2.2,0,0,0,.17,0,.59.59,0,0,0,.24-.52.66.66,0,0,0-.08-.32.25.25,0,0,0-.18-.17.12.12,0,0,0-.13.07.07.07,0,0,0,0,.06s0,0,0-.07a.18.18,0,0,1,0-.09.25.25,0,0,1,.13,0,.36.36,0,0,1,.25.2.83.83,0,0,1,.09.36.6.6,0,0,1-.31.58.23.23,0,0,1-.21,0,.14.14,0,0,1-.05-.06"/><path class="cls-8" d="M99.54,29.62a.32.32,0,0,1,.14-.18.93.93,0,0,1,.49-.08,2.83,2.83,0,0,0,1.44-.44,5.77,5.77,0,0,1,.67-.81,4.78,4.78,0,0,1,1.55-1.2,4.42,4.42,0,0,1,2.36-.19,1.8,1.8,0,0,1,1.36,1.4,1.35,1.35,0,0,1,1.39-.13h0a1.76,1.76,0,0,1,.94,1.23,6.49,6.49,0,0,0,.48,1.53c.06.1.13.21.08.31a.22.22,0,0,1-.22.1A.53.53,0,0,1,110,31l.17.41a1.15,1.15,0,0,1-.55,0,13,13,0,0,1-.36,1.36.81.81,0,0,0-.53.13c-.18.16-.26.46-.56.35-.14-.06-.28-.37-.33-.53a7.47,7.47,0,0,1-.32-3.15,2.43,2.43,0,0,0-.74-.54l0,0a2.21,2.21,0,0,0-1.65-.11c-.39.19-.62.6-.91.92a3,3,0,0,1-2.14,1c0,.54,0,1.3,0,1.84l-.46-.86h0l-.09-.19v0h0c0-.1-.1-.21-.16-.31h0a.34.34,0,0,1-.49-.45.85.85,0,0,1,.16-.17.53.53,0,0,1-.51.14.42.42,0,0,1-.29-.42.36.36,0,0,1,.21-.28,1.17,1.17,0,0,1-.68-.15c-.13-.08-.27-.2-.22-.37"/><path class="cls-11" d="M107,28.34a1.73,1.73,0,0,1,.19.17,1.36,1.36,0,0,1,.29.64,2.36,2.36,0,0,1,0,.48,5.4,5.4,0,0,1,0,.56c0,.2,0,.41,0,.63s0,.22,0,.33a.77.77,0,0,0,.14.32.27.27,0,0,0,.27.09.44.44,0,0,0,.24-.13,1,1,0,0,0,.18-.49h0a1.57,1.57,0,0,0,.24.4.54.54,0,0,0,.37.21.45.45,0,0,0,.2,0,.33.33,0,0,0,.13-.13.33.33,0,0,0,0-.17.25.25,0,0,0-.06-.15l0,0a1.22,1.22,0,0,0,.41.31l.13.05h0l0,0-.12-.05a1.29,1.29,0,0,1-.4-.32l0,0a.25.25,0,0,1,0,.29.32.32,0,0,1-.12.11.28.28,0,0,1-.18,0,.51.51,0,0,1-.34-.19,1.67,1.67,0,0,1-.23-.39l0-.06,0,.06a1,1,0,0,1-.17.47.48.48,0,0,1-.22.12.23.23,0,0,1-.23-.08.62.62,0,0,1-.12-.3,1.77,1.77,0,0,1,0-.32,4.19,4.19,0,0,1,0-.62c0-.2,0-.39,0-.57a1.88,1.88,0,0,0-.06-.49,1.27,1.27,0,0,0-.31-.64.89.89,0,0,0-.2-.16"/><path class="cls-11" d="M101,30.19v0l0,0,.08.05.12.07a1.73,1.73,0,0,0,.81.14,2.17,2.17,0,0,0,1.16-.42,3.87,3.87,0,0,0,1-1.15c.14-.23.25-.46.37-.68a2.91,2.91,0,0,1,.43-.58,1.36,1.36,0,0,1,.55-.34,1,1,0,0,1,.29,0,.76.76,0,0,1,.27.05,1.12,1.12,0,0,1,.4.24.85.85,0,0,1,.21.28,1.51,1.51,0,0,1,.1.28h0v-.06a1.08,1.08,0,0,0-.69-.76,1.27,1.27,0,0,0-.28-.06,1.08,1.08,0,0,0-.3,0,1.26,1.26,0,0,0-.57.34,2.36,2.36,0,0,0-.43.59c-.13.22-.24.45-.38.68a3.63,3.63,0,0,1-1,1.13,2.1,2.1,0,0,1-1.13.43,1.65,1.65,0,0,1-.81-.13,1.11,1.11,0,0,1-.26-.15"/><path class="cls-11" d="M100.86,29.36l.07,0,.2.11.32.1a2.7,2.7,0,0,0,.41.06,2.77,2.77,0,0,0,.42,0,1.44,1.44,0,0,0,.33-.09l.21-.09.07,0s-.11,0-.29.1a2,2,0,0,1-.33.08l-.4,0a1.77,1.77,0,0,1-.41-.05l-.32-.09a2.38,2.38,0,0,0-.28-.12"/><g class="cls-12"><g class="cls-13"><path d="M104,64.09c-.06-.17-.16-.32-.21-.5a1.58,1.58,0,0,0-.15-.48.84.84,0,0,0-.44-.29c-.88-.36-1.78-.68-2.69-1l-.66.39a1.67,1.67,0,0,0,.66,1.13,4.33,4.33,0,0,0,1.2.59,7.58,7.58,0,0,1,1.25.5,2.39,2.39,0,0,0,.48.24.5.5,0,0,0,.51-.12.57.57,0,0,0,0-.51"/></g></g><polygon class="cls-14" points="105.99 67.45 107.37 62.83 106.16 62.83 104.97 67.17 105.99 67.45"/><path class="cls-9" d="M108.29,89.63s-.4,5.2-.39,5.45l-1,.86-2.57-.57-.08-5.74Z"/><path class="cls-11" d="M104.27,95.06v.22s-3.88,1.51-3.93,2.24l7.67,0L107.92,95a4.42,4.42,0,0,1-3.65,0"/><g class="cls-15"><g class="cls-16"><path class="cls-17" d="M108,97.57l0-.61-7.35.17s-.34.15-.3.39Z"/></g></g><path class="cls-8" d="M104.24,95.3s.19.06.37.18.28.28.32.27,0-.23-.24-.38-.46-.1-.45-.07"/><path class="cls-8" d="M103.44,95.63s.15.1.28.26.16.33.19.33.07-.22-.09-.41-.38-.21-.38-.18"/><path class="cls-8" d="M103,96.59s.09-.18,0-.38-.26-.29-.28-.26.09.14.17.31.09.33.12.33"/><path class="cls-8" d="M101.88,61.11l.84,2.85.45,4.36.46,12.39.42.45.11,13.26h3.94s1.54-10.73,1.38-13.42a51.62,51.62,0,0,1,0-5.44l2-8.8a37.45,37.45,0,0,0,1-6.14,25,25,0,0,0-.16-3.3s-6.67,1.47-8.2,1a13.48,13.48,0,0,1-2.8-1.15s-.6-.45-.83.22a1.59,1.59,0,0,0,.1.77Z"/><path class="cls-11" d="M106.33,79a1.86,1.86,0,0,1-.33.38,7.57,7.57,0,0,1-.93.81,8.22,8.22,0,0,1-1,.65,2,2,0,0,1-.47.21,4.12,4.12,0,0,1,.43-.27c.27-.16.64-.39,1-.67a11.76,11.76,0,0,0,.94-.78,3,3,0,0,1,.38-.33"/><path class="cls-9" d="M82.56,51.09a10.14,10.14,0,0,1,1-1.76A7.22,7.22,0,0,1,84.85,49a10.29,10.29,0,0,0,2,.63c.29-.05,1.77,0,1.77,0l.32,1.91H87.41a3.27,3.27,0,0,1-1.08.39,4.61,4.61,0,0,0-1.16.31A15.31,15.31,0,0,1,84,53.42c-.13,0-.38,0-.42-.39s.77-1.06.77-1.06a.4.4,0,0,0,.16-.6c-.23-.44-.25-.64-.54-.61s-1.37.33-1.37.33"/><path class="cls-11" d="M114.58,42.3a7.85,7.85,0,0,0-1.83-3.07,25.71,25.71,0,0,0-3.62-1.1l-.35-.66-.15.45a3.1,3.1,0,0,1-1.71,1.53c-.21.08-.52,2.33-.77,2.37s-.43-2.11-.72-2.12h-.29c-.76,0-.87-.52-.87-.52l-.12.68s-2.86,1.22-3.33,1.45-5.29,7.29-5.29,7.29l-7.44,1-.18,3,7.87.31a3.91,3.91,0,0,0,2.88-1l2.66-2.81v.23c0,1.22-.41,7-.41,7-.64,2.1,1.78,2.46,3.62,3.31a17,17,0,0,0,3.19,1,5.65,5.65,0,0,0,5-1.24l.18-1s1.84-15.06,1.63-16.08"/><g class="cls-12"><g class="cls-18"><path d="M102.07,52.62l.84,1.05s7.88,3.26,10.28,2.7V55.21l-9.88-3.1-1.24.13Z"/></g></g><path class="cls-11" d="M101.57,60.3a3.86,3.86,0,0,1-.53-1c-.23-.59-.45-1.06-.42-1.07a3.66,3.66,0,0,1,.52,1c.24.59.45,1,.43,1.06"/><path class="cls-11" d="M102.74,64.12a.61.61,0,0,1-.08-.21c0-.14-.09-.35-.15-.6-.13-.5-.28-1.21-.41-2s-.22-1.5-.27-2c0-.25,0-.46,0-.61a1.34,1.34,0,0,1,0-.23.89.89,0,0,1,0,.23c0,.16.05.37.08.61.07.51.17,1.22.3,2s.27,1.49.38,2c0,.24.09.44.12.61s0,.22,0,.22"/><path class="cls-11" d="M110.94,61.68l-.18.1-.23.09a2.13,2.13,0,0,1-.3.09,4.39,4.39,0,0,1-.83.13,5.2,5.2,0,0,1-1-.06,4.78,4.78,0,0,1-1-.3,4.12,4.12,0,0,1-.73-.4,1.82,1.82,0,0,1-.25-.2.73.73,0,0,1-.18-.16c-.1-.09-.15-.14-.14-.15s.22.19.62.45a4.35,4.35,0,0,0,.72.37,4.58,4.58,0,0,0,1,.28,5,5,0,0,0,1,.07,4.59,4.59,0,0,0,.81-.1c.46-.11.72-.23.73-.21"/><path class="cls-8" d="M112.34,39.24s-.21,0-.53.16a2.84,2.84,0,0,0-1.07.73,2.74,2.74,0,0,0-.59,1.15c-.08.33-.08.54-.1.54s0,0,0-.15a2.41,2.41,0,0,1,0-.41,2.61,2.61,0,0,1,.59-1.2,2.58,2.58,0,0,1,1.13-.73,2.14,2.14,0,0,1,.4-.09c.09,0,.15,0,.15,0"/><path class="cls-8" d="M100.91,42.49h0v0s0,.11,0,.19,0,.39.06.68c0,.58.1,1.38.15,2.26s.1,1.69.12,2.27c0,.27,0,.5,0,.68a1,1,0,0,1,0,.26.87.87,0,0,1,0-.25q0-.28-.06-.69c0-.58-.1-1.38-.15-2.26s-.1-1.68-.13-2.26c0-.27,0-.5,0-.69s0-.13,0-.18v0h0"/><polygon class="cls-19" points="107.93 40.95 106.38 41.07 106.86 39.54 107.93 40.95"/><polygon class="cls-19" points="105.42 39.7 104.56 40.95 105.9 41.07 105.42 39.7"/><polyline class="cls-20" points="109.13 38.13 107.93 40.95 106.86 39.54 106.15 41.82 105.42 39.7 104.56 40.95 104.16 39.85"/><path class="cls-20" d="M106.15,41.82s-2,13.9-1.18,18"/><path class="cls-11" d="M110.84,40.55a17.7,17.7,0,0,0-.78,3.65,26.79,26.79,0,0,0,.57,5.2,5.59,5.59,0,0,0,.57,1l-.43.42-7.24-.88-.22,3.17s8,2.38,8.82,2.38a7.29,7.29,0,0,0,3-.47c.6-.38,1-2,1-3.37s-.54-10.86-3.28-12.45c-1.34-.78-2,1.35-2,1.35"/><path class="cls-8" d="M114,51.37s-.12-.16-.35-.36a2.44,2.44,0,0,0-1-.57,2.49,2.49,0,0,0-1.19,0c-.3.08-.47.17-.48.16s0,0,.11-.08a1.8,1.8,0,0,1,.35-.14,2.25,2.25,0,0,1,1.23,0,2.28,2.28,0,0,1,1.07.62,1.72,1.72,0,0,1,.24.29.57.57,0,0,1,.06.12"/><path class="cls-8" d="M113,49.34a4.31,4.31,0,0,0-1,.43,4,4,0,0,0-.78.73.68.68,0,0,1,.15-.28,2.35,2.35,0,0,1,.58-.53,2.1,2.1,0,0,1,.71-.31.82.82,0,0,1,.33,0"/><path class="cls-9" d="M99.19,49.41l.88-.54h1.57l1.4,1.27.42.21-.16,2.2-.91-.11a13,13,0,0,1-2.13,0,2.71,2.71,0,0,1-.46-.52,5.71,5.71,0,0,1-1.17-.44.31.31,0,0,1,0-.25l-.42-.28a4.12,4.12,0,0,1-.27-.58l0-.13a.5.5,0,0,1-.34-.41c0-.13.51-.1.51-.1h1.32Z"/><path class="cls-8" d="M110,43.41a.65.65,0,0,1,0,.1,1.89,1.89,0,0,0,0,.3l.12,1.16c.1,1,.23,2.45.4,4.2v0l.54.87,0,0,0,0c-.12.17-.26.35-.41.54v0h0l-6-.73-1.23-.15.06,0c-.08,1.1-.16,2.17-.23,3.17l0,0,6.33,1.73,1.82.5.48.14.13,0,0,0H112l-.12,0-.49-.12-1.83-.48-6.34-1.7h0v0c.07-1,.15-2.06.22-3.17v-.06h0l1.23.15,6,.74,0,0,.41-.55v0l-.55-.87h0c-.16-1.75-.28-3.19-.37-4.2,0-.5-.07-.89-.1-1.16s0-.23,0-.31v-.1"/><line class="cls-20" x1="104.67" y1="49.91" x2="104.55" y2="53.2"/><line class="cls-20" x1="89.83" y1="49.34" x2="89.83" y2="52.69"/><path class="cls-21" d="M95.74,28.65l19.78,3.46a.27.27,0,0,0,.31-.23h0a.27.27,0,0,0-.22-.32L95.83,28.11a.27.27,0,0,0-.31.23h0A.26.26,0,0,0,95.74,28.65Z"/><polygon class="cls-21" points="100.94 29 110.52 30.67 109.78 25.2 103.54 24.11 100.94 29"/><path class="cls-8" d="M102.78,65.26s-4,.15-5.84,0l-5.26-.72c2.77-2.83,9.41-6.64,9.41-6.64l4.57,1.58L104,64.5l-1.25.76"/><rect class="cls-8" x="57.46" y="51.19" width="5.76" height="0.74" transform="translate(83.75 127.39) rotate(-147.67)"/><rect class="cls-8" x="59.69" y="46.65" width="15.31" height="0.85" transform="translate(-12.59 66.1) rotate(-48.34)"/><rect class="cls-8" x="65.84" y="41.45" width="5.76" height="0.74" transform="translate(104.42 113.91) rotate(-147.67)"/><rect class="cls-8" x="65.12" y="47.59" width="9.55" height="0.42" transform="translate(9.99 107.64) rotate(-79.34)"/><path class="cls-5" d="M62.58,53.08c30.7,35.29,37.22-1.2,37.22-1.2"/><circle class="cls-22" cx="125.75" cy="107.35" r="34.69"/><circle class="cls-6" cx="125.65" cy="107.35" r="31.59"/><path class="cls-22" d="M125.3,79s-4.15,0-4.15,7,4.15,18.6,4.15,18.6S129.45,93,129.45,86,125.3,79,125.3,79Z"/><path class="cls-22" d="M107.5,85.85s-3.19,2.66,1.29,8,15.1,11.64,15.1,11.64-4.23-11.57-8.71-17S107.5,85.85,107.5,85.85Z"/><path class="cls-22" d="M99.28,100s-1.16,4,5.58,5.94,19,1.19,19,1.19-10-7.22-16.71-9.17S99.28,100,99.28,100Z"/><path class="cls-22" d="M143.1,85.47s3.19,2.66-1.29,8-15.1,11.63-15.1,11.63,4.23-11.56,8.71-17S143.1,85.47,143.1,85.47Z"/><path class="cls-22" d="M151.32,99.65s1.16,4-5.58,5.94-19,1.18-19,1.18,10-7.21,16.71-9.16S151.32,99.65,151.32,99.65Z"/><path class="cls-22" d="M125.3,136.47s-4.15,0-4.15-7,4.15-18.61,4.15-18.61,4.15,11.6,4.15,18.61S125.3,136.47,125.3,136.47Z"/><path class="cls-22" d="M107.5,129.64s-3.19-2.66,1.29-8S123.89,110,123.89,110s-4.23,11.56-8.71,17S107.5,129.64,107.5,129.64Z"/><path class="cls-22" d="M99.28,115.45s-1.16-4,5.58-5.94,19-1.18,19-1.18-10,7.21-16.71,9.16S99.28,115.45,99.28,115.45Z"/><path class="cls-22" d="M143.1,130s3.19-2.66-1.29-8.05-15.1-11.63-15.1-11.63,4.23,11.57,8.71,17S143.1,130,143.1,130Z"/><path class="cls-22" d="M151.32,115.84s1.16-4-5.58-5.94-19-1.19-19-1.19,10,7.22,16.71,9.17S151.32,115.84,151.32,115.84Z"/><path class="cls-3" d="M168.36,76.79c2.11-5.36,11.39-22.47,14.09-29.53,3.67-9.62,11.81-16.6,14.7-13s-2.23,18-3.83,21.28S185.19,79,180.86,86.27C178.21,90.71,165.6,83.78,168.36,76.79Z"/><path class="cls-3" d="M193,87.12c1.91-5.48,9-30.95,16-27.63,6.48,3.06,1.83,19.67.8,24.22-.69,3-3.59,10.72-3.59,10.72Z"/><path class="cls-3" d="M158.43,106.85c-3.07-4.57-11-15.23-12.93-19.73,1.85-5.64,13.55-7.77,23.06-4.75,8.46,2.68,15.41,2.87,20.13,3.38,6.67.73,19.94,6.2,23.65,14.37,4.59,10.13-1.42,23.45-4.48,25.87-2.86,2.26-6.09,3.47-10.92,4-5.41.58-13.23-.43-16.08-1.66C166.58,122.15,161.5,111.43,158.43,106.85Z"/><path class="cls-3" d="M174.82,81.82c0-.23,0-.46-.08-.69-.74-5.26-30.37-1.07-29.63,4.19a13.06,13.06,0,0,0,.39,1.8,10.07,10.07,0,0,1-1.57-4.28c-.94-6.71,5.14-13.1,13.73-14.32s16.21,3.25,17.15,10A9.43,9.43,0,0,1,174.82,81.82Z"/><path class="cls-6" d="M174.75,81.19c0,.22.06.44.07.66A10.8,10.8,0,0,1,174,84.3a15.34,15.34,0,0,1-8,7.25,20.31,20.31,0,0,1-4.86,1.3,19.75,19.75,0,0,1-4.78.12,15.1,15.1,0,0,1-10.81-5.85,12.06,12.06,0,0,1-.39-1.75,11.1,11.1,0,0,1-.37-3.07c.54-3.7,3.27-6.76,6-7.16a9.88,9.88,0,0,1,5.32.29c2.44.85,3,.77,5.12-.73,1.47-1,2.72-1.42,5.24-1.77,2.87-.41,5.91,1.79,7.43,5.25A11.15,11.15,0,0,1,174.75,81.19Z"/><path class="cls-7" d="M165,83c-.48.07-1.24.42-1.89-.92s-2.9-1.27-3.47-1.19-2.7.63-2.95,2.1-1.08,1.34-1.56,1.41a1.53,1.53,0,0,0-1.27,2.08c.37,1.57,2.09,2.49,4,2.72a9.7,9.7,0,0,0,5.95-.84c1.67-.85,3.12-2.1,3-3.71A1.54,1.54,0,0,0,165,83Z"/><path class="cls-22" d="M160.4,86.37a2.82,2.82,0,0,0,2.68-2.52A1.69,1.69,0,0,0,161,82.57l-2.17.31c-1.07.15-1.8.86-1.66,1.81A2.84,2.84,0,0,0,160.4,86.37Z"/><path class="cls-7" d="M173.9,78.18c-.31,1.17-1.7,1.34-2.7,1.23a6.2,6.2,0,0,1-2.42-.87,3.89,3.89,0,0,0-2.75-.75,6.31,6.31,0,0,0-2.38,1.1c-1.05.71-.22,1.91.45,2.67a4.67,4.67,0,0,0,2.65,1.31,11,11,0,0,0,3.33-.1c1.34-.21,2.48-.73,2.76-.67.58.13,1,1.27,1.13,2.2a7.06,7.06,0,0,0,.94-4A4.27,4.27,0,0,0,173.9,78.18Z"/><path class="cls-7" d="M144.75,82.3c.62,1,2,.82,2.94.44a6.46,6.46,0,0,0,2.08-1.51,3.84,3.84,0,0,1,2.43-1.48,6.2,6.2,0,0,1,2.59.39c1.21.39.74,1.77.31,2.69a4.63,4.63,0,0,1-2.18,2,11,11,0,0,1-3.23.83c-1.35.17-2.59,0-2.84.12-.52.29-.6,1.5-.47,2.43a7,7,0,0,1-2-3.58A4.23,4.23,0,0,1,144.75,82.3Z"/><path class="cls-7" d="M181,100.61c-1.86,0-5.25.36-5.25.36V99.61c1.4-.13,3.06-.4,4.62-.4a5.39,5.39,0,0,1,2.94.88h0a4.37,4.37,0,0,1,.64.52C184.62,101.25,182.88,100.61,181,100.61Z"/><path class="cls-7" d="M182,102.2a38.26,38.26,0,0,0-7,1V101s5.32-.42,6.58-.36a8.67,8.67,0,0,1,3.34,1.1,3.1,3.1,0,0,1,.45.33C185.9,102.6,184.54,102.24,182,102.2Z"/><path class="cls-7" d="M183.15,103.93a18.92,18.92,0,0,0-6.68,1.4c-1.27.61-.93-.14-.45-.84.33-.47.71-.92.71-.92a20.08,20.08,0,0,1,4.62-.74,10.68,10.68,0,0,1,4.32.6h0l.27.14C186.73,104,184.84,103.83,183.15,103.93Z"/><path class="cls-3" d="M150.18,94.93c-1,.63-.9,6.18,1.77,15.11,3,10,9.37,18.34,11.76,20.53s5.58,4.79,8.87,2.8-.6-9.27.8-15.75A34.6,34.6,0,0,1,178.66,106c.38-.83,1.2-8.77-4.23-9.07s-12.07,4.44-14.66,9.92C159.77,106.81,150.32,94.83,150.18,94.93Z"/><path class="cls-3" d="M203.53,108c1.42-7.45,4.43-19.4,5.33-22.89s3.29-8.07,7.37-8,5.69,5.39,5.69,8.28.09,11.06,0,14.85-1.62,15.14-7,21.53c-5.19,6.22-11.69,7.63-18,8.16-5.86.5-4.42-8.46-.23-11.94S202.63,112.71,203.53,108Z"/><path class="cls-7" d="M200.69,67.59a12.65,12.65,0,0,1,2.06-3.79c.68-1,2-2.43,2.64-2.28,1.09.29-.77,1.69-1.52,2.51-.36.41-1.05,1-1.79,1.94S200.41,68.58,200.69,67.59Z"/><path class="cls-7" d="M201.05,68.82A10.93,10.93,0,0,1,203.44,65,9,9,0,0,1,206,62.7c.77-.4,1.54,0,1.08.67s-1.81,1.51-3,2.64a16.73,16.73,0,0,0-2.16,2.23C201.37,69,200.65,70.08,201.05,68.82Z"/><path class="cls-7" d="M202.32,69.6A9.62,9.62,0,0,1,203.87,67a15.32,15.32,0,0,1,2.3-2.39c.58-.42,1.07.33.42,1.2-.38.51-2.13,1.77-2.87,2.46S202.15,70,202.32,69.6Z"/><path class="cls-7" d="M190.1,38.22a19.75,19.75,0,0,1,3.15-2.94c1-.78,2.71-1.66,3.23-1.33,1,.62-1.27,1.36-2.23,1.9-.44.25-1.53.85-2.47,1.48C190.55,38.15,189.51,39,190.1,38.22Z"/><path class="cls-23" d="M197.49,36.24c-.57.4-2.2.86-3.68,1.56a32.11,32.11,0,0,0-2.93,1.51c-.71.41-1.45,1.11-1,.44h0c.05-.07.1-.15.18-.25a10.7,10.7,0,0,1,3.49-2.9,14.75,14.75,0,0,1,1.71-.9l.38-.16a4.72,4.72,0,0,1,.54-.17,4.42,4.42,0,0,1,.5-.1C197.53,35.13,198.13,35.77,197.49,36.24Z"/><path class="cls-7" d="M196.81,38.29a18.47,18.47,0,0,1-2.76,1.14,20.16,20.16,0,0,0-2.26,1c-.74.41-.89.45-.53.06l.18-.19a12.6,12.6,0,0,1,2.28-1.66,19.91,19.91,0,0,1,2.46-1.36h0l.47-.19C197.34,36.92,197.69,37.67,196.81,38.29Z"/><circle class="cls-22" cx="152.31" cy="82.76" r="1.54"/><circle class="cls-22" cx="166.86" cy="80.63" r="1.54"/><path class="cls-24" d="M179.91,119s-14.82-16-19.26-13.2-3,17.28-3,17.28Z"/><path class="cls-3" d="M167.17,137.8q-3.49,8.28-12.88,12.57,1.26-6.28-4.16-12.57Z"/><path class="cls-3" d="M115.81,147.13s6.11-4.82,10.6-5.11,12.19-4.5,9.94-10.44S120.51,125.05,115.81,147.13Z"/><path class="cls-3" d="M116.61,110.32s6.12,4.82,10.61,5.11,12.19,4.5,9.93,10.44S121.31,132.4,116.61,110.32Z"/><path class="cls-22" d="M163.82,144c18.15,0,32.87-6.66,32.87-14.86H131S145.66,144,163.82,144Z"/><path class="cls-25" d="M163.82,114.24c-18.16,0-32.87,14.86-32.87,14.86h65.74C196.69,120.89,182,114.24,163.82,114.24Z"/><path class="cls-3" d="M179.2,140.5q-3.49,8.28-12.88,12.57,1.25-6.28-4.17-12.57Z"/><circle class="cls-26" cx="201.63" cy="40.93" r="14.73"/><path class="cls-26" d="M201.63,20.1A2.62,2.62,0,0,1,199,17.48V4.39a2.62,2.62,0,1,1,5.23,0V17.48A2.61,2.61,0,0,1,201.63,20.1Z"/><path class="cls-26" d="M188.32,25.55a2.62,2.62,0,0,1-3.7.22l-9.78-8.7a2.62,2.62,0,0,1,3.48-3.91l9.78,8.7A2.61,2.61,0,0,1,188.32,25.55Z"/><path class="cls-26" d="M201.63,80.75A2.62,2.62,0,0,1,199,78.13V65a2.62,2.62,0,1,1,5.23,0V78.13A2.61,2.61,0,0,1,201.63,80.75Z"/><path class="cls-26" d="M238.5,43.88H225.41a2.62,2.62,0,0,1,0-5.24H238.5a2.62,2.62,0,1,1,0,5.24Z"/><path class="cls-26" d="M227.7,70a2.6,2.6,0,0,1-1.85-.76l-9.26-9.26a2.62,2.62,0,0,1,3.7-3.7l9.26,9.25a2.63,2.63,0,0,1,0,3.71A2.6,2.6,0,0,1,227.7,70Z"/><path class="cls-26" d="M218.44,27.06a2.6,2.6,0,0,1-1.85-.76,2.63,2.63,0,0,1,0-3.71l9.26-9.25a2.62,2.62,0,0,1,3.7,3.7l-9.26,9.26A2.6,2.6,0,0,1,218.44,27.06Z"/><rect class="cls-1" width="295.52" height="154.84"/></g></g></svg>