<svg xmlns="http://www.w3.org/2000/svg" viewBox="0 0 293.59 153.83"><defs><style>.cls-1,.cls-19,.cls-7,.cls-8,.cls-9{fill:none;}.cls-2{fill:#0d152d;}.cls-15,.cls-16,.cls-3{fill:#ec6755;}.cls-4{fill:#112f39;}.cls-5{fill:#fcc49d;}.cls-6{fill:#059370;}.cls-7{stroke:#0d152d;stroke-width:0.21px;}.cls-15,.cls-16,.cls-19,.cls-7,.cls-8,.cls-9{stroke-miterlimit:10;}.cls-8,.cls-9{stroke:#ec6755;}.cls-8{stroke-width:2px;}.cls-10{fill:#f2943e;}.cls-11{fill:#4a82c3;}.cls-12{fill:#002735;}.cls-13{fill:#f5f7d4;}.cls-14{fill:#f37061;}.cls-15,.cls-16{stroke:#002735;}.cls-15{stroke-width:2.38px;}.cls-16{stroke-width:1.72px;}.cls-17{fill:#231f20;}.cls-18{fill:#f2cb50;}.cls-19{stroke:#f2cb50;stroke-linecap:round;stroke-width:0.27px;}.cls-20{fill:#053040;}</style></defs><g id="Capa_2" data-name="Capa 2"><g id="Layer_1" data-name="Layer 1"><rect class="cls-1" width="293.59" height="153.83"/><path class="cls-2" d="M88.08,66.51A1.7,1.7,0,0,1,88,65.19a4.9,4.9,0,0,1-1.4-.46l-.58.71a.53.53,0,0,0,0,.63,1.29,1.29,0,0,0,.35.42l.16.13a1.38,1.38,0,0,1,.34.3,2.09,2.09,0,0,1,.2.22,9.1,9.1,0,0,0,1.07,1c.26.2.6.39.85.26A6.66,6.66,0,0,0,88.08,66.51Z"/><path class="cls-3" d="M91.47,35.46a12.54,12.54,0,0,0-2.21,6.8c-.43,7.24-.07,8.94-.52,11.26-.88,4.46-2.07,7.77-2.65,11.42a26,26,0,0,0,2.47,1c1.89-6.59,3.25-8.52,4.54-13a50.29,50.29,0,0,0,1.36-16,.71.71,0,0,0-.14-.45.88.88,0,0,0-.35-.17c-.9-.25-1.8-.51-2.5-.76"/><path class="cls-2" d="M93.56,44.48c-.82-.68-2.09-1.15-2.79-1.95a9,9,0,0,1-1.59-2,14,14,0,0,1,2.29-5.06c.7.25,1.6.51,2.5.76a.88.88,0,0,1,.35.17.71.71,0,0,1,.14.45,53.82,53.82,0,0,1,0,8.31A4.06,4.06,0,0,0,93.56,44.48Z"/><path class="cls-2" d="M103,58.86c1.32,1.11,3.62,1.43,2.76,1.76s-.88.22-2.38.11-1.53.13-1.57-.39a13,13,0,0,1,.09-1.57s-.22-1,1.1.09"/><path class="cls-3" d="M91.79,35.45l7.8,6.36a6.57,6.57,0,0,1,1.3,1.28,7.15,7.15,0,0,1,1,3c.72,4.28,1.17,8.59,1.62,12.89l-1.78.54a55.59,55.59,0,0,1-3.27-11.65,5.26,5.26,0,0,0-.51-1.79,4.41,4.41,0,0,0-2.39-1.77c-5.45-2.17-6.23-2.07-7.53-3.52-1.8-2-1.33-3.59-1.05-4.92a11.48,11.48,0,0,1,4.83-.4"/><path class="cls-4" d="M92.7,24.37a2.78,2.78,0,0,1,2.18,1.82,8.68,8.68,0,0,1,.47,3q.12,3.57.26,7.15a.66.66,0,0,1-.1.48.64.64,0,0,1-.44.19,25.53,25.53,0,0,1-9.18-.23c1.08-3.19.84-6.67,1.27-10a3.08,3.08,0,0,1,.73-1.88,2.88,2.88,0,0,1,1.94-.58c1.14,0,2.27.06,2.87.1"/><path class="cls-5" d="M98.68,33.65a1.63,1.63,0,0,0,.86-.36,1.14,1.14,0,0,1,.35-.26.72.72,0,0,1,.73.18,1,1,0,0,1,.24.63,5.15,5.15,0,0,1,0,.55.33.33,0,0,1,0,.14.35.35,0,0,1-.15.11,3.24,3.24,0,0,1-1.61.3.5.5,0,0,1-.32-.09.34.34,0,0,1-.09-.29c0-.33,0-.66,0-.91"/><path class="cls-5" d="M91.93,19.58a35.57,35.57,0,0,0,.68,4.61.83.83,0,0,1,0,.54.82.82,0,0,1-.49.33,3.39,3.39,0,0,1-3-.22.38.38,0,0,1-.14-.17.43.43,0,0,1,0-.25,11.07,11.07,0,0,0,.38-3.1c0-.58,0-1.17,0-1.76a17.31,17.31,0,0,1,2.5,0"/><path class="cls-5" d="M92.67,16.67a14.93,14.93,0,0,1,.54,1.76,5.69,5.69,0,0,1,.56,1.75,1.88,1.88,0,0,1-.61,1.66,2.59,2.59,0,0,1-2.9-.28A6,6,0,0,1,89,19.18a2.49,2.49,0,0,1,.85-2.33,2.35,2.35,0,0,1,2.37-.49,1.19,1.19,0,0,1,.5.31"/><path class="cls-6" d="M87.38,17.61a3.52,3.52,0,0,0,1.07,2.67,1.81,1.81,0,0,1,.41.46c.09.19.11.43.21.62s.39.3.51.12a.36.36,0,0,0,.07-.17,3,3,0,0,0,.1-1.43c-.08-.31-.25-.59-.3-.91s.13-.72.43-.72a1.63,1.63,0,0,1,.3.07c.38-.2.55-.59.94-.82a1.25,1.25,0,0,1,1.17-.1,1.53,1.53,0,0,0,1,.09.42.42,0,0,0,.12-.08,1.14,1.14,0,0,0,.76-.73c.2-.5.3-1.81-.46-1.89a1.89,1.89,0,0,0-1,.23,3,3,0,0,1-1.34.26h0l-.24-.06a3.52,3.52,0,0,0-2.29,0A2.77,2.77,0,0,0,87.38,17.61Z"/><path class="cls-5" d="M89.85,19.74c-.17-.45-.58-.71-.9-.56a.84.84,0,0,0-.29,1.08c.17.46.58.71.91.57a.86.86,0,0,0,.28-1.09"/><path class="cls-2" d="M95.63,36.11c-.49,0-.92.29-1.46.26l-1.57-.08a9.3,9.3,0,0,1-3.4-.55c-2-1-2-3.33-1.79-5.43.55.35,1,1.42,1.55,1.93a16.06,16.06,0,0,0,3.67,2.54A19.93,19.93,0,0,0,94.43,36c.33.15.94.07,1.13.21"/><path class="cls-4" d="M87.11,26.55A2.85,2.85,0,0,1,87.73,25c.4-.43,1.14-.64,1.12-.5A4.48,4.48,0,0,1,91,27.83a9.73,9.73,0,0,0,1.2,3.87,2.25,2.25,0,0,0,.83.76,3.49,3.49,0,0,0,1.16.25l4.7.48c0,.13,0,.26,0,.39a17.07,17.07,0,0,1,0,2l-1.25.26a12.67,12.67,0,0,1-5,.35,7.07,7.07,0,0,1-4.78-3.74,9.79,9.79,0,0,1-.78-5.92"/><path class="cls-7" d="M95.44,32.89c-1.1-.24-2.31,0-3.25-.82A4,4,0,0,1,91,29.69a10.83,10.83,0,0,1-.18-2"/><path class="cls-3" d="M80.68,122.22a1,1,0,1,1,1-1,1,1,0,0,1-1,1"/><path class="cls-8" d="M161.42,130c-18.94-13.94-42.94-8.94-64-2.54"/><line class="cls-3" x1="89.31" y1="130.94" x2="82.07" y2="133.39"/><line class="cls-9" x1="89.31" y1="130.94" x2="82.07" y2="133.39"/><line class="cls-10" x1="89.31" y1="133.39" x2="84.33" y2="138.21"/><line class="cls-9" x1="89.31" y1="133.39" x2="84.33" y2="138.21"/><line class="cls-10" x1="89.84" y1="136.38" x2="88.77" y2="141.78"/><line class="cls-9" x1="89.84" y1="136.38" x2="88.77" y2="141.78"/><line class="cls-3" x1="87.54" y1="129.18" x2="80.68" y2="128.27"/><line class="cls-9" x1="87.54" y1="129.18" x2="80.68" y2="128.27"/><line class="cls-3" x1="86.19" y1="126.46" x2="82.12" y2="122.76"/><line class="cls-9" x1="86.19" y1="126.46" x2="82.12" y2="122.76"/><path class="cls-3" d="M80,135.15a1,1,0,1,0-1-1,1,1,0,0,0,1,1"/><path class="cls-3" d="M82.71,140.66a1,1,0,1,0-1-1,1,1,0,0,0,1,1"/><path class="cls-3" d="M78.45,128.73a1,1,0,1,0-1-1,1,1,0,0,0,1,1"/><path class="cls-3" d="M88.3,144.6a1,1,0,1,0-1-1,1,1,0,0,0,1,1"/><path class="cls-11" d="M89.31,135.94a5.67,5.67,0,1,0-5.67-5.66,5.66,5.66,0,0,0,5.67,5.66"/><path class="cls-12" d="M88.37,130.64c-.58-.94-9.53-15.43-2.82-10.23a31,31,0,0,0,15.35,5.84l.15,0-.06.06h.06l-.11,0a31,31,0,0,0-8.51,14c-2.06,8.05-3.87-8-4.06-9.71"/><path class="cls-12" d="M138,11.3c7.19-6.41,15-6.32,23.27-.85l-.86,19.8h-21.2Z"/><path class="cls-13" d="M203.33,72.77l-42-62.32A14.65,14.65,0,0,1,155,14.93c.64,6.39.13,12.58-3.18,15.9-12.8,12.79-24.25,2.55-28.23,18s-20.57,14.54-20.71,14.53l-6.36,9.44Z"/><path class="cls-11" d="M123.63,48.8c4-15.42,15.43-5.18,28.23-18,3.31-3.32,3.82-9.51,3.18-15.9a16.44,16.44,0,0,1-5.75,1A15.5,15.5,0,0,1,138,11.3l-35.1,52c.14,0,16.74.83,20.71-14.53"/><path class="cls-14" d="M73.59,84.73l.63,23.62a1,1,0,0,1-.36.79L72,110.7a1,1,0,0,1-.63.22H69.41a1,1,0,0,0-1,1v.36a1,1,0,0,0,1,1h6.24a1,1,0,0,0,.7-.29l5.9-5.9a1.19,1.19,0,0,0,.22-.33l1.81-4.44a1,1,0,0,0,.07-.38c0-1.46,0-10.5,0-10.5s-6.09-5-9.14-7.49a1,1,0,0,0-1.62.79"/><path class="cls-14" d="M115.37,102.46l-1,9.92a1,1,0,0,1-1,.89H104.8a1,1,0,0,1-1-1v-.36a1,1,0,0,1,1-1h1.25a1,1,0,0,0,1-1.09l-1.13-11.16a1,1,0,0,1,1.43-1l7.49,3.77a1,1,0,0,1,.54,1"/><path class="cls-4" d="M55,80.71l.55,1.23.32.74a.53.53,0,0,0,.39.29S73,85.35,73.13,85.76c0,0,3.34,10.42,3.42,10.52l6.36,8.49L85.2,108a1,1,0,0,1-.11,1.27l-1.35,1.35a1,1,0,0,1-.7.29H81.37a1,1,0,0,0-1,1v.36a1,1,0,0,0,1,1h5.92a1,1,0,0,0,.75-.34l2.18-2.53a1,1,0,0,0,.24-.68L90,95a1,1,0,0,1,1.25-1l14.55,4,.12,0,.1,0,9.21,5.17,2.07,1.15,6.57,3.75a.94.94,0,0,1,.46.57l.77,2.48a1,1,0,0,1-1,1.29h-.82a1,1,0,0,0-1,1v.36a1,1,0,0,0,1,1h4.84a1,1,0,0,0,.93-.65l3-8.3a1,1,0,0,0,0-.8L126.18,93.7a1.06,1.06,0,0,1-.09-.25l-2.83-13.27A16.29,16.29,0,0,0,107,64.43h-.76c-.43,0-.85.06-1.27.11l0-.1h0a18.09,18.09,0,0,0-1.82.18h0l-.26,0L91,66.57c-1.84.28-24.54.56-28.3,4.7-.09.1-.2.19-.29.29l-.13.15h0c-.12.14-.25.3-.36.45h0L60,74.44a.49.49,0,0,0-.1.26l-.11,1a1.13,1.13,0,0,1-.39.74l-3.47,3-.81.71a.49.49,0,0,0-.13.58"/><path class="cls-14" d="M55,80.71l.55,1.23.54-.63a1.09,1.09,0,0,0,.18-1.08L56,79.42l-.81.71a.49.49,0,0,0-.13.58"/><path class="cls-14" d="M69.05,73.28a.68.68,0,0,0,1,0L70.3,73h0c1-1,1.23-2.36.54-3.06s-2.07-.45-3.06.54l-.28.29a.67.67,0,0,0,0,1Z"/><path class="cls-14" d="M67.13,76.36a4.8,4.8,0,0,1-9.37,1.48l1.66-1.45a1.13,1.13,0,0,0,.39-.74l.11-1a.52.52,0,0,1,.1-.26l1.85-2.28h0a5.07,5.07,0,0,1,.36-.45h0l.14-.15a4.8,4.8,0,0,1,4.76,4.8"/><path class="cls-3" d="M189.84,40.71h46.31V70.82S219.57,92.93,218,106.46h-28.2Z"/><rect class="cls-3" x="192.7" y="23.94" width="10.29" height="10.29"/><polygon class="cls-3" points="197.88 6.03 192.07 23.94 203.7 23.94 197.88 6.03"/><path class="cls-3" d="M189.84,71.2h-48V107H150V83.73s.19-6.46,8-6.46,7.82,6.46,7.82,6.46V107h8.57V83.34s.79-6,8-6,7.4,5.62,7.4,5.62Z"/><line class="cls-15" x1="139.77" y1="71.2" x2="238.3" y2="71.2"/><line class="cls-16" x1="205.37" y1="73.58" x2="205.37" y2="83.21"/><line class="cls-16" x1="201.46" y1="73.58" x2="201.46" y2="83.21"/><line class="cls-16" x1="209.47" y1="73.58" x2="209.47" y2="83.21"/><line class="cls-16" x1="219.71" y1="73.58" x2="219.71" y2="83.21"/><line class="cls-16" x1="215.8" y1="73.58" x2="215.8" y2="83.21"/><line class="cls-16" x1="223.8" y1="73.58" x2="223.8" y2="83.21"/><line class="cls-16" x1="187.36" y1="55.96" x2="238.62" y2="55.96"/><line class="cls-16" x1="228.58" y1="37.47" x2="228.58" y2="71.2"/><line class="cls-16" x1="220.71" y1="37.47" x2="220.71" y2="71.2"/><line class="cls-16" x1="213.94" y1="37.47" x2="213.94" y2="40.4"/><line class="cls-16" x1="236.15" y1="37.47" x2="236.15" y2="40.4"/><line class="cls-16" x1="183.84" y1="68.27" x2="183.84" y2="71.2"/><line class="cls-16" x1="178.46" y1="68.27" x2="178.46" y2="71.2"/><line class="cls-16" x1="173.12" y1="68.27" x2="173.12" y2="71.2"/><line class="cls-16" x1="167.08" y1="68.27" x2="167.08" y2="71.2"/><line class="cls-16" x1="161.7" y1="68.27" x2="161.7" y2="71.2"/><line class="cls-16" x1="156.36" y1="68.27" x2="156.36" y2="71.2"/><line class="cls-16" x1="150.46" y1="68.27" x2="150.46" y2="71.2"/><line class="cls-16" x1="145.12" y1="68.27" x2="145.12" y2="71.2"/><polygon class="cls-3" points="189.84 40.71 189.84 34.42 197.84 29.28 205.47 33.66 205.47 40.71 189.84 40.71"/><circle class="cls-12" cx="224.65" cy="47.4" r="2.69"/><polygon class="cls-12" points="193.79 55.82 193.79 49.95 195.44 46.75 197.03 49.85 197.03 55.82 193.79 55.82"/><polygon class="cls-12" points="200.56 55.6 200.56 49.73 202.2 46.53 203.8 49.63 203.8 55.6 200.56 55.6"/><polygon class="cls-12" points="207.03 55.6 207.03 49.73 208.68 46.53 210.28 49.63 210.28 55.6 207.03 55.6"/><polygon class="cls-12" points="213.37 55.6 213.37 49.73 215.01 46.53 216.61 49.63 216.61 55.6 213.37 55.6"/><path class="cls-12" d="M193.79,71.2V64.71s.13-3.8,2.25-3.8,2.13,3.8,2.13,3.8V71.2Z"/><path class="cls-12" d="M202.78,71.2V64.71s.13-3.8,2.25-3.8,2.13,3.8,2.13,3.8V71.2Z"/><path class="cls-12" d="M212.31,71.2V64.71s.13-3.8,2.26-3.8,2.12,3.8,2.12,3.8V71.2Z"/><path class="cls-12" d="M212.31,102.64V97.83s.13-2.81,2.26-2.81,2.12,2.81,2.12,2.81v4.81Z"/><path class="cls-12" d="M203.27,102.64V97.83S203.4,95,205.53,95s2.13,2.81,2.13,2.81v4.81Z"/><rect class="cls-12" x="141.82" y="103.98" width="8.19" height="3.05"/><rect class="cls-12" x="165.83" y="103.98" width="8.58" height="3.05"/><rect class="cls-12" x="189.84" y="103.41" width="28.63" height="3.05"/><line class="cls-16" x1="205.47" y1="18.8" x2="205.47" y2="40.81"/><line class="cls-16" x1="189.84" y1="18.8" x2="189.84" y2="40.81"/><line class="cls-16" x1="187.04" y1="40.71" x2="238.3" y2="40.71"/><rect class="cls-12" x="191.49" y="22.94" width="12.31" height="2"/><path class="cls-12" d="M125.35,141.53a23.85,23.85,0,0,1,4.42-10.1c6.66-9.49,13.44-13.52,20.28-15.41l.61-.17.6-.15c6-1.41,12.55-.72,17.09.15a66,66,0,0,0,4.12,12.09c1.13,3.56.54,5.25-1.62,7.61a19.28,19.28,0,0,1-5-7.33,42.14,42.14,0,0,1-1.51-4.19,65.85,65.85,0,0,0,1.69,10.37c.49,4.15-.52,5.86-3.37,8a21.48,21.48,0,0,1-3.91-9.08,45.38,45.38,0,0,1-.93-6.74,74,74,0,0,0-1,13.82c-.42,4.33-1.83,5.86-5.21,7.4a22.44,22.44,0,0,1-2-10.11,44.71,44.71,0,0,1,1.14-10.11,80.16,80.16,0,0,0-5.49,13.89c-1.82,4.28-3.75,5.38-7.7,5.87a23.94,23.94,0,0,1,1.26-11,49.16,49.16,0,0,1,3.59-8.5,76.55,76.55,0,0,0-8.06,10.29c-3,3.56-5.17,4-9.08,3.35"/><path class="cls-6" d="M126.28,135.38a24.23,24.23,0,0,1,4.42-10.1c6.67-9.49,13.45-13.51,20.28-15.41l.61-.16.61-.15c6-1.42,12.55-.73,17.09.15a65.12,65.12,0,0,0,4.11,12.08c1.14,3.57.54,5.25-1.61,7.62a19.3,19.3,0,0,1-5-7.34,43.85,43.85,0,0,1-1.52-4.18,67,67,0,0,0,1.7,10.37c.49,4.14-.52,5.86-3.38,8a21.72,21.72,0,0,1-3.91-9.09,48.06,48.06,0,0,1-.93-6.73,74.82,74.82,0,0,0-1,13.82c-.41,4.33-1.83,5.85-5.21,7.4a22.62,22.62,0,0,1-2-10.12,44.25,44.25,0,0,1,1.15-10.11,80.54,80.54,0,0,0-5.5,13.89c-1.81,4.29-3.74,5.39-7.69,5.87a24.14,24.14,0,0,1,1.25-10.95,49.81,49.81,0,0,1,3.6-8.49A76,76,0,0,0,135.36,132c-3,3.56-5.16,4-9.08,3.34"/><path class="cls-17" d="M156.39,118.25l-.59.25.59-.25"/><path class="cls-17" d="M105.05,118.25l.58.25-.58-.25"/><path class="cls-12" d="M136,99.58q11.52,1,20,11.71c-3.81,8.28-10.19,13.27-18,16.46,3.92-10,3.58-19.45-2-28.17"/><path class="cls-11" d="M233.5,114.48l3.62-2.89c-33.68-8.66-58.35-7.54-81.45-4.73-1.57.57-3.14,1.17-4.73,1.8l.58,7.17c2.52-.13,6,.91,10.11,2.85,13.91,10.09,47.39,13.23,76.43-3.07Z"/><path class="cls-12" d="M237.21,111.52c-21.17-15.2-48.31-16.85-81.55-4.66,23.11-2.81,47.78-3.93,81.46,4.73Z"/><path class="cls-12" d="M207.3,112.3c-11.82.79-16.92,3.77-17,8.06l16.88.33Z"/><path class="cls-13" d="M130.32,103.13l0,.74,0,0c0-.3,0-.61,0-.92,5.37,24.07,32.41,11,35.55,9.37,6.84-9.94,3.77-27.29-5.94-37.12-1.72-8.44-1.72-8.44-10.55-18.32s-19.12-8.69-19.12-8.69S120.06,47,111.23,56.84s-8.83,9.88-10.54,18.32c-9.89,10-12.89,27.79-5.58,37.63,4.47,2.22,30.06,13.8,35.21-9.66"/><path class="cls-12" d="M98.58,116.27c11.46,8.43,31.77,4.35,31.77,4.35s20.31,4.08,31.77-4.35a16.33,16.33,0,0,0,3.84-4c-3.14,1.61-30.18,14.7-35.55-9.37,0,.31,0,.62,0,.92l0,0,0-.74c-5.15,23.46-30.74,11.88-35.21,9.66a16.35,16.35,0,0,0,3.47,3.48"/><path class="cls-6" d="M159.75,73.24C158,64.81,158,64.81,149.21,54.92a26.17,26.17,0,0,0-11-7.5,9.94,9.94,0,0,0-1.18-.37h0a22.31,22.31,0,0,0-4.8-.83,20.1,20.1,0,0,0-7.17.51,25.5,25.5,0,0,0-13.5,8.2c-8.83,9.89-8.83,9.89-10.54,18.32a35.09,35.09,0,0,0-9.58,22c.58-.41,1.18-.81,1.81-1.21,10.82-6.33,25.32-8.85,29.38-17.39,4.62-12.13,2.13-25.45,7.53-25.57V51h0v.09c5.41.12,2.92,13.44,7.53,25.57,4.07,8.54,18.57,11.06,29.39,17.39.83.53,1.6,1.06,2.34,1.59a35.14,35.14,0,0,0-9.59-22.41"/><path class="cls-3" d="M130.54,97.16c-12.57-.59-5.13,9.1-.18,9.27h.35c4.95-.17,12.39-9.86-.17-9.27"/><path class="cls-3" d="M114.26,63.24C114,63,113.08,45.83,99.9,48.35c-6.72,3-2.59,11.93-2.64,11.86a6,6,0,0,0-1.85,7.38c2.11,4.62,13.58,3,13.58,3a13.54,13.54,0,0,1,5.27-7.38"/><path class="cls-3" d="M146.84,63.24c.25-.27,1.18-17.41,14.37-14.89,6.72,3,2.58,11.93,2.63,11.86a6,6,0,0,1,1.85,7.38c-2.11,4.62-13.57,3-13.57,3a13.61,13.61,0,0,0-5.28-7.38"/><path class="cls-18" d="M128.07,50.27l0,3.25a3.23,3.23,0,0,1-5.63,2.11"/><path class="cls-14" d="M122.39,55.63a3.23,3.23,0,0,1,2.45-5.39l.28,0,2.95.05"/><path class="cls-18" d="M130.36,50.31l.18,3.25a3.23,3.23,0,0,0,5.71,1.89"/><path class="cls-14" d="M136.25,55.45a3.23,3.23,0,0,0-2.66-5.29h-.28l-2.95.16"/><polyline class="cls-19" points="128.81 49.08 128.96 40.56 126.24 38.11"/><polyline class="cls-19" points="129.65 49.09 129.8 40.57 132.6 38.22"/><path class="cls-20" d="M127.54,44.69a29.09,29.09,0,0,0,.51,5.59,20.79,20.79,0,0,0,1.19,3.81,17.59,17.59,0,0,0,1.14-3.8,34.77,34.77,0,0,0,.34-5.55Z"/><path class="cls-18" d="M115.51,37.3l12.56,13s-7.61,1.18-10.69-2-1.79-11-1.87-11"/><path class="cls-14" d="M128.07,50.3l-12.56-13s7.61-1.19,10.7,2,1.78,11,1.86,11"/><path class="cls-18" d="M143.35,37.78l-13,12.56s7.57,1.44,10.76-1.65,2.15-10.91,2.24-10.91"/><path class="cls-14" d="M130.35,50.34l13-12.56s-7.57-1.44-10.76,1.64-2.15,10.92-2.24,10.92"/><path class="cls-17" d="M139.47,42.67a2.69,2.69,0,1,1-3.66-1,2.69,2.69,0,0,1,3.66,1"/><path class="cls-17" d="M124.26,42.34a2.69,2.69,0,1,1-3.66-1.05,2.7,2.7,0,0,1,3.66,1.05"/></g></g></svg>