<svg xmlns="http://www.w3.org/2000/svg" viewBox="0 0 263.32 137.97"><defs><style>.cls-1,.cls-10,.cls-12,.cls-15,.cls-16,.cls-17,.cls-7{fill:none;}.cls-2{fill:#059370;}.cls-3{fill:#605c91;}.cls-4{fill:#ed705c;}.cls-5{fill:#fbd636;}.cls-6{fill:#f5f7d4;}.cls-7{stroke:#f2f4d3;stroke-width:0.44px;}.cls-10,.cls-12,.cls-15,.cls-17,.cls-7{stroke-miterlimit:10;}.cls-8{fill:#f6cf44;}.cls-9{fill:#f1695b;}.cls-10{stroke:#f6cf44;stroke-width:0.39px;}.cls-10,.cls-16{stroke-linecap:round;}.cls-11{fill:#f9bb15;}.cls-12,.cls-15,.cls-16{stroke:#f9bb15;}.cls-12{stroke-width:2.08px;}.cls-13{fill:#002735;}.cls-14{fill:#ec6755;}.cls-15{stroke-width:1.05px;}.cls-16{stroke-linejoin:round;stroke-width:1.3px;}.cls-17{stroke:#f5f7d4;stroke-width:1.82px;}</style></defs><g id="Capa_2" data-name="Capa 2"><g id="Layer_1" data-name="Layer 1"><rect class="cls-1" width="263.32" height="137.97"/><path class="cls-2" d="M143.34,114.77h34.93a7.07,7.07,0,0,1,7.07,7.07v0a0,0,0,0,1,0,0H136.27a0,0,0,0,1,0,0v0A7.07,7.07,0,0,1,143.34,114.77Z"/><path class="cls-2" d="M206.3,75.92a44.56,44.56,0,0,1-87.88,10.4,42.36,42.36,0,0,1-1.1-7,44.51,44.51,0,0,1,21.37-41.54,6.32,6.32,0,0,0,3.1-5.4v-19h38.05V31.45a6.15,6.15,0,0,0,3.26,5.38,44.5,44.5,0,0,1,23.2,39.09Z"/><path class="cls-2" d="M136.27,10h49.07a0,0,0,0,1,0,0v0a4.55,4.55,0,0,1-4.55,4.55h-40A4.55,4.55,0,0,1,136.27,10v0A0,0,0,0,1,136.27,10Z"/><path class="cls-3" d="M167.62,120.53h22.19A4.49,4.49,0,0,1,194.3,125v0a0,0,0,0,1,0,0H163.12a0,0,0,0,1,0,0v0A4.49,4.49,0,0,1,167.62,120.53Z"/><path class="cls-3" d="M207.61,95.85a28.3,28.3,0,0,1-55.82,6.6,26.8,26.8,0,0,1-.71-4.42,28.26,28.26,0,0,1,13.58-26.39,4,4,0,0,0,2-3.43V56.11H190.8V67.6A3.91,3.91,0,0,0,192.87,71a28.31,28.31,0,0,1,14.74,24.83Z"/><path class="cls-3" d="M163.12,54H194.3a0,0,0,0,1,0,0v0a2.89,2.89,0,0,1-2.89,2.89H166A2.89,2.89,0,0,1,163.12,54v0A0,0,0,0,1,163.12,54Z"/><path class="cls-4" d="M82.24,55.39a11.49,11.49,0,0,0-1.66.13C79.47,61.18,78.77,69.05,82.24,73c3.84,4.34,1.44,14.24-.59,20.4a5.72,5.72,0,0,0,.59,0c7.94,0,14.38-8.5,14.38-19S90.18,55.39,82.24,55.39Z"/><path class="cls-4" d="M79.69,72.92C76.23,69,76.92,61.13,78,55.47c-7.16,1.08-12.72,9.12-12.72,18.87,0,10.23,6.12,18.57,13.79,19C81.14,87.16,83.53,77.26,79.69,72.92Z"/><path class="cls-5" d="M42.78,113.73c3,1.8,6.54,1.21,6.86.71s-.9-3.57-3.72-5.39-6.43-1.73-6.82-1.19S39.76,111.92,42.78,113.73Z"/><path class="cls-5" d="M40.82,84.81c1.8,2.18,4.93,2.66,5.38,2.35s.57-3-1.1-5.21-4.69-3-5.21-2.68S39,82.62,40.82,84.81Z"/><path class="cls-5" d="M36.71,100.19c3.92,3.36,9.37,3.16,10,2.5s-.3-5.3-3.83-8.67S34,89.75,33.21,90.48,32.74,96.81,36.71,100.19Z"/><path class="cls-5" d="M55.19,108.61c-1.79,2.21-5.21,3-5.83,2.64s-1.32-3.59.63-5.81,5.55-2.53,6.1-2.19S57,106.42,55.19,108.61Z"/><path class="cls-5" d="M53.07,83.61c-2.29,1.29-5.39,1-5.77.55S47.54,81,50,79.72s5.48-.61,5.81-.19S55.34,82.33,53.07,83.61Z"/><path class="cls-5" d="M56.45,97c-3.32,2.71-8.61,3.23-9.43,2.56S46.1,94,49.77,91.32s9.11-2.11,9.79-1.51S59.74,94.3,56.45,97Z"/><path class="cls-5" d="M46.68,68.09c-1.76,4.27.76,8.61,1.75,8.81s5.2-2.15,6.74-5.88.13-8.13-.77-8.59S48.44,63.82,46.68,68.09Z"/><path class="cls-5" d="M56.31,126.94A70.67,70.67,0,0,1,49.6,111.6a.46.46,0,0,0,.18-.13,58.67,58.67,0,0,1,3.9-5,.37.37,0,0,0-.12-.57.53.53,0,0,0-.67.06c-1.26,1.45-2.47,3-3.6,4.56A64.76,64.76,0,0,1,47.2,99.92a.44.44,0,0,0,.19-.1,66.72,66.72,0,0,1,7.31-6.24.36.36,0,0,0,0-.57.53.53,0,0,0-.67-.06,66.26,66.26,0,0,0-7,5.89,62.06,62.06,0,0,1,.29-14.29.46.46,0,0,0,.23-.06c1.63-1,3.32-2,5-2.92a.37.37,0,0,0,.12-.56.56.56,0,0,0-.67-.14q-2.31,1.23-4.55,2.63a60.47,60.47,0,0,1,4.4-15.09.42.42,0,0,0-.29-.54.48.48,0,0,0-.62.21,61.49,61.49,0,0,0-4.85,18.39c-1.21-1.34-2.39-2.74-3.5-4.16a.55.55,0,0,0-.67-.15.37.37,0,0,0-.12.56c1.25,1.6,2.58,3.17,3.94,4.67a.64.64,0,0,0,.25.15A64,64,0,0,0,46.51,102a89.74,89.74,0,0,1-7.85-6.59.56.56,0,0,0-.68,0A.36.36,0,0,0,38,96a89.83,89.83,0,0,0,8.44,7,.82.82,0,0,0,.19.09.22.22,0,0,0,.08,0,67.27,67.27,0,0,0,2.65,10.71c-2-1.09-4-2.25-5.84-3.46a.54.54,0,0,0-.67.07.38.38,0,0,0,.12.57c2.09,1.33,4.26,2.62,6.47,3.8a.35.35,0,0,0,.13,0,.33.33,0,0,0,.14,0,72,72,0,0,0,5.79,12.44.53.53,0,0,0,.64.21A.35.35,0,0,0,56.31,126.94Z"/><path class="cls-4" d="M121.82,16.57s-1.47-7.85.36-9.47a37,37,0,0,1,6.13-3.71Z"/><path class="cls-6" d="M121.81,16.54s7-3.47,7.22-5.93a39.56,39.56,0,0,0-.75-7.26Z"/><path class="cls-4" d="M120.46,17.31s-5.94-5.4-8.29-4.72a36.94,36.94,0,0,0-6.44,3.17Z"/><path class="cls-6" d="M120.45,17.3s-6.72,4.05-8.92,2.89a39.86,39.86,0,0,1-5.81-4.47Z"/><path class="cls-6" d="M121.83,16.56s8.37-4.58,10,5.25c-3,3.36-5.93,1.5-6.14,1.13Z"/><path class="cls-6" d="M120.25,17.43s-8.38,4.58-.82,11.19c4.48-.76,4.43-4.17,4.22-4.55Z"/><line class="cls-7" x1="118.51" y1="13.23" x2="114.51" y2="10.89"/><line class="cls-7" x1="119.09" y1="12.91" x2="119.54" y2="8.24"/><path class="cls-6" d="M124.11,22.48h0a.9.9,0,0,1-1.22-.34l-4.74-8.47a.88.88,0,0,1,.35-1.2h0a.9.9,0,0,1,1.22.34l4.74,8.47A.88.88,0,0,1,124.11,22.48Z"/><path class="cls-8" d="M92.57,43.51l-2.3,4a4.55,4.55,0,0,1-6.22,1.66,4.5,4.5,0,0,1-2.16-2.92"/><path class="cls-9" d="M81.89,46.22a4.55,4.55,0,0,1,6.71-5l.36.16,3.61,2.09"/><path class="cls-8" d="M95.36,45.12l-2,4.12a4.56,4.56,0,0,0,5.74,6.25"/><path class="cls-3" d="M99.09,55.49a4.5,4.5,0,0,0,2.45-2.26,4.56,4.56,0,0,0-2.1-6.09l-.34-.2-3.74-1.82"/><polyline class="cls-10" points="94.29 42.54 100.3 32.15 98.63 27.27"/><polyline class="cls-10" points="95.32 43.13 101.33 32.74 106.39 31.75"/><path class="cls-3" d="M95.73,36.26a41.73,41.73,0,0,0-3.2,7.24A29.35,29.35,0,0,0,91.39,49a25.14,25.14,0,0,0,4-3.89,49.15,49.15,0,0,0,4.22-6.62Z"/><path class="cls-8" d="M86,18.93l6.59,24.61s-10.19-3.75-11.8-9.79S86.06,19,86,18.93Z"/><path class="cls-3" d="M92.54,43.54,86,18.94s10.18,3.75,11.8,9.79S92.44,43.48,92.54,43.54Z"/><path class="cls-8" d="M119.94,38.56,95.33,45.15s8.33,7,14.38,5.34S119.83,38.5,119.94,38.56Z"/><path class="cls-9" d="M95.32,45.15l24.61-6.58s-8.33-7-14.38-5.34S95.43,45.21,95.32,45.15Z"/><rect class="cls-11" x="65.5" y="88.24" width="33.79" height="2.83"/><path class="cls-2" d="M74.39,117c0,1.43,0,2.6-1.74,2.6H67.08c-1.74,0-1.75-1.17-1.75-2.6h0c0-1.44,0-2.6,1.75-2.6h5.57c1.74,0,1.74,1.16,1.74,2.6Z"/><path class="cls-2" d="M106.29,101.09a1.67,1.67,0,0,1-1.17,2l-2,.23c-.76.08-1.47-.67-1.58-1.68L99.3,81.87a1.67,1.67,0,0,1,1.17-2l2-.23c.76-.08,1.47.67,1.58,1.68Z"/><path class="cls-11" d="M104.21,101.31a1.67,1.67,0,0,1-1.17,2l-2,.22c-.76.09-1.47-.66-1.58-1.67L97.22,82.09a1.66,1.66,0,0,1,1.17-2l2-.23c.76-.09,1.47.67,1.58,1.68Z"/><path class="cls-11" d="M66.35,68.11c-.42.14-2.38,1.52-2.41,2.7-.06,2.33,0,17.53,0,20.89s2.46,3.9,2.46,3.9Z"/><path class="cls-11" d="M114.25,68.87a10,10,0,0,1-5.13,1.82c-4.42,0-42.76,0-42.76,0l-.84-1.85Z"/><line class="cls-12" x1="94.89" y1="95.44" x2="94.89" y2="68.28"/><path class="cls-13" d="M167.13,107.22l.12-14.6c-1.12-1.41-2.61-2-5.28-2-1.69,0-1,16.56-1,16.56Z"/><path class="cls-14" d="M152,110.5l-81.52,1.93a3.09,3.09,0,0,0-3.1,2.19v4.94s0,1.67,1.55,1.67h78.35Z"/><path class="cls-6" d="M160,117.61H71.46l-2.7-5c-1.56,0-2.41-.48-2.41-3V95.05h40l-.22-26.94h25.37l4.64,20.37,26.64,2.18s2,1.34,2.13,2.12v7.73S161,117.61,160,117.61Z"/><path class="cls-6" d="M131.9,89.78c.14,1.53.06,17.82.06,17.82s-13.53.12-17.63-.78c-3.25-.72-3.06-6.48-5.49-8.59-1.84-1.6-5.18-2.34-5.18-3.21,0-2-.43-23.35-.43-23.35a2.74,2.74,0,0,1,2.74-2.8h22.71Z"/><path class="cls-13" d="M173.12,115.14a1.4,1.4,0,1,1-1.39-1.39A1.39,1.39,0,0,1,173.12,115.14Z"/><path class="cls-13" d="M172.05,114.6a3.24,3.24,0,0,1-3.24-3.24c0-.46-.7.11-.7,1a3.23,3.23,0,0,0,3.23,3.23C172.67,115.61,172.93,114.6,172.05,114.6Z"/><rect class="cls-13" x="167.84" y="107.6" width="3.6" height="5.17"/><rect class="cls-13" x="162.12" y="107.29" width="4.42" height="6.43"/><path class="cls-13" d="M168.71,108.61h-6.59v3h6.59C170.71,111.6,170.49,108.61,168.71,108.61Z"/><polygon class="cls-14" points="143.27 102.64 165 103.56 164.76 118.58 132.8 118.61 138.32 105.21 143.27 102.64"/><path class="cls-14" d="M164.12,101.45H144c-3.07,0-5,.89-6,2.43-1.75,2.74-7.05,15.16-7.05,15.16H133c1.7-3.77,4.8-10.58,5.83-12.34a6.63,6.63,0,0,1,5.44-3.24h20C167,103.46,167.33,101.45,164.12,101.45Z"/><polygon class="cls-14" points="98.7 102.64 75.16 102.64 71.46 106.2 71.46 115.86 74.05 118.61 106.68 118.61 98.7 102.64"/><path class="cls-14" d="M73.85,106.78c-.66,1.27-2.5,9.08-2.5,9.08s-4.29-.39-3.15-3.65c.78-2.22,2.24-7.26,3.43-9.36S74.57,100,77.78,100H95c3.06,0,4.9,1.24,5.89,2.79,1.75,2.73,8.12,15.83,8.12,15.83h-4.43c-1.7-3.77-4.81-10.15-5.84-11.91a5.42,5.42,0,0,0-5-2.59H79.08C76.35,104.11,74.84,104.87,73.85,106.78Z"/><path class="cls-13" d="M167.13,105.56h-2.19v1.73h2.19C167.86,107.29,167.81,105.56,167.13,105.56Z"/><path class="cls-14" d="M139.73,96.17a.63.63,0,0,1,.7-.54h21.9a.64.64,0,0,1,.71.54h0c0,.29-.32.53-.71.53h-21.9a.63.63,0,0,1-.7-.53Z"/><path class="cls-3" d="M127.33,88.71a2.13,2.13,0,0,1-2.15,2.36H108.06a2.45,2.45,0,0,1-2.42-2.37l-.36-15.59a2.3,2.3,0,0,1,2.31-2.36h15.7a2.65,2.65,0,0,1,2.58,2.35Z"/><polygon class="cls-3" points="136.7 88.52 132.23 89.78 128.68 68.33 131.91 68.33 136.7 88.52"/><path class="cls-15" d="M137.11,94.49s-1.5-.1-2.51-.1-2.44-1.29-2.7-3-3.22-23.11-3.22-23.11"/><line class="cls-15" x1="131.9" y1="89.78" x2="136.7" y2="88.52"/><line class="cls-16" x1="128.68" y1="68.33" x2="131.91" y2="68.33"/><line class="cls-12" x1="128.68" y1="68.33" x2="65.5" y2="68.33"/><circle class="cls-11" cx="151.07" cy="119.3" r="15.06"/><circle class="cls-3" cx="151.07" cy="119.3" r="11.43"/><circle class="cls-13" cx="151.07" cy="119.3" r="4.68"/><circle class="cls-6" cx="151.07" cy="119.06" r="1.99"/><rect class="cls-14" x="69.27" y="112.76" width="9.11" height="7.46"/><circle class="cls-11" cx="86.79" cy="119.56" r="15.06"/><circle class="cls-3" cx="86.79" cy="119.56" r="11.43"/><circle class="cls-13" cx="86.79" cy="119.56" r="4.68"/><circle class="cls-6" cx="86.79" cy="119.32" r="1.99"/><path class="cls-6" d="M132,68.11c-.21-.5-.4-1-.54-1.34-.41-1.13-1.81-1.41-3.66-1.44-3.61-.07-15.43,0-19,0s-5,2.17-4.92,2.83Z"/><ellipse class="cls-17" cx="223.19" cy="112.35" rx="7.28" ry="7.22"/><path class="cls-8" d="M199.8,101.21h0c-14.72.56-24.65-2-24.65-2s12.82,30.43,15.68,31.53c2.61,1,8.06,1.23,9,1.26h.07V101.21Z"/><path class="cls-6" d="M199.94,132c.91,0,6.35-.25,9-1.26,2.85-1.1,15.68-31.53,15.68-31.53s-9.93,2.61-24.65,2h-.07V132Z"/><path class="cls-4" d="M175.15,99.43s21.86-10.11,49.44,0C199.87,105.27,175.15,99.43,175.15,99.43Z"/><path class="cls-6" d="M199.41,97.21s-3.5-8.4,2.66-14.57a18.31,18.31,0,0,0,5.61-13.32s3.64,9.82-1.26,15S199.69,92.17,199.41,97.21Z"/><path class="cls-6" d="M195.58,90.2s-3.5-8.41,2.66-14.57a18.31,18.31,0,0,0,5.61-13.32s3.64,9.81-1.26,15S195.86,85.16,195.58,90.2Z"/><path class="cls-5" d="M226.83,63c-2,2.86-5.47,3.78-6,3.45s-.64-3.62,1.19-6.44,5.17-4.21,5.74-3.87S228.84,60.16,226.83,63Z"/><path class="cls-5" d="M216.79,35.84c-.75,2.73-3.41,4.45-3.95,4.35s-1.76-2.54-1.12-5.2,3.05-4.66,3.65-4.57S217.56,33.1,216.79,35.84Z"/><path class="cls-5" d="M226.83,48.2c-2.21,4.67-7.26,6.72-8.09,6.37s-1.9-5-.06-9.48,6.37-7.52,7.37-7.18S229.07,43.49,226.83,48.2Z"/><path class="cls-5" d="M213.41,63.44c2.53,1.28,6,.61,6.39,0s-.26-3.81-3-5-6.09,0-6.45.5S210.88,62.17,213.41,63.44Z"/><path class="cls-5" d="M205.12,39.76c2.61.24,5.33-1.3,5.49-1.86s-1.51-2.79-4.23-3-5.26,1.68-5.38,2.2S202.53,39.52,205.12,39.76Z"/><path class="cls-5" d="M207.51,53.34c4.13,1.12,9.17-.57,9.65-1.51s-1.42-5.42-5.88-6.38-9.17,1.79-9.55,2.62S203.4,52.24,207.51,53.34Z"/><path class="cls-5" d="M204.61,23c3.36,3.18,2.82,8.17,2,8.76s-5.62.16-8.56-2.61-3.43-7.37-2.8-8.16S201.26,19.8,204.61,23Z"/><path class="cls-5" d="M219.88,80.63a71,71,0,0,0-.15-16.75.38.38,0,0,1-.21,0,62.1,62.1,0,0,0-5.59-2.94.38.38,0,0,1-.13-.57.52.52,0,0,1,.63-.21c1.75.8,3.48,1.71,5.16,2.69a66.52,66.52,0,0,0-2.44-10.57.41.41,0,0,1-.22,0,67.6,67.6,0,0,0-9.22-2.71.36.36,0,0,1-.26-.51.56.56,0,0,1,.6-.33,67.38,67.38,0,0,1,8.76,2.54,62.47,62.47,0,0,0-6.11-12.93.36.36,0,0,1-.23,0c-1.92-.27-3.86-.47-5.79-.6a.36.36,0,0,1-.33-.46.55.55,0,0,1,.55-.4c1.74.11,3.49.3,5.22.54a60.37,60.37,0,0,0-10.18-12,.42.42,0,0,1,.05-.61.48.48,0,0,1,.64-.06,61.44,61.44,0,0,1,12,14.8c.55-1.72,1.06-3.47,1.49-5.23a.55.55,0,0,1,.55-.4.35.35,0,0,1,.34.45c-.48,2-1.05,4-1.69,5.88a.56.56,0,0,1-.16.24,63.87,63.87,0,0,1,5.52,13.39,84.31,84.31,0,0,0,4.48-9.22.56.56,0,0,1,.6-.32.36.36,0,0,1,.25.51,87.47,87.47,0,0,1-4.83,9.87.43.43,0,0,1-.14.16s-.05,0-.07,0a67.06,67.06,0,0,1,2,10.86c1.37-1.81,2.69-3.67,3.92-5.54a.52.52,0,0,1,.63-.22.37.37,0,0,1,.12.57c-1.35,2.07-2.81,4.13-4.34,6.12l-.1.1a.69.69,0,0,1-.13,0,72.49,72.49,0,0,1-.19,13.72.58.58,0,0,1-.51.46A.35.35,0,0,1,219.88,80.63Z"/></g></g></svg>