<svg xmlns="http://www.w3.org/2000/svg" viewBox="0 0 285.74 149.72"><defs><style>.cls-1{fill:#f9bb15;}.cls-2{fill:#ec6755;}.cls-3{fill:#002735;}.cls-4{fill:#4a82c3;}.cls-5{fill:#3a80c3;}.cls-10,.cls-16,.cls-6,.cls-9{fill:none;}.cls-6,.cls-9{stroke:#0a3656;}.cls-10,.cls-6,.cls-9{stroke-miterlimit:10;}.cls-6{stroke-width:0.85px;}.cls-7{fill:#0a3656;}.cls-8{fill:#ed705c;}.cls-9{stroke-width:0.46px;}.cls-10{stroke:#ec6755;stroke-linecap:round;stroke-width:7.24px;}.cls-11{fill:#059370;}.cls-12{fill:#1d180e;}.cls-13{fill:#cdcd2b;}.cls-14{fill:#f5f7d4;}.cls-15{fill:#231f20;}</style></defs><g id="Capa_2" data-name="Capa 2"><g id="Layer_1" data-name="Layer 1"><path class="cls-1" d="M235.4,47.9l0-.07,0,0v-.11l-.09.16c-1.44.72-14.36,7.28-19.25,14.49-5.18,7.63-1.86,20.27-1.86,20.27l19.89-32.61-18.76,33.2S228,80,232.12,71.76C236,64,235.47,49.53,235.4,47.9Z"/><path class="cls-1" d="M245.16,84.13l.07,0h0l.06-.09-.17.07c-1.58-.33-15.77-3.19-24.08-.58-8.8,2.77-14,14.74-14,14.74L242.79,85,207.48,99.39s11.94,5.31,20.31,1.41C235.67,97.13,244.21,85.45,245.16,84.13Z"/><path class="cls-1" d="M238,112.27H238l0,0,.09-.07-.18,0c-1.41-.78-14.16-7.66-22.86-7.58-9.23.08-17.73,10-17.73,10l38.13-2.21-38,3.47s9.88,8.56,19,7.27C225.09,122,236.66,113.26,238,112.27Z"/><rect class="cls-1" x="201" y="78.95" width="1.28" height="53.87" transform="translate(80.08 -86.71) rotate(30.04)"/><path class="cls-1" d="M199.33,57.63v-.08l0,0,0-.1,0,.18c1.07,1.2,10.64,12.08,12.51,20.58,2,9-5.77,19.51-5.77,19.51l-6.41-37.64L204.9,97.9S194.34,90.2,193.54,81C192.79,72.34,198.66,59.11,199.33,57.63Z"/><path class="cls-1" d="M178.53,77.91l0-.06,0,0,0-.11.08.17c1.37.83,13.69,8.45,18,16,4.53,8,.16,20.36.16,20.36l-17.1-34.15,15.93,34.64s-12.34-4.29-15.78-12.85C176.57,93.89,178.32,79.53,178.53,77.91Z"/><path class="cls-2" d="M121.74,18.68a28.54,28.54,0,0,0-7.1-7.28c1.91,11.23-3.47,14.53-7.19,16.69,1.15-5.69,7-14.68,4.85-18.44a13.57,13.57,0,0,0-6.66-3.79S108,18.77,99.79,21c2.36-3.67,5.85-15.18,3.19-16.37a28,28,0,0,0-5.46-1.74s4.21,13.09-3.1,12.39c2.37-5.12,1.8-9.2.39-13.18-2.72-.79-3.87-.79-7.6-.3,1.43,1.4,2,9.1,2,9.1s-3.38-8.56-3.59-9-7.45,1.34-7.45,1.34l41.06,53.27,4.89-3.72c-1.37.61-16.94-12.16-16.21-12.61,9.37,7.6,17.59,5.94,19.65-1,2.46-6.83,1-13-4.57-18.47-3.38,12-7.39,14.58-11.74,12.27A24.14,24.14,0,0,0,121.74,18.68ZM89.58,12.2a1.74,1.74,0,1,1,3.43.33,1.74,1.74,0,1,1-3.43-.33Zm13.19,16.57c-1.41-.59-1.9-2.65-1.08-4.6s2.62-3,4-2.44,1.9,2.65,1.08,4.59S104.19,29.36,102.77,28.77Z"/><path class="cls-2" d="M80.69,49.72a28.72,28.72,0,0,1-5.12-8.79c10.31,4.84,14.93.55,18-2.46-5.79-.42-16,2.84-19.06-.26a13.48,13.48,0,0,1-1.87-7.42s11.8,5.71,16.19-1.59c-4.17,1.29-16.19,1.59-16.63-1.3A27.67,27.67,0,0,1,72,22.18s11.49,7.55,12.77.32c-5.56.92-9.34-.72-12.8-3.15,0-2.83.27-3.94,1.74-7.4,1,1.75,8.25,4.31,8.25,4.31s-7.35-5.54-7.67-5.85,3.28-6.82,3.28-6.82l40.35,53.8L113,61.11c1-1.16-7.19-19.58-7.82-19,4.82,11.06,1,18.54-6.25,18.65-7.24.55-12.8-2.49-16.58-9.33,12.42-.07,16-3.23,15-8A24.13,24.13,0,0,1,80.69,49.72ZM83,17a1.85,1.85,0,0,0-2.22,1.36,2,2,0,0,0,3.84.68A1.85,1.85,0,0,0,83,17ZM95.48,34.14c-.19-1.52-2-2.54-4.14-2.27s-3.63,1.71-3.44,3.24,2,2.54,4.14,2.27S95.67,35.67,95.48,34.14Z"/><polygon class="cls-3" points="131.81 15.5 114.83 20.36 92.3 63.16 67.61 77.41 57.72 132.97 217.24 132.97 211.26 73.6 200.51 34.84 181.3 14.03 131.81 15.5"/><path class="cls-4" d="M102.23,132l77.15,1.51h0S189.64,60,171.09,14l-33.61,1.3c10.34,36.18,15.53,44-.9,116"/><path class="cls-1" d="M88.55,67.82s-2.32-12.4.56-14.94S98.8,47,98.8,47Z"/><path class="cls-5" d="M88.54,67.78s11.11-5.49,11.39-9.37S98.76,47,98.76,47Z"/><path class="cls-1" d="M86.41,69S77,60.47,73.31,61.54s-10.17,5-10.17,5Z"/><path class="cls-5" d="M86.38,69s-10.6,6.4-14.07,4.57-9.19-7.06-9.19-7.06Z"/><path class="cls-1" d="M88.56,67.81s13.23-7.24,15.83,8.3C99.6,81.4,95,78.48,94.7,77.88Z"/><path class="cls-1" d="M86.07,69.18s-13.23,7.24-1.3,17.67c7.07-1.2,7-6.59,6.67-7.18Z"/><line class="cls-6" x1="83.32" y1="62.55" x2="77" y2="58.86"/><line class="cls-6" x1="84.23" y1="62.04" x2="84.94" y2="54.68"/><path class="cls-7" d="M92.16,77.16h0a1.42,1.42,0,0,1-1.92-.54L82.76,63.24a1.38,1.38,0,0,1,.55-1.89h0a1.41,1.41,0,0,1,1.92.54l7.48,13.37A1.38,1.38,0,0,1,92.16,77.16Z"/><path class="cls-8" d="M58.24,48.09s2.31-6.42,4.35-6.82a31.82,31.82,0,0,1,6.13-.09Z"/><path class="cls-5" d="M58.24,48.07s6.69.48,7.89-1.26a33.53,33.53,0,0,0,2.58-5.67Z"/><path class="cls-8" d="M56.92,48.06S54.86,41.51,52.84,41a31.54,31.54,0,0,0-6.12-.44Z"/><path class="cls-5" d="M56.91,48s-6.7.09-7.82-1.72a34.19,34.19,0,0,1-2.36-5.81Z"/><path class="cls-1" d="M58.24,48.09s8.16.24,5.13,8.21c-3.69,1.16-5-1.46-5-1.83Z"/><path class="cls-1" d="M56.71,48.05s-8.16-.24-5.45,7.9c3.64,1.37,5.08-1.17,5.08-1.53Z"/><line class="cls-9" x1="57.24" y1="44.2" x2="55.3" y2="40.75"/><line class="cls-9" x1="57.8" y1="44.21" x2="60.15" y2="40.97"/><path class="cls-7" d="M57.37,53.45h0a.78.78,0,0,1-.75-.78l.17-8.3a.74.74,0,0,1,.77-.73h0a.76.76,0,0,1,.75.78l-.16,8.29A.76.76,0,0,1,57.37,53.45Z"/><rect class="cls-4" x="92.3" y="131.14" width="118.23" height="11.6" rx="5.8"/><rect class="cls-4" x="113.55" y="140.11" width="80.34" height="8.1" rx="4.05"/><path class="cls-1" d="M68,121.82a6.36,6.36,0,0,0-.29,1.45c0,.67.66.43.66.43a.7.7,0,0,0,.5.75c.6.26.85-.8,1.85-.82S72,121.5,72,121.5s.06.77,1.14.94,3.69-3.61,3.69-3.61l-13.57,2,2.84,1.25a1.58,1.58,0,0,0,1.92-.28"/><path class="cls-1" d="M68.1,115.12c-.54.49-.36.93-.36.93s-.7,0-.57.67a5.12,5.12,0,0,0,.5,1.29,1.55,1.55,0,0,0-1.9.49l-2.55,2.35,13.45-3.46s-3.12-2.63-4.14-2-1,1.36-1,1.36S71,114.79,70,115.17s-1.38-.54-1.92,0"/><polygon class="cls-1" points="76.98 118.54 76.89 117.63 90.09 114.75 90.17 115.66 76.98 118.54"/><path class="cls-1" d="M45.15,92.68a6.8,6.8,0,0,0-.37,1.45c-.07.66.63.46.63.46a.7.7,0,0,0,.45.78c.58.3.89-.75,1.88-.71s1.38-2.08,1.38-2.08,0,.78,1.07,1,3.87-3.43,3.87-3.43L40.49,91.44l2.74,1.42a1.56,1.56,0,0,0,1.92-.18"/><path class="cls-1" d="M45.68,86c-.57.46-.42.91-.42.91s-.7,0-.61.65a5.51,5.51,0,0,0,.43,1.32,1.55,1.55,0,0,0-1.92.39l-2.67,2.22L54,88.71s-2.94-2.82-4-2.27a1.63,1.63,0,0,0-1,1.32s-.47-2-1.45-1.65-1.33-.62-1.89-.16"/><path class="cls-1" d="M56.91,68.5a6.56,6.56,0,0,0-1.5.17.53.53,0,0,0-.41.77,1,1,0,0,0-.76.7c-.24.66.86.58.91,1.53s2.25.55,2.25.55a1.67,1.67,0,0,0-.93,1.39C56.33,74.69,60.34,76,60.34,76l-2.62-12.4-1.18,3.11a1.25,1.25,0,0,0,.37,1.76"/><path class="cls-1" d="M63.81,66.56a.84.84,0,0,0-1-.06.45.45,0,0,0-.72-.35,7.38,7.38,0,0,0-1.31.89,1.26,1.26,0,0,0-.58-1.68l-2.52-1.73,4.1,11.85s2.58-3.81,1.92-4.6a1.35,1.35,0,0,0-1.45-.49s2-1.16,1.55-2,.5-1.49,0-1.86"/><path class="cls-1" d="M61.73,76c8.89,19,20.75,33.91,35.41,44.45,1.63,1.17,3.31,2.28,5,3.35-.11.33-.22.66-.3,1-1.82-1.13-3.6-2.31-5.34-3.56-14.79-10.62-26.75-25.67-35.7-44.81C61.12,76.26,61.43,76.12,61.73,76Z"/><line class="cls-1" x1="67.61" y1="87.85" x2="54.36" y2="89.53"/><polygon class="cls-1" points="54.36 89.99 54.36 89.06 67.61 87.38 67.61 88.31 54.36 89.99"/><path class="cls-1" d="M50.67,101.61s10.08-1.55,10-10.6c-9.47.91-10,10.6-10,10.6"/><path class="cls-1" d="M48.61,76s2.48,9,11.69,5.73C58.54,73.09,48.61,76,48.61,76"/><path class="cls-1" d="M74.58,133s9.15-5.22,5.33-13c-8.83,4.43-5.33,13-5.33,13"/><path class="cls-1" d="M158.77,124.7a6.36,6.36,0,0,1,.29,1.45c0,.66-.66.42-.66.42a.7.7,0,0,1-.5.75c-.6.26-.85-.79-1.85-.81s-1.26-2.13-1.26-2.13-.06.76-1.14.94-3.68-3.61-3.68-3.61l13.57,2L160.69,125a1.58,1.58,0,0,1-1.92-.28"/><path class="cls-1" d="M158.65,118c.54.49.36.92.36.92s.71,0,.57.68a5.31,5.31,0,0,1-.5,1.29,1.55,1.55,0,0,1,1.9.49l2.56,2.35-13.46-3.46s3.13-2.63,4.14-2a1.6,1.6,0,0,1,.95,1.37s.59-1.94,1.56-1.56,1.38-.54,1.92,0"/><polygon class="cls-1" points="149.77 121.42 149.86 120.51 136.67 117.63 136.58 118.54 149.77 121.42"/><path class="cls-1" d="M181.6,95.56A6.63,6.63,0,0,1,182,97c.07.67-.63.47-.63.47a.7.7,0,0,1-.45.78c-.57.3-.89-.75-1.88-.72s-1.37-2.07-1.37-2.07,0,.77-1.08,1S172.7,93,172.7,93l13.56,1.28-2.74,1.42a1.56,1.56,0,0,1-1.92-.18"/><path class="cls-1" d="M181.08,88.83c.56.46.41.91.41.91s.7,0,.61.65a5.06,5.06,0,0,1-.43,1.32,1.55,1.55,0,0,1,1.92.39l2.67,2.22-13.54-2.73s2.94-2.82,4-2.27a1.63,1.63,0,0,1,1,1.32s.47-2,1.45-1.65,1.33-.63,1.9-.16"/><path class="cls-1" d="M169.84,71.38a6.68,6.68,0,0,1,1.51.17.54.54,0,0,1,.41.77,1,1,0,0,1,.75.7c.24.66-.85.58-.91,1.53s-2.25.55-2.25.55a1.66,1.66,0,0,1,.93,1.38c.14,1.09-3.87,2.43-3.87,2.43L169,66.51l1.18,3.11a1.26,1.26,0,0,1-.37,1.76"/><path class="cls-1" d="M162.94,69.44a.87.87,0,0,1,1-.07.44.44,0,0,1,.71-.34,7.6,7.6,0,0,1,1.31.88,1.25,1.25,0,0,1,.58-1.67L169,66.51l-4.09,11.84s-2.59-3.8-1.93-4.59a1.33,1.33,0,0,1,1.45-.49s-2-1.16-1.54-2-.51-1.49,0-1.85"/><path class="cls-1" d="M165,78.85c-8.89,19-20.74,33.91-35.4,44.44-1.64,1.18-3.32,2.29-5,3.36.11.32.22.65.31,1,1.81-1.13,3.59-2.31,5.33-3.56C145,113.45,157,98.41,166,79.26,165.63,79.13,165.32,79,165,78.85Z"/><line class="cls-1" x1="159.14" y1="90.72" x2="172.39" y2="92.4"/><polygon class="cls-1" points="172.39 92.86 172.39 91.94 159.14 90.26 159.15 91.19 172.39 92.86"/><path class="cls-1" d="M176.08,104.49s-10.08-1.56-10-10.61c9.47.91,10,10.61,10,10.61"/><path class="cls-1" d="M178.14,78.91s-2.47,9-11.69,5.73c1.76-8.67,11.69-5.73,11.69-5.73"/><path class="cls-1" d="M152.18,135.85s-9.16-5.22-5.34-13c8.84,4.43,5.34,13,5.34,13"/><path class="cls-2" d="M128.56,133.26S126.73,120,136.88,111s-8-14.46-8-14.46-10,20.86-2.38,36.7Z"/><path class="cls-2" d="M93.91,134.54c.46-2.51,6.15-12.88,6.15-12.88l-5.47-13.33,8.67-4.22s3.53,15.16,3.41,17.32S103,132.15,95.51,135.68Z"/><path class="cls-2" d="M104.53,134c.46-2.51,6.16-12.88,6.16-12.88l-5.47-13.33,8.66-4.22s3.53,15.16,3.42,17.32-3.65,10.72-11.17,14.25Z"/><path class="cls-2" d="M143.6,92.71c-.49-.27-15.47-9.37-49,15.62,8.32,25.41,36.48-3.42,36.48-3.42Z"/><path class="cls-2" d="M97.09,92.79c2.39,0,4,4.28,4,4.28s1.58-4.28,4-4.28,9.48,8.56,9.48,8.56a13.46,13.46,0,0,1-26.91,0S94.7,92.79,97.09,92.79Z"/><path class="cls-1" d="M101.06,87.89a13.45,13.45,0,0,1,13.45,13.46s-7.09-8.56-9.48-8.56-4,4.28-4,4.28-1.58-4.28-4-4.28-9.49,8.56-9.49,8.56A13.46,13.46,0,0,1,101.06,87.89Z"/><path class="cls-2" d="M142.92,132.72l-10.83-15.89s-6.15-26.72,3.19-27.31c8.32.83,8.32,6.6,8.32,6.6.23,5.11-.9,12.33-3.76,22.23l6.61,14.37Z"/><path class="cls-10" d="M136.89,96.56s12.19-6,12.19-13.9-28.5-2.85-28.5-10.83S135.2,60,135.2,60"/><path class="cls-2" d="M148.27,136.13s.46-4-3.3-4-7.75,1.71-7.75,4Z"/><path class="cls-2" d="M131.79,136.13s.46-4-3.3-4-7.75,1.71-7.75,4Z"/><path class="cls-2" d="M107.4,136.13s.46-4-3.3-4-7.75,1.71-7.75,4Z"/><path class="cls-2" d="M98.66,136.13s.45-4-3.31-4-7.75,1.71-7.75,4Z"/><path class="cls-2" d="M110.67,99.05s3.12-7.09,6-3.93c5.22,5.75-3,16.08-6,12.55Z"/><path class="cls-2" d="M91.45,99.05s-3.12-7.09-6-3.93c-5.22,5.75,2.94,16.08,6,12.55Z"/><path class="cls-1" d="M95,109.14a4.78,4.78,0,0,1,4.24-5s0,1.88.87,1.88,1-.33,1-.33.13.33,1,.33.86-1.88.86-1.88a4.78,4.78,0,0,1,4.24,5,4.26,4.26,0,0,1-.15,1.11H95.1A4.26,4.26,0,0,1,95,109.14Z"/><path class="cls-11" d="M101.06,113.78s-5.06,0-6-3.53H107C106.11,113.77,101.06,113.78,101.06,113.78Z"/><circle class="cls-12" cx="105.03" cy="99.44" r="2.39"/><circle class="cls-12" cx="97.04" cy="99.44" r="2.39"/><polygon class="cls-3" points="124.6 17.56 136.03 10.51 146.45 14.03 141.07 27.7 124.6 17.56"/><polygon class="cls-3" points="173.8 21.56 167.72 12.37 174.66 8.79 184.1 10.51 186.26 19.4 173.8 21.56"/><polygon points="204.51 50.03 207.15 102.54 210.23 50.03 204.51 50.03"/><polygon class="cls-13" points="200.28 46.91 214.3 59.18 211.45 46.03 200.28 46.91"/><path class="cls-2" d="M176,4.31C168.43,2.56,161.82,9,161.82,9l7.08,14.69s-2.29,9.42,1.65,16.65,42.51,8,42.51,8S183.51,6.07,176,4.31Z"/><polygon class="cls-14" points="174.66 8.82 165.23 8.33 167.99 14.68 174.66 8.82"/><path class="cls-15" d="M140.27,15.78a44.71,44.71,0,0,1,26.8-9c6.49,4.66,0,11.22,0,11.22Z"/><path class="cls-13" d="M184.19,11.1S177.66,27,186.56,35.3s26.5,13,26.5,13S203.24,23.37,184.19,11.1Z"/><circle cx="173.97" cy="9.92" r="1.59"/><rect class="cls-16" width="285.74" height="149.72"/></g></g></svg>