<svg xmlns="http://www.w3.org/2000/svg" viewBox="0 0 290.52 152.22"><defs><style>.cls-1{fill:#059370;}.cls-2{fill:#ed705c;}.cls-3{fill:#3a80c3;}.cls-4,.cls-5{fill:#0a3656;}.cls-4{stroke:#0b9370;}.cls-4,.cls-8{stroke-miterlimit:10;}.cls-6{fill:#f5f7d4;}.cls-7,.cls-8{fill:#04223e;}.cls-8{stroke:#f5f6d5;}.cls-9{fill:#ec6755;}.cls-10{fill:#002735;}.cls-11,.cls-13{fill:none;}.cls-11{stroke:#002735;stroke-linecap:round;stroke-linejoin:round;stroke-width:1.24px;}.cls-12{fill:#f9bb15;}</style></defs><g id="Capa_2" data-name="Capa 2"><g id="Layer_1" data-name="Layer 1"><polygon class="cls-1" points="174.74 30.93 173.44 30.93 172.13 30.93 169.81 97.51 173.44 97.51 177.06 97.51 174.74 30.93"/><path class="cls-1" d="M189.74,32.16c-6.26-4.16-13.72-3.94-16.69.47l22.72,15.09C198.69,43.27,196,36.31,189.74,32.16Z"/><path class="cls-1" d="M188.33,24.36c-7.43-1.09-14.09,2.28-14.89,7.54l27,4C201.17,30.61,195.77,25.46,188.33,24.36Z"/><path class="cls-1" d="M182.13,17.93c-7,2.84-11,9.14-9,14.07L198.4,21.69C196.36,16.77,189.09,15.09,182.13,17.93Z"/><path class="cls-1" d="M156.87,32.23c6.26-4.16,13.72-3.94,16.68.48L150.83,47.79C147.91,43.35,150.6,36.39,156.87,32.23Z"/><path class="cls-1" d="M158.27,24.44c7.43-1.1,14.09,2.28,14.9,7.54l-27,4C145.43,30.68,150.84,25.53,158.27,24.44Z"/><path class="cls-1" d="M164.47,18c7,2.85,11,9.14,9,14.08L148.2,21.76C150.24,16.85,157.51,15.16,164.47,18Z"/><path class="cls-2" d="M121.51,25.87s-2.72-14.55.66-17.54,11.37-6.89,11.37-6.89Z"/><path class="cls-3" d="M121.5,25.83s13-6.45,13.37-11-1.38-13.44-1.38-13.44Z"/><path class="cls-2" d="M119,27.26s-11-10-15.37-8.76-11.94,5.88-11.94,5.88Z"/><path class="cls-3" d="M119,27.23s-12.44,7.51-16.52,5.36S91.65,24.3,91.65,24.3Z"/><path class="cls-1" d="M121.52,25.87s15.53-8.51,18.59,9.74c-5.63,6.21-11,2.78-11.38,2.08Z"/><path class="cls-1" d="M118.6,27.47s-15.53,8.5-1.53,20.75c8.3-1.41,8.22-7.73,7.83-8.43Z"/><line class="cls-4" x1="115.36" y1="19.68" x2="107.95" y2="15.36"/><line class="cls-4" x1="116.44" y1="19.09" x2="117.27" y2="10.44"/><path class="cls-5" d="M125.75,36.85h0a1.67,1.67,0,0,1-2.25-.64L114.71,20.5a1.64,1.64,0,0,1,.65-2.23h0a1.66,1.66,0,0,1,2.25.64l8.79,15.71A1.64,1.64,0,0,1,125.75,36.85Z"/><rect class="cls-3" x="104.25" y="48.5" width="25.23" height="43.4"/><polygon class="cls-6" points="116.87 36.54 104.25 48.5 129.49 48.5 116.87 36.54"/><rect class="cls-7" x="104.25" y="48.5" width="25.42" height="0.8"/><rect class="cls-8" x="108.93" y="51.95" width="5.93" height="11.78"/><rect class="cls-8" x="119.19" y="51.95" width="5.93" height="11.78"/><rect class="cls-8" x="109.02" y="67.18" width="5.93" height="11.78"/><rect class="cls-8" x="119.28" y="67.18" width="5.93" height="11.78"/><line class="cls-8" x1="108.93" y1="59.92" x2="114.43" y2="59.92"/><line class="cls-8" x1="119.49" y1="59.92" x2="124.99" y2="59.92"/><line class="cls-8" x1="109.37" y1="75.16" x2="114.87" y2="75.16"/><line class="cls-8" x1="119.49" y1="75.16" x2="124.99" y2="75.16"/><rect class="cls-9" x="77.33" y="48.5" width="25.23" height="43.4"/><polygon class="cls-6" points="89.95 36.54 77.33 48.5 102.56 48.5 89.95 36.54"/><rect class="cls-7" x="77.33" y="48.5" width="25.42" height="0.8"/><rect class="cls-8" x="82" y="51.95" width="5.93" height="11.78"/><rect class="cls-8" x="92.26" y="51.95" width="5.93" height="11.78"/><rect class="cls-8" x="82.09" y="67.18" width="5.93" height="11.78"/><rect class="cls-8" x="92.35" y="67.18" width="5.93" height="11.78"/><line class="cls-8" x1="82" y1="59.92" x2="87.5" y2="59.92"/><line class="cls-8" x1="92.57" y1="59.92" x2="98.06" y2="59.92"/><line class="cls-8" x1="82.44" y1="75.16" x2="87.94" y2="75.16"/><line class="cls-8" x1="92.57" y1="75.16" x2="98.06" y2="75.16"/><polygon class="cls-3" points="122.38 78.94 104.43 72.7 86.48 78.94 122.38 78.94"/><polyline class="cls-3" points="88.7 94.18 88.7 88.07 57.25 88.07 50.07 94.18 88.7 94.18 88.7 88.07 88.7 94.18"/><rect class="cls-3" x="113.26" y="82.56" width="3.85" height="10.28" transform="translate(230.37 175.4) rotate(180)"/><rect class="cls-5" x="88.7" y="78.94" width="31.45" height="56.45" transform="translate(208.86 214.33) rotate(180)"/><rect class="cls-9" x="57.25" y="94.18" width="31.45" height="41.21" transform="translate(145.96 229.56) rotate(180)"/><rect class="cls-6" x="112.41" y="81.28" width="3.89" height="13.59" transform="translate(228.71 176.15) rotate(180)"/><rect class="cls-6" x="106.01" y="81.28" width="3.89" height="13.59" transform="translate(215.91 176.15) rotate(180)"/><rect class="cls-6" x="99.62" y="81.28" width="3.89" height="13.59" transform="translate(203.12 176.15) rotate(180)"/><rect class="cls-6" x="93.1" y="81.28" width="3.89" height="13.59" transform="translate(190.09 176.15) rotate(180)"/><path class="cls-5" d="M58.87,135.39H76.33V119.78c0-3.91-3.91-7.07-8.73-7.07h0c-4.82,0-8.73,3.16-8.73,7.07Z"/><circle class="cls-6" cx="104.82" cy="107.24" r="7.43"/><rect class="cls-3" x="55.44" y="101.48" width="33.26" height="0.57" transform="translate(144.14 203.54) rotate(180)"/><rect class="cls-3" x="55.44" y="104.45" width="33.26" height="1.14" transform="translate(144.14 210.05) rotate(180)"/><rect class="cls-3" x="83.89" y="101.48" width="0.91" height="2.97" transform="translate(168.7 205.94) rotate(180)"/><rect class="cls-3" x="80.77" y="101.48" width="0.91" height="2.97" transform="translate(162.45 205.94) rotate(180)"/><rect class="cls-3" x="77.72" y="101.48" width="0.91" height="2.97" transform="translate(156.36 205.94) rotate(180)"/><rect class="cls-3" x="74.67" y="101.48" width="0.91" height="2.97" transform="translate(150.26 205.94) rotate(180)"/><rect class="cls-3" x="71.44" y="101.48" width="0.91" height="2.97" transform="translate(143.79 205.94) rotate(180)"/><rect class="cls-3" x="68.2" y="101.48" width="0.91" height="2.97" transform="translate(137.31 205.94) rotate(180)"/><rect class="cls-3" x="64.96" y="101.48" width="0.91" height="2.97" transform="translate(130.84 205.94) rotate(180)"/><rect class="cls-3" x="61.91" y="101.48" width="0.91" height="2.97" transform="translate(124.74 205.94) rotate(180)"/><rect class="cls-3" x="58.68" y="101.48" width="0.91" height="2.97" transform="translate(118.27 205.94) rotate(180)"/><rect class="cls-3" x="55.44" y="101.48" width="0.91" height="2.97" transform="translate(111.79 205.94) rotate(180)"/><rect class="cls-3" x="178.55" y="72.38" width="23.68" height="41.09"/><rect class="cls-3" x="201.81" y="56.08" width="34.79" height="57.31"/><path class="cls-9" d="M239.27,60.19H199.89a1.45,1.45,0,0,1-1.09-2l3-8.73a1.21,1.21,0,0,1,1.09-.88h34.31a1.25,1.25,0,0,1,1.14,1.06l2,8.73A1.41,1.41,0,0,1,239.27,60.19Z"/><path class="cls-5" d="M205.6,101.72h-6.74V94.28a3.37,3.37,0,0,1,3.37-3.38h0a3.37,3.37,0,0,1,3.37,3.38Z"/><path class="cls-5" d="M192.47,101.72h-6.74V94.28a3.37,3.37,0,0,1,3.37-3.38h0a3.37,3.37,0,0,1,3.37,3.38Z"/><path class="cls-5" d="M211.67,79.14h-4V72.78c0-1.59.9-2.88,2-2.88h0c1.11,0,2,1.29,2,2.88Z"/><path class="cls-5" d="M218.16,79.14h-4V72.78c0-1.59.91-2.88,2-2.88h0c1.12,0,2,1.29,2,2.88Z"/><path class="cls-5" d="M224.66,79.14h-4V72.78c0-1.59.9-2.88,2-2.88h0c1.11,0,2,1.29,2,2.88Z"/><path class="cls-5" d="M231.15,79.14h-4V72.78c0-1.59.91-2.88,2-2.88h0c1.12,0,2,1.29,2,2.88Z"/><rect class="cls-5" x="200.18" y="81.1" width="38.79" height="1.87"/><polygon class="cls-5" points="226.5 113.39 211.92 113.38 213.63 90.9 224.8 90.91 226.5 113.39"/><path class="cls-9" d="M204,82.34H174.25c-.64,0-1.08-1.07-.82-2l2.29-8.73c.14-.54.47-.88.82-.88h25.89c.4,0,.75.43.86,1l1.53,8.73C205,81.41,204.55,82.34,204,82.34Z"/><path class="cls-2" d="M145.18,62a19.9,19.9,0,0,0-3,.23c-2,10.22-3.26,24.41,3,31.49,6.92,7.83,2.6,25.69-1.08,36.81q.54,0,1.08,0c14.33,0,25.94-15.34,25.94-34.28S159.51,62,145.18,62Z"/><path class="cls-2" d="M140.58,93.65c-6.26-7.08-5-21.27-3-31.49-12.92,2-23,16.46-23,34.05,0,18.46,11.05,33.5,24.88,34.25C143.19,119.34,147.5,101.48,140.58,93.65Z"/><rect class="cls-10" x="115.88" y="106.56" width="32.27" height="2.7"/><path class="cls-1" d="M124.37,134c0,1.38,0,2.49-1.67,2.49h-5.31c-1.67,0-1.67-1.11-1.67-2.49h0c0-1.37,0-2.48,1.67-2.48h5.31c1.66,0,1.67,1.11,1.67,2.48Z"/><path class="cls-1" d="M154.83,118.83a1.59,1.59,0,0,1-1.11,1.9l-1.91.22c-.72.08-1.4-.64-1.51-1.6l-2.14-18.87a1.59,1.59,0,0,1,1.11-1.9l1.9-.22c.73-.08,1.41.64,1.52,1.61Z"/><path class="cls-10" d="M152.84,119a1.59,1.59,0,0,1-1.11,1.9l-1.9.22c-.73.08-1.4-.64-1.51-1.61l-2.15-18.86a1.59,1.59,0,0,1,1.12-1.9l1.9-.22c.72-.08,1.4.64,1.51,1.6Z"/><path class="cls-10" d="M116.7,87.34c-.41.13-2.28,1.45-2.31,2.58-.06,2.23,0,16.74,0,19.94s2.35,3.73,2.35,3.73Z"/><path class="cls-10" d="M162.43,88.06a9.51,9.51,0,0,1-4.9,1.74c-4.22,0-40.83,0-40.83,0l-.8-1.77Z"/><line class="cls-11" x1="145.74" y1="113.48" x2="145.74" y2="87.55"/><line class="cls-11" x1="116.7" y1="113.48" x2="116.7" y2="87.55"/><path class="cls-9" d="M212.93,124.68l.11-13.94c-1.07-1.34-2.5-1.87-5-1.87-1.62,0-1,15.81-1,15.81Z"/><path class="cls-10" d="M198.44,127.82l-77.84,1.84a2.94,2.94,0,0,0-2.95,2.09v4.72s0,1.6,1.47,1.6h74.82Z"/><path class="cls-1" d="M206.11,134.61H121.57l-2.58-4.8c-1.49,0-2.29-.46-2.29-2.83V113.07h38.2l-.21-25.73h24.22l4.44,19.45,25.43,2.08s1.95,1.28,2,2v7.38S207.11,134.61,206.11,134.61Z"/><path class="cls-6" d="M179.28,108c.14,1.46.06,17,.06,17s-12.92.12-16.84-.75c-3.09-.68-2.92-6.18-5.24-8.2-1.76-1.52-4.94-2.24-4.94-3.06,0-1.91-.41-22.3-.41-22.3a2.61,2.61,0,0,1,2.61-2.68h21.69Z"/><path class="cls-10" d="M218.65,132.25a1.34,1.34,0,1,1-1.34-1.33A1.34,1.34,0,0,1,218.65,132.25Z"/><path class="cls-10" d="M217.62,131.73a3.09,3.09,0,0,1-3.09-3.09c0-.44-.67.1-.67,1A3.09,3.09,0,0,0,217,132.7C218.21,132.7,218.46,131.73,217.62,131.73Z"/><rect class="cls-10" x="213.6" y="125.05" width="3.43" height="4.93"/><rect class="cls-10" x="208.14" y="124.75" width="4.22" height="6.14"/><path class="cls-10" d="M214.43,126h-6.29v2.85h6.29C216.35,128.87,216.13,126,214.43,126Z"/><path class="cls-6" d="M179.34,87.34c-.2-.47-.38-.91-.52-1.28-.39-1.08-1.73-1.35-3.48-1.38-3.46-.06-14.74,0-18.16,0s-4.76,2.07-4.69,2.7Z"/><polygon class="cls-10" points="190.14 119.36 210.89 120.23 210.66 134.58 180.14 134.61 185.41 121.81 190.14 119.36"/><path class="cls-10" d="M210.05,118.22H190.79c-2.93,0-4.77.85-5.72,2.33-1.67,2.61-6.73,14.46-6.73,14.46h2c1.62-3.6,4.59-10.1,5.57-11.77a6.32,6.32,0,0,1,5.2-3.1h19.06C212.79,120.14,213.12,118.22,210.05,118.22Z"/><polygon class="cls-10" points="147.59 119.36 125.1 119.36 121.57 122.76 121.57 131.98 124.05 134.61 155.2 134.61 147.59 119.36"/><path class="cls-10" d="M123.86,123.31c-.63,1.22-2.39,8.67-2.39,8.67s-4.1-.38-3-3.48c.75-2.12,2.14-6.94,3.27-8.94s2.81-2.73,5.87-2.73h16.45c2.92,0,4.68,1.18,5.62,2.66,1.67,2.61,7.76,15.12,7.76,15.12h-4.24c-1.62-3.6-4.59-9.7-5.57-11.37a5.16,5.16,0,0,0-4.78-2.48h-14C126.24,120.76,124.79,121.49,123.86,123.31Z"/><path class="cls-1" d="M212.92,123.1h-2.09v1.65h2.09C213.62,124.75,213.58,123.1,212.92,123.1Z"/><path class="cls-9" d="M186.76,114.13a.61.61,0,0,1,.67-.51h20.91a.61.61,0,0,1,.67.51h0a.61.61,0,0,1-.67.51H187.43a.61.61,0,0,1-.67-.51Z"/><path class="cls-9" d="M174.92,107a2,2,0,0,1-2,2.25H156.52a2.33,2.33,0,0,1-2.31-2.26l-.35-14.88a2.2,2.2,0,0,1,2.21-2.26h15a2.54,2.54,0,0,1,2.47,2.25Z"/><polygon class="cls-9" points="183.87 106.83 179.6 108.03 176.21 87.55 179.3 87.55 183.87 106.83"/><path class="cls-11" d="M184.26,112.53s-1.43-.1-2.4-.1-2.33-1.23-2.58-2.82-3.07-22.06-3.07-22.06"/><line class="cls-11" x1="179.28" y1="108.03" x2="183.87" y2="106.83"/><line class="cls-11" x1="176.21" y1="87.55" x2="179.3" y2="87.55"/><line class="cls-11" x1="176.21" y1="87.55" x2="115.88" y2="87.55"/><circle class="cls-6" cx="197.59" cy="136.22" r="14.38"/><circle class="cls-12" cx="197.59" cy="136.22" r="10.91"/><circle class="cls-10" cx="197.59" cy="136.22" r="4.47"/><circle class="cls-6" cx="197.59" cy="135.99" r="1.9"/><rect class="cls-10" x="119.48" y="129.98" width="8.7" height="7.12"/><circle class="cls-6" cx="136.21" cy="136.47" r="14.38"/><circle class="cls-12" cx="136.21" cy="136.47" r="10.91"/><circle class="cls-10" cx="136.21" cy="136.47" r="4.47"/><circle class="cls-6" cx="136.21" cy="136.24" r="1.9"/><rect class="cls-13" width="290.52" height="152.22"/></g></g></svg>