<svg xmlns="http://www.w3.org/2000/svg" viewBox="0 0 295.77 154.97"><defs><style>.cls-1{fill:none;}.cls-2{fill:#fce89a;}.cls-3{fill:#605c91;}.cls-4{fill:#3a80c3;}.cls-5{fill:#f9bb15;}.cls-6{fill:#ec6755;}.cls-7{fill:#059370;}.cls-8{fill:#4a82c3;}.cls-9{fill:#002735;}.cls-10{fill:#ed705c;}</style></defs><g id="Capa_2" data-name="Capa 2"><g id="Layer_1" data-name="Layer 1"><rect class="cls-1" width="295.77" height="154.97"/><polygon class="cls-2" points="168.13 13.63 89.76 129.81 246.5 129.81 168.13 13.63"/><path class="cls-3" d="M168.13,13.63s15.57,41.85,2.81,54.61C152.15,87,135.34,72,129.5,94.63S99.1,116,99.1,116Z"/><path class="cls-4" d="M242.28,129.25l4.7.27H65.91v5.26a7,7,0,0,0,7.22,6.8H90.94a5.28,5.28,0,0,1,5.43,5.12h0A5.43,5.43,0,0,0,102,152h82.5c5.95,0,10.78-4.54,10.78-10.15v-1.2h40.15c6.18,0,11.27-4.58,11.56-10.4l0-.69"/><path class="cls-5" d="M220.54,123.37a9.55,9.55,0,0,1,.59,4.29,3.21,3.21,0,0,1-1,2,3.31,3.31,0,0,1-2.24.67,11.24,11.24,0,0,1-4.27-1.2,43.2,43.2,0,0,1-3.79-2.09l-7.32-4.48c-.6-.37-1.22-.73-1.84-1.07a7.84,7.84,0,0,0-1.89-.79c-.33,0-.51,0-.57.28a2.88,2.88,0,0,0,.07,1c.15.69.36,1.38.57,2.06a15.76,15.76,0,0,1-.83-2,3.1,3.1,0,0,1-.18-1.12.73.73,0,0,1,.35-.6,1.12,1.12,0,0,1,.65-.12,7.84,7.84,0,0,1,2.11.72c.66.3,1.31.63,1.94,1,2.55,1.35,5,2.83,7.45,4.29,1.23.75,2.43,1.48,3.69,2.1a11.81,11.81,0,0,0,3.89,1.29,2.74,2.74,0,0,0,1.82-.4,2.7,2.7,0,0,0,1-1.65A10.06,10.06,0,0,0,220.54,123.37Z"/><path class="cls-6" d="M87.3,114.69S90,96.3,120.8,89c0,0,20.73-6,25.69-9.84s50.09-5.5,66.41,23.3V106s9.18,13.58,9.55,20.92h-2.57s-4-12.3-11.38-17.25c0,0-7.89-5.23-9-7.66,0,0-5.5.87-7,2.71,0,0,2.92,8.73.25,14.4s-3.71,8.29-8.6,8-3.22-5.8-1.36-6.52c0,0-.18,3.08.45,3.26,0,0,0-2.72,1.23-3.08,0,0-.23,3.17.86,2.76s3.66-7.79-1.59-11.37l-3.58,6.93-1.13,7.38s3.67,1.23,4.08,4.12h-7.52l-2-2.53-.09-6.43s-4-9.61-3.05-14l-7.17,3.75s-3.05,6.85-7.75,9.77v3.56h3.49v2.85h-7.84v-6.06l5.88-11.28-.54-9.59-1.7.47.28,10.94-6,9.93.27,5.27s7-.2,7,3h-7l-5-1.42s-1.57-15.33.05-20.89c0,0-1.92-5.15-1.32-8.48l-1.71.1-.2,3.64,1.91,6s-.1,4.74-1.91,6.36l-.5-1.37-2.12,4.46-.4-1.16-1.17.78-.55-1.1s-3.15.87-3.38,3.93c0,0-1.1-1.18-2,.71l-.39-2.65a7.08,7.08,0,0,0-2.36,4.93s-1.33-2.44-1.65-.86c0,0-2.12-1.73-2.43.31,0,0-1.73-1.65-2.44.16,0,0-2.28-.87-2.91,1.33,0,0-.86-1.57-1.1-.63,0,0-1.33-3-2-.78,0,0-4-2.52-4.79-.08,0,0-2.12-1.49-3.62,1.73,0,0-.31-3-1.41-2s-2.67,2.36-2.67,2.36l1.18-3.3-2.21.94-.23-1.25-1.73,2.35.24-4.08-2.91,2.51-1.18-3.67L95,120.66,93.41,118l-1,1-1-3.39-.86,1.26-.63-1.65-1.81,1.1Z"/><path class="cls-4" d="M204.14,103.15s-5.09-4.71-1.53-5.86,3.77.61,3.77.61Z"/><path class="cls-4" d="M210.07,98.29,207.93,96c.29-.29,2.62-1.94,2.62-1.94"/><circle class="cls-4" cx="207.93" cy="104.39" r="0.83"/><polygon class="cls-7" points="107.88 29.16 106.11 29.16 103.21 129.25 107.75 129.25 112.3 129.25 107.88 29.16"/><path class="cls-7" d="M114.89,31.65c-2.78-1.85-6.1-1.76-7.42.21l10.1,6.71C118.87,36.59,117.67,33.49,114.89,31.65Z"/><path class="cls-7" d="M114.27,28.18c-3.31-.49-6.27,1-6.63,3.35l12,1.77C120,31,117.57,28.67,114.27,28.18Z"/><path class="cls-7" d="M111.51,25.32c-3.1,1.26-4.88,4.06-4,6.26L118.74,27C117.84,24.81,114.6,24.06,111.51,25.32Z"/><path class="cls-7" d="M100.27,31.68c2.79-1.85,6.1-1.75,7.42.21L97.59,38.6C96.29,36.62,97.49,33.53,100.27,31.68Z"/><path class="cls-7" d="M100.9,28.21c3.3-.48,6.26,1,6.62,3.36l-12,1.76C95.19,31,97.59,28.7,100.9,28.21Z"/><path class="cls-7" d="M103.65,25.35c3.1,1.27,4.88,4.07,4,6.26L96.42,27C97.33,24.84,100.56,24.09,103.65,25.35Z"/><polygon class="cls-7" points="126.14 16.01 124.38 16.01 121.47 116.1 126.02 116.1 130.56 116.1 126.14 16.01"/><path class="cls-7" d="M133.16,18.5c-2.79-1.85-6.11-1.75-7.43.21l10.11,6.71C137.14,23.44,135.94,20.35,133.16,18.5Z"/><path class="cls-7" d="M132.53,15c-3.31-.48-6.27,1-6.62,3.36l12,1.76C138.24,17.81,135.84,15.52,132.53,15Z"/><path class="cls-7" d="M129.77,12.17c-3.09,1.27-4.88,4.07-4,6.26L137,13.84C136.1,11.66,132.87,10.91,129.77,12.17Z"/><path class="cls-7" d="M118.54,18.53c2.78-1.85,6.1-1.75,7.42.21l-10.11,6.71C114.55,23.47,115.75,20.38,118.54,18.53Z"/><path class="cls-7" d="M119.16,15.07c3.31-.49,6.27,1,6.63,3.35l-12,1.77C113.45,17.84,115.86,15.55,119.16,15.07Z"/><path class="cls-7" d="M121.92,12.21c3.09,1.26,4.88,4.06,4,6.25l-11.22-4.58C115.59,11.69,118.83,10.94,121.92,12.21Z"/><polygon class="cls-7" points="144.65 29.16 142.89 29.16 139.98 129.25 144.53 129.25 149.07 129.25 144.65 29.16"/><path class="cls-7" d="M151.66,31.65c-2.78-1.85-6.1-1.76-7.42.21l10.11,6.71C155.65,36.59,154.45,33.49,151.66,31.65Z"/><path class="cls-7" d="M151,28.18c-3.31-.49-6.27,1-6.63,3.35l12,1.77C156.75,31,154.34,28.67,151,28.18Z"/><path class="cls-7" d="M148.28,25.32c-3.09,1.26-4.88,4.06-4,6.26L155.51,27C154.61,24.81,151.37,24.06,148.28,25.32Z"/><path class="cls-7" d="M137.05,31.68c2.78-1.85,6.1-1.75,7.42.21L134.36,38.6C133.06,36.62,134.26,33.53,137.05,31.68Z"/><path class="cls-7" d="M137.67,28.21c3.31-.48,6.27,1,6.62,3.36l-12,1.76C132,31,134.36,28.7,137.67,28.21Z"/><path class="cls-7" d="M140.43,25.35c3.09,1.27,4.88,4.07,4,6.26L133.19,27C134.1,24.84,137.33,24.09,140.43,25.35Z"/><polygon class="cls-7" points="65.2 18.32 63.96 18.32 61.9 89.14 65.12 89.14 68.33 89.14 65.2 18.32"/><path class="cls-7" d="M70.17,20.08c-2-1.31-4.32-1.24-5.25.15L72.07,25C73,23.58,72.14,21.39,70.17,20.08Z"/><path class="cls-7" d="M69.73,17.63c-2.34-.35-4.44.72-4.69,2.37l8.49,1.25C73.77,19.59,72.07,18,69.73,17.63Z"/><path class="cls-7" d="M67.78,15.6c-2.19.9-3.46,2.88-2.83,4.43l7.94-3.24C72.25,15.24,70,14.71,67.78,15.6Z"/><path class="cls-7" d="M59.83,20.1c2-1.3,4.31-1.24,5.25.15L57.93,25C57,23.6,57.86,21.41,59.83,20.1Z"/><path class="cls-7" d="M60.27,17.65c2.34-.34,4.43.72,4.68,2.37l-8.49,1.25C56.23,19.62,57.93,18,60.27,17.65Z"/><path class="cls-7" d="M62.22,15.63c2.19.89,3.45,2.87,2.83,4.42L57.1,16.81C57.74,15.26,60,14.73,62.22,15.63Z"/><polygon class="cls-7" points="78.32 6.16 77.07 6.16 75.02 76.98 78.23 76.98 81.45 76.98 78.32 6.16"/><path class="cls-7" d="M83.28,7.92c-2-1.31-4.31-1.24-5.25.15l7.15,4.75C86.1,11.42,85.25,9.23,83.28,7.92Z"/><path class="cls-7" d="M82.84,5.47c-2.34-.35-4.43.72-4.69,2.37l8.49,1.25C86.88,7.43,85.18,5.81,82.84,5.47Z"/><path class="cls-7" d="M80.89,3.44c-2.19.9-3.45,2.88-2.83,4.43l8-3.24C85.37,3.08,83.08,2.55,80.89,3.44Z"/><path class="cls-7" d="M72.94,7.94c2-1.3,4.32-1.24,5.25.15L71,12.84C70.12,11.44,71,9.25,72.94,7.94Z"/><path class="cls-7" d="M73.38,5.49c2.34-.34,4.44.72,4.69,2.37L69.58,9.11C69.34,7.46,71,5.84,73.38,5.49Z"/><path class="cls-7" d="M75.33,3.47c2.19.89,3.45,2.87,2.83,4.42l-8-3.24C70.86,3.1,73.14,2.57,75.33,3.47Z"/><polygon class="cls-7" points="90.21 18.32 88.97 18.32 86.91 89.14 90.12 89.14 93.34 89.14 90.21 18.32"/><path class="cls-7" d="M95.17,20.08c-2-1.31-4.31-1.24-5.25.15L97.07,25C98,23.58,97.14,21.39,95.17,20.08Z"/><path class="cls-7" d="M94.73,17.63c-2.34-.35-4.43.72-4.68,2.37l8.49,1.25C98.77,19.59,97.07,18,94.73,17.63Z"/><path class="cls-7" d="M92.78,15.6c-2.19.9-3.45,2.88-2.83,4.43l8-3.24C97.26,15.24,95,14.71,92.78,15.6Z"/><path class="cls-7" d="M84.83,20.1c2-1.3,4.32-1.24,5.25.15L82.93,25C82,23.6,82.86,21.41,84.83,20.1Z"/><path class="cls-7" d="M85.27,17.65c2.34-.34,4.44.72,4.69,2.37l-8.49,1.25C81.23,19.62,82.93,18,85.27,17.65Z"/><path class="cls-7" d="M87.22,15.63c2.19.89,3.46,2.87,2.83,4.42l-7.94-3.24C82.75,15.26,85,14.73,87.22,15.63Z"/><rect class="cls-7" x="125.12" y="85.18" width="26.87" height="44.28" transform="translate(277.11 214.65) rotate(-180)"/><polygon class="cls-8" points="144.49 67.7 163.41 85.18 124.91 85.18 144.49 67.7"/><polygon class="cls-6" points="88.16 85.18 125.12 85.18 144.59 67.7 108.81 67.7 88.16 85.18"/><rect class="cls-6" x="88.16" y="85.18" width="36.96" height="44.28"/><rect class="cls-9" x="161.21" y="85.18" width="2.19" height="44.28" transform="translate(324.62 214.65) rotate(-180)"/><rect class="cls-9" x="134.49" y="98.56" width="2.19" height="21.11" transform="translate(244.7 -26.47) rotate(90)"/><rect class="cls-9" x="124.91" y="85.18" width="2.19" height="44.28" transform="translate(252.02 214.65) rotate(-180)"/><rect class="cls-9" x="145.04" y="85.18" width="2.19" height="44.28" transform="translate(292.28 214.65) rotate(-180)"/><rect class="cls-9" x="141.12" y="108.78" width="1.77" height="20.74" transform="translate(284.01 238.29) rotate(-180)"/><rect class="cls-9" x="137.44" y="108.78" width="1.77" height="20.74" transform="translate(276.64 238.29) rotate(-180)"/><rect class="cls-9" x="133.59" y="108.78" width="1.77" height="20.74" transform="translate(268.94 238.29) rotate(-180)"/><rect class="cls-9" x="129.59" y="108.78" width="1.77" height="20.74" transform="translate(260.95 238.29) rotate(-180)"/><path class="cls-9" d="M112.9,117.51a12.65,12.65,0,1,1,12.72-12.65A12.71,12.71,0,0,1,112.9,117.51Zm0-19.29a6.64,6.64,0,1,0,6.71,6.64A6.68,6.68,0,0,0,112.9,98.22Z"/><path class="cls-8" d="M81.69,90h0c-19.64.74-32.9-2.74-32.9-2.74s17.12,40.61,20.93,42.08c3.49,1.34,10.76,1.63,12,1.67h.09V90Z"/><path class="cls-9" d="M81.87,131c1.22,0,8.49-.33,12-1.67,3.82-1.47,20.93-42.08,20.93-42.08S101.52,90.74,81.87,90h-.09v41h.09Z"/><path class="cls-9" d="M48.79,87.26s29.18-17.93,66,0C81.78,97.62,48.79,87.26,48.79,87.26Z"/><path class="cls-10" d="M83.89,53.34a11.16,11.16,0,0,0-1.54.12c-1,5.28-1.69,12.62,1.54,16.28,3.58,4.05,1.35,13.28-.55,19l.55,0c7.41,0,13.42-7.93,13.42-17.72S91.3,53.34,83.89,53.34Z"/><path class="cls-10" d="M81.52,69.69C78.28,66,78.93,58.69,80,53.41c-6.68,1-11.86,8.51-11.86,17.6,0,9.54,5.7,17.32,12.85,17.7C82.86,83,85.1,73.74,81.52,69.69Z"/></g></g></svg>