<svg xmlns="http://www.w3.org/2000/svg" viewBox="0 0 305.13 159.88"><defs><style>.cls-1{isolation:isolate;}.cls-2{fill:none;}.cls-3{fill:#002735;}.cls-4{fill:#4a82c3;}.cls-5{fill:#3882c4;}.cls-6{opacity:0.3;}.cls-7{fill:#f26e5b;}.cls-8{fill:#04223e;}.cls-9{fill:#f1695b;}.cls-10{fill:#059370;}.cls-11{fill:#ec6755;}.cls-12{fill:#f9bb15;}.cls-13{fill:#012735;}.cls-14{fill:#fcc39c;}.cls-15{fill:#f8a79f;}.cls-16,.cls-17{fill:#069270;}.cls-17,.cls-18{opacity:0.2;mix-blend-mode:multiply;}.cls-18{fill:#0a152f;}</style></defs><g class="cls-1"><g id="Capa_2" data-name="Capa 2"><g id="Layer_1" data-name="Layer 1"><rect class="cls-2" width="305.13" height="159.88"/><path class="cls-3" d="M125.91,29.7a10.85,10.85,0,0,1-1.64-4.94c0-2.93-9.81.4-9.81.4v0s-9.81-3.33-9.81-.4A10.65,10.65,0,0,1,103,29.7,45,45,0,0,0,81.07,46.12c21.49-8.34,29.63,4.16,32.28,10.53l1.11,36.17,1.12-36.17c2.65-6.38,10.79-18.87,32.27-10.53A45,45,0,0,0,125.91,29.7Z"/><polygon class="cls-4" points="104.25 94.93 220.15 94.93 230.43 72.73 200.71 72.73 199.05 75.76 114.66 75.76 110.34 70.88 79.96 69.15 104.25 94.93"/><rect class="cls-5" x="156.17" y="49.02" width="10.6" height="26.74"/><rect class="cls-6" x="156.17" y="49.02" width="10.6" height="1.54"/><rect class="cls-5" x="152.81" y="45.44" width="17.32" height="3.7"/><polygon class="cls-7" points="101.71 92.23 221.4 92.23 222.15 90.61 100.17 90.61 101.71 92.23"/><rect class="cls-8" x="156.89" y="52.21" width="1.95" height="2.51"/><rect class="cls-8" x="160.44" y="52.21" width="1.95" height="2.51"/><rect class="cls-8" x="163.99" y="52.21" width="1.95" height="2.51"/><path class="cls-9" d="M123.41,62.39h32.76a0,0,0,0,1,0,0V75.76a0,0,0,0,1,0,0H116.37a0,0,0,0,1,0,0V69.44A7,7,0,0,1,123.41,62.39Z"/><circle class="cls-8" cx="125.65" cy="69.88" r="3.91"/><circle class="cls-8" cx="136.23" cy="69.88" r="3.91"/><circle class="cls-8" cx="146.98" cy="69.88" r="3.91"/><path class="cls-3" d="M247.31,103.66S206.54,66.43,103.62,94.8L76.93,77.42l2.91,21.63L71.59,110.4l22.81-6S176.44,144.08,247.31,103.66Z"/><path class="cls-10" d="M247.31,103.66c-71,42.2-152.91.71-152.91.71,48.54,6.85,99,7.53,127.42,5.15C241.19,107.9,247.31,103.66,247.31,103.66Z"/><polygon class="cls-3" points="180.69 84.23 159.14 64.9 151.43 85.45 180.69 84.23"/><polygon class="cls-3" points="139.76 86.97 123.36 77.42 118.88 90.96 139.76 86.97"/><polygon class="cls-3" points="177.28 106.1 148.4 107.81 136.97 134.02 177.28 106.1"/><path class="cls-11" d="M200.69,16.54V55.43a19.45,19.45,0,0,0,0-38.89Z"/><path class="cls-12" d="M181.25,36a19.44,19.44,0,0,0,19.44,19.45V16.54A19.44,19.44,0,0,0,181.25,36Z"/><polygon class="cls-12" points="193.25 11.03 208.13 11.03 200.69 1.24 193.25 11.03"/><polygon class="cls-12" points="208.13 61.76 193.25 61.76 200.69 71.55 208.13 61.76"/><polygon class="cls-12" points="226.05 28.95 226.05 43.84 235.84 36.4 226.05 28.95"/><polygon class="cls-12" points="175.33 43.84 175.33 28.95 165.53 36.4 175.33 43.84"/><polygon class="cls-12" points="212.15 11.92 222.68 22.45 224.34 10.26 212.15 11.92"/><polygon class="cls-12" points="186.81 58.32 176.28 47.79 174.62 59.98 186.81 58.32"/><polygon class="cls-12" points="223.89 48.74 213.36 59.26 225.55 60.92 223.89 48.74"/><polygon class="cls-12" points="177.49 23.39 188.02 12.87 175.83 11.21 177.49 23.39"/><path class="cls-13" d="M85.06,55.65c-.88,2.17-3.16,2.47-5.48,3.43-1.56.64-2.07,3.24-1.55,5,1.34,4.6-2.87,3.2-5.72,5.67-6.88,6,4.5,11.57,6.12,12.52a48.56,48.56,0,0,0,8.83,2.87,11.85,11.85,0,0,0,10.21-4.56c2.7-3.41.35-5.86.77-8.08s3.47-2.1,3.29-6.52c-.19-4.78-1.82-8.65-4.18-10.64-3.91-3.3-9.47-2.63-11.24-1.13A3.6,3.6,0,0,0,85.06,55.65Z"/><path class="cls-14" d="M92.37,67.88s-2.08,3-1.86,5.87-6.58-.14-6.58-.14,1.46-2.15,2.13-8.16S92.37,67.88,92.37,67.88Z"/><path class="cls-14" d="M86,67.5a18.12,18.12,0,0,0,2.82,4.26,12.55,12.55,0,0,0,1.71,1.56,11.17,11.17,0,0,1,1.87-5.44s-5.63-8.44-6.31-2.43c-.07.63-.15,1.21-.23,1.75Z"/><path class="cls-14" d="M88.8,55.54c.76-.48,6.22-1,7.92,2.33C99,62.46,96,69.48,94.36,70.56s-8.6-1.13-9.38-6.23A8.21,8.21,0,0,1,88.8,55.54Z"/><path class="cls-15" d="M98.85,77.2,98.6,77c-3.72-3.44-7.26-4.84-8.95-3.36-3.43,3-.57,5.79-.57,5.79a97.53,97.53,0,0,0,9.53,6.92C98.76,83.28,98.83,80.24,98.85,77.2Z"/><path class="cls-14" d="M121,71.39s4.58-7.94-.93-.72c0,0,4.65-8.73-1.15-.64,0,0,4.23-8.16-2.07,1.5,0,0-.36-6.37-1.43,1.43L107,82.62A40.31,40.31,0,0,1,98.6,77c-.38-.35-.76-.68-1.13-1a43.87,43.87,0,0,1-.87,5.49c-.3,1-.65,1.91-1,2.84,4.43,3.07,10,6.28,12.48,5.25C112.62,87.7,127.93,62.3,121,71.39Z"/><path class="cls-14" d="M107.83,104.66s-.58-11.07-3.37-15c-.78-1.57-7.22-14.18-15.67-16.86,0,0-6.53-7.06-8,2C79.59,82.05,82.55,86,91,94.26c0,0-1.34,7.82.57,11.83,1.62,3.4,3.48,13.45,14.21,11.44S107.83,104.66,107.83,104.66Z"/><path class="cls-14" d="M109.27,109a10.57,10.57,0,0,1-5.42-1.68A24.16,24.16,0,0,1,99.21,103a14.26,14.26,0,0,1-3.53-8.44,23.61,23.61,0,0,1,0-2.79c.06-.93.26-1.85.31-2.78.07-1.39-.72-2-1.85-2.58a10.74,10.74,0,0,1-1.94-1.19c-4.53-3.65-7-9.36-7.73-15.1-1.55-.17-3.06.8-3.68,4.6C79.59,82.05,82.55,86,91,94.26c0,0-1.34,7.82.57,11.83,1.62,3.4,3.48,13.45,14.21,11.44,6.17-1.15,5.91-5.22,4.57-8.49Z"/><path class="cls-16" d="M101.75,84.62h.07c1-4.53-3.22-7-5.71-8.74a15.06,15.06,0,0,0-5.62-3l0,.25A9.27,9.27,0,0,1,95,75.77c1.81,2.27.66,3.61.66,3.61a11,11,0,0,1-5.81-4.12c-1.4-2.76-2.79-4.08-3.88-4.69a3.94,3.94,0,0,0-2.75-.35l.56.14s1.87-1.09,4.83,5c1.22,5-5.06,11-5.06,11L86.6,90A43.22,43.22,0,0,1,102.48,86Z"/><path class="cls-17" d="M101.82,84.62a5.92,5.92,0,0,0,.15-1.53,15.54,15.54,0,0,1-4.22,1.51c-3.14.59-6.81,0-9.26-2.13a13.74,13.74,0,0,1-1.14-1.15,23,23,0,0,1-3.85,5L86.6,90A43.22,43.22,0,0,1,102.48,86l-.73-1.34Z"/><path class="cls-14" d="M88.36,74.61s-1.71-5.3-5.72-4.3-4.43,17.46-6.44,23-5.86,15.46-7.44,20.46c0,0-20.32,3.44-5.58,2,0,0-11.59,2.86,0,.71,0,0-5.87,2.15,2.72-.14,0,0-6,2.86,4.58,1,0,0,7.73-13.31,10.3-19.6C80.78,97.79,90.37,80.62,88.36,74.61Z"/><path class="cls-16" d="M106.87,96.17s-9.92-.67-16.5,4.48c0,0-2,13.31,10,16.46,11-.15,11.05-5,10.88-10.16C111.07,101.22,106.87,96.17,106.87,96.17Z"/><path class="cls-16" d="M106.87,96.17s-9.92-.67-16.5,4.48c0,0-2,13.31,10,16.46,11-.15,11.05-5,10.88-10.16C111.07,101.22,106.87,96.17,106.87,96.17Z"/><path class="cls-18" d="M105.76,110a13.29,13.29,0,0,0-4.71-2c-.1,0-.11-.22,0-.27a32,32,0,0,1-3.16-6.4,12.34,12.34,0,0,1-.38-4,20.16,20.16,0,0,0-7.1,3.42s-2,13.31,10,16.46c6.93-.09,9.52-2,10.44-4.77A38,38,0,0,1,105.76,110Z"/><path class="cls-14" d="M120.7,111.24s-13.59,5.72-12.87-9.73c0,0,19.6-17.89,25.47-17.89s5.43,4.3,13.16,13.88A134.49,134.49,0,0,0,160.91,113l-4.15.43s-21.75-8.73-23-20.61C133.72,92.78,128.43,104.8,120.7,111.24Z"/><path class="cls-14" d="M180,109.54s1.25-.73,1.05-1.23c-.11-.28-.45-.19-.73-.06.81-.62.77-1.57.08-1.49s-3.6,2.48-6.57,4.48c-2.67,1.81-4.48,2-5.27,2-6.69-.7-19.23-2.3-28.92-5.29,0,0-1.72-2-7.15-1.43,0,0-19-6-24.76-6.87,0,0-10.34-3.74-14.45,2.29-6.73,9.87,6.15,19.17,18.17,14.45,0,0,16,.86,24.76-1.14,0,0,9.15,3.86,22.46,3,5.26-.34,8.84-.71,11.23-1.11a2.75,2.75,0,0,0,1.83,1.32c2.23.21,7.64-6.19,7.64-6.19s1.21-.72,1.29-1.6c0-.3,0-.42-.15-.46a1.82,1.82,0,0,0,.45-.76C180.88,109.25,180,109.54,180,109.54Z"/><path class="cls-14" d="M171.37,116.34a62.59,62.59,0,0,1-6.71-.07c-2.32-.09-4.64-.15-7-.26s-4.66-.24-7-.45a33.72,33.72,0,0,1-6.48-1c-1.08-.32-2.14-.7-3.23-1-.91-.25-1.87-.33-2.76-.63-1.79-.61-3.44-1.84-5.37-2-2.1-.14-4,.82-6,1.36a23.47,23.47,0,0,1-5.62,1.08,21.83,21.83,0,0,1-5.68-.81c-1.88-.45-3.75-.93-5.59-1.5a37.38,37.38,0,0,1-5.44-2.12,16.42,16.42,0,0,1-4.21-2.72c-1.78-1.74-3.63-4.34-3.87-7a7.29,7.29,0,0,0-3.28,2.64c-6.73,9.87,6.15,19.17,18.17,14.45,0,0,16,.86,24.76-1.14,0,0,9.15,3.86,22.46,3,5.26-.34,8.84-.71,11.23-1.11a2.75,2.75,0,0,0,1.83,1.32c1.25.12,3.5-1.85,5.24-3.59A15.46,15.46,0,0,1,171.37,116.34Z"/><path class="cls-13" d="M94.64,55.18a19.41,19.41,0,0,1-10.33,6.38c-6.71,1.57-.38-2.86-.38-2.86l3.71-4.14h6.48Z"/><path class="cls-9" d="M170.78,111.61l-.81,16.9S183,118.84,182.12,111c0,0-1.27-3.18-6.11-2.72S170.78,111.61,170.78,111.61Z"/><path class="cls-11" d="M156.09,107.11,148.46,94s17.19-3.52,26.13,8.27Z"/><path class="cls-11" d="M197.59,122.28c-3.48-1-7.9-2.7-12.78-3.24-9.76-1.07-32.94-.36-41.19,25.14l5,14.46s-7-4.89-8.6-10.45l-12.16,5.93,9.21-11.76s-4.53-17.54,4.93-29.47,29.14-15.77,39.82-14.12,17.8,7.48,17.57,14.07"/><path class="cls-11" d="M199.38,112.84s.34.14.86.41"/><path class="cls-11" d="M199.43,122.73a4.29,4.29,0,0,0,3.93-7.63l-4.5-2.44-4.08,4.12.15,4.1Z"/><path class="cls-12" d="M195.29,119.36c-7.6-4.71-22.84-8.59-36.31-2.48-16.63,7.54-15.36,27.3-15.36,27.3,8.25-25.5,31.43-26.21,41.19-25.14,5.7.63,10.78,2.89,14.44,3.65a14.75,14.75,0,0,0-4-3.33"/><path class="cls-11" d="M157.86,118l3,17.13s10.91-12.66,8.22-20.36c0,0-2-2.9-6.75-1.34S157.86,118,157.86,118Z"/></g></g></g></svg>