<svg xmlns="http://www.w3.org/2000/svg" viewBox="0 0 295.52 154.84"><defs><style>.cls-1{fill:#059370;}.cls-2,.cls-3{fill:#f2cb4f;}.cls-3{stroke:#253e47;stroke-width:1.37px;}.cls-10,.cls-3,.cls-5{stroke-miterlimit:10;}.cls-4{fill:#002735;}.cls-10,.cls-11,.cls-5{fill:none;}.cls-5{stroke:#002735;stroke-width:4px;}.cls-6{fill:#f9bb15;}.cls-7{fill:#4a82c3;}.cls-8{fill:#ec6755;}.cls-9{fill:#f1695b;}.cls-10{stroke:#f6cf44;stroke-linecap:round;stroke-width:0.44px;}</style></defs><g id="Capa_2" data-name="Capa 2"><g id="Layer_1" data-name="Layer 1"><path class="cls-1" d="M232.5,78.13s-22-1-27.84,19.88Z"/><path class="cls-2" d="M232.46,78.15S226.3,99.26,204.63,98Z"/><path class="cls-1" d="M198.94,73.15s-16.38,12.62-9.12,35.42Z"/><path class="cls-2" d="M198.93,73.19s7.16,23.18-9.12,35.43Z"/><path class="cls-1" d="M178,88.1s-15.88,12.62-8.85,35.42Z"/><path class="cls-2" d="M178,88.14s6.95,23.18-8.85,35.43Z"/><path class="cls-1" d="M226.33,111.48s-17.25,11.4-36.47-2.86Z"/><path class="cls-2" d="M226.28,111.48s-19.61-14.29-36.47-2.86Z"/><path class="cls-1" d="M205.39,126.46s-17.25,11.4-36.47-2.86Z"/><path class="cls-2" d="M205.34,126.45s-19.61-14.29-36.47-2.85Z"/><line class="cls-3" x1="156.22" y1="132.61" x2="205.77" y2="97.22"/><polygon class="cls-1" points="77.35 50.27 82.71 50.47 67.5 79.26 75.49 79.26 63.02 104.83 94.77 104.83 94.77 15.13 77.35 50.27"/><polygon class="cls-4" points="117.36 79.26 124.72 78.94 110.01 50.17 115.44 49.85 95.31 14.04 94.77 15.13 94.77 104.83 132.71 104.83 117.36 79.26"/><line class="cls-5" x1="87.49" y1="98.95" x2="123.96" y2="142.73"/><path class="cls-6" d="M87,84.28c5.9,7.07,3.72,18.6,3.72,18.6s-11.73.05-17.62-7-3.72-18.61-3.72-18.61S81.15,77.2,87,84.28Z"/><path class="cls-6" d="M113.16,100.82c-3.68,8.45-15,11.68-15,11.68s-5.32-10.45-1.65-18.9,15-11.68,15-11.68S116.83,92.38,113.16,100.82Z"/><path class="cls-6" d="M126.26,119.4c-6.75,6.27-18.38,4.72-18.38,4.72s-.68-11.71,6.06-18,18.38-4.72,18.38-4.72S133,113.13,126.26,119.4Z"/><path class="cls-6" d="M83.67,125.34c9-2.08,14.19-12.59,14.19-12.59s-9.32-7.12-18.29-5-14.19,12.59-14.19,12.59S74.7,127.43,83.67,125.34Z"/><path class="cls-6" d="M99.58,141.59c7.38-5.51,8-17.22,8-17.22s-11.39-2.79-18.78,2.71-8,17.22-8,17.22S92.19,147.09,99.58,141.59Z"/><path class="cls-7" d="M101,56.09q10.32-21,38.58-21V59S120,63.67,101,56.09Z"/><path class="cls-8" d="M178.18,56.09q-10.32-21-38.59-21V59S159.19,63.67,178.18,56.09Z"/><path class="cls-7" d="M139.59,59v71.11A161.89,161.89,0,0,0,170,127.2l8.16-71.11A258.32,258.32,0,0,1,139.59,59Z"/><path class="cls-8" d="M101,56.09l8.43,71.11a158.58,158.58,0,0,0,30.15,2.91V59A258.29,258.29,0,0,1,101,56.09Z"/><polygon class="cls-4" points="153.84 47.77 165.94 5.96 175.27 9.8 156.62 47.77 153.84 47.77"/><circle class="cls-6" cx="139.36" cy="76.64" r="2.42"/><circle class="cls-6" cx="139.36" cy="80.62" r="2.42"/><rect class="cls-6" x="146.31" y="92.3" width="14.58" height="2.03" rx="0.57" transform="translate(236.9 -65.94) rotate(86.33)"/><rect class="cls-6" x="152.58" y="102.81" width="14.58" height="2.03" rx="0.57" transform="translate(82.55 -70.41) rotate(33.07)"/><rect class="cls-6" x="139.99" y="83.04" width="14.58" height="2.03" rx="0.57" transform="translate(56.38 -59.1) rotate(27.87)"/><rect class="cls-6" x="139.94" y="74.95" width="14.58" height="2.03" rx="0.57" transform="translate(7.44 -12.95) rotate(5.17)"/><rect class="cls-6" x="151.79" y="78.38" width="14.58" height="2.03" rx="0.57" transform="translate(55.57 -65.16) rotate(27.87)"/><rect class="cls-6" x="152.48" y="59.91" width="14.58" height="2.03" rx="0.57" transform="matrix(-0.83, 0.55, -0.55, -0.83, 326.67, 23.74)"/><rect class="cls-6" x="141.07" y="64.63" width="14.58" height="2.03" rx="0.57" transform="translate(306.35 102.52) rotate(169.27)"/><rect class="cls-6" x="118.07" y="92.29" width="14.58" height="2.03" rx="0.57" transform="translate(226.49 -25.82) rotate(93.67)"/><rect class="cls-6" x="111.79" y="102.8" width="14.58" height="2.03" rx="0.57" transform="translate(275.53 125.85) rotate(146.93)"/><rect class="cls-6" x="124.39" y="83.03" width="14.58" height="2.03" rx="0.57" transform="translate(287.38 96.79) rotate(152.13)"/><rect class="cls-6" x="124.44" y="74.95" width="14.58" height="2.03" rx="0.57" transform="translate(269.76 139.75) rotate(174.83)"/><rect class="cls-6" x="112.58" y="78.38" width="14.58" height="2.03" rx="0.57" transform="translate(262.95 93.54) rotate(152.13)"/><rect class="cls-6" x="111.9" y="59.9" width="14.58" height="2.03" rx="0.57" transform="translate(53.29 -55.59) rotate(33.43)"/><rect class="cls-6" x="123.31" y="64.62" width="14.58" height="2.03" rx="0.57" transform="translate(14.5 -23.17) rotate(10.73)"/><path class="cls-6" d="M140.77,49.12c0-.23,0-.46,0-.68-.47,0-.95-.06-1.45-.06a16.45,16.45,0,0,0-2,.12c0,.2,0,.41,0,.62,0,4-1.37,7.64-5.31,7.64a7.52,7.52,0,0,1-1.24-.11c.37,5.37,4,9.58,8.52,9.58s8.21-4.28,8.53-9.7a7.61,7.61,0,0,1-1.81.23C142.14,56.76,140.77,53.07,140.77,49.12Z"/><path class="cls-4" d="M140.81,48.44c0,.22,0,.45,0,.68,0,4,1.37,7.64,5.31,7.64a7.61,7.61,0,0,0,1.81-.23c0-.26,0-.51,0-.77C147.92,50.57,144.85,48.76,140.81,48.44Z"/><path class="cls-4" d="M137.39,49.12c0-.21,0-.42,0-.62-3.75.44-6.55,2.32-6.55,7.26,0,.3,0,.59,0,.89a7.52,7.52,0,0,0,1.24.11C136,56.76,137.39,53.07,137.39,49.12Z"/><circle class="cls-4" cx="139.36" cy="70.36" r="4.74"/><path class="cls-1" d="M139.36,82.13c-7,0-12.71,8-12.71,17.94S139.36,118,139.36,118h0V82.13Z"/><path class="cls-4" d="M152.08,100.07c0-9.91-5.7-17.94-12.72-17.94V118S152.08,110,152.08,100.07Z"/><path class="cls-6" d="M183.73,61.28l-2.61,4.51a5.17,5.17,0,0,1-9.51-1.43"/><path class="cls-9" d="M171.61,64.36a5.17,5.17,0,0,1,7.62-5.63l.41.19,4.09,2.36"/><path class="cls-6" d="M186.9,63.11l-2.28,4.68a5.16,5.16,0,0,0,6.5,7.08"/><path class="cls-7" d="M191.12,74.87a5.16,5.16,0,0,0,.4-9.46l-.38-.23-4.24-2.07"/><polyline class="cls-10" points="185.69 60.19 192.5 48.4 190.6 42.87"/><polyline class="cls-10" points="186.85 60.86 193.66 49.07 199.4 47.95"/><path class="cls-4" d="M187.31,53.07a47.55,47.55,0,0,0-3.63,8.2,33.35,33.35,0,0,0-1.29,6.26,28.65,28.65,0,0,0,4.54-4.42,54.67,54.67,0,0,0,4.78-7.5Z"/><path class="cls-6" d="M176.23,33.41l7.47,27.91s-11.56-4.25-13.39-11.1S176.35,33.48,176.23,33.41Z"/><path class="cls-7" d="M183.7,61.33l-7.47-27.91s11.55,4.25,13.39,11.1S183.58,61.26,183.7,61.33Z"/><path class="cls-6" d="M214.77,55.68l-27.91,7.47s9.45,7.88,16.31,6.05S214.65,55.61,214.77,55.68Z"/><path class="cls-9" d="M186.85,63.15l27.92-7.47s-9.46-7.89-16.31-6S187,63.22,186.85,63.15Z"/><path class="cls-4" d="M118.18,126.32c-.48,0-5.9-3.77,38.42-4.48,41.82,3.32-15.62,13.52-15.62,13.52Z"/><path class="cls-4" d="M118.18,145.2s66.38,8.26,76.18,0v-9.84c-9.8,8.26-76.18,0-76.18,0Z"/><path class="cls-6" d="M156.27,116.63s1.52,7.72-1.64,11.57c-10.5,2.8-36.45-1.7-36.45-1.7v9c25.9,3.46,43.06,4.35,54.42,4.1l5-12.44Z"/><path class="cls-7" d="M194.36,135.54l-16.79-8.34-5,12.44C191.77,139.21,194.36,135.54,194.36,135.54Z"/><rect class="cls-11" width="295.52" height="154.84"/></g></g></svg>