<svg xmlns="http://www.w3.org/2000/svg" viewBox="0 0 256.05 134.16"><defs><style>.cls-1{fill:#f9bb15;}.cls-2{fill:#002735;}.cls-10,.cls-3,.cls-9{fill:none;}.cls-3{stroke:#002735;stroke-width:4px;}.cls-3,.cls-9{stroke-miterlimit:10;}.cls-4{fill:#4a82c3;}.cls-5{fill:#f5f7d4;}.cls-6{fill:#059370;}.cls-7{fill:#ec6755;}.cls-8{fill:#f16e5b;}.cls-9{stroke:#4a82c3;stroke-width:12px;}</style></defs><g id="Capa_2" data-name="Capa 2"><g id="Layer_1" data-name="Layer 1"><path class="cls-1" d="M171.16,68.34s.53,8-2.78,10.16-.22,7.07-3,9.53,16.1,14.76,16.1,14.76Z"/><path class="cls-2" d="M171.16,68.34s4,7,7.92,7,4.06,5.78,7.72,6.32-5.3,21.18-5.3,21.18Z"/><path class="cls-1" d="M219.37,58.92s-6.58,4.59-10.14,2.87-6.16,3.46-9.69,2.37-4.33,21.4-4.33,21.4Z"/><path class="cls-2" d="M219.37,58.92s-3.93,7-1.86,10.37-2.85,6.47-1.42,9.88-20.88,6.39-20.88,6.39Z"/><path class="cls-1" d="M218.93,97.55s-8-.76-9.59-4.38-6.93-1.34-8.92-4.46-17.15,13.52-17.15,13.52Z"/><path class="cls-2" d="M218.93,97.55s-7.52,2.79-8.13,6.7-6.36,3.09-7.47,6.61-20.06-8.63-20.06-8.63Z"/><path class="cls-1" d="M200,123.74s-7.31-3.3-7.66-7.24-6.13-3.51-7-7.11-20.6,7.26-20.6,7.26Z"/><path class="cls-2" d="M200,123.74s-8,.21-9.86,3.71-7,.87-9.21,3.85-16.19-14.65-16.19-14.65Z"/><path class="cls-3" d="M197.22,83.34s-18.05,34.2-46.19,36.6"/><path class="cls-2" d="M64.41,40.62C62.53,47.07,67.68,63,67.68,63l-.43,12.8H73.6l3.93-26.91Z"/><path class="cls-2" d="M101.77,40.62c-1.88,6.45.48,13.47,5.69,20.86l-2.84,14.36H111l3.94-26.91Z"/><path class="cls-4" d="M78.85,67.34l-2.19,9.84H83l1.1-10.5C86.34,64.61,88,61.54,88,56c7.23,1.07,13.93.48,19.9-2.41,1.74,3.75,3.72,7.34,8.1,9.49l-1.53,14.14h8.75V57.93c4.1-10.14,5.83-19.56,0-26.69-6-5.19-15.85-6.41-28.44-4.82-16.61-.57-28.65-3.5-38.73-7.43C55.18,32.24,64.6,49,78.85,67.34Z"/><ellipse class="cls-4" cx="55.87" cy="26.64" rx="12.69" ry="15.53"/><rect class="cls-5" x="44.28" y="33.79" width="23.63" height="12.03" rx="3.72"/><rect class="cls-5" x="67.68" y="75.84" width="5.59" height="5.59"/><rect class="cls-5" x="77.25" y="77.18" width="5.59" height="5.59"/><rect class="cls-5" x="116.35" y="77.18" width="5.59" height="5.59"/><rect class="cls-5" x="105.22" y="75.84" width="5.59" height="5.59"/><path class="cls-6" d="M40.92,17c3.5-2.37,7.27-2.92,8.43-1.23s-.75,5-4.24,7.39-8.43,1.22-8.43,1.22S37.43,19.35,40.92,17Z"/><path class="cls-6" d="M70.82,17c-3.49-2.37-7.27-2.92-8.42-1.23s.74,5,4.24,7.39,8.43,1.22,8.43,1.22S74.32,19.35,70.82,17Z"/><path class="cls-5" d="M45.56,2.53S42.1,9,46.57,16.92s6.34-3.63,6.34-3.63S47,12,45.56,2.53Z"/><path class="cls-5" d="M65.27,2.53s3.46,6.48-1,14.39-6.34-3.63-6.34-3.63S63.83,12,65.27,2.53Z"/><rect class="cls-1" x="94.12" y="49.76" width="2.54" height="34.99"/><rect class="cls-7" x="96.66" y="49.76" width="2.54" height="34.99"/><rect class="cls-1" x="99.19" y="49.76" width="2.54" height="34.99"/><rect class="cls-7" x="101.73" y="49.76" width="2.54" height="34.99"/><rect class="cls-1" x="104.27" y="49.76" width="2.54" height="34.99"/><rect class="cls-7" x="106.8" y="49.76" width="2.54" height="34.99"/><rect class="cls-1" x="109.34" y="49.76" width="2.54" height="34.99"/><rect class="cls-7" x="111.87" y="49.76" width="2.54" height="34.99"/><rect class="cls-1" x="114.41" y="49.76" width="2.54" height="34.99"/><rect class="cls-7" x="116.94" y="49.76" width="2.54" height="34.99"/><rect class="cls-1" x="119.48" y="49.76" width="2.54" height="34.99"/><rect class="cls-7" x="122.01" y="49.76" width="2.54" height="34.99"/><rect class="cls-8" x="73.33" y="48.07" width="20.79" height="38.88"/><rect class="cls-8" x="67.08" y="48.07" width="16.57" height="38.88"/><path class="cls-1" d="M87.7,53a1,1,0,1,1-1-1A1,1,0,0,1,87.7,53Z"/><path class="cls-1" d="M91.93,53a1,1,0,1,1-1-1A1,1,0,0,1,91.93,53Z"/><path class="cls-1" d="M87.7,57.71a1,1,0,1,1-1-1A1,1,0,0,1,87.7,57.71Z"/><path class="cls-1" d="M91.93,57.71a1,1,0,1,1-1-1A1,1,0,0,1,91.93,57.71Z"/><path class="cls-1" d="M87.7,62.44a1,1,0,1,1-2,0,1,1,0,0,1,2,0Z"/><path class="cls-1" d="M91.93,62.44a1,1,0,1,1-2,0,1,1,0,0,1,2,0Z"/><path class="cls-1" d="M87.7,67.17a1,1,0,1,1-2,0,1,1,0,0,1,2,0Z"/><path class="cls-1" d="M91.93,67.17a1,1,0,1,1-2,0,1,1,0,0,1,2,0Z"/><path class="cls-1" d="M87.7,71.91a1,1,0,1,1-1-1A1,1,0,0,1,87.7,71.91Z"/><path class="cls-1" d="M91.93,71.91a1,1,0,1,1-1-1A1,1,0,0,1,91.93,71.91Z"/><path class="cls-1" d="M87.7,76.64a1,1,0,1,1-2,0,1,1,0,0,1,2,0Z"/><path class="cls-1" d="M91.93,76.64a1,1,0,1,1-2,0,1,1,0,0,1,2,0Z"/><rect class="cls-8" x="124.38" y="48.75" width="13.35" height="38.88"/><path class="cls-1" d="M130.47,53a1,1,0,1,1-1-1A1,1,0,0,1,130.47,53Z"/><path class="cls-1" d="M134.69,53a1,1,0,0,1-2,0,1,1,0,1,1,2,0Z"/><circle class="cls-1" cx="129.45" cy="57.71" r="1.01"/><path class="cls-1" d="M134.69,57.71a1,1,0,0,1-2,0,1,1,0,1,1,2,0Z"/><path class="cls-1" d="M130.47,62.44a1,1,0,1,1-2,0,1,1,0,0,1,2,0Z"/><path class="cls-1" d="M134.69,62.44a1,1,0,1,1-1-1A1,1,0,0,1,134.69,62.44Z"/><path class="cls-1" d="M130.47,67.17a1,1,0,1,1-2,0,1,1,0,0,1,2,0Z"/><path class="cls-1" d="M134.69,67.17a1,1,0,1,1-1-1A1,1,0,0,1,134.69,67.17Z"/><circle class="cls-1" cx="129.45" cy="71.91" r="1.01"/><path class="cls-1" d="M134.69,71.91a1,1,0,0,1-2,0,1,1,0,1,1,2,0Z"/><path class="cls-1" d="M130.47,76.64a1,1,0,1,1-2,0,1,1,0,0,1,2,0Z"/><path class="cls-1" d="M134.69,76.64a1,1,0,1,1-1-1A1,1,0,0,1,134.69,76.64Z"/><rect class="cls-2" x="67.08" y="48.07" width="16.57" height="38.88"/><rect class="cls-6" x="79.29" y="76.42" width="58.65" height="34.65" rx="12"/><rect class="cls-2" x="82.34" y="79.45" width="52.94" height="28.99" rx="12"/><path class="cls-5" d="M94,111.07h29.2s-10.43-11.95-14.88-11.95S94,111.07,94,111.07Z"/><path class="cls-9" d="M97.8,120.65h44.38c9.61-.71,14.53-4.82,14.95-12.21v-64"/><rect class="cls-2" x="148.93" y="49.07" width="16.66" height="26.67"/><rect class="cls-2" x="101.82" y="112.98" width="20.6" height="14.66"/><path class="cls-5" d="M111.48,41.18l6.29-30.46c20,6.18,41.37,6.37,63.66,2.8l4.76,31Z"/><path class="cls-5" d="M138.56,40.19s78.29-12.09,72.79,10.12S138.56,40.19,138.56,40.19Z"/><path class="cls-2" d="M124.79,54.31h0a276.21,276.21,0,0,0,35.74-6.62S119,32.85,98.42,34.82C98.42,34.82,77.36,52.71,124.79,54.31Z"/><path class="cls-5" d="M87.15,43.89c.61,11.53,19.29,12.4,37.65,10.42h0c-47.43-1.6-26.37-19.49-26.37-19.49C91.42,35.49,86.85,38.1,87.15,43.89Z"/><path class="cls-5" d="M106,34.64S94.83,53.51,137.63,52.52c-30.54-3.91-23.42-16.92-23.42-16.92Z"/><path class="cls-5" d="M124.8,37.52s-5.06,9.74,21.36,13.42c-17.36-6.47-14.44-11.83-14.44-11.83Z"/><path class="cls-2" d="M96.65,35l-.43,2.14-4.44-.76v4.71H87.14l2.32,3.34L88.32,48l5.44,1.19.19,3.4,4.47-.66,2.07,2.49,4.17-1,3.16,1.79,3.66-.83s3.11.71,2.55.78C84.1,58.48,78.37,37.65,96.65,35Z"/><path class="cls-2" d="M121.44,23.91s4.85,2.26,14,2.49l1.09-6.1c-9.2-.22-14-2.49-14-2.49Z"/><path class="cls-2" d="M120.22,32.5s4.84,2.26,14,2.49l1.08-6.1c-9.19-.23-14-2.49-14-2.49Z"/><path class="cls-2" d="M160.87,26.75s5.24,1.09,14.24-.79l-.34-6.18c-9,1.88-14.24.79-14.24.79Z"/><path class="cls-2" d="M161.65,35.39s5.23,1.09,14.24-.79l-.35-6.19c-9,1.89-14.24.8-14.24.8Z"/><path class="cls-2" d="M141,26.59s5.08,1.68,14.24.85l.37-6.18c-9.16.83-14.24-.85-14.24-.85Z"/><path class="cls-2" d="M140.75,35.26s5.07,1.68,14.23.85l.37-6.18c-9.16.83-14.23-.86-14.23-.86Z"/><path class="cls-2" d="M198.11,38.34c7,13.67-8.26,11.49-28.49,14.21,23.94,5.27,41.77,3.43,36.1-11.9C206.49,41,204.57,39.66,198.11,38.34Z"/><path class="cls-2" d="M191.13,37.38s13.07,11.48-29.83,12.3c14.54-4.08,31.33-8.1,20.35-12.78Z"/><rect class="cls-10" width="256.05" height="134.16"/></g></g></svg>