<svg xmlns="http://www.w3.org/2000/svg" viewBox="0 0 270.74 141.85"><defs><style>.cls-1{fill:#002735;}.cls-2{fill:#935e46;}.cls-3{fill:#059370;}.cls-4{fill:#f5f7d4;}.cls-5{fill:#ed705c;}.cls-6{fill:#ec6755;}.cls-7{fill:#f9bb15;}.cls-8{fill:#4a82c3;}.cls-9{fill:#053040;}.cls-10{fill:#112f39;}.cls-11{fill:none;}</style></defs><g id="Capa_2" data-name="Capa 2"><g id="Layer_1" data-name="Layer 1"><path class="cls-1" d="M79.16,71.64a7.48,7.48,0,0,0-.33,1.7c0,.78.77.5.77.5a.82.82,0,0,0,.59.88c.7.31,1-.94,2.17-1s1.48-2.5,1.48-2.5.07.9,1.34,1.11,4.33-4.24,4.33-4.24L73.57,70.5,76.91,72a1.86,1.86,0,0,0,2.25-.33"/><path class="cls-1" d="M79.31,63.77c-.64.58-.42,1.09-.42,1.09s-.83,0-.68.79a6.25,6.25,0,0,0,.6,1.51,1.84,1.84,0,0,0-2.24.58l-3,2.76,15.8-4.06s-3.67-3.09-4.86-2.38a1.87,1.87,0,0,0-1.12,1.6s-.69-2.27-1.83-1.83-1.62-.64-2.25-.06"/><polygon class="cls-1" points="89.73 67.78 89.63 66.72 105.12 63.34 105.22 64.4 89.73 67.78"/><path class="cls-1" d="M52.36,37.42a7.85,7.85,0,0,0-.43,1.7c-.08.78.74.54.74.54a.82.82,0,0,0,.52.92c.68.35,1.05-.88,2.21-.84S57,37.31,57,37.31s0,.9,1.25,1.18,4.55-4,4.55-4L46.89,36l3.22,1.66a1.82,1.82,0,0,0,2.25-.21"/><path class="cls-1" d="M53,29.52c-.67.54-.49,1.07-.49,1.07s-.82,0-.71.76a6.26,6.26,0,0,0,.49,1.55,1.8,1.8,0,0,0-2.24.46L46.89,36l15.89-3.21s-3.45-3.31-4.67-2.66a1.89,1.89,0,0,0-1.2,1.55s-.55-2.33-1.7-1.95S53.64,29,53,29.52"/><path class="cls-1" d="M66.17,9a7.92,7.92,0,0,0-1.77.2.62.62,0,0,0-.48.9A1.17,1.17,0,0,0,63,11c-.28.77,1,.67,1.08,1.79s2.63.65,2.63.65A2,2,0,0,0,65.65,15c-.16,1.28,4.54,2.85,4.54,2.85L67.12,3.31,65.74,7A1.46,1.46,0,0,0,66.17,9"/><path class="cls-1" d="M74.27,6.75a1,1,0,0,0-1.13-.07.53.53,0,0,0-.85-.41,9,9,0,0,0-1.53,1,1.48,1.48,0,0,0-.69-2l-2.95-2,4.81,13.91s3-4.47,2.25-5.39a1.54,1.54,0,0,0-1.69-.58S74.8,9.88,74.3,8.93s.59-1.75,0-2.18"/><path class="cls-1" d="M71.83,17.8C82.27,40.1,96.19,57.61,113.4,70c1.92,1.38,3.89,2.68,5.89,3.94a11.15,11.15,0,0,0-.36,1.16c-2.13-1.33-4.22-2.71-6.26-4.18C95.3,58.43,81.26,40.77,70.74,18.29,71.11,18.14,71.47,18,71.83,17.8Z"/><line class="cls-2" x1="78.73" y1="31.74" x2="63.17" y2="33.72"/><polygon class="cls-1" points="63.17 34.26 63.18 33.17 78.73 31.2 78.73 32.29 63.17 34.26"/><path class="cls-1" d="M58.84,47.91s11.84-1.83,11.73-12.45C59.45,36.52,58.84,47.91,58.84,47.91"/><path class="cls-1" d="M56.42,17.88s2.91,10.59,13.73,6.72c-2.07-10.18-13.73-6.72-13.73-6.72"/><path class="cls-1" d="M86.91,84.73s10.75-6.13,6.26-15.28c-10.37,5.2-6.26,15.28-6.26,15.28"/><path class="cls-3" d="M94.37,44,88.6,56.62l-.92-4.76L83.07,62.3l-1.23-2.77L73,79.66h42.78S102.27,54.6,94.37,44Z"/><path class="cls-4" d="M83.07,62.3l4.61-10.44.92,4.76L94.37,44c-2.25-3-4-4.84-4.93-4.6C85.41,40.5,67,79.66,67,79.66H73l8.8-20.13Z"/><path class="cls-5" d="M172.46,90.73c.52-.27.89-.34,1.25.31a1.57,1.57,0,0,0,2.18.35,1.64,1.64,0,0,0,.32-2.2,1.62,1.62,0,0,0-2.3-.26,1.92,1.92,0,0,1-.89.32c-.83.07-1.66.08-2.5.11l1.41,1.42a1.8,1.8,0,0,0,.53,0"/><path class="cls-6" d="M179.48,27.52a2.08,2.08,0,0,0-2.92.09,1.2,1.2,0,0,1-.48.37,6.82,6.82,0,0,1-4.24-.08,17.36,17.36,0,0,1-2.74-1.78c-.7-.5-.69-.86,0-1.39,1.35-1.06,2.72-2.08,4-3.16a1,1,0,0,1,1.22-.22A2,2,0,0,0,177,19.78a2,2,0,0,0-1.95-2.45,2.09,2.09,0,0,0-2.14,2.23.77.77,0,0,1-.32.56c-.95.52-1.9,1-2.88,1.46a12.94,12.94,0,0,1-2.11.67c-.83.19-1.18-.08-1.34-.91a1.94,1.94,0,0,1-.05-.63c.24-1.5.5-3,.74-4.5a.73.73,0,0,1,.73-.68A2,2,0,1,0,166,11.9a1.94,1.94,0,0,0-.43,2.84.63.63,0,0,1,0,.84c-.58.85-1.11,1.74-1.71,2.59-1,1.33-1.92,2.67-2.94,4-.53.67-.89.74-1.59.25-.94-.66-1.79-1.46-2.69-2.18a1,1,0,0,1-.38-1.29,2,2,0,0,0-1.58-2.52,2.12,2.12,0,0,0-2.48,1.71A2.17,2.17,0,0,0,154,20.46a6.65,6.65,0,0,0,1.25-.07c.4.95.86,1.9,1.19,2.9A18.1,18.1,0,0,0,158.71,28a1.16,1.16,0,0,1,0,1.33,26.34,26.34,0,0,0-2.44,6.49c-.1.55-.29,1.07-.44,1.62-3.34-3-6.48-6.19-10.89-7.58a.58.58,0,0,1,0-.14,2.26,2.26,0,0,1,.16-.26,7.94,7.94,0,0,0,1.7-4.57,36.75,36.75,0,0,0-.54-4.89,1.06,1.06,0,0,1,.23-1A5.81,5.81,0,0,0,148,15.4a6,6,0,0,0-5.08-6.11.89.89,0,0,1-.77-.52,12.31,12.31,0,0,0-3.49-4.29c-3.12-2.29-6.13-2.49-9.27.09a21.81,21.81,0,0,0-3.89,4.57,1.43,1.43,0,0,1-.7.55A6,6,0,0,0,121,18.33a.79.79,0,0,1,.08.5c-.18.87-.42,1.72-.59,2.59a9.66,9.66,0,0,0,.32,5.92c.48,1.05,1.1,2,1.65,3.05-4,1.54-7.33,4.32-10.69,7-.47-1.82-.87-3.57-1.37-5.28-.29-1-.72-2-1.15-3.15.21-.65.46-1.55.78-2.41a6.37,6.37,0,0,0,.37-2.8.86.86,0,0,1,.22-.5c.63-.77,1.29-1.51,1.9-2.29a1.29,1.29,0,0,1,1.19-.54,2.07,2.07,0,0,0,1.2-3.76,2,2,0,0,0-2.22-.08,2,2,0,0,0-1,2.09.85.85,0,0,1-.18.6c-1,.82-1.93,1.65-3,2.39-.81.59-1,.59-1.63-.22q-2.07-2.67-4-5.45A1.93,1.93,0,0,1,102.6,14a1.05,1.05,0,0,0,0-.68,2.05,2.05,0,0,0-2.26-1.68,2.09,2.09,0,0,0-1.84,2,2.06,2.06,0,0,0,1.83,2.14.67.67,0,0,1,.45.32,40.4,40.4,0,0,1,1.11,4c.26,1.37-.36,1.91-1.7,1.54s-2.55-.87-3.83-1.29c-.73-.23-1.23-.5-1.3-1.46a1.88,1.88,0,0,0-2.38-1.41,2,2,0,0,0-1.59,2.42,2.1,2.1,0,0,0,2.43,1.62,1.1,1.1,0,0,1,.7,0c1.07.82,2.16,1.63,3.15,2.55s.85,1.68-.37,2.33a17.08,17.08,0,0,1-4.89,1.48.8.8,0,0,1-.59-.25,2,2,0,1,0,.61,1.75c1-.11,1.9-.16,2.81-.32s1.79-.45,2.69-.68c1.5-.37,2.35.2,2.51,1.74.09.88.06,1.78.07,2.66a63.18,63.18,0,0,0,.71,10.56A13.82,13.82,0,0,0,102.4,48,2.82,2.82,0,0,0,105,49.6a26.8,26.8,0,0,0,8.14-1.44c1-.3,2-.66,3.08-1a32.18,32.18,0,0,0,2.62,16.47c-.45.28-.85.55-1.26.8A46.07,46.07,0,0,0,107,73.24a2.19,2.19,0,0,0-.42.62,7.42,7.42,0,0,0,.07,5.33,41.53,41.53,0,0,0,3.77,7.8c.42.67.81,1.36,1.25,2.12a6.3,6.3,0,0,1-.77,0c-1.51-.18-3-.42-4.53-.53a12.51,12.51,0,0,1-4.7-1.42c-.73-.36-1.49-.66-2.23-1s-1.23-.78-1.86-1.15a2.87,2.87,0,0,1-1.4-1.27,1.62,1.62,0,0,0-1-.7,1.37,1.37,0,0,0-1.61.7,1.49,1.49,0,0,0,.1,1.82,1.4,1.4,0,0,0,1.7.45,1.23,1.23,0,0,1,1.35.25c.53.35,1.11.63,1.67.94a1.36,1.36,0,0,0,.27.35c.77.54,1.55,1.06,2.32,1.58-1.34.13-2.66.12-4,.13a7.32,7.32,0,0,0-.8.11c-.47,0-.94-.09-1.42-.11a2.39,2.39,0,0,1-1.87-.49,1.42,1.42,0,0,0-1.84.24,1.56,1.56,0,0,0-.29,1.86,1.51,1.51,0,0,0,1.48.8,1.59,1.59,0,0,0,1.46-1.17l1.21.14a2.22,2.22,0,0,0,.49.38c1.12.43,2.25.84,3.38,1.26.5.18,1,.38,1.5.57a.49.49,0,0,1-.36.2c-1.41.13-2.82.27-4.23.38a3.28,3.28,0,0,1-2.22-.16,1.22,1.22,0,0,0-1,.09,1.61,1.61,0,0,0-1,1.51,1.72,1.72,0,0,0,1.06,1.39,1.49,1.49,0,0,0,1.77-.49.94.94,0,0,1,.89-.42c3.3.14,6.6.25,9.9.37a6.93,6.93,0,0,1,1,.16c2.76.61,5.52,1.23,8.29,1.81a2,2,0,0,0,1.64-.22A4.51,4.51,0,0,0,118.27,93c-.33-2.72-.6-5.46-1-8.17a11.29,11.29,0,0,0-1.88-5.13c-.27-.35.09-1,.52-1.11,2.63-.42,5.27-.76,7.87-1.3a14.33,14.33,0,0,0,6-2.5,4.78,4.78,0,0,1,3.41-1,23.44,23.44,0,0,0,2.77-.19,1.36,1.36,0,0,1,.78.12c1.45.91,2.83,1.93,4.32,2.77a18.52,18.52,0,0,0,7.08,2.42c1,.12,2.06.14,3.13.21-.21.94-.38,1.9-.63,2.83a24.66,24.66,0,0,0-.89,8.84.94.94,0,0,1-.14.59,4,4,0,0,0-.42,4c.54,1.54,2,2.69,3.36,2.45,2.12-.38,4.23-.83,6.33-1.29a21.55,21.55,0,0,1,4.6-.75c2.73,0,5.46-.18,8.19-.3.47,0,.86,0,1.18.47a1.56,1.56,0,0,0,2.06.25,1.43,1.43,0,0,0,.42-2,1.47,1.47,0,0,0-2.06-.74,1.74,1.74,0,0,1-.84.14c-1.73-.14-3.45-.32-5.18-.49a4.74,4.74,0,0,1-.58-.14c1.35-.5,2.54-.93,3.7-1.39.55-.21,1.07-.49,1.61-.74l-1.42-1.42c-.67,0-1.34-.08-2-.09s-1.57,0-2.36,0a21.16,21.16,0,0,1,2.12-1.58c.72-.48,1.45-.94,2.16-1.44A1.24,1.24,0,0,1,171.8,86a1.44,1.44,0,0,0,1.92-1,1.56,1.56,0,1,0-2.95-1,1,1,0,0,1-.38.44c-1.76,1-3.51,1.94-5.31,2.84a10,10,0,0,1-3.91,1.17c-.89,0-1.77.21-2.65.32l-2.71.29a2,2,0,0,1,.06-.27,3.53,3.53,0,0,1,.21-.32,46.33,46.33,0,0,0,4.66-8.26,6.08,6.08,0,0,0,.56-3.39A13.17,13.17,0,0,0,158.44,71a27.5,27.5,0,0,0-8-6.59c-.7-.41-1.41-.8-2.11-1.19.42-.79.85-1.5,1.18-2.25a22.24,22.24,0,0,0,1.68-10.16c0-1-.17-2.07-.2-3.11a3.06,3.06,0,0,1,.29-.92,4.6,4.6,0,0,1,.72.31,18.46,18.46,0,0,0,7.18,3,5.3,5.3,0,0,0,4.14-.72,6.34,6.34,0,0,0,2.23-3.15,21.25,21.25,0,0,0,1.13-7.16c0-2.08,0-4.15.13-6.22.13-2.63,1.16-3.52,3.8-3.45,1.52,0,3,.1,4.56.1a1,1,0,0,1,1.13.61,2,2,0,0,0,3.16.44,2.13,2.13,0,0,0,0-3"/><path class="cls-7" d="M145.83,29.77s3-1.2,3-6.1-1.5-5.64-1.5-5.64a6.29,6.29,0,0,0,.09-6.24,6.45,6.45,0,0,0-4.89-3.61s-2.8-6.12-8.54-6.51v0h-.4v0c-5.74.39-8.54,6.51-8.54,6.51a6.43,6.43,0,0,0-4.89,3.61,6.29,6.29,0,0,0,.09,6.24s-1.5.74-1.5,5.64,3,6.1,3,6.1a32.45,32.45,0,0,0-6.64,25.38c2.37,14.57,9.64,18.82,18.13,19.14v0h1.08v0c8.49-.32,15.76-4.57,18.13-19.14a32.45,32.45,0,0,0-6.64-25.38"/><path class="cls-4" d="M142.54,8.18a6.38,6.38,0,0,1,4.89,3.61c1.62,3.36.67,5.23-.09,6.24s-4.8-9.85-4.8-9.85"/><path class="cls-4" d="M125,8.18a6.38,6.38,0,0,0-4.89,3.61c-1.62,3.36-.67,5.23.1,6.24S125,8.18,125,8.18"/><line class="cls-2" x1="165.56" y1="63.52" x2="181.05" y2="66.9"/><path class="cls-1" d="M191.57,71.28a7.24,7.24,0,0,1,.34,1.7c0,.79-.78.5-.78.5a.82.82,0,0,1-.58.89c-.7.3-1-.94-2.17-1s-1.48-2.5-1.48-2.5-.07.89-1.34,1.1-4.33-4.24-4.33-4.24l15.94,2.37-3.34,1.47a1.87,1.87,0,0,1-2.26-.33"/><path class="cls-1" d="M191.43,63.42c.63.57.42,1.08.42,1.08s.83,0,.68.8a6.25,6.25,0,0,1-.6,1.51,1.84,1.84,0,0,1,2.24.58l3,2.75-15.8-4.06S185,63,186.23,63.7a1.89,1.89,0,0,1,1.12,1.61s.69-2.28,1.82-1.83,1.62-.64,2.26-.06"/><polygon class="cls-1" points="181 67.43 181.11 66.36 165.62 62.98 165.51 64.05 181 67.43"/><path class="cls-1" d="M218.38,37.07a7.87,7.87,0,0,1,.43,1.69c.08.79-.74.55-.74.55a.82.82,0,0,1-.52.92c-.68.35-1.05-.89-2.21-.84S213.72,37,213.72,37s0,.91-1.26,1.19-4.54-4-4.54-4l15.93,1.5-3.22,1.67a1.82,1.82,0,0,1-2.25-.21"/><path class="cls-1" d="M217.76,29.16c.66.55.49,1.07.49,1.07s.82,0,.71.76a6.22,6.22,0,0,1-.5,1.56,1.8,1.8,0,0,1,2.25.46l3.14,2.6L208,32.41s3.45-3.31,4.68-2.67,1.2,1.55,1.2,1.55.55-2.32,1.7-1.94,1.57-.73,2.23-.19"/><path class="cls-1" d="M204.57,8.68a7.92,7.92,0,0,1,1.77.2.62.62,0,0,1,.48.9,1.15,1.15,0,0,1,.88.83c.29.77-1,.67-1.07,1.78s-2.63.66-2.63.66a1.92,1.92,0,0,1,1.08,1.62c.17,1.28-4.54,2.85-4.54,2.85L203.62,3,205,6.61a1.47,1.47,0,0,1-.43,2.07"/><path class="cls-1" d="M196.46,6.39a1,1,0,0,1,1.14-.07s.08-.78.84-.4A9.24,9.24,0,0,1,200,7a1.48,1.48,0,0,1,.68-2l3-2-4.81,13.91s-3-4.47-2.26-5.4a1.58,1.58,0,0,1,1.7-.58s-2.31-1.36-1.81-2.31-.59-1.75,0-2.19"/><path class="cls-1" d="M198.91,17.45c-10.44,22.3-24.36,39.81-41.57,52.18-1.92,1.38-3.89,2.69-5.89,3.94.13.38.26.77.36,1.16q3.19-2,6.26-4.17C175.44,58.08,189.48,40.42,200,17.93,199.63,17.78,199.26,17.63,198.91,17.45Z"/><line class="cls-2" x1="192.01" y1="31.39" x2="207.56" y2="33.36"/><polygon class="cls-1" points="207.56 33.91 207.56 32.82 192.01 30.85 192.01 31.93 207.56 33.91"/><path class="cls-1" d="M211.89,47.55s-11.83-1.82-11.72-12.45c11.12,1.07,11.72,12.45,11.72,12.45"/><path class="cls-1" d="M214.32,17.52s-2.91,10.6-13.74,6.73c2.08-10.18,13.74-6.73,13.74-6.73"/><path class="cls-1" d="M183.83,84.38s-10.76-6.13-6.26-15.28c10.37,5.2,6.26,15.28,6.26,15.28"/><path class="cls-8" d="M111.81,98.07c-13.91,7.33-24.59,21-32.91,35.83l-4.57-7.66c-2.43-3-2.89-9.81-2.75-14.52l14-4.78L73,103.65c-.55-5.47,1.83-9.72,7.26-12.69l14.32,3.42-8.2-6.71c2.89-4.56,6.79-7.18,12.7-6Z"/><path class="cls-7" d="M119,97c.75-.31-8-15.32-8-15.32-6.52-.9-10.36.65-12.43,3.81l10.23,9.37A31.07,31.07,0,0,0,92,89.62c-4.68-.37-7.88,2.13-10.77,5.24a44.76,44.76,0,0,1,6.88,7.08c-7.25-1.54-11.83,1.1-13.5,8.28a11.66,11.66,0,0,0,1.07,6.63c5.09-3.39,9.64-4.36,13.51-2.24-9.24,2.22-11.09,6.93-12.53,11.77-1.78,6-1,10.41,1.55,13.83,0,0,12.3-31.25,40.88-43.21"/><path class="cls-8" d="M155.51,98.07c13.91,7.33,24.58,21,32.91,35.83l4.57-7.66c2.43-3,2.89-9.81,2.75-14.52l-14-4.78,12.64-3.29c.55-5.47-1.83-9.72-7.26-12.69l-14.32,3.42,8.2-6.71c-2.89-4.56-6.79-7.18-12.71-6Z"/><path class="cls-7" d="M148.28,97c-.76-.31,8-15.32,8-15.32,6.52-.9,10.36.65,12.43,3.81l-10.23,9.37a31,31,0,0,1,16.85-5.24c4.68-.37,7.89,2.13,10.77,5.24a45.16,45.16,0,0,0-6.87,7.08c7.24-1.54,11.83,1.1,13.5,8.28a11.57,11.57,0,0,1-1.08,6.63c-5.08-3.39-9.63-4.36-13.5-2.24,9.24,2.22,11.08,6.93,12.52,11.77,1.79,6,1,10.41-1.55,13.83,0,0-12.29-31.25-40.87-43.21"/><path class="cls-7" d="M148.79,100.4V53h26.46V76.55s-1.06,11.14-9.94,18.29-16.52,5.56-16.52,5.56"/><path class="cls-4" d="M161.73,51.22c1.12,15.23,1.46,45.27-12.94,47.41V51.22Z"/><polygon class="cls-1" points="172.53 46.83 194.77 49.63 172.53 53.91 172.53 46.83"/><path class="cls-4" d="M161.91,37.65c7.31,0,13.24,6.19,13.24,13.83H148.68c0-7.64,5.93-13.83,13.23-13.83"/><path class="cls-3" d="M162.1,65.06c-7.31,0-13.23-6.2-13.23-13.84h26.46c0,7.64-5.92,13.84-13.23,13.84"/><path class="cls-9" d="M158.61,50.37A3.39,3.39,0,1,0,162,46.83a3.46,3.46,0,0,0-3.38,3.54"/><path class="cls-1" d="M118.15,89.6S138.88,99.25,152,75.34C129.64,68.72,118.15,89.6,118.15,89.6Z"/><path class="cls-6" d="M126.52,79.22S138.78,88.86,151.2,75C137.4,67.15,126.52,79.22,126.52,79.22Z"/><path class="cls-1" d="M116.25,66.36S127.19,86.44,151.93,75C137.9,56.4,116.25,66.36,116.25,66.36Z"/><path class="cls-6" d="M130.5,61.18s2.21,15.44,20.74,14C146.7,60,130.5,61.18,130.5,61.18Z"/><path class="cls-1" d="M130.11,45.74s-4.53,22.41,21.77,29.56C153.09,52,130.11,45.74,130.11,45.74Z"/><circle class="cls-1" cx="105.63" cy="67.67" r="15.01"/><path class="cls-1" d="M99.56,59.34S98,48.65,88,49.2c-.52,2.74-1,5.74-1,5.74s5.77-1,11,5.6S99.56,59.34,99.56,59.34Z"/><path class="cls-6" d="M93.65,58a14.23,14.23,0,0,1,3.28-2.21,14,14,0,0,1,3.1-2.45c-.41-.11,7.06,0,7,3.85,0,1.89-5.11,5.53-5.1,5.52s-5,3.75-6.82,3.18C91.52,64.68,93.67,57.53,93.65,58Z"/><path class="cls-6" d="M97.53,55.36s1-10.51,7.76-5.67C107.53,51,97.53,55.36,97.53,55.36Z"/><path class="cls-6" d="M95.83,56.6s-10.32-2.25-7.77,5.67C88.65,64.8,95.83,56.6,95.83,56.6Z"/><circle class="cls-1" cx="82.24" cy="86.22" r="16.77"/><circle class="cls-8" cx="82.24" cy="86.22" r="12.89"/><path class="cls-4" d="M81.28,84.52V75a6.66,6.66,0,0,0-6.62,3Z"/><path class="cls-4" d="M79.6,85.39l-6.17-6.14A5.81,5.81,0,0,0,71,85.39Z"/><path class="cls-4" d="M83.09,75v8.87l6.37-6.4A6.31,6.31,0,0,0,83.09,75Z"/><path class="cls-4" d="M79.74,87.2H71c-.38,2.78.4,5,2.5,6.26Z"/><path class="cls-4" d="M84,87.2l6.77,6.73a6.7,6.7,0,0,0,2.92-6.73Z"/><path class="cls-4" d="M84.09,85.39h9.58c.23-3.32-.9-5.53-2.9-6.71Z"/><path class="cls-4" d="M81.28,88.21l-6.51,6.55C76,96.64,78,97.85,81.28,97.62Z"/><path class="cls-4" d="M83.09,88.86v8.77a6.09,6.09,0,0,0,6.35-2.45Z"/><path class="cls-6" d="M132.27,106.69c1.36-7.92,4.52-14.38,12.95-16.57,1.73.29,3.31.67,4,1.6.42-.65,1.21-.72,2.44-.11a6.53,6.53,0,0,1,3.18,3.61c5.7.28,9,2.71,10.3,7-.77,5.56-3.85,8.46-7.64,10.54l-6.69,2.3a31,31,0,0,1-18.58-8.38"/><path class="cls-6" d="M132.38,106.69c-1.36-7.92-4.52-14.38-13-16.57a15.58,15.58,0,0,0-4,1.6s-1.41-.94-2.44-.11a6.54,6.54,0,0,0-3.19,3.61c-5.7.28-9,2.71-10.3,7,.77,5.56,3.85,8.46,7.65,10.54l6.69,2.3a31,31,0,0,0,18.58-8.38"/><path class="cls-6" d="M132.27,106.38a13.66,13.66,0,0,1,8.92,3.71l4.88,5.21a12.72,12.72,0,0,1,6.05,2c7.43,6.6,8,11.7,4.14,15.82a46.33,46.33,0,0,1-14.65-10.61,143.28,143.28,0,0,1-9.34-16.14"/><path class="cls-6" d="M132.38,106.38a13.64,13.64,0,0,0-8.92,3.71l-4.89,5.21a12.79,12.79,0,0,0-6,2c-7.42,6.6-8,11.7-4.14,15.82A46.11,46.11,0,0,0,123,122.52a144.9,144.9,0,0,0,9.35-16.14"/><polygon class="cls-10" points="132.27 106.38 124.68 118.41 139.86 118.41 132.27 106.38"/><path class="cls-3" d="M138.31,121.16c0,4.85-2.71,8.78-6,8.78s-6-3.93-6-8.78,2.7-8.77,6-8.77,6,3.93,6,8.77"/><path class="cls-1" d="M126.1,113c-1.09.66-1.28,2.29-1.06,4.35-2.32.91-3.71,2.61-3.71,4.67a2.65,2.65,0,0,0,3.07,2.66l1.38,6.16c.78,2.07,2.36,1.82,3.93,1.59-.27,3,.95,3.82,2.55,4.14V127c-4.17-4.09-4.61-8.69,0-14,.29-1.91-5.71-1.8-6.16,0"/><path class="cls-1" d="M139.5,117.37c.22-2.06,0-3.69-1.06-4.35-.45-1.79-6.45-1.91-6.16,0,4.61,5.32,4.17,9.92,0,14v9.56c1.6-.32,2.82-1.16,2.55-4.14,1.57.23,3.15.48,3.93-1.59l1.38-6.16a2.66,2.66,0,0,0,3.08-2.66c0-2.06-1.4-3.76-3.72-4.67"/><rect class="cls-11" width="270.74" height="141.85"/></g></g></svg>