<svg xmlns="http://www.w3.org/2000/svg" viewBox="0 0 288.7 151.27"><defs><style>.cls-1{isolation:isolate;}.cls-2{fill:none;}.cls-3{fill:#002735;}.cls-4{fill:#4a82c3;}.cls-5{fill:#f9bb15;}.cls-6{fill:#ec6755;}.cls-7{opacity:0.05;mix-blend-mode:multiply;}.cls-8{fill:#5e0e1f;}.cls-9{fill:#059370;}.cls-10{fill:#f9d445;}.cls-11{fill:#0f9377;}.cls-12{fill:#f26e5b;}.cls-13{fill:#3882c4;}.cls-14{fill:#04223e;}.cls-15{opacity:0.3;}.cls-16{fill:#ffedd8;}.cls-17{fill:#112f39;}</style></defs><g class="cls-1"><g id="Capa_2" data-name="Capa 2"><g id="Layer_1" data-name="Layer 1"><rect class="cls-2" width="288.7" height="151.27"/><path class="cls-3" d="M173.27,18c-6.76,9.15,5.52,33.6,0,44.91C159.33,65.69,167,96.47,167,96.47S205,98,188.53,43.2Z"/><path class="cls-4" d="M158.24,28.7c-.6-9.11-3.38-18.43-7.89-27.91l-10.47,12.6L129.4.79c-4.51,9.48-7.28,18.8-7.89,27.91-.05.54-.08,1.09-.08,1.64,0,9.36,8.26,17,18.45,17s18.45-7.59,18.45-16.95A14.88,14.88,0,0,0,158.24,28.7Z"/><path class="cls-4" d="M173.69,56c10.81,15.74,10.56,30.58,2.07,36.4s-22,.43-32.8-15.31-12.68-33.23-4.19-39S162.89,40.25,173.69,56Z"/><path class="cls-5" d="M184.1,79.44c0,12-8.92,17-19.93,17s-19.93-5-19.93-17,8.92-21.7,19.93-21.7S184.1,67.45,184.1,79.44Z"/><path class="cls-5" d="M167,96.47c-.73,0-27.15,0-27.15,0-.46-4.85,13.67-6.67,24.94-9.08Z"/><path class="cls-4" d="M134.5,43.84s-11.22-6-6.21,48.09h7.6l4-41.61Z"/><path class="cls-4" d="M121.25,96.63h15.46q-.33-3.7-.56-7.05C128,91.26,120.92,93.17,121.25,96.63Z"/><circle class="cls-5" cx="187.8" cy="25.98" r="17.22"/><circle class="cls-3" cx="131.4" cy="22.4" r="4.4"/><circle class="cls-3" cx="148.64" cy="22.4" r="4.4"/><circle class="cls-4" cx="148.64" cy="22.4" r="2.2"/><circle class="cls-4" cx="131.4" cy="22.4" r="2.2"/><polygon class="cls-5" points="139.88 21.98 135.01 32.86 145.72 32.86 139.88 21.98"/><circle class="cls-6" cx="190.56" cy="131.59" r="18.88" transform="translate(-37.24 173.29) rotate(-45)"/><path class="cls-7" d="M190.56,142.19a18.9,18.9,0,0,1-18.43-14.74,19.45,19.45,0,0,0-.46,4.14A18.89,18.89,0,1,0,209,127.45,18.89,18.89,0,0,1,190.56,142.19Z"/><path class="cls-8" d="M203.23,119.11a4,4,0,0,1-2.49-1.48,4.28,4.28,0,0,1,2.38-1.16.87.87,0,0,1,.94,1.28C203.83,118.14,203.56,118.59,203.23,119.11Z"/><path class="cls-5" d="M60.62,118.06l2.18-1.22,15.78.83,9.57,5s46.58,9.38,51.5,9.27C139.65,131.91,85.22,152.5,60.62,118.06Z"/><path class="cls-9" d="M63,116.87c0-.89.4-1.94,2.74-1.94h78.41s18.46.52,20.92-10.56h-2.87a6.83,6.83,0,0,1-1.88-.26c-4.55-.17-8.19-3.45-8.19-7.48h12.46a2.44,2.44,0,0,1,2.58,2.26,2.43,2.43,0,0,1,2.58-2.26h12.45c0,4.07-3.7,7.37-8.32,7.48a6.69,6.69,0,0,1-1.86.26h-3c-.88,2.48-8.25,21.68-29.21,27.56l-25.55-.05c3.76,6.32,8.36,13.18,8.36,13.18-15.11.83-19.93-9.28-21.45-16.49l-36.54-9.22Z"/><rect class="cls-10" x="140.33" y="91.83" width="9.36" height="4.41"/><rect class="cls-11" x="140.33" y="87.42" width="9.36" height="4.41"/><rect class="cls-3" x="140.33" y="83.01" width="9.36" height="4.41"/><rect class="cls-12" x="140.33" y="78.59" width="9.36" height="4.41"/><rect class="cls-12" x="130.4" y="91.83" width="9.36" height="4.41"/><rect class="cls-13" x="130.4" y="87.42" width="9.36" height="4.41"/><rect class="cls-10" x="130.4" y="83.01" width="9.36" height="4.41"/><rect class="cls-12" x="120.35" y="91.83" width="9.36" height="4.41"/><rect class="cls-10" x="120.35" y="87.42" width="9.36" height="4.41"/><rect class="cls-3" x="110.25" y="91.83" width="9.36" height="4.41"/><rect class="cls-13" x="110.25" y="87.42" width="9.36" height="4.41"/><rect class="cls-3" x="110.25" y="83.01" width="9.36" height="4.41"/><rect class="cls-3" x="100.16" y="91.83" width="9.36" height="4.41"/><rect class="cls-3" x="100.16" y="96" width="9.36" height="0.24"/><rect class="cls-10" x="100.16" y="87.42" width="9.36" height="4.41"/><rect class="cls-12" x="100.16" y="83.01" width="9.36" height="4.41"/><rect class="cls-3" x="165.9" y="91.83" width="9.36" height="4.41"/><rect class="cls-11" x="165.9" y="87.42" width="9.36" height="4.41"/><rect class="cls-12" x="165.9" y="83.01" width="9.36" height="4.41"/><rect class="cls-13" x="175.83" y="91.83" width="9.36" height="4.41"/><rect class="cls-10" x="175.83" y="87.42" width="9.36" height="4.41"/><rect class="cls-11" x="185.88" y="91.83" width="9.36" height="4.41"/><rect class="cls-3" x="185.88" y="83.01" width="9.36" height="4.41"/><rect class="cls-10" x="185.88" y="87.42" width="9.36" height="4.41"/><rect class="cls-12" x="185.88" y="78.59" width="9.36" height="4.41"/><rect class="cls-13" x="195.98" y="91.83" width="9.36" height="4.41"/><rect class="cls-3" x="195.98" y="87.42" width="9.36" height="4.41"/><rect class="cls-13" x="175.83" y="83.01" width="9.36" height="4.41"/><polygon class="cls-14" points="95.59 68.34 96.27 91.02 94.92 91.02 95.59 68.34"/><path class="cls-14" d="M95.59,67.74h0a.62.62,0,0,1,.62.62V69H95v-.59A.62.62,0,0,1,95.59,67.74Z"/><polygon class="cls-3" points="99.74 115.74 217.62 115.74 228.08 93.16 197.85 93.16 196.16 96.25 110.33 96.25 105.94 91.28 75.04 89.52 99.74 115.74"/><rect class="cls-13" x="152.55" y="69.05" width="10.78" height="27.2"/><rect class="cls-15" x="152.55" y="69.05" width="10.78" height="1.56"/><rect class="cls-13" x="149.13" y="65.41" width="17.62" height="3.76"/><rect class="cls-14" x="154.06" y="61.6" width="7.75" height="3.81"/><polygon class="cls-12" points="97.15 113 218.89 113 219.66 111.34 95.59 111.34 97.15 113"/><rect class="cls-14" x="153.28" y="72.29" width="1.98" height="2.55"/><rect class="cls-14" x="156.89" y="72.29" width="1.98" height="2.55"/><rect class="cls-14" x="160.51" y="72.29" width="1.98" height="2.55"/><path class="cls-6" d="M153.28,139.09a28.66,28.66,0,0,0,28.66-27.88.77.77,0,0,0-.77-.79H125.4a.78.78,0,0,0-.78.79A28.67,28.67,0,0,0,153.28,139.09Z"/><path class="cls-16" d="M153.28,134a23.61,23.61,0,0,0,23.61-23.61H129.67A23.61,23.61,0,0,0,153.28,134Z"/><path class="cls-6" d="M154.05,116.09l-.47,14.19a1.31,1.31,0,0,0,1.44,1.31,21.9,21.9,0,0,0,12.13-4.78,1.24,1.24,0,0,0,0-1.9l-10.88-9.71A1.35,1.35,0,0,0,154.05,116.09Z"/><path class="cls-6" d="M157.4,114.16l10.21,10.35a1.38,1.38,0,0,0,2,0,19.75,19.75,0,0,0,5-11.54,1.3,1.3,0,0,0-1.38-1.36l-14.92.45A1.26,1.26,0,0,0,157.4,114.16Z"/><path class="cls-6" d="M148.23,112l-14.92-.45a1.3,1.3,0,0,0-1.38,1.36,19.75,19.75,0,0,0,5,11.54,1.38,1.38,0,0,0,2,0l10.21-10.35A1.26,1.26,0,0,0,148.23,112Z"/><path class="cls-6" d="M150.26,115.2l-10.88,9.71a1.24,1.24,0,0,0,0,1.9,21.93,21.93,0,0,0,12.14,4.78,1.31,1.31,0,0,0,1.43-1.31l-.47-14.19A1.35,1.35,0,0,0,150.26,115.2Z"/><path class="cls-5" d="M107.54,78.06C109,69.42,112.48,62.37,121.68,60c1.89.31,3.61.72,4.41,1.73.46-.7,1.32-.78,2.66-.11a7.16,7.16,0,0,1,3.48,3.94c6.22.3,9.85,3,11.24,7.65-.84,6.07-4.2,9.24-8.34,11.51l-7.31,2.51a33.9,33.9,0,0,1-20.28-9.16"/><path class="cls-5" d="M107.66,78.06c-1.48-8.64-4.93-15.69-14.14-18.07a16.94,16.94,0,0,0-4.4,1.73s-1.55-1-2.67-.11A7.16,7.16,0,0,0,83,65.55c-6.22.3-9.85,3-11.24,7.65.84,6.07,4.21,9.24,8.35,11.51l7.3,2.51a33.84,33.84,0,0,0,20.28-9.16"/><path class="cls-5" d="M107.54,77.73a14.92,14.92,0,0,1,9.74,4l5.33,5.68a13.91,13.91,0,0,1,6.6,2.21c8.11,7.2,8.74,12.76,4.52,17.26a50.38,50.38,0,0,1-16-11.59,155.83,155.83,0,0,1-10.2-17.61"/><path class="cls-5" d="M107.66,77.73a14.94,14.94,0,0,0-9.74,4l-5.33,5.68A13.91,13.91,0,0,0,86,89.67c-8.11,7.2-8.74,12.76-4.52,17.26a50.38,50.38,0,0,0,16-11.59,155.83,155.83,0,0,0,10.2-17.61"/><polygon class="cls-17" points="107.54 77.73 99.26 90.86 115.83 90.86 107.54 77.73"/><path class="cls-9" d="M114.13,93.87c0,5.29-2.95,9.57-6.59,9.57S101,99.16,101,93.87s3-9.58,6.59-9.58,6.59,4.29,6.59,9.58"/><path class="cls-6" d="M100.81,85c-1.19.72-1.4,2.49-1.16,4.75-2.53,1-4.05,2.84-4.05,5.1A2.89,2.89,0,0,0,99,97.72l1.5,6.73c.85,2.26,2.58,2,4.29,1.73-.3,3.25,1,4.18,2.78,4.52V100.27c-4.55-4.46-5-9.49,0-15.29.32-2.08-6.23-2-6.72,0"/><path class="cls-6" d="M115.43,89.73c.24-2.26,0-4-1.15-4.75-.49-2-7-2.08-6.73,0,5,5.8,4.55,10.83,0,15.29V110.7c1.75-.34,3.09-1.27,2.79-4.52,1.71.26,3.43.53,4.28-1.73l1.51-6.73a2.89,2.89,0,0,0,3.36-2.89c0-2.26-1.52-4.11-4.06-5.1"/></g></g></g></svg>