<svg xmlns="http://www.w3.org/2000/svg" viewBox="0 0 335.82 175.95"><defs><style>.cls-1{fill:#4a82c3;}.cls-2{fill:#f9bb15;}.cls-3{fill:#059370;}.cls-4{fill:#f37061;}.cls-5{fill:#002735;}.cls-16,.cls-6,.cls-8{fill:none;}.cls-6{stroke:#ec6755;stroke-width:2px;}.cls-6,.cls-8{stroke-miterlimit:10;}.cls-7{fill:#ec6755;}.cls-8{stroke:#253e47;stroke-width:1.45px;}.cls-9{fill:#253e47;}.cls-10{fill:#f9f9df;}.cls-11{fill:#00b1d6;}.cls-12{fill:#f5f7d4;}.cls-13{fill:#ea6755;}.cls-14{fill:#08233f;}.cls-15{fill:#3a80c3;}</style></defs><g id="Capa_2" data-name="Capa 2"><g id="Layer_1" data-name="Layer 1"><path class="cls-1" d="M134.88,30.94c-4-3.5-8.57-3.39-12.52-4.39-.23,2.59-2.33,4.54-15.32,4.54-16.63,0,.51-25.21,8.35-29.08V2c-2.45.36-21.61,7.27-20,27.82s20.9,24.36,20.9,24.36-1.2,3.6,0,4.87c.92-2.81,1.13-4,9.33-4.31-.78.71,0,4.1,0,4.1s1.19-4.1,5.11-4.1,7.74-.07,7.74-.07l-18,28.39h20.76a3.39,3.39,0,0,0,2.68-1.41,3.72,3.72,0,0,0,1.06-3l0-24S148,41.67,134.88,30.94Z"/><path class="cls-2" d="M117.58,24.23c-1.41-1.25-2.12-3.68-2.44-6.49a4.55,4.55,0,0,1-3.91-.18c-2.52-1.45-3-5.41-1-8.84a8.09,8.09,0,0,1,5-4,13,13,0,0,0,0-2.72c-7.84,3.87-25,29.08-8.35,29.08,13,0,15.1-1.95,15.32-4.54A10.8,10.8,0,0,1,117.58,24.23Z"/><path class="cls-3" d="M108.8,8.72c-2.55,3.43-2,7.39,1.25,8.84a7.43,7.43,0,0,0,5,.18c-.66-4.43-.08-9.8.18-13A10.42,10.42,0,0,0,108.8,8.72Z"/><path class="cls-2" d="M137.52,7.82c.9,2.37,1.79,5.33.89,5.9-1.35.86-16.75-.8-20.83-1.25v2a3.6,3.6,0,0,0,1.2,2.4c1.13.92,1.69,1.34,4.23,1.41s20.2,0,20.2,0a5.27,5.27,0,0,1,4.52,2.19C148.73,22.05,146.09,13.14,137.52,7.82Z"/><path class="cls-4" d="M138.41,13.72c.9-.57,0-3.53-.89-5.9C132.8,4.88,126.28,3,117.58,4.61v7.86C121.66,12.92,137.06,14.58,138.41,13.72Z"/><circle class="cls-5" cx="112.47" cy="9.73" r="1.23"/><path class="cls-3" d="M134.88,30.94c-3.61-3.17-7.69-3.38-11.37-4.13.13,5.24,1.95,24.92,21.49,28.67v-.82S148,41.67,134.88,30.94Z"/><path class="cls-1" d="M201.38,35.82a22.86,22.86,0,0,0,.39-8c-5.46,7.13-10.26,5.8-13.5,4.81,3.9-2.39,12.25-3.82,13.25-7.1a10.65,10.65,0,0,0-1.39-5.88s-6.18,8.29-11.91,4.77c3.39-.61,11.91-4.77,11.18-6.95a22.13,22.13,0,0,0-1.93-4.08s-5.3,9.45-8.82,4.86a12.69,12.69,0,0,0,7.81-6.86c-1-2-1.61-2.65-3.9-4.54,0,1.57-4.21,6-4.21,6S191.48,6.3,191.6,6s-4.78-3.59-4.78-3.59L178.1,54.71l4.78.82c-1.09-.46-2.08-16.32-1.42-16.13.64,9.49,6,13.35,11.15,10.78,5.27-2.24,8.06-6.39,8.22-12.55-8.72,4.46-12.4,3.56-13.4-.19A19,19,0,0,0,201.38,35.82Zm-13.53-22a1.37,1.37,0,1,1-.4,2A1.45,1.45,0,0,1,187.85,13.77Zm-2.49,16.52c-.42-1.14.51-2.53,2.07-3.1s3.17-.12,3.59,1-.51,2.52-2.08,3.1S185.78,31.42,185.36,30.29Z"/><path class="cls-1" d="M161.4,28.78a22.61,22.61,0,0,1,2.33-7.67c2.74,8.55,7.7,8.91,11.09,9.07C172,26.61,164.57,22.46,164.73,19A10.6,10.6,0,0,1,168,14s3,9.89,9.61,8.5c-3-1.72-9.61-8.5-8.18-10.31A22.64,22.64,0,0,1,172.63,9s1.81,10.69,6.67,7.55a12.64,12.64,0,0,1-5.05-9.08c1.61-1.54,2.41-2,5.2-3-.49,1.5,1.94,7.08,1.94,7.08s-.74-7.23-.74-7.58,5.71-1.77,5.71-1.77L177,54.4l-4.78-.83c1.19-.07,7.45-14.67,6.77-14.72-3.8,8.73-10.16,10.55-14.13,6.41-4.2-3.89-5.44-8.73-3.51-14.59C168,37.81,171.78,38.19,174,35A19,19,0,0,1,161.4,28.78Zm20.16-16.21a1.37,1.37,0,1,0-.3,2A1.46,1.46,0,0,0,181.56,12.57ZM178.34,29c.78-.93.37-2.54-.91-3.61s-2.94-1.18-3.72-.25-.36,2.55.91,3.62S177.57,29.89,178.34,29Z"/><path class="cls-6" d="M228,89.92s-22-14.67-33.11,15.24"/><path class="cls-2" d="M254.6,88.39A10.48,10.48,0,0,1,245,96a10.48,10.48,0,0,1,2.7,12c-.59-.6-25.47-4.67-19.64-18C231.9,75.92,253.76,88.48,254.6,88.39Z"/><ellipse class="cls-7" cx="237.93" cy="93.65" rx="3.76" ry="4.33" transform="translate(69.93 286.41) rotate(-70.41)"/><path class="cls-7" d="M252.64,95.69s.66,4-1.89,5.32L248,97.08Z"/><path class="cls-8" d="M231.1,63.86a214.49,214.49,0,0,0-41.74,4.56,90.08,90.08,0,0,0,13.28-20.25"/><path class="cls-2" d="M219,64.15a8.15,8.15,0,0,0-5.63,5.74,7.59,7.59,0,0,0,2.53,7.58,9,9,0,0,0,6,1.75,17.79,17.79,0,0,0,6.28-1.7,14.11,14.11,0,0,0,13.86-1.83,41.17,41.17,0,0,0,4.29-4.27,40.64,40.64,0,0,1,10.76-8,20.91,20.91,0,0,1-8.05-4.25c-2.61-2.18-4.68-5-7.62-6.73-3.54-2.06-7.95-2.17-11.92-1.19-3.13-1.1-6.54-1.93-9.71-1s-5.88,4-5.49,7.33C214.62,60.21,217,62.49,219,64.15Z"/><path class="cls-9" d="M218.65,64c6.4-.35,12.73-.75,19.12-1,3.19-.11,6.39-.21,9.59-.14a68.29,68.29,0,0,1,9.58.71c-3.2.08-6.38.27-9.56.42l-9.55.46A120.47,120.47,0,0,1,218.65,64Z"/><path class="cls-9" d="M223.59,79a9.62,9.62,0,0,1-4.17-3,6.18,6.18,0,0,1-1.13-2.48,5.47,5.47,0,0,1,.21-2.81,10.2,10.2,0,0,1,3.14-4.22,11.19,11.19,0,0,1,4.5-2.35,21.67,21.67,0,0,0-3.72,3.17,12,12,0,0,0-2.55,3.87,5,5,0,0,0,.49,4.21A16,16,0,0,0,223.59,79Z"/><path class="cls-9" d="M233.69,78.59a3.7,3.7,0,0,1-2.15-.7,7.64,7.64,0,0,1-1.68-1.58A8.6,8.6,0,0,1,228.09,72a8.33,8.33,0,0,1,.82-4.57A7.29,7.29,0,0,1,232,64.19a11.62,11.62,0,0,0-2,3.69,9.32,9.32,0,0,0-.43,4,9.69,9.69,0,0,0,1.26,3.81A6.6,6.6,0,0,0,233.69,78.59Z"/><path class="cls-9" d="M242.28,75.56a9.81,9.81,0,0,1-3.74-1.46,8.82,8.82,0,0,1-1.63-1.28,5.18,5.18,0,0,1-1.18-1.89,5.6,5.6,0,0,1,.36-4.26,7,7,0,0,1,2.82-2.91,12.41,12.41,0,0,0-1.77,3.34,5.47,5.47,0,0,0,0,3.37,6.58,6.58,0,0,0,2.12,2.73A30.93,30.93,0,0,0,242.28,75.56Z"/><path class="cls-9" d="M247.6,70.13a3.85,3.85,0,0,1-2.78.16,5.78,5.78,0,0,1-2.48-1.45,5,5,0,0,1-1.47-2.51,2.76,2.76,0,0,1,.78-2.71A3.56,3.56,0,0,0,242,66a6.76,6.76,0,0,0,1.4,1.83A8.34,8.34,0,0,0,247.6,70.13Z"/><path class="cls-9" d="M252.24,66.48a2.7,2.7,0,0,1-1.55.21,3.71,3.71,0,0,1-2.58-1.59,2.63,2.63,0,0,1-.5-1.48,12.71,12.71,0,0,1,1.29.67c.38.22.74.43,1.09.65l1.08.69A11.67,11.67,0,0,1,252.24,66.48Z"/><path class="cls-9" d="M247.66,63.4a2.1,2.1,0,0,1,.17-1.3,2.89,2.89,0,0,1,.76-1,2.84,2.84,0,0,1,1.12-.57,2,2,0,0,1,1.31.06,7.32,7.32,0,0,1-.76.93,9.46,9.46,0,0,1-.74.69c-.25.21-.52.4-.81.6A7.57,7.57,0,0,1,247.66,63.4Z"/><path class="cls-9" d="M241.59,63.67a4.63,4.63,0,0,1,1.54-4.23,5.65,5.65,0,0,1,2-1.16,10.69,10.69,0,0,1,1.07-.3,2.67,2.67,0,0,1,1.16,0c-.61.43-1.1.94-1.7,1.34a19.08,19.08,0,0,0-1.55,1.23,11.2,11.2,0,0,0-1.32,1.42C242.38,62.45,242,63,241.59,63.67Z"/><path class="cls-9" d="M238.71,63.74a5.2,5.2,0,0,1-2.79-2.67,6,6,0,0,1,1.71-7.42,5.27,5.27,0,0,1,3.68-1.18,8,8,0,0,0-2.91,2,6.52,6.52,0,0,0-1.55,2.9,6.43,6.43,0,0,0,.12,3.28A7.76,7.76,0,0,0,238.71,63.74Z"/><path class="cls-9" d="M232,64a5.38,5.38,0,0,1-3.25-2.41,8.44,8.44,0,0,1-1.45-3.91,7.33,7.33,0,0,1,.1-2.14,6.34,6.34,0,0,1,.77-2,5.17,5.17,0,0,1,3.2-2.5,7.23,7.23,0,0,0-2.63,6.49,10.39,10.39,0,0,0,1,3.48A7.69,7.69,0,0,0,232,64Z"/><path class="cls-9" d="M225.44,64a12.25,12.25,0,0,1-4.19-2.21,7.13,7.13,0,0,1-2.57-4.25,6.69,6.69,0,0,1,1-4.89,6,6,0,0,1,4-2.58,7.62,7.62,0,0,0-3,3.16,6.57,6.57,0,0,0-.58,4.06A7.2,7.2,0,0,0,222,61,33.71,33.71,0,0,0,225.44,64Z"/><path class="cls-10" d="M246.4,64.26c.14.27-2.11.58-5.12.77a6.7,6.7,0,0,1,.13-1.73C244.16,63.62,246.26,64,246.4,64.26Z"/><path class="cls-1" d="M241.41,63.3a6.7,6.7,0,0,0-.13,1.73c-.8,0-1.65.09-2.52.12a6.12,6.12,0,0,1,.37-2.08Z"/><path class="cls-10" d="M236.75,62.88c.8,0,1.6.12,2.38.19a6.12,6.12,0,0,0-.37,2.08l-2.35,0a5.61,5.61,0,0,1,.06-1.16A7.83,7.83,0,0,1,236.75,62.88Z"/><path class="cls-1" d="M233.63,62.74c1,0,2.06.07,3.12.14a7.83,7.83,0,0,0-.28,1.16,5.61,5.61,0,0,0-.06,1.16c-1,0-2,0-2.94,0a7.32,7.32,0,0,1,0-1.75C233.54,63.18,233.58,63,233.63,62.74Z"/><path class="cls-10" d="M233.5,63.41a7.32,7.32,0,0,0,0,1.75c-3.34-.11-6-.5-6.06-1.36s2.77-1.14,6.22-1.06C233.58,63,233.54,63.18,233.5,63.41Z"/><path class="cls-2" d="M200.29,52.8a6.63,6.63,0,0,0,1.7,6.33,6.19,6.19,0,0,0,6.36,1.35A7.31,7.31,0,0,0,212.08,57a14.66,14.66,0,0,0,1.4-5.1,11.51,11.51,0,0,0,4.44-10.48,34.43,34.43,0,0,0-1.23-4.77,33.11,33.11,0,0,1-1.16-10.85,16.92,16.92,0,0,1-6.31,3.89c-2.61.92-5.46,1.2-7.86,2.56a13.19,13.19,0,0,0-5.77,7.87c-2.06,1.74-4,3.78-4.67,6.41s.39,5.79,2.86,6.88C195.73,54.22,198.29,53.54,200.29,52.8Z"/><path class="cls-9" d="M200.06,53c1.14-2.35,2.31-4.66,3.48-7s2.36-4.61,3.58-6.91,2.5-4.56,3.88-6.77a50.86,50.86,0,0,1,4.55-6.37L212,32.86q-1.77,3.47-3.6,6.9c-1.24,2.29-2.49,4.57-3.86,6.78A60.48,60.48,0,0,1,200.06,53Z"/><path class="cls-9" d="M212.63,55.71a7.43,7.43,0,0,1-3.81,1.79,5,5,0,0,1-2.26-.21A4.56,4.56,0,0,1,204.62,56a8.24,8.24,0,0,1-1.66-4,8.81,8.81,0,0,1,.31-4.15,20.89,20.89,0,0,0,.79,3.9A10,10,0,0,0,205.72,55a4,4,0,0,0,3.05,1.37A13.75,13.75,0,0,0,212.63,55.71Z"/><path class="cls-9" d="M216.49,48.45a3,3,0,0,1-1.36,1.28,6.36,6.36,0,0,1-1.81.57,6.82,6.82,0,0,1-3.8-.52,6.35,6.35,0,0,1-3.82-6.1,10.24,10.24,0,0,0,1.83,2.9,7.86,7.86,0,0,0,2.58,1.88,8.13,8.13,0,0,0,3.13.71A5.53,5.53,0,0,0,216.49,48.45Z"/><path class="cls-9" d="M217.92,41.18a7.6,7.6,0,0,1-2.53,2.11,7.16,7.16,0,0,1-1.58.64,4.06,4.06,0,0,1-1.87.06,4.56,4.56,0,0,1-2.9-2.08,5.34,5.34,0,0,1-.78-3.24,10.85,10.85,0,0,0,1.68,2.55,4.56,4.56,0,0,0,2.3,1.35,5.44,5.44,0,0,0,2.72-.32C215.93,42,216.89,41.59,217.92,41.18Z"/><path class="cls-9" d="M216.31,35.2a3,3,0,0,1-1,2.1,4.66,4.66,0,0,1-2.06,1.19,4,4,0,0,1-2.43,0,2.22,2.22,0,0,1-1.56-1.77,3,3,0,0,0,1.81.67,5.69,5.69,0,0,0,1.8-.26,9,9,0,0,0,1.76-.68A7.06,7.06,0,0,0,216.31,35.2Z"/><path class="cls-9" d="M215.67,30.44a2.15,2.15,0,0,1-.43,1.26,2.8,2.8,0,0,1-1,.84,2.71,2.71,0,0,1-1.25.33,2.1,2.1,0,0,1-1.28-.36,7.93,7.93,0,0,1,1-.73c.3-.19.58-.37.87-.52s.6-.29.93-.43A9,9,0,0,1,215.67,30.44Z"/><path class="cls-9" d="M211.61,32.38a1.64,1.64,0,0,1-.93-.62,2.14,2.14,0,0,1-.43-1,2.21,2.21,0,0,1,.09-1.05,1.64,1.64,0,0,1,.69-.89,4.68,4.68,0,0,1,.44.93,4,4,0,0,1,.21.77,3.57,3.57,0,0,1,0,.81A4.56,4.56,0,0,1,211.61,32.38Z"/><path class="cls-9" d="M209.3,36.75a3.61,3.61,0,0,1-2.47-2.8,4.41,4.41,0,0,1,0-1.92,5.46,5.46,0,0,1,.27-.87,2.25,2.25,0,0,1,.51-.83c.11.62.29,1.17.35,1.76s.14,1.08.24,1.56a14.26,14.26,0,0,0,.41,1.48C208.84,35.64,209.05,36.15,209.3,36.75Z"/><path class="cls-9" d="M208.16,38.8a4.19,4.19,0,0,1-3,1,4.87,4.87,0,0,1-4.59-4.35,4.17,4.17,0,0,1,.8-3.09,6.8,6.8,0,0,0,.31,2.85A5.54,5.54,0,0,0,203,37.38a5.38,5.38,0,0,0,2.27,1.26A6.65,6.65,0,0,0,208.16,38.8Z"/><path class="cls-9" d="M205.57,43.65a4.26,4.26,0,0,1-3,1.38,6.7,6.7,0,0,1-3.4-.57,5.49,5.49,0,0,1-2.57-2.38,4.15,4.15,0,0,1-.34-3.34,6.13,6.13,0,0,0,3.52,4.41,9.58,9.58,0,0,0,2.8.76A6.68,6.68,0,0,0,205.57,43.65Z"/><path class="cls-9" d="M202.86,48.21a9.55,9.55,0,0,1-3.26,2.13,5.81,5.81,0,0,1-4.11.06,5.4,5.4,0,0,1-3-2.82,4.71,4.71,0,0,1-.06-3.92A6.46,6.46,0,0,0,193.44,47a5.32,5.32,0,0,0,2.56,2,5.92,5.92,0,0,0,3.3.2A34.24,34.24,0,0,0,202.86,48.21Z"/><path class="cls-10" d="M211.7,33.62c.25,0-.47,1.72-1.58,3.9a4.84,4.84,0,0,1-1.15-.8C210.33,34.93,211.46,33.61,211.7,33.62Z"/><path class="cls-11" d="M209,36.72a4.84,4.84,0,0,0,1.15.8c-.29.58-.62,1.2-1,1.82a4.8,4.8,0,0,1-1.3-1.12Z"/><path class="cls-10" d="M206.74,39.82c.37-.54.75-1.08,1.12-1.6a4.8,4.8,0,0,0,1.3,1.12c-.3.56-.61,1.12-.93,1.67a4.15,4.15,0,0,1-.79-.52A6.31,6.31,0,0,1,206.74,39.82Z"/><path class="cls-11" d="M205.36,41.94c.43-.69.9-1.41,1.38-2.12a6.31,6.31,0,0,0,.7.67,4.15,4.15,0,0,0,.79.52c-.41.71-.83,1.4-1.24,2.05a5.57,5.57,0,0,1-1.21-.75A5,5,0,0,1,205.36,41.94Z"/><path class="cls-10" d="M205.78,42.31a5.57,5.57,0,0,0,1.21.75c-1.46,2.29-2.84,4-3.46,3.68s.35-2.41,1.83-4.8A5,5,0,0,0,205.78,42.31Z"/><path class="cls-11" d="M197.77,65.64c4.17.38,7.83,3,12,3.68a24.55,24.55,0,0,1-7.25,2.82,12.32,12.32,0,0,1-8.28-1.65A25.29,25.29,0,0,0,191.74,69a3.73,3.73,0,0,0-2.58-.3C191.1,66.37,194.87,65.38,197.77,65.64Z"/><path class="cls-11" d="M188.39,69.1c1-1.81.51-4-.11-6s-1.4-4-1.08-6A9.38,9.38,0,0,1,190,52.35a6.58,6.58,0,0,0,.29,4.51A30.85,30.85,0,0,1,191.86,61,7.84,7.84,0,0,1,188.39,69.1Z"/><path class="cls-12" d="M165,16.22v-.28l-.12.14-.13-.14v.28L117.49,71.63s45.72,11,94.76,0Z"/><path class="cls-3" d="M117.49,71.63V106q15.42,1.62,30.88,2.18V71.63Z"/><path class="cls-3" d="M211.83,71.63h-31.6v36.62q15.78-.56,31.6-2.21Z"/><path class="cls-5" d="M148.37,71.63v36.59q15.91.57,31.86,0V71.63Z"/><path class="cls-5" d="M151.93,37.57c8.44,3.39,17.07,3.24,25.88,0L164.63,19.7Z"/><line class="cls-7" x1="164.13" y1="114.75" x2="164.13" y2="82.41"/><path class="cls-7" d="M164.13,133.41a17.15,17.15,0,0,1-8.34-2.15,1.83,1.83,0,0,0-.15.7,8.5,8.5,0,0,0,17,0,1.67,1.67,0,0,0-.16-.7A17.09,17.09,0,0,1,164.13,133.41Z"/><path class="cls-7" d="M159.19,159.18h0Z"/><path class="cls-7" d="M133.68,148.29a1.15,1.15,0,0,1,.57-1l3.17-1.81L138.77,130l10.72-6.23a1.14,1.14,0,0,1,1.15,2l-9.7,5.63-1.35,15.55-4.2,2.4a1.14,1.14,0,0,1-1.56-.42A1.18,1.18,0,0,1,133.68,148.29Z"/><path class="cls-7" d="M121.81,107.4a1.13,1.13,0,0,1,0-.32,1.14,1.14,0,0,1,1.42-.78l4.72,1.39,11.31,9.46h9.76a1.15,1.15,0,0,1,0,2.29H138.48l-11.58-9.69-4.26-1.25A1.16,1.16,0,0,1,121.81,107.4Z"/><path class="cls-7" d="M134.87,81.21a1.14,1.14,0,0,1,2-.71L141,85.68V102l8.66,7.81a1.14,1.14,0,0,1-1.53,1.7l-9.42-8.5V86.47l-3.59-4.56A1.11,1.11,0,0,1,134.87,81.21Z"/><path class="cls-7" d="M177.77,124.71a1.1,1.1,0,0,1,.16-.57,1.14,1.14,0,0,1,1.56-.42L190.21,130l1.35,15.54,3.17,1.81a1.14,1.14,0,1,1-1.14,2l-4.2-2.4L188,131.33l-9.7-5.63A1.15,1.15,0,0,1,177.77,124.71Z"/><path class="cls-7" d="M178.77,118.3a1.15,1.15,0,0,1,1.14-1.15h9.76L201,107.69l4.72-1.39a1.15,1.15,0,0,1,.65,2.2l-4.27,1.25-11.58,9.69H179.91A1.14,1.14,0,0,1,178.77,118.3Z"/><path class="cls-7" d="M178.94,110.67a1.16,1.16,0,0,1,.38-.85L188,102V85.68l4.09-5.18a1.14,1.14,0,1,1,1.79,1.41l-3.59,4.56V103l-9.42,8.5a1.14,1.14,0,0,1-1.61-.09A1.11,1.11,0,0,1,178.94,110.67Z"/><path class="cls-12" d="M147.31,118.49c0-15.07.9-39,16.82-39s16.82,24,16.82,39H172.8c-5.68,0-4.56-4.49-8.67-4.49s-3,4.49-8.37,4.49Z"/><path class="cls-7" d="M172.8,118.49c-5.68,0-4.56-4.49-8.67-4.49s-3,4.49-8.37,4.49h-8.43c0,.15,0,.3,0,.45,0,8.28,7.53,15,16.82,15s16.82-6.71,16.82-15c0-.15,0-.3,0-.45Z"/><path class="cls-12" d="M173,139.17a10,10,0,0,1,2.65,7.29c-.08,3.76-6.47,6-6.47,6s11.93-.51,10.76,6c-.91,5.1-8.19,4.72-8.88,4.67.57,0,5.36.55,4.69,4.54-.71,4.25-6.39,5.71-6.39,5.71a11.83,11.83,0,0,0,2.47.26,11.6,11.6,0,0,0,11.61-11.6V145.68a11.59,11.59,0,0,0-8.73-11.23A8.45,8.45,0,0,1,173,139.17Z"/><path class="cls-12" d="M156.69,174a11.83,11.83,0,0,0,2.47-.26s-5.68-1.46-6.39-5.71c-.67-4,4.12-4.5,4.69-4.54-.69,0-8,.42-8.88-4.67-1.17-6.56,10.76-6.06,10.76-6.06s-6.39-2.2-6.47-6a10,10,0,0,1,2.59-7.23,8.4,8.4,0,0,1-1.77-4.75A11.59,11.59,0,0,0,145.08,146v16.39A11.6,11.6,0,0,0,156.69,174Z"/><path class="cls-13" d="M93,66.59h49.88S138.93,42.14,117.9,44.1,93,66.59,93,66.59Z"/><polygon class="cls-2" points="109.45 122.61 124.81 122.61 119.37 83.34 114.2 83.34 109.45 122.61"/><polygon class="cls-2" points="125.93 93.27 119.37 94.1 119.37 91.03 123.56 91.03 128.45 74.96 130.68 74.96 129.15 83.34 133.48 83.34 135.71 74.96 137.11 74.96 136.13 79.01 140.04 79.29 142.42 74.96 144.1 74.96 140.46 81.11 135.85 80.83 134.74 85.3 128.17 85.44 125.93 93.27"/><polygon class="cls-2" points="96.31 74.96 107.63 94.1 114.89 94.1 114.06 97.18 105.6 97.18 98.97 84.53 94.08 84.53 87.37 75.8 89.05 74.96 94.78 82.51 98.55 82.51 94.36 74.96 96.31 74.96"/><polygon class="cls-2" points="100.5 74.96 106.65 81.11 104.69 74.4 107.49 74.4 111.82 86.98 114.89 86.98 114.89 90.19 110 90.19 107.7 83.34 104.42 82.3 99.67 76.36 100.5 74.96"/><polygon class="cls-2" points="111.82 74.4 114.89 85.3 119.64 85.3 120.76 82.3 123.42 82.3 125.79 76.22 123.98 75.66 122.44 80.41 119.37 80.55 117.69 83.62 114.34 74.4 111.82 74.4"/><path class="cls-14" d="M78.71,77.06h49.88s-3.92-24.45-24.94-22.5S78.71,77.06,78.71,77.06Z"/><path class="cls-15" d="M110.42,77.9H160.3s-3.91-24.46-24.94-22.5S110.42,77.9,110.42,77.9Z"/><rect class="cls-16" width="335.82" height="175.95"/></g></g></svg>