<svg xmlns="http://www.w3.org/2000/svg" xmlns:xlink="http://www.w3.org/1999/xlink" viewBox="0 0 319 167.14"><defs><style>.cls-1,.cls-23,.cls-5{fill:none;}.cls-2{fill:#f1695b;}.cls-3{fill:#17253e;}.cls-4{fill:#f09433;}.cls-5{stroke:#17253e;stroke-width:0.7px;}.cls-23,.cls-5{stroke-miterlimit:10;}.cls-6{fill:#002735;}.cls-7{fill:#f0c839;}.cls-8{fill:#ec6755;}.cls-9{fill:#4a82c3;}.cls-10{fill:#e5eae6;}.cls-11{fill:#f9bb15;}.cls-12{fill:#f5f7d4;}.cls-13{fill:#f37061;}.cls-14{fill:#fff;}.cls-15{fill:#2f63ae;}.cls-16{fill:#05213e;}.cls-17{fill:#f9d445;}.cls-18{fill:#04223e;}.cls-19{fill:#f16e5b;}.cls-20{clip-path:url(#clip-path);}.cls-21{opacity:0.3;}.cls-22{clip-path:url(#clip-path-2);}.cls-23{stroke:#eb9770;stroke-width:0.18px;}</style><clipPath id="clip-path"><path class="cls-1" d="M250,55.88A50.36,50.36,0,0,1,234.69,59H176.48s-9-.53-13.39-1.75-12.7-4.12-12.78-5.26,4.81-3.76,9.71-3.94,6.13.62,12.43,1.93,25.13,1.31,42.28,1.23a129.07,129.07,0,0,0,23.45-2.34,48.43,48.43,0,0,0,11.47-3.74,61.72,61.72,0,0,1,5.79-2.5l.12,0c1.69,0,1.2,10.41-5.55,13.24"/></clipPath><clipPath id="clip-path-2"><rect class="cls-1" x="154.46" y="47.79" width="101.53" height="11.24"/></clipPath></defs><g id="Capa_2" data-name="Capa 2"><g id="Layer_1" data-name="Layer 1"><rect class="cls-1" width="319" height="167.14"/><path class="cls-2" d="M133.49,109.65h50.77l.39-17.05s1.84-15.22-20.81-1.07l-1.67,1.07-6.08,3.62Z"/><path class="cls-3" d="M180.11,109.65V122a5.72,5.72,0,0,0,5,5.28,6.26,6.26,0,0,0,1.16.1,6.64,6.64,0,0,0,6.2-3.8,17.28,17.28,0,0,0,1-4.31,13.06,13.06,0,0,1,.93-3.85,2.76,2.76,0,0,1,2.81-1.65c.88.18,1.08.47,1.58,1.17a2.15,2.15,0,0,0,2.88.61,2.08,2.08,0,0,0,.56-2.93,6.63,6.63,0,0,0-4.39-3,7.32,7.32,0,0,0-4.09.71c-3.4,1.79-3.95,5.39-4.39,8.29a14.27,14.27,0,0,1-.73,3.29,2.64,2.64,0,0,1-2.86,1.25,1.57,1.57,0,0,1-1.51-1.41V109.65"/><path class="cls-3" d="M197.3,103.13c4.78,2.06,5.19,9.85,5.9,11.57,2.3,5.59-2.2,5.84-2.2,5.84s-3.68-5.1-4.67-6.73"/><polygon class="cls-3" points="173.52 109.65 170.34 118.14 168 109.65 173.52 109.65"/><polygon class="cls-3" points="167.13 109.65 163.95 118.14 161.62 109.65 167.13 109.65"/><polyline class="cls-4" points="204.02 117.29 215.2 148.82 198.86 117.45"/><path class="cls-3" d="M133.49,109.65h42.23a15.42,15.42,0,0,0-4.75-7.41,25.57,25.57,0,0,0-14.88-6Z"/><line class="cls-5" x1="175.72" y1="91.25" x2="146.12" y2="108.78"/><line class="cls-5" x1="181.78" y1="92.69" x2="154.61" y2="108.78"/><line class="cls-5" x1="182.01" y1="97.58" x2="161.62" y2="109.65"/><line class="cls-5" x1="170.34" y1="115.52" x2="170.34" y2="154.66"/><line class="cls-5" x1="166.48" y1="154.66" x2="180.08" y2="154.66"/><polyline class="cls-5" points="164.38 115.52 158.56 127.91 183.29 136.4 183.29 147.37"/><line class="cls-5" x1="180.26" y1="139.52" x2="183.29" y2="136.4"/><path class="cls-6" d="M117.36,19.17s8.62-7.53,11.38-6.24c-1.73,6.05-1.38,9-1.38,9Z"/><path class="cls-6" d="M116.67,33.6s8.62,7.54,11.38,6.25c-1.72-6.05-1.38-9-1.38-9Z"/><path class="cls-7" d="M85,20.33S86.33,2.6,105.29,1.92C103,13.64,93.22,20.33,93.22,20.33Z"/><polygon class="cls-8" points="68.74 26.52 79.09 38.62 141.84 30 141.84 26.52 68.74 26.52"/><polygon class="cls-8" points="68.74 25.02 79.09 12.93 141.84 21.55 141.84 25.02 68.74 25.02"/><rect class="cls-8" x="139.62" y="7.47" width="11.27" height="23.33" rx="4.9" transform="translate(71.12 -107.24) rotate(52.1)"/><rect class="cls-8" x="139.49" y="21.43" width="11.27" height="23.33" rx="4.9" transform="translate(257.43 -64.59) rotate(126.14)"/><path class="cls-7" d="M79.43,25s3.45-7.3,11-5.6S128.74,25,128.74,25Z"/><path class="cls-7" d="M91.5,31.92s1.38,17.73,20.34,18.42C109.5,38.62,99.77,31.92,99.77,31.92Z"/><circle class="cls-9" cx="82.69" cy="19.12" r="4.14"/><circle class="cls-6" cx="82.76" cy="18.82" r="2.73"/><path class="cls-10" d="M68.36,121.25S86.92,102.79,89.1,104.1s11,9.6,12,14-4.4,8.58-4.4,8.58Z"/><path class="cls-10" d="M69.3,141.65S87.85,160.11,90,158.8s11-9.6,12-14-4.41-8.58-4.41-8.58Z"/><path class="cls-9" d="M65.61,131.28a1.52,1.52,0,0,1,.15.17,7.71,7.71,0,0,1-3.05,2.17c2.47,7.21,12.23,14.48,23,11.15,8-2.48,22.46-10,23.67-13.49Z"/><path class="cls-11" d="M65.61,131.28h43.73c-1.21-3.52-15.7-11-23.67-13.5-10.89-3.38-20.78,4.16-23.06,11.47A7.26,7.26,0,0,1,65.61,131.28Z"/><path class="cls-12" d="M73.17,126.64a4.81,4.81,0,0,0-4.81,4.81H78A4.8,4.8,0,0,0,73.17,126.64Z"/><path class="cls-11" d="M73.17,129.25A2.18,2.18,0,0,0,71,131.43h4.37A2.18,2.18,0,0,0,73.17,129.25Z"/><path class="cls-11" d="M73.17,136.25a4.8,4.8,0,0,0,4.8-4.8H68.36A4.8,4.8,0,0,0,73.17,136.25Z"/><polygon class="cls-10" points="118.34 119.15 101.32 129.88 101.32 132.67 118.34 143.4 118.34 119.15"/><path class="cls-9" d="M101.14,127.76s18-19.74,19.74-17-2.38,14.49-2.38,14.49l-17.36,5.87Z"/><path class="cls-11" d="M101.14,134.79s18,19.74,19.74,17-2.38-14.49-2.38-14.49l-17.36-5.87Z"/><path class="cls-9" d="M134.27,125.09s10.9,4.74,13.47,3.07-.58-16.38-.58-16.38Z"/><path class="cls-9" d="M128.22,82.24s21.51-1.19,23,2-7.38,10.31-7.38,10.31Z"/><path class="cls-6" d="M146.81,98.32H152S163,81.51,167,84.58s-4.23,20.54-4.23,20.54h-16Z"/><path class="cls-9" d="M146.81,111.93H152s11,16.81,15.08,13.74-4.23-20.55-4.23-20.55h-16Z"/><path class="cls-10" d="M98,105.15h56.21s-11.47-23-28.1-23S109.56,97.5,98,105.15Z"/><path class="cls-6" d="M98,105.12h56.21s-11.47,23-28.1,23S109.56,112.77,98,105.12Z"/><rect class="cls-9" x="123.73" y="95.66" width="1.52" height="18.96" rx="0.6"/><rect class="cls-9" x="127.01" y="95.66" width="1.52" height="18.96" rx="0.6"/><rect class="cls-9" x="130.64" y="95.66" width="1.52" height="18.96" rx="0.6"/><circle class="cls-9" cx="112.55" cy="105.15" r="4.04"/><circle class="cls-8" cx="112.55" cy="105.15" r="2.02"/><rect class="cls-7" x="106.04" y="43.12" width="9.69" height="75.07" rx="1.78" transform="translate(30.34 191.63) rotate(-90.06)"/><rect class="cls-7" x="182.94" y="43.42" width="9.69" height="74.94" rx="1.78" transform="translate(107.09 268.75) rotate(-90.06)"/><rect class="cls-7" x="140.27" y="19.01" width="19.91" height="135.34" rx="3.65" transform="translate(63.69 237) rotate(-90.06)"/><path class="cls-6" d="M86.9,52.47l120.77-.12S154.67,146.09,86.9,52.47Z"/><path class="cls-13" d="M156.52,40.47s7.64,1.59,7.67-4.93S156.78,34,156.78,34Z"/><path class="cls-9" d="M157.12,25.61s.37-.51,0-2.43c-3.66-3.24-15.43-2.81-18.84,2.86s-2.12,43.59-2.12,43.8,41.52,7.69,20.31-28.27Z"/><path class="cls-7" d="M142.63,27.7c4.8-3.67,14.49-2.09,14.49-2.09l-.65,16s2.5,3.3,2.25,5.51-17.65,3.28-17.8.74S139.11,30.38,142.63,27.7Z"/><circle class="cls-14" cx="150.26" cy="31.27" r="2.69"/><circle class="cls-15" cx="150.31" cy="31.25" r="1.2"/><circle cx="150.26" cy="31.27" r="0.76"/><path class="cls-16" d="M157.12,25.61c5.08,1.25,11-.25,11.16,16.22-2.3-3.34-5.75-5.76-11.56-6.28Z"/><rect class="cls-6" x="135.1" y="52.41" width="28.29" height="74.16" rx="5.18" transform="translate(-0.09 0.15) rotate(-0.06)"/><rect class="cls-9" x="146" y="91.07" width="7.32" height="74.16" rx="1.34" transform="translate(-0.13 0.15) rotate(-0.06)"/><rect class="cls-9" x="135.13" y="77.96" width="7.32" height="74.16" rx="1.34" transform="translate(-0.12 0.14) rotate(-0.06)"/><rect class="cls-9" x="156.12" y="77.94" width="7.32" height="74.16" rx="1.34" transform="translate(-0.12 0.16) rotate(-0.06)"/><rect class="cls-13" x="152.47" y="87.32" width="7.32" height="74.16" rx="1.34" transform="translate(-0.13 0.16) rotate(-0.06)"/><rect class="cls-13" x="139.69" y="87.33" width="7.32" height="74.16" rx="1.34" transform="translate(-0.13 0.15) rotate(-0.06)"/><rect class="cls-6" x="137.08" y="52.49" width="24.45" height="61.36" rx="4.48" transform="translate(-0.08 0.15) rotate(-0.06)"/><rect class="cls-7" x="91.01" y="25.5" width="9.69" height="63.73" rx="1.78" transform="translate(38.59 153.28) rotate(-90.06)"/><rect class="cls-7" x="93.18" y="33.77" width="9.69" height="63.73" rx="1.78" transform="translate(32.49 163.73) rotate(-90.06)"/><rect class="cls-7" x="96.43" y="41.11" width="9.69" height="63.73" rx="1.78" transform="matrix(0, -1, 1, 0, 28.41, 174.32)"/><rect class="cls-6" x="102.03" y="29.98" width="8.08" height="53.14" rx="1.48" transform="matrix(0, -1, 1, 0, 49.63, 162.67)"/><rect class="cls-6" x="103.84" y="36.88" width="8.08" height="53.14" rx="1.48" transform="translate(44.54 171.39) rotate(-90.06)"/><rect class="cls-6" x="106.54" y="43" width="8.08" height="53.14" rx="1.48" transform="translate(41.13 180.22) rotate(-90.06)"/><rect class="cls-6" x="109.83" y="49.41" width="8.08" height="53.14" rx="1.48" transform="translate(38.01 189.93) rotate(-90.06)"/><rect class="cls-7" x="197.85" y="25.39" width="9.69" height="63.73" rx="1.78" transform="translate(145.65 260.01) rotate(-90.06)"/><rect class="cls-7" x="195.7" y="33.67" width="9.69" height="63.73" rx="1.78" transform="translate(135.22 266.14) rotate(-90.06)"/><rect class="cls-7" x="192.47" y="41.01" width="9.69" height="63.73" rx="1.78" transform="translate(124.65 270.26) rotate(-90.06)"/><rect class="cls-6" x="189.06" y="29.92" width="8.08" height="53.14" rx="1.48" transform="translate(136.81 249.65) rotate(-90.06)"/><rect class="cls-6" x="187.27" y="36.82" width="8.08" height="53.14" rx="1.48" transform="matrix(0, -1, 1, 0, 128.11, 254.76)"/><rect class="cls-6" x="184.57" y="42.94" width="8.08" height="53.14" rx="1.48" transform="translate(119.29 258.19) rotate(-90.06)"/><rect class="cls-6" x="181.3" y="49.37" width="8.08" height="53.14" rx="1.48" transform="translate(109.59 261.35) rotate(-90.06)"/><path class="cls-17" d="M178.32,49.19l.41-2.78,1.41-9.21.64-1.49,2.22-.45.4,1.91-.4,1s1.48.38,1.81,1.54c.08.27.57,1,.45,1.63s.58,2.15.88,3.26l.86,3.21Z"/><path class="cls-17" d="M187.12,31.54a.81.81,0,0,1,0,.49c-.09.27-.29.67-.18.92s.69,1,.46,1.22a1.89,1.89,0,0,1-.73.39s-.3,1.64-.9,1.69a4.52,4.52,0,0,1-1.72-.52l-.64,1.44-2.62-1.46a9,9,0,0,0,.46-1.49c-.06-.11-.61-2.27-.61-2.27l6-1.32Z"/><path class="cls-18" d="M184.25,31.79s-.26.26.15.74l.41.49a.83.83,0,0,1-.65.36c-.38,0-.66-.5-.66-.5l.06.59s-.18.06-.39-.38a3,3,0,0,1-.23-1,2.89,2.89,0,0,0-.74.11,1,1,0,0,0-.19,1,2.06,2.06,0,0,0,.55.56s-.07.9-.82,1.08-1.22.11-1.3-.63a8.66,8.66,0,0,1,.08-1.79s0-.52.9-.87a6.64,6.64,0,0,1,2.83.16"/><path class="cls-18" d="M181.16,35.13a.81.81,0,0,1-.51-.14.89.89,0,0,1-.34-.68,8.39,8.39,0,0,1,.08-1.82s.06-.6,1-1m0,.12c-.49-4.17,5.58-2.13,5.58-2.13.84.35,0,1.32,0,1.32-2.79.14-2.72.85-2.72.85a.13.13,0,0,1,.1.09.17.17,0,0,1,0,.13s-.17.18.16.56l.41.48a.14.14,0,0,1,0,.16,1,1,0,0,1-.77.42.9.9,0,0,1-.48-.23l0,.18a.14.14,0,0,1-.09.14s-.3.06-.54-.45a2.72,2.72,0,0,1-.24-.88,2.18,2.18,0,0,0-.56.1.51.51,0,0,0-.14.25.78.78,0,0,0,0,.59,1.68,1.68,0,0,0,.5.52.16.16,0,0,1,.06.12,1.38,1.38,0,0,1-.92,1.2,3.1,3.1,0,0,1-.61.08m1.26-1.23a1.91,1.91,0,0,1-.52-.56,1.17,1.17,0,0,1,0-.8c0-.09.12-.33.27-.4a2.77,2.77,0,0,1,.79-.13.14.14,0,0,1,.14.12,2.85,2.85,0,0,0,.22.91.87.87,0,0,0,.12.2l0-.35a.13.13,0,0,1,.08-.14.16.16,0,0,1,.16.06.85.85,0,0,0,.55.44.6.6,0,0,0,.47-.23l-.34-.4a.78.78,0,0,1-.24-.74,5.82,5.82,0,0,0-2.59-.13c-.77.31-.82.74-.83.76a9,9,0,0,0-.07,1.77.63.63,0,0,0,.23.5,1.16,1.16,0,0,0,.91,0,1.06,1.06,0,0,0,.71-.9"/><path class="cls-14" d="M194.73,45.49s2.65-1.42,3-1.29,9.48,8.51,9.48,8.51l-1.31.31a56.83,56.83,0,0,1-5.35-3.35c-.9-.83-2.76-2.76-2.76-2.76l-3,2.85L194,46.5Z"/><polygon class="cls-18" points="188.81 48.27 194.92 45.29 195.21 47.29 189.03 48.63 188.81 48.27"/><path class="cls-18" d="M189,48.76a.11.11,0,0,1-.11-.06l-.22-.37a.17.17,0,0,1,0-.1.18.18,0,0,1,.07-.08l6.11-3a.11.11,0,0,1,.11,0,.13.13,0,0,1,.07.09l.29,2a.13.13,0,0,1-.1.14l-6.18,1.34h0m5.79-3.28L189,48.32l.09.17,6-1.3Z"/><path class="cls-17" d="M195.77,46a18.49,18.49,0,0,1,2.55-1.05c.31,0,9.19,7.79,9.19,7.79l-1.72.14S202,51.21,201,50.54a19,19,0,0,1-2.68-2.47l-2.42,1.57Z"/><path class="cls-18" d="M187.93,47.67l1.44.19L196,45.73l1.82,5.42L190.07,53a17.9,17.9,0,0,1-7.69.63c-4.15-.62-4.43-1.89-4.65-2.64a6.7,6.7,0,0,1-.21-1.58l9.71-2Z"/><path class="cls-18" d="M184.74,53.87a16.46,16.46,0,0,1-2.38-.17c-4.14-.61-4.51-1.9-4.74-2.67V51a6.53,6.53,0,0,1-.22-1.62.12.12,0,0,1,.1-.12l9.71-2.06a.14.14,0,0,1,.09,0l.68.36,1.39.18L196,45.61a.12.12,0,0,1,.16.08L198,51.11a.11.11,0,0,1,0,.1.13.13,0,0,1-.08.07l-7.77,1.79a18.13,18.13,0,0,1-5.37.8m11.21-8L189.41,48h-.06l-1.44-.19h0l-.66-.35-9.56,2a5.69,5.69,0,0,0,.21,1.44V51c.21.71.55,1.9,4.53,2.49a17.8,17.8,0,0,0,7.64-.63l7.64-1.76Zm-8,1.78h0Z"/><path class="cls-14" d="M179.33,38.13c.4-1.12,1-1,1.4-1,0,0,1.58.17,1.67,1.15a23.5,23.5,0,0,1-.66,3.91l-3-.56a24.09,24.09,0,0,1,.61-3.53"/><path class="cls-17" d="M221,32.92a8.67,8.67,0,0,1,.5,1.41c-.13-.1-1.17.48-1.17.48s-.08,1.5-.57,1.7a3.77,3.77,0,0,1-1.73-.23s-.65,1.08-.8,1.07-1.72-1-1.72-1l.57-1.75A4.47,4.47,0,0,1,215,33.19,1.31,1.31,0,0,1,215.1,32,5.12,5.12,0,0,1,218,30.79c2-.27,2.59.78,2.59.78Z"/><path class="cls-18" d="M215,33.19A1.31,1.31,0,0,1,215.1,32,5.07,5.07,0,0,1,218,30.8l.24.24.18.67-.15.75s.07.86-.2.65-.87-1.45-1.3-.77a1.38,1.38,0,0,0,0,1.7,1.25,1.25,0,0,0,.5.23,2.57,2.57,0,0,1-1.28.87l.16-.49A4.47,4.47,0,0,1,215,33.19"/><path class="cls-18" d="M216,35.26a.11.11,0,0,1-.09,0,.13.13,0,0,1,0-.12l.13-.41a4.24,4.24,0,0,1-1.13-1.46,1.45,1.45,0,0,1,.17-1.3A5.26,5.26,0,0,1,218,30.67a.13.13,0,0,1,.1,0l.24.24a.1.1,0,0,1,0,.05l.18.68v.06l-.15.73c0,.3,0,.68-.16.77a.22.22,0,0,1-.25,0,2.3,2.3,0,0,1-.28-.34c-.18-.24-.46-.6-.65-.6h0c-.06,0-.12,0-.18.14-.39.61-.29,1.35,0,1.52a1.16,1.16,0,0,0,.44.21.13.13,0,0,1,.11.08.13.13,0,0,1,0,.13,2.62,2.62,0,0,1-1.35.91h0m1.05-.92a2.07,2.07,0,0,1-.34-.19,1.49,1.49,0,0,1,0-1.88A.45.45,0,0,1,217,32c.34,0,.64.39.88.71a2.13,2.13,0,0,0,.21.26,2,2,0,0,0,0-.51v0l.15-.71-.16-.62-.17-.17a5.1,5.1,0,0,0-2.72,1.16,1.2,1.2,0,0,0-.12,1.06,4.42,4.42,0,0,0,1.11,1.4.13.13,0,0,1,0,.14l-.08.26a2.7,2.7,0,0,0,.85-.61"/><path class="cls-17" d="M227.13,45.15s2.82-2.09,3.34-2,6.74,9,6.74,9l-1.35.41s-4.15-3.74-5-4.66-1-1.17-1-1.17l-2.33,1.84-1.09-2.83Z"/><path class="cls-18" d="M218.59,53.26a3.93,3.93,0,0,1-1.21-.17,3.68,3.68,0,0,1-2.89-2.93c-.2-1.2,6.13-2.66,7.45-2.95l5.19-2.88a.14.14,0,0,1,.11,0,.18.18,0,0,1,.07.08l1.91,5.69a.13.13,0,0,1-.09.16s-2.26.78-4.61,1.52l-1.11.37a16.84,16.84,0,0,1-4.82,1.12m8.53-8.63-5.07,2.82h0c-3.09.68-7.39,1.95-7.27,2.66a3.4,3.4,0,0,0,2.7,2.73c1.57.48,3.76-.25,5.88-1,.37-.12.74-.25,1.11-.36,2-.65,4-1.31,4.49-1.48Z"/><path class="cls-19" d="M249.65,45.16a48.43,48.43,0,0,1-11.47,3.74,129.07,129.07,0,0,1-23.45,2.34c-17.15.08-36,.08-42.28-1.23s-7.52-2.1-12.43-1.93-9.8,2.81-9.71,3.94,8.4,4,12.78,5.26S176.48,59,176.48,59h58.21A50.19,50.19,0,0,0,250,55.87c6.91-2.88,7.26-13.74,5.43-13.21a61.72,61.72,0,0,0-5.79,2.5"/><g class="cls-20"><g class="cls-21"><g class="cls-22"><path class="cls-18" d="M172.45,55.16c6.31,1.31,25.13,1.31,42.28,1.22a129.21,129.21,0,0,0,23.45-2.33,48.43,48.43,0,0,0,11.47-3.74,61.72,61.72,0,0,1,5.79-2.5.47.47,0,0,1,.55.25c-.74,3-2.55,6.38-6,7.81A50.19,50.19,0,0,1,234.69,59H176.48s-9-.53-13.39-1.75c-2.37-.67-5.89-1.82-8.63-2.91A18.5,18.5,0,0,1,160,53.23c4.91-.17,6.13.61,12.43,1.93"/></g></g></g><rect class="cls-18" x="178.71" y="42.86" width="24.98" height="0.53" transform="translate(77.04 202.44) rotate(-67.09)"/><path class="cls-14" d="M195.57,32.1l.28.16a.36.36,0,0,0,.51-.19,58.16,58.16,0,0,0,2.19-6.23c.07-.91-.24-1.38-.41-.86s-2.2,5.39-2.73,6.67a.36.36,0,0,0,.16.45"/><path class="cls-18" d="M196,32.43a.53.53,0,0,1-.24-.06l-.27-.15a.5.5,0,0,1-.22-.62c.43-1,2.57-6.21,2.72-6.67.1-.29.25-.31.34-.29.29.06.37.67.33,1.21a57.45,57.45,0,0,1-2.2,6.27.47.47,0,0,1-.29.28.47.47,0,0,1-.17,0m2.29-7.52a.28.28,0,0,0-.05.11c-.16.46-2.3,5.64-2.73,6.68a.23.23,0,0,0,.1.29l.28.15a.21.21,0,0,0,.19,0,.2.2,0,0,0,.14-.13,58.29,58.29,0,0,0,2.18-6.2,1.72,1.72,0,0,0-.11-.92m-2.74,7.19Z"/><path class="cls-17" d="M180.73,37.16s1.58.17,1.67,1.15-1.29,6.59-1.3,6.69,5.54,4.44,5.54,4.44,1.62-.73,1.94-.81.58.5.67.64-.41,1.22-.5,1.46a.7.7,0,0,1-.45.48.74.74,0,0,1-.48-.14.75.75,0,0,1-.84.1,3.13,3.13,0,0,1-.92-.59s-7.09-3.81-7.33-4.17a1.56,1.56,0,0,1-.41-1,58.55,58.55,0,0,1,1-7.27c.4-1.12,1-1,1.4-1"/><path class="cls-17" d="M184.11,41.26c-.19-.52.3-1.43,0-1.95,1.54.45,6.19,1.77,6.26,1.78s1.35-1.21,1.63-1.23,1.27,1,1.26,1.22a2.81,2.81,0,0,1-.83,1.18,1.08,1.08,0,0,1-.55,0s-.36-.69-.48-.53a4.07,4.07,0,0,0-.25.43,1.74,1.74,0,0,1-.57-.22l-.26-.16-6.21-.51s2.84.22,2.83.19"/><rect class="cls-18" x="212.67" y="45.13" width="24.98" height="0.53" transform="matrix(0.39, -0.92, 0.92, 0.39, 95.68, 235.11)"/><path class="cls-14" d="M220.92,54.32l.42.18a.65.65,0,0,1,.35.86,59.5,59.5,0,0,0-2.27,5.73,8.24,8.24,0,0,1-.91,2.43l-3.31-.27s1.5-2.38,2.81-4.65c.92-1.59,1.69-3.15,2.07-4a.66.66,0,0,1,.84-.32"/><path class="cls-18" d="M218.51,63.65h0l-3.31-.27a.13.13,0,0,1-.1-.2s1.51-2.4,2.81-4.65c.92-1.58,1.69-3.15,2.07-3.94a.77.77,0,0,1,1-.39l.42.18a.76.76,0,0,1,.43.43.78.78,0,0,1,0,.6,59.89,59.89,0,0,0-2.26,5.72,8.29,8.29,0,0,1-.93,2.47.14.14,0,0,1-.1,0m2.36-9.21a.52.52,0,0,0-.67.26c-.38.8-1.15,2.37-2.07,4-1.1,1.9-2.34,3.88-2.71,4.48l3,.25a10.81,10.81,0,0,0,.86-2.33,58.48,58.48,0,0,1,2.27-5.75.53.53,0,0,0,0-.41.58.58,0,0,0-.29-.29l-.42-.17"/><path class="cls-14" d="M229.53,34.38l.28.15a.37.37,0,0,0,.52-.18,57.89,57.89,0,0,0,2.18-6.23c.08-.92-.24-1.38-.41-.87s-2.2,5.39-2.73,6.67a.37.37,0,0,0,.16.46"/><path class="cls-17" d="M215.66,47.43c-1.25-.35-2.25-.64-2.42-.71-.5-.23-1.71-.52-1.76-1A57.16,57.16,0,0,1,213.92,39a1.65,1.65,0,0,1,1-.82s1.86,1.61,1.79,2.41A29.33,29.33,0,0,1,215,44.83l1.61.84c-.3.55-.68,1.24-1,1.76"/><path class="cls-23" d="M185,48.12,181.1,45l.88-3.92.42-2.77a1.87,1.87,0,0,0-2.26-1.11"/><line class="cls-23" x1="182.33" y1="48.54" x2="178.73" y2="46.41"/><path class="cls-23" d="M184.76,39.52a4,4,0,0,1,.5,1.8"/><path class="cls-18" d="M182.12,30.37s-2.08-.5-1.6,2.13S182.12,30.37,182.12,30.37Z"/><path class="cls-17" d="M221,41.82c1.55.45,3.77,1.1,3.83,1.1s1.35-1.21,1.63-1.22,1.27,1,1.25,1.21a2.67,2.67,0,0,1-.82,1.19,1.12,1.12,0,0,1-.56,0s-.36-.69-.47-.53a4.07,4.07,0,0,0-.25.43,2.06,2.06,0,0,1-.57-.22l-.26-.16-3.13-.23c-.18-.48-.41-1-.65-1.56"/><path class="cls-19" d="M215.54,36.4l-.79,2-.68,8.23.47,3.73,7-2.3,1.71-.79-2.5-6.07a8.23,8.23,0,0,0-3.5-3.88C214.76,36,215.54,36.4,215.54,36.4Z"/><path class="cls-18" d="M222,47.33l5.2-2.89,1.9,5.69s-2.23.77-4.61,1.52-5.17,1.9-7.06,1.32a3.51,3.51,0,0,1-2.8-2.83C214.43,49,222,47.33,222,47.33"/><path class="cls-17" d="M214.88,38.15s1.86,1.61,1.79,2.41A29.33,29.33,0,0,1,215,44.83l6.76,3.53a12.73,12.73,0,0,1,2.34-.86,4.4,4.4,0,0,1,1.08,1.89c0,.28-.31.35-.55.38s-.36-.22-.64-.34-.33,0-.76.09a3.2,3.2,0,0,1-1.66-.47s-7.83-2.1-8.33-2.33-1.71-.52-1.76-1A57.16,57.16,0,0,1,213.92,39a1.65,1.65,0,0,1,1-.82"/><path class="cls-18" d="M218.43,31.38a2.15,2.15,0,0,1,2.19.19,2.06,2.06,0,0,1,.41.51,3.65,3.65,0,0,0-.44-.91s0-.55.44,0a3.17,3.17,0,0,0-.51-.78,3.32,3.32,0,0,0-2.09-.89,6.82,6.82,0,0,0-3.17.89,4.9,4.9,0,0,0-.51,2.55c.19,1.19,1.92-1.18,1.92-1.18Z"/><path class="cls-18" d="M215.3,30.71s-1.61-.65-2.27-.09-2.1,3.71-2.69,5.27a1.79,1.79,0,0,0,1.34,2.66c1.11.28,2.13.5,2.39-1.51s.27-4.47.42-5.17,1-1,1-1Z"/><path class="cls-18" d="M212.74,38.86a4.53,4.53,0,0,1-1.09-.19,2.13,2.13,0,0,1-1.46-1,2.18,2.18,0,0,1,0-1.82c.61-1.6,2.05-4.74,2.73-5.32s2.33,0,2.39.07h0l.22.16a.16.16,0,0,1,.06.13.15.15,0,0,1-.09.1s-.81.29-.94.91a17.76,17.76,0,0,0-.16,1.89c-.05,1-.12,2.19-.26,3.27a2.14,2.14,0,0,1-.72,1.59,1.3,1.3,0,0,1-.74.21m2.49-8c-.43-.17-1.63-.52-2.11-.1-.64.54-2.08,3.68-2.66,5.21a1.93,1.93,0,0,0,0,1.61,2,2,0,0,0,1.29.89,2.11,2.11,0,0,0,1.62,0A2,2,0,0,0,214,37c.13-1.06.2-2.27.25-3.25a15.32,15.32,0,0,1,.17-1.93,1.6,1.6,0,0,1,.89-1Z"/></g></g></svg>