<svg xmlns="http://www.w3.org/2000/svg" viewBox="0 0 204 100"><defs><style>.cls-1{fill:none;}.cls-2{fill:#cfd1d2;}</style></defs><g id="Capa_2" data-name="Capa 2"><g id="Arte"><rect class="cls-1" width="204" height="100"/><path class="cls-2" d="M67,39.7V56.5h6.6v3.88H62V39.7Z"/><path class="cls-2" d="M85.83,60.59A10.59,10.59,0,1,1,96.4,50,10.4,10.4,0,0,1,85.83,60.59Zm0-4.6c3.3,0,5.45-2.38,5.45-6s-2.15-6-5.45-6-5.48,2.32-5.48,6S82.47,56,85.83,56Z"/><path class="cls-2" d="M118.5,46.24h-5.57a4.35,4.35,0,0,0-4.07-2.12c-3.24,0-5.39,2.3-5.39,5.89,0,3.83,2.18,6.07,5.81,6.07a4.94,4.94,0,0,0,5-3.65h-6.39V48.72h11V53.4A10.53,10.53,0,0,1,98.35,50a10.09,10.09,0,0,1,10.51-10.54C113.81,39.47,117.41,42,118.5,46.24Z"/><path class="cls-2" d="M131.42,60.59A10.59,10.59,0,1,1,142,50,10.4,10.4,0,0,1,131.42,60.59Zm0-4.6c3.3,0,5.46-2.38,5.46-6s-2.16-6-5.46-6S126,46.3,126,50,128.07,56,131.42,56Z"/></g></g></svg>