<?xml version="1.0" encoding="utf-8"?>
<!-- Generator: Adobe Illustrator 24.1.3, SVG Export Plug-In . SVG Version: 6.00 Build 0)  -->
<svg version="1.1" id="Capa_1" xmlns="http://www.w3.org/2000/svg" xmlns:xlink="http://www.w3.org/1999/xlink" x="0px" y="0px"
	 viewBox="0 0 157.1 40" style="enable-background:new 0 0 157.1 40;" xml:space="preserve">
<style type="text/css">
	.st0{fill:#FFFFFF;}
</style>
<g id="Layer_1">
	<path class="st0" d="M11.9,23v1.8c-1.3,0.7-2.7,1-4.2,1c-1.1,0-2.3-0.3-3.2-0.8c-1.8-1-2.9-2.9-2.9-5c0-1.6,0.6-3.1,1.8-4.2
		c1.2-1.1,2.8-1.7,4.4-1.7c1.4,0,2.7,0.4,4,0.9v1.8c-1.2-0.7-2.5-1.2-3.9-1.2c-1.2,0-2.4,0.4-3.3,1.2c-0.9,0.8-1.3,2-1.3,3.2
		c0,1.1,0.4,2.2,1.3,3c0.9,0.8,2.1,1.3,3.3,1.2C9.3,24.2,10.7,23.8,11.9,23z"/>
	<path class="st0" d="M23.9,14c1.6,0,3.2,0.6,4.4,1.7c1.2,1.1,1.8,2.6,1.8,4.2c0,1.6-0.6,3.1-1.8,4.2c-1.2,1.1-2.8,1.7-4.5,1.6
		c-1.6,0-3.2-0.5-4.3-1.6c-1.1-1.1-1.7-2.6-1.7-4.1c0-1.6,0.6-3.1,1.7-4.2C20.7,14.6,22.3,14,23.9,14z M24,15.6
		c-1.2,0-2.4,0.4-3.2,1.2c-0.9,0.8-1.3,2-1.3,3.2c0,1.1,0.4,2.2,1.3,3c0.8,0.8,2,1.3,3.2,1.2c1.2,0,2.3-0.4,3.2-1.2
		c0.8-0.8,1.3-1.9,1.3-3.1c0-1.2-0.4-2.3-1.3-3.1C26.3,16,25.1,15.6,24,15.6L24,15.6z"/>
	<path class="st0" d="M36.5,14.2h1.6v9.9h5.2v1.5h-6.8V14.2z"/>
	<path class="st0" d="M54.6,14c1.6-0.1,3.2,0.6,4.4,1.7c1.2,1.1,1.8,2.6,1.8,4.2c0,1.6-0.6,3.1-1.8,4.2c-1.2,1.1-2.8,1.7-4.5,1.6
		c-1.6,0-3.1-0.5-4.3-1.6c-1.1-1.1-1.7-2.5-1.7-4.1c0-1.6,0.6-3.1,1.7-4.2C51.4,14.6,53,14,54.6,14z M54.7,15.6
		c-1.2,0-2.4,0.4-3.2,1.2c-0.9,0.8-1.3,2-1.3,3.2c0,1.1,0.4,2.2,1.3,3c1.8,1.7,4.6,1.7,6.4,0c0.8-0.8,1.3-1.9,1.3-3.1
		c0-1.2-0.4-2.3-1.3-3C57,16,55.9,15.6,54.7,15.6L54.7,15.6z"/>
	<path class="st0" d="M76.3,14.2h1.5v11.4h-1.6v-8.9l-3.5,4.4h-0.3l-3.6-4.4v8.9h-1.7V14.2h1.6l3.8,4.7L76.3,14.2z"/>
	<path class="st0" d="M88.5,25.6h-3.9V14.2h3c0.8,0,1.5,0.1,2.2,0.4c0.5,0.2,0.9,0.6,1.2,1c0.3,0.5,0.4,1,0.4,1.5
		c0,1.1-0.7,2.1-1.7,2.4c0.8,0.1,1.5,0.5,2,1c0.5,0.5,0.8,1.2,0.7,1.9c0,0.6-0.1,1.1-0.4,1.6c-0.3,0.5-0.8,0.9-1.3,1.1
		C90,25.5,89.2,25.6,88.5,25.6z M87.6,15.6h-1.4v3.4h1.1c0.7,0.1,1.3-0.1,1.9-0.5c0.4-0.3,0.6-0.8,0.6-1.3
		C89.7,16.2,89,15.6,87.6,15.6L87.6,15.6z M87.8,20.5h-1.5v3.6h1.6c0.6,0,1.2,0,1.8-0.2c0.3-0.1,0.6-0.4,0.8-0.6
		c0.2-0.3,0.3-0.6,0.3-1c0-0.4-0.1-0.7-0.3-1c-0.2-0.3-0.5-0.5-0.9-0.6C89,20.5,88.4,20.5,87.8,20.5L87.8,20.5z"/>
	<path class="st0" d="M98.4,14.2h1.7v11.4h-1.6L98.4,14.2z"/>
	<path class="st0" d="M110.6,14.1h1.1l5.1,11.5h-1.7l-1.5-3.4h-4.9l-1.4,3.4h-1.7L110.6,14.1z M113,20.8l-1.8-4.1l-1.7,4.1H113z"/>
	<path class="st0" d="M137.1,14c1.6,0,3.2,0.6,4.4,1.7c1.2,1.1,1.8,2.6,1.8,4.2c0,1.6-0.6,3.1-1.8,4.2c-1.2,1.1-2.8,1.7-4.5,1.6
		c-1.6,0-3.2-0.5-4.3-1.6c-1.1-1.1-1.7-2.5-1.7-4.1c0-1.6,0.6-3.1,1.7-4.2C133.9,14.6,135.5,14,137.1,14z M137.2,15.6
		c-1.2,0-2.4,0.4-3.2,1.2c-0.9,0.8-1.3,2-1.3,3.2c0,1.1,0.4,2.2,1.3,3c1.8,1.7,4.6,1.7,6.4,0c0.8-0.8,1.3-1.9,1.3-3.1
		c0-1.2-0.4-2.3-1.3-3C139.5,16,138.3,15.6,137.2,15.6L137.2,15.6z"/>
	<path class="st0" d="M147.6,14.2h9.5v1.5h-4v10h-1.6v-10h-3.9L147.6,14.2z"/>
</g>
</svg>
