<svg xmlns="http://www.w3.org/2000/svg" xmlns:xlink="http://www.w3.org/1999/xlink" viewBox="0 0 525.44 454.19"><defs><style>.cls-1{fill:none;}.cls-2{clip-path:url(#clip-path);}.cls-3{fill:#a09f9f;}.cls-4{fill:#e5e5e5;}.cls-5{fill:#6b6a6a;}.cls-6{fill:#fdf6e6;}.cls-7{fill:#8282a8;}.cls-8{fill:#f5f6d3;}.cls-9{fill:#ff9100;}.cls-10{clip-path:url(#clip-path-2);}.cls-11{fill:#606060;}.cls-12{fill:#fbf3ff;}</style><clipPath id="clip-path" transform="translate(-8.95 -87.59)"><circle class="cls-1" cx="265.8" cy="265.8" r="265.8"/></clipPath><clipPath id="clip-path-2" transform="translate(-8.95 -87.59)"><rect class="cls-1" x="343.93" y="156.35" width="177.61" height="69.3"/></clipPath></defs><g id="Capa_2" data-name="Capa 2"><g id="Layer_1" data-name="Layer 1"><g class="cls-2"><polygon class="cls-3" points="210.13 80.05 205.31 80.05 198.51 58.09 203.33 58.09 210.13 80.05"/><polygon class="cls-3" points="225.34 80.05 220.53 80.05 213.73 58.09 218.55 58.09 225.34 80.05"/><polygon class="cls-4" points="184.75 35.9 184.75 0 169.53 0 184.75 35.9"/><path class="cls-5" d="M188.5,122.79a28.46,28.46,0,1,0,56.92,0V110.33l0-.23a12.59,12.59,0,0,0-12.58-12.59H215.35l8.94,7.75v11.86h-36Z" transform="translate(-8.95 -87.59)"/><path class="cls-6" d="M224.42,105.89a8.31,8.31,0,1,0,8.31-8.31l-.72-.07h-7.59v8.66" transform="translate(-8.95 -87.59)"/><path class="cls-6" d="M178.85,117.13h45.42v25.62Z" transform="translate(-8.95 -87.59)"/><path class="cls-4" d="M224.27,117.14a12.8,12.8,0,1,1,0,25.59" transform="translate(-8.95 -87.59)"/><path class="cls-6" d="M534.39,163.61H171.21c-43,0-84.31,11.14-114.74,31h0C26,214.4,9,241.29,9,269.32V370.84H534.39Z" transform="translate(-8.95 -87.59)"/><path class="cls-5" d="M40.21,487.88h0a17.66,17.66,0,0,0,17.67,17.66h24.6a17.67,17.67,0,0,1,17.66,17.67h0a17.67,17.67,0,0,0,17.67,17.67H203a17.67,17.67,0,0,0,17.67-17.67h0A75.65,75.65,0,0,0,145,447.57H80.52A40.31,40.31,0,0,0,40.21,487.88Z" transform="translate(-8.95 -87.59)"/><path class="cls-7" d="M184.38,486.33a15.56,15.56,0,1,1,31.11,0Z" transform="translate(-8.95 -87.59)"/><path class="cls-8" d="M137.21,486.33a31.37,31.37,0,0,0,62.73,0Z" transform="translate(-8.95 -87.59)"/><path class="cls-7" d="M150.53,486.33a16.93,16.93,0,0,0,33.85,0Z" transform="translate(-8.95 -87.59)"/><path class="cls-9" d="M199.94,483.31h20.92a1.51,1.51,0,0,1,0,3H204.08l8.25,8.24c.41.41.26,1.22-.33,1.81s-1.39.73-1.8.32l-10.26-10.26.12-.11h-.12Z" transform="translate(-8.95 -87.59)"/><g class="cls-10"><path class="cls-3" d="M389.28,161l28.8,33.56v29.93H358v-31s31.31-32.29,31.31-32.47" transform="translate(-8.95 -87.59)"/><polygon class="cls-11" points="380.7 75.65 349.01 105.92 334.98 105.92 373.53 68.79 380.7 75.65"/><polygon class="cls-5" points="512.59 107.07 409.36 107.07 373.45 68.76 476.68 68.76 512.59 107.07"/><rect class="cls-11" x="372.34" y="114.37" width="10.25" height="17.41"/><rect class="cls-11" x="424.64" y="115.34" width="8.96" height="7.48"/><rect class="cls-11" x="447.01" y="115.34" width="8.96" height="7.48"/><rect class="cls-11" x="469.37" y="115.34" width="8.96" height="7.48"/></g><circle class="cls-5" cx="299.68" cy="66.63" r="44.59"/><rect class="cls-3" x="297.61" y="78.8" width="4.13" height="58.02"/><path class="cls-3" d="M32.4,394.71l28.47-79.9c10.67-31.23,37.81-51.9,68.12-51.9h95.89c19.3,0,37.81-8.44,51.46-23.46h0C290,224.43,308.5,216,327.8,216H526.94l4.66,15.84c1.81,17,1.42,35,0,52.07v9.94c-1.6,19.23-2.77,33.66-8.42,52.11L510,370.84l-3,6.45a259,259,0,0,1-38.72,60.51l-4.78,5.58L78.37,456.86,61.7,435.11A300.54,300.54,0,0,1,42,409Z" transform="translate(-8.95 -87.59)"/><path class="cls-6" d="M111.69,488.09c-15.61-11.73-22.11-23.3-22.11-23.3l-3.86-3.49c3.86,0-6.06-1.32-6.06-7.23s3.13-10.69,7-10.69H468.19L423,483.43,369.4,515.12l-83,19.1-65.27-2.62-39.74-13.67-35.26-10.74Z" transform="translate(-8.95 -87.59)"/><path class="cls-4" d="M344,399.63l4.4,7.6,7.87-7.93s.49-8.93,5.22-23.32c-4.56.63-11-.94-15.57,0A176.44,176.44,0,0,0,344,399.63Z" transform="translate(-8.95 -87.59)"/><path class="cls-11" d="M354.86,398.5s-4.68,1.3-6.17,1-3.38-2.25-4.92-1.2-4.16,9.88-3.69,11.82,1.9,4.27,3.43,4.59,30.16.43,34.38-.62,3.24-5.52-1.21-7.54S357.14,397,354.86,398.5Z" transform="translate(-8.95 -87.59)"/><path class="cls-5" d="M381.38,318c-2.81-15.82-64.63-17.41-64.63-17.41-12.83,4.07-8,10.1-17.35,17.92,3.44,5.93,6.59,10.85,7.87,11.06,3.31.56,50.75.67,50.75.67l-10,56.24c5.14.83,8.27.25,13.42,1.25C369.46,364.55,383.77,331.4,381.38,318Z" transform="translate(-8.95 -87.59)"/><path class="cls-5" d="M241.45,411.11a29.94,29.94,0,1,1-29.94-29.94A29.94,29.94,0,0,1,241.45,411.11Z" transform="translate(-8.95 -87.59)"/><polygon class="cls-5" points="397.39 189.07 419.99 187.78 418.69 195.03 397.39 194.81 397.39 189.07"/><polygon class="cls-4" points="389.78 196.18 368.46 323.52 404.29 294.47 403.04 196.7 389.78 196.18"/><path class="cls-6" d="M225.63,335.47l.11,3,101.33.78,1-8.6-95.18-1.61C228.77,329,225.5,331.88,225.63,335.47Z" transform="translate(-8.95 -87.59)"/><polygon class="cls-5" points="223.52 257.28 220.89 250.96 315.41 251.68 314.03 257.94 223.52 257.28"/><path class="cls-6" d="M225.1,371c-.68-.2-1.36-.39-2-.56-29.42-7.32-54.42,13.74-48.33,41.32l66.61.17L255.4,426S251.84,379.1,225.1,371Z" transform="translate(-8.95 -87.59)"/><path class="cls-5" d="M432.33,246.93c1.05-4.27.56-7.76-1.08-7.78s-3.8,3.43-4.81,7.71c-.95,4-.58,7.32.79,7.74L407,282.88l3.13.95,17.59-29.21C429.3,254.38,431.33,251,432.33,246.93Z" transform="translate(-8.95 -87.59)"/><polygon class="cls-7" points="391.41 186.41 386.45 187.09 381.98 194.74 390.41 196.8 391.41 186.41"/><path class="cls-4" d="M390,156.84c-.18,6.15.84,5.92.79,6.71s-7.34,11.11-7.34,11.11S362.1,204.82,360.9,206.4l-32.51,19.52L333,244.86s34.83-22.18,36.45-23.66,25.82-45.54,28.07-49.36c0,0,4.32-3.57,7-5.9s4.15-5.72,4.79-6.5a31.87,31.87,0,0,0,3.72-6.77c1.39-3.41-1.46-.79-1.46-.79s-3.69,5.89-4.09,5.52,1.89-3.38,3.47-7.14c.41-1,.8-1.93,1.16-2.81.94-2.32-.18-3.54-1.54-1.26a24.93,24.93,0,0,0-1.66,3.19,20.39,20.39,0,0,1-1.73,2.9,25.59,25.59,0,0,1-1.8,3c-.06-.1-.5.11-.1-.93.48-1.26,2.07-3.7,2.64-5.59.32-1.07,1.13-3.28,1.13-3.28a22.51,22.51,0,0,0,.42-3.65c-1-.55-2.13,1.77-2.38,3.28a17.58,17.58,0,0,0-1.43,3.23s-2.62,4.4-3.23,4c-.26-.15,1-3,1.87-6.05.78-2.81,1.11-5.77.59-6-.88-.39-2.07,2.64-2.07,2.64s-.72,2.16-1,2.86-1.56,3.21-1.56,3.21-4.6,8.12-5.15,7.73a4.31,4.31,0,0,1-1.44-2.56c.11-.6.89-1.6,1-2.2a1.46,1.46,0,0,0-.95-1.65c-.71-.19-2.36,2.51-2.36,2.51A10.27,10.27,0,0,0,390,156.84Z" transform="translate(-8.95 -87.59)"/><path class="cls-6" d="M349.17,211.13c-1.09-.45-34.26,13.15-35.76,20.24s7.07,20.09,16.46,16.86,30-18.9,30-18.9S352.68,212.58,349.17,211.13Z" transform="translate(-8.95 -87.59)"/><path class="cls-6" d="M316.75,300.57l1.84-4.76s20.86-40.09,20.54-60.65c-.19-9.12-9.43-13.89-10.64-14.15-6.06-1.3-18.39-8.29-28.5-1.35-11.91,8.34-25.58,48-25.94,59.71s-1.39,33.37,4.2,42.75C287.47,314.29,303.92,304.64,316.75,300.57Z" transform="translate(-8.95 -87.59)"/><path class="cls-4" d="M330.56,400.44l4.4,7.61,7.87-7.94s.49-8.92,5.22-23.31c-4.56.63-11-.95-15.57,0A176.24,176.24,0,0,0,330.56,400.44Z" transform="translate(-8.95 -87.59)"/><path class="cls-11" d="M341.44,399.31s-4.68,1.3-6.17,1-3.38-2.26-4.92-1.21-4.16,9.88-3.69,11.82,1.9,4.27,3.43,4.6,30.16.42,34.38-.63,3.24-5.52-1.2-7.53S343.72,397.77,341.44,399.31Z" transform="translate(-8.95 -87.59)"/><path class="cls-6" d="M362.64,319.43c1.31-16-45.89-18.86-45.89-18.86-12.83,4.07-29.09,8.65-38.41,16.47,3.44,5.94,11,12.3,12.25,12.51,3.31.56,44,2.67,44,2.67l-8.8,54.9,21.88,2.29C349.33,385.67,361,339.29,362.64,319.43Z" transform="translate(-8.95 -87.59)"/><path class="cls-4" d="M321.74,278.33c-3.71-2,4.68-48.85-10.55-57.32,0,0-6.07-4-13.95,2.73s4.41,70.74,11.88,74.7c11.16,5.91,50.1-8.31,60-10.66L368,277.46S325,280.06,321.74,278.33Z" transform="translate(-8.95 -87.59)"/><path class="cls-5" d="M321.74,267.51c.38-16.27-.37-40.84-10.55-46.5,0,0-6.07-4-13.95,2.73-4.51,3.93-7.48,29.92-4,50.28C300.09,270.23,313.76,267.42,321.74,267.51Z" transform="translate(-8.95 -87.59)"/><path class="cls-5" d="M389.92,244.29c1.28-4.26,3.64-7.61,5.26-7.48s1.86,3.7.54,8c-1.23,4-3.36,7.19-4.93,7.47l4.76,29.46-3.55.63-1.7-30.11C388.88,251.83,388.69,248.38,389.92,244.29Z" transform="translate(-8.95 -87.59)"/><ellipse class="cls-5" cx="379.34" cy="153.63" rx="9.61" ry="11.61"/><polygon class="cls-6" points="407.32 187.02 405.83 196.67 390.41 196.8 391.41 186.41 407.32 187.02"/><polygon class="cls-6" points="377.05 320.55 360.16 326.74 380.92 209.14 374.88 207.32 381.98 194.74 390.41 196.8 377.05 320.55"/><path class="cls-5" d="M365.79,276.65s25.14-1.35,30.36-.09c1.67.4.49,5.48-.83,6.58-6.07,5.06-29.53,4.65-29.53,4.65Z" transform="translate(-8.95 -87.59)"/><path class="cls-12" d="M369.54,282.18c0,3.09-1.67,5.6-3.75,5.6s-3.75-2.51-3.75-5.6,1.68-5.59,3.75-5.59S369.54,279.1,369.54,282.18Z" transform="translate(-8.95 -87.59)"/><path class="cls-4" d="M369.54,276.47s5.35-5,7.42-5,4.88.69,5.77.69c.49,0,5.08,8.54,3.92,9.72-.71.72-4.4-5.89-4.4-5.89s4.21,6.81,2.33,7.29c-1.05.27-4.77-6.58-4.77-6.58s3.21,5.67,2.84,5.89c-1.62.95-7.86-6.19-7.86-6.19Z" transform="translate(-8.95 -87.59)"/><path class="cls-4" d="M328,210.67l1.05,7.79s2.35,11.21-.67,13.37-12.86-13.69-12.86-13.69l1-19.72Z" transform="translate(-8.95 -87.59)"/><path class="cls-3" d="M316.17,204.81c2.5,6.72,8.45,10.86,12.67,12.46l-.89-6.6-11.44-12.25Z" transform="translate(-8.95 -87.59)"/><path class="cls-4" d="M323.5,177.7A10.41,10.41,0,0,1,337.11,186a80.15,80.15,0,0,1,.84,10c.16,9.09-4.54,17.94-8.67,17.94s-15.53-5.89-15.94-18.79C313.08,187.15,317.06,179.92,323.5,177.7Z" transform="translate(-8.95 -87.59)"/><path class="cls-4" d="M316.38,196.14c0,2-1.33,3.63-3,3.63s-3-1.62-3-3.63,1.33-3.63,3-3.63S316.38,194.14,316.38,196.14Z" transform="translate(-8.95 -87.59)"/><circle class="cls-11" cx="422.51" cy="411.11" r="32.8" transform="translate(-175.9 331.58) rotate(-45)"/><path class="cls-5" d="M457.41,384.35c-2.94-4.21-15.75-19.4-42-9.83-29.34,11.07-28.1,37.81-53.05,39.53-17.29,1.21-50.12.64-68.48.18a14.39,14.39,0,0,1-14.24-15.7A30.88,30.88,0,0,1,286,381.72c10.75-12.87,35.78-28.33,35.78-28.33l1.07-9.25-87.95-1.41-2.39,2.14-44.82,31.87-2.26,17.88s51.63,2.72,60.06,6,10,25.41,10,25.41l108.85.16c8.94,0,18.31-4.63,24.93-12.21l.91-1c0-.13,0-.26,0-.39h68l6.49-16.35a8.72,8.72,0,0,0-7.17-11.88Z" transform="translate(-8.95 -87.59)"/><path class="cls-6" d="M416.13,341.56a12.48,12.48,0,1,1,0-25" transform="translate(-8.95 -87.59)"/><path class="cls-6" d="M313.33,195.17s-4.33-10.76-2.86-16.34c.67-2.51,4.44-3.67,4.44-3.67a5.86,5.86,0,0,1,2.77-5.52c3.49-2.36,10.72-.52,10.72-.52s5.87-6.1,12.15-2.28.66,10.73.66,10.73,1.89,3.9-4.58,5.65c-6.3,1.71-17.87-2.86-17.87-2.86a42.22,42.22,0,0,1-2.21,12.39A3.84,3.84,0,0,1,313.33,195.17Z" transform="translate(-8.95 -87.59)"/><path class="cls-5" d="M219.66,497l-4,29c0,7.05.22,9.21.36,12.88a3,3,0,0,0,3,2.85h12.68a3,3,0,0,0,2.89-3.17c-.42-6.08-2.14-14.9-1.92-16.24l6.93-23a26.63,26.63,0,0,0-.59-11.27l-7.44-26.77-19.83,27.49Z" transform="translate(-8.95 -87.59)"/><path class="cls-5" d="M323.53,496.54l-18.92,16a3.47,3.47,0,0,0-1.22,2.74l1.48,24a2.44,2.44,0,0,1-2.36,2.45H270.94c-.95,0-4.33-5.75-4.24-6.27h0a3.91,3.91,0,0,1,2.8-3.09l10.51-4a2.45,2.45,0,0,0,1.78-2.59s-2.76-15.88-2.7-16.73l1.4-18a2.43,2.43,0,0,1,1-1.81l22.6-16a2.43,2.43,0,0,1,2.85,0l15.67,11.39a2.46,2.46,0,0,1,1,1.75l.75,8A2.46,2.46,0,0,1,323.53,496.54Z" transform="translate(-8.95 -87.59)"/><path class="cls-4" d="M338.39,526.91h0c-1.47,2.72-10,6.58-10,6.58a3.12,3.12,0,0,0-2.19,2.53l-.06.33c-.12.79,1.68,5.69,4.65,5.41l33.26,0a1.57,1.57,0,0,0,1.42-1.7l-28-70.68c-5.68-9.29-2.89-19.18-51.9-39.49-7.91-3.28-74.8-17.91-74.8-17.91a31,31,0,0,0-11,.58h0a13.28,13.28,0,0,0-9.78,9.45l-.18.67c-2.91,10.73,1.28,42.63,3,56.73.2,1.65-4,13.68-8.78,27-6.46,17.77-9.8,24.53-14.74,24.53-5.51,0-5.38,10.8-3.31,10.8h18a3,3,0,0,0,3-3.16s.74-1.22,1-1.61c6.74-10.21,22.48-32,28.32-39.91,4.31-5.83,11.11-26.77,11.11-26.77a49.76,49.76,0,0,0,33.18,19.5c30.68,4.19,43.28-2.27,43.28-2.27S339,525.72,338.39,526.91Z" transform="translate(-8.95 -87.59)"/><path class="cls-4" d="M148,409.2c3.29,7.39,10.62,11.31,16.36,8.75s7.75-10.63,4.46-18-10.62-11.31-16.37-8.75S144.66,401.81,148,409.2Z" transform="translate(-8.95 -87.59)"/><path class="cls-5" d="M161.25,414c-3.41.62-7.44-2.19-9.37-6.54-2.19-4.92-1.07-10.39,2.44-12a5,5,0,0,1,1.14-.35c3.41-.62,7.44,2.19,9.38,6.54a11.91,11.91,0,0,1,.85,7.6,6.15,6.15,0,0,1-3.29,4.36,5.1,5.1,0,0,1-1.15.35Z" transform="translate(-8.95 -87.59)"/><path class="cls-4" d="M227.27,409.2c-3.29,7.39-10.62,11.31-16.37,8.75s-7.74-10.63-4.45-18,10.62-11.31,16.37-8.75S230.56,401.81,227.27,409.2Z" transform="translate(-8.95 -87.59)"/><path class="cls-5" d="M214,414c3.4.62,7.43-2.19,9.37-6.54,2.19-4.92,1.07-10.39-2.44-12a5.1,5.1,0,0,0-1.15-.35c-3.41-.62-7.44,2.19-9.37,6.54a11.84,11.84,0,0,0-.85,7.6,6.1,6.1,0,0,0,3.29,4.36A5.1,5.1,0,0,0,214,414Z" transform="translate(-8.95 -87.59)"/><path class="cls-6" d="M163.11,395.08a30,30,0,0,1,53.36,25.54,30.34,30.34,0,0,1-1.45,4l-.4.86a29.92,29.92,0,0,1-3.24,5.24h0l0,0c-.59.76-1.22,1.49-1.88,2.19l-6.26,7.33h0a19.5,19.5,0,0,1-31.73-.79h0l-4.52-5.32a30.06,30.06,0,0,1-4.13-4.87l0-.05h0a30.3,30.3,0,0,1-2.18-3.75l-.4-.86a29.86,29.86,0,0,1-2.58-12.2A29.79,29.79,0,0,1,163.11,395.08Z" transform="translate(-8.95 -87.59)"/><path class="cls-5" d="M176.27,415.2a16.65,16.65,0,0,1,7.22-12.46,7.28,7.28,0,0,1,8.23,0A16.63,16.63,0,0,1,199,415.2a16.65,16.65,0,0,1-10.89,29.23h-.9a16.64,16.64,0,0,1-16.64-16.64,17.19,17.19,0,0,1,.34-3.4A16.67,16.67,0,0,1,176.27,415.2Z" transform="translate(-8.95 -87.59)"/><path class="cls-5" d="M194.65,418h6.29a9.89,9.89,0,0,0,9.89-9.89v-1.53a9.89,9.89,0,0,0-9.89-9.9h-6.29a9.89,9.89,0,0,0-9.89,9.9v1.53A9.89,9.89,0,0,0,194.65,418Z" transform="translate(-8.95 -87.59)"/><path class="cls-5" d="M174.28,418h6.29a9.89,9.89,0,0,0,9.89-9.89v-1.53a9.89,9.89,0,0,0-9.89-9.9h-6.29a9.89,9.89,0,0,0-9.89,9.9v1.53A9.89,9.89,0,0,0,174.28,418Z" transform="translate(-8.95 -87.59)"/><path class="cls-4" d="M329.35,465.87C347.09,462.8,363,451,370.46,434.51c8.33-18.44,5.52-37.77-3.84-55.2-8.13-15.16-20.59-30.6-38.09-34.84-16.24-3.93-35,2.12-41.54,18.53-7.94,20.06,6.95,40.53,27.77,41.68,9.17.5,9.14-13.76,0-14.26-16.81-.93-21.52-24-6-31,14.62-6.55,29.43,3.68,38,15.06,10.08,13.41,17.73,30.33,13.22,47.26-4.36,16.42-18,27.54-34.43,30.39-9,1.56-5.2,15.3,3.79,13.75Z" transform="translate(-8.95 -87.59)"/></g><path class="cls-5" d="M137,283.9H130.2V255.57A27.69,27.69,0,0,1,155.68,228c.72-.06,20.24-.09,21-.09v6.79c-.95,0-20.69.06-21.61.19A20.89,20.89,0,0,0,137,255.57Z" transform="translate(-8.95 -87.59)"/><rect class="cls-5" x="121.25" y="127.45" width="6.79" height="227.66"/><path class="cls-5" d="M143.63,321.42a31.23,31.23,0,0,1,22.74-5.58L131.1,341.21A31.26,31.26,0,0,1,143.63,321.42Z" transform="translate(-8.95 -87.59)"/><path class="cls-5" d="M121.37,376.73a31.29,31.29,0,0,0-22.74-5.58l35.27,25.37A31.3,31.3,0,0,0,121.37,376.73Z" transform="translate(-8.95 -87.59)"/><path class="cls-5" d="M121.31,263.41a31.3,31.3,0,0,1,10.2,21.08L99.34,255.28A31.32,31.32,0,0,1,121.31,263.41Z" transform="translate(-8.95 -87.59)"/><path class="cls-4" d="M188.4,247.08a15.79,15.79,0,1,1,0-31.58h19.34l5.88-3.93v13.08l6.73,6.73-6.21,6.21v14.18l-7-4.18Z" transform="translate(-8.95 -87.59)"/><path class="cls-4" d="M149.75,203.67a15.8,15.8,0,0,1-31.59,0V184.33l-3.93-5.88h13.09l6.73-6.73,6.21,6.21h14.17l-4.17,7Z" transform="translate(-8.95 -87.59)"/><path class="cls-5" d="M226,234.5a2.83,2.83,0,1,1,1.73-3.61A2.83,2.83,0,0,1,226,234.5Z" transform="translate(-8.95 -87.59)"/><path class="cls-5" d="M222.12,222a2.83,2.83,0,1,1,1.72-3.61A2.84,2.84,0,0,1,222.12,222Z" transform="translate(-8.95 -87.59)"/><path class="cls-5" d="M222.12,245.26a2.83,2.83,0,1,1,1.72-3.62A2.84,2.84,0,0,1,222.12,245.26Z" transform="translate(-8.95 -87.59)"/><path class="cls-5" d="M132.2,353.33v6.79h28.33a27.7,27.7,0,0,0,27.57-25.48c.06-.72.09-20.24.09-21H181.4c0,.95-.06,20.69-.19,21.61a20.9,20.9,0,0,1-20.68,18.06Z" transform="translate(-8.95 -87.59)"/><path class="cls-4" d="M169,301.92a15.79,15.79,0,0,0,31.58,0V282.58l3.93-5.88H191.45L184.71,270l-6.21,6.21H164.33l4.17,7Z" transform="translate(-8.95 -87.59)"/><path class="cls-5" d="M181.59,264.28a2.83,2.83,0,1,0,3.62-1.73A2.84,2.84,0,0,0,181.59,264.28Z" transform="translate(-8.95 -87.59)"/><path class="cls-5" d="M194.12,268.2a2.84,2.84,0,1,0,3.62-1.72A2.84,2.84,0,0,0,194.12,268.2Z" transform="translate(-8.95 -87.59)"/><path class="cls-5" d="M170.84,268.2a2.83,2.83,0,1,0,3.61-1.72A2.83,2.83,0,0,0,170.84,268.2Z" transform="translate(-8.95 -87.59)"/><path class="cls-5" d="M136.71,163.29a2.83,2.83,0,1,1-3.62-1.73A2.84,2.84,0,0,1,136.71,163.29Z" transform="translate(-8.95 -87.59)"/><path class="cls-5" d="M124.18,167.21a2.83,2.83,0,1,1-3.62-1.72A2.84,2.84,0,0,1,124.18,167.21Z" transform="translate(-8.95 -87.59)"/><path class="cls-5" d="M147.46,167.21a2.83,2.83,0,1,1-3.61-1.72A2.83,2.83,0,0,1,147.46,167.21Z" transform="translate(-8.95 -87.59)"/></g></g></svg>