<?xml version="1.0" encoding="utf-8"?>
<!-- Generator: Adobe Illustrator 24.1.3, SVG Export Plug-In . SVG Version: 6.00 Build 0)  -->
<svg version="1.1" id="Capa_1" xmlns="http://www.w3.org/2000/svg" xmlns:xlink="http://www.w3.org/1999/xlink" x="0px" y="0px"
	 viewBox="0 0 986.5 617" style="enable-background:new 0 0 986.5 617;" xml:space="preserve">
<style type="text/css">
	.st0{fill:#1E4A93;}
	.st1{fill:#F5F6D3;}
	.st2{fill:#0E243F;}
	.st3{fill:none;}
	.st4{fill:#3268DF;}
	.st5{fill:#3595E0;}
	.st6{fill:#6BDBB7;}
	.st7{fill:#F4A833;}
	.st8{fill:#FACE33;}
	.st9{fill:#EB6654;}
	.st10{fill:none;stroke:#1A2E35;stroke-width:6;stroke-linecap:round;stroke-linejoin:round;}
	.st11{fill:#038D71;}
	.st12{fill:#D2D8DB;}
	.st13{fill-rule:evenodd;clip-rule:evenodd;fill:#038D71;}
	.st14{fill-rule:evenodd;clip-rule:evenodd;fill:#003B30;}
	.st15{fill:#03AED7;}
	.st16{fill:#333343;}
	.st17{fill:#4F8FCB;}
	.st18{fill:#8282A8;}
	.st19{fill:#FBF3FF;}
	.st20{fill:#F47458;}
	.st21{fill:#1A2E35;}
	.st22{fill:#FFFFFF;}
	.st23{fill:#FFFBF3;}
	.st24{opacity:0.37;fill:#FF4900;enable-background:new    ;}
	.st25{fill:#282828;}
	.st26{fill:#FF8A63;}
	.st27{fill:#C12925;}
	.st28{fill:#FF7D63;}
	.st29{fill:#F7604B;}
	.st30{fill:#E6E6E6;}
	.st31{opacity:0.68;fill:#FF4900;enable-background:new    ;}
	.st32{fill:#FF7446;}
	.st33{fill:#6678A8;}
	.st34{fill:#5B6B1A;}
	.st35{opacity:0.46;fill:#EFBE5E;enable-background:new    ;}
	.st36{fill:#D6D4E6;}
	.st37{fill:#F4F0EA;}
	.st38{opacity:0.68;fill:#FF682B;enable-background:new    ;}
	.st39{opacity:0.25;fill:#FFD357;enable-background:new    ;}
	.st40{fill:#BF2604;}
</style>
<g id="Arte">
	<polygon class="st0" points="985.9,616.8 0,616.8 70.2,548.2 985.9,548.2 	"/>
	<path class="st0" d="M761,140.2l-78-0.4l-2.4,177.7l-36,1.3l-26.7,3.9l1-183.2l-78-0.4l0.3-52.5l220,0.4L761,140.2z"/>
	<rect x="742.5" y="379.9" class="st1" width="232.1" height="123"/>
	<path class="st2" d="M964.3,280.6c0.1,11.2-2.7,22.3-8.1,32.2c-5.4,9.8-13.4,17.6-24,23.3s-23.6,8.6-38.8,8.6
		c-15.4,0-28.5-3-39.2-9s-18.6-13.9-23.8-23.7c-10.4-19.7-10.4-43.2,0-62.9c5.2-9.8,13.1-17.6,23.8-23.6s23.8-9,39.2-9
		c11.5,0,21.8,1.7,30.8,5.1c8.3,3,16,7.7,22.3,13.9c5.8,5.8,10.3,12.8,13.2,20.5C962.8,263.8,964.4,272.2,964.3,280.6z M926,280.6
		c0.1-4.4-0.6-8.7-2.1-12.8c-1.3-3.8-3.5-7.2-6.3-10.1c-2.9-2.9-6.4-5.2-10.2-6.7c-4.5-1.7-9.2-2.5-14-2.4c-10.1,0-18,2.9-23.8,8.8
		c-5.8,5.9-8.7,13.6-8.6,23.1c0,9.5,2.9,17.3,8.7,23.2s13.7,8.9,23.7,8.9c6.9,0,12.8-1.4,17.7-4.1c4.7-2.6,8.6-6.6,11.1-11.4
		C924.7,292.1,926,286.3,926,280.6L926,280.6z"/>
	<rect x="955.9" class="st3" width="30" height="616.3"/>
	<path class="st4" d="M594.3,252.8c0.2,19.1-4.6,38-13.7,54.8c-9.2,16.7-22.8,29.9-40.9,39.8s-40.2,14.7-66.2,14.7
		c-26.3,0-48.6-5.1-66.8-15.4c-18.2-10.2-31.7-23.7-40.6-40.4c-17.7-33.5-17.7-73.6-0.1-107.2c8.8-16.6,22.3-30,40.6-40.2
		s40.5-15.3,66.8-15.3c19.7,0,37.2,2.9,52.6,8.8s28.1,13.7,38,23.7c9.9,9.9,17.6,21.8,22.6,34.9
		C591.8,224.3,594.4,238.5,594.3,252.8z M528.9,252.8c0.1-7.4-1.1-14.8-3.5-21.9c-2.3-6.4-5.9-12.3-10.7-17.2
		c-4.9-5-10.9-8.8-17.4-11.4c-7.6-2.8-15.7-4.2-23.8-4.1c-17.2,0-30.7,5-40.5,15.1s-14.7,23.2-14.7,39.5s4.9,29.4,14.8,39.5
		c9.9,10.1,23.4,15.1,40.5,15.1c11.8,0,21.8-2.3,30.1-7c8.1-4.4,14.6-11.2,18.9-19.3C526.8,272.9,528.9,263.4,528.9,252.8
		L528.9,252.8z"/>
	<path class="st5" d="M802.8,192.3v187.6H617.2v-73.4c0-61.4,49.8-114.1,111.1-114.1L802.8,192.3z"/>
	<rect x="436.9" y="379.5" class="st6" width="180.1" height="181.5"/>
	<rect x="802.5" y="192.2" class="st7" width="183.9" height="184.4"/>
	<polygon class="st8" points="744.6,379.9 744.6,561 616.8,561 616.8,379.5 	"/>
	
		<ellipse transform="matrix(0.2297 -0.9733 0.9733 0.2297 140.9432 1106.6847)" class="st7" cx="769.6" cy="464.3" rx="10.5" ry="10.5"/>
	<path class="st7" d="M484.7,272.9c11.9-7.1,26.6-7.3,40.1-7c11.5,0.3,30.5,4.5,40.3-3.1c10.1-7.9,8.8-24.8-1.1-32.3
		c-8.1-6.1-25.5-10.1-30.2,2.2c-3,7.7-7,14.9-13.9,19.8c-8.6,6.1-36.9,5.5-36.9,5.5l-21-27.8l3.4-2.5l11.9-8.9l32.8-24.5
		c1.7-1.2,4.5-1.8,6.5-2.1c3.8-0.4,7,1.5,10.4,2.7c4,1.4,7.4,1.3,11.6,1.1c7.9-0.3,15.8,0.2,23.6,1.4c14.6,2.4,29.1,8.5,37.3,21.3
		c0.4,0.6,0.8,1.3,1.2,2c10.3,18.4,8.6,47.1-5,63.4c-10.2,12.3-26.8,16.4-42.1,17.2c-8.7,0.4-17.4,0.3-26.1-0.3
		c-9.3-0.4-20.7-2.9-29.1,2.3c-4.4,2.8-7,7.8-8,12.9c-1.7,9.1-1.4,22,8.6,26.2c5.8,2.5,13.7,1.6,19.2-1.2
		c24.2-12.2,61.5-51,99.7-45.3l-1,83.7H566c-2.2-7.2-7.7-12.5-15.6-13.5c-10.2-1.2-18.3,6.5-27.5,9.4c-14.2,4.6-29.2,0.5-41.7-6.9
		c-16.3-9.7-24.3-27.7-25-46.3C455.4,301.3,466.8,283.6,484.7,272.9z"/>
	<path class="st9" d="M437.9,247.6l29.4-21.3l15.8,31.6l-24.5,17.5l-20.9,25C437.7,300.4,438.1,247.4,437.9,247.6z"/>
	<path class="st1" d="M484.2,227.6l11.4-5.5l0,0c2.7-1.5,6-0.5,7.5,2.1c0.9,1.6,0.9,3.6,0.1,5.2c-0.3,0.6-0.7,1.1-1.3,1.6l0.1,0.1
		l-0.5,0.3c-0.4,0.3-0.9,0.6-1.5,0.7l-8.9,4.5v17.3l-8,4.2l-16-31.9L484.2,227.6z"/>
	<polyline class="st10" points="977.4,436.5 654.6,436.5 654.6,417.1 742.5,379.9 973.7,379.9 	"/>
	<polygon class="st10" points="742.5,436.5 742.5,379.9 800.5,436.5 800.5,379.9 	"/>
	<polygon class="st10" points="800.5,436.5 800.5,379.9 858.5,436.5 858.5,379.9 	"/>
	<polygon class="st10" points="858.5,436.5 858.5,379.9 916.5,436.5 916.5,379.9 	"/>
	<polygon class="st10" points="916.5,436.5 916.5,379.9 974.5,436.5 974.5,379.9 	"/>
	<path class="st9" d="M986.4,375c0,30.1,0,185.8,0,185.8H745l-0.4-66.2l0,0l113.7-15.5C858.2,479.1,967.5,377.8,986.4,375z"/>
	<path class="st9" d="M986.4,375c-6.9-13.7-20.4-25.8-40.3-36.2c-22.6-11.7-54.9-22-96-30.5c-64.3-13.3-128.9-14.3-191.9-2.9
		c-51.2,9.3-100.8,26.2-147,50.2c-80.3,41.3-126.1,89.6-128,91.6l34.3,32.2c0.4-0.4,42.1-44.4,115.2-82
		c42.1-21.8,87.2-37.2,133.8-45.7c57.1-10.3,115.7-9.4,174.1,2.7c36.8,7.6,65,16.4,83.8,26.2c16.4,8.5,20.3,15.2,20.4,16.9
		c0,0.1-0.5,12.3-38.6,34.2c-34.8,20-89,41.3-161.1,63.2l13.7,45c75.5-23,133-45.7,170.8-67.5c32-18.4,49.4-37.2,56.8-56.7
		L986.4,375z"/>
	<path class="st1" d="M401.4,464.3l-2.2-2.1c0.1-0.1,1.5-1.6,4.3-4.3l2.1,2.1C402.9,462.8,401.4,464.3,401.4,464.3z"/>
	<path class="st1" d="M769.8,513.4l-0.9-2.9c3.9-1.2,7.7-2.4,11.4-3.6l0.9,2.9C777.5,510.9,773.7,512.1,769.8,513.4z M792.6,506
		l-0.9-2.9c3.8-1.3,7.6-2.5,11.3-3.8l1,2.8C800.3,503.4,796.5,504.7,792.6,506L792.6,506z M815.3,498.2l-1-2.8
		c3.8-1.3,7.6-2.7,11.3-4l1,2.8C822.9,495.5,819.2,496.9,815.3,498.2L815.3,498.2z M837.8,490l-1.1-2.8c3.8-1.4,7.6-2.9,11.2-4.3
		l1.1,2.8C845.4,487.1,841.7,488.6,837.8,490z M860.2,481.2l-1.1-2.8c3.7-1.5,7.4-3.1,11-4.6l1.2,2.8
		C867.6,478.1,863.9,479.7,860.2,481.2L860.2,481.2z M882.2,471.7l-1.2-2.7c3.7-1.7,7.3-3.4,10.8-5l1.3,2.7
		C889.6,468.4,885.9,470.1,882.2,471.7L882.2,471.7z M903.8,461.3l-1.4-2.7c3.6-1.9,7.2-3.8,10.5-5.6l1.5,2.6
		C911.1,457.5,907.5,459.5,903.8,461.3L903.8,461.3z M414.3,452l-2-2.2c2.9-2.6,5.9-5.3,9-7.9l1.9,2.3
		C420.2,446.7,417.2,449.4,414.3,452z M924.8,449.7l-1.6-2.6c3.5-2.1,6.9-4.3,10-6.5l1.7,2.5C931.8,445.3,928.4,447.5,924.8,449.7
		L924.8,449.7z M432.5,436.5l-1.9-2.3c3.1-2.5,6.2-5,9.4-7.5l1.8,2.4C438.7,431.5,435.5,434,432.5,436.5z M944.7,435.9l-1.9-2.3
		c3.1-2.4,6-5,8.9-7.8l2.1,2.1C950.9,430.8,947.9,433.5,944.7,435.9L944.7,435.9z M451.4,421.9l-1.8-2.4c3.2-2.4,6.5-4.7,9.8-7
		l1.7,2.5C457.8,417.2,454.6,419.5,451.4,421.9z M961.8,418.8l-2.4-1.8c2.3-3.1,4.2-6.4,5.6-10l2.8,1
		C966.3,411.9,964.3,415.5,961.8,418.8z M470.9,408.2l-1.7-2.5c3.3-2.2,6.7-4.4,10.1-6.5l1.6,2.5C477.6,403.8,474.3,406,470.9,408.2
		z M966.7,395.9c-0.3-3.8-1.4-7.4-3.3-10.7l2.6-1.5c2.1,3.7,3.3,7.7,3.6,12L966.7,395.9z M491.1,395.4l-1.5-2.6
		c3.4-2.1,6.9-4.1,10.4-6.1l1.5,2.6C498,391.3,494.5,393.4,491.1,395.4L491.1,395.4z M511.9,383.5l-1.4-2.6
		c3.5-1.9,7.1-3.8,10.6-5.6l1.4,2.7C518.9,379.8,515.4,381.6,511.9,383.5z M956.5,376.1c-2.8-2.7-5.8-5.2-9-7.4l1.7-2.5
		c3.4,2.3,6.5,4.9,9.4,7.8L956.5,376.1z M533.2,372.6l-1.3-2.7c3.6-1.7,7.2-3.5,10.9-5.1l1.2,2.7
		C540.3,369.1,536.7,370.9,533.2,372.6L533.2,372.6z M554.9,362.6l-1.2-2.8c3.7-1.6,7.4-3.1,11.1-4.6l1.1,2.8
		C562.2,359.5,558.5,361.1,554.9,362.6L554.9,362.6z M937.4,362.5c-3.2-1.8-6.8-3.6-10.6-5.3l1.2-2.7c3.9,1.8,7.5,3.6,10.8,5.4
		L937.4,362.5z M576.9,353.7l-1-2.8c3.7-1.4,7.5-2.8,11.3-4.1l1,2.8C584.5,350.9,580.7,352.3,576.9,353.7z M915.8,352.6
		c-3.5-1.4-7.3-2.8-11.2-4.1l1-2.8c3.9,1.4,7.7,2.7,11.3,4.1L915.8,352.6z M599.5,345.8l-0.9-2.9c3.8-1.2,7.7-2.4,11.5-3.5l0.9,2.9
		C607.1,343.4,603.3,344.6,599.5,345.8L599.5,345.8z M893.2,344.9c-3.7-1.1-7.5-2.2-11.5-3.3l0.8-2.9c4,1.1,7.8,2.2,11.5,3.3
		L893.2,344.9z M622.4,339.1l-0.8-2.9c3.8-1,7.8-2,11.6-3l0.7,2.9C630.1,337,626.2,338,622.4,339.1L622.4,339.1z M870.2,338.6
		c-3.8-0.9-7.7-1.9-11.6-2.8l0.7-2.9c4,0.9,7.9,1.8,11.7,2.8L870.2,338.6z M645.5,333.4l-0.6-2.9c3.9-0.9,7.9-1.7,11.8-2.4l0.6,2.9
		C653.4,331.8,649.5,332.6,645.5,333.4L645.5,333.4z M846.9,333.2l-1.9-0.4c-3.2-0.7-6.6-1.3-9.8-1.9l0.6-3c3.3,0.6,6.6,1.3,9.8,1.9
		l1.9,0.4L846.9,333.2z M669,328.9l-0.5-3c3.9-0.6,7.9-1.3,11.9-1.8l0.4,3C676.9,327.7,672.9,328.3,669,328.9L669,328.9z
		 M823.5,328.9c-3.9-0.6-7.9-1.2-11.8-1.8l0.4-3c3.9,0.5,7.9,1.1,11.9,1.8L823.5,328.9z M799.8,325.7c-3.9-0.5-7.9-0.9-11.9-1.2
		l0.3-3c4,0.4,8,0.8,12,1.2L799.8,325.7z M692.6,325.7l-0.3-3c4-0.5,8-0.9,11.9-1.2l0.3,3C700.6,324.8,696.6,325.2,692.6,325.7
		L692.6,325.7z M776,323.6c-4-0.2-8-0.5-11.9-0.6l0.1-3c4,0.2,8,0.4,12,0.6L776,323.6z M716.4,323.6l-0.2-3c4-0.2,8-0.5,12-0.6
		l0.1,3C724.4,323.1,720.4,323.3,716.4,323.6L716.4,323.6z M752.2,322.7c-2.1,0-4.2,0-6.3,0c-1.9,0-3.8,0-5.6,0v-3
		c1.9,0,3.8,0,5.8,0s4.2,0,6.2,0L752.2,322.7z"/>
	<path class="st1" d="M752.5,518.8l-0.9-2.9l5.7-1.8l0.9,2.9L752.5,518.8z"/>
	<path class="st1" d="M343.4,382.5h93.2l0,0V561l0,0H258.2l0,0v-93.2C258.2,420.7,296.4,382.5,343.4,382.5
		C343.4,382.5,343.4,382.5,343.4,382.5z"/>
	<path class="st11" d="M436.7,470.7v-91.2h-87.2c-50.4,0-91.2,40.8-91.2,91.2H436.7z"/>
	<path class="st2" d="M280.7,448.3c-12.3,0-22.3,10-22.3,22.3l0,0h44.5C302.9,458.3,293,448.3,280.7,448.3L280.7,448.3z"/>
	<path class="st2" d="M414.9,448.9c-12,0-21.6,9.7-21.6,21.6v0h43.2C436.5,458.6,426.9,449,414.9,448.9z"/>
	<path class="st2" d="M280.5,493.7c-11.9,0-21.5,9.6-21.5,21.4c0,0,0,0,0,0h43C301.9,503.4,292.3,493.7,280.5,493.7z"/>
	<path class="st2" d="M369.8,493.7c-11.9,0-21.5,9.6-21.5,21.5c0,0,0,0,0,0h43C391.3,503.4,381.6,493.7,369.8,493.7
		C369.8,493.7,369.8,493.7,369.8,493.7z"/>
	<path class="st2" d="M414.4,493.7c-11.9,0-21.5,9.6-21.5,21.5h43C435.9,503.4,426.3,493.7,414.4,493.7
		C414.4,493.7,414.4,493.7,414.4,493.7z"/>
	<polyline class="st2" points="919.1,95.6 948.7,125.1 919.5,125.1 	"/>
	<polyline class="st12" points="919.8,125 890.5,125 919,95.5 	"/>
	<rect x="890.4" y="124.2" class="st11" width="29.2" height="7.1"/>
	<rect x="919.6" y="124.2" class="st7" width="29.2" height="7.1"/>
	<polygon class="st2" points="986.5,117.6 986.5,173.8 948.1,173.8 948.1,152.8 	"/>
	<rect x="919.5" y="130.8" class="st6" width="29.2" height="43.7"/>
	
		<ellipse transform="matrix(0.7071 -0.7071 0.7071 0.7071 161.7292 683.2158)" class="st11" cx="905.6" cy="146.4" rx="7.8" ry="7.8"/>
	<rect x="961.9" y="244.7" class="st2" width="6.6" height="12.7"/>
	<rect x="941.1" y="244.7" class="st2" width="6.6" height="12.7"/>
	<rect x="920.4" y="244.7" class="st2" width="6.6" height="12.7"/>
	<rect x="857.4" y="292.8" class="st2" width="6.6" height="12.7"/>
	<polyline class="st11" points="986.4,275.3 860.7,275.2 888.4,310.4 986.4,310.4 	"/>
	<polygon class="st6" points="912.3,209.9 824.5,209.9 801.9,191.8 903,191.8 	"/>
	<rect x="801.8" y="180.9" class="st1" width="88" height="10.8"/>
	<polygon class="st0" points="905.3,209.9 824.7,209.9 824.6,303.4 859.7,274.9 859.7,245.4 	"/>
	<path class="st11" d="M919.3,173.8h67v58.5h-39.3l-25-25l-27.5,39.1h-36C858.4,246.5,918.9,173.8,919.3,173.8z"/>
	<polygon class="st6" points="947,232.3 921.9,207.4 971.5,207.4 	"/>
	<path class="st13" d="M598.9,355.6v25.3c0,10,7.3,16.6,11.5,21s6.7,10.5,6.7,29.8s-0.5,53.2-0.5,69.5c0,44-83.8,44-83.8,0
		c0-16.3-0.5-50.2-0.5-69.5s2.5-25.5,6.7-29.8s11.5-11,11.5-21v-25.3C550.3,321.9,598.9,321.9,598.9,355.6z"/>
	<path class="st14" d="M575.4,357.6c0-0.9-0.7-1.6-1.6-1.6c-0.9,0-1.6,0.7-1.6,1.6l0,0v36l-7.4-4.3c-0.4-0.3-1-0.1-1.3,0.3
		s-0.1,1,0.3,1.3l8.3,4.8v51.4l-21.9-12.7c-0.4-0.3-1-0.2-1.3,0.3c-0.3,0.4-0.2,1,0.3,1.3c0,0,0.1,0,0.1,0.1l22.9,13.2v49.3
		L550.3,486c-0.4-0.3-1-0.1-1.3,0.3c-0.3,0.4-0.1,1,0.3,1.3l0,0l22.9,13.2v58.6c0,0.9,0.7,1.6,1.6,1.6c0.9,0,1.6-0.7,1.6-1.6V514
		l18.8-10.8c0.4-0.3,0.6-0.8,0.3-1.3c-0.3-0.4-0.8-0.6-1.3-0.3c0,0,0,0,0,0l-17.8,10.3v-41.3l18.8-10.8c0.4-0.3,0.6-0.9,0.3-1.3
		c-0.3-0.4-0.8-0.5-1.2-0.3l-17.8,10.3v-41.2l18.8-10.8c0.5-0.2,0.7-0.8,0.4-1.3c-0.2-0.5-0.8-0.7-1.3-0.4c0,0-0.1,0-0.1,0.1
		L575.4,425v-41.2l12.2-7.1c0.5-0.3,0.6-0.8,0.3-1.3c-0.3-0.5-0.8-0.6-1.3-0.3l0,0l-11.3,6.5V357.6z"/>
	<path class="st13" d="M506.1,416.4v18c0,7.1,5.2,11.8,8.2,14.9s4.7,7.5,4.7,21.2s-0.4,37.8-0.4,49.4c0,31.3-59.6,31.3-59.6,0
		c0-11.6-0.4-35.7-0.4-49.4s1.8-18.1,4.7-21.2s8.2-7.8,8.2-14.9v-18C471.5,392.4,506.1,392.4,506.1,416.4z"/>
	<path class="st14" d="M490,417.8c0-0.6-0.5-1.1-1.1-1.1c-0.6,0-1.1,0.5-1.1,1.1v25.6l-5.3-3c-0.3-0.2-0.7-0.1-0.9,0.2
		c-0.2,0.3-0.1,0.7,0.2,0.9c0,0,0,0,0,0l5.9,3.4v36.6l-15.6-9c-0.3-0.2-0.7,0-0.9,0.3c-0.1,0.3,0,0.6,0.2,0.8l16.2,9.3v35l-15.6-9
		c-0.3-0.2-0.7-0.1-0.9,0.2c0,0,0,0,0,0c-0.2,0.3-0.1,0.7,0.2,0.9l16.2,9.4v40.3c0,0.6,0.5,1.1,1.1,1.1c0.6,0,1.1-0.5,1.1-1.1v-31
		l13.3-7.7c0.3-0.2,0.4-0.6,0.2-0.9c-0.2-0.3-0.5-0.4-0.8-0.2l-12.7,7.3V498l13.3-7.7c0.3-0.2,0.4-0.6,0.2-0.9
		c-0.2-0.3-0.5-0.4-0.8-0.2l-12.7,7.3v-29.3l13.3-7.7c0.3-0.2,0.4-0.6,0.2-0.9c-0.2-0.3-0.6-0.4-0.9-0.2c0,0,0,0,0,0l-12.7,7.3
		v-29.3l8.7-5c0.3-0.2,0.4-0.6,0.2-0.9c-0.2-0.3-0.6-0.4-0.9-0.2l-8,4.6L490,417.8z"/>
	<path class="st8" d="M729.4,315.5l2.8,4.9l5-5.1c0.5-5.1,1.6-10.1,3.3-14.9c-2.9,0.4-7-0.6-9.9,0
		C729.8,305.4,729.4,310.5,729.4,315.5z"/>
	<path class="st2" d="M736.3,314.8c-1.3,0.4-2.6,0.6-4,0.6c-1-0.2-2.2-1.4-3.1-0.8s-2.7,6.3-2.4,7.6s1.2,2.7,2.2,2.9
		s19.3,0.3,22-0.4s2.1-3.5-0.8-4.8S737.8,313.8,736.3,314.8z"/>
	<path class="st15" d="M753.3,263.3c-1.8-10.1-41.3-11.1-41.3-11.1c-8.2,2.6-5.1,6.5-11.1,11.5c2.2,3.8,4.2,6.9,5,7.1
		c2.1,0.4,32.4,0.4,32.4,0.4l-6.4,36c3.3,0.5,5.3,0.2,8.6,0.8C745.7,293.1,754.8,271.9,753.3,263.3z"/>
	<path class="st16" d="M663.8,322.9c0,10.6-8.6,19.1-19.1,19.1s-19.1-8.6-19.1-19.1c0-10.6,8.6-19.1,19.1-19.1
		S663.8,312.3,663.8,322.9L663.8,322.9z"/>
	<polygon class="st9" points="769.2,236.9 783.7,236.1 782.9,240.7 769.2,240.6 	"/>
	<polygon class="st7" points="764.4,241.5 750.7,322.9 773.6,304.3 772.8,241.8 	"/>
	<path class="st11" d="M653.7,274.5l0.1,2l64.8,0.5l0.7-5.5l-60.8-1C655.7,270.4,653.6,272.2,653.7,274.5z"/>
	<polygon class="st17" points="658.1,280.5 656.4,276.5 716.8,276.9 716,280.9 	"/>
	<path class="st11" d="M653.4,297.2c-0.4-0.1-0.9-0.2-1.3-0.4c-18.8-4.7-34.8,8.8-30.9,26.4l42.6,0.1l9,9
		C672.8,332.4,670.5,302.4,653.4,297.2z"/>
	<path class="st9" d="M785.9,217.9c0.7-2.7,0.4-4.9-0.7-5s-2.4,2.2-3.1,4.9c-0.6,2.6-0.4,4.7,0.5,4.9l-12.9,18.1l2,0.6l11.3-18.6
		C783.9,222.7,785.2,220.5,785.9,217.9z"/>
	<polygon class="st18" points="765.4,235.2 762.3,235.7 759.4,240.5 764.8,241.9 	"/>
	<path class="st8" d="M758.8,160.3c-0.1,3.9,0.5,3.8,0.5,4.3s-4.7,7.1-4.7,7.1S740.9,191,740.2,192l-20.8,12.5l3,12.1
		c0,0,22.3-14.2,23.3-15.1s16.5-29.1,17.9-31.6c0,0,2.8-2.3,4.4-3.8c1.2-1.2,2.2-2.6,3.1-4.1c1-1.3,1.8-2.8,2.4-4.3
		c0.9-2.2-0.9-0.5-0.9-0.5s-2.4,3.8-2.6,3.5s1.2-2.2,2.2-4.6c0.3-0.6,0.5-1.2,0.7-1.8c0.6-1.5-0.1-2.3-1-0.8c-0.4,0.6-0.8,1.3-1.1,2
		c-0.3,0.6-0.7,1.3-1.1,1.9c-0.3,0.7-0.7,1.3-1.2,1.9c0-0.1-0.3,0.1-0.1-0.6s1.3-2.4,1.7-3.6c0.2-0.7,0.7-2.1,0.7-2.1
		c0.2-0.8,0.2-1.5,0.3-2.3c-0.7-0.4-1.4,1.1-1.5,2.1c-0.4,0.7-0.7,1.4-0.9,2.1c0,0-1.7,2.8-2.1,2.6c-0.2-0.1,0.7-1.9,1.2-3.9
		s0.7-3.7,0.4-3.8c-0.6-0.2-1.3,1.7-1.3,1.7s-0.5,1.4-0.6,1.8s-1,2.1-1,2.1s-2.9,5.2-3.3,4.9c-0.5-0.4-0.8-1-0.9-1.6
		c0.1-0.4,0.6-1,0.6-1.4c0.1-0.5-0.2-0.9-0.6-1.1c-0.4-0.1-1.5,1.6-1.5,1.6C759.2,158.5,758.9,159.4,758.8,160.3z"/>
	<path class="st11" d="M732.7,195c-0.7-0.3-21.9,8.4-22.9,12.9s4.5,12.8,10.5,10.8s19.2-12.1,19.2-12.1S734.9,196,732.7,195z"/>
	<path class="st11" d="M711.9,252.2l1.2-3c0,0,13.3-25.6,13.1-38.8c-0.1-5.8-6-8.9-6.8-9c-3.9-0.8-11.8-5.3-18.2-0.9
		c-7.6,5.3-16.3,30.7-16.6,38.2s-0.9,21.3,2.7,27.3C693.3,261,703.8,254.8,711.9,252.2z"/>
	<path class="st8" d="M720.8,316l2.8,4.9l5-5.1c0,0,0.3-5.7,3.3-14.9c-2.9,0.4-7-0.6-10,0C721.2,305.9,720.8,311,720.8,316z"/>
	<path class="st2" d="M727.8,315.3c-1.3,0.4-2.6,0.6-4,0.6c-0.9-0.2-2.2-1.4-3.1-0.8s-2.7,6.3-2.4,7.6s1.2,2.7,2.2,2.9
		s19.3,0.3,22-0.4s2.1-3.5-0.8-4.8S729.2,314.3,727.8,315.3z"/>
	<path class="st1" d="M741.3,264.3c0.8-10.3-29.4-12.1-29.4-12.1c-8.2,2.6-18.6,5.5-24.6,10.5c2.2,3.8,7,7.9,7.8,8
		c2.1,0.4,28.1,1.7,28.1,1.7l-5.6,35.1l14,1.5C732.8,306.6,740.3,277,741.3,264.3z"/>
	<path class="st8" d="M715.1,238c-2.4-1.2,3-31.2-6.7-36.6c0,0-3.9-2.6-8.9,1.7s2.8,45.2,7.6,47.8c7.1,3.8,32-5.3,38.3-6.8l-0.7-6.6
		C744.7,237.4,717.3,239.1,715.1,238z"/>
	<path class="st9" d="M715.1,231.1c0.2-10.4-0.2-26.1-6.7-29.7c0,0-3.9-2.6-8.9,1.7c-2.9,2.5-4.8,19.1-2.5,32.1
		C701.3,232.8,710,231,715.1,231.1z"/>
	<path class="st9" d="M758.7,216.2c0.8-2.7,2.3-4.9,3.4-4.8s1.2,2.4,0.3,5.1c-0.8,2.6-2.2,4.6-3.2,4.8l3,18.8l-2.3,0.4l-1.1-19.2
		C758.1,221.1,757.9,218.8,758.7,216.2z"/>
	<ellipse class="st9" cx="757.7" cy="214.3" rx="6.1" ry="7.4"/>
	<polygon class="st11" points="775.6,235.6 774.6,241.8 764.8,241.9 765.4,235.2 	"/>
	<polygon class="st11" points="756.2,321 745.4,324.9 758.7,249.8 754.9,248.6 759.4,240.5 764.8,241.9 	"/>
	<path class="st9" d="M743.3,236.9c0,0,16.1-0.9,19.4-0.1c1.1,0.3,0.3,3.5-0.5,4.2c-3.9,3.2-18.9,3-18.9,3V236.9z"/>
	<path class="st19" d="M745.7,240.4c0,2-1.1,3.6-2.4,3.6s-2.4-1.6-2.4-3.6s1.1-3.6,2.4-3.6S745.7,238.5,745.7,240.4z"/>
	<path class="st8" d="M745.7,236.8c0,0,3.4-3.2,4.7-3.2s3.1,0.4,3.7,0.4c0.3,0,3.2,5.5,2.5,6.2c-0.5,0.5-2.8-3.8-2.8-3.8
		s2.7,4.4,1.5,4.7c-0.7,0.2-3-4.2-3-4.2s2.1,3.6,1.8,3.8c-1,0.6-5-4-5-4L745.7,236.8z"/>
	<path class="st8" d="M719.1,194.7l0.7,5c0,0,1.5,7.2-0.4,8.6s-8.2-8.8-8.2-8.8l0.7-12.6L719.1,194.7z"/>
	<path class="st20" d="M711.6,191c1.5,3.7,4.4,6.6,8.1,8l-0.6-4.2l-7.3-7.8L711.6,191z"/>
	<path class="st8" d="M716.3,173.7c3.5-1.2,7.3,0.7,8.4,4.2c0.1,0.4,0.2,0.7,0.3,1.1c0.3,2.1,0.5,4.2,0.5,6.4
		c0.1,5.8-2.9,11.5-5.5,11.5s-9.9-3.8-10.2-12C709.6,179.7,712.2,175.1,716.3,173.7z"/>
	<path class="st8" d="M711.7,185.4c-0.2,1.1-1.2,1.7-2.3,1.5c-1.1-0.2-1.7-1.2-1.5-2.3c0.2-0.9,1-1.6,1.9-1.6
		C711,183.3,711.8,184.3,711.7,185.4z"/>
	
		<ellipse transform="matrix(0.7071 -0.7071 0.7071 0.7071 2.597664e-02 645.8093)" class="st16" cx="779.6" cy="322.9" rx="21" ry="21"/>
	<path class="st7" d="M801.9,305.8c-1.9-2.7-10.1-12.4-26.9-6.3c-18.8,7.1-18,24.2-33.9,25.3c-11.1,0.8-32,0.4-43.8,0.1
		c-5.1,0-9.2-4.2-9.1-9.3c0-0.2,0-0.5,0-0.7c0.3-3.9,1.7-7.6,4.1-10.7c6.9-8.2,22.9-18.1,22.9-18.1l0.7-5.9l-56.2-0.9l-1.5,1.4
		l-28.6,20.3l-1.4,11.4c0,0,33,1.7,38.4,3.8s6.4,16.2,6.4,16.2l69.6,0.1c5.7,0,11.7-3,15.9-7.8l0.6-0.6c0-0.1,0-0.2,0-0.2h43.5
		l4.1-10.5c1.1-2.9-0.3-6.1-3.1-7.2C802.9,305.9,802.4,305.8,801.9,305.8L801.9,305.8z"/>
	<path class="st11" d="M775.5,278.4c-4.4,0-8-3.6-8-8s3.6-8,8-8"/>
	<path class="st21" d="M709.8,184.8c0,0-2.8-6.9-1.8-10.4c0.4-1.6,2.8-2.4,2.8-2.4c-0.1-1.4,0.6-2.8,1.8-3.5
		c2.2-1.5,6.8-0.3,6.8-0.3s3.8-3.9,7.8-1.4s0.4,6.9,0.4,6.9s1.2,2.5-2.9,3.6s-11.4-1.8-11.4-1.8c-0.1,2.7-0.5,5.4-1.4,7.9
		C711.5,184.1,710.7,184.7,709.8,184.8z"/>
	<path class="st17" d="M332.7,410.2h-6.3V384c0-13.4,10.3-24.5,23.6-25.6c0.7,0,18.8-0.1,19.5-0.1v6.3c-0.9,0-19.2,0.1-20.1,0.2
		c-9.6,1.3-16.8,9.5-16.8,19.2V410.2z"/>
	<rect x="326.4" y="346.3" class="st17" width="6.3" height="211.3"/>
	<path class="st17" d="M338.9,445.1c6.1-4.4,13.7-6.2,21.1-5.2l-32.7,23.5C328.6,456,332.8,449.5,338.9,445.1z"/>
	<path class="st17" d="M318.2,496.4c-6.1-4.4-13.7-6.2-21.1-5.2l32.7,23.6C328.5,507.4,324.3,500.8,318.2,496.4z"/>
	<path class="st17" d="M318.2,391.2c5.6,5,9,12.1,9.5,19.6l-29.9-27.1C305.3,383.5,312.6,386.2,318.2,391.2z"/>
	<path class="st8" d="M380.4,376.1c-8.1,0.2-14.8-6.2-15-14.3c-0.2-8.1,6.2-14.8,14.3-15c0.3,0,0.5,0,0.8,0h18l5.5-3.6v12.1l6.2,6.2
		l-5.8,5.8v13.1l-6.5-3.9L380.4,376.1z"/>
	<path class="st8" d="M344.6,335.8c0,8.1-6.6,14.7-14.7,14.7c-8.1,0-14.7-6.6-14.7-14.7v-18l-3.7-5.5h12.2l6.2-6.2l5.8,5.8h13.2
		l-3.9,6.5L344.6,335.8z"/>
	<path class="st9" d="M415.4,364.4c-1.4,0.5-2.9-0.2-3.4-1.6c-0.5-1.4,0.2-2.9,1.6-3.4c1.4-0.5,2.9,0.2,3.4,1.6c0,0,0,0,0,0
		C417.5,362.4,416.7,363.9,415.4,364.4z"/>
	<path class="st9" d="M411.7,352.8c-1.4,0.5-2.9-0.2-3.4-1.6c-0.5-1.4,0.2-2.9,1.6-3.4c1.4-0.5,2.9,0.2,3.4,1.6c0,0,0,0,0,0
		C413.8,350.8,413.1,352.3,411.7,352.8z"/>
	<path class="st9" d="M411.7,374.4c-1.4,0.5-2.9-0.2-3.4-1.6c-0.5-1.4,0.2-2.9,1.6-3.4c1.4-0.5,2.9,0.2,3.4,1.6c0,0,0,0,0,0
		C413.8,372.4,413.1,373.9,411.7,374.4z"/>
	<path class="st17" d="M328.3,474.7v6.3h26.3c13.4,0,24.5-10.3,25.6-23.6c0-0.7,0.1-18.8,0.1-19.5h-6.3c0,0.9-0.1,19.2-0.2,20.1
		c-1.3,9.6-9.5,16.8-19.2,16.8L328.3,474.7z"/>
	<path class="st8" d="M362.4,427c0,8.1,6.6,14.7,14.7,14.7c8.1,0,14.7-6.6,14.7-14.7l0,0v-18l3.6-5.5h-12.1l-6.2-6.2l-5.8,5.8h-13.2
		l3.9,6.5L362.4,427z"/>
	<path class="st9" d="M374.1,392c-0.5,1.4,0.2,2.9,1.6,3.4s2.9-0.2,3.4-1.6s-0.2-2.9-1.6-3.4c0,0,0,0,0,0
		C376.1,389.9,374.6,390.6,374.1,392C374.1,392,374.1,392,374.1,392z"/>
	<path class="st9" d="M385.8,395.7c-0.5,1.4,0.2,2.9,1.6,3.4s2.9-0.2,3.4-1.6c0.5-1.4-0.2-2.9-1.6-3.4c0,0,0,0,0,0
		C387.7,393.6,386.2,394.3,385.8,395.7C385.8,395.7,385.8,395.7,385.8,395.7z"/>
	<path class="st9" d="M364.1,395.7c-0.5,1.4,0.2,2.9,1.6,3.4s2.9-0.2,3.4-1.6c0.5-1.4-0.2-2.9-1.6-3.4c0,0,0,0,0,0
		C366.1,393.6,364.6,394.3,364.1,395.7C364.1,395.7,364.1,395.7,364.1,395.7z"/>
	<path class="st9" d="M332.5,298.3c0.5,1.4-0.2,2.9-1.6,3.4s-2.9-0.2-3.4-1.6c-0.5-1.4,0.2-2.9,1.6-3.4c0,0,0,0,0,0
		C330.5,296.2,332,296.9,332.5,298.3C332.4,298.3,332.4,298.3,332.5,298.3z"/>
	<path class="st9" d="M320.8,301.9c0.5,1.4-0.2,2.9-1.6,3.4s-2.9-0.2-3.4-1.6c-0.5-1.4,0.2-2.9,1.6-3.4c0,0,0,0,0,0
		C318.8,299.9,320.3,300.6,320.8,301.9z"/>
	<path class="st9" d="M342.4,301.9c0.5,1.4-0.2,2.9-1.6,3.4s-2.9-0.2-3.4-1.6c-0.5-1.4,0.2-2.9,1.6-3.4
		C340.4,299.9,342,300.6,342.4,301.9z"/>
	<path class="st2" d="M280.2,528.1c-12,0-21.7,9.7-21.7,21.7c0,0,0,0,0,0h43.4C301.9,537.8,292.2,528.1,280.2,528.1z"/>
	<path class="st2" d="M325.4,528.1c-12,0-21.7,9.7-21.7,21.7h43.5C347.1,537.8,337.4,528.1,325.4,528.1z"/>
	<path class="st2" d="M370.5,528.1c-12,0-21.7,9.7-21.7,21.7h43.5C392.3,537.8,382.5,528.1,370.5,528.1z"/>
	<path class="st2" d="M415.7,528.1c-12,0-21.7,9.7-21.8,21.7c0,0,0,0,0,0h43.5C437.4,537.8,427.7,528.1,415.7,528.1z"/>
	<path class="st11" d="M892.2,518.7c-0.6-1.1-0.9-2.3-0.8-3.6c0-1,0.3-2,0.8-2.9c0.2-0.5,0.5-0.9,0.9-1.3c1.1,1.3,1.7,2.9,1.7,4.6
		c0,0.9-0.2,1.8-0.5,2.7c1-0.3,2-0.5,3-0.7V516c-0.8-0.4-1.4-2.1-1.4-4.1c0-1,0.3-2,0.8-2.9c0.3-0.4,0.5-0.9,0.9-1.3
		c1.1,1.3,1.7,2.9,1.7,4.6c-0.1,1.2-0.4,3.6-1.6,3.8v1.2c5.8-1.3,11.5-2.4,17.2-3.2c25.2-3.4,47.9,14.6,47.9,38.1v17.2h-93.7V526
		C876.6,523.2,884.4,520.8,892.2,518.7z"/>
	<path class="st11" d="M234.9,509.5c0-1.1,0.3-2.2,0.9-3.2l0,0c0.3-0.5,0.6-0.9,1-1.4l0,0c1.2,1.4,1.9,3.2,1.9,5
		c0,1.3-0.5,3.9-1.7,4.1v1.9h-0.5v-2C235.6,513.7,234.9,511.8,234.9,509.5z"/>
	<path class="st11" d="M241.1,508.1c0-1.4,0.4-2.8,1.2-4l0,0c0.3-0.6,0.8-1.2,1.2-1.7l0,0c1.6,1.7,2.4,4,2.4,6.3
		c-0.1,1.6-0.6,4.9-2.2,5.2v2.4h-0.6v-2.5C241.9,513.3,241.1,511,241.1,508.1z"/>
	<path class="st11" d="M68.8,548.2c5.3-7.6,14.1-12.1,23.4-11.7l13,0.5c12.3,0-2.5-2.5,9.1-5.1c9.1-2,18.3-3.4,27.5-4.1
		c7.7-0.6,15.4-1.3,22.4-2.2v-1.4c-0.9-0.5-1.5-3.1-1.5-6.2c0-1.5,0.3-3,0.9-4.4c0.3-0.7,0.6-1.3,1-1.9c1.3,2.1,2,4.5,1.9,6.9
		c0,1.8-0.5,5.4-1.7,5.7v1.3c11.9-1.5,22.1-3.4,27.8-5.7c7.9-3.2,19.3-4.4,30.9-4.5v-0.4c-0.4-0.3-0.8-1.6-0.8-3.1
		c0-0.8,0.2-1.5,0.5-2.2c0.1-0.3,0.3-0.7,0.5-1c0.7,1,1,2.2,0.9,3.5c0,0.9-0.2,2.7-0.9,2.9v0.4c0.7,0,1.4,0,2.2,0V513
		c-0.7-0.5-1.3-2.7-1.3-5.3c0-1.3,0.3-2.6,0.8-3.8c0.2-0.6,0.5-1.1,0.8-1.6c1.1,1.8,1.7,3.8,1.6,5.9c0,1.5-0.4,4.6-1.5,4.9v2.2
		c1.2,0,2.5,0,3.7,0v-1.4c-0.7-0.5-1.3-2.7-1.3-5.3c0-1.3,0.3-2.6,0.8-3.8c0.2-0.6,0.5-1.1,0.8-1.6c1.1,1.8,1.7,3.8,1.6,5.9
		c0,1.5-0.4,4.6-1.5,4.9v1.3c11.7,0.2,22.9,1.3,30,2.2V553L68.8,548.2z"/>
	<path class="st7" d="M985.9,582.2c-1.7,2.5-593,1.2-626,1.8c-17.1,0.3-37,5.6-58.2,5.6c-18.7,0-38.4-5.4-58.2-5.6
		s-39.6,4.7-58.4,4.3c-21.2-0.4-40.9-6-58-6.5c-32.4-0.8-55.2,3.3-58.3,2.7v-36.4h917.1V582.2z"/>
	<path class="st10" d="M670.8,520.2v20.8l8.3,14.6c0,9.7-7.9,17.5-17.6,17.5l0,0l0,0c-9.7,0-17.6-7.9-17.6-17.5c0,0,0,0,0,0v-14.6"
		/>
	<line class="st10" x1="671.4" y1="469.6" x2="671.4" y2="437.3"/>
	<rect x="651.4" y="466.5" class="st9" width="41.9" height="53.7"/>
	<polygon class="st21" points="672.4,493.5 662.8,493.5 649.4,508.8 650.8,510 657.8,510 	"/>
	<polygon class="st21" points="644.6,493.5 639.4,499.4 639.4,510 639.5,510 654.1,493.5 	"/>
	<polygon class="st21" points="690.6,493.5 681.1,493.5 667.7,508.8 669.1,510 676.1,510 	"/>
	<polygon class="st21" points="705.8,497 705.8,493.5 699.4,493.5 685.9,508.8 687.4,510 694.4,510 	"/>
	<g>
		<path class="st22" d="M182.6,588.2c-2.8-0.9-5.6-1.5-8.5-1.8c-1.9-0.2-3.8-0.2-5.7,0c-5.5,0.4-8-1.3-14.1-2.6
			c-3.7-1-7.6-1.5-11.4-1.5c-2-0.1-3.9,0.1-5.9,0.3v0.3c3.6,1.4,7.3,2.5,11.1,3.2c2.8,0.5,5.7,0.8,8.6,0.9c2,0.1,3.6-0.1,5.8,0.1
			c5.4,0.4,6.8,2,11.4,2.2c2.9,0.2,5.9-0.1,8.7-0.8L182.6,588.2z"/>
	</g>
	<path class="st23" d="M246.7,454.9c-1.1-0.5-2.4-0.7-3.6-0.7c-1.2-1.9-4.1-3.1-7.4-3.1c-1.8,0-3.6,0.4-5.2,1.2
		c-1.6-2.3-5.3-3.9-9.4-3.9c-2.5,0-5,0.6-7.2,1.9c-0.3,0-0.5,0-0.8,0c-3,0-5.4,1.5-5.4,3.4c0,0.4,0.1,0.9,0.4,1.2L246.7,454.9z"/>
	<path class="st23" d="M206.3,436.5c-2-0.8-4.2-1.2-6.3-1.2c-2.2-3.2-7.2-5.4-12.9-5.4c-3.2,0-6.4,0.7-9.2,2.2
		c-2.8-4-9.2-6.8-16.5-6.8c-4.4-0.1-8.8,1.1-12.7,3.3c-0.5-0.1-1-0.1-1.5-0.1c-5.2,0-9.4,2.7-9.4,6c0,0.8,0.2,1.5,0.6,2.1H206.3z"/>
	<path class="st23" d="M284.2,395.3c-1.2-0.5-2.4-0.7-3.6-0.7c-1.2-1.9-4.1-3.1-7.4-3.1c-1.8,0-3.6,0.4-5.3,1.2
		c-1.6-2.3-5.3-3.9-9.4-3.9c-2.5,0-5,0.6-7.2,1.9c-0.3,0-0.5,0-0.8,0c-3,0-5.4,1.5-5.4,3.4c0,0.4,0.1,0.8,0.4,1.2L284.2,395.3z"/>
	<path class="st8" d="M828.2,505c0,0,1.8-0.3,2.2,0.8c0.2,0.6,0.3,1.2,0.1,1.8l-1.1-1.2c0,0-1.9,0.1-2.1-0.3S828.2,505,828.2,505z"
		/>
	<path class="st8" d="M850.4,505c0,0-3.5,12.7-6.7,13.6s-13.2-9.8-13.2-9.8l-2.4,2.6c0,0,8.6,11.1,16.4,13.3s10.5-8.6,10.5-8.6
		L850.4,505z"/>
	<path class="st24" d="M850.5,505.1l4.5,11c0,0-1.4,5.3-4.9,7.7c-0.9-0.3-1.6-1-1.9-1.9C846.1,516.7,850.5,505.1,850.5,505.1z"/>
	<path class="st2" d="M821.7,502.9c0,0,3.4-1.1,4.2-0.4s6.6,6.8,6.4,7.3c-1.2,0.7-2.6,1.1-4,1.1
		C826.9,510.8,820.2,503.6,821.7,502.9z"/>
	<path class="st25" d="M823.3,502.9c0.7-0.2,1.5-0.4,2.2-0.5c-1.2-0.4-3.8,0.5-3.8,0.5c-1.5,0.6,5.2,7.9,6.6,8.1
		c0.5,0.1,0.9,0,1.4-0.1C827.9,510.1,821.9,503.5,823.3,502.9z"/>
	<path class="st8" d="M824.1,507.1c0.1,0.7,0.3,1.4,0.6,2c0.8,1.3,2.1,2.3,3.6,2.7c0.7,0,3.4-2,3.1-2.4s-2.2-1.4-2.2-1.8
		S825.9,506.7,824.1,507.1z"/>
	<path class="st2" d="M775.5,590.9c0-14.4,11.7-26,26.1-26c14.4,0,26,11.7,26,26.1s-11.7,26-26.1,26c0,0,0,0,0,0
		C787.1,616.9,775.5,605.3,775.5,590.9z M778.8,590.9c0,12.6,10.2,22.8,22.8,22.8c12.6,0,22.8-10.2,22.8-22.8
		c0-12.6-10.2-22.8-22.8-22.8C789,568.1,778.8,578.3,778.8,590.9z"/>
	<path class="st23" d="M781.3,590.9c0-11.2,9.1-20.2,20.2-20.2s20.2,9.1,20.2,20.2c0,11.2-9.1,20.2-20.2,20.2l0,0
		C790.4,611.1,781.3,602.1,781.3,590.9z M782.1,590.9c0,10.7,8.7,19.4,19.4,19.4s19.4-8.7,19.4-19.4c0-10.7-8.7-19.4-19.4-19.4
		c0,0,0,0,0,0C790.8,571.5,782.2,580.2,782.1,590.9z"/>
	<path class="st23" d="M801.5,608.6c9.8,0,17.7-7.9,17.7-17.7c0-2.8-0.7-5.6-2-8.1c-0.1-0.2-0.3-0.3-0.6-0.2
		c-0.2,0.1-0.3,0.3-0.2,0.5c0,0,0,0,0,0c4.2,8.3,0.9,18.5-7.5,22.7c-4.5,2.3-9.9,2.4-14.5,0.3c-0.2-0.1-0.4,0-0.5,0.2
		c-0.1,0.2,0,0.4,0.2,0.5C796.5,608,799,608.6,801.5,608.6z"/>
	<path class="st23" d="M788.9,579.5c0.1,0,0.2,0,0.3-0.1c3.2-3.4,7.6-5.3,12.3-5.3c0.2,0,0.4-0.1,0.5-0.3c0-0.2-0.1-0.4-0.3-0.5
		c0,0-0.1,0-0.1,0c-4.9,0-9.6,2-12.9,5.6c-0.2,0.2-0.2,0.4,0,0.6c0,0,0,0,0,0C788.7,579.5,788.8,579.5,788.9,579.5z"/>
	<path class="st8" d="M829.8,592.2c0.7,0,1.2-0.5,1.2-1.2c0-16.3-13.2-29.4-29.4-29.4c-7,0-13.7,2.5-19,7c-0.5,0.4-0.6,1.2-0.1,1.7
		s1.2,0.6,1.7,0.1c11.4-9.6,28.4-8.2,38,3.2c4.1,4.9,6.4,11,6.4,17.4C828.5,591.6,829.1,592.2,829.8,592.2
		C829.8,592.2,829.8,592.2,829.8,592.2z"/>
	<path class="st26" d="M856.1,578.2l5,4.3c0,0,1.7,0.2,2.3-0.7c0.4-0.5,0.5-1.2,0.5-1.8l-4.7-5.6L856.1,578.2z"/>
	<path class="st25" d="M860,581.6c-1.1-0.4,0,0-1.2,3.8c-1.2,2.5-2.4,3.5-2,4c0.3,0.3,0.6,0.6,1,0.7l8.7-8.3c0,0-2.1-3.3-2.9-2.2
		C859.9,583,860,581.6,860,581.6z"/>
	<path class="st27" d="M863.4,538.1l-7.9,1.6c0,0-21.2,10.8-20.6,17.7s20.8,22.3,20.8,22.3l4.6-4.9c0,0-11.3-13.3-10.9-15
		s27.2-12.6,28.1-15.2s-3.7-7.3-3.7-7.3L863.4,538.1z"/>
	<path class="st27" d="M839.7,558.2c0.4-4.5,10.1-13.5,16-18.5l7.8-1.6l10.4-0.7c0,0,4.6,4.6,3.7,7.3s-27.6,13.6-28.1,15.2
		s10.9,15,10.9,15l-2,2.1C852.1,572.6,839.3,563.1,839.7,558.2z"/>
	<path class="st2" d="M857.2,590.9c0-14.4,11.7-26,26-25.9c14.4,0,26,11.7,25.9,26c0,14.3-11.7,26-26,26
		C868.8,616.9,857.2,605.3,857.2,590.9z M860.4,590.9c0,12.6,10.2,22.8,22.8,22.8c12.6,0,22.8-10.2,22.8-22.8
		c0-12.6-10.2-22.8-22.8-22.8C870.6,568.1,860.4,578.3,860.4,590.9z"/>
	<path class="st23" d="M863,590.9c0-11.2,9.1-20.2,20.2-20.2s20.2,9.1,20.2,20.2c0,11.2-9.1,20.2-20.2,20.2l0,0
		C872.1,611.1,863,602.1,863,590.9z M863.8,590.9c0,10.7,8.7,19.4,19.4,19.4c10.7,0,19.4-8.7,19.4-19.4c0-10.7-8.7-19.4-19.4-19.4
		C872.5,571.5,863.8,580.2,863.8,590.9L863.8,590.9z"/>
	<path class="st23" d="M883.2,608.6c9.8,0,17.7-7.9,17.7-17.7c0-2.8-0.7-5.6-2-8.1c-0.1-0.2-0.4-0.3-0.6-0.1
		c-0.2,0.1-0.3,0.3-0.2,0.5c1.2,2.4,1.9,5,1.9,7.7c0,9.3-7.6,16.9-16.9,16.9c-2.4,0-4.8-0.5-7-1.5c-0.2-0.1-0.4-0.1-0.6,0.1
		c-0.1,0.2-0.1,0.4,0.1,0.6c0,0,0.1,0,0.1,0C878.2,608.1,880.7,608.6,883.2,608.6z"/>
	<path class="st23" d="M870.6,579.5c0.1,0,0.2,0,0.3-0.1c3.2-3.4,7.6-5.3,12.3-5.3c0.2,0,0.4-0.1,0.5-0.3c0-0.2-0.1-0.4-0.3-0.5
		c0,0-0.1,0-0.1,0c-4.9,0-9.6,2-12.9,5.6c-0.2,0.2-0.2,0.4,0,0.6c0,0,0,0,0,0C870.4,579.5,870.5,579.5,870.6,579.5z"/>
	<path class="st8" d="M865,570.6c0.3,0,0.6-0.1,0.8-0.3c9.2-7.8,22.4-8.5,32.4-1.8c0.6,0.3,1.3,0.1,1.6-0.5c0.3-0.5,0.1-1.1-0.3-1.5
		c-10.9-7.3-25.4-6.5-35.4,2c-0.5,0.4-0.6,1.2-0.2,1.7c0,0,0,0,0,0C864.3,570.5,864.6,570.6,865,570.6z"/>
	<path class="st2" d="M883.2,588.2c0.2,0,0.3-0.1,0.3-0.3c0-0.2-0.1-0.3-0.3-0.3l-35.9-1.7c-0.2,0-0.3,0.1-0.3,0.3
		c0,0.2,0.1,0.3,0.3,0.3c0,0,0,0,0,0L883.2,588.2L883.2,588.2z"/>
	<path class="st2" d="M846.8,596L846.8,596l36.4-1.7c0.2,0,0.4-0.1,0.4-0.3s-0.1-0.4-0.3-0.4c0,0-0.1,0-0.1,0l-36.4,1.7
		c-0.2,0-0.3,0.2-0.3,0.4C846.6,595.9,846.7,596,846.8,596z"/>
	<path class="st2" d="M883.2,594.6c2,0,3.7-1.7,3.7-3.7c0-2-1.7-3.7-3.7-3.7c-2,0-3.7,1.7-3.7,3.7c0,0,0,0,0,0
		C879.5,593,881.2,594.6,883.2,594.6z"/>
	<path class="st8" d="M851.6,585c0.4,0,0.8-0.2,0.9-0.6c0.2-0.5,0-1.1-0.5-1.3c0,0,0,0,0,0c-4.5-1.8-8.2-5.2-10.4-9.5l-5.8-11.1
		c-2-3.8-4.9-6.9-8.6-9l-3.7-2.2c-0.5-0.3-1.1-0.1-1.4,0.4s-0.1,1.1,0.4,1.4l3.7,2.2c3.3,2,6,4.8,7.8,8.2l5.8,11.1
		c2.5,4.7,6.5,8.4,11.4,10.5C851.4,585,851.5,585,851.6,585z"/>
	<path class="st8" d="M848.7,590.4c0.4,0,0.7-0.2,0.9-0.5l22.4-40.2c0.3-0.5,0.1-1.1-0.4-1.4s-1.1-0.1-1.4,0.4l0,0l-22.4,40.2
		c-0.3,0.5-0.1,1.1,0.3,1.4C848.3,590.3,848.5,590.4,848.7,590.4L848.7,590.4z"/>
	<path class="st8" d="M856.8,591.9h26.4c0.6,0,1-0.4,1-1s-0.4-1-1-1h-26.4c-7.7,0-14.7-4.3-18.3-11.1l-5.8-11.1
		c-2-3.7-4.9-6.9-8.6-9l-3.7-2.2c-0.5-0.3-1.1-0.1-1.4,0.4s-0.1,1.1,0.4,1.4l3.7,2.2c3.3,2,6,4.8,7.8,8.2l5.8,11.1
		C840.7,587.3,848.4,592,856.8,591.9z"/>
	<path class="st8" d="M883.2,591.7c0.1,0,0.3,0,0.4-0.1c0.4-0.2,0.5-0.7,0.3-1.1c0,0,0,0,0,0l-18-31c-0.2-0.4-0.7-0.5-1.1-0.3
		c-0.4,0.2-0.5,0.7-0.3,1.1l18,31C882.7,591.6,882.9,591.7,883.2,591.7z"/>
	<path class="st2" d="M847.4,596.3c3,0,5.4-2.4,5.4-5.4s-2.4-5.4-5.4-5.4s-5.4,2.4-5.4,5.4c0,0,0,0,0,0
		C842,593.9,844.4,596.3,847.4,596.3C847.3,596.3,847.3,596.3,847.4,596.3z"/>
	<path class="st23" d="M886.3,590.9c0,1.7-1.3,3-3,3s-3-1.3-3-3s1.3-3,3-3S886.3,589.3,886.3,590.9z"/>
	<path class="st23" d="M852,590.9c0,2.6-2.1,4.7-4.7,4.7c-2.6,0-4.7-2.1-4.7-4.7s2.1-4.7,4.7-4.7l0,0
		C849.9,586.2,852,588.3,852,590.9z"/>
	<path class="st2" d="M843.5,606.3c0.4,0,0.7-0.3,0.8-0.7c0.1-0.4-0.2-0.9-0.7-0.9l-9-1.3c-0.4-0.1-0.9,0.2-0.9,0.7
		c-0.1,0.4,0.2,0.9,0.7,0.9c0,0,0,0,0,0l9,1.3H843.5z"/>
	<path class="st2" d="M839,605.2c0.1,0,0.3-0.1,0.3-0.2l8.3-13.5c0.1-0.2,0-0.4-0.2-0.5c-0.2-0.1-0.4,0-0.5,0.1l-8.3,13.5
		c-0.1,0.2-0.1,0.4,0.1,0.6c0,0,0,0,0,0C838.9,605.2,838.9,605.2,839,605.2z"/>
	<path class="st2" d="M876.8,547.3h-7.9c-0.6,0-1.1,0.5-1.1,1c0,0,0,0,0,0v1.3c0,0.6,0.5,1.1,1.1,1.1h10c0.6,0,1.1-0.4,1.1-1
		c0-0.2,0-0.3-0.1-0.5C879.2,548,878.1,547.3,876.8,547.3z"/>
	<path class="st8" d="M843.2,592.2v9.5c0,0,0.8,1.5,1.9,1.5c0.7,0,1.4-0.1,2.1-0.3l1-12.5L843.2,592.2z"/>
	<path class="st25" d="M843.3,600.2c-0.3-1.1,0,0-3.8,1.2c-2.7,0.5-4.3,0.1-4.4,0.7c-0.1,0.4-0.1,0.8,0,1.3l11.8,2.4
		c0,0,1.6-3.6,0.1-3.6C842.2,600.9,843.3,600.2,843.3,600.2z"/>
	<path class="st9" d="M858.6,536.7c0,0-15.4,14.2-17.7,25.1s1.8,34.1,1.8,34.1s2.2,1.1,6.7,0.5c0,0-0.1-30.3,1.5-32.5
		s26.7-15.8,27.9-19.9s-1.9-8.5-1.9-8.5L858.6,536.7z"/>
	<path class="st28" d="M858.6,536.7l18.3-1.2c0.7,1,1.2,2.1,1.6,3.3c-2.7,2.7-6.4,2.2-11,1.3c-3.8-0.8-9.2-1.5-10.1-2.2
		C858.1,537.1,858.6,536.7,858.6,536.7z"/>
	<path class="st29" d="M870.5,533.5L870.5,533.5c0.3,0,0.4-0.2,0.3-0.4c0,0,0,0,0,0c-0.2-0.7-0.3-1.1-0.3-1.2c0-0.2-0.2-0.3-0.4-0.3
		s-0.3,0.2-0.3,0.4c0,0,0,0,0,0.1c0,0,0.1,0.4,0.3,1.1C870.2,533.4,870.4,533.5,870.5,533.5z"/>
	<path class="st29" d="M846.4,596.1c0.2,0,0.3,0.1,0.4,0.3c0,0,0,0,0,0v0.2h-0.7v-0.1C846.1,596.3,846.2,596.1,846.4,596.1
		C846.4,596.1,846.4,596.1,846.4,596.1z"/>
	<path class="st23" d="M854.3,501.8c-2.1,1.2-3.7,3.1-4.5,5.4c-1,3.7-1.5,11.5,0,14.1s4.5,15.5,6.7,16.2s20.3,0.6,21.6,0.3
		s-8.3-21.6-11.6-28.4S854.3,501.8,854.3,501.8z"/>
	<path class="st30" d="M855.6,533.3c1.6-2.3-0.2-13-0.8-18.9s2.4-8.2,2.4-8.2c1.2-1.3,5.8-1.1,6.8,1.5c0.6,1.6,4.4,16.5,1.4,25.7
		v0.1c-1,2.8-3.8,4.6-6.7,4.3c-0.7,0-1.4-0.1-2.1-0.3c-0.7-0.2-1.4-1.5-2.1-3.3C854.9,534,855.3,533.7,855.6,533.3z"/>
	<path class="st8" d="M847.6,499.1c0,0,0.5,0.6,1.1,1.5c1.3,1.8,1.6,4.1,1.1,6.3c-0.6,2.1-0.9,4.2-1,6.4c0,4.1,5.4-11.5,5.4-11.5
		l-2.9-5.8L847.6,499.1z"/>
	<path class="st31" d="M847.6,499.1l3.7-3.1l1.1,2.1c-0.7,1.5-1.7,2.8-2.9,3.9c-0.2-0.5-0.5-1-0.8-1.4
		C848.2,499.8,847.6,499.1,847.6,499.1z"/>
	<path class="st2" d="M856.5,486.2c0.4-2.5,1-4.9,1.8-7.2c1.6-4.7,7.2-8.1,11.4-5.4s6.7,0,10.7-3.3s9.3-1.9,12.3,1.6s8.7,3.4,7.6,11
		s-10,12.2-15.1,8.4s-6.1-2.3-10,1.1s-13.4-2.4-15.4-4.2C858.9,487.3,857.7,486.6,856.5,486.2z"/>
	<path class="st8" d="M801.5,592c0.4,0,0.7-0.2,0.9-0.5l27.4-49.9c0.3-0.5,0.4-1,0.4-1.6v-3.2c0-0.7,0.6-1.2,1.2-1.2
		c0.2,0,0.4,0.1,0.6,0.2l4.8,2.9c0.5,0.3,1.1,0.1,1.4-0.4s0.1-1.1-0.4-1.4l-4.8-2.9c-1.5-0.9-3.5-0.4-4.4,1.1
		c-0.3,0.5-0.5,1.1-0.5,1.7v3.2c0,0.2-0.1,0.4-0.2,0.6l-27.4,49.9c-0.3,0.5-0.1,1.1,0.4,1.4c0,0,0,0,0,0
		C801.2,591.9,801.4,592,801.5,592z"/>
	<path class="st23" d="M804.6,590.9c0,1.7-1.3,3-3,3s-3-1.3-3-3s1.3-3,3-3S804.6,589.3,804.6,590.9z"/>
	<path class="st8" d="M832.8,534.4c1.3-1.3,4.7,0.1,6.2,0.6c0.8,0.3,14.5-1.6,16.1-3.9s-0.2-13-0.8-18.9s2.4-8.2,2.4-8.2
		c1.3-1.3,5.8-1.1,6.8,1.5c0.6,1.6,4.4,16.5,1.4,25.7c-3.9,11.5-26.4,6.2-26.9,6.2s-1,1.2-1.5,1.2c-1.1-0.2-2.1-0.6-3-1.2
		C833.1,537.1,831.5,535.7,832.8,534.4z"/>
	<path class="st8" d="M843.4,486.4c0,0-1.8,1-2.2,5.7s0.6,9.6,2.5,10s6.7-2.4,8.2-4.7s-0.9-9.8-3.5-11
		C846.8,485.7,845,485.7,843.4,486.4z"/>
	<path class="st2" d="M856.7,482.7c0.6,0.6,1.7,3.3,1.7,6.4s-4.2,8.9-5.2,9.3s-5.5-2.4-6.6-9.3c-0.3-1.6-3.5-2.5-3.5-2.5
		c-0.2-1.8,0.8-3.5,2.5-4.1c2.9-1.1,3.8,1,6.1,0.3S855.6,481.6,856.7,482.7z"/>
	<path class="st8" d="M847.6,493.5c0,0-0.3-2.1,0.8-2.1s2.5,2.3,1.7,3.3s-2,0.3-2,0.3L847.6,493.5z"/>
	<path class="st2" d="M111.7,597.3c0-10.4,8.5-18.9,18.9-18.9s18.9,8.5,18.9,18.9s-8.5,18.9-18.9,18.9
		C120.2,616.2,111.7,607.8,111.7,597.3z M114,597.3c0,9.1,7.4,16.5,16.5,16.5s16.5-7.4,16.5-16.5c0-9.1-7.4-16.5-16.5-16.5
		c0,0,0,0,0,0C121.5,580.8,114.1,588.2,114,597.3z"/>
	<path class="st23" d="M115.9,597.3c0-8.1,6.6-14.7,14.7-14.7c8.1,0,14.7,6.6,14.7,14.7c0,8.1-6.6,14.7-14.7,14.7c0,0,0,0,0,0
		C122.5,612,116,605.4,115.9,597.3z M116.5,597.3c0,7.8,6.3,14.1,14.1,14.1c7.8,0,14.1-6.3,14.1-14.1c0-7.8-6.3-14.1-14.1-14.1
		c0,0,0,0,0,0C122.8,583.3,116.5,589.6,116.5,597.3L116.5,597.3z"/>
	<path class="st23" d="M130.6,610.2c7.1,0,12.8-5.8,12.8-12.8c0-2-0.5-4-1.4-5.9c-0.1-0.1-0.3-0.2-0.4-0.1c-0.1,0.1-0.2,0.3-0.1,0.4
		c3.1,6,0.7,13.4-5.3,16.5c-3.3,1.7-7.3,1.8-10.7,0.2c-0.1-0.1-0.3,0-0.4,0.2c-0.1,0.1,0,0.3,0.1,0.4c0,0,0,0,0,0
		C126.9,609.8,128.7,610.2,130.6,610.2z"/>
	<path class="st23" d="M121.4,589.1c0.1,0,0.2,0,0.2-0.1c2.3-2.5,5.5-3.9,8.9-3.9c0.2,0,0.3-0.1,0.3-0.2c0-0.2-0.1-0.3-0.2-0.3
		c0,0-0.1,0-0.1,0c-3.5,0-6.9,1.5-9.4,4.1c-0.1,0.1-0.1,0.3,0,0.4C121.3,589,121.4,589.1,121.4,589.1z"/>
	<path class="st9" d="M151,598.2c0.5,0,0.9-0.4,0.9-0.9l0,0c0-11.8-9.5-21.4-21.3-21.4c-5.1,0-10,1.8-13.8,5.1
		c-0.4,0.3-0.4,0.9-0.1,1.2c0.3,0.4,0.9,0.4,1.2,0.1c8.3-7,20.6-5.9,27.6,2.3c3,3.5,4.6,8,4.6,12.6
		C150.1,597.8,150.5,598.2,151,598.2C151,598.2,151,598.2,151,598.2z"/>
	<path class="st32" d="M169.6,588.7c0.6,0.6,0.7,1.5,0.2,2.2c-0.7,1.3-1.2,2.6-0.8,3.2s7-4.7,6.7-5.1c-1.3-0.9-2.6-1.8-4-2.6
		L169.6,588.7z"/>
	<path class="st25" d="M174.7,587.9c0,0,0.5,0.5,1.4,1.2c0.6,0.5,1,1,1.3,1.7c0,0-9.1,6.7-9.7,6.7s-1.1-1.3-1.1-1.4s1-1.3,1.4-2.1
		s1.5-3.6,2.2-4s1.4-0.1,2.8-1S174.2,587.9,174.7,587.9z"/>
	<path class="st23" d="M167.7,597.4c0.6,0,9.7-6.7,9.7-6.7c-0.2-0.5-0.5-0.9-0.8-1.3c-2.9,2.7-6.3,4.9-9.9,6.5
		C166.6,596.2,167.1,597.4,167.7,597.4z"/>
	<path class="st33" d="M176.5,589.5c-2.9,2.8-6.2,5-9.9,6.5c3.3-1.5,6.3-3.5,9.1-5.8L176.5,589.5z"/>
	<path class="st2" d="M170.9,597.3c0-10.4,8.5-18.9,18.9-18.9s18.9,8.5,18.9,18.9s-8.5,18.9-18.9,18.9
		C179.4,616.2,171,607.8,170.9,597.3z M173.3,597.3c0,9.1,7.4,16.5,16.5,16.5s16.5-7.4,16.5-16.5c0-9.1-7.4-16.5-16.5-16.5
		c0,0,0,0,0,0C180.7,580.8,173.3,588.2,173.3,597.3z"/>
	<path class="st23" d="M175.2,597.3c0-8.1,6.6-14.7,14.7-14.7c8.1,0,14.7,6.6,14.7,14.7c0,8.1-6.6,14.7-14.7,14.7
		C181.7,612,175.2,605.4,175.2,597.3z M175.8,597.3c0,7.8,6.3,14.1,14.1,14.1c7.8,0,14.1-6.3,14.1-14.1c0-7.8-6.3-14.1-14.1-14.1
		c0,0,0,0,0,0C182.1,583.3,175.8,589.6,175.8,597.3z"/>
	<path class="st23" d="M189.8,610.2c7.1,0,12.8-5.8,12.8-12.9c0-2-0.5-4-1.4-5.8c-0.1-0.1-0.3-0.2-0.4-0.1c-0.1,0.1-0.2,0.3-0.1,0.4
		c0.9,1.7,1.4,3.6,1.3,5.6c0,6.8-5.5,12.2-12.2,12.2c-1.8,0-3.5-0.4-5.1-1.1c-0.1-0.1-0.3,0-0.4,0.2c-0.1,0.1,0,0.3,0.1,0.4
		c0,0,0,0,0,0C186.2,609.8,188,610.2,189.8,610.2z"/>
	<path class="st23" d="M180.7,589.1c0.1,0,0.2,0,0.2-0.1c2.3-2.5,5.5-3.9,8.9-3.9c0.2,0,0.3-0.2,0.2-0.3c0-0.1-0.1-0.2-0.2-0.2
		c-3.5,0-6.9,1.5-9.4,4.1c-0.1,0.1-0.1,0.3,0,0.4C180.6,589,180.6,589.1,180.7,589.1z"/>
	<path class="st9" d="M176.6,582.6c0.2,0,0.4-0.1,0.6-0.2c6.7-5.6,16.3-6.2,23.5-1.3c0.4,0.3,1,0.2,1.2-0.2c0.3-0.4,0.2-1-0.2-1.2
		c-7.9-5.3-18.4-4.7-25.7,1.4c-0.4,0.3-0.4,0.9-0.1,1.2C176.1,582.5,176.4,582.6,176.6,582.6z"/>
	<path class="st2" d="M162.8,600.7L162.8,600.7l27.2-1.2c0.1,0,0.1-0.1,0.1-0.2c0-0.1-0.1-0.1-0.1-0.1l-27.2,1.2
		c-0.1,0-0.2,0.1-0.2,0.2C162.6,600.7,162.7,600.7,162.8,600.7C162.8,600.7,162.8,600.7,162.8,600.7z"/>
	<path class="st34" d="M174.4,561.2l-5.5,1.1c0,0-14.8,7.5-14.3,12.3s14.4,15.5,14.4,15.5l3.2-3.4c0,0-7.9-9.2-7.5-10.4
		s18.9-8.7,19.5-10.6s-2.6-5-2.6-5L174.4,561.2z"/>
	<path class="st9" d="M164.8,596.9c0.3,0,0.5-0.1,0.7-0.4l15.4-27.5c0.2-0.4,0.1-0.8-0.3-1c-0.4-0.2-0.8-0.1-1,0.3c0,0,0,0,0,0
		l-15.4,27.5c-0.2,0.3-0.1,0.8,0.3,1c0,0,0,0,0,0C164.5,596.9,164.7,596.9,164.8,596.9z"/>
	<path class="st2" d="M189.5,595.6c0.1,0,0.2-0.1,0.2-0.2c0-0.1-0.1-0.2-0.2-0.2l-26-1.2c-0.1,0-0.2,0.1-0.2,0.2
		c0,0.1,0.1,0.2,0.2,0.2L189.5,595.6L189.5,595.6z"/>
	<path class="st34" d="M162.8,565.9c3.2-2.1,6.2-3.6,6.2-3.6l5.5-1.1l1.1-0.1L162,572.9l-1.3,9.9c-1.2-1.1-2.3-2.3-3.3-3.4
		C157.7,574.4,159.5,569.6,162.8,565.9z"/>
	<path class="st9" d="M164.1,598.5h25.7c0.6-0.1,1.1-0.6,1-1.2c-0.1-0.5-0.5-1-1-1h-24.7l-19.6-23.7c-0.4-0.5-1.1-0.5-1.6-0.2
		c0,0,0,0,0,0c-0.5,0.4-0.5,1.1-0.2,1.6L164.1,598.5z"/>
	<path class="st9" d="M190.1,597.5c0.1,0,0.2,0,0.3-0.1c0.3-0.2,0.4-0.5,0.2-0.8c0,0,0,0,0,0l-13.4-22.2c-0.2-0.3-0.5-0.4-0.8-0.2
		c-0.3,0.1-0.4,0.5-0.2,0.8c0,0,0,0,0,0l13.3,22.2C189.7,597.4,189.9,597.5,190.1,597.5z"/>
	<path class="st23" d="M167.2,597.3c0,1.9-1.5,3.4-3.4,3.4c-1.9,0-3.4-1.5-3.4-3.4c0-1.9,1.5-3.4,3.4-3.4c0,0,0,0,0,0
		C165.7,593.9,167.2,595.5,167.2,597.3z"/>
	<path d="M157.5,607.7c0.1,0,0.2,0,0.2-0.1l5.8-9.4c0.1-0.1,0-0.3-0.1-0.4c0,0,0,0,0,0c-0.1-0.1-0.3,0-0.4,0.1l-5.8,9.4
		c-0.1,0.1,0,0.3,0.1,0.4c0,0,0,0,0,0C157.4,607.7,157.5,607.7,157.5,607.7z"/>
	<path class="st2" d="M183.7,567.5h-5.5c-0.4,0-0.7,0.3-0.7,0.7v0.9c0,0.4,0.3,0.7,0.7,0.7h7c0.4,0,0.7-0.3,0.7-0.7
		c0-0.1,0-0.2-0.1-0.3C185.5,568,184.6,567.5,183.7,567.5z"/>
	<path class="st32" d="M160.4,600.4c0.1,0.9-0.4,1.8-1.3,2.1c-1.5,0.7-2.8,1.4-2.8,2.3s9.3,0.5,9.3,0s-1.8-4.9-1.8-4.9L160.4,600.4z
		"/>
	<path class="st25" d="M165.4,603.1c0,0,0.1,0.7,0.4,1.9c0.2,0.8,0.2,1.6,0,2.3c0,0-12.5-0.2-12.9-0.6s-0.1-1.8,0-2s1.7-0.5,2.6-0.9
		s3.7-2.2,4.7-2s1.3,0.8,3.1,1S164.9,602.8,165.4,603.1z"/>
	<path class="st23" d="M152.9,606.8c0.5,0.4,12.9,0.6,12.9,0.6c0.1-0.5,0.2-1.1,0.1-1.7c-4.4,0.4-8.7,0.1-13-0.9
		C152.7,605,152.4,606.4,152.9,606.8z"/>
	<path class="st33" d="M165.9,605.7c-4.4,0.5-8.8,0.2-13-0.9c3.9,0.9,7.9,1.2,11.8,1L165.9,605.7z"/>
	<path class="st11" d="M171.1,560.2c0,0-10.7,9.8-12.3,17.4s1.2,23.7,1.2,23.7c2.2,0.2,4.3,0.1,6.5-0.1c0,0-1.9-20.6-0.7-22.1
		s18.5-11,19.3-13.8s-1.3-5.9-1.3-5.9L171.1,560.2z"/>
	<path class="st35" d="M170,561.2c0.7-0.7,1.1-1.1,1.1-1.1l12.7-0.8c0.9,1.3,1.4,2.9,1.5,4.5C180.8,563.9,172.4,563.6,170,561.2z"/>
	<path class="st26" d="M160.9,556.8c-1.4,0-2.7-0.1-4.1-0.3c-1.4-0.3-3.6-1.7-4.3-0.6s0.3,1.7,1.1,2.1s6.9,1,6.9,1l1.2-0.8
		L160.9,556.8z"/>
	<path class="st30" d="M164.8,540.5c-0.7,2.3-1,4.7-1,7.2c0,4.2,3.1,7.9,0,8.3c-1.6,0.2-3.2,0.3-4.8,0.1c0.2,1,0.7,2,1.3,2.8
		c0.8,0.6,1.9,0.9,2.9,0.9c0,0,6.4-1.7,7.4-3S164.8,540.5,164.8,540.5z"/>
	<path class="st9" d="M130.6,598.1c0.3,0,0.5-0.1,0.7-0.4l19.9-36.2c0.2-0.3,0.3-0.7,0.3-1.1V558c0-0.3,0.2-0.6,0.4-0.8
		c0.3-0.2,0.6-0.2,0.9,0l3.5,2.1c0.3,0.2,0.8,0.2,1-0.1c0.2-0.3,0.2-0.8-0.1-1c0,0-0.1-0.1-0.1-0.1l-3.5-2c-1.1-0.7-2.6-0.3-3.2,0.8
		c-0.2,0.4-0.3,0.8-0.3,1.2v2.3c0,0.1,0,0.3-0.1,0.4L129.9,597c-0.2,0.4-0.1,0.8,0.3,1C130.3,598.1,130.5,598.1,130.6,598.1z"/>
	<path class="st36" d="M130.1,597.3c0,0.3,0.2,0.5,0.5,0.5c0.3,0,0.5-0.2,0.5-0.5c0-0.3-0.2-0.5-0.5-0.5S130.1,597,130.1,597.3
		C130.1,597.3,130.1,597.3,130.1,597.3z"/>
	<path class="st37" d="M170.6,537.1c0,0-4.9,0-5.6,2.6s-1.1,7.6,0,9.8c5.8,11.5,3.5,11.2,5,11.7s15.1,0.2,16.1-0.1s-1.8-14.7-9-21.2
		C173.1,536.5,170.6,537.1,170.6,537.1z"/>
	<path class="st30" d="M170.9,543.7l0.9-2.6l2.3-3.1l0.4,0.2c1.1,1.9,5.5,10.1,5,14.7c-0.6,5.2-8.4,7.3-8.4,7.3L170.9,543.7z"/>
	<polygon class="st8" points="163.8,533.5 164.8,541.5 171.1,537.9 167.7,532 	"/>
	<path class="st38" d="M168.5,533.4l-0.8-1.4l-3.9,1.4l0.5,4.5c0.5-0.1,0.9-0.3,1.3-0.6C166.9,536.3,167.9,534.9,168.5,533.4z"/>
	<path class="st34" d="M161.8,537.7l0.2-0.2c-0.4-0.3-0.3-1.8-0.2-2.7h-0.3C161.4,535,161.1,537.2,161.8,537.7z"/>
	<path class="st8" d="M164.2,523.5c0,0-0.2-0.1-1.3,1.5c-0.7,1.1-1.3,2.4-1.8,3.6c-0.7,1.9-1.4,3.9-0.8,5.9c0.3,1,4.5,1.3,6.2,0.4
		c1.9-1.3,3.1-3.5,3.2-5.8C169.5,527,164.9,523.1,164.2,523.5z"/>
	<path class="st2" d="M166.9,533.5c0.2,0.5,0.7,0.7,2,0.7c2-0.1,3.6-1.6,3.8-3.6c0.3-0.9,0.5-1.9,0.7-2.9c-0.3-5.3-6.4-6.1-7.9-6.7
		c-0.5-0.2-1.1-0.1-1.5,0.3c-0.6,0.6-1.5,0.9-2.3,0.7c-0.4-0.1-1.3-0.1-1.6,0.5c-0.8,1.6-0.8,3.3,2.1,3.3
		C168.6,525.8,166.4,532.4,166.9,533.5z"/>
	<path class="st25" d="M162.7,522c0.5-0.1,0.9-0.4,1.2-0.7c0.4-0.4,1-0.6,1.5-0.3c1.5,0.6,7.6,1.4,7.9,6.7c-0.2,1-0.4,1.9-0.7,2.9
		c0,0.3-0.1,0.5-0.2,0.8c0-0.7-0.4-1.8-2.1-3.3C167.2,525.5,163,524.7,162.7,522z"/>
	<path class="st8" d="M166.2,529.9c0,0,0.1-1.8,1.1-1.5s1.3,2.2,0.4,2.7S166.2,529.9,166.2,529.9z"/>
	<path class="st2" d="M160.6,608.5c0.3,0,0.6-0.2,0.6-0.5c0-0.3-0.2-0.6-0.5-0.6l0,0l-6.2-0.9c-0.3,0-0.6,0.2-0.6,0.6
		c0,0.3,0.2,0.5,0.4,0.6L160.6,608.5L160.6,608.5z"/>
	<path class="st8" d="M162.2,556.9c0,0-3.6,0.3-4.7,0s-3.4-1.3-4.3-0.4s0.2,1.9,0.4,2.1c0.7,0.4,1.4,0.6,2.1,0.8
		c0.4,0,0.7-0.8,1.1-0.8s3.7,1.5,5,1.7S162.2,556.9,162.2,556.9z"/>
	<path class="st23" d="M169.8,537.5c0,0-2,1.6-1.7,5.7s2.1,10.1,1,11.7s-8.8,1.8-8.8,1.8c0.7,1.2,0.9,2.6,0.5,3.9
		c0,0,12.4,2.1,14.6-4.2s-0.5-16.7-0.9-17.8C173.8,536.8,170.6,536.6,169.8,537.5z"/>
	<path class="st9" d="M155.9,558.5c-0.1,0.4,0.1,0.9,0.5,1c0,0,0,0,0,0c0.4,0.1,0.8-0.2,0.9-0.6c0.1-0.4-0.2-0.8-0.6-0.9
		C156.5,558,156.1,558.2,155.9,558.5z"/>
	<path class="st11" d="M166.6,558.2c-2.1,0-2.6,1.6-3.8,1.7c-2.4,0.1-1.9-1.5-3.2-1.8c-1-0.1-1.9,0.1-2.8,0.5
		c-0.1,0-0.1,0.1-0.1,0.2c0,0.1,0.1,0.1,0.1,0.1c3.3-0.2,2.7-0.2,3.5,0.8c0.4,0.5,1,0.9,1.7,1c0.9,0.2,1.9-0.1,2.6-0.8
		c0.7-0.7,1.8-1,2.8-0.8c0.5,0.2,1,0.4,1.4,0.7c0.1,0.1,0.3,0.1,0.5,0c0,0,0,0,0,0C169.6,559.2,167.7,558.3,166.6,558.2z"/>
	<path class="st9" d="M167.6,565.9c-0.3,0.2-0.6,0.3-0.9,0.4c-0.3,0.1-0.7,0.2-1,0.2c-0.3,0-0.7,0-1-0.1c-0.2,0-0.3-0.1-0.4-0.1
		l-0.2-0.1c-0.1,0-0.1-0.1-0.2-0.1c-0.2-0.2-0.4-0.5-0.5-0.8c-0.1-0.3-0.3-0.6-0.5-1c-0.1-0.2-0.2-0.4-0.4-0.5
		c-0.2-0.2-0.4-0.3-0.7-0.3h-0.2h-0.2c-0.1,0-0.2,0-0.3,0c-0.2,0-0.4,0-0.6,0.1c-0.7,0.2-1.3,0.3-2,0.3c-0.6-0.1-1.2-0.4-1.5-0.9
		c-0.3-0.6-0.4-1.3-0.4-2c0-0.7,0-1.4,0.1-2.1l0,0c0-0.1-0.1-0.1-0.1-0.2c-0.1,0-0.1,0-0.2,0.1c-0.2,0.7-0.3,1.4-0.4,2.2
		c-0.1,0.8,0.1,1.5,0.4,2.3c0.4,0.7,1.2,1.2,2,1.3c0.8,0,1.5-0.1,2.2-0.3l0.5-0.1h0.4h0.1c0.1,0,0.2,0,0.3,0.1
		c0.1,0.1,0.2,0.2,0.2,0.3c0.2,0.7,0.6,1.4,1.2,2c0.1,0.1,0.2,0.1,0.3,0.2l0.3,0.2c0.2,0.1,0.4,0.1,0.6,0.2c0.4,0.1,0.8,0.1,1.2,0
		c0.8-0.1,1.5-0.4,2.2-0.8c0.1-0.1,0.2-0.3,0-0.5C167.9,565.8,167.7,565.7,167.6,565.9L167.6,565.9z"/>
	<path class="st11" d="M173.4,563.4c-1.7-2.2-4.5-1.2-6.7-0.8c-3.8,0.7-2.3-2-6.5-1.8h-0.9c-0.4,0-0.8-0.1-1.1-0.4
		c-0.6-0.5-1.1-1.1-1.5-1.7c-0.5-0.7,0.1,3,2.6,3h0.9c3.1,0,2.5,2.2,5.4,2.1c1.9,0,4.2-1.1,5.7-0.6c0.6,0.2,1.2,0.6,1.5,1.2
		c0.1,0.2,0.4,0.3,0.7,0.2c0,0,0,0,0,0C174,564.4,173.7,563.8,173.4,563.4z"/>
	<path class="st22" d="M190.1,554.8c0.2,0,0.3-0.1,0.3-0.3c0,0,0,0,0,0v-24.3c0-0.2-0.2-0.3-0.4-0.3c-0.1,0-0.3,0.1-0.3,0.3v24.3
		C189.8,554.7,189.9,554.9,190.1,554.8z"/>
	<path class="st25" d="M190.1,598c0.3,0,0.5-0.2,0.5-0.5v-43c0-0.3-0.2-0.5-0.5-0.5s-0.5,0.2-0.5,0.5v43
		C189.6,597.8,189.8,598,190.1,598C190.1,598,190.1,598,190.1,598z"/>
	<path class="st36" d="M189.4,597.6c-0.1,0.4,0.2,0.8,0.7,0.9c0.4,0.1,0.8-0.2,0.9-0.7c0.1-0.4-0.2-0.8-0.7-0.9c0,0-0.1,0-0.1,0
		C189.7,596.9,189.4,597.2,189.4,597.6C189.4,597.6,189.4,597.6,189.4,597.6z"/>
	<path class="st9" d="M189.8,539.7c7-5.4,14.1,5.3,21.1,0.5c0.1-0.1,0.1-0.2,0.1-0.3c0-0.1-0.1-0.1-0.1-0.1c-1.6-0.5-3-1.3-4.2-2.5
		c-0.1-0.1-0.1-0.2,0-0.3c0,0,0,0,0,0c1.6-1.4,3-3,4.1-4.8c0.1-0.1,0-0.2-0.1-0.3c-0.1-0.1-0.2-0.1-0.2,0
		c-6.9,4.2-13.8-5.8-20.7-0.4V539.7z"/>
	<path class="st39" d="M192.4,538.4v-8.3c2-0.4,4-0.3,5.9,0.5v8.4C196.4,538.2,194.4,538,192.4,538.4z"/>
	<path class="st11" d="M169.2,525.4c-1.2,2.7-4.1,9.3-5.9,11.4c-0.3,0.3-1,1.1-1.3,0.8l-0.2,0.2c1.7,1.5,7.3-9.9,8.3-12L169.2,525.4
		z"/>
	<path class="st27" d="M176.7,527.2c0-2.9-1.6-5.5-4.1-6.9c-3.7-2.1-8.3-1-9.9,1.9l10.5,7C174.9,530.5,176.6,528.5,176.7,527.2z"/>
	<path class="st40" d="M175.9,529.7C175.9,529.8,176,529.6,175.9,529.7z"/>
	<path class="st40" d="M164.8,523.7l-2.2-1.5c1.7-2.9,6.3-4,9.9-1.9c0.6,0.4,1.2,0.8,1.7,1.3C170.7,519.9,166.4,521,164.8,523.7z"/>
	<path class="st23" d="M192,597.3c0,1.2-1,2.2-2.2,2.2s-2.2-1-2.2-2.2s1-2.2,2.2-2.2c0,0,0,0,0,0C191,595.1,192,596.1,192,597.3
		L192,597.3z"/>
	<path class="st23" d="M132.8,597.3c0,1.2-1,2.2-2.2,2.2c-1.2,0-2.2-1-2.2-2.2c0-1.2,1-2.2,2.2-2.2c0,0,0,0,0,0
		C131.8,595.1,132.8,596.1,132.8,597.3z"/>
	<polygon class="st7" points="68.8,548.2 32.4,584.6 68.8,584.6 	"/>
	<polygon class="st3" points="-474.1,616.8 965.9,616.8 965.9,0 -474,0 	"/>
</g>
</svg>
