<?xml version="1.0" encoding="utf-8"?>
<!-- Generator: Adobe Illustrator 24.1.3, SVG Export Plug-In . SVG Version: 6.00 Build 0)  -->
<svg version="1.1" id="Capa_1" xmlns="http://www.w3.org/2000/svg" xmlns:xlink="http://www.w3.org/1999/xlink" x="0px" y="0px"
	 viewBox="0 0 106.6 106.6" style="enable-background:new 0 0 106.6 106.6;" xml:space="preserve">
<style type="text/css">
	.st0{clip-path:url(#SVGID_2_);}
	.st1{fill:var(--azul-igac-dark);}
	.st2{fill:none;stroke:#FFFFFF;stroke-width:2.48;stroke-linecap:round;stroke-linejoin:round;}
</style>
<g id="Capa_2_1_">
	<g id="Capa_1-2">
		<g>
			<g>
				<defs>
					<rect id="SVGID_1_" width="106.6" height="106.6"/>
				</defs>
				<clipPath id="SVGID_2_">
					<use xlink:href="#SVGID_1_"  style="overflow:visible;"/>
				</clipPath>
				<g class="st0">
					<path class="st1" d="M106.6,53.3c0,29.4-23.9,53.3-53.3,53.3S0,82.7,0,53.3C0,23.9,23.9,0,53.3,0c0,0,0,0,0,0
						C82.7,0,106.6,23.9,106.6,53.3"/>
				</g>
			</g>
		</g>
		<path class="st2" d="M85.1,46.3l-5.4,3.1l-5.4,3.1l-5.4,3.1c-5.4,3.1-10.8,6.2-16.2,9.3l-15.7-9.4l-5.1-3l-5.1-3.1l-5.1-3.1
			l30.7-19.1L85.1,46.3z"/>
		<path class="st2" d="M85.1,52.6l-5.4,3.1c-1.8,1-3.6,2.1-5.4,3.1L52.6,71.2L31.7,58.7l-5.1-3.1l-5.1-3l5.1-3.2l5.1,3.1l5.1,3
			l15.8,9.4c5.4-3.1,10.8-6.2,16.2-9.3l5.4-3.1l5.4-3.1C81.5,50.5,83.3,51.5,85.1,52.6z"/>
		<path class="st2" d="M85.1,58.8L52.6,77.4C42.2,71.2,31.8,65,21.5,58.8l5.1-3.2c8.7,5.2,17.3,10.4,26,15.6
			c9-5.2,18.1-10.3,27.1-15.5L85.1,58.8z"/>
	</g>
</g>
</svg>
