<svg xmlns="http://www.w3.org/2000/svg" xmlns:xlink="http://www.w3.org/1999/xlink" viewBox="0 0 106.56 106.56"><defs><style>.cls-1,.cls-5{fill:none;}.cls-2{opacity:0.5;}.cls-3{clip-path:url(#clip-path);}.cls-4{fill:#fff;}.cls-5{stroke:#1f5571;stroke-linecap:round;stroke-linejoin:round;stroke-width:2.48px;}</style><clipPath id="clip-path" transform="translate(0 0)"><rect class="cls-1" width="106.56" height="106.56"/></clipPath></defs><g id="Capa_2" data-name="Capa 2"><g id="Capa_1-2" data-name="Capa 1"><g class="cls-2"><g class="cls-3"><path class="cls-4" d="M106.56,53.28A53.28,53.28,0,1,1,53.28,0a53.28,53.28,0,0,1,53.28,53.28" transform="translate(0 0)"/></g></g><path class="cls-5" d="M85.09,46.32l-5.43,3.11-5.42,3.1-5.43,3.11q-8.13,4.63-16.25,9.3L36.81,55.5l-5.11-3-5.11-3.07-5.12-3.06L52.14,27.23Z" transform="translate(0 0)"/><path class="cls-5" d="M85.09,52.57l-5.43,3.11c-1.81,1-3.61,2.06-5.42,3.09L52.56,71.18,31.7,58.69l-5.11-3.07-5.12-3,5.12-3.19,5.11,3.07,5.11,3,15.75,9.44q8.13-4.65,16.25-9.3l5.43-3.11,5.42-3.1C81.47,50.47,83.28,51.51,85.09,52.57Z" transform="translate(0 0)"/><path class="cls-5" d="M85.09,58.81,52.56,77.43Q37,68.11,21.47,58.81l5.12-3.19q13,7.8,26,15.56,13.55-7.76,27.1-15.5Z" transform="translate(0 0)"/></g></g></svg>