<svg xmlns="http://www.w3.org/2000/svg" xmlns:xlink="http://www.w3.org/1999/xlink" viewBox="0 0 97.6 97.6"><defs><style>.cls-1,.cls-5{fill:none;}.cls-2{opacity:0.8;}.cls-3{clip-path:url(#clip-path);}.cls-4{fill:#1f5571;}.cls-5{stroke:#fff;stroke-miterlimit:10;stroke-width:1.83px;}</style><clipPath id="clip-path" transform="translate(0 0)"><rect class="cls-1" width="97.6" height="97.6"/></clipPath></defs><g id="Capa_2" data-name="Capa 2"><g id="Capa_1-2" data-name="Capa 1"><g class="cls-2"><g class="cls-3"><path class="cls-4" d="M97.6,48.8A48.8,48.8,0,1,1,48.8,0,48.8,48.8,0,0,1,97.6,48.8" transform="translate(0 0)"/></g></g><path class="cls-5" d="M52,65a16.13,16.13,0,0,1,.35-32.26l.38,0,.31-13.61L48.73,19l-1.08,5.06a24.43,24.43,0,0,0-7.95,3.16L35.35,24.1l-6.59,6.36,3,4.59a25.4,25.4,0,0,0-3.24,7.55l-5.62.9q-.08,4.57-.16,9.15l5.5,1.18a25.38,25.38,0,0,0,2.86,7.67L27.8,66l6.36,6.59,4.46-2.9a24.39,24.39,0,0,0,7.75,3.55q.42,2.61.83,5.22l4.51.08Z" transform="translate(0 0)"/><path class="cls-5" d="M66.88,31.79A2.79,2.79,0,1,1,64.09,29,2.78,2.78,0,0,1,66.88,31.79Z" transform="translate(0 0)"/><path class="cls-5" d="M74.88,44.49a2.79,2.79,0,1,1-2.79-2.79A2.78,2.78,0,0,1,74.88,44.49Z" transform="translate(0 0)"/><path class="cls-5" d="M62.26,44.37a2.79,2.79,0,1,1-2.79-2.79A2.79,2.79,0,0,1,62.26,44.37Z" transform="translate(0 0)"/><path class="cls-5" d="M50,50.19a2.79,2.79,0,1,1-2.79-2.79A2.79,2.79,0,0,1,50,50.19Z" transform="translate(0 0)"/><path class="cls-5" d="M72.57,62.22a2.79,2.79,0,1,1-2.78-2.79A2.78,2.78,0,0,1,72.57,62.22Z" transform="translate(0 0)"/><polyline class="cls-5" points="53.78 26.87 64.23 26.87 64.23 28.85"/><polyline class="cls-5" points="52.21 70.45 69.69 70.45 69.69 64.52"/><line class="cls-5" x1="37.71" y1="44.18" x2="56.39" y2="44.18"/><polyline class="cls-5" points="38.7 56.16 65.65 56.16 65.65 51.44 72.03 51.44 72.03 46.93"/><line class="cls-5" x1="47.19" y1="44.68" x2="47.19" y2="47.64"/></g></g></svg>