<svg xmlns="http://www.w3.org/2000/svg" xmlns:xlink="http://www.w3.org/1999/xlink" viewBox="0 0 97.6 97.6"><defs><style>.cls-1,.cls-5,.cls-6{fill:none;}.cls-2{opacity:0.8;}.cls-3{clip-path:url(#clip-path);}.cls-4{fill:#1f5571;}.cls-5,.cls-6{stroke:#fff;stroke-width:1.83px;}.cls-5{stroke-miterlimit:10;}.cls-6{stroke-linecap:round;stroke-linejoin:round;}</style><clipPath id="clip-path" transform="translate(0 0)"><rect class="cls-1" width="97.6" height="97.6"/></clipPath></defs><g id="Capa_2" data-name="Capa 2"><g id="Capa_1-2" data-name="Capa 1"><g class="cls-2"><g class="cls-3"><path class="cls-4" d="M97.6,48.8A48.8,48.8,0,1,1,48.8,0,48.8,48.8,0,0,1,97.6,48.8" transform="translate(0 0)"/></g></g><path class="cls-5" d="M71,74.12a6.51,6.51,0,0,1-12.88,1.37A6.31,6.31,0,0,1,58,74.12a6.5,6.5,0,0,1,6.17-6.5h.34A6.5,6.5,0,0,1,71,74.12Z" transform="translate(0 0)"/><path class="cls-5" d="M64.17,21V67.62A6.5,6.5,0,0,0,58,74.12a6.31,6.31,0,0,0,.14,1.37H32.5a4.08,4.08,0,0,1-4.09-4.07V21A4.08,4.08,0,0,1,32.5,17H60.09A4.08,4.08,0,0,1,64.17,21Z" transform="translate(0 0)"/><polyline class="cls-6" points="61.13 74.37 63.27 76.62 67.89 72.22"/><line class="cls-6" x1="35.54" y1="25.04" x2="56.75" y2="25.04"/><line class="cls-6" x1="35.22" y1="43.29" x2="56.43" y2="43.29"/><line class="cls-6" x1="35.22" y1="61.54" x2="56.43" y2="61.54"/><line class="cls-6" x1="39.81" y1="49.37" x2="56.63" y2="49.37"/><line class="cls-6" x1="35.49" y1="55.46" x2="43.98" y2="55.46"/><line class="cls-6" x1="40.58" y1="67.62" x2="52.49" y2="67.62"/><line class="cls-6" x1="35.91" y1="31.13" x2="51.75" y2="31.13"/><line class="cls-6" x1="44.71" y1="37.21" x2="56.51" y2="37.21"/></g></g></svg>