<svg xmlns="http://www.w3.org/2000/svg" viewBox="0 0 32.86 32.86"><defs><style>.cls-1{fill:#fff;}.cls-2{fill:none;stroke:#0c3755;stroke-miterlimit:10;}.cls-3{fill:var(--azul-igac-dark);opacity:0.95;}</style></defs><g id="Capa_2" data-name="Capa 2"><g id="Capa_1-2" data-name="Capa 1"><path class="cls-1" d="M32.86,16.43A16.43,16.43,0,1,1,16.43,0,16.42,16.42,0,0,1,32.86,16.43"/><path class="cls-2" d="M24.32,22.86H8.54a1.28,1.28,0,0,1-1.28-1.28V11.65H24.32a1.28,1.28,0,0,1,1.28,1.28v8.65A1.28,1.28,0,0,1,24.32,22.86Z"/><path class="cls-2" d="M17.55,11.64H7.27V10.59A.6.6,0,0,1,7.86,10H17a.6.6,0,0,1,.6.59Z"/><path class="cls-3" d="M13.38,16.12a1,1,0,0,1,.51.1.68.68,0,0,1,.36.6.7.7,0,0,1-.33.6,1,1,0,0,1-.56.11H13v.94h-.59V16.12Zm-.37.44v.54h.2c.19,0,.44,0,.44-.28s-.26-.26-.43-.26Z"/><path class="cls-3" d="M14.22,18.5a.31.31,0,0,1-.31-.3.3.3,0,0,1,.3-.3.29.29,0,0,1,.3.3.3.3,0,0,1-.29.3"/><path class="cls-3" d="M16.14,18.5a1.21,1.21,0,1,1,0-2.41,1.21,1.21,0,1,1,0,2.41m0-1.91a.68.68,0,0,0-.74.72.74.74,0,0,0,1.48,0,.68.68,0,0,0-.74-.72"/><path class="cls-3" d="M17.88,18.5a.31.31,0,0,1-.3-.3.3.3,0,0,1,.3-.3.29.29,0,0,1,.3.3.31.31,0,0,1-.3.3"/><polygon class="cls-3" points="20.44 16.56 19.59 16.56 19.59 18.47 19 18.47 19 16.56 18.15 16.56 18.15 16.12 20.44 16.12 20.44 16.56"/></g></g></svg>