<svg xmlns="http://www.w3.org/2000/svg" xmlns:xlink="http://www.w3.org/1999/xlink" viewBox="0 0 106.56 106.56"><defs><style>.cls-1,.cls-5{fill:none;}.cls-2{opacity:0.8;}.cls-3{clip-path:url(#clip-path);}.cls-4{fill:#1f5571;}.cls-5{stroke:#fff;stroke-miterlimit:10;stroke-width:2px;}.cls-6{fill:#fff;}</style><clipPath id="clip-path" transform="translate(0 0)"><rect class="cls-1" width="106.56" height="106.56"/></clipPath></defs><g id="Capa_2" data-name="Capa 2"><g id="Capa_1-2" data-name="Capa 1"><g class="cls-2"><g class="cls-3"><path class="cls-4" d="M106.56,53.28A53.28,53.28,0,1,1,53.28,0a53.27,53.27,0,0,1,53.28,53.28" transform="translate(0 0)"/></g></g><path class="cls-5" d="M80.78,75.68h-55a4.45,4.45,0,0,1-4.45-4.45V36.64H80.78a4.46,4.46,0,0,1,4.45,4.46V71.23A4.45,4.45,0,0,1,80.78,75.68Z" transform="translate(0 0)"/><path class="cls-5" d="M57.17,36.61H21.37V33a2.07,2.07,0,0,1,2.06-2.07H55.11A2.07,2.07,0,0,1,57.17,33Z" transform="translate(0 0)"/><path class="cls-6" d="M42.66,52.21a3.52,3.52,0,0,1,1.78.34,2.37,2.37,0,0,1,1.25,2.08,2.44,2.44,0,0,1-1.17,2.09,3.48,3.48,0,0,1-1.94.38H41.37v3.29H39.31V52.21Zm-1.29,1.51V55.6H42c.66,0,1.54,0,1.54-1s-.9-.93-1.49-.93Z" transform="translate(0 0)"/><path class="cls-6" d="M45.56,60.5a1.07,1.07,0,0,1-1.05-1,1,1,0,0,1,1-1.05,1,1,0,0,1,1,1,1,1,0,0,1-1,1.06" transform="translate(0 0)"/><path class="cls-6" d="M52.27,60.5a4.23,4.23,0,1,1,0-8.4,4.23,4.23,0,1,1,0,8.4m0-6.66a2.37,2.37,0,0,0-2.56,2.51,2.42,2.42,0,0,0,2.57,2.49,2.44,2.44,0,0,0,2.58-2.48,2.39,2.39,0,0,0-2.59-2.52" transform="translate(0 0)"/><path class="cls-6" d="M58.33,60.5a1.07,1.07,0,0,1-1.06-1,1.06,1.06,0,0,1,1-1.05,1,1,0,0,1,1,1,1,1,0,0,1-1,1.06" transform="translate(0 0)"/><polygon class="cls-6" points="67.25 53.74 64.3 53.74 64.3 60.39 62.23 60.39 62.23 53.74 59.26 53.74 59.26 52.21 67.25 52.21 67.25 53.74"/></g></g></svg>