<?xml version="1.0" encoding="utf-8"?>
<!-- Generator: Adobe Illustrator 24.1.3, SVG Export Plug-In . SVG Version: 6.00 Build 0)  -->
<svg version="1.1" id="Capa_1" xmlns="http://www.w3.org/2000/svg" xmlns:xlink="http://www.w3.org/1999/xlink" x="0px" y="0px"
	 viewBox="0 0 106.6 106.6" style="enable-background:new 0 0 106.6 106.6;" xml:space="preserve">
<style type="text/css">
	.st0{clip-path:url(#SVGID_2_);}
	.st1{fill:var(--azul-igac-dark);}
	.st2{fill:none;stroke:#FFFFFF;stroke-width:3;stroke-linecap:round;stroke-linejoin:round;}
</style>
<g id="Capa_2_1_">
	<g id="Capa_1-2">
		<g>
			<g>
				<defs>
					<rect id="SVGID_1_" width="106.6" height="106.6"/>
				</defs>
				<clipPath id="SVGID_2_">
					<use xlink:href="#SVGID_1_"  style="overflow:visible;"/>
				</clipPath>
				<g class="st0">
					<path class="st1" d="M106.6,53.3c0,29.4-23.9,53.3-53.3,53.3S0,82.7,0,53.3C0,23.9,23.9,0,53.3,0c0,0,0,0,0,0
						C82.7,0,106.6,23.9,106.6,53.3"/>
				</g>
			</g>
		</g>
		<rect x="27.1" y="24.4" class="st2" width="51.4" height="56.6"/>
		<polyline class="st2" points="34.8,25.3 51.6,47.2 65,46.2 71.8,55.6 65.3,63.5 49.7,65.2 39.1,81.2 		"/>
		<path class="st2" d="M28.1,53.2l22.3-5.3l-6,9.4l5.3,7.9"/>
		<line class="st2" x1="66" y1="45.2" x2="78" y2="35.2"/>
		<line class="st2" x1="46.6" y1="39" x2="69.1" y2="25.1"/>
		<line class="st2" x1="65.3" y1="64.9" x2="78.5" y2="81"/>
	</g>
</g>
</svg>
