<svg xmlns="http://www.w3.org/2000/svg" xmlns:xlink="http://www.w3.org/1999/xlink" viewBox="0 0 106.56 106.56"><defs><style>.cls-1,.cls-5{fill:none;}.cls-2{opacity:0.5;}.cls-3{clip-path:url(#clip-path);}.cls-4{fill:#fff;}.cls-5{stroke:#1f5571;stroke-linecap:round;stroke-linejoin:round;stroke-width:3px;}</style><clipPath id="clip-path" transform="translate(0 0)"><rect class="cls-1" width="106.56" height="106.56"/></clipPath></defs><g id="Capa_2" data-name="Capa 2"><g id="Capa_1-2" data-name="Capa 1"><g class="cls-2"><g class="cls-3"><path class="cls-4" d="M106.56,53.28A53.28,53.28,0,1,1,53.28,0a53.28,53.28,0,0,1,53.28,53.28" transform="translate(0 0)"/></g></g><rect class="cls-5" x="27.12" y="24.36" width="51.36" height="56.64"/><polyline class="cls-5" points="34.8 25.32 51.6 47.16 65.04 46.2 71.76 55.56 65.28 63.48 49.68 65.16 39.12 81.24"/><path class="cls-5" d="M28.08,53.16,50.4,47.88l-6,9.36,5.28,7.92" transform="translate(0 0)"/><line class="cls-5" x1="66" y1="45.24" x2="78" y2="35.16"/><line class="cls-5" x1="46.56" y1="39" x2="69.12" y2="25.08"/><line class="cls-5" x1="65.28" y1="64.92" x2="78.48" y2="81"/></g></g></svg>